%TF.GenerationSoftware,KiCad,Pcbnew,10.0.5*%
%TF.CreationDate,2026-08-08T00:49:49+02:00*%
%TF.ProjectId,AIR-VOCNOX,4149522d-564f-4434-9e4f-582e6b696361,rev?*%
%TF.SameCoordinates,Original*%
%TF.FileFunction,Copper,L3,Inr*%
%TF.FilePolarity,Positive*%
%FSLAX46Y46*%
G04 Gerber Fmt 4.6, Leading zero omitted, Abs format (unit mm)*
G04 Created by KiCad (PCBNEW 10.0.5) date 2026-08-08 00:49:49*
%MOMM*%
%LPD*%
G01*
G04 APERTURE LIST*
%TA.AperFunction,ComponentPad*%
%ADD10R,1.700000X1.700000*%
%TD*%
%TA.AperFunction,ComponentPad*%
%ADD11C,1.700000*%
%TD*%
%TA.AperFunction,ViaPad*%
%ADD12C,0.700000*%
%TD*%
%TA.AperFunction,ViaPad*%
%ADD13C,0.600000*%
%TD*%
%TA.AperFunction,Conductor*%
%ADD14C,0.200000*%
%TD*%
%TA.AperFunction,Conductor*%
%ADD15C,0.250000*%
%TD*%
G04 APERTURE END LIST*
D10*
%TO.N,GND*%
%TO.C,J1*%
X12500000Y-4000000D03*
D11*
%TO.N,SLOT_5V*%
X15040000Y-4000000D03*
%TO.N,I2C_SDA*%
X12500000Y-6540000D03*
%TO.N,I2C_SCL*%
X15040000Y-6540000D03*
X12500000Y-9080000D03*
%TO.N,I2C_SDA*%
X15040000Y-9080000D03*
%TO.N,SLOT_5V*%
X12500000Y-11620000D03*
%TO.N,GND*%
X15040000Y-11620000D03*
%TD*%
D12*
%TO.N,SLOT_5V*%
X18300000Y-13920000D03*
D13*
X18265300Y-13335000D03*
%TO.N,GND*%
X11945400Y-19011200D03*
%TO.N,MOD_3V3*%
X11944100Y-18100000D03*
X16386200Y-13132500D03*
X6411500Y-13263500D03*
X6900000Y-23324100D03*
%TO.N,I2C_SDA*%
X8046300Y-18555500D03*
%TO.N,I2C_SCL*%
X11346000Y-16468300D03*
%TD*%
%TO.N,SLOT_5V*%
D14*
X18125000Y-13335000D02*
X17540000Y-13920000D01*
D15*
X17540000Y-4000000D02*
X17540000Y-13920000D01*
X10000000Y-13920000D02*
X10000000Y-11620000D01*
D14*
X18265300Y-13335000D02*
X18125000Y-13335000D01*
D15*
X15040000Y-4000000D02*
X17540000Y-4000000D01*
X17540000Y-13920000D02*
X10000000Y-13920000D01*
X10000000Y-11620000D02*
X12500000Y-11620000D01*
D14*
X17540000Y-13920000D02*
X18300000Y-13920000D01*
%TO.N,MOD_3V3*%
X6900000Y-23144100D02*
X6900000Y-23324100D01*
X11944100Y-18100000D02*
X6900000Y-23144100D01*
%TO.N,I2C_SDA*%
X15040000Y-9080000D02*
X13757800Y-10362200D01*
X8046300Y-12943300D02*
X8046300Y-18555500D01*
X13757800Y-10362200D02*
X10627400Y-10362200D01*
X10627400Y-10362200D02*
X8046300Y-12943300D01*
%TD*%
M02*
