%TF.GenerationSoftware,KiCad,Pcbnew,10.0.5*%
%TF.CreationDate,2026-08-08T00:49:49+02:00*%
%TF.ProjectId,AIR-VOCNOX,4149522d-564f-4434-9e4f-582e6b696361,rev?*%
%TF.SameCoordinates,Original*%
%TF.FileFunction,Legend,Bot*%
%TF.FilePolarity,Positive*%
%FSLAX46Y46*%
G04 Gerber Fmt 4.6, Leading zero omitted, Abs format (unit mm)*
G04 Created by KiCad (PCBNEW 10.0.5) date 2026-08-08 00:49:49*
%MOMM*%
%LPD*%
G01*
G04 APERTURE LIST*
%ADD10C,0.120000*%
G04 APERTURE END LIST*
D10*
X8898807Y-1248200D02*
X8715473Y-986295D01*
X8584521Y-1248200D02*
X8584521Y-698200D01*
X8584521Y-698200D02*
X8794045Y-698200D01*
X8794045Y-698200D02*
X8846426Y-724390D01*
X8846426Y-724390D02*
X8872616Y-750581D01*
X8872616Y-750581D02*
X8898807Y-802962D01*
X8898807Y-802962D02*
X8898807Y-881533D01*
X8898807Y-881533D02*
X8872616Y-933914D01*
X8872616Y-933914D02*
X8846426Y-960105D01*
X8846426Y-960105D02*
X8794045Y-986295D01*
X8794045Y-986295D02*
X8584521Y-986295D01*
X9134521Y-960105D02*
X9317854Y-960105D01*
X9396426Y-1248200D02*
X9134521Y-1248200D01*
X9134521Y-1248200D02*
X9134521Y-698200D01*
X9134521Y-698200D02*
X9396426Y-698200D01*
X9553568Y-698200D02*
X9736902Y-1248200D01*
X9736902Y-1248200D02*
X9920235Y-698200D01*
X10496426Y-1091057D02*
X10758331Y-1091057D01*
X10444045Y-1248200D02*
X10627379Y-698200D01*
X10627379Y-698200D02*
X10810712Y-1248200D01*
X10994046Y-1038676D02*
X11413094Y-1038676D01*
X11674998Y-960105D02*
X11858331Y-960105D01*
X11936903Y-1248200D02*
X11674998Y-1248200D01*
X11674998Y-1248200D02*
X11674998Y-698200D01*
X11674998Y-698200D02*
X11936903Y-698200D01*
X12146426Y-1222010D02*
X12224998Y-1248200D01*
X12224998Y-1248200D02*
X12355950Y-1248200D01*
X12355950Y-1248200D02*
X12408331Y-1222010D01*
X12408331Y-1222010D02*
X12434522Y-1195819D01*
X12434522Y-1195819D02*
X12460712Y-1143438D01*
X12460712Y-1143438D02*
X12460712Y-1091057D01*
X12460712Y-1091057D02*
X12434522Y-1038676D01*
X12434522Y-1038676D02*
X12408331Y-1012486D01*
X12408331Y-1012486D02*
X12355950Y-986295D01*
X12355950Y-986295D02*
X12251188Y-960105D01*
X12251188Y-960105D02*
X12198807Y-933914D01*
X12198807Y-933914D02*
X12172617Y-907724D01*
X12172617Y-907724D02*
X12146426Y-855343D01*
X12146426Y-855343D02*
X12146426Y-802962D01*
X12146426Y-802962D02*
X12172617Y-750581D01*
X12172617Y-750581D02*
X12198807Y-724390D01*
X12198807Y-724390D02*
X12251188Y-698200D01*
X12251188Y-698200D02*
X12382141Y-698200D01*
X12382141Y-698200D02*
X12460712Y-724390D01*
X12984522Y-1248200D02*
X12670236Y-1248200D01*
X12827379Y-1248200D02*
X12827379Y-698200D01*
X12827379Y-698200D02*
X12774998Y-776771D01*
X12774998Y-776771D02*
X12722617Y-829152D01*
X12722617Y-829152D02*
X12670236Y-855343D01*
X13770237Y-1431533D02*
X13770237Y-645819D01*
X14555952Y-750581D02*
X14582143Y-724390D01*
X14582143Y-724390D02*
X14634524Y-698200D01*
X14634524Y-698200D02*
X14765476Y-698200D01*
X14765476Y-698200D02*
X14817857Y-724390D01*
X14817857Y-724390D02*
X14844048Y-750581D01*
X14844048Y-750581D02*
X14870238Y-802962D01*
X14870238Y-802962D02*
X14870238Y-855343D01*
X14870238Y-855343D02*
X14844048Y-933914D01*
X14844048Y-933914D02*
X14529762Y-1248200D01*
X14529762Y-1248200D02*
X14870238Y-1248200D01*
X15210715Y-698200D02*
X15263096Y-698200D01*
X15263096Y-698200D02*
X15315477Y-724390D01*
X15315477Y-724390D02*
X15341667Y-750581D01*
X15341667Y-750581D02*
X15367858Y-802962D01*
X15367858Y-802962D02*
X15394048Y-907724D01*
X15394048Y-907724D02*
X15394048Y-1038676D01*
X15394048Y-1038676D02*
X15367858Y-1143438D01*
X15367858Y-1143438D02*
X15341667Y-1195819D01*
X15341667Y-1195819D02*
X15315477Y-1222010D01*
X15315477Y-1222010D02*
X15263096Y-1248200D01*
X15263096Y-1248200D02*
X15210715Y-1248200D01*
X15210715Y-1248200D02*
X15158334Y-1222010D01*
X15158334Y-1222010D02*
X15132143Y-1195819D01*
X15132143Y-1195819D02*
X15105953Y-1143438D01*
X15105953Y-1143438D02*
X15079762Y-1038676D01*
X15079762Y-1038676D02*
X15079762Y-907724D01*
X15079762Y-907724D02*
X15105953Y-802962D01*
X15105953Y-802962D02*
X15132143Y-750581D01*
X15132143Y-750581D02*
X15158334Y-724390D01*
X15158334Y-724390D02*
X15210715Y-698200D01*
X15603572Y-750581D02*
X15629763Y-724390D01*
X15629763Y-724390D02*
X15682144Y-698200D01*
X15682144Y-698200D02*
X15813096Y-698200D01*
X15813096Y-698200D02*
X15865477Y-724390D01*
X15865477Y-724390D02*
X15891668Y-750581D01*
X15891668Y-750581D02*
X15917858Y-802962D01*
X15917858Y-802962D02*
X15917858Y-855343D01*
X15917858Y-855343D02*
X15891668Y-933914D01*
X15891668Y-933914D02*
X15577382Y-1248200D01*
X15577382Y-1248200D02*
X15917858Y-1248200D01*
X16389287Y-698200D02*
X16284525Y-698200D01*
X16284525Y-698200D02*
X16232144Y-724390D01*
X16232144Y-724390D02*
X16205954Y-750581D01*
X16205954Y-750581D02*
X16153573Y-829152D01*
X16153573Y-829152D02*
X16127382Y-933914D01*
X16127382Y-933914D02*
X16127382Y-1143438D01*
X16127382Y-1143438D02*
X16153573Y-1195819D01*
X16153573Y-1195819D02*
X16179763Y-1222010D01*
X16179763Y-1222010D02*
X16232144Y-1248200D01*
X16232144Y-1248200D02*
X16336906Y-1248200D01*
X16336906Y-1248200D02*
X16389287Y-1222010D01*
X16389287Y-1222010D02*
X16415478Y-1195819D01*
X16415478Y-1195819D02*
X16441668Y-1143438D01*
X16441668Y-1143438D02*
X16441668Y-1012486D01*
X16441668Y-1012486D02*
X16415478Y-960105D01*
X16415478Y-960105D02*
X16389287Y-933914D01*
X16389287Y-933914D02*
X16336906Y-907724D01*
X16336906Y-907724D02*
X16232144Y-907724D01*
X16232144Y-907724D02*
X16179763Y-933914D01*
X16179763Y-933914D02*
X16153573Y-960105D01*
X16153573Y-960105D02*
X16127382Y-1012486D01*
%TO.C,J1*%
X11170000Y-2670000D02*
X11170000Y-4000000D01*
X11170000Y-5270000D02*
X11170000Y-12950000D01*
X12500000Y-2670000D02*
X11170000Y-2670000D01*
X13770000Y-2670000D02*
X13770000Y-5270000D01*
X13770000Y-5270000D02*
X11170000Y-5270000D01*
X16370000Y-2670000D02*
X13770000Y-2670000D01*
X16370000Y-2670000D02*
X16370000Y-12950000D01*
X16370000Y-12950000D02*
X11170000Y-12950000D01*
%TD*%
M02*
