%TF.GenerationSoftware,KiCad,Pcbnew,10.0.5*%
%TF.CreationDate,2026-08-08T00:49:49+02:00*%
%TF.ProjectId,AIR-VOCNOX,4149522d-564f-4434-9e4f-582e6b696361,rev?*%
%TF.SameCoordinates,Original*%
%TF.FileFunction,Copper,L1,Top*%
%TF.FilePolarity,Positive*%
%FSLAX46Y46*%
G04 Gerber Fmt 4.6, Leading zero omitted, Abs format (unit mm)*
G04 Created by KiCad (PCBNEW 10.0.5) date 2026-08-08 00:49:49*
%MOMM*%
%LPD*%
G01*
G04 APERTURE LIST*
G04 Aperture macros list*
%AMRoundRect*
0 Rectangle with rounded corners*
0 $1 Rounding radius*
0 $2 $3 $4 $5 $6 $7 $8 $9 X,Y pos of 4 corners*
0 Add a 4 corners polygon primitive as box body*
4,1,4,$2,$3,$4,$5,$6,$7,$8,$9,$2,$3,0*
0 Add four circle primitives for the rounded corners*
1,1,$1+$1,$2,$3*
1,1,$1+$1,$4,$5*
1,1,$1+$1,$6,$7*
1,1,$1+$1,$8,$9*
0 Add four rect primitives between the rounded corners*
20,1,$1+$1,$2,$3,$4,$5,0*
20,1,$1+$1,$4,$5,$6,$7,0*
20,1,$1+$1,$6,$7,$8,$9,0*
20,1,$1+$1,$8,$9,$2,$3,0*%
G04 Aperture macros list end*
%TA.AperFunction,SMDPad,CuDef*%
%ADD10RoundRect,0.250000X-0.250000X-0.475000X0.250000X-0.475000X0.250000X0.475000X-0.250000X0.475000X0*%
%TD*%
%TA.AperFunction,SMDPad,CuDef*%
%ADD11RoundRect,0.150000X0.150000X-0.512500X0.150000X0.512500X-0.150000X0.512500X-0.150000X-0.512500X0*%
%TD*%
%TA.AperFunction,SMDPad,CuDef*%
%ADD12RoundRect,0.200000X-0.200000X-0.275000X0.200000X-0.275000X0.200000X0.275000X-0.200000X0.275000X0*%
%TD*%
%TA.AperFunction,SMDPad,CuDef*%
%ADD13RoundRect,0.225000X-0.225000X-0.250000X0.225000X-0.250000X0.225000X0.250000X-0.225000X0.250000X0*%
%TD*%
%TA.AperFunction,SMDPad,CuDef*%
%ADD14R,0.585000X0.448000*%
%TD*%
%TA.AperFunction,SMDPad,CuDef*%
%ADD15R,1.250000X1.650000*%
%TD*%
%TA.AperFunction,ComponentPad*%
%ADD16R,1.700000X1.700000*%
%TD*%
%TA.AperFunction,ComponentPad*%
%ADD17C,1.700000*%
%TD*%
%TA.AperFunction,ViaPad*%
%ADD18C,0.700000*%
%TD*%
%TA.AperFunction,ViaPad*%
%ADD19C,0.600000*%
%TD*%
%TA.AperFunction,Conductor*%
%ADD20C,0.200000*%
%TD*%
%TA.AperFunction,Conductor*%
%ADD21C,0.150000*%
%TD*%
%TA.AperFunction,Conductor*%
%ADD22C,0.250000*%
%TD*%
G04 APERTURE END LIST*
D10*
%TO.P,C4,1*%
%TO.N,SLOT_5V*%
X17050000Y-17000000D03*
%TO.P,C4,2*%
%TO.N,GND*%
X18950000Y-17000000D03*
%TD*%
D11*
%TO.P,U2,1*%
%TO.N,SLOT_5V*%
X19050000Y-14137500D03*
%TO.P,U2,2*%
%TO.N,GND*%
X20000000Y-14137500D03*
%TO.P,U2,3*%
%TO.N,SLOT_5V*%
X20950000Y-14137500D03*
%TO.P,U2,4*%
%TO.N,N/C*%
X20950000Y-11862500D03*
%TO.P,U2,5*%
%TO.N,MOD_3V3*%
X19050000Y-11862500D03*
%TD*%
D12*
%TO.P,R1,1*%
%TO.N,MOD_3V3*%
X5675000Y-14000000D03*
%TO.P,R1,2*%
%TO.N,SGP_VDD*%
X7325000Y-14000000D03*
%TD*%
D13*
%TO.P,C3,1*%
%TO.N,MOD_3V3*%
X9225000Y-22000000D03*
%TO.P,C3,2*%
%TO.N,GND*%
X10775000Y-22000000D03*
%TD*%
D10*
%TO.P,C1,1*%
%TO.N,SGP_VDD*%
X12050000Y-14000000D03*
%TO.P,C1,2*%
%TO.N,GND*%
X13950000Y-14000000D03*
%TD*%
D14*
%TO.P,U1,1*%
%TO.N,SGP_VDD*%
X8860000Y-17200000D03*
%TO.P,U1,2*%
%TO.N,GND*%
X8860000Y-18000000D03*
%TO.P,U1,3*%
%TO.N,I2C_SDA*%
X8860000Y-18800000D03*
%TO.P,U1,4*%
%TO.N,GND*%
X11140000Y-18800000D03*
%TO.P,U1,5*%
%TO.N,MOD_3V3*%
X11140000Y-18000000D03*
%TO.P,U1,6*%
%TO.N,I2C_SCL*%
X11140000Y-17200000D03*
D15*
%TO.P,U1,7*%
%TO.N,GND*%
X10000000Y-18000000D03*
%TD*%
D10*
%TO.P,C5,1*%
%TO.N,MOD_3V3*%
X17050000Y-21000000D03*
%TO.P,C5,2*%
%TO.N,GND*%
X18950000Y-21000000D03*
%TD*%
%TO.P,C2,1*%
%TO.N,MOD_3V3*%
X5050000Y-22000000D03*
%TO.P,C2,2*%
%TO.N,GND*%
X6950000Y-22000000D03*
%TD*%
D16*
%TO.P,J1,1*%
%TO.N,GND*%
X12500000Y-4000000D03*
D17*
%TO.P,J1,2*%
%TO.N,SLOT_5V*%
X15040000Y-4000000D03*
%TO.P,J1,3*%
%TO.N,I2C_SDA*%
X12500000Y-6540000D03*
%TO.P,J1,4*%
%TO.N,I2C_SCL*%
X15040000Y-6540000D03*
%TO.P,J1,5*%
X12500000Y-9080000D03*
%TO.P,J1,6*%
%TO.N,I2C_SDA*%
X15040000Y-9080000D03*
%TO.P,J1,7*%
%TO.N,SLOT_5V*%
X12500000Y-11620000D03*
%TO.P,J1,8*%
%TO.N,GND*%
X15040000Y-11620000D03*
%TD*%
D18*
%TO.N,SLOT_5V*%
X18300000Y-13920000D03*
D19*
X18265300Y-13335000D03*
%TO.N,GND*%
X11945400Y-19011200D03*
%TO.N,MOD_3V3*%
X11944100Y-18100000D03*
X16386200Y-13132500D03*
X6411500Y-13263500D03*
X6900000Y-23324100D03*
%TO.N,I2C_SDA*%
X8046300Y-18555500D03*
%TO.N,I2C_SCL*%
X11346000Y-16468300D03*
%TD*%
%TO.N,SLOT_5V*%
D20*
X19050000Y-14137500D02*
X18702300Y-14137500D01*
X20312100Y-13123700D02*
X20950000Y-13761600D01*
X17050000Y-17000000D02*
X16444900Y-16394900D01*
X18568300Y-13638000D02*
X19082600Y-13123700D01*
X19082600Y-13123700D02*
X20312100Y-13123700D01*
X18702300Y-14137500D02*
X16444900Y-16394900D01*
X18265300Y-13335000D02*
X18568300Y-13638000D01*
X16444900Y-16394900D02*
X16444900Y-15761400D01*
X16444900Y-15761400D02*
X18568300Y-13638000D01*
X19050000Y-14137500D02*
X18300000Y-13920000D01*
X20950000Y-13761600D02*
X20950000Y-14137500D01*
%TO.N,GND*%
X18950000Y-17000000D02*
X20000000Y-15950000D01*
X13950000Y-12710000D02*
X13950000Y-14000000D01*
X10775000Y-21188500D02*
X10775000Y-19690700D01*
X10775000Y-22000000D02*
X10801200Y-22026200D01*
X15040000Y-11620000D02*
X13950000Y-12710000D01*
D21*
X11140000Y-18800000D02*
X10570800Y-18800000D01*
D20*
X10775000Y-19690700D02*
X11140000Y-19325700D01*
X11140000Y-18800000D02*
X11734200Y-18800000D01*
X10000000Y-18000000D02*
X10000000Y-18524200D01*
D21*
X10295000Y-18524200D02*
X10570800Y-18800000D01*
D20*
X10801200Y-22026200D02*
X16449000Y-22026200D01*
X18950000Y-21000000D02*
X18950000Y-17000000D01*
X11140000Y-18800000D02*
X11140000Y-19325700D01*
X20000000Y-15950000D02*
X20000000Y-14137500D01*
X10775000Y-22000000D02*
X10775000Y-21188500D01*
X16947100Y-22324100D02*
X17625900Y-22324100D01*
X17625900Y-22324100D02*
X18950000Y-21000000D01*
X11734200Y-18800000D02*
X11945400Y-19011200D01*
X10775000Y-21188500D02*
X7761500Y-21188500D01*
D21*
X16449000Y-22026200D02*
X16649200Y-22026200D01*
X16649200Y-22026200D02*
X16947100Y-22324100D01*
D20*
X7761500Y-21188500D02*
X6950000Y-22000000D01*
D21*
X10000000Y-18524200D02*
X10295000Y-18524200D01*
D20*
X10000000Y-18000000D02*
X8860000Y-18000000D01*
%TO.N,MOD_3V3*%
X8198800Y-23026200D02*
X7551000Y-23026200D01*
X19050000Y-11862500D02*
X18346900Y-12565600D01*
X18346900Y-12565600D02*
X18332700Y-12551500D01*
D21*
X7551000Y-23026200D02*
X7350800Y-23026200D01*
D20*
X9225000Y-22000000D02*
X8198800Y-23026200D01*
X6900000Y-23324100D02*
X6374100Y-23324100D01*
X7052900Y-23324100D02*
X6900000Y-23324100D01*
X17481800Y-12904100D02*
X17481800Y-13132500D01*
X17481800Y-13132500D02*
X16386200Y-13132500D01*
X11944100Y-18100000D02*
X14150000Y-18100000D01*
X18332700Y-12551500D02*
X17834400Y-12551500D01*
X14150000Y-15368700D02*
X16386200Y-13132500D01*
X6411500Y-13263500D02*
X5675000Y-14000000D01*
D21*
X7350800Y-23026200D02*
X7052900Y-23324100D01*
D20*
X14150000Y-18100000D02*
X14150000Y-15368700D01*
X11734200Y-18000000D02*
X11834200Y-18100000D01*
X6374100Y-23324100D02*
X5050000Y-22000000D01*
X17834400Y-12551500D02*
X17481800Y-12904100D01*
X11140000Y-18000000D02*
X11734200Y-18000000D01*
X14150000Y-18100000D02*
X17050000Y-21000000D01*
X11834200Y-18100000D02*
X11944100Y-18100000D01*
%TO.N,SGP_VDD*%
X8860000Y-17200000D02*
X8860000Y-15468900D01*
X8860000Y-15468900D02*
X7391100Y-14000000D01*
X8860000Y-15468900D02*
X10328900Y-14000000D01*
X7391100Y-14000000D02*
X7325000Y-14000000D01*
X10328900Y-14000000D02*
X12050000Y-14000000D01*
%TO.N,I2C_SDA*%
D22*
X10800000Y-6540000D02*
X10800000Y-10350000D01*
X10800000Y-10350000D02*
X16740000Y-10350000D01*
X12500000Y-6540000D02*
X10800000Y-6540000D01*
X16740000Y-9080000D02*
X15040000Y-9080000D01*
D21*
X8860000Y-18800000D02*
X8290800Y-18800000D01*
D22*
X16740000Y-10350000D02*
X16740000Y-9080000D01*
D21*
X8290800Y-18800000D02*
X8046300Y-18555500D01*
%TO.N,I2C_SCL*%
D20*
X11346000Y-16468300D02*
X11140000Y-16674300D01*
X11140000Y-17200000D02*
X11140000Y-16674300D01*
%TD*%
%TA.AperFunction,Conductor*%
%TO.N,GND*%
G36*
X24458691Y-519407D02*
G01*
X24494655Y-568907D01*
X24499500Y-599500D01*
X24499500Y-24400500D01*
X24480593Y-24458691D01*
X24431093Y-24494655D01*
X24400500Y-24499500D01*
X599500Y-24499500D01*
X541309Y-24480593D01*
X505345Y-24431093D01*
X500500Y-24400500D01*
X500500Y-21477129D01*
X4299500Y-21477129D01*
X4299500Y-22522866D01*
X4299501Y-22522870D01*
X4305908Y-22582480D01*
X4305909Y-22582485D01*
X4356202Y-22717329D01*
X4426411Y-22811116D01*
X4442454Y-22832546D01*
X4442457Y-22832548D01*
X4442458Y-22832549D01*
X4557670Y-22918797D01*
X4692511Y-22969089D01*
X4692512Y-22969089D01*
X4692517Y-22969091D01*
X4752127Y-22975500D01*
X5347872Y-22975499D01*
X5407483Y-22969091D01*
X5432304Y-22959832D01*
X5493434Y-22957213D01*
X5536905Y-22982587D01*
X6158888Y-23604570D01*
X6238812Y-23650714D01*
X6327956Y-23674600D01*
X6430968Y-23674600D01*
X6489159Y-23693507D01*
X6500971Y-23703596D01*
X6561984Y-23764608D01*
X6561989Y-23764612D01*
X6687511Y-23837082D01*
X6687512Y-23837082D01*
X6687515Y-23837084D01*
X6827525Y-23874600D01*
X6827526Y-23874600D01*
X6972474Y-23874600D01*
X6972475Y-23874600D01*
X7112485Y-23837084D01*
X7112487Y-23837082D01*
X7112489Y-23837082D01*
X7238010Y-23764612D01*
X7238010Y-23764611D01*
X7238015Y-23764609D01*
X7340509Y-23662115D01*
X7412984Y-23536585D01*
X7419300Y-23513012D01*
X7436165Y-23450076D01*
X7469489Y-23398762D01*
X7526610Y-23376836D01*
X7531791Y-23376700D01*
X8244942Y-23376700D01*
X8244944Y-23376700D01*
X8334088Y-23352814D01*
X8414012Y-23306670D01*
X8966186Y-22754494D01*
X9020703Y-22726718D01*
X9036190Y-22725499D01*
X9495479Y-22725499D01*
X9495484Y-22725499D01*
X9552114Y-22719412D01*
X9680226Y-22671628D01*
X9789687Y-22589687D01*
X9871628Y-22480226D01*
X9919412Y-22352114D01*
X9925500Y-22295485D01*
X9925499Y-21704516D01*
X9919412Y-21647886D01*
X9871628Y-21519774D01*
X9789687Y-21410313D01*
X9753476Y-21383206D01*
X9680228Y-21328373D01*
X9680226Y-21328372D01*
X9552114Y-21280588D01*
X9552113Y-21280587D01*
X9513895Y-21276479D01*
X9495485Y-21274500D01*
X9495481Y-21274500D01*
X8954521Y-21274500D01*
X8954515Y-21274501D01*
X8897888Y-21280587D01*
X8897886Y-21280588D01*
X8769774Y-21328372D01*
X8769773Y-21328372D01*
X8769772Y-21328373D01*
X8660315Y-21410311D01*
X8660311Y-21410315D01*
X8578373Y-21519771D01*
X8530587Y-21647887D01*
X8524500Y-21704518D01*
X8524500Y-22163810D01*
X8505593Y-22222001D01*
X8495504Y-22233813D01*
X8082615Y-22646703D01*
X8028098Y-22674481D01*
X8012611Y-22675700D01*
X7504856Y-22675700D01*
X7424143Y-22697327D01*
X7398520Y-22700700D01*
X7393653Y-22700700D01*
X7307947Y-22700700D01*
X7225161Y-22722882D01*
X7225160Y-22722882D01*
X7225158Y-22722883D01*
X7150935Y-22765736D01*
X7147433Y-22769239D01*
X7092915Y-22797013D01*
X7051812Y-22794858D01*
X6972475Y-22773600D01*
X6827525Y-22773600D01*
X6765790Y-22790141D01*
X6687510Y-22811117D01*
X6561989Y-22883587D01*
X6556839Y-22887540D01*
X6555125Y-22885307D01*
X6511064Y-22907728D01*
X6450637Y-22898125D01*
X6425625Y-22879943D01*
X5829495Y-22283813D01*
X5801718Y-22229296D01*
X5800499Y-22213809D01*
X5800499Y-21477133D01*
X5800499Y-21477128D01*
X5794091Y-21417517D01*
X5791403Y-21410311D01*
X5743797Y-21282670D01*
X5657549Y-21167458D01*
X5657548Y-21167457D01*
X5657546Y-21167454D01*
X5657541Y-21167450D01*
X5542329Y-21081202D01*
X5407488Y-21030910D01*
X5407483Y-21030909D01*
X5407481Y-21030908D01*
X5407477Y-21030908D01*
X5376249Y-21027550D01*
X5347873Y-21024500D01*
X5347870Y-21024500D01*
X4752133Y-21024500D01*
X4752129Y-21024500D01*
X4752128Y-21024501D01*
X4744949Y-21025272D01*
X4692519Y-21030908D01*
X4692514Y-21030909D01*
X4557670Y-21081202D01*
X4442458Y-21167450D01*
X4442450Y-21167458D01*
X4356202Y-21282670D01*
X4305910Y-21417511D01*
X4305908Y-21417522D01*
X4299500Y-21477129D01*
X500500Y-21477129D01*
X500500Y-18483025D01*
X7495800Y-18483025D01*
X7495800Y-18627974D01*
X7533317Y-18767989D01*
X7605787Y-18893510D01*
X7605789Y-18893512D01*
X7605791Y-18893515D01*
X7708285Y-18996009D01*
X7708287Y-18996010D01*
X7708289Y-18996012D01*
X7833811Y-19068482D01*
X7833812Y-19068482D01*
X7833815Y-19068484D01*
X7973825Y-19106000D01*
X7973826Y-19106000D01*
X8118772Y-19106000D01*
X8118775Y-19106000D01*
X8121342Y-19105311D01*
X8124004Y-19105311D01*
X8125211Y-19105153D01*
X8125231Y-19105311D01*
X8172591Y-19105309D01*
X8247947Y-19125500D01*
X8281129Y-19125500D01*
X8339320Y-19144407D01*
X8363444Y-19169499D01*
X8386895Y-19204596D01*
X8386896Y-19204597D01*
X8386899Y-19204601D01*
X8469760Y-19259966D01*
X8525308Y-19271015D01*
X8542815Y-19274498D01*
X8542820Y-19274498D01*
X8542826Y-19274500D01*
X8542827Y-19274500D01*
X9177173Y-19274500D01*
X9177174Y-19274500D01*
X9250240Y-19259966D01*
X9333101Y-19204601D01*
X9388466Y-19121740D01*
X9403000Y-19048674D01*
X9403000Y-18551326D01*
X9388466Y-18478260D01*
X9339250Y-18404602D01*
X9333102Y-18395400D01*
X9333099Y-18395397D01*
X9250242Y-18340035D01*
X9250240Y-18340034D01*
X9250237Y-18340033D01*
X9250236Y-18340033D01*
X9177184Y-18325501D01*
X9177174Y-18325500D01*
X9177173Y-18325500D01*
X8606329Y-18325500D01*
X8548138Y-18306593D01*
X8520594Y-18276002D01*
X8486809Y-18217485D01*
X8384315Y-18114991D01*
X8384312Y-18114989D01*
X8384310Y-18114987D01*
X8258788Y-18042517D01*
X8258789Y-18042517D01*
X8229196Y-18034587D01*
X8118775Y-18005000D01*
X7973825Y-18005000D01*
X7912090Y-18021541D01*
X7833810Y-18042517D01*
X7708289Y-18114987D01*
X7605787Y-18217489D01*
X7533317Y-18343010D01*
X7495800Y-18483025D01*
X500500Y-18483025D01*
X500500Y-13670725D01*
X5024500Y-13670725D01*
X5024500Y-14329274D01*
X5027353Y-14359694D01*
X5027355Y-14359703D01*
X5072207Y-14487883D01*
X5152845Y-14597144D01*
X5152847Y-14597146D01*
X5152850Y-14597150D01*
X5152853Y-14597152D01*
X5152855Y-14597154D01*
X5262116Y-14677792D01*
X5262117Y-14677792D01*
X5262118Y-14677793D01*
X5390301Y-14722646D01*
X5420725Y-14725499D01*
X5420727Y-14725500D01*
X5420734Y-14725500D01*
X5929273Y-14725500D01*
X5929273Y-14725499D01*
X5959699Y-14722646D01*
X6087882Y-14677793D01*
X6197150Y-14597150D01*
X6277793Y-14487882D01*
X6322646Y-14359699D01*
X6325499Y-14329273D01*
X6325500Y-14329273D01*
X6325500Y-13913000D01*
X6344407Y-13854809D01*
X6393907Y-13818845D01*
X6424500Y-13814000D01*
X6483973Y-13814000D01*
X6483975Y-13814000D01*
X6549878Y-13796341D01*
X6610978Y-13799543D01*
X6658528Y-13838048D01*
X6674500Y-13891968D01*
X6674500Y-14329274D01*
X6677353Y-14359694D01*
X6677355Y-14359703D01*
X6722207Y-14487883D01*
X6802845Y-14597144D01*
X6802847Y-14597146D01*
X6802850Y-14597150D01*
X6802853Y-14597152D01*
X6802855Y-14597154D01*
X6912116Y-14677792D01*
X6912117Y-14677792D01*
X6912118Y-14677793D01*
X7040301Y-14722646D01*
X7070725Y-14725499D01*
X7070727Y-14725500D01*
X7579910Y-14725500D01*
X7638101Y-14744407D01*
X7649914Y-14754496D01*
X8480504Y-15585085D01*
X8508281Y-15639602D01*
X8509500Y-15655089D01*
X8509500Y-16660563D01*
X8490593Y-16718754D01*
X8465501Y-16742879D01*
X8386900Y-16795397D01*
X8386897Y-16795400D01*
X8331535Y-16878257D01*
X8331533Y-16878263D01*
X8317001Y-16951315D01*
X8317000Y-16951327D01*
X8317000Y-17448672D01*
X8317001Y-17448684D01*
X8331533Y-17521736D01*
X8331535Y-17521742D01*
X8386897Y-17604599D01*
X8386900Y-17604602D01*
X8455593Y-17650500D01*
X8469760Y-17659966D01*
X8525308Y-17671015D01*
X8542815Y-17674498D01*
X8542820Y-17674498D01*
X8542826Y-17674500D01*
X8542827Y-17674500D01*
X9177173Y-17674500D01*
X9177174Y-17674500D01*
X9250240Y-17659966D01*
X9333101Y-17604601D01*
X9388466Y-17521740D01*
X9403000Y-17448674D01*
X9403000Y-16951327D01*
X10597000Y-16951327D01*
X10597000Y-17448672D01*
X10597001Y-17448684D01*
X10611533Y-17521736D01*
X10611535Y-17521743D01*
X10627075Y-17545000D01*
X10643683Y-17603888D01*
X10627075Y-17655000D01*
X10611535Y-17678256D01*
X10611533Y-17678263D01*
X10597001Y-17751315D01*
X10597000Y-17751327D01*
X10597000Y-18248672D01*
X10597001Y-18248684D01*
X10611533Y-18321736D01*
X10611535Y-18321742D01*
X10666897Y-18404599D01*
X10666899Y-18404601D01*
X10749760Y-18459966D01*
X10805308Y-18471015D01*
X10822815Y-18474498D01*
X10822820Y-18474498D01*
X10822826Y-18474500D01*
X10822827Y-18474500D01*
X11457169Y-18474500D01*
X11457174Y-18474500D01*
X11474420Y-18471069D01*
X11535179Y-18478258D01*
X11563735Y-18498159D01*
X11606085Y-18540509D01*
X11606087Y-18540510D01*
X11606089Y-18540512D01*
X11731611Y-18612982D01*
X11731612Y-18612982D01*
X11731615Y-18612984D01*
X11871625Y-18650500D01*
X11871626Y-18650500D01*
X12016574Y-18650500D01*
X12016575Y-18650500D01*
X12156585Y-18612984D01*
X12156587Y-18612982D01*
X12156589Y-18612982D01*
X12282110Y-18540512D01*
X12282110Y-18540511D01*
X12282115Y-18540509D01*
X12324462Y-18498162D01*
X12343129Y-18479496D01*
X12397646Y-18451719D01*
X12413132Y-18450500D01*
X13963810Y-18450500D01*
X14022001Y-18469407D01*
X14033814Y-18479496D01*
X16270504Y-20716185D01*
X16298281Y-20770702D01*
X16299500Y-20786189D01*
X16299500Y-21522866D01*
X16299501Y-21522870D01*
X16305908Y-21582480D01*
X16305909Y-21582485D01*
X16356202Y-21717329D01*
X16442450Y-21832541D01*
X16442454Y-21832546D01*
X16442457Y-21832548D01*
X16442458Y-21832549D01*
X16557670Y-21918797D01*
X16692511Y-21969089D01*
X16692512Y-21969089D01*
X16692517Y-21969091D01*
X16752127Y-21975500D01*
X17347872Y-21975499D01*
X17407483Y-21969091D01*
X17474907Y-21943943D01*
X17542329Y-21918797D01*
X17542329Y-21918796D01*
X17542331Y-21918796D01*
X17657546Y-21832546D01*
X17743796Y-21717331D01*
X17794091Y-21582483D01*
X17800500Y-21522873D01*
X17800499Y-20477128D01*
X17794091Y-20417517D01*
X17794090Y-20417514D01*
X17743797Y-20282670D01*
X17657549Y-20167458D01*
X17657548Y-20167457D01*
X17657546Y-20167454D01*
X17657541Y-20167450D01*
X17542329Y-20081202D01*
X17407488Y-20030910D01*
X17407483Y-20030909D01*
X17407481Y-20030908D01*
X17407477Y-20030908D01*
X17376249Y-20027550D01*
X17347873Y-20024500D01*
X17347870Y-20024500D01*
X16752133Y-20024500D01*
X16752129Y-20024500D01*
X16752128Y-20024501D01*
X16722322Y-20027705D01*
X16692516Y-20030909D01*
X16692513Y-20030909D01*
X16667692Y-20040167D01*
X16606562Y-20042786D01*
X16563093Y-20017412D01*
X14529496Y-17983814D01*
X14501719Y-17929297D01*
X14500500Y-17913810D01*
X14500500Y-15554889D01*
X14519407Y-15496698D01*
X14529496Y-15484885D01*
X16302385Y-13711996D01*
X16356902Y-13684219D01*
X16372389Y-13683000D01*
X16458674Y-13683000D01*
X16458675Y-13683000D01*
X16598685Y-13645484D01*
X16598687Y-13645482D01*
X16598689Y-13645482D01*
X16724210Y-13573012D01*
X16724210Y-13573011D01*
X16724215Y-13573009D01*
X16768970Y-13528254D01*
X16785229Y-13511996D01*
X16839746Y-13484219D01*
X16855232Y-13483000D01*
X17527942Y-13483000D01*
X17527944Y-13483000D01*
X17617088Y-13459114D01*
X17617089Y-13459113D01*
X17623356Y-13457434D01*
X17624009Y-13459874D01*
X17674192Y-13455924D01*
X17726362Y-13487891D01*
X17746710Y-13526565D01*
X17752314Y-13547481D01*
X17752318Y-13547489D01*
X17758416Y-13558052D01*
X17771136Y-13617900D01*
X17758417Y-13657048D01*
X17740424Y-13688214D01*
X17740423Y-13688216D01*
X17705421Y-13818845D01*
X17699500Y-13840944D01*
X17699500Y-13970109D01*
X17680593Y-14028300D01*
X17670504Y-14040113D01*
X16164428Y-15546190D01*
X16130944Y-15604187D01*
X16130944Y-15604188D01*
X16118287Y-15626109D01*
X16118286Y-15626111D01*
X16118286Y-15626112D01*
X16094400Y-15715256D01*
X16094400Y-16441044D01*
X16115831Y-16521027D01*
X16118286Y-16530188D01*
X16118289Y-16530195D01*
X16164428Y-16610109D01*
X16164430Y-16610112D01*
X16270505Y-16716187D01*
X16298281Y-16770702D01*
X16299500Y-16786189D01*
X16299500Y-17522866D01*
X16299501Y-17522870D01*
X16305908Y-17582480D01*
X16305909Y-17582485D01*
X16356202Y-17717329D01*
X16381653Y-17751327D01*
X16442454Y-17832546D01*
X16442457Y-17832548D01*
X16442458Y-17832549D01*
X16557670Y-17918797D01*
X16692511Y-17969089D01*
X16692512Y-17969089D01*
X16692517Y-17969091D01*
X16752127Y-17975500D01*
X17347872Y-17975499D01*
X17407483Y-17969091D01*
X17474907Y-17943943D01*
X17542329Y-17918797D01*
X17542329Y-17918796D01*
X17542331Y-17918796D01*
X17657546Y-17832546D01*
X17743796Y-17717331D01*
X17758368Y-17678263D01*
X17785841Y-17604602D01*
X17794091Y-17582483D01*
X17800500Y-17522873D01*
X17800499Y-16477128D01*
X17794091Y-16417517D01*
X17794090Y-16417514D01*
X17743797Y-16282670D01*
X17657549Y-16167458D01*
X17657548Y-16167457D01*
X17657546Y-16167454D01*
X17657541Y-16167450D01*
X17542329Y-16081202D01*
X17476864Y-16056786D01*
X17428949Y-16018736D01*
X17412551Y-15959789D01*
X17433932Y-15902461D01*
X17441447Y-15894033D01*
X18439541Y-14895940D01*
X18494058Y-14868163D01*
X18554490Y-14877734D01*
X18579545Y-14895937D01*
X18661658Y-14978050D01*
X18774696Y-15035646D01*
X18868481Y-15050500D01*
X19231518Y-15050499D01*
X19231520Y-15050499D01*
X19231521Y-15050498D01*
X19278411Y-15043072D01*
X19325299Y-15035647D01*
X19325299Y-15035646D01*
X19325304Y-15035646D01*
X19438342Y-14978050D01*
X19528050Y-14888342D01*
X19585646Y-14775304D01*
X19600500Y-14681519D01*
X19600499Y-13593482D01*
X19600499Y-13593478D01*
X19599740Y-13588686D01*
X19609312Y-13528254D01*
X19652577Y-13484990D01*
X19697521Y-13474200D01*
X20125910Y-13474200D01*
X20184101Y-13493107D01*
X20195914Y-13503196D01*
X20370504Y-13677786D01*
X20398281Y-13732303D01*
X20399500Y-13747790D01*
X20399500Y-14681521D01*
X20399501Y-14681523D01*
X20414352Y-14775299D01*
X20414354Y-14775304D01*
X20471950Y-14888342D01*
X20561658Y-14978050D01*
X20674696Y-15035646D01*
X20768481Y-15050500D01*
X21131518Y-15050499D01*
X21131520Y-15050499D01*
X21131521Y-15050498D01*
X21178411Y-15043072D01*
X21225299Y-15035647D01*
X21225299Y-15035646D01*
X21225304Y-15035646D01*
X21338342Y-14978050D01*
X21428050Y-14888342D01*
X21485646Y-14775304D01*
X21500500Y-14681519D01*
X21500499Y-13593482D01*
X21500499Y-13593478D01*
X21500498Y-13593476D01*
X21485647Y-13499700D01*
X21485646Y-13499698D01*
X21485646Y-13499696D01*
X21428050Y-13386658D01*
X21338342Y-13296950D01*
X21225304Y-13239354D01*
X21225305Y-13239354D01*
X21131522Y-13224500D01*
X21131519Y-13224500D01*
X20949590Y-13224500D01*
X20891399Y-13205593D01*
X20879587Y-13195504D01*
X20616899Y-12932817D01*
X20589121Y-12878300D01*
X20598692Y-12817868D01*
X20641957Y-12774603D01*
X20702388Y-12765032D01*
X20768481Y-12775500D01*
X21131518Y-12775499D01*
X21131520Y-12775499D01*
X21131521Y-12775498D01*
X21197610Y-12765032D01*
X21225299Y-12760647D01*
X21225299Y-12760646D01*
X21225304Y-12760646D01*
X21338342Y-12703050D01*
X21428050Y-12613342D01*
X21485646Y-12500304D01*
X21500500Y-12406519D01*
X21500499Y-11318482D01*
X21500499Y-11318481D01*
X21500499Y-11318478D01*
X21500498Y-11318476D01*
X21485647Y-11224700D01*
X21485646Y-11224698D01*
X21485646Y-11224696D01*
X21428050Y-11111658D01*
X21338342Y-11021950D01*
X21225304Y-10964354D01*
X21225305Y-10964354D01*
X21131522Y-10949500D01*
X20768479Y-10949500D01*
X20768476Y-10949501D01*
X20674700Y-10964352D01*
X20674695Y-10964354D01*
X20561659Y-11021949D01*
X20471949Y-11111659D01*
X20414354Y-11224695D01*
X20399500Y-11318478D01*
X20399500Y-12406521D01*
X20399501Y-12406523D01*
X20414352Y-12500299D01*
X20414354Y-12500304D01*
X20471950Y-12613342D01*
X20471951Y-12613343D01*
X20476531Y-12619647D01*
X20475079Y-12620701D01*
X20498460Y-12666591D01*
X20488889Y-12727023D01*
X20445624Y-12770288D01*
X20385192Y-12779859D01*
X20375057Y-12777705D01*
X20374288Y-12777498D01*
X20358244Y-12773200D01*
X20358243Y-12773200D01*
X19606205Y-12773200D01*
X19548014Y-12754293D01*
X19512050Y-12704793D01*
X19512050Y-12643607D01*
X19526109Y-12616014D01*
X19528045Y-12613346D01*
X19528050Y-12613342D01*
X19585646Y-12500304D01*
X19600500Y-12406519D01*
X19600499Y-11318482D01*
X19600499Y-11318481D01*
X19600499Y-11318478D01*
X19600498Y-11318476D01*
X19585647Y-11224700D01*
X19585646Y-11224698D01*
X19585646Y-11224696D01*
X19528050Y-11111658D01*
X19438342Y-11021950D01*
X19325304Y-10964354D01*
X19325305Y-10964354D01*
X19231522Y-10949500D01*
X18868479Y-10949500D01*
X18868476Y-10949501D01*
X18774700Y-10964352D01*
X18774695Y-10964354D01*
X18661659Y-11021949D01*
X18571949Y-11111659D01*
X18514354Y-11224695D01*
X18499500Y-11318478D01*
X18499500Y-11876310D01*
X18480593Y-11934501D01*
X18470504Y-11946313D01*
X18244815Y-12172003D01*
X18190298Y-12199781D01*
X18174811Y-12201000D01*
X17788256Y-12201000D01*
X17757773Y-12209167D01*
X17700888Y-12224409D01*
X17700888Y-12224410D01*
X17700296Y-12224568D01*
X17699110Y-12224886D01*
X17699109Y-12224887D01*
X17619190Y-12271028D01*
X17201329Y-12688889D01*
X17176151Y-12732500D01*
X17130681Y-12773441D01*
X17090414Y-12782000D01*
X16855232Y-12782000D01*
X16797041Y-12763093D01*
X16785229Y-12753004D01*
X16724215Y-12691991D01*
X16724210Y-12691987D01*
X16598688Y-12619517D01*
X16598689Y-12619517D01*
X16569096Y-12611587D01*
X16458675Y-12582000D01*
X16313725Y-12582000D01*
X16251990Y-12598541D01*
X16173710Y-12619517D01*
X16048189Y-12691987D01*
X15945687Y-12794489D01*
X15873217Y-12920010D01*
X15835700Y-13060025D01*
X15835700Y-13146310D01*
X15816793Y-13204501D01*
X15806704Y-13216314D01*
X13869530Y-15153488D01*
X13849356Y-15188431D01*
X13837905Y-15208263D01*
X13823387Y-15233409D01*
X13799500Y-15322557D01*
X13799500Y-17650500D01*
X13780593Y-17708691D01*
X13731093Y-17744655D01*
X13700500Y-17749500D01*
X12413132Y-17749500D01*
X12354941Y-17730593D01*
X12343129Y-17720504D01*
X12282115Y-17659491D01*
X12282110Y-17659487D01*
X12156588Y-17587017D01*
X12156589Y-17587017D01*
X12071275Y-17564157D01*
X12016575Y-17549500D01*
X11871625Y-17549500D01*
X11804975Y-17567358D01*
X11743875Y-17564157D01*
X11696325Y-17525651D01*
X11680489Y-17466551D01*
X11682256Y-17452413D01*
X11683000Y-17448674D01*
X11683000Y-16951326D01*
X11683000Y-16950831D01*
X11701907Y-16892640D01*
X11711990Y-16880833D01*
X11786509Y-16806315D01*
X11792811Y-16795400D01*
X11858982Y-16680789D01*
X11858982Y-16680787D01*
X11858984Y-16680785D01*
X11896500Y-16540775D01*
X11896500Y-16395825D01*
X11858984Y-16255815D01*
X11858982Y-16255812D01*
X11858982Y-16255810D01*
X11786512Y-16130289D01*
X11786510Y-16130287D01*
X11786509Y-16130285D01*
X11684015Y-16027791D01*
X11684012Y-16027789D01*
X11684010Y-16027787D01*
X11558488Y-15955317D01*
X11558489Y-15955317D01*
X11528896Y-15947387D01*
X11418475Y-15917800D01*
X11273525Y-15917800D01*
X11211790Y-15934341D01*
X11133510Y-15955317D01*
X11007989Y-16027787D01*
X10905487Y-16130289D01*
X10833017Y-16255810D01*
X10833016Y-16255815D01*
X10795500Y-16395825D01*
X10795500Y-16540775D01*
X10797342Y-16547649D01*
X10797342Y-16598887D01*
X10789500Y-16628156D01*
X10789500Y-16628158D01*
X10789500Y-16660563D01*
X10770593Y-16718754D01*
X10745501Y-16742879D01*
X10666900Y-16795397D01*
X10666897Y-16795400D01*
X10611535Y-16878257D01*
X10611533Y-16878263D01*
X10597001Y-16951315D01*
X10597000Y-16951327D01*
X9403000Y-16951327D01*
X9403000Y-16951326D01*
X9388466Y-16878260D01*
X9340392Y-16806311D01*
X9333102Y-16795400D01*
X9333099Y-16795397D01*
X9254499Y-16742879D01*
X9216619Y-16694829D01*
X9210500Y-16660563D01*
X9210500Y-15655089D01*
X9229407Y-15596898D01*
X9239496Y-15585085D01*
X10445085Y-14379496D01*
X10499602Y-14351719D01*
X10515089Y-14350500D01*
X11200501Y-14350500D01*
X11258692Y-14369407D01*
X11294656Y-14418907D01*
X11299501Y-14449500D01*
X11299501Y-14522870D01*
X11305908Y-14582480D01*
X11305909Y-14582485D01*
X11356202Y-14717329D01*
X11422327Y-14805660D01*
X11442454Y-14832546D01*
X11442457Y-14832548D01*
X11442458Y-14832549D01*
X11557670Y-14918797D01*
X11692511Y-14969089D01*
X11692512Y-14969089D01*
X11692517Y-14969091D01*
X11752127Y-14975500D01*
X12347872Y-14975499D01*
X12407483Y-14969091D01*
X12474907Y-14943943D01*
X12542329Y-14918797D01*
X12542329Y-14918796D01*
X12542331Y-14918796D01*
X12657546Y-14832546D01*
X12743796Y-14717331D01*
X12757154Y-14681518D01*
X12788619Y-14597154D01*
X12794091Y-14582483D01*
X12800500Y-14522873D01*
X12800499Y-13477128D01*
X12794091Y-13417517D01*
X12790346Y-13407475D01*
X12743797Y-13282670D01*
X12657549Y-13167458D01*
X12657548Y-13167457D01*
X12657546Y-13167454D01*
X12657541Y-13167450D01*
X12542329Y-13081202D01*
X12407488Y-13030910D01*
X12407483Y-13030909D01*
X12407481Y-13030908D01*
X12407477Y-13030908D01*
X12376249Y-13027550D01*
X12347873Y-13024500D01*
X12347870Y-13024500D01*
X11752133Y-13024500D01*
X11752129Y-13024500D01*
X11752128Y-13024501D01*
X11744949Y-13025272D01*
X11692519Y-13030908D01*
X11692514Y-13030909D01*
X11557670Y-13081202D01*
X11442458Y-13167450D01*
X11442450Y-13167458D01*
X11356202Y-13282670D01*
X11305910Y-13417511D01*
X11305908Y-13417522D01*
X11299500Y-13477129D01*
X11299500Y-13550500D01*
X11280593Y-13608691D01*
X11231093Y-13644655D01*
X11200500Y-13649500D01*
X10282756Y-13649500D01*
X10195004Y-13673013D01*
X10195002Y-13673013D01*
X10193615Y-13673384D01*
X10193612Y-13673385D01*
X10113689Y-13719529D01*
X10113687Y-13719531D01*
X8930002Y-14903214D01*
X8875486Y-14930991D01*
X8815054Y-14921420D01*
X8789995Y-14903214D01*
X8409654Y-14522873D01*
X8004496Y-14117714D01*
X7976719Y-14063197D01*
X7975500Y-14047710D01*
X7975500Y-13670727D01*
X7975499Y-13670725D01*
X7972646Y-13640301D01*
X7927793Y-13512118D01*
X7921208Y-13503196D01*
X7847154Y-13402855D01*
X7847152Y-13402853D01*
X7847150Y-13402850D01*
X7847146Y-13402847D01*
X7847144Y-13402845D01*
X7737883Y-13322207D01*
X7609703Y-13277355D01*
X7609694Y-13277353D01*
X7579274Y-13274500D01*
X7579266Y-13274500D01*
X7070734Y-13274500D01*
X7070730Y-13274500D01*
X7069118Y-13274651D01*
X7068838Y-13274588D01*
X7068415Y-13274608D01*
X7068409Y-13274492D01*
X7009418Y-13261252D01*
X6968995Y-13215321D01*
X6963997Y-13197206D01*
X6963679Y-13197292D01*
X6962000Y-13191025D01*
X6924484Y-13051015D01*
X6924482Y-13051012D01*
X6924482Y-13051010D01*
X6852012Y-12925489D01*
X6852010Y-12925487D01*
X6852009Y-12925485D01*
X6749515Y-12822991D01*
X6749512Y-12822989D01*
X6749510Y-12822987D01*
X6623988Y-12750517D01*
X6623989Y-12750517D01*
X6556749Y-12732500D01*
X6483975Y-12713000D01*
X6339025Y-12713000D01*
X6311035Y-12720500D01*
X6199010Y-12750517D01*
X6073489Y-12822987D01*
X5970987Y-12925489D01*
X5898517Y-13051010D01*
X5890427Y-13081202D01*
X5861994Y-13187318D01*
X5859321Y-13197292D01*
X5857360Y-13196766D01*
X5835008Y-13243640D01*
X5781240Y-13272841D01*
X5763190Y-13274500D01*
X5420725Y-13274500D01*
X5390305Y-13277353D01*
X5390296Y-13277355D01*
X5262116Y-13322207D01*
X5152855Y-13402845D01*
X5152845Y-13402855D01*
X5072207Y-13512116D01*
X5027355Y-13640296D01*
X5027353Y-13640305D01*
X5024500Y-13670725D01*
X500500Y-13670725D01*
X500500Y-6490565D01*
X10424500Y-6490565D01*
X10424500Y-10300565D01*
X10424500Y-10399435D01*
X10447067Y-10483657D01*
X10450091Y-10494942D01*
X10499523Y-10580559D01*
X10499525Y-10580562D01*
X10569438Y-10650475D01*
X10569440Y-10650476D01*
X10655058Y-10699908D01*
X10655056Y-10699908D01*
X10655060Y-10699909D01*
X10655062Y-10699910D01*
X10750565Y-10725500D01*
X11599151Y-10725500D01*
X11657342Y-10744407D01*
X11693306Y-10793907D01*
X11693306Y-10855093D01*
X11669156Y-10894501D01*
X11660586Y-10903072D01*
X11660585Y-10903073D01*
X11558766Y-11043214D01*
X11480125Y-11197558D01*
X11480123Y-11197561D01*
X11426598Y-11362293D01*
X11426597Y-11362297D01*
X11399500Y-11533385D01*
X11399500Y-11706614D01*
X11426597Y-11877702D01*
X11426598Y-11877706D01*
X11480123Y-12042438D01*
X11480125Y-12042441D01*
X11546139Y-12172003D01*
X11558768Y-12196788D01*
X11660586Y-12336928D01*
X11783072Y-12459414D01*
X11923212Y-12561232D01*
X12077555Y-12639873D01*
X12077557Y-12639873D01*
X12077558Y-12639874D01*
X12077561Y-12639876D01*
X12242293Y-12693401D01*
X12242297Y-12693402D01*
X12413386Y-12720500D01*
X12413389Y-12720500D01*
X12586614Y-12720500D01*
X12757702Y-12693402D01*
X12757706Y-12693401D01*
X12922438Y-12639876D01*
X12922440Y-12639874D01*
X12922445Y-12639873D01*
X13076788Y-12561232D01*
X13216928Y-12459414D01*
X13339414Y-12336928D01*
X13441232Y-12196788D01*
X13519873Y-12042445D01*
X13519874Y-12042440D01*
X13519876Y-12042438D01*
X13573401Y-11877706D01*
X13573402Y-11877702D01*
X13600500Y-11706614D01*
X13600500Y-11533385D01*
X13573402Y-11362297D01*
X13573401Y-11362293D01*
X13519876Y-11197561D01*
X13519874Y-11197558D01*
X13519873Y-11197557D01*
X13519873Y-11197555D01*
X13441232Y-11043212D01*
X13339414Y-10903072D01*
X13330843Y-10894501D01*
X13303068Y-10839987D01*
X13312639Y-10779555D01*
X13355904Y-10736290D01*
X13400849Y-10725500D01*
X16789433Y-10725500D01*
X16789435Y-10725500D01*
X16884938Y-10699910D01*
X16884940Y-10699908D01*
X16884942Y-10699908D01*
X16910377Y-10685222D01*
X16970562Y-10650475D01*
X17040475Y-10580562D01*
X17089910Y-10494938D01*
X17115500Y-10399435D01*
X17115500Y-9030565D01*
X17089910Y-8935062D01*
X17089908Y-8935059D01*
X17089908Y-8935057D01*
X17040476Y-8849440D01*
X17040475Y-8849438D01*
X16970562Y-8779525D01*
X16970559Y-8779523D01*
X16884941Y-8730091D01*
X16884943Y-8730091D01*
X16847885Y-8720161D01*
X16789435Y-8704500D01*
X16789433Y-8704500D01*
X16144460Y-8704500D01*
X16086269Y-8685593D01*
X16056250Y-8650445D01*
X15981233Y-8503213D01*
X15953390Y-8464891D01*
X15879414Y-8363072D01*
X15756928Y-8240586D01*
X15616788Y-8138768D01*
X15616787Y-8138767D01*
X15616785Y-8138766D01*
X15462441Y-8060125D01*
X15462438Y-8060123D01*
X15297706Y-8006598D01*
X15297702Y-8006597D01*
X15126614Y-7979500D01*
X15126611Y-7979500D01*
X14953389Y-7979500D01*
X14953386Y-7979500D01*
X14782297Y-8006597D01*
X14782293Y-8006598D01*
X14617561Y-8060123D01*
X14617558Y-8060125D01*
X14463214Y-8138766D01*
X14323073Y-8240585D01*
X14200585Y-8363073D01*
X14098766Y-8503214D01*
X14020125Y-8657558D01*
X14020123Y-8657561D01*
X13966598Y-8822293D01*
X13966597Y-8822297D01*
X13939500Y-8993385D01*
X13939500Y-9166614D01*
X13966597Y-9337702D01*
X13966598Y-9337706D01*
X14020123Y-9502438D01*
X14020125Y-9502441D01*
X14020126Y-9502444D01*
X14020127Y-9502445D01*
X14098768Y-9656788D01*
X14200586Y-9796928D01*
X14209156Y-9805498D01*
X14236932Y-9860013D01*
X14227361Y-9920445D01*
X14184096Y-9963710D01*
X14139151Y-9974500D01*
X13400849Y-9974500D01*
X13342658Y-9955593D01*
X13306694Y-9906093D01*
X13306694Y-9844907D01*
X13330843Y-9805498D01*
X13339414Y-9796928D01*
X13441232Y-9656788D01*
X13519873Y-9502445D01*
X13519874Y-9502440D01*
X13519876Y-9502438D01*
X13573401Y-9337706D01*
X13573402Y-9337702D01*
X13600500Y-9166614D01*
X13600500Y-8993385D01*
X13573402Y-8822297D01*
X13573401Y-8822293D01*
X13519876Y-8657561D01*
X13519874Y-8657558D01*
X13519873Y-8657557D01*
X13519873Y-8657555D01*
X13441232Y-8503212D01*
X13339414Y-8363072D01*
X13216928Y-8240586D01*
X13076788Y-8138768D01*
X13076787Y-8138767D01*
X13076785Y-8138766D01*
X12922441Y-8060125D01*
X12922438Y-8060123D01*
X12757706Y-8006598D01*
X12757702Y-8006597D01*
X12586614Y-7979500D01*
X12586611Y-7979500D01*
X12413389Y-7979500D01*
X12413386Y-7979500D01*
X12242297Y-8006597D01*
X12242293Y-8006598D01*
X12077561Y-8060123D01*
X12077558Y-8060125D01*
X11923214Y-8138766D01*
X11783073Y-8240585D01*
X11660585Y-8363073D01*
X11558766Y-8503214D01*
X11480125Y-8657558D01*
X11480123Y-8657561D01*
X11426598Y-8822293D01*
X11426597Y-8822297D01*
X11399500Y-8993385D01*
X11399500Y-9166614D01*
X11426597Y-9337702D01*
X11426598Y-9337706D01*
X11480123Y-9502438D01*
X11480125Y-9502441D01*
X11480126Y-9502444D01*
X11480127Y-9502445D01*
X11558768Y-9656788D01*
X11660586Y-9796928D01*
X11669156Y-9805498D01*
X11696932Y-9860013D01*
X11687361Y-9920445D01*
X11644096Y-9963710D01*
X11599151Y-9974500D01*
X11274500Y-9974500D01*
X11216309Y-9955593D01*
X11180345Y-9906093D01*
X11175500Y-9875500D01*
X11175500Y-7014500D01*
X11194407Y-6956309D01*
X11243907Y-6920345D01*
X11274500Y-6915500D01*
X11395540Y-6915500D01*
X11453731Y-6934407D01*
X11483750Y-6969555D01*
X11558766Y-7116786D01*
X11614451Y-7193430D01*
X11660586Y-7256928D01*
X11783072Y-7379414D01*
X11923212Y-7481232D01*
X12077555Y-7559873D01*
X12077557Y-7559873D01*
X12077558Y-7559874D01*
X12077561Y-7559876D01*
X12242293Y-7613401D01*
X12242297Y-7613402D01*
X12413386Y-7640500D01*
X12413389Y-7640500D01*
X12586614Y-7640500D01*
X12757702Y-7613402D01*
X12757706Y-7613401D01*
X12922438Y-7559876D01*
X12922440Y-7559874D01*
X12922445Y-7559873D01*
X13076788Y-7481232D01*
X13216928Y-7379414D01*
X13339414Y-7256928D01*
X13441232Y-7116788D01*
X13519873Y-6962445D01*
X13519874Y-6962440D01*
X13519876Y-6962438D01*
X13573401Y-6797706D01*
X13573402Y-6797702D01*
X13600500Y-6626614D01*
X13600500Y-6453385D01*
X13939500Y-6453385D01*
X13939500Y-6626614D01*
X13966597Y-6797702D01*
X13966598Y-6797706D01*
X14020123Y-6962438D01*
X14020125Y-6962441D01*
X14020126Y-6962444D01*
X14020127Y-6962445D01*
X14098768Y-7116788D01*
X14200586Y-7256928D01*
X14323072Y-7379414D01*
X14463212Y-7481232D01*
X14617555Y-7559873D01*
X14617557Y-7559873D01*
X14617558Y-7559874D01*
X14617561Y-7559876D01*
X14782293Y-7613401D01*
X14782297Y-7613402D01*
X14953386Y-7640500D01*
X14953389Y-7640500D01*
X15126614Y-7640500D01*
X15297702Y-7613402D01*
X15297706Y-7613401D01*
X15462438Y-7559876D01*
X15462440Y-7559874D01*
X15462445Y-7559873D01*
X15616788Y-7481232D01*
X15756928Y-7379414D01*
X15879414Y-7256928D01*
X15981232Y-7116788D01*
X16059873Y-6962445D01*
X16059874Y-6962440D01*
X16059876Y-6962438D01*
X16113401Y-6797706D01*
X16113402Y-6797702D01*
X16140500Y-6626614D01*
X16140500Y-6453385D01*
X16113402Y-6282297D01*
X16113401Y-6282293D01*
X16059876Y-6117561D01*
X16059874Y-6117558D01*
X16059873Y-6117557D01*
X16059873Y-6117555D01*
X15981232Y-5963212D01*
X15879414Y-5823072D01*
X15756928Y-5700586D01*
X15616788Y-5598768D01*
X15616787Y-5598767D01*
X15616785Y-5598766D01*
X15462441Y-5520125D01*
X15462438Y-5520123D01*
X15297706Y-5466598D01*
X15297702Y-5466597D01*
X15126614Y-5439500D01*
X15126611Y-5439500D01*
X14953389Y-5439500D01*
X14953386Y-5439500D01*
X14782297Y-5466597D01*
X14782293Y-5466598D01*
X14617561Y-5520123D01*
X14617558Y-5520125D01*
X14463214Y-5598766D01*
X14323073Y-5700585D01*
X14200585Y-5823073D01*
X14098766Y-5963214D01*
X14020125Y-6117558D01*
X14020123Y-6117561D01*
X13966598Y-6282293D01*
X13966597Y-6282297D01*
X13939500Y-6453385D01*
X13600500Y-6453385D01*
X13573402Y-6282297D01*
X13573401Y-6282293D01*
X13519876Y-6117561D01*
X13519874Y-6117558D01*
X13519873Y-6117557D01*
X13519873Y-6117555D01*
X13441232Y-5963212D01*
X13339414Y-5823072D01*
X13216928Y-5700586D01*
X13076788Y-5598768D01*
X13076787Y-5598767D01*
X13076785Y-5598766D01*
X12922441Y-5520125D01*
X12922438Y-5520123D01*
X12757706Y-5466598D01*
X12757702Y-5466597D01*
X12586614Y-5439500D01*
X12586611Y-5439500D01*
X12413389Y-5439500D01*
X12413386Y-5439500D01*
X12242297Y-5466597D01*
X12242293Y-5466598D01*
X12077561Y-5520123D01*
X12077558Y-5520125D01*
X11923214Y-5598766D01*
X11783073Y-5700585D01*
X11660585Y-5823073D01*
X11558766Y-5963213D01*
X11483750Y-6110445D01*
X11440486Y-6153709D01*
X11395540Y-6164500D01*
X10849435Y-6164500D01*
X10750565Y-6164500D01*
X10692114Y-6180161D01*
X10655057Y-6190091D01*
X10569440Y-6239523D01*
X10499523Y-6309440D01*
X10450091Y-6395057D01*
X10450090Y-6395062D01*
X10424500Y-6490565D01*
X500500Y-6490565D01*
X500500Y-3913385D01*
X13939500Y-3913385D01*
X13939500Y-4086614D01*
X13966597Y-4257702D01*
X13966598Y-4257706D01*
X14020123Y-4422438D01*
X14020125Y-4422441D01*
X14020126Y-4422444D01*
X14020127Y-4422445D01*
X14098768Y-4576788D01*
X14200586Y-4716928D01*
X14323072Y-4839414D01*
X14463212Y-4941232D01*
X14617555Y-5019873D01*
X14617557Y-5019873D01*
X14617558Y-5019874D01*
X14617561Y-5019876D01*
X14782293Y-5073401D01*
X14782297Y-5073402D01*
X14953386Y-5100500D01*
X14953389Y-5100500D01*
X15126614Y-5100500D01*
X15297702Y-5073402D01*
X15297706Y-5073401D01*
X15462438Y-5019876D01*
X15462440Y-5019874D01*
X15462445Y-5019873D01*
X15616788Y-4941232D01*
X15756928Y-4839414D01*
X15879414Y-4716928D01*
X15981232Y-4576788D01*
X16059873Y-4422445D01*
X16059874Y-4422440D01*
X16059876Y-4422438D01*
X16113401Y-4257706D01*
X16113402Y-4257702D01*
X16140500Y-4086614D01*
X16140500Y-3913385D01*
X16113402Y-3742297D01*
X16113401Y-3742293D01*
X16059876Y-3577561D01*
X16059874Y-3577558D01*
X16059873Y-3577557D01*
X16059873Y-3577555D01*
X15981232Y-3423212D01*
X15879414Y-3283072D01*
X15756928Y-3160586D01*
X15616788Y-3058768D01*
X15616787Y-3058767D01*
X15616785Y-3058766D01*
X15462441Y-2980125D01*
X15462438Y-2980123D01*
X15297706Y-2926598D01*
X15297702Y-2926597D01*
X15126614Y-2899500D01*
X15126611Y-2899500D01*
X14953389Y-2899500D01*
X14953386Y-2899500D01*
X14782297Y-2926597D01*
X14782293Y-2926598D01*
X14617561Y-2980123D01*
X14617558Y-2980125D01*
X14463214Y-3058766D01*
X14323073Y-3160585D01*
X14200585Y-3283073D01*
X14098766Y-3423214D01*
X14020125Y-3577558D01*
X14020123Y-3577561D01*
X13966598Y-3742293D01*
X13966597Y-3742297D01*
X13939500Y-3913385D01*
X500500Y-3913385D01*
X500500Y-599500D01*
X519407Y-541309D01*
X568907Y-505345D01*
X599500Y-500500D01*
X24400500Y-500500D01*
X24458691Y-519407D01*
G37*
%TD.AperFunction*%
%TD*%
M02*
