M48
; DRILL file KiCad 10.0.5 date 2026-08-08T06:42:38
; FORMAT={-:-/ absolute / metric / decimal}
; #@! TF.CreationDate,2026-08-08T06:42:38+02:00
; #@! TF.GenerationSoftware,Kicad,Pcbnew,10.0.5
; #@! TF.FileFunction,Plated,1,4,PTH
FMAT,2
METRIC
; #@! TA.AperFunction,Plated,PTH,ViaDrill
T1C0.300
; #@! TA.AperFunction,Plated,PTH,ComponentDrill
T2C0.300
; #@! TA.AperFunction,Plated,PTH,ViaDrill
T3C0.400
; #@! TA.AperFunction,Plated,PTH,ComponentDrill
T4C0.600
; #@! TA.AperFunction,Plated,PTH,ComponentDrill
T5C0.750
; #@! TA.AperFunction,Plated,PTH,ComponentDrill
T6C0.900
; #@! TA.AperFunction,Plated,PTH,ComponentDrill
T7C1.300
; #@! TA.AperFunction,Plated,PTH,ComponentDrill
T8C2.000
%
G90
G05
T1
X25.776Y-64.914
X26.5Y-106.29
X27.75Y-106.273
X29.471Y-94.227
X30.467Y-106.269
X32.215Y-65.502
X36.333Y-76.208
X37.756Y-67.756
X38.642Y-64.642
X38.812Y-88.797
X38.812Y-91.406
X39.141Y-99.955
X39.581Y-103.047
X40.971Y-53.0
X41.398Y-94.345
X41.425Y-99.959
X43.71Y-101.5
X44.862Y-93.412
X44.992Y-34.005
X45.012Y-66.905
X45.809Y-102.947
X46.91Y-71.033
X46.96Y-52.631
X46.982Y-100.344
X47.144Y-91.406
X47.447Y-101.25
X47.504Y-18.765
X47.504Y-32.735
X47.506Y-20.035
X47.506Y-21.305
X47.506Y-22.575
X47.506Y-23.845
X47.514Y-17.707
X47.888Y-25.186
X47.888Y-26.385
X49.224Y-58.526
X50.873Y-55.579
X53.014Y-64.506
X53.225Y-58.979
X53.833Y-66.305
X54.175Y-72.012
X56.561Y-76.736
X57.195Y-91.55
X60.361Y-73.639
X61.0Y-92.56
X61.146Y-91.596
X61.684Y-19.285
X61.685Y-100.651
X63.434Y-43.741
X64.219Y-99.373
X64.357Y-76.357
X64.592Y-100.855
X65.002Y-22.575
X65.004Y-17.722
X65.004Y-20.262
X65.004Y-21.305
X65.004Y-30.195
X65.004Y-31.238
X65.004Y-32.508
X65.008Y-34.005
X65.01Y-26.383
X65.015Y-27.655
X65.825Y-41.993
X67.244Y-18.17
X67.488Y-46.217
X68.161Y-63.692
X68.773Y-68.525
X69.004Y-65.431
X71.236Y-68.561
X71.487Y-90.944
X72.55Y-101.925
X72.681Y-68.349
X73.361Y-52.639
X73.75Y-104.382
X74.346Y-43.0
X74.48Y-55.363
X75.548Y-101.926
X76.138Y-69.788
X76.518Y-61.473
X76.552Y-100.754
X76.75Y-101.923
X76.845Y-57.941
X76.946Y-69.912
X77.31Y-67.651
X77.555Y-101.912
X79.317Y-99.081
X80.496Y-45.948
X80.603Y-39.06
X80.692Y-47.205
X81.138Y-61.297
X82.515Y-90.945
X82.565Y-102.562
X82.8Y-44.112
X84.138Y-47.755
X85.304Y-46.329
X85.437Y-25.738
X85.5Y-102.448
X86.5Y-103.213
X87.5Y-105.792
X88.5Y-103.223
X89.267Y-40.0
X89.5Y-103.197
X89.698Y-46.737
X90.175Y-51.013
X90.436Y-24.261
X90.5Y-103.223
X92.368Y-51.031
X92.435Y-93.26
X93.761Y-35.32
X94.013Y-52.631
X94.685Y-48.666
X94.966Y-39.247
X95.468Y-24.289
X97.194Y-100.05
X97.983Y-52.631
X98.494Y-39.196
X98.806Y-58.524
X98.811Y-61.473
X98.819Y-59.365
X99.085Y-46.74
X100.875Y-45.224
X101.914Y-55.579
X101.914Y-64.42
X102.454Y-39.241
X107.426Y-27.251
X107.568Y-25.618
X108.68Y-44.0
X109.825Y-29.552
X111.175Y-24.011
X111.204Y-64.42
X112.122Y-61.304
X113.535Y-30.24
X114.237Y-75.776
X114.969Y-53.742
X115.106Y-28.803
X115.671Y-74.0
X120.09Y-71.265
X122.903Y-59.19
X124.018Y-30.243
X125.423Y-28.752
X127.54Y-25.59
X127.764Y-76.208
X128.648Y-24.268
T2
X48.4Y-63.2
X48.4Y-64.4
X48.4Y-65.7
X48.4Y-66.8
X49.6Y-63.2
X49.6Y-64.4
X49.6Y-65.7
X49.6Y-66.8
X53.9Y-24.905
X53.9Y-26.005
X53.9Y-27.105
X55.0Y-24.905
X55.0Y-26.005
X55.0Y-27.105
X56.1Y-24.905
X56.1Y-26.005
X56.1Y-27.105
T3
X70.6Y-18.4
X70.6Y-21.6
X77.4Y-18.4
X77.4Y-21.6
T5
X27.0Y-46.0
X28.27Y-46.0
X29.54Y-46.0
T6
X104.19Y-94.46
X104.19Y-99.54
X106.73Y-94.46
X106.73Y-99.54
X109.27Y-94.46
X109.27Y-99.54
X111.81Y-94.46
X111.81Y-99.54
T7
X16.0Y-51.0
X16.0Y-56.0
X16.0Y-61.0
X16.0Y-66.0
X84.0Y-15.0
X89.0Y-15.0
X94.0Y-15.0
X104.0Y-15.0
X109.0Y-15.0
X114.0Y-15.0
X117.0Y-106.5
X122.0Y-106.5
X126.0Y-15.0
X127.0Y-106.5
X131.0Y-15.0
X135.0Y-33.0
X135.0Y-38.0
X135.0Y-43.0
X135.0Y-48.0
X135.0Y-70.0
X135.0Y-75.0
X136.0Y-15.0
T8
X22.0Y-38.0
X30.0Y-38.0
X38.0Y-38.0
X46.0Y-39.0
X54.0Y-40.0
X55.0Y-104.0
X62.0Y-40.0
X70.0Y-38.0
X83.0Y-35.0
X86.0Y-31.0
X91.0Y-35.0
X94.0Y-31.0
X102.0Y-31.0
T4
X70.68Y-103.52G85X70.68Y-104.62
G05
X70.68Y-107.95G85X70.68Y-108.55
G05
X79.32Y-103.52G85X79.32Y-104.62
G05
X79.32Y-107.95G85X79.32Y-108.55
G05
M30
