%TF.GenerationSoftware,KiCad,Pcbnew,10.0.5*%
%TF.CreationDate,2026-08-08T06:42:38+02:00*%
%TF.ProjectId,IDM-RoomSensor-ESP-B-ES4-AIR-R2,49444d2d-526f-46f6-9d53-656e736f722d,rev?*%
%TF.SameCoordinates,Original*%
%TF.FileFunction,Copper,L4,Bot*%
%TF.FilePolarity,Positive*%
%FSLAX46Y46*%
G04 Gerber Fmt 4.6, Leading zero omitted, Abs format (unit mm)*
G04 Created by KiCad (PCBNEW 10.0.5) date 2026-08-08 06:42:38*
%MOMM*%
%LPD*%
G01*
G04 APERTURE LIST*
G04 Aperture macros list*
%AMRoundRect*
0 Rectangle with rounded corners*
0 $1 Rounding radius*
0 $2 $3 $4 $5 $6 $7 $8 $9 X,Y pos of 4 corners*
0 Add a 4 corners polygon primitive as box body*
4,1,4,$2,$3,$4,$5,$6,$7,$8,$9,$2,$3,0*
0 Add four circle primitives for the rounded corners*
1,1,$1+$1,$2,$3*
1,1,$1+$1,$4,$5*
1,1,$1+$1,$6,$7*
1,1,$1+$1,$8,$9*
0 Add four rect primitives between the rounded corners*
20,1,$1+$1,$2,$3,$4,$5,0*
20,1,$1+$1,$4,$5,$6,$7,0*
20,1,$1+$1,$6,$7,$8,$9,0*
20,1,$1+$1,$8,$9,$2,$3,0*%
G04 Aperture macros list end*
%TA.AperFunction,ComponentPad*%
%ADD10C,3.000000*%
%TD*%
%TA.AperFunction,ComponentPad*%
%ADD11RoundRect,0.250001X-1.149999X-1.149999X1.149999X-1.149999X1.149999X1.149999X-1.149999X1.149999X0*%
%TD*%
%TA.AperFunction,ComponentPad*%
%ADD12C,2.800000*%
%TD*%
%TA.AperFunction,ComponentPad*%
%ADD13C,0.600000*%
%TD*%
%TA.AperFunction,SMDPad,CuDef*%
%ADD14R,2.950000X4.500000*%
%TD*%
%TA.AperFunction,ComponentPad*%
%ADD15R,1.600000X1.600000*%
%TD*%
%TA.AperFunction,ComponentPad*%
%ADD16C,1.600000*%
%TD*%
%TA.AperFunction,ComponentPad*%
%ADD17RoundRect,0.250001X1.149999X-1.149999X1.149999X1.149999X-1.149999X1.149999X-1.149999X-1.149999X0*%
%TD*%
%TA.AperFunction,ComponentPad*%
%ADD18O,1.000000X2.100000*%
%TD*%
%TA.AperFunction,ComponentPad*%
%ADD19O,1.000000X1.600000*%
%TD*%
%TA.AperFunction,ComponentPad*%
%ADD20R,1.050000X1.500000*%
%TD*%
%TA.AperFunction,ComponentPad*%
%ADD21O,1.050000X1.500000*%
%TD*%
%TA.AperFunction,ViaPad*%
%ADD22C,0.600000*%
%TD*%
%TA.AperFunction,ViaPad*%
%ADD23C,0.800000*%
%TD*%
%TA.AperFunction,Conductor*%
%ADD24C,0.200000*%
%TD*%
G04 APERTURE END LIST*
D10*
%TO.P,TP2,1*%
%TO.N,24V_PROT*%
X30000000Y-38000000D03*
%TD*%
D11*
%TO.P,J6,1*%
%TO.N,+3V3*%
X104000000Y-15000000D03*
D12*
%TO.P,J6,2*%
%TO.N,ONEWIRE_EXT*%
X109000000Y-15000000D03*
%TO.P,J6,3*%
%TO.N,GND*%
X114000000Y-15000000D03*
%TD*%
D10*
%TO.P,TP3,1*%
%TO.N,SYS_5V*%
X38000000Y-38000000D03*
%TD*%
D13*
%TO.P,U1,9*%
%TO.N,GND*%
X48400000Y-63200000D03*
X48400000Y-64400000D03*
X48400000Y-65700000D03*
X48400000Y-66800000D03*
D14*
X49000000Y-65000000D03*
D13*
X49600000Y-63200000D03*
X49600000Y-64400000D03*
X49600000Y-65700000D03*
X49600000Y-66800000D03*
%TD*%
%TO.P,U3,29*%
%TO.N,GND*%
X53900000Y-24905000D03*
X53900000Y-26005000D03*
X53900000Y-27105000D03*
X55000000Y-24905000D03*
X55000000Y-26005000D03*
X55000000Y-27105000D03*
X56100000Y-24905000D03*
X56100000Y-26005000D03*
X56100000Y-27105000D03*
%TD*%
D10*
%TO.P,TP7,1*%
%TO.N,RH_OUT*%
X70000000Y-38000000D03*
%TD*%
%TO.P,TP1,1*%
%TO.N,24V_RAW*%
X22000000Y-38000000D03*
%TD*%
D15*
%TO.P,K1,1*%
%TO.N,SYS_5V*%
X104190000Y-94460000D03*
D16*
%TO.P,K1,2*%
%TO.N,RELAY_NC*%
X106730000Y-94460000D03*
%TO.P,K1,3*%
%TO.N,RELAY_COM*%
X109270000Y-94460000D03*
%TO.P,K1,4*%
%TO.N,RELAY_NO*%
X111810000Y-94460000D03*
%TO.P,K1,5*%
%TO.N,N/C*%
X111810000Y-99540000D03*
%TO.P,K1,6*%
X109270000Y-99540000D03*
%TO.P,K1,7*%
X106730000Y-99540000D03*
%TO.P,K1,8*%
%TO.N,RELAY_COIL_L*%
X104190000Y-99540000D03*
%TD*%
D10*
%TO.P,TP12,1*%
%TO.N,GND*%
X91000000Y-35000000D03*
%TD*%
D11*
%TO.P,J9,1*%
%TO.N,RELAY_COM*%
X117000000Y-106500000D03*
D12*
%TO.P,J9,2*%
%TO.N,RELAY_NO*%
X122000000Y-106500000D03*
%TO.P,J9,3*%
%TO.N,RELAY_NC*%
X127000000Y-106500000D03*
%TD*%
D10*
%TO.P,TP5,1*%
%TO.N,I2C_SDA*%
X54000000Y-40000000D03*
%TD*%
D17*
%TO.P,J2,1*%
%TO.N,RS485_A*%
X135000000Y-48000000D03*
D12*
%TO.P,J2,2*%
%TO.N,RS485_B*%
X135000000Y-43000000D03*
%TO.P,J2,3*%
%TO.N,RS485_COM*%
X135000000Y-38000000D03*
%TO.P,J2,4*%
%TO.N,RS485_SHIELD*%
X135000000Y-33000000D03*
%TD*%
D17*
%TO.P,J8,1*%
%TO.N,AIN_0_10_RAW*%
X135000000Y-75000000D03*
D12*
%TO.P,J8,2*%
%TO.N,GND*%
X135000000Y-70000000D03*
%TD*%
D10*
%TO.P,TP8,1*%
%TO.N,TEMP_KTY*%
X83000000Y-35000000D03*
%TD*%
D17*
%TO.P,J1,1*%
%TO.N,TEMP_KTY*%
X16000000Y-66000000D03*
D12*
%TO.P,J1,2*%
%TO.N,24V_RAW*%
X16000000Y-61000000D03*
%TO.P,J1,3*%
%TO.N,GND*%
X16000000Y-56000000D03*
%TO.P,J1,4*%
%TO.N,RH_OUT*%
X16000000Y-51000000D03*
%TD*%
D11*
%TO.P,J7,1*%
%TO.N,CONTACT1_EXT*%
X126000000Y-15000000D03*
D12*
%TO.P,J7,2*%
%TO.N,GND*%
X131000000Y-15000000D03*
%TO.P,J7,3*%
%TO.N,CONTACT2_EXT*%
X136000000Y-15000000D03*
%TD*%
D10*
%TO.P,TP9,1*%
%TO.N,RS485_A*%
X86000000Y-31000000D03*
%TD*%
%TO.P,TP6,1*%
%TO.N,I2C_SCL*%
X62000000Y-40000000D03*
%TD*%
%TO.P,TP4,1*%
%TO.N,+3V3*%
X46000000Y-39000000D03*
%TD*%
%TO.P,TP10,1*%
%TO.N,RS485_B*%
X94000000Y-31000000D03*
%TD*%
D18*
%TO.P,J3,SH*%
%TO.N,GND*%
X70680000Y-104070000D03*
D19*
X70680000Y-108250000D03*
D18*
X79320000Y-104070000D03*
D19*
X79320000Y-108250000D03*
%TD*%
D10*
%TO.P,TP13,1*%
%TO.N,AIR_3V3*%
X55000000Y-104000000D03*
%TD*%
%TO.P,TP11,1*%
%TO.N,RS485_COM*%
X102000000Y-31000000D03*
%TD*%
D11*
%TO.P,J5,1*%
%TO.N,+3V3*%
X84000000Y-15000000D03*
D12*
%TO.P,J5,2*%
%TO.N,ONEWIRE_EXT*%
X89000000Y-15000000D03*
%TO.P,J5,3*%
%TO.N,GND*%
X94000000Y-15000000D03*
%TD*%
D20*
%TO.P,RTH1,1*%
%TO.N,TEMP_KTY*%
X27000000Y-46000000D03*
D21*
%TO.P,RTH1,2*%
%TO.N,GND*%
X28270000Y-46000000D03*
%TO.P,RTH1,3*%
%TO.N,N/C*%
X29540000Y-46000000D03*
%TD*%
D22*
%TO.N,AIR_3V3*%
X47143600Y-91406400D03*
X64218800Y-99372500D03*
X61146300Y-91596300D03*
X29470800Y-94227500D03*
X27750000Y-106273000D03*
%TO.N,GND*%
X72680700Y-68349200D03*
X80602800Y-39059900D03*
X127764200Y-76208300D03*
X95467500Y-24288700D03*
X101914400Y-64419900D03*
X61000000Y-92560300D03*
X38811900Y-91406400D03*
X92367600Y-51031300D03*
X97983200Y-52631500D03*
X47514100Y-17707400D03*
D23*
X77400000Y-18400000D03*
D22*
X124018000Y-30243000D03*
X46960400Y-52631500D03*
X44862500Y-93412400D03*
X67488300Y-46217300D03*
X65004100Y-17722400D03*
X61684700Y-100650800D03*
X76845400Y-57940500D03*
X26500000Y-106290400D03*
X82514800Y-90944900D03*
X113534900Y-30240100D03*
X85500000Y-102448300D03*
X80496100Y-45947700D03*
X100875000Y-45224000D03*
X102453900Y-39241400D03*
X127540400Y-25590400D03*
X107568200Y-25618200D03*
X38811900Y-88797100D03*
X43710100Y-101500000D03*
X46982500Y-100344400D03*
X56561200Y-76736200D03*
X36332900Y-76208300D03*
%TO.N,24V_PROT*%
X89266700Y-40000000D03*
X37755700Y-67755600D03*
X40970600Y-53000000D03*
%TO.N,+3V3*%
X107425800Y-27250800D03*
X82565100Y-102561900D03*
X67244300Y-18170100D03*
X90435700Y-24260700D03*
D23*
X77400000Y-21600000D03*
D22*
X81137500Y-61296900D03*
X63434200Y-43740800D03*
X125423100Y-28751900D03*
X94013300Y-52631500D03*
X47504100Y-18765000D03*
X114236700Y-75775800D03*
X101913800Y-55578600D03*
X80692000Y-47205400D03*
%TO.N,I2C_SCL*%
X45808800Y-102946600D03*
X47887900Y-25185700D03*
D23*
X70600000Y-21600000D03*
D22*
X30467500Y-106269200D03*
X85304300Y-46329500D03*
X87500000Y-105792000D03*
X41424600Y-99958900D03*
%TO.N,I2C_SDA*%
X84137500Y-47754700D03*
X86500000Y-103213300D03*
X47505700Y-23845000D03*
X39580900Y-103046600D03*
D23*
X70600000Y-18400000D03*
D22*
X47447500Y-101250200D03*
%TO.N,SYS_5V*%
X60360900Y-73639100D03*
X73360600Y-52639400D03*
X64592400Y-100854600D03*
X57194700Y-91549800D03*
X76517900Y-61472800D03*
X71487300Y-90943800D03*
X97193500Y-100050000D03*
%TO.N,PWR_GOOD*%
X45012100Y-66905000D03*
X49224000Y-58525700D03*
%TO.N,VCC_BYP*%
X53832700Y-66304800D03*
X46910500Y-71032700D03*
%TO.N,BOOT*%
X53013700Y-64506400D03*
X53225000Y-58978600D03*
%TO.N,SGP_VDD*%
X41397700Y-94345200D03*
X39141100Y-99955400D03*
%TO.N,RS485_A*%
X112122100Y-61304200D03*
%TO.N,C6_EN*%
X47505700Y-20035000D03*
X65825000Y-41993100D03*
%TO.N,EXP_GPIO4*%
X47505700Y-21305000D03*
X89500000Y-103196900D03*
%TO.N,EXP_GPIO5*%
X90500000Y-103222600D03*
X47505700Y-22575000D03*
%TO.N,ADC_0_10*%
X115670700Y-74000000D03*
X120090000Y-71265000D03*
X69004100Y-65431200D03*
X47887900Y-26385000D03*
%TO.N,USB_D-*%
X76946100Y-69912100D03*
X47504100Y-32735000D03*
X76551600Y-100754300D03*
%TO.N,USB_D+*%
X75548400Y-101925700D03*
X44991800Y-34005000D03*
X76137500Y-69787900D03*
%TO.N,C6_BOOT*%
X74346400Y-43000000D03*
X65008200Y-34005000D03*
%TO.N,CONTACT1*%
X65004100Y-32507600D03*
X93760700Y-35319900D03*
X109825000Y-29552000D03*
%TO.N,CONTACT2*%
X65004100Y-31237600D03*
X115106300Y-28802800D03*
%TO.N,SERVICE_BUTTON*%
X79316800Y-99080800D03*
X65004100Y-30195000D03*
%TO.N,BUS_LED*%
X98493900Y-39196400D03*
X65014700Y-27655000D03*
%TO.N,ONEWIRE*%
X65009800Y-26383400D03*
X85437300Y-25737700D03*
X88500000Y-103222600D03*
%TO.N,RS485_RX*%
X98806300Y-58524500D03*
X65002500Y-22575000D03*
%TO.N,RS485_TX*%
X65004100Y-21305000D03*
X98811100Y-61472800D03*
%TO.N,RELAY_CTRL*%
X65004100Y-20262400D03*
X92434800Y-93259800D03*
%TO.N,RS485_DE*%
X98818500Y-59365000D03*
X61684300Y-19284800D03*
%TO.N,RH_OUT*%
X99084800Y-46740200D03*
%TO.N,24V_RAW*%
X25776200Y-64913700D03*
%TO.N,24V_FUSED*%
X38642100Y-64642100D03*
X32215500Y-65502300D03*
%TO.N,USB_5V*%
X64357200Y-76357200D03*
X77310400Y-67650800D03*
X72550000Y-101925400D03*
X77554700Y-101911800D03*
%TO.N,DAC_RAW*%
X82800200Y-44112400D03*
X89697700Y-46737300D03*
%TO.N,OPAMP_FB*%
X94684900Y-48665900D03*
X90175000Y-51012600D03*
%TO.N,RS485_B*%
X122902900Y-59190000D03*
%TO.N,RS485_COM*%
X114968600Y-53742400D03*
X111204500Y-64419900D03*
%TO.N,USB_CC1*%
X73750000Y-104382300D03*
X68772600Y-68525100D03*
%TO.N,PWR_LED_K*%
X108680400Y-44000000D03*
X94965900Y-39246600D03*
%TO.N,CONTACT1_EXT*%
X111175000Y-24010900D03*
%TO.N,CONTACT2_EXT*%
X128647900Y-24268200D03*
%TO.N,5V_BUCK*%
X50872700Y-55578600D03*
X54175000Y-72011600D03*
X68160900Y-63692300D03*
X74480200Y-55362700D03*
%TO.N,USB_CC2*%
X76750000Y-101922700D03*
X71236200Y-68561200D03*
%TD*%
%TO.N,GND*%
D24*
X48400000Y-64400000D02*
X49000000Y-65000000D01*
%TD*%
M02*
