%TF.GenerationSoftware,KiCad,Pcbnew,10.0.5*%
%TF.CreationDate,2026-08-08T06:42:38+02:00*%
%TF.ProjectId,IDM-RoomSensor-ESP-B-ES4-AIR-R2,49444d2d-526f-46f6-9d53-656e736f722d,rev?*%
%TF.SameCoordinates,Original*%
%TF.FileFunction,Copper,L1,Top*%
%TF.FilePolarity,Positive*%
%FSLAX46Y46*%
G04 Gerber Fmt 4.6, Leading zero omitted, Abs format (unit mm)*
G04 Created by KiCad (PCBNEW 10.0.5) date 2026-08-08 06:42:38*
%MOMM*%
%LPD*%
G01*
G04 APERTURE LIST*
G04 Aperture macros list*
%AMRoundRect*
0 Rectangle with rounded corners*
0 $1 Rounding radius*
0 $2 $3 $4 $5 $6 $7 $8 $9 X,Y pos of 4 corners*
0 Add a 4 corners polygon primitive as box body*
4,1,4,$2,$3,$4,$5,$6,$7,$8,$9,$2,$3,0*
0 Add four circle primitives for the rounded corners*
1,1,$1+$1,$2,$3*
1,1,$1+$1,$4,$5*
1,1,$1+$1,$6,$7*
1,1,$1+$1,$8,$9*
0 Add four rect primitives between the rounded corners*
20,1,$1+$1,$2,$3,$4,$5,0*
20,1,$1+$1,$4,$5,$6,$7,0*
20,1,$1+$1,$6,$7,$8,$9,0*
20,1,$1+$1,$8,$9,$2,$3,0*%
G04 Aperture macros list end*
%TA.AperFunction,SMDPad,CuDef*%
%ADD10RoundRect,0.250000X-0.250000X-0.475000X0.250000X-0.475000X0.250000X0.475000X-0.250000X0.475000X0*%
%TD*%
%TA.AperFunction,ComponentPad*%
%ADD11C,3.000000*%
%TD*%
%TA.AperFunction,SMDPad,CuDef*%
%ADD12RoundRect,0.200000X-0.200000X-0.275000X0.200000X-0.275000X0.200000X0.275000X-0.200000X0.275000X0*%
%TD*%
%TA.AperFunction,SMDPad,CuDef*%
%ADD13RoundRect,0.150000X-0.587500X-0.150000X0.587500X-0.150000X0.587500X0.150000X-0.587500X0.150000X0*%
%TD*%
%TA.AperFunction,SMDPad,CuDef*%
%ADD14R,1.500000X0.800000*%
%TD*%
%TA.AperFunction,SMDPad,CuDef*%
%ADD15R,0.800000X1.500000*%
%TD*%
%TA.AperFunction,SMDPad,CuDef*%
%ADD16R,4.800000X4.800000*%
%TD*%
%TA.AperFunction,ComponentPad*%
%ADD17RoundRect,0.250001X-1.149999X-1.149999X1.149999X-1.149999X1.149999X1.149999X-1.149999X1.149999X0*%
%TD*%
%TA.AperFunction,ComponentPad*%
%ADD18C,2.800000*%
%TD*%
%TA.AperFunction,SMDPad,CuDef*%
%ADD19R,1.550000X0.600000*%
%TD*%
%TA.AperFunction,ComponentPad*%
%ADD20C,0.600000*%
%TD*%
%TA.AperFunction,SMDPad,CuDef*%
%ADD21R,2.600000X3.100000*%
%TD*%
%TA.AperFunction,SMDPad,CuDef*%
%ADD22R,2.950000X4.500000*%
%TD*%
%TA.AperFunction,SMDPad,CuDef*%
%ADD23RoundRect,0.250000X0.625000X-0.312500X0.625000X0.312500X-0.625000X0.312500X-0.625000X-0.312500X0*%
%TD*%
%TA.AperFunction,SMDPad,CuDef*%
%ADD24R,1.500000X0.900000*%
%TD*%
%TA.AperFunction,SMDPad,CuDef*%
%ADD25R,3.300000X3.300000*%
%TD*%
%TA.AperFunction,SMDPad,CuDef*%
%ADD26RoundRect,0.112500X0.112500X-0.187500X0.112500X0.187500X-0.112500X0.187500X-0.112500X-0.187500X0*%
%TD*%
%TA.AperFunction,SMDPad,CuDef*%
%ADD27RoundRect,0.250000X-1.000000X-0.650000X1.000000X-0.650000X1.000000X0.650000X-1.000000X0.650000X0*%
%TD*%
%TA.AperFunction,SMDPad,CuDef*%
%ADD28RoundRect,0.150000X-0.512500X-0.150000X0.512500X-0.150000X0.512500X0.150000X-0.512500X0.150000X0*%
%TD*%
%TA.AperFunction,SMDPad,CuDef*%
%ADD29RoundRect,0.225000X-0.225000X-0.250000X0.225000X-0.250000X0.225000X0.250000X-0.225000X0.250000X0*%
%TD*%
%TA.AperFunction,SMDPad,CuDef*%
%ADD30R,0.900000X1.700000*%
%TD*%
%TA.AperFunction,ComponentPad*%
%ADD31R,1.600000X1.600000*%
%TD*%
%TA.AperFunction,ComponentPad*%
%ADD32C,1.600000*%
%TD*%
%TA.AperFunction,SMDPad,CuDef*%
%ADD33RoundRect,0.218750X-0.218750X-0.256250X0.218750X-0.256250X0.218750X0.256250X-0.218750X0.256250X0*%
%TD*%
%TA.AperFunction,SMDPad,CuDef*%
%ADD34RoundRect,0.190000X0.190000X-0.610000X0.190000X0.610000X-0.190000X0.610000X-0.190000X-0.610000X0*%
%TD*%
%TA.AperFunction,ComponentPad*%
%ADD35RoundRect,0.250001X1.149999X-1.149999X1.149999X1.149999X-1.149999X1.149999X-1.149999X-1.149999X0*%
%TD*%
%TA.AperFunction,SMDPad,CuDef*%
%ADD36RoundRect,0.200000X0.275000X-0.200000X0.275000X0.200000X-0.275000X0.200000X-0.275000X-0.200000X0*%
%TD*%
%TA.AperFunction,SMDPad,CuDef*%
%ADD37R,0.300000X0.300000*%
%TD*%
%TA.AperFunction,SMDPad,CuDef*%
%ADD38RoundRect,0.225000X0.250000X-0.225000X0.250000X0.225000X-0.250000X0.225000X-0.250000X-0.225000X0*%
%TD*%
%TA.AperFunction,SMDPad,CuDef*%
%ADD39R,0.585000X0.448000*%
%TD*%
%TA.AperFunction,SMDPad,CuDef*%
%ADD40R,1.250000X1.650000*%
%TD*%
%TA.AperFunction,SMDPad,CuDef*%
%ADD41RoundRect,0.250000X-0.325000X-1.100000X0.325000X-1.100000X0.325000X1.100000X-0.325000X1.100000X0*%
%TD*%
%TA.AperFunction,SMDPad,CuDef*%
%ADD42RoundRect,0.250000X-1.500000X-1.000000X1.500000X-1.000000X1.500000X1.000000X-1.500000X1.000000X0*%
%TD*%
%TA.AperFunction,SMDPad,CuDef*%
%ADD43RoundRect,0.250000X-0.325000X-0.650000X0.325000X-0.650000X0.325000X0.650000X-0.325000X0.650000X0*%
%TD*%
%TA.AperFunction,SMDPad,CuDef*%
%ADD44RoundRect,0.112500X-0.187500X-0.112500X0.187500X-0.112500X0.187500X0.112500X-0.187500X0.112500X0*%
%TD*%
%TA.AperFunction,SMDPad,CuDef*%
%ADD45RoundRect,0.250000X0.900000X-1.000000X0.900000X1.000000X-0.900000X1.000000X-0.900000X-1.000000X0*%
%TD*%
%TA.AperFunction,SMDPad,CuDef*%
%ADD46RoundRect,0.150000X-0.150000X-0.575000X0.150000X-0.575000X0.150000X0.575000X-0.150000X0.575000X0*%
%TD*%
%TA.AperFunction,SMDPad,CuDef*%
%ADD47RoundRect,0.075000X-0.075000X-0.650000X0.075000X-0.650000X0.075000X0.650000X-0.075000X0.650000X0*%
%TD*%
%TA.AperFunction,ComponentPad*%
%ADD48O,1.000000X2.100000*%
%TD*%
%TA.AperFunction,ComponentPad*%
%ADD49O,1.000000X1.600000*%
%TD*%
%TA.AperFunction,SMDPad,CuDef*%
%ADD50RoundRect,0.250000X-0.312500X-1.450000X0.312500X-1.450000X0.312500X1.450000X-0.312500X1.450000X0*%
%TD*%
%TA.AperFunction,SMDPad,CuDef*%
%ADD51RoundRect,0.150000X-0.150000X-0.625000X0.150000X-0.625000X0.150000X0.625000X-0.150000X0.625000X0*%
%TD*%
%TA.AperFunction,SMDPad,CuDef*%
%ADD52RoundRect,0.250000X-0.350000X-0.650000X0.350000X-0.650000X0.350000X0.650000X-0.350000X0.650000X0*%
%TD*%
%TA.AperFunction,SMDPad,CuDef*%
%ADD53RoundRect,0.150000X-0.875000X-0.150000X0.875000X-0.150000X0.875000X0.150000X-0.875000X0.150000X0*%
%TD*%
%TA.AperFunction,SMDPad,CuDef*%
%ADD54R,2.700000X3.600000*%
%TD*%
%TA.AperFunction,ComponentPad*%
%ADD55R,1.050000X1.500000*%
%TD*%
%TA.AperFunction,ComponentPad*%
%ADD56O,1.050000X1.500000*%
%TD*%
%TA.AperFunction,SMDPad,CuDef*%
%ADD57R,0.500000X0.300000*%
%TD*%
%TA.AperFunction,ViaPad*%
%ADD58C,0.600000*%
%TD*%
%TA.AperFunction,ViaPad*%
%ADD59C,0.800000*%
%TD*%
%TA.AperFunction,Conductor*%
%ADD60C,0.200000*%
%TD*%
%TA.AperFunction,Conductor*%
%ADD61C,0.150000*%
%TD*%
G04 APERTURE END LIST*
D10*
%TO.P,C26,1*%
%TO.N,AIR_3V3*%
X50050000Y-92500000D03*
%TO.P,C26,2*%
%TO.N,GND*%
X51950000Y-92500000D03*
%TD*%
D11*
%TO.P,TP2,1*%
%TO.N,24V_PROT*%
X30000000Y-38000000D03*
%TD*%
D12*
%TO.P,R15,1*%
%TO.N,+3V3*%
X91175000Y-25000000D03*
%TO.P,R15,2*%
%TO.N,ONEWIRE_EXT*%
X92825000Y-25000000D03*
%TD*%
%TO.P,R2,1*%
%TO.N,BUCK_FB*%
X54175000Y-76000000D03*
%TO.P,R2,2*%
%TO.N,GND*%
X55825000Y-76000000D03*
%TD*%
D13*
%TO.P,Q2,1*%
%TO.N,RELAY_GATE*%
X98062500Y-93050000D03*
%TO.P,Q2,2*%
%TO.N,GND*%
X98062500Y-94950000D03*
%TO.P,Q2,3*%
%TO.N,RELAY_COIL_L*%
X99937500Y-94000000D03*
%TD*%
D14*
%TO.P,U8,1*%
%TO.N,N/C*%
X25000000Y-98500000D03*
%TO.P,U8,2*%
X25000000Y-99750000D03*
%TO.P,U8,3*%
X25000000Y-101000000D03*
%TO.P,U8,4*%
X25000000Y-102250000D03*
%TO.P,U8,5*%
X25000000Y-103500000D03*
D15*
%TO.P,U8,6*%
%TO.N,GND*%
X26500000Y-105000000D03*
%TO.P,U8,7*%
%TO.N,AIR_3V3*%
X27750000Y-105000000D03*
%TO.P,U8,8*%
%TO.N,N/C*%
X29000000Y-105000000D03*
%TO.P,U8,9*%
%TO.N,I2C_SCL*%
X30250000Y-105000000D03*
%TO.P,U8,10*%
%TO.N,I2C_SDA*%
X31500000Y-105000000D03*
D14*
%TO.P,U8,11*%
%TO.N,N/C*%
X33000000Y-103500000D03*
%TO.P,U8,12*%
X33000000Y-102250000D03*
%TO.P,U8,13*%
X33000000Y-101000000D03*
%TO.P,U8,14*%
X33000000Y-99750000D03*
%TO.P,U8,15*%
X33000000Y-98500000D03*
D15*
%TO.P,U8,16*%
X31500000Y-97000000D03*
%TO.P,U8,17*%
X30250000Y-97000000D03*
%TO.P,U8,18*%
X29000000Y-97000000D03*
%TO.P,U8,19*%
%TO.N,AIR_3V3*%
X27750000Y-97000000D03*
%TO.P,U8,20*%
%TO.N,GND*%
X26500000Y-97000000D03*
D16*
%TO.P,U8,21*%
X29000000Y-101000000D03*
%TD*%
D17*
%TO.P,J6,1*%
%TO.N,+3V3*%
X104000000Y-15000000D03*
D18*
%TO.P,J6,2*%
%TO.N,ONEWIRE_EXT*%
X109000000Y-15000000D03*
%TO.P,J6,3*%
%TO.N,GND*%
X114000000Y-15000000D03*
%TD*%
D11*
%TO.P,TP3,1*%
%TO.N,SYS_5V*%
X38000000Y-38000000D03*
%TD*%
D19*
%TO.P,U1,1*%
%TO.N,GND*%
X46300000Y-63095000D03*
%TO.P,U1,2*%
%TO.N,24V_PROT*%
X46300000Y-64365000D03*
%TO.P,U1,3*%
X46300000Y-65635000D03*
%TO.P,U1,4*%
%TO.N,PWR_GOOD*%
X46300000Y-66905000D03*
%TO.P,U1,5*%
%TO.N,BUCK_FB*%
X51700000Y-66905000D03*
%TO.P,U1,6*%
%TO.N,VCC_BYP*%
X51700000Y-65635000D03*
%TO.P,U1,7*%
%TO.N,BOOT*%
X51700000Y-64365000D03*
%TO.P,U1,8*%
%TO.N,SW*%
X51700000Y-63095000D03*
D20*
%TO.P,U1,9*%
%TO.N,GND*%
X48400000Y-63200000D03*
X48400000Y-64400000D03*
X48400000Y-65700000D03*
X48400000Y-66800000D03*
D21*
X49000000Y-65000000D03*
D22*
X49000000Y-65000000D03*
D20*
X49600000Y-63200000D03*
X49600000Y-64400000D03*
X49600000Y-65700000D03*
X49600000Y-66800000D03*
%TD*%
D10*
%TO.P,C24,1*%
%TO.N,SGP_VDD*%
X42050000Y-92500000D03*
%TO.P,C24,2*%
%TO.N,GND*%
X43950000Y-92500000D03*
%TD*%
D23*
%TO.P,R12,1*%
%TO.N,RS485_A*%
X116000000Y-64462500D03*
%TO.P,R12,2*%
%TO.N,RS485_TERM*%
X116000000Y-61537500D03*
%TD*%
D24*
%TO.P,U3,1*%
%TO.N,GND*%
X46250000Y-17495000D03*
%TO.P,U3,2*%
%TO.N,+3V3*%
X46250000Y-18765000D03*
%TO.P,U3,3*%
%TO.N,C6_EN*%
X46250000Y-20035000D03*
%TO.P,U3,4*%
%TO.N,EXP_GPIO4*%
X46250000Y-21305001D03*
%TO.P,U3,5*%
%TO.N,EXP_GPIO5*%
X46250000Y-22575001D03*
%TO.P,U3,6*%
%TO.N,I2C_SDA*%
X46250000Y-23844999D03*
%TO.P,U3,7*%
%TO.N,I2C_SCL*%
X46250000Y-25115000D03*
%TO.P,U3,8*%
%TO.N,ADC_0_10*%
X46250000Y-26385000D03*
%TO.P,U3,9*%
%TO.N,N/C*%
X46250000Y-27655000D03*
%TO.P,U3,10*%
X46250000Y-28925000D03*
%TO.P,U3,11*%
%TO.N,STATUS_LED*%
X46250000Y-30194999D03*
%TO.P,U3,12*%
%TO.N,N/C*%
X46250000Y-31465000D03*
%TO.P,U3,13*%
%TO.N,USB_D-*%
X46250000Y-32735000D03*
%TO.P,U3,14*%
%TO.N,USB_D+*%
X46250000Y-34005000D03*
%TO.P,U3,15*%
%TO.N,C6_BOOT*%
X63750000Y-34005000D03*
%TO.P,U3,16*%
%TO.N,CONTACT1*%
X63750000Y-32735000D03*
%TO.P,U3,17*%
%TO.N,CONTACT2*%
X63750000Y-31465000D03*
%TO.P,U3,18*%
%TO.N,SERVICE_BUTTON*%
X63750000Y-30194999D03*
%TO.P,U3,19*%
%TO.N,PWR_LED_EN*%
X63750000Y-28925000D03*
%TO.P,U3,20*%
%TO.N,BUS_LED*%
X63750000Y-27655000D03*
%TO.P,U3,21*%
%TO.N,ONEWIRE*%
X63750000Y-26385000D03*
%TO.P,U3,22*%
%TO.N,N/C*%
X63750000Y-25115000D03*
%TO.P,U3,23*%
X63750000Y-23844999D03*
%TO.P,U3,24*%
%TO.N,RS485_RX*%
X63750000Y-22575001D03*
%TO.P,U3,25*%
%TO.N,RS485_TX*%
X63750000Y-21305001D03*
%TO.P,U3,26*%
%TO.N,RELAY_CTRL*%
X63750000Y-20035000D03*
%TO.P,U3,27*%
%TO.N,RS485_DE*%
X63750000Y-18765000D03*
%TO.P,U3,28*%
%TO.N,GND*%
X63750000Y-17495000D03*
D20*
%TO.P,U3,29*%
X53900000Y-24905000D03*
X53900000Y-26005000D03*
X53900000Y-27105000D03*
X55000000Y-24905000D03*
X55000000Y-26005000D03*
D25*
X55000000Y-26005000D03*
D20*
X55000000Y-27105000D03*
X56100000Y-24905000D03*
X56100000Y-26005000D03*
X56100000Y-27105000D03*
%TD*%
D11*
%TO.P,TP7,1*%
%TO.N,RH_OUT*%
X70000000Y-38000000D03*
%TD*%
D10*
%TO.P,C16,1*%
%TO.N,+3V3*%
X95050000Y-52500000D03*
%TO.P,C16,2*%
%TO.N,GND*%
X96950000Y-52500000D03*
%TD*%
D26*
%TO.P,TVS5,1*%
%TO.N,GND*%
X127000000Y-76050000D03*
%TO.P,TVS5,2*%
%TO.N,AIN_0_10_RAW*%
X127000000Y-73950000D03*
%TD*%
D10*
%TO.P,C27,1*%
%TO.N,AIR_3V3*%
X54050000Y-92500000D03*
%TO.P,C27,2*%
%TO.N,GND*%
X55950000Y-92500000D03*
%TD*%
D11*
%TO.P,TP1,1*%
%TO.N,24V_RAW*%
X22000000Y-38000000D03*
%TD*%
D27*
%TO.P,D1,1*%
%TO.N,24V_PROT*%
X36000000Y-66000000D03*
%TO.P,D1,2*%
%TO.N,24V_FUSED*%
X40000000Y-66000000D03*
%TD*%
D10*
%TO.P,C7,1*%
%TO.N,SYS_5V*%
X76050000Y-59000000D03*
%TO.P,C7,2*%
%TO.N,GND*%
X77950000Y-59000000D03*
%TD*%
D27*
%TO.P,D3,1*%
%TO.N,SYS_5V*%
X59000000Y-75000000D03*
%TO.P,D3,2*%
%TO.N,USB_5V*%
X63000000Y-75000000D03*
%TD*%
D10*
%TO.P,C3,1*%
%TO.N,VCC_BYP*%
X46050000Y-72000000D03*
%TO.P,C3,2*%
%TO.N,GND*%
X47950000Y-72000000D03*
%TD*%
D12*
%TO.P,R23,1*%
%TO.N,+3V3*%
X81175000Y-100000000D03*
%TO.P,R23,2*%
%TO.N,SERVICE_BUTTON*%
X82825000Y-100000000D03*
%TD*%
D28*
%TO.P,U6,1*%
%TO.N,OPAMP_OUT*%
X90862500Y-45050000D03*
%TO.P,U6,2*%
%TO.N,GND*%
X90862500Y-46000000D03*
%TO.P,U6,3*%
%TO.N,DAC_RAW*%
X90862500Y-46950000D03*
%TO.P,U6,4*%
%TO.N,OPAMP_FB*%
X93137500Y-46950000D03*
%TO.P,U6,5*%
%TO.N,24V_PROT*%
X93137500Y-45050000D03*
%TD*%
D29*
%TO.P,C21,1*%
%TO.N,ADC_0_10*%
X119225000Y-75000000D03*
%TO.P,C21,2*%
%TO.N,GND*%
X120775000Y-75000000D03*
%TD*%
D10*
%TO.P,C2,1*%
%TO.N,24V_PROT*%
X44050000Y-53000000D03*
%TO.P,C2,2*%
%TO.N,GND*%
X45950000Y-53000000D03*
%TD*%
D30*
%TO.P,SW2,1*%
%TO.N,C6_BOOT*%
X75300000Y-43000000D03*
%TO.P,SW2,2*%
%TO.N,GND*%
X78700000Y-43000000D03*
%TD*%
D31*
%TO.P,K1,1*%
%TO.N,SYS_5V*%
X104190000Y-94460000D03*
D32*
%TO.P,K1,2*%
%TO.N,RELAY_NC*%
X106730000Y-94460000D03*
%TO.P,K1,3*%
%TO.N,RELAY_COM*%
X109270000Y-94460000D03*
%TO.P,K1,4*%
%TO.N,RELAY_NO*%
X111810000Y-94460000D03*
%TO.P,K1,5*%
%TO.N,N/C*%
X111810000Y-99540000D03*
%TO.P,K1,6*%
X109270000Y-99540000D03*
%TO.P,K1,7*%
X106730000Y-99540000D03*
%TO.P,K1,8*%
%TO.N,RELAY_COIL_L*%
X104190000Y-99540000D03*
%TD*%
D11*
%TO.P,TP12,1*%
%TO.N,GND*%
X91000000Y-35000000D03*
%TD*%
D17*
%TO.P,J9,1*%
%TO.N,RELAY_COM*%
X117000000Y-106500000D03*
D18*
%TO.P,J9,2*%
%TO.N,RELAY_NO*%
X122000000Y-106500000D03*
%TO.P,J9,3*%
%TO.N,RELAY_NC*%
X127000000Y-106500000D03*
%TD*%
D33*
%TO.P,LED3,1*%
%TO.N,GND*%
X103212500Y-40000000D03*
%TO.P,LED3,2*%
%TO.N,BUS_LED_R*%
X104787500Y-40000000D03*
%TD*%
D29*
%TO.P,C12,1*%
%TO.N,24V_PROT*%
X93225000Y-42000000D03*
%TO.P,C12,2*%
%TO.N,GND*%
X94775000Y-42000000D03*
%TD*%
D12*
%TO.P,R25,1*%
%TO.N,BUS_LED*%
X99175000Y-40000000D03*
%TO.P,R25,2*%
%TO.N,BUS_LED_R*%
X100825000Y-40000000D03*
%TD*%
D34*
%TO.P,SW3,1*%
%TO.N,RS485_TERM*%
X122000000Y-66810000D03*
%TO.P,SW3,2*%
%TO.N,RS485_B*%
X122000000Y-59190000D03*
%TD*%
D11*
%TO.P,TP5,1*%
%TO.N,I2C_SDA*%
X54000000Y-40000000D03*
%TD*%
D12*
%TO.P,R22,1*%
%TO.N,AIN_DIV*%
X119175000Y-72000000D03*
%TO.P,R22,2*%
%TO.N,ADC_0_10*%
X120825000Y-72000000D03*
%TD*%
D35*
%TO.P,J2,1*%
%TO.N,RS485_A*%
X135000000Y-48000000D03*
D18*
%TO.P,J2,2*%
%TO.N,RS485_B*%
X135000000Y-43000000D03*
%TO.P,J2,3*%
%TO.N,RS485_COM*%
X135000000Y-38000000D03*
%TO.P,J2,4*%
%TO.N,RS485_SHIELD*%
X135000000Y-33000000D03*
%TD*%
D36*
%TO.P,R4,1*%
%TO.N,USB_CC1*%
X68000000Y-67825000D03*
%TO.P,R4,2*%
%TO.N,GND*%
X68000000Y-66175000D03*
%TD*%
D35*
%TO.P,J8,1*%
%TO.N,AIN_0_10_RAW*%
X135000000Y-75000000D03*
D18*
%TO.P,J8,2*%
%TO.N,GND*%
X135000000Y-70000000D03*
%TD*%
D12*
%TO.P,R13,1*%
%TO.N,STATUS_LED*%
X77175000Y-40000000D03*
%TO.P,R13,2*%
%TO.N,STATUS_LED_R*%
X78825000Y-40000000D03*
%TD*%
D10*
%TO.P,C23,1*%
%TO.N,AIR_3V3*%
X38050000Y-92500000D03*
%TO.P,C23,2*%
%TO.N,GND*%
X39950000Y-92500000D03*
%TD*%
D11*
%TO.P,TP8,1*%
%TO.N,TEMP_KTY*%
X83000000Y-35000000D03*
%TD*%
D37*
%TO.P,U10,1*%
%TO.N,AIR_3V3*%
X45750000Y-102280000D03*
%TO.P,U10,2*%
%TO.N,I2C_SCL*%
X46250000Y-102280000D03*
%TO.P,U10,3*%
%TO.N,GND*%
X46780000Y-102000000D03*
%TO.P,U10,4*%
%TO.N,I2C_SDA*%
X46780000Y-101500000D03*
%TO.P,U10,5*%
%TO.N,GND*%
X46780000Y-101000000D03*
%TO.P,U10,6*%
%TO.N,AIR_3V3*%
X46250000Y-100720000D03*
%TO.P,U10,7*%
%TO.N,N/C*%
X45750000Y-100720000D03*
%TO.P,U10,8*%
%TO.N,GND*%
X45220000Y-101000000D03*
%TO.P,U10,9*%
X45220000Y-101500000D03*
%TO.P,U10,10*%
%TO.N,AIR_3V3*%
X45220000Y-102000000D03*
%TD*%
D38*
%TO.P,C10,1*%
%TO.N,+3V3*%
X78000000Y-20775000D03*
%TO.P,C10,2*%
%TO.N,GND*%
X78000000Y-19225000D03*
%TD*%
D13*
%TO.P,Q1,1*%
%TO.N,PWR_LED_EN*%
X108062500Y-43050000D03*
%TO.P,Q1,2*%
%TO.N,GND*%
X108062500Y-44950000D03*
%TO.P,Q1,3*%
%TO.N,PWR_LED_K*%
X109937500Y-44000000D03*
%TD*%
D35*
%TO.P,J1,1*%
%TO.N,TEMP_KTY*%
X16000000Y-66000000D03*
D18*
%TO.P,J1,2*%
%TO.N,24V_RAW*%
X16000000Y-61000000D03*
%TO.P,J1,3*%
%TO.N,GND*%
X16000000Y-56000000D03*
%TO.P,J1,4*%
%TO.N,RH_OUT*%
X16000000Y-51000000D03*
%TD*%
D17*
%TO.P,J7,1*%
%TO.N,CONTACT1_EXT*%
X126000000Y-15000000D03*
D18*
%TO.P,J7,2*%
%TO.N,GND*%
X131000000Y-15000000D03*
%TO.P,J7,3*%
%TO.N,CONTACT2_EXT*%
X136000000Y-15000000D03*
%TD*%
D39*
%TO.P,U9,1*%
%TO.N,SGP_VDD*%
X39360000Y-100700000D03*
%TO.P,U9,2*%
%TO.N,GND*%
X39360000Y-101500000D03*
%TO.P,U9,3*%
%TO.N,I2C_SDA*%
X39360000Y-102300000D03*
%TO.P,U9,4*%
%TO.N,GND*%
X41640000Y-102300000D03*
%TO.P,U9,5*%
%TO.N,AIR_3V3*%
X41640000Y-101500000D03*
%TO.P,U9,6*%
%TO.N,I2C_SCL*%
X41640000Y-100700000D03*
D40*
%TO.P,U9,7*%
%TO.N,GND*%
X40500000Y-101500000D03*
%TD*%
D12*
%TO.P,R27,1*%
%TO.N,PWR_LED_EN*%
X112175000Y-44000000D03*
%TO.P,R27,2*%
%TO.N,GND*%
X113825000Y-44000000D03*
%TD*%
D29*
%TO.P,C11,1*%
%TO.N,+3V3*%
X80225000Y-50000000D03*
%TO.P,C11,2*%
%TO.N,GND*%
X81775000Y-50000000D03*
%TD*%
D12*
%TO.P,R19,1*%
%TO.N,+3V3*%
X126175000Y-28000000D03*
%TO.P,R19,2*%
%TO.N,CONTACT2*%
X127825000Y-28000000D03*
%TD*%
D10*
%TO.P,C28,1*%
%TO.N,SYS_5V*%
X58050000Y-92500000D03*
%TO.P,C28,2*%
%TO.N,GND*%
X59950000Y-92500000D03*
%TD*%
D12*
%TO.P,R24,1*%
%TO.N,24V_PROT*%
X90175000Y-40000000D03*
%TO.P,R24,2*%
%TO.N,PWR24_LED_R*%
X91825000Y-40000000D03*
%TD*%
%TO.P,R17,1*%
%TO.N,CONTACT2_EXT*%
X123175000Y-25000000D03*
%TO.P,R17,2*%
%TO.N,CONTACT2*%
X124825000Y-25000000D03*
%TD*%
D33*
%TO.P,LED1,1*%
%TO.N,GND*%
X81212500Y-40000000D03*
%TO.P,LED1,2*%
%TO.N,STATUS_LED_R*%
X82787500Y-40000000D03*
%TD*%
D41*
%TO.P,C1,1*%
%TO.N,24V_PROT*%
X39525000Y-56000000D03*
%TO.P,C1,2*%
%TO.N,GND*%
X42475000Y-56000000D03*
%TD*%
D42*
%TO.P,C30,1*%
%TO.N,SYS_5V*%
X73750000Y-92000000D03*
%TO.P,C30,2*%
%TO.N,GND*%
X80250000Y-92000000D03*
%TD*%
D11*
%TO.P,TP9,1*%
%TO.N,RS485_A*%
X86000000Y-31000000D03*
%TD*%
D29*
%TO.P,C4,1*%
%TO.N,BOOT*%
X53225000Y-58000000D03*
%TO.P,C4,2*%
%TO.N,SW*%
X54775000Y-58000000D03*
%TD*%
D33*
%TO.P,LED2,1*%
%TO.N,PWR_LED_K*%
X94212500Y-40000000D03*
%TO.P,LED2,2*%
%TO.N,PWR24_LED_R*%
X95787500Y-40000000D03*
%TD*%
D10*
%TO.P,C17,1*%
%TO.N,VISO*%
X112050000Y-54000000D03*
%TO.P,C17,2*%
%TO.N,RS485_COM*%
X113950000Y-54000000D03*
%TD*%
D11*
%TO.P,TP6,1*%
%TO.N,I2C_SCL*%
X62000000Y-40000000D03*
%TD*%
D30*
%TO.P,SW1,1*%
%TO.N,C6_EN*%
X68300000Y-43000000D03*
%TO.P,SW1,2*%
%TO.N,GND*%
X71700000Y-43000000D03*
%TD*%
D10*
%TO.P,C29,1*%
%TO.N,AIR_3V3*%
X62050000Y-92500000D03*
%TO.P,C29,2*%
%TO.N,GND*%
X63950000Y-92500000D03*
%TD*%
D28*
%TO.P,U11,1*%
%TO.N,SYS_5V*%
X62862500Y-100050000D03*
%TO.P,U11,2*%
%TO.N,GND*%
X62862500Y-101000000D03*
%TO.P,U11,3*%
%TO.N,SYS_5V*%
X62862500Y-101950000D03*
%TO.P,U11,4*%
%TO.N,N/C*%
X65137500Y-101950000D03*
%TO.P,U11,5*%
%TO.N,AIR_3V3*%
X65137500Y-100050000D03*
%TD*%
D12*
%TO.P,R20,1*%
%TO.N,AIN_0_10_RAW*%
X123175000Y-72000000D03*
%TO.P,R20,2*%
%TO.N,AIN_DIV*%
X124825000Y-72000000D03*
%TD*%
D36*
%TO.P,R3,1*%
%TO.N,PWR_GOOD*%
X50000000Y-57825000D03*
%TO.P,R3,2*%
%TO.N,5V_BUCK*%
X50000000Y-56175000D03*
%TD*%
D10*
%TO.P,C22,1*%
%TO.N,AIR_3V3*%
X34050000Y-92500000D03*
%TO.P,C22,2*%
%TO.N,GND*%
X35950000Y-92500000D03*
%TD*%
D12*
%TO.P,R7,1*%
%TO.N,+3V3*%
X68175000Y-18000000D03*
%TO.P,R7,2*%
%TO.N,I2C_SDA*%
X69825000Y-18000000D03*
%TD*%
D43*
%TO.P,C5,1*%
%TO.N,5V_BUCK*%
X69525000Y-59000000D03*
%TO.P,C5,2*%
%TO.N,GND*%
X72475000Y-59000000D03*
%TD*%
D36*
%TO.P,R26,1*%
%TO.N,AIR_3V3*%
X38000000Y-96825000D03*
%TO.P,R26,2*%
%TO.N,SGP_VDD*%
X38000000Y-95175000D03*
%TD*%
D44*
%TO.P,TVS2,1*%
%TO.N,GND*%
X95950000Y-25000000D03*
%TO.P,TVS2,2*%
%TO.N,ONEWIRE_EXT*%
X98050000Y-25000000D03*
%TD*%
D43*
%TO.P,C6,1*%
%TO.N,5V_BUCK*%
X69525000Y-64000000D03*
%TO.P,C6,2*%
%TO.N,GND*%
X72475000Y-64000000D03*
%TD*%
D29*
%TO.P,C19,1*%
%TO.N,CONTACT1*%
X111225000Y-31000000D03*
%TO.P,C19,2*%
%TO.N,GND*%
X112775000Y-31000000D03*
%TD*%
D10*
%TO.P,C14,1*%
%TO.N,+3V3*%
X95050000Y-55500000D03*
%TO.P,C14,2*%
%TO.N,GND*%
X96950000Y-55500000D03*
%TD*%
D44*
%TO.P,TVS3,1*%
%TO.N,GND*%
X106950000Y-25000000D03*
%TO.P,TVS3,2*%
%TO.N,CONTACT1_EXT*%
X109050000Y-25000000D03*
%TD*%
D12*
%TO.P,R9,1*%
%TO.N,OPAMP_OUT*%
X95175000Y-50000000D03*
%TO.P,R9,2*%
%TO.N,OPAMP_FB*%
X96825000Y-50000000D03*
%TD*%
D38*
%TO.P,C13,1*%
%TO.N,RH_OUT*%
X102000000Y-46775000D03*
%TO.P,C13,2*%
%TO.N,GND*%
X102000000Y-45225000D03*
%TD*%
D11*
%TO.P,TP4,1*%
%TO.N,+3V3*%
X46000000Y-39000000D03*
%TD*%
D12*
%TO.P,R18,1*%
%TO.N,+3V3*%
X108175000Y-28000000D03*
%TO.P,R18,2*%
%TO.N,CONTACT1*%
X109825000Y-28000000D03*
%TD*%
%TO.P,R28,1*%
%TO.N,RELAY_CTRL*%
X93175000Y-94000000D03*
%TO.P,R28,2*%
%TO.N,RELAY_GATE*%
X94825000Y-94000000D03*
%TD*%
D10*
%TO.P,C25,1*%
%TO.N,AIR_3V3*%
X46050000Y-92500000D03*
%TO.P,C25,2*%
%TO.N,GND*%
X47950000Y-92500000D03*
%TD*%
D12*
%TO.P,R6,1*%
%TO.N,+3V3*%
X64175000Y-43000000D03*
%TO.P,R6,2*%
%TO.N,C6_EN*%
X65825000Y-43000000D03*
%TD*%
D29*
%TO.P,C9,1*%
%TO.N,C6_EN*%
X64225000Y-46000000D03*
%TO.P,C9,2*%
%TO.N,GND*%
X65775000Y-46000000D03*
%TD*%
D45*
%TO.P,TVS1,1*%
%TO.N,GND*%
X38000000Y-75150000D03*
%TO.P,TVS1,2*%
%TO.N,24V_PROT*%
X38000000Y-70850000D03*
%TD*%
D11*
%TO.P,TP10,1*%
%TO.N,RS485_B*%
X94000000Y-31000000D03*
%TD*%
D27*
%TO.P,D2,1*%
%TO.N,SYS_5V*%
X72000000Y-54000000D03*
%TO.P,D2,2*%
%TO.N,5V_BUCK*%
X76000000Y-54000000D03*
%TD*%
D12*
%TO.P,R16,1*%
%TO.N,CONTACT1_EXT*%
X111175000Y-25000000D03*
%TO.P,R16,2*%
%TO.N,CONTACT1*%
X112825000Y-25000000D03*
%TD*%
D29*
%TO.P,C20,1*%
%TO.N,CONTACT2*%
X123225000Y-31000000D03*
%TO.P,C20,2*%
%TO.N,GND*%
X124775000Y-31000000D03*
%TD*%
D46*
%TO.P,J3,A1*%
%TO.N,GND*%
X71750000Y-103155000D03*
%TO.P,J3,A4*%
%TO.N,USB_5V*%
X72550000Y-103155000D03*
D47*
%TO.P,J3,A5*%
%TO.N,USB_CC1*%
X73750000Y-103155000D03*
%TO.P,J3,A6*%
%TO.N,USB_D+*%
X74750000Y-103155000D03*
%TO.P,J3,A7*%
%TO.N,USB_D-*%
X75250000Y-103155000D03*
%TO.P,J3,A8*%
%TO.N,N/C*%
X76250000Y-103155000D03*
D46*
%TO.P,J3,A9*%
%TO.N,USB_5V*%
X77450000Y-103155000D03*
%TO.P,J3,A12*%
%TO.N,GND*%
X78250000Y-103155000D03*
%TO.P,J3,B1*%
X78250000Y-103155000D03*
%TO.P,J3,B4*%
%TO.N,USB_5V*%
X77450000Y-103155000D03*
D47*
%TO.P,J3,B5*%
%TO.N,USB_CC2*%
X76750000Y-103155000D03*
%TO.P,J3,B6*%
%TO.N,USB_D+*%
X75750000Y-103155000D03*
%TO.P,J3,B7*%
%TO.N,USB_D-*%
X74250000Y-103155000D03*
%TO.P,J3,B8*%
%TO.N,N/C*%
X73250000Y-103155000D03*
D46*
%TO.P,J3,B9*%
%TO.N,USB_5V*%
X72550000Y-103155000D03*
%TO.P,J3,B12*%
%TO.N,GND*%
X71750000Y-103155000D03*
D48*
%TO.P,J3,SH*%
X70680000Y-104070000D03*
D49*
X70680000Y-108250000D03*
D48*
X79320000Y-104070000D03*
D49*
X79320000Y-108250000D03*
%TD*%
D12*
%TO.P,R8,1*%
%TO.N,+3V3*%
X68175000Y-21000000D03*
%TO.P,R8,2*%
%TO.N,I2C_SCL*%
X69825000Y-21000000D03*
%TD*%
D10*
%TO.P,C18,1*%
%TO.N,VISO*%
X112050000Y-57000000D03*
%TO.P,C18,2*%
%TO.N,RS485_COM*%
X113950000Y-57000000D03*
%TD*%
D12*
%TO.P,R11,1*%
%TO.N,OPAMP_OUT*%
X98175000Y-46000000D03*
%TO.P,R11,2*%
%TO.N,RH_OUT*%
X99825000Y-46000000D03*
%TD*%
D50*
%TO.P,F1,1*%
%TO.N,24V_RAW*%
X26862500Y-66000000D03*
%TO.P,F1,2*%
%TO.N,24V_FUSED*%
X31137500Y-66000000D03*
%TD*%
D11*
%TO.P,TP13,1*%
%TO.N,AIR_3V3*%
X55000000Y-104000000D03*
%TD*%
D12*
%TO.P,R21,1*%
%TO.N,AIN_DIV*%
X123175000Y-75000000D03*
%TO.P,R21,2*%
%TO.N,GND*%
X124825000Y-75000000D03*
%TD*%
D51*
%TO.P,J4,1*%
%TO.N,+3V3*%
X84500000Y-104500000D03*
%TO.P,J4,2*%
%TO.N,GND*%
X85500000Y-104500000D03*
%TO.P,J4,3*%
%TO.N,I2C_SDA*%
X86500000Y-104500000D03*
%TO.P,J4,4*%
%TO.N,I2C_SCL*%
X87500000Y-104500000D03*
%TO.P,J4,5*%
%TO.N,ONEWIRE*%
X88500000Y-104500000D03*
%TO.P,J4,6*%
%TO.N,EXP_GPIO4*%
X89500000Y-104500000D03*
%TO.P,J4,7*%
%TO.N,EXP_GPIO5*%
X90500000Y-104500000D03*
%TO.P,J4,8*%
%TO.N,SYS_5V*%
X91500000Y-104500000D03*
D52*
%TO.P,J4,MP*%
%TO.N,N/C*%
X83200000Y-108375000D03*
X92800000Y-108375000D03*
%TD*%
D12*
%TO.P,R1,1*%
%TO.N,5V_BUCK*%
X54175000Y-73000000D03*
%TO.P,R1,2*%
%TO.N,BUCK_FB*%
X55825000Y-73000000D03*
%TD*%
D13*
%TO.P,D4,1*%
%TO.N,GND*%
X115062500Y-73050000D03*
%TO.P,D4,2*%
%TO.N,+3V3*%
X115062500Y-74950000D03*
%TO.P,D4,3*%
%TO.N,ADC_0_10*%
X116937500Y-74000000D03*
%TD*%
D28*
%TO.P,U5,1*%
%TO.N,DAC_RAW*%
X81862500Y-45050000D03*
%TO.P,U5,2*%
%TO.N,GND*%
X81862500Y-46000000D03*
%TO.P,U5,3*%
%TO.N,+3V3*%
X81862500Y-46950000D03*
%TO.P,U5,4*%
%TO.N,I2C_SDA*%
X84137500Y-46950000D03*
%TO.P,U5,5*%
%TO.N,I2C_SCL*%
X84137500Y-46000000D03*
%TO.P,U5,6*%
%TO.N,GND*%
X84137500Y-45050000D03*
%TD*%
D44*
%TO.P,TVS4,1*%
%TO.N,GND*%
X126950000Y-25000000D03*
%TO.P,TVS4,2*%
%TO.N,CONTACT2_EXT*%
X129050000Y-25000000D03*
%TD*%
D11*
%TO.P,TP11,1*%
%TO.N,RS485_COM*%
X102000000Y-31000000D03*
%TD*%
D17*
%TO.P,J5,1*%
%TO.N,+3V3*%
X84000000Y-15000000D03*
D18*
%TO.P,J5,2*%
%TO.N,ONEWIRE_EXT*%
X89000000Y-15000000D03*
%TO.P,J5,3*%
%TO.N,GND*%
X94000000Y-15000000D03*
%TD*%
D12*
%TO.P,R14,1*%
%TO.N,ONEWIRE*%
X86175000Y-25000000D03*
%TO.P,R14,2*%
%TO.N,ONEWIRE_EXT*%
X87825000Y-25000000D03*
%TD*%
%TO.P,R29,1*%
%TO.N,RELAY_GATE*%
X93175000Y-98000000D03*
%TO.P,R29,2*%
%TO.N,GND*%
X94825000Y-98000000D03*
%TD*%
D26*
%TO.P,D5,1*%
%TO.N,SYS_5V*%
X101000000Y-100050000D03*
%TO.P,D5,2*%
%TO.N,RELAY_COIL_L*%
X101000000Y-97950000D03*
%TD*%
D12*
%TO.P,R10,1*%
%TO.N,OPAMP_FB*%
X90175000Y-52000000D03*
%TO.P,R10,2*%
%TO.N,GND*%
X91825000Y-52000000D03*
%TD*%
D53*
%TO.P,U7,1*%
%TO.N,+3V3*%
X100350000Y-55555000D03*
%TO.P,U7,2*%
%TO.N,GND*%
X100350000Y-56825000D03*
%TO.P,U7,3*%
%TO.N,RS485_RX*%
X100350000Y-58095000D03*
%TO.P,U7,4*%
%TO.N,RS485_DE*%
X100350000Y-59365000D03*
%TO.P,U7,5*%
X100350000Y-60635000D03*
%TO.P,U7,6*%
%TO.N,RS485_TX*%
X100350000Y-61905000D03*
%TO.P,U7,7*%
%TO.N,N/C*%
X100350000Y-63175000D03*
%TO.P,U7,8*%
%TO.N,GND*%
X100350000Y-64445000D03*
%TO.P,U7,9*%
%TO.N,RS485_COM*%
X109650000Y-64445000D03*
%TO.P,U7,10*%
X109650000Y-63175000D03*
%TO.P,U7,11*%
%TO.N,N/C*%
X109650000Y-61905000D03*
%TO.P,U7,12*%
%TO.N,RS485_A*%
X109650000Y-60635000D03*
%TO.P,U7,13*%
%TO.N,RS485_B*%
X109650000Y-59365000D03*
%TO.P,U7,14*%
%TO.N,N/C*%
X109650000Y-58095000D03*
%TO.P,U7,15*%
%TO.N,RS485_COM*%
X109650000Y-56825000D03*
%TO.P,U7,16*%
%TO.N,VISO*%
X109650000Y-55555000D03*
%TD*%
D30*
%TO.P,SW4,1*%
%TO.N,SERVICE_BUTTON*%
X85300000Y-100000000D03*
%TO.P,SW4,2*%
%TO.N,GND*%
X88700000Y-100000000D03*
%TD*%
D28*
%TO.P,U2,1*%
%TO.N,SYS_5V*%
X78862500Y-63050000D03*
%TO.P,U2,2*%
%TO.N,GND*%
X78862500Y-64000000D03*
%TO.P,U2,3*%
%TO.N,SYS_5V*%
X78862500Y-64950000D03*
%TO.P,U2,4*%
%TO.N,N/C*%
X81137500Y-64950000D03*
%TO.P,U2,5*%
%TO.N,+3V3*%
X81137500Y-63050000D03*
%TD*%
%TO.P,ESD1,1*%
%TO.N,USB_D-*%
X73862500Y-67050000D03*
%TO.P,ESD1,2*%
%TO.N,GND*%
X73862500Y-68000000D03*
%TO.P,ESD1,3*%
%TO.N,USB_D+*%
X73862500Y-68950000D03*
%TO.P,ESD1,4*%
X76137500Y-68950000D03*
%TO.P,ESD1,5*%
%TO.N,USB_5V*%
X76137500Y-68000000D03*
%TO.P,ESD1,6*%
%TO.N,USB_D-*%
X76137500Y-67050000D03*
%TD*%
D10*
%TO.P,C8,1*%
%TO.N,+3V3*%
X83050000Y-59000000D03*
%TO.P,C8,2*%
%TO.N,GND*%
X84950000Y-59000000D03*
%TD*%
D54*
%TO.P,L1,1*%
%TO.N,SW*%
X56850000Y-65000000D03*
%TO.P,L1,2*%
%TO.N,5V_BUCK*%
X65150000Y-65000000D03*
%TD*%
D55*
%TO.P,RTH1,1*%
%TO.N,TEMP_KTY*%
X27000000Y-46000000D03*
D56*
%TO.P,RTH1,2*%
%TO.N,GND*%
X28270000Y-46000000D03*
%TO.P,RTH1,3*%
%TO.N,N/C*%
X29540000Y-46000000D03*
%TD*%
D36*
%TO.P,R5,1*%
%TO.N,USB_CC2*%
X70500000Y-67825000D03*
%TO.P,R5,2*%
%TO.N,GND*%
X70500000Y-66175000D03*
%TD*%
D57*
%TO.P,U4,1*%
%TO.N,I2C_SDA*%
X73300000Y-19600000D03*
%TO.P,U4,2*%
%TO.N,I2C_SCL*%
X73300000Y-20400000D03*
%TO.P,U4,3*%
%TO.N,+3V3*%
X74700000Y-20400000D03*
%TO.P,U4,4*%
%TO.N,GND*%
X74700000Y-19600000D03*
%TD*%
D58*
%TO.N,AIR_3V3*%
X47143600Y-91406400D03*
X64218800Y-99372500D03*
X61146300Y-91596300D03*
X29470800Y-94227500D03*
X27750000Y-106273000D03*
%TO.N,GND*%
X72680700Y-68349200D03*
X80602800Y-39059900D03*
X127764200Y-76208300D03*
X95467500Y-24288700D03*
X101914400Y-64419900D03*
X61000000Y-92560300D03*
X38811900Y-91406400D03*
X92367600Y-51031300D03*
X97983200Y-52631500D03*
X47514100Y-17707400D03*
D59*
X77400000Y-18400000D03*
D58*
X124018000Y-30243000D03*
X46960400Y-52631500D03*
X44862500Y-93412400D03*
X67488300Y-46217300D03*
X65004100Y-17722400D03*
X61684700Y-100650800D03*
X76845400Y-57940500D03*
X26500000Y-106290400D03*
X82514800Y-90944900D03*
X113534900Y-30240100D03*
X85500000Y-102448300D03*
X80496100Y-45947700D03*
X100875000Y-45224000D03*
X102453900Y-39241400D03*
X127540400Y-25590400D03*
X107568200Y-25618200D03*
X38811900Y-88797100D03*
X43710100Y-101500000D03*
X46982500Y-100344400D03*
X56561200Y-76736200D03*
X36332900Y-76208300D03*
%TO.N,24V_PROT*%
X89266700Y-40000000D03*
X37755700Y-67755600D03*
X40970600Y-53000000D03*
%TO.N,+3V3*%
X107425800Y-27250800D03*
X82565100Y-102561900D03*
X67244300Y-18170100D03*
X90435700Y-24260700D03*
D59*
X77400000Y-21600000D03*
D58*
X81137500Y-61296900D03*
X63434200Y-43740800D03*
X125423100Y-28751900D03*
X94013300Y-52631500D03*
X47504100Y-18765000D03*
X114236700Y-75775800D03*
X101913800Y-55578600D03*
X80692000Y-47205400D03*
%TO.N,I2C_SCL*%
X45808800Y-102946600D03*
X47887900Y-25185700D03*
D59*
X70600000Y-21600000D03*
D58*
X30467500Y-106269200D03*
X85304300Y-46329500D03*
X87500000Y-105792000D03*
X41424600Y-99958900D03*
%TO.N,I2C_SDA*%
X84137500Y-47754700D03*
X86500000Y-103213300D03*
X47505700Y-23845000D03*
X39580900Y-103046600D03*
D59*
X70600000Y-18400000D03*
D58*
X47447500Y-101250200D03*
%TO.N,SYS_5V*%
X60360900Y-73639100D03*
X73360600Y-52639400D03*
X64592400Y-100854600D03*
X57194700Y-91549800D03*
X76517900Y-61472800D03*
X71487300Y-90943800D03*
X97193500Y-100050000D03*
%TO.N,PWR_GOOD*%
X45012100Y-66905000D03*
X49224000Y-58525700D03*
%TO.N,VCC_BYP*%
X53832700Y-66304800D03*
X46910500Y-71032700D03*
%TO.N,BOOT*%
X53013700Y-64506400D03*
X53225000Y-58978600D03*
%TO.N,SGP_VDD*%
X41397700Y-94345200D03*
X39141100Y-99955400D03*
%TO.N,RS485_A*%
X112122100Y-61304200D03*
%TO.N,C6_EN*%
X47505700Y-20035000D03*
X65825000Y-41993100D03*
%TO.N,EXP_GPIO4*%
X47505700Y-21305000D03*
X89500000Y-103196900D03*
%TO.N,EXP_GPIO5*%
X90500000Y-103222600D03*
X47505700Y-22575000D03*
%TO.N,ADC_0_10*%
X115670700Y-74000000D03*
X120090000Y-71265000D03*
X69004100Y-65431200D03*
X47887900Y-26385000D03*
%TO.N,USB_D-*%
X76946100Y-69912100D03*
X47504100Y-32735000D03*
X76551600Y-100754300D03*
%TO.N,USB_D+*%
X75548400Y-101925700D03*
X44991800Y-34005000D03*
X76137500Y-69787900D03*
%TO.N,C6_BOOT*%
X74346400Y-43000000D03*
X65008200Y-34005000D03*
%TO.N,CONTACT1*%
X65004100Y-32507600D03*
X93760700Y-35319900D03*
X109825000Y-29552000D03*
%TO.N,CONTACT2*%
X65004100Y-31237600D03*
X115106300Y-28802800D03*
%TO.N,SERVICE_BUTTON*%
X79316800Y-99080800D03*
X65004100Y-30195000D03*
%TO.N,BUS_LED*%
X98493900Y-39196400D03*
X65014700Y-27655000D03*
%TO.N,ONEWIRE*%
X65009800Y-26383400D03*
X85437300Y-25737700D03*
X88500000Y-103222600D03*
%TO.N,RS485_RX*%
X98806300Y-58524500D03*
X65002500Y-22575000D03*
%TO.N,RS485_TX*%
X65004100Y-21305000D03*
X98811100Y-61472800D03*
%TO.N,RELAY_CTRL*%
X65004100Y-20262400D03*
X92434800Y-93259800D03*
%TO.N,RS485_DE*%
X98818500Y-59365000D03*
X61684300Y-19284800D03*
%TO.N,RH_OUT*%
X99084800Y-46740200D03*
%TO.N,24V_RAW*%
X25776200Y-64913700D03*
%TO.N,24V_FUSED*%
X38642100Y-64642100D03*
X32215500Y-65502300D03*
%TO.N,USB_5V*%
X64357200Y-76357200D03*
X77310400Y-67650800D03*
X72550000Y-101925400D03*
X77554700Y-101911800D03*
%TO.N,DAC_RAW*%
X82800200Y-44112400D03*
X89697700Y-46737300D03*
%TO.N,OPAMP_FB*%
X94684900Y-48665900D03*
X90175000Y-51012600D03*
%TO.N,RS485_B*%
X122902900Y-59190000D03*
%TO.N,RS485_COM*%
X114968600Y-53742400D03*
X111204500Y-64419900D03*
%TO.N,USB_CC1*%
X73750000Y-104382300D03*
X68772600Y-68525100D03*
%TO.N,PWR_LED_K*%
X108680400Y-44000000D03*
X94965900Y-39246600D03*
%TO.N,CONTACT1_EXT*%
X111175000Y-24010900D03*
%TO.N,CONTACT2_EXT*%
X128647900Y-24268200D03*
%TO.N,5V_BUCK*%
X50872700Y-55578600D03*
X54175000Y-72011600D03*
X68160900Y-63692300D03*
X74480200Y-55362700D03*
%TO.N,USB_CC2*%
X76750000Y-101922700D03*
X71236200Y-68561200D03*
%TD*%
%TO.N,AIR_3V3*%
D60*
X27750000Y-97000000D02*
X27750000Y-95948300D01*
X48956400Y-91406400D02*
X47143600Y-91406400D01*
X42234200Y-99890200D02*
X42234200Y-100268300D01*
X35080400Y-93530400D02*
X37019600Y-93530400D01*
D61*
X45770000Y-101950200D02*
X45696500Y-101950200D01*
D60*
X46250000Y-101470200D02*
X45770000Y-101950200D01*
X38000000Y-96825000D02*
X39169000Y-96825000D01*
X61146300Y-91596300D02*
X62050000Y-92500000D01*
X41640000Y-101500000D02*
X42234200Y-101500000D01*
D61*
X45220000Y-102000000D02*
X45646700Y-102000000D01*
D60*
X31198300Y-92500000D02*
X29470800Y-94227500D01*
X42234200Y-100268300D02*
X46250000Y-100268300D01*
X34050000Y-92500000D02*
X35080400Y-93530400D01*
X42234200Y-100268300D02*
X42234200Y-101500000D01*
X46250000Y-100720000D02*
X46250000Y-100268300D01*
X45750000Y-102280000D02*
X45298300Y-102280000D01*
X50050000Y-92500000D02*
X48956400Y-91406400D01*
D61*
X45696500Y-101950200D02*
X45646700Y-102000000D01*
D60*
X53013100Y-93536900D02*
X51086900Y-93536900D01*
X34050000Y-92500000D02*
X31198300Y-92500000D01*
X46250000Y-100720000D02*
X46250000Y-101470200D01*
X54050000Y-92500000D02*
X53013100Y-93536900D01*
X47143600Y-91406400D02*
X46050000Y-92500000D01*
X64896300Y-100050000D02*
X65137500Y-100050000D01*
X27750000Y-106273000D02*
X27750000Y-105000000D01*
X38000000Y-96825000D02*
X37019600Y-95844600D01*
X29470800Y-94227500D02*
X27750000Y-95948300D01*
X37019600Y-95844600D02*
X37019600Y-93530400D01*
X39169000Y-96825000D02*
X42234200Y-99890200D01*
X45298300Y-102280000D02*
X45298300Y-102078300D01*
X37019600Y-93530400D02*
X38050000Y-92500000D01*
X64218800Y-99372500D02*
X64896300Y-100050000D01*
X45298300Y-102078300D02*
X45220000Y-102000000D01*
X51086900Y-93536900D02*
X50050000Y-92500000D01*
%TO.N,GND*%
X48400000Y-64400000D02*
X49000000Y-65000000D01*
X29000000Y-101000000D02*
X29000000Y-98298300D01*
X70680000Y-104070000D02*
X70680000Y-102718300D01*
X54887400Y-91437400D02*
X53012600Y-91437400D01*
X37043600Y-91406400D02*
X38811900Y-91406400D01*
D61*
X40500000Y-102024200D02*
X40795000Y-102024200D01*
D60*
X46250000Y-17495000D02*
X47301700Y-17495000D01*
X94825000Y-98000000D02*
X95012500Y-98000000D01*
X72475000Y-59000000D02*
X73534500Y-57940500D01*
X102000000Y-45225000D02*
X102000000Y-45224000D01*
X91825000Y-51573900D02*
X91825000Y-52000000D01*
X46318500Y-52631500D02*
X45950000Y-53000000D01*
X82831000Y-45604600D02*
X82831000Y-46000000D01*
X118825000Y-73050000D02*
X115062500Y-73050000D01*
X70592200Y-66175000D02*
X70500000Y-66175000D01*
X120775000Y-75000000D02*
X118825000Y-73050000D01*
X81862500Y-46000000D02*
X82831000Y-46000000D01*
X67488300Y-46000000D02*
X65775000Y-46000000D01*
X46903800Y-93546200D02*
X44996300Y-93546200D01*
X46300000Y-63095000D02*
X47376700Y-63095000D01*
D61*
X83788300Y-45399200D02*
X84137500Y-45050000D01*
D60*
X58904900Y-93545100D02*
X56995100Y-93545100D01*
X42950000Y-56000000D02*
X45950000Y-53000000D01*
X78700000Y-44151700D02*
X80496000Y-45947700D01*
X77950000Y-59000000D02*
X79034800Y-57915200D01*
X127540400Y-25590400D02*
X126950000Y-25000000D01*
X40500000Y-101500000D02*
X40500000Y-102024200D01*
D61*
X72680700Y-68349200D02*
X73513300Y-68349200D01*
D60*
X48400000Y-66800000D02*
X48400000Y-71550000D01*
X42751100Y-102300000D02*
X43501300Y-101549800D01*
X96950000Y-55500000D02*
X96950000Y-52500000D01*
X70500000Y-66175000D02*
X68000000Y-66175000D01*
D61*
X41640000Y-102300000D02*
X41070800Y-102300000D01*
D60*
X89807600Y-46000000D02*
X90862500Y-46000000D01*
X70592200Y-65882800D02*
X72475000Y-64000000D01*
X46780000Y-101000000D02*
X46982500Y-100797500D01*
X92825000Y-100000000D02*
X94825000Y-98000000D01*
X83036400Y-45399200D02*
X82831000Y-45604600D01*
X97081500Y-52631500D02*
X96950000Y-52500000D01*
X127764200Y-76208300D02*
X127158300Y-76208300D01*
X72475000Y-64000000D02*
X78862500Y-64000000D01*
X47481700Y-63200000D02*
X47376700Y-63095000D01*
X78700000Y-48000000D02*
X78700000Y-43000000D01*
X76890500Y-57940500D02*
X77950000Y-59000000D01*
X82831000Y-46000000D02*
X82831000Y-48944000D01*
X80602800Y-39059900D02*
X81212500Y-39669600D01*
X88700000Y-100000000D02*
X92825000Y-100000000D01*
X38856400Y-91406400D02*
X39950000Y-92500000D01*
X79320000Y-104070000D02*
X79320000Y-102718300D01*
X121587900Y-75812900D02*
X120775000Y-75000000D01*
D61*
X83036400Y-45399200D02*
X83788300Y-45399200D01*
D60*
X47950000Y-92500000D02*
X46903800Y-93546200D01*
X26746600Y-103701700D02*
X26500000Y-103948300D01*
X67488300Y-46000000D02*
X67488300Y-46217300D01*
X70592200Y-66175000D02*
X70592200Y-65882800D01*
X85500000Y-102448300D02*
X85500000Y-104500000D01*
D61*
X99680800Y-56155800D02*
X100350000Y-56825000D01*
D60*
X70680000Y-102718300D02*
X71313300Y-102718300D01*
X83865200Y-57915200D02*
X84950000Y-59000000D01*
X61000000Y-93048200D02*
X61000000Y-92560300D01*
X88857600Y-45050000D02*
X89807600Y-46000000D01*
X26500000Y-97000000D02*
X26500000Y-98051700D01*
X88700000Y-100000000D02*
X87948300Y-100000000D01*
D61*
X63750000Y-17495000D02*
X64776700Y-17495000D01*
X40795000Y-102024200D02*
X41070800Y-102300000D01*
X48053900Y-101950200D02*
X47256500Y-101950200D01*
D60*
X63950000Y-92500000D02*
X62912400Y-93537600D01*
D61*
X45220000Y-101500000D02*
X44793300Y-101500000D01*
D60*
X55950000Y-92500000D02*
X54887400Y-91437400D01*
D61*
X97511100Y-56155800D02*
X99680800Y-56155800D01*
D60*
X56561200Y-76736200D02*
X55825000Y-76000000D01*
X48400000Y-71550000D02*
X47950000Y-72000000D01*
X29000000Y-103701700D02*
X26746600Y-103701700D01*
X80250000Y-92000000D02*
X81305100Y-90944900D01*
X46982500Y-100646400D02*
X47786100Y-100646400D01*
X42475000Y-56000000D02*
X42950000Y-56000000D01*
X97983200Y-52631500D02*
X97081500Y-52631500D01*
X112875000Y-44950000D02*
X113825000Y-44000000D01*
X26500000Y-105000000D02*
X26500000Y-103948300D01*
X38811900Y-91406400D02*
X38856400Y-91406400D01*
D61*
X43710100Y-101500000D02*
X44793300Y-101500000D01*
D60*
X61489400Y-93537600D02*
X61000000Y-93048200D01*
X43710100Y-101500000D02*
X43710100Y-101549800D01*
X80548400Y-46000000D02*
X81862500Y-46000000D01*
X72680700Y-68349200D02*
X70592200Y-66260700D01*
X46960400Y-52631500D02*
X46318500Y-52631500D01*
D61*
X97999000Y-45224000D02*
X94775000Y-42000000D01*
D60*
X79320000Y-102718300D02*
X78686700Y-102718300D01*
X124825000Y-75812900D02*
X124825000Y-75000000D01*
X29000000Y-101000000D02*
X29000000Y-103701700D01*
D61*
X43501300Y-101549800D02*
X43710100Y-101549800D01*
D60*
X29000000Y-98298300D02*
X26746600Y-98298300D01*
X95467500Y-24288700D02*
X95950000Y-24771200D01*
X79034800Y-57915200D02*
X83865200Y-57915200D01*
X47301700Y-17495000D02*
X47514100Y-17707400D01*
X127000000Y-76050000D02*
X125062100Y-76050000D01*
X102453900Y-39241400D02*
X103212500Y-40000000D01*
X107568200Y-25618200D02*
X106950000Y-25000000D01*
X36941700Y-76208300D02*
X38000000Y-75150000D01*
X84137500Y-45050000D02*
X88857600Y-45050000D01*
X101914400Y-64419900D02*
X100375100Y-64419900D01*
X80496100Y-45947700D02*
X80548400Y-46000000D01*
X70948300Y-43000000D02*
X67948300Y-46000000D01*
X71700000Y-43000000D02*
X70948300Y-43000000D01*
X41640000Y-102300000D02*
X42751100Y-102300000D01*
X36332900Y-76208300D02*
X36941700Y-76208300D01*
X80496000Y-45947700D02*
X80496100Y-45947700D01*
D61*
X65004100Y-17722400D02*
X64776700Y-17495000D01*
D60*
X26746600Y-98298300D02*
X26500000Y-98051700D01*
X35950000Y-92500000D02*
X37043600Y-91406400D01*
X70592200Y-66260700D02*
X70592200Y-66175000D01*
X95950000Y-24771200D02*
X95950000Y-25000000D01*
X45220000Y-101500000D02*
X45220000Y-101000000D01*
X78700000Y-43000000D02*
X78700000Y-44151700D01*
X67948300Y-46000000D02*
X67488300Y-46000000D01*
X43950000Y-92500000D02*
X44862400Y-93412400D01*
X40500000Y-101500000D02*
X39360000Y-101500000D01*
D61*
X47256500Y-101950200D02*
X47206700Y-102000000D01*
X46780000Y-102000000D02*
X47206700Y-102000000D01*
D60*
X71700000Y-43000000D02*
X71700000Y-48000000D01*
X48053900Y-100914200D02*
X48053900Y-101950200D01*
X59950000Y-92500000D02*
X60010300Y-92560300D01*
X113534900Y-30240100D02*
X112775000Y-31000000D01*
X62912400Y-93537600D02*
X61489400Y-93537600D01*
X48400000Y-63200000D02*
X47481700Y-63200000D01*
D61*
X102000000Y-45224000D02*
X100875000Y-45224000D01*
D60*
X26500000Y-106290400D02*
X26500000Y-105000000D01*
X73534500Y-57940500D02*
X76845400Y-57940500D01*
X44862400Y-93412400D02*
X44862500Y-93412400D01*
X47786100Y-100646400D02*
X48053900Y-100914200D01*
X44996300Y-93546200D02*
X44862500Y-93412400D01*
X59950000Y-92500000D02*
X58904900Y-93545100D01*
X81305100Y-90944900D02*
X82514800Y-90944900D01*
X87948300Y-100000000D02*
X85500000Y-102448300D01*
X71700000Y-48000000D02*
X78700000Y-48000000D01*
D61*
X62513300Y-100650800D02*
X62862500Y-101000000D01*
D60*
X92367600Y-51031300D02*
X91825000Y-51573900D01*
X56995100Y-93545100D02*
X55950000Y-92500000D01*
X97511100Y-56061100D02*
X97511100Y-56155800D01*
X53012600Y-91437400D02*
X51950000Y-92500000D01*
X127158300Y-76208300D02*
X127000000Y-76050000D01*
D61*
X61684700Y-100650800D02*
X62513300Y-100650800D01*
D60*
X76200000Y-19600000D02*
X77400000Y-18400000D01*
X46982500Y-100797500D02*
X46982500Y-100646400D01*
X46982500Y-100646400D02*
X46982500Y-100344400D01*
X76845400Y-57940500D02*
X76890500Y-57940500D01*
X78686700Y-102718300D02*
X78250000Y-103155000D01*
X60010300Y-92560300D02*
X61000000Y-92560300D01*
D61*
X100875000Y-45224000D02*
X97999000Y-45224000D01*
D60*
X74700000Y-19600000D02*
X76200000Y-19600000D01*
D61*
X73513300Y-68349200D02*
X73862500Y-68000000D01*
D60*
X82831000Y-48944000D02*
X81775000Y-50000000D01*
X102275000Y-44950000D02*
X102000000Y-45225000D01*
X125062100Y-76050000D02*
X124825000Y-75812900D01*
X124825000Y-75812900D02*
X121587900Y-75812900D01*
X108062500Y-44950000D02*
X112875000Y-44950000D01*
X100375100Y-64419900D02*
X100350000Y-64445000D01*
X81212500Y-39669600D02*
X81212500Y-40000000D01*
X108062500Y-44950000D02*
X102275000Y-44950000D01*
X124775000Y-31000000D02*
X124018000Y-30243000D01*
X95012500Y-98000000D02*
X98062500Y-94950000D01*
X96950000Y-55500000D02*
X97511100Y-56061100D01*
X71313300Y-102718300D02*
X71750000Y-103155000D01*
X78000000Y-19225000D02*
X77400000Y-18400000D01*
%TO.N,24V_PROT*%
X37755700Y-67755600D02*
X36000000Y-66000000D01*
X39525000Y-56000000D02*
X39525000Y-54348800D01*
X93225000Y-42000000D02*
X93225000Y-42718900D01*
X93137500Y-42806400D02*
X93137500Y-45050000D01*
X46300000Y-65635000D02*
X43215000Y-65635000D01*
D61*
X40970600Y-53000000D02*
X44050000Y-53000000D01*
D60*
X92768900Y-42806400D02*
X90175000Y-40212500D01*
X40970600Y-53000000D02*
X40970600Y-54348800D01*
X46300000Y-65635000D02*
X46300000Y-64365000D01*
X93137500Y-42806400D02*
X92768900Y-42806400D01*
X43215000Y-65635000D02*
X39425000Y-69425000D01*
X39425000Y-69425000D02*
X37755700Y-67755600D01*
D61*
X39525000Y-54348800D02*
X40970600Y-54348800D01*
D60*
X89266700Y-40000000D02*
X90175000Y-40000000D01*
X93225000Y-42718900D02*
X93137500Y-42806400D01*
X90175000Y-40212500D02*
X90175000Y-40000000D01*
X38000000Y-70850000D02*
X39425000Y-69425000D01*
%TO.N,+3V3*%
X114236700Y-75775800D02*
X115062500Y-74950000D01*
X82565100Y-102565100D02*
X82565100Y-102563500D01*
X84500000Y-104500000D02*
X82565100Y-102565100D01*
X63434200Y-43740800D02*
X64175000Y-43000000D01*
X81149600Y-47662900D02*
X81862500Y-46950000D01*
X125423100Y-28751900D02*
X126175000Y-28000000D01*
X81137500Y-61296900D02*
X81137500Y-63050000D01*
X94013300Y-52631500D02*
X94918500Y-52631500D01*
X82565100Y-102563500D02*
X82565100Y-102561900D01*
X90435700Y-24260700D02*
X91175000Y-25000000D01*
X81175000Y-100000000D02*
X81175000Y-101173400D01*
X68175000Y-21000000D02*
X68175000Y-18000000D01*
X80225000Y-48587500D02*
X81149600Y-47662900D01*
X101913800Y-55578600D02*
X100373600Y-55578600D01*
X81175000Y-101173400D02*
X82565100Y-102563500D01*
X107425800Y-27250800D02*
X108175000Y-28000000D01*
X76200000Y-20400000D02*
X77400000Y-21600000D01*
X67244300Y-18170000D02*
X67244300Y-18170100D01*
X78000000Y-20775000D02*
X77400000Y-21375000D01*
X81137500Y-60912500D02*
X81137500Y-61296900D01*
X74700000Y-20400000D02*
X76200000Y-20400000D01*
X80692000Y-47205400D02*
X81149600Y-47662900D01*
X68175000Y-18000000D02*
X68005000Y-18170000D01*
X68005000Y-18170000D02*
X67244300Y-18170000D01*
D61*
X47276700Y-18765000D02*
X47504100Y-18765000D01*
D60*
X100373600Y-55578600D02*
X100350000Y-55555000D01*
X95050000Y-55500000D02*
X95050000Y-52500000D01*
D61*
X46250000Y-18765000D02*
X47276700Y-18765000D01*
D60*
X83050000Y-59000000D02*
X81137500Y-60912500D01*
X80225000Y-50000000D02*
X80225000Y-48587500D01*
X77400000Y-21375000D02*
X77400000Y-21600000D01*
X94918500Y-52631500D02*
X95050000Y-52500000D01*
%TO.N,ONEWIRE_EXT*%
X92825000Y-25565200D02*
X97484800Y-25565200D01*
X87825000Y-16175000D02*
X87825000Y-25000000D01*
X88630000Y-25805000D02*
X92585200Y-25805000D01*
X97484800Y-25565200D02*
X98050000Y-25000000D01*
X92825000Y-25565200D02*
X92825000Y-25000000D01*
X87825000Y-25000000D02*
X88630000Y-25805000D01*
X89000000Y-15000000D02*
X87825000Y-16175000D01*
X92585200Y-25805000D02*
X92825000Y-25565200D01*
%TO.N,BUCK_FB*%
X52776700Y-66905000D02*
X55825000Y-69953300D01*
X55825000Y-69953300D02*
X55825000Y-73000000D01*
X51700000Y-66905000D02*
X52776700Y-66905000D01*
X55825000Y-73000000D02*
X55825000Y-74350000D01*
X55825000Y-74350000D02*
X54175000Y-76000000D01*
%TO.N,RELAY_GATE*%
X94825000Y-96350000D02*
X94825000Y-94000000D01*
X93175000Y-98000000D02*
X94825000Y-96350000D01*
X97112500Y-94000000D02*
X98062500Y-93050000D01*
X94825000Y-94000000D02*
X97112500Y-94000000D01*
%TO.N,RELAY_COIL_L*%
X99937500Y-96887500D02*
X99937500Y-94000000D01*
X104190000Y-99540000D02*
X102600000Y-97950000D01*
X101000000Y-97950000D02*
X99937500Y-96887500D01*
X102600000Y-97950000D02*
X101000000Y-97950000D01*
%TO.N,I2C_SCL*%
X47817200Y-25115000D02*
X47887900Y-25185700D01*
X45808800Y-102946600D02*
X45850200Y-102905200D01*
D61*
X84467000Y-46329500D02*
X85304300Y-46329500D01*
D60*
X73300000Y-20400000D02*
X71800000Y-20400000D01*
X87500000Y-104500000D02*
X87500000Y-105792000D01*
D61*
X84137500Y-46000000D02*
X84467000Y-46329500D01*
X45850200Y-102905200D02*
X46250000Y-102505400D01*
D60*
X69825000Y-21000000D02*
X70000000Y-21000000D01*
X41640000Y-100700000D02*
X41640000Y-100174300D01*
X71800000Y-20400000D02*
X70600000Y-21600000D01*
X46250000Y-102305200D02*
X46250000Y-102280000D01*
X41424600Y-99958900D02*
X41640000Y-100174300D01*
X46250000Y-25115000D02*
X47817200Y-25115000D01*
X70000000Y-21000000D02*
X70600000Y-21600000D01*
D61*
X46250000Y-102505400D02*
X46250000Y-102305200D01*
D60*
X30467500Y-106269200D02*
X30250000Y-106051700D01*
X30250000Y-105000000D02*
X30250000Y-106051700D01*
%TO.N,I2C_SDA*%
D61*
X32299800Y-104200200D02*
X31500000Y-105000000D01*
X47231700Y-101250200D02*
X47206700Y-101275200D01*
X34924800Y-104200200D02*
X32299800Y-104200200D01*
X47276700Y-23845000D02*
X47505700Y-23845000D01*
D60*
X39360000Y-102825700D02*
X39580900Y-103046600D01*
X69825000Y-18000000D02*
X70200000Y-18000000D01*
D61*
X46250000Y-23845000D02*
X47276700Y-23845000D01*
D60*
X73300000Y-19600000D02*
X71800000Y-19600000D01*
X39360000Y-102300000D02*
X36825000Y-102300000D01*
D61*
X46780000Y-101500000D02*
X47206700Y-101500000D01*
D60*
X47447500Y-101250200D02*
X47231700Y-101250200D01*
X71800000Y-19600000D02*
X70600000Y-18400000D01*
D61*
X47206700Y-101275200D02*
X47206700Y-101500000D01*
D60*
X39360000Y-102300000D02*
X39360000Y-102825700D01*
X84137500Y-47754700D02*
X84137500Y-46950000D01*
X86500000Y-104500000D02*
X86500000Y-103213300D01*
X36825000Y-102300000D02*
X34924800Y-104200200D01*
X70200000Y-18000000D02*
X70600000Y-18400000D01*
%TO.N,SYS_5V*%
X79271300Y-63050000D02*
X79877100Y-63655800D01*
X64487400Y-100700000D02*
X64487400Y-100749600D01*
X63061600Y-100249100D02*
X64036600Y-100249100D01*
D61*
X63211700Y-101600800D02*
X62862500Y-101950000D01*
D60*
X73750000Y-92000000D02*
X72693800Y-90943800D01*
D61*
X64036600Y-100249200D02*
X64487400Y-100700000D01*
D60*
X78862500Y-63050000D02*
X78095100Y-63050000D01*
X101000000Y-100050000D02*
X97193500Y-100050000D01*
X64036600Y-100249100D02*
X64036600Y-100249200D01*
X95950000Y-100050000D02*
X91500000Y-104500000D01*
X97193500Y-100050000D02*
X95950000Y-100050000D01*
D61*
X79877100Y-64600800D02*
X79211700Y-64600800D01*
D60*
X60360900Y-73639100D02*
X59000000Y-75000000D01*
X79877100Y-63655800D02*
X79877100Y-64600800D01*
X72693800Y-90943800D02*
X71487300Y-90943800D01*
X64592400Y-100854600D02*
X64487400Y-100749600D01*
D61*
X63636200Y-101600800D02*
X63211700Y-101600800D01*
D60*
X78095100Y-63050000D02*
X76517900Y-61472800D01*
X76050000Y-61004900D02*
X76517900Y-61472800D01*
X76050000Y-59000000D02*
X76050000Y-61004900D01*
X57194700Y-91549800D02*
X58050000Y-92405100D01*
X73360600Y-52639400D02*
X72000000Y-54000000D01*
X64487400Y-100749600D02*
X63636200Y-101600800D01*
X62862500Y-100050000D02*
X63061600Y-100249100D01*
X58050000Y-92405100D02*
X58050000Y-92500000D01*
X78862500Y-63050000D02*
X79271300Y-63050000D01*
D61*
X79211700Y-64600800D02*
X78862500Y-64950000D01*
%TO.N,PWR_GOOD*%
D60*
X46300000Y-66905000D02*
X45223300Y-66905000D01*
X49299300Y-58525700D02*
X50000000Y-57825000D01*
X45223300Y-66905000D02*
X45012100Y-66905000D01*
X49224000Y-58525700D02*
X49299300Y-58525700D01*
%TO.N,VCC_BYP*%
X46050000Y-71893200D02*
X46050000Y-72000000D01*
D61*
X53832700Y-66304800D02*
X53421500Y-66304800D01*
X51700000Y-65635000D02*
X52751700Y-65635000D01*
D60*
X46910500Y-71032700D02*
X46050000Y-71893200D01*
D61*
X53421500Y-66304800D02*
X52751700Y-65635000D01*
%TO.N,BOOT*%
D60*
X53013700Y-64506400D02*
X52918100Y-64506400D01*
X53225000Y-58000000D02*
X53225000Y-58978600D01*
X52918100Y-64506400D02*
X52776700Y-64365000D01*
X51700000Y-64365000D02*
X52776700Y-64365000D01*
%TO.N,SW*%
X56850000Y-65000000D02*
X55198300Y-65000000D01*
X54775000Y-58000000D02*
X54775000Y-61746000D01*
X53426000Y-63095000D02*
X51700000Y-63095000D01*
X55198300Y-64867300D02*
X53426000Y-63095000D01*
X55198300Y-65000000D02*
X55198300Y-64867300D01*
X54775000Y-61746000D02*
X53426000Y-63095000D01*
%TO.N,SGP_VDD*%
X39141100Y-99955400D02*
X39360000Y-100174300D01*
X41397700Y-93152300D02*
X42050000Y-92500000D01*
X41397700Y-94345200D02*
X41397700Y-93152300D01*
X39360000Y-100700000D02*
X39360000Y-100174300D01*
X41397700Y-94345200D02*
X38829800Y-94345200D01*
X38829800Y-94345200D02*
X38000000Y-95175000D01*
%TO.N,RS485_A*%
D61*
X110319200Y-61304200D02*
X109650000Y-60635000D01*
X112122100Y-61304200D02*
X110319200Y-61304200D01*
D60*
X115280400Y-64462500D02*
X116000000Y-64462500D01*
X112122100Y-61304200D02*
X115280400Y-64462500D01*
%TO.N,RS485_TERM*%
X116000000Y-61537500D02*
X121272500Y-66810000D01*
X121272500Y-66810000D02*
X122000000Y-66810000D01*
%TO.N,C6_EN*%
X65825000Y-41993100D02*
X65825000Y-43000000D01*
D61*
X46250000Y-20035000D02*
X47276700Y-20035000D01*
X47276700Y-20035000D02*
X47505700Y-20035000D01*
D60*
X65825000Y-44400000D02*
X64225000Y-46000000D01*
X68300000Y-43000000D02*
X65825000Y-43000000D01*
X65825000Y-43000000D02*
X65825000Y-44400000D01*
%TO.N,EXP_GPIO4*%
D61*
X47276700Y-21305000D02*
X47505700Y-21305000D01*
X46250000Y-21305000D02*
X47276700Y-21305000D01*
D60*
X89500000Y-104500000D02*
X89500000Y-103196900D01*
%TO.N,EXP_GPIO5*%
D61*
X46250000Y-22575000D02*
X47276700Y-22575000D01*
X47276700Y-22575000D02*
X47505700Y-22575000D01*
D60*
X90500000Y-104500000D02*
X90500000Y-103222600D01*
%TO.N,ADC_0_10*%
X117937500Y-75000000D02*
X116937500Y-74000000D01*
X46250000Y-26385000D02*
X47301700Y-26385000D01*
X119225000Y-75000000D02*
X117937500Y-75000000D01*
X47301700Y-26385000D02*
X47887900Y-26385000D01*
X120090000Y-71265000D02*
X120825000Y-72000000D01*
X115670700Y-74000000D02*
X116937500Y-74000000D01*
%TO.N,STATUS_LED*%
X53148700Y-36068600D02*
X47502500Y-30422400D01*
D61*
X46250000Y-30195000D02*
X47276700Y-30195000D01*
X47502500Y-30422400D02*
X47502500Y-30420800D01*
D60*
X77175000Y-40000000D02*
X73243600Y-36068600D01*
D61*
X47502500Y-30420800D02*
X47276700Y-30195000D01*
D60*
X73243600Y-36068600D02*
X53148700Y-36068600D01*
%TO.N,USB_D-*%
X75250000Y-103155000D02*
X75250000Y-103926200D01*
X75250000Y-103926200D02*
X74981100Y-104195100D01*
X76551600Y-100754300D02*
X75520200Y-100754300D01*
X77585800Y-67017100D02*
X77912400Y-67343700D01*
X74250000Y-102024500D02*
X74250000Y-103155000D01*
D61*
X46250000Y-32735000D02*
X47276700Y-32735000D01*
X47276700Y-32735000D02*
X47504100Y-32735000D01*
D60*
X76137500Y-67050000D02*
X73862500Y-67050000D01*
X76170400Y-67017100D02*
X77585800Y-67017100D01*
X74499600Y-104195100D02*
X74250000Y-103945500D01*
X74981100Y-104195100D02*
X74499600Y-104195100D01*
X75520200Y-100754300D02*
X74250000Y-102024500D01*
X76137500Y-67050000D02*
X76170400Y-67017100D01*
X77912400Y-67343700D02*
X77912400Y-68945800D01*
X77912400Y-68945800D02*
X76946100Y-69912100D01*
X74250000Y-103945500D02*
X74250000Y-103155000D01*
%TO.N,USB_D+*%
X76137500Y-68950000D02*
X73862500Y-68950000D01*
X45198300Y-34005000D02*
X44991800Y-34005000D01*
X75750000Y-102301600D02*
X75750000Y-103155000D01*
D61*
X74750000Y-102399100D02*
X74750000Y-102100000D01*
D60*
X75548400Y-102100000D02*
X75750000Y-102301600D01*
X74750000Y-102100000D02*
X75548400Y-102100000D01*
X74750000Y-103155000D02*
X74750000Y-102399100D01*
X76137500Y-69787900D02*
X76137500Y-68950000D01*
X46250000Y-34005000D02*
X45198300Y-34005000D01*
X75548400Y-102100000D02*
X75548400Y-101925700D01*
%TO.N,C6_BOOT*%
X75300000Y-43000000D02*
X74548300Y-43000000D01*
X64801700Y-34005000D02*
X65008200Y-34005000D01*
X63750000Y-34005000D02*
X64801700Y-34005000D01*
X74548300Y-43000000D02*
X74346400Y-43000000D01*
%TO.N,CONTACT1*%
X109825000Y-29552000D02*
X109825000Y-28000000D01*
D61*
X65004100Y-32507600D02*
X64776700Y-32735000D01*
D60*
X111225000Y-31000000D02*
X109825000Y-29600000D01*
X109825000Y-29600000D02*
X109825000Y-29552000D01*
X109825000Y-28000000D02*
X112825000Y-25000000D01*
D61*
X63750000Y-32735000D02*
X64776700Y-32735000D01*
%TO.N,CONTACT2*%
X63750000Y-31465000D02*
X64776700Y-31465000D01*
D60*
X124825000Y-25000000D02*
X127825000Y-28000000D01*
X123225000Y-26600000D02*
X124825000Y-25000000D01*
X123225000Y-28802800D02*
X115106300Y-28802800D01*
D61*
X65004100Y-31237600D02*
X64776700Y-31465000D01*
D60*
X123225000Y-31000000D02*
X123225000Y-28802800D01*
X123225000Y-28802800D02*
X123225000Y-26600000D01*
%TO.N,SERVICE_BUTTON*%
X81905800Y-99080800D02*
X79316800Y-99080800D01*
D61*
X64776700Y-30195000D02*
X65004100Y-30195000D01*
X63750000Y-30195000D02*
X64776700Y-30195000D01*
D60*
X82825000Y-100000000D02*
X85300000Y-100000000D01*
X82825000Y-100000000D02*
X81905800Y-99080800D01*
%TO.N,PWR_LED_EN*%
X100102800Y-43050000D02*
X108062500Y-43050000D01*
X89787600Y-38534500D02*
X95587300Y-38534500D01*
X80178100Y-28925000D02*
X89787600Y-38534500D01*
X95587300Y-38534500D02*
X100102800Y-43050000D01*
X63750000Y-28925000D02*
X80178100Y-28925000D01*
X112175000Y-44000000D02*
X111225000Y-43050000D01*
X111225000Y-43050000D02*
X108062500Y-43050000D01*
%TO.N,BUS_LED*%
X99175000Y-39877500D02*
X99175000Y-40000000D01*
X65014700Y-27655000D02*
X63750000Y-27655000D01*
X98493900Y-39196400D02*
X99175000Y-39877500D01*
%TO.N,ONEWIRE*%
X63750000Y-26385000D02*
X64801700Y-26385000D01*
X88500000Y-104500000D02*
X88500000Y-103222600D01*
X64801700Y-26385000D02*
X65008200Y-26385000D01*
X65008200Y-26385000D02*
X65009800Y-26383400D01*
X85437300Y-25737700D02*
X86175000Y-25000000D01*
%TO.N,RS485_RX*%
X100350000Y-58095000D02*
X99920500Y-58524500D01*
D61*
X64776700Y-22575000D02*
X65002500Y-22575000D01*
X63750000Y-22575000D02*
X64776700Y-22575000D01*
D60*
X99920500Y-58524500D02*
X98806300Y-58524500D01*
%TO.N,RS485_TX*%
D61*
X63750000Y-21305000D02*
X64776700Y-21305000D01*
D60*
X98811100Y-61472800D02*
X99917800Y-61472800D01*
X99917800Y-61472800D02*
X100350000Y-61905000D01*
D61*
X64776700Y-21305000D02*
X65004100Y-21305000D01*
%TO.N,RELAY_CTRL*%
D60*
X92434800Y-93259800D02*
X93175000Y-94000000D01*
D61*
X63750000Y-20035000D02*
X64776700Y-20035000D01*
X65004100Y-20262400D02*
X64776700Y-20035000D01*
%TO.N,RS485_DE*%
X62203500Y-19284800D02*
X62723300Y-18765000D01*
X63750000Y-18765000D02*
X62723300Y-18765000D01*
X61684300Y-19284800D02*
X62203500Y-19284800D01*
D60*
X100350000Y-59365000D02*
X98818500Y-59365000D01*
X100350000Y-59365000D02*
X100350000Y-60635000D01*
%TO.N,RH_OUT*%
X100600000Y-46775000D02*
X99825000Y-46000000D01*
X102000000Y-46775000D02*
X100600000Y-46775000D01*
X99084800Y-46740200D02*
X99825000Y-46000000D01*
%TO.N,AIN_0_10_RAW*%
X127000000Y-73950000D02*
X125125000Y-73950000D01*
X128050000Y-75000000D02*
X127000000Y-73950000D01*
X135000000Y-75000000D02*
X128050000Y-75000000D01*
X125125000Y-73950000D02*
X123175000Y-72000000D01*
%TO.N,24V_RAW*%
X25776200Y-64913700D02*
X26862500Y-66000000D01*
%TO.N,24V_FUSED*%
X38642100Y-64642100D02*
X40000000Y-66000000D01*
X31635200Y-65502300D02*
X31137500Y-66000000D01*
X32215500Y-65502300D02*
X31635200Y-65502300D01*
%TO.N,USB_5V*%
X64357200Y-76357100D02*
X64357200Y-76357200D01*
D61*
X76486700Y-67650800D02*
X76137500Y-68000000D01*
X77310400Y-67650800D02*
X76486700Y-67650800D01*
D60*
X77554700Y-101911800D02*
X77554700Y-103050300D01*
X72550000Y-101925400D02*
X72550000Y-103155000D01*
X77554700Y-103050300D02*
X77450000Y-103155000D01*
X63000000Y-75000000D02*
X64357100Y-76357100D01*
X64357100Y-76357100D02*
X64357200Y-76357100D01*
%TO.N,OPAMP_OUT*%
X92169000Y-46000000D02*
X98175000Y-46000000D01*
X92169000Y-46000000D02*
X92169000Y-47310100D01*
X92169000Y-47310100D02*
X94858900Y-50000000D01*
D61*
X91211700Y-45399200D02*
X90862500Y-45050000D01*
D60*
X94858900Y-50000000D02*
X95175000Y-50000000D01*
X91963600Y-45399200D02*
X92169000Y-45604600D01*
D61*
X91963600Y-45399200D02*
X91211700Y-45399200D01*
D60*
X92169000Y-45604600D02*
X92169000Y-46000000D01*
%TO.N,DAC_RAW*%
X90649800Y-46737300D02*
X90862500Y-46950000D01*
X89697700Y-46737300D02*
X90649800Y-46737300D01*
X81862500Y-45050000D02*
X82800100Y-44112400D01*
X82800100Y-44112400D02*
X82800200Y-44112400D01*
%TO.N,OPAMP_FB*%
D61*
X94684900Y-48497400D02*
X93137500Y-46950000D01*
X94853400Y-48665900D02*
X95411500Y-49224000D01*
D60*
X96825000Y-50000000D02*
X96825000Y-49224000D01*
X90175000Y-51012600D02*
X90175000Y-52000000D01*
X94684900Y-48665900D02*
X94853400Y-48665900D01*
D61*
X95411500Y-49224000D02*
X96825000Y-49224000D01*
X94684900Y-48665900D02*
X94684900Y-48497400D01*
%TO.N,BUS_LED_R*%
D60*
X104787500Y-40000000D02*
X103983800Y-40803700D01*
X103983800Y-40803700D02*
X101628700Y-40803700D01*
X101628700Y-40803700D02*
X100825000Y-40000000D01*
%TO.N,RS485_B*%
X122000000Y-59190000D02*
X122902900Y-59190000D01*
X122000000Y-59190000D02*
X109825000Y-59190000D01*
X109825000Y-59190000D02*
X109650000Y-59365000D01*
%TO.N,AIN_DIV*%
X121955100Y-71946500D02*
X122720200Y-71181400D01*
X121138400Y-72963400D02*
X121526000Y-72575800D01*
X120138400Y-72963400D02*
X121138400Y-72963400D01*
X119175000Y-72000000D02*
X120138400Y-72963400D01*
X123175000Y-75000000D02*
X121138400Y-72963400D01*
X124006400Y-71181400D02*
X124825000Y-72000000D01*
D61*
X121526000Y-72575800D02*
X121526000Y-72375600D01*
D60*
X122720200Y-71181400D02*
X124006400Y-71181400D01*
D61*
X121526000Y-72375600D02*
X121955100Y-71946500D01*
%TO.N,RS485_COM*%
X111048200Y-57494200D02*
X110319200Y-57494200D01*
D60*
X114207600Y-53742400D02*
X113950000Y-54000000D01*
X113950000Y-57000000D02*
X113950000Y-54000000D01*
X111532700Y-58064900D02*
X111048200Y-57580400D01*
D61*
X110319200Y-57494200D02*
X109650000Y-56825000D01*
D60*
X113950000Y-57000000D02*
X112885100Y-58064900D01*
X109650000Y-63175000D02*
X109650000Y-64445000D01*
X111204500Y-64419900D02*
X109675100Y-64419900D01*
X109675100Y-64419900D02*
X109650000Y-64445000D01*
X111048200Y-57580400D02*
X111048200Y-57494200D01*
X112885100Y-58064900D02*
X111532700Y-58064900D01*
X114968600Y-53742400D02*
X114207600Y-53742400D01*
%TO.N,USB_CC1*%
X68772600Y-68525100D02*
X68072500Y-67825000D01*
X73750000Y-104382300D02*
X73750000Y-103155000D01*
X68072500Y-67825000D02*
X68000000Y-67825000D01*
%TO.N,STATUS_LED_R*%
X79644200Y-40819200D02*
X78825000Y-40000000D01*
X82787500Y-40000000D02*
X81968300Y-40819200D01*
X81968300Y-40819200D02*
X79644200Y-40819200D01*
%TO.N,PWR_LED_K*%
X108680400Y-44000000D02*
X109937500Y-44000000D01*
X94965900Y-39246600D02*
X94212500Y-40000000D01*
%TO.N,CONTACT1_EXT*%
X111175000Y-24010900D02*
X111175000Y-25000000D01*
X109050000Y-25000000D02*
X111175000Y-25000000D01*
%TO.N,CONTACT2_EXT*%
X128647900Y-24268200D02*
X128483100Y-24433000D01*
X129050000Y-25000000D02*
X128483100Y-24433000D01*
X128483100Y-24433000D02*
X128266200Y-24216200D01*
X128266200Y-24216200D02*
X123958800Y-24216200D01*
X123958800Y-24216200D02*
X123175000Y-25000000D01*
%TO.N,PWR24_LED_R*%
X95787500Y-40000000D02*
X94984600Y-40802900D01*
X94984600Y-40802900D02*
X92627900Y-40802900D01*
X92627900Y-40802900D02*
X91825000Y-40000000D01*
%TO.N,VISO*%
D61*
X110319200Y-56224200D02*
X109650000Y-55555000D01*
D60*
X111988900Y-56938900D02*
X111988900Y-56224200D01*
X112050000Y-57000000D02*
X111988900Y-56938900D01*
X109650000Y-55555000D02*
X110495000Y-55555000D01*
D61*
X111988900Y-56224200D02*
X110319200Y-56224200D01*
D60*
X110495000Y-55555000D02*
X112050000Y-54000000D01*
%TO.N,5V_BUCK*%
X50596400Y-55578600D02*
X50000000Y-56175000D01*
X68160900Y-64000000D02*
X68160900Y-63692300D01*
X74637300Y-55362700D02*
X74480200Y-55362700D01*
X74480200Y-55362700D02*
X73162300Y-55362700D01*
X73162300Y-55362700D02*
X69525000Y-59000000D01*
X68160900Y-64000000D02*
X69525000Y-64000000D01*
X65150000Y-65000000D02*
X67160900Y-65000000D01*
X76000000Y-54000000D02*
X74637300Y-55362700D01*
X67160900Y-65000000D02*
X68160900Y-64000000D01*
X50872700Y-55578600D02*
X50596400Y-55578600D01*
X54175000Y-72011600D02*
X54175000Y-73000000D01*
%TO.N,USB_CC2*%
X71236200Y-68561200D02*
X70500000Y-67825000D01*
X76750000Y-101922700D02*
X76750000Y-103155000D01*
%TD*%
M02*
