%TF.GenerationSoftware,KiCad,Pcbnew,10.0.5*%
%TF.CreationDate,2026-08-08T00:49:55+02:00*%
%TF.ProjectId,AIR-PRESSURE,4149522d-5052-4455-9353-5552452e6b69,rev?*%
%TF.SameCoordinates,Original*%
%TF.FileFunction,Copper,L1,Top*%
%TF.FilePolarity,Positive*%
%FSLAX46Y46*%
G04 Gerber Fmt 4.6, Leading zero omitted, Abs format (unit mm)*
G04 Created by KiCad (PCBNEW 10.0.5) date 2026-08-08 00:49:55*
%MOMM*%
%LPD*%
G01*
G04 APERTURE LIST*
G04 Aperture macros list*
%AMRoundRect*
0 Rectangle with rounded corners*
0 $1 Rounding radius*
0 $2 $3 $4 $5 $6 $7 $8 $9 X,Y pos of 4 corners*
0 Add a 4 corners polygon primitive as box body*
4,1,4,$2,$3,$4,$5,$6,$7,$8,$9,$2,$3,0*
0 Add four circle primitives for the rounded corners*
1,1,$1+$1,$2,$3*
1,1,$1+$1,$4,$5*
1,1,$1+$1,$6,$7*
1,1,$1+$1,$8,$9*
0 Add four rect primitives between the rounded corners*
20,1,$1+$1,$2,$3,$4,$5,0*
20,1,$1+$1,$4,$5,$6,$7,0*
20,1,$1+$1,$6,$7,$8,$9,0*
20,1,$1+$1,$8,$9,$2,$3,0*%
G04 Aperture macros list end*
%TA.AperFunction,SMDPad,CuDef*%
%ADD10RoundRect,0.250000X-0.250000X-0.475000X0.250000X-0.475000X0.250000X0.475000X-0.250000X0.475000X0*%
%TD*%
%TA.AperFunction,SMDPad,CuDef*%
%ADD11RoundRect,0.150000X0.150000X-0.512500X0.150000X0.512500X-0.150000X0.512500X-0.150000X-0.512500X0*%
%TD*%
%TA.AperFunction,SMDPad,CuDef*%
%ADD12R,0.300000X0.300000*%
%TD*%
%TA.AperFunction,SMDPad,CuDef*%
%ADD13RoundRect,0.225000X-0.225000X-0.250000X0.225000X-0.250000X0.225000X0.250000X-0.225000X0.250000X0*%
%TD*%
%TA.AperFunction,ComponentPad*%
%ADD14R,1.700000X1.700000*%
%TD*%
%TA.AperFunction,ComponentPad*%
%ADD15C,1.700000*%
%TD*%
%TA.AperFunction,ViaPad*%
%ADD16C,0.600000*%
%TD*%
%TA.AperFunction,ViaPad*%
%ADD17C,0.700000*%
%TD*%
%TA.AperFunction,Conductor*%
%ADD18C,0.200000*%
%TD*%
%TA.AperFunction,Conductor*%
%ADD19C,0.150000*%
%TD*%
%TA.AperFunction,Conductor*%
%ADD20C,0.250000*%
%TD*%
%TA.AperFunction,Conductor*%
%ADD21C,0.120000*%
%TD*%
G04 APERTURE END LIST*
D10*
%TO.P,C3,1*%
%TO.N,SLOT_5V*%
X17050000Y-17000000D03*
%TO.P,C3,2*%
%TO.N,GND*%
X18950000Y-17000000D03*
%TD*%
%TO.P,C4,1*%
%TO.N,MOD_3V3*%
X17050000Y-21000000D03*
%TO.P,C4,2*%
%TO.N,GND*%
X18950000Y-21000000D03*
%TD*%
D11*
%TO.P,U2,1*%
%TO.N,SLOT_5V*%
X19050000Y-14137500D03*
%TO.P,U2,2*%
%TO.N,GND*%
X20000000Y-14137500D03*
%TO.P,U2,3*%
%TO.N,SLOT_5V*%
X20950000Y-14137500D03*
%TO.P,U2,4*%
%TO.N,N/C*%
X20950000Y-11862500D03*
%TO.P,U2,5*%
%TO.N,MOD_3V3*%
X19050000Y-11862500D03*
%TD*%
D12*
%TO.P,U1,1*%
%TO.N,MOD_3V3*%
X9750000Y-18780000D03*
%TO.P,U1,2*%
%TO.N,I2C_SCL*%
X10250000Y-18780000D03*
%TO.P,U1,3*%
%TO.N,GND*%
X10780000Y-18500000D03*
%TO.P,U1,4*%
%TO.N,I2C_SDA*%
X10780000Y-18000000D03*
%TO.P,U1,5*%
%TO.N,GND*%
X10780000Y-17500000D03*
%TO.P,U1,6*%
%TO.N,MOD_3V3*%
X10250000Y-17220000D03*
%TO.P,U1,7*%
%TO.N,N/C*%
X9750000Y-17220000D03*
%TO.P,U1,8*%
%TO.N,GND*%
X9220000Y-17500000D03*
%TO.P,U1,9*%
X9220000Y-18000000D03*
%TO.P,U1,10*%
%TO.N,MOD_3V3*%
X9220000Y-18500000D03*
%TD*%
D13*
%TO.P,C2,1*%
%TO.N,MOD_3V3*%
X9225000Y-22000000D03*
%TO.P,C2,2*%
%TO.N,GND*%
X10775000Y-22000000D03*
%TD*%
%TO.P,C1,1*%
%TO.N,MOD_3V3*%
X5225000Y-22000000D03*
%TO.P,C1,2*%
%TO.N,GND*%
X6775000Y-22000000D03*
%TD*%
D14*
%TO.P,J1,1*%
%TO.N,GND*%
X12500000Y-4000000D03*
D15*
%TO.P,J1,2*%
%TO.N,SLOT_5V*%
X15040000Y-4000000D03*
%TO.P,J1,3*%
%TO.N,I2C_SDA*%
X12500000Y-6540000D03*
%TO.P,J1,4*%
%TO.N,I2C_SCL*%
X15040000Y-6540000D03*
%TO.P,J1,5*%
X12500000Y-9080000D03*
%TO.P,J1,6*%
%TO.N,I2C_SDA*%
X15040000Y-9080000D03*
%TO.P,J1,7*%
%TO.N,SLOT_5V*%
X12500000Y-11620000D03*
%TO.P,J1,8*%
%TO.N,GND*%
X15040000Y-11620000D03*
%TD*%
D16*
%TO.N,GND*%
X18950000Y-18598200D03*
%TO.N,MOD_3V3*%
X16398000Y-12923800D03*
X7741300Y-21202500D03*
X17050000Y-19770400D03*
%TO.N,I2C_SCL*%
X10586700Y-19476500D03*
D17*
%TO.N,I2C_SDA*%
X11500000Y-18000000D03*
X8000000Y-6540000D03*
%TD*%
%TO.N,SLOT_5V*%
D18*
X19050000Y-14137500D02*
X18702300Y-14137500D01*
X20312100Y-13123700D02*
X20950000Y-13761600D01*
X16444900Y-16394900D02*
X16444900Y-16050700D01*
X16687800Y-15807800D02*
X19371900Y-13123700D01*
X18702300Y-14137500D02*
X16444900Y-16394900D01*
X17050000Y-17000000D02*
X16444900Y-16394900D01*
X12500000Y-11620000D02*
X16687800Y-15807800D01*
X16444900Y-16050700D02*
X16687800Y-15807800D01*
X20950000Y-13761600D02*
X20950000Y-14137500D01*
X19371900Y-13123700D02*
X20312100Y-13123700D01*
%TO.N,GND*%
X18950000Y-17000000D02*
X20000000Y-15950000D01*
X9986600Y-22788400D02*
X10775000Y-22000000D01*
X7563400Y-22788400D02*
X9986600Y-22788400D01*
X6775000Y-22000000D02*
X7563400Y-22788400D01*
X20000000Y-15950000D02*
X20000000Y-14137500D01*
X12460000Y-18026200D02*
X12459200Y-18025400D01*
X11782100Y-17348300D02*
X10931700Y-17348300D01*
X10780000Y-16989400D02*
X10780000Y-17500000D01*
X11202400Y-18685700D02*
X11202400Y-21572600D01*
X17244900Y-18756600D02*
X18950000Y-18756600D01*
X9220000Y-16952400D02*
X9430900Y-16741500D01*
X11202400Y-18685700D02*
X10965700Y-18685700D01*
X12459200Y-18025400D02*
X11782100Y-17348300D01*
X15949500Y-18026200D02*
X12460000Y-18026200D01*
X18950000Y-21000000D02*
X18950000Y-18756600D01*
X9430900Y-16741500D02*
X10532100Y-16741500D01*
X10532100Y-16741500D02*
X10780000Y-16989400D01*
X9220000Y-18000000D02*
X9220000Y-17500000D01*
D19*
X16514500Y-18026200D02*
X17244900Y-18756600D01*
D18*
X9220000Y-17500000D02*
X9220000Y-16952400D01*
X11798900Y-18685700D02*
X11202400Y-18685700D01*
X18950000Y-18756600D02*
X18950000Y-18598200D01*
X10931700Y-17348300D02*
X10780000Y-17500000D01*
X10965700Y-18685700D02*
X10780000Y-18500000D01*
X11202400Y-21572600D02*
X10775000Y-22000000D01*
X12459200Y-18025400D02*
X11798900Y-18685700D01*
X18950000Y-18598200D02*
X18950000Y-17000000D01*
D19*
X15949500Y-18026200D02*
X16514500Y-18026200D01*
%TO.N,MOD_3V3*%
D18*
X10250000Y-18280000D02*
X10250000Y-17220000D01*
D19*
X9982100Y-19231700D02*
X9750000Y-18999600D01*
X9750000Y-18579800D02*
X10049800Y-18280000D01*
D18*
X9225000Y-21202500D02*
X9225000Y-19988800D01*
X9220000Y-18500000D02*
X9298300Y-18578300D01*
X9750000Y-18781700D02*
X9750000Y-18780000D01*
D19*
X9750000Y-18999600D02*
X9750000Y-18781700D01*
D18*
X6022500Y-21202500D02*
X5225000Y-22000000D01*
X17988700Y-12923800D02*
X19050000Y-11862500D01*
X9225000Y-22000000D02*
X9225000Y-21202500D01*
X17050000Y-21000000D02*
X17050000Y-19770400D01*
X16398000Y-12923800D02*
X17988700Y-12923800D01*
X9750000Y-18780000D02*
X9298300Y-18780000D01*
X9750000Y-18780000D02*
X9750000Y-18579800D01*
X7741300Y-21202500D02*
X6022500Y-21202500D01*
D19*
X10049800Y-18280000D02*
X10250000Y-18280000D01*
D18*
X9225000Y-19988800D02*
X9982100Y-19231700D01*
X9225000Y-21202500D02*
X7741300Y-21202500D01*
X9298300Y-18578300D02*
X9298300Y-18780000D01*
%TO.N,I2C_SCL*%
D19*
X10470800Y-19360600D02*
X10470800Y-19064200D01*
D18*
X10332700Y-18862700D02*
X10250000Y-18780000D01*
X10332700Y-18926100D02*
X10332700Y-18862700D01*
D19*
X10470800Y-19064200D02*
X10332700Y-18926100D01*
D18*
X10470800Y-19360600D02*
X10586700Y-19476500D01*
%TO.N,I2C_SDA*%
X8000000Y-6540000D02*
X10800000Y-6540000D01*
D20*
X10800000Y-6540000D02*
X10800000Y-10350000D01*
X16740000Y-10350000D02*
X16740000Y-9080000D01*
X12500000Y-6540000D02*
X10800000Y-6540000D01*
X16740000Y-9080000D02*
X15040000Y-9080000D01*
D21*
X10780000Y-18000000D02*
X11500000Y-18000000D01*
D20*
X10800000Y-10350000D02*
X16740000Y-10350000D01*
%TD*%
%TA.AperFunction,Conductor*%
%TO.N,GND*%
G36*
X24458691Y-519407D02*
G01*
X24494655Y-568907D01*
X24499500Y-599500D01*
X24499500Y-24400500D01*
X24480593Y-24458691D01*
X24431093Y-24494655D01*
X24400500Y-24499500D01*
X599500Y-24499500D01*
X541309Y-24480593D01*
X505345Y-24431093D01*
X500500Y-24400500D01*
X500500Y-21704518D01*
X4524500Y-21704518D01*
X4524500Y-22295478D01*
X4524501Y-22295484D01*
X4530587Y-22352111D01*
X4530587Y-22352112D01*
X4530588Y-22352114D01*
X4578372Y-22480226D01*
X4660313Y-22589687D01*
X4769774Y-22671628D01*
X4897886Y-22719412D01*
X4954515Y-22725500D01*
X5495484Y-22725499D01*
X5552114Y-22719412D01*
X5680226Y-22671628D01*
X5789687Y-22589687D01*
X5871628Y-22480226D01*
X5919412Y-22352114D01*
X5925500Y-22295485D01*
X5925499Y-21836188D01*
X5944406Y-21777998D01*
X5954496Y-21766185D01*
X6138686Y-21581996D01*
X6193202Y-21554219D01*
X6208689Y-21553000D01*
X7272268Y-21553000D01*
X7330459Y-21571907D01*
X7342271Y-21581996D01*
X7403284Y-21643008D01*
X7403289Y-21643012D01*
X7528811Y-21715482D01*
X7528812Y-21715482D01*
X7528815Y-21715484D01*
X7668825Y-21753000D01*
X7668826Y-21753000D01*
X7813774Y-21753000D01*
X7813775Y-21753000D01*
X7953785Y-21715484D01*
X7953787Y-21715482D01*
X7953789Y-21715482D01*
X8079310Y-21643012D01*
X8079310Y-21643011D01*
X8079315Y-21643009D01*
X8109822Y-21612502D01*
X8140329Y-21581996D01*
X8194846Y-21554219D01*
X8210332Y-21553000D01*
X8430575Y-21553000D01*
X8488766Y-21571907D01*
X8524730Y-21621407D01*
X8529008Y-21662581D01*
X8524500Y-21704516D01*
X8524500Y-22295478D01*
X8524501Y-22295484D01*
X8530587Y-22352111D01*
X8530587Y-22352112D01*
X8530588Y-22352114D01*
X8578372Y-22480226D01*
X8660313Y-22589687D01*
X8769774Y-22671628D01*
X8897886Y-22719412D01*
X8954515Y-22725500D01*
X9495484Y-22725499D01*
X9552114Y-22719412D01*
X9680226Y-22671628D01*
X9789687Y-22589687D01*
X9871628Y-22480226D01*
X9919412Y-22352114D01*
X9925500Y-22295485D01*
X9925499Y-21704516D01*
X9919412Y-21647886D01*
X9871628Y-21519774D01*
X9789687Y-21410313D01*
X9753476Y-21383206D01*
X9680228Y-21328373D01*
X9680224Y-21328371D01*
X9639900Y-21313330D01*
X9591987Y-21275278D01*
X9575500Y-21220573D01*
X9575500Y-20477129D01*
X16299500Y-20477129D01*
X16299500Y-21522866D01*
X16299501Y-21522870D01*
X16305908Y-21582480D01*
X16305909Y-21582485D01*
X16356202Y-21717329D01*
X16392776Y-21766185D01*
X16442454Y-21832546D01*
X16442457Y-21832548D01*
X16442458Y-21832549D01*
X16557670Y-21918797D01*
X16692511Y-21969089D01*
X16692512Y-21969089D01*
X16692517Y-21969091D01*
X16752127Y-21975500D01*
X17347872Y-21975499D01*
X17407483Y-21969091D01*
X17474907Y-21943943D01*
X17542329Y-21918797D01*
X17542329Y-21918796D01*
X17542331Y-21918796D01*
X17657546Y-21832546D01*
X17743796Y-21717331D01*
X17764217Y-21662581D01*
X17794089Y-21582488D01*
X17794090Y-21582485D01*
X17794091Y-21582483D01*
X17800500Y-21522873D01*
X17800499Y-20477128D01*
X17794091Y-20417517D01*
X17794089Y-20417511D01*
X17743797Y-20282670D01*
X17657549Y-20167458D01*
X17657548Y-20167457D01*
X17657546Y-20167454D01*
X17587458Y-20114986D01*
X17552205Y-20064977D01*
X17553079Y-20003798D01*
X17561054Y-19986227D01*
X17562984Y-19982885D01*
X17600500Y-19842875D01*
X17600500Y-19697925D01*
X17562984Y-19557915D01*
X17562982Y-19557912D01*
X17562982Y-19557910D01*
X17490512Y-19432389D01*
X17490510Y-19432387D01*
X17490509Y-19432385D01*
X17388015Y-19329891D01*
X17388012Y-19329889D01*
X17388010Y-19329887D01*
X17262488Y-19257417D01*
X17262489Y-19257417D01*
X17232896Y-19249487D01*
X17122475Y-19219900D01*
X16977525Y-19219900D01*
X16915790Y-19236441D01*
X16837510Y-19257417D01*
X16711989Y-19329887D01*
X16609487Y-19432389D01*
X16537017Y-19557910D01*
X16537016Y-19557915D01*
X16499500Y-19697925D01*
X16499500Y-19842875D01*
X16519365Y-19917012D01*
X16537017Y-19982888D01*
X16538949Y-19986234D01*
X16551670Y-20046082D01*
X16526783Y-20101978D01*
X16512542Y-20114986D01*
X16442455Y-20167453D01*
X16442450Y-20167458D01*
X16356202Y-20282670D01*
X16305910Y-20417511D01*
X16305908Y-20417522D01*
X16299500Y-20477129D01*
X9575500Y-20477129D01*
X9575500Y-20174988D01*
X9594407Y-20116797D01*
X9604490Y-20104991D01*
X9963007Y-19746473D01*
X10017522Y-19718697D01*
X10077954Y-19728268D01*
X10118744Y-19766976D01*
X10146191Y-19814515D01*
X10248685Y-19917009D01*
X10248687Y-19917010D01*
X10248689Y-19917012D01*
X10374211Y-19989482D01*
X10374212Y-19989482D01*
X10374215Y-19989484D01*
X10514225Y-20027000D01*
X10514226Y-20027000D01*
X10659174Y-20027000D01*
X10659175Y-20027000D01*
X10799185Y-19989484D01*
X10799187Y-19989482D01*
X10799189Y-19989482D01*
X10924710Y-19917012D01*
X10924710Y-19917011D01*
X10924715Y-19917009D01*
X11027209Y-19814515D01*
X11082530Y-19718697D01*
X11099682Y-19688989D01*
X11099682Y-19688987D01*
X11099684Y-19688985D01*
X11137200Y-19548975D01*
X11137200Y-19404025D01*
X11099684Y-19264015D01*
X11099682Y-19264012D01*
X11099682Y-19264010D01*
X11027212Y-19138489D01*
X11027210Y-19138487D01*
X11027209Y-19138485D01*
X10924715Y-19035991D01*
X10806167Y-18967547D01*
X10769933Y-18931313D01*
X10731265Y-18864338D01*
X10701852Y-18834925D01*
X10676230Y-18790546D01*
X10659314Y-18727412D01*
X10659311Y-18727406D01*
X10659310Y-18727403D01*
X10658033Y-18724318D01*
X10650500Y-18686440D01*
X10650500Y-18605327D01*
X10650498Y-18605315D01*
X10634064Y-18522698D01*
X10636887Y-18522136D01*
X10633290Y-18476381D01*
X10665264Y-18424214D01*
X10721794Y-18400805D01*
X10729553Y-18400500D01*
X10954673Y-18400500D01*
X10954674Y-18400500D01*
X10954675Y-18400499D01*
X10954682Y-18400499D01*
X10983336Y-18394799D01*
X11044098Y-18401989D01*
X11072655Y-18421892D01*
X11127145Y-18476381D01*
X11131284Y-18480520D01*
X11268216Y-18559577D01*
X11420943Y-18600500D01*
X11420945Y-18600500D01*
X11579055Y-18600500D01*
X11579057Y-18600500D01*
X11731784Y-18559577D01*
X11868716Y-18480520D01*
X11980520Y-18368716D01*
X12059577Y-18231784D01*
X12100500Y-18079057D01*
X12100500Y-17920943D01*
X12059577Y-17768216D01*
X11980520Y-17631284D01*
X11868716Y-17519480D01*
X11731784Y-17440423D01*
X11579057Y-17399500D01*
X11420943Y-17399500D01*
X11268216Y-17440423D01*
X11215955Y-17470596D01*
X11131281Y-17519482D01*
X11072654Y-17578108D01*
X11018137Y-17605884D01*
X10983339Y-17605201D01*
X10954679Y-17599500D01*
X10954674Y-17599500D01*
X10729553Y-17599500D01*
X10671362Y-17580593D01*
X10635398Y-17531093D01*
X10635398Y-17477567D01*
X10634064Y-17477302D01*
X10635398Y-17470596D01*
X10635398Y-17469907D01*
X10635695Y-17469100D01*
X10635967Y-17467736D01*
X10650500Y-17394674D01*
X10650500Y-17045326D01*
X10635966Y-16972260D01*
X10580601Y-16889399D01*
X10580599Y-16889397D01*
X10497742Y-16834035D01*
X10497740Y-16834034D01*
X10497737Y-16834033D01*
X10497736Y-16834033D01*
X10424684Y-16819501D01*
X10424674Y-16819500D01*
X10075326Y-16819500D01*
X10075320Y-16819500D01*
X10019313Y-16830641D01*
X9980687Y-16830641D01*
X9924679Y-16819500D01*
X9924674Y-16819500D01*
X9575326Y-16819500D01*
X9575325Y-16819500D01*
X9575315Y-16819501D01*
X9502263Y-16834033D01*
X9502257Y-16834035D01*
X9419400Y-16889397D01*
X9419397Y-16889400D01*
X9364035Y-16972257D01*
X9364033Y-16972263D01*
X9349501Y-17045315D01*
X9349500Y-17045327D01*
X9349500Y-17394672D01*
X9349501Y-17394684D01*
X9364033Y-17467736D01*
X9364035Y-17467742D01*
X9419397Y-17550599D01*
X9419400Y-17550602D01*
X9467122Y-17582488D01*
X9502260Y-17605966D01*
X9557808Y-17617015D01*
X9575315Y-17620498D01*
X9575320Y-17620498D01*
X9575326Y-17620500D01*
X9800500Y-17620500D01*
X9858691Y-17639407D01*
X9894655Y-17688907D01*
X9899500Y-17719500D01*
X9899500Y-17933762D01*
X9880593Y-17991953D01*
X9854785Y-18015191D01*
X9855087Y-18015584D01*
X9850096Y-18019413D01*
X9850006Y-18019495D01*
X9849942Y-18019531D01*
X9849937Y-18019535D01*
X9695340Y-18174131D01*
X9640823Y-18201908D01*
X9580391Y-18192336D01*
X9555333Y-18174131D01*
X9550599Y-18169397D01*
X9467742Y-18114035D01*
X9467740Y-18114034D01*
X9467737Y-18114033D01*
X9467736Y-18114033D01*
X9394684Y-18099501D01*
X9394674Y-18099500D01*
X9045326Y-18099500D01*
X9045325Y-18099500D01*
X9045315Y-18099501D01*
X8972263Y-18114033D01*
X8972257Y-18114035D01*
X8889400Y-18169397D01*
X8889397Y-18169400D01*
X8834035Y-18252257D01*
X8834033Y-18252263D01*
X8819501Y-18325315D01*
X8819500Y-18325327D01*
X8819500Y-18674672D01*
X8819501Y-18674684D01*
X8834033Y-18747736D01*
X8834035Y-18747742D01*
X8889397Y-18830599D01*
X8889402Y-18830604D01*
X8931007Y-18858403D01*
X8968888Y-18906452D01*
X8971631Y-18915085D01*
X8971683Y-18915282D01*
X8971685Y-18915286D01*
X8971686Y-18915288D01*
X9017831Y-18995212D01*
X9083088Y-19060469D01*
X9163012Y-19106614D01*
X9252156Y-19130500D01*
X9344444Y-19130500D01*
X9348609Y-19130500D01*
X9406800Y-19149407D01*
X9442764Y-19198907D01*
X9442764Y-19260093D01*
X9418613Y-19299503D01*
X8944530Y-19773587D01*
X8924528Y-19808231D01*
X8904527Y-19842875D01*
X8904526Y-19842876D01*
X8898388Y-19853506D01*
X8898387Y-19853508D01*
X8874500Y-19942657D01*
X8874500Y-20753000D01*
X8855593Y-20811191D01*
X8806093Y-20847155D01*
X8775500Y-20852000D01*
X8210332Y-20852000D01*
X8152141Y-20833093D01*
X8140329Y-20823004D01*
X8079315Y-20761991D01*
X8079310Y-20761987D01*
X7953788Y-20689517D01*
X7953789Y-20689517D01*
X7924196Y-20681587D01*
X7813775Y-20652000D01*
X7668825Y-20652000D01*
X7607090Y-20668541D01*
X7528810Y-20689517D01*
X7403289Y-20761987D01*
X7403284Y-20761991D01*
X7342271Y-20823004D01*
X7287754Y-20850781D01*
X7272268Y-20852000D01*
X5976356Y-20852000D01*
X5887212Y-20875886D01*
X5887211Y-20875886D01*
X5887209Y-20875887D01*
X5807289Y-20922029D01*
X5807287Y-20922031D01*
X5483813Y-21245504D01*
X5429297Y-21273281D01*
X5413810Y-21274500D01*
X4954521Y-21274500D01*
X4954515Y-21274501D01*
X4897888Y-21280587D01*
X4897886Y-21280588D01*
X4769774Y-21328372D01*
X4769773Y-21328372D01*
X4769772Y-21328373D01*
X4660315Y-21410311D01*
X4660311Y-21410315D01*
X4578373Y-21519771D01*
X4530587Y-21647887D01*
X4524500Y-21704518D01*
X500500Y-21704518D01*
X500500Y-6460943D01*
X7399500Y-6460943D01*
X7399500Y-6619057D01*
X7440423Y-6771784D01*
X7519480Y-6908716D01*
X7631284Y-7020520D01*
X7768216Y-7099577D01*
X7920943Y-7140500D01*
X7920945Y-7140500D01*
X8079055Y-7140500D01*
X8079057Y-7140500D01*
X8231784Y-7099577D01*
X8368716Y-7020520D01*
X8469741Y-6919494D01*
X8524256Y-6891719D01*
X8539743Y-6890500D01*
X10325500Y-6890500D01*
X10383691Y-6909407D01*
X10419655Y-6958907D01*
X10424500Y-6989500D01*
X10424500Y-10300565D01*
X10424500Y-10399435D01*
X10447067Y-10483657D01*
X10450091Y-10494942D01*
X10499523Y-10580559D01*
X10499525Y-10580562D01*
X10569438Y-10650475D01*
X10569440Y-10650476D01*
X10655058Y-10699908D01*
X10655056Y-10699908D01*
X10655060Y-10699909D01*
X10655062Y-10699910D01*
X10750565Y-10725500D01*
X11599151Y-10725500D01*
X11657342Y-10744407D01*
X11693306Y-10793907D01*
X11693306Y-10855093D01*
X11669156Y-10894501D01*
X11660586Y-10903072D01*
X11660585Y-10903073D01*
X11558766Y-11043214D01*
X11480125Y-11197558D01*
X11480123Y-11197561D01*
X11426598Y-11362293D01*
X11426597Y-11362297D01*
X11399500Y-11533385D01*
X11399500Y-11706614D01*
X11426597Y-11877702D01*
X11426598Y-11877706D01*
X11480123Y-12042438D01*
X11480125Y-12042441D01*
X11480126Y-12042444D01*
X11480127Y-12042445D01*
X11558768Y-12196788D01*
X11660586Y-12336928D01*
X11783072Y-12459414D01*
X11923212Y-12561232D01*
X12077555Y-12639873D01*
X12077557Y-12639873D01*
X12077558Y-12639874D01*
X12077561Y-12639876D01*
X12242293Y-12693401D01*
X12242297Y-12693402D01*
X12413386Y-12720500D01*
X12413389Y-12720500D01*
X12586614Y-12720500D01*
X12757702Y-12693402D01*
X12840216Y-12666591D01*
X12922445Y-12639873D01*
X12925747Y-12638190D01*
X12986174Y-12628609D01*
X13040695Y-12656378D01*
X13040707Y-12656389D01*
X16130983Y-15746665D01*
X16158760Y-15801182D01*
X16149189Y-15861614D01*
X16146716Y-15866168D01*
X16118286Y-15915410D01*
X16094400Y-16004557D01*
X16094400Y-16441046D01*
X16104068Y-16477125D01*
X16104068Y-16477127D01*
X16104069Y-16477127D01*
X16104069Y-16477128D01*
X16118286Y-16530188D01*
X16164430Y-16610112D01*
X16270505Y-16716187D01*
X16298281Y-16770702D01*
X16299500Y-16786189D01*
X16299500Y-17522866D01*
X16299501Y-17522870D01*
X16305908Y-17582480D01*
X16305909Y-17582485D01*
X16356202Y-17717329D01*
X16442450Y-17832541D01*
X16442454Y-17832546D01*
X16442457Y-17832548D01*
X16442458Y-17832549D01*
X16557670Y-17918797D01*
X16692511Y-17969089D01*
X16692512Y-17969089D01*
X16692517Y-17969091D01*
X16752127Y-17975500D01*
X17347872Y-17975499D01*
X17407483Y-17969091D01*
X17502205Y-17933762D01*
X17542329Y-17918797D01*
X17542329Y-17918796D01*
X17542331Y-17918796D01*
X17657546Y-17832546D01*
X17743796Y-17717331D01*
X17754398Y-17688907D01*
X17794089Y-17582488D01*
X17794090Y-17582485D01*
X17794091Y-17582483D01*
X17800500Y-17522873D01*
X17800499Y-16477128D01*
X17794091Y-16417517D01*
X17794090Y-16417514D01*
X17743797Y-16282670D01*
X17657549Y-16167458D01*
X17657548Y-16167457D01*
X17657546Y-16167454D01*
X17657541Y-16167450D01*
X17542329Y-16081202D01*
X17476864Y-16056786D01*
X17428949Y-16018736D01*
X17412551Y-15959789D01*
X17433932Y-15902461D01*
X17441447Y-15894033D01*
X18439541Y-14895940D01*
X18494058Y-14868163D01*
X18554490Y-14877734D01*
X18579545Y-14895937D01*
X18661658Y-14978050D01*
X18774696Y-15035646D01*
X18868481Y-15050500D01*
X19231518Y-15050499D01*
X19231520Y-15050499D01*
X19231521Y-15050498D01*
X19278411Y-15043072D01*
X19325299Y-15035647D01*
X19325299Y-15035646D01*
X19325304Y-15035646D01*
X19438342Y-14978050D01*
X19528050Y-14888342D01*
X19585646Y-14775304D01*
X19600500Y-14681519D01*
X19600499Y-13593482D01*
X19600499Y-13593478D01*
X19599740Y-13588686D01*
X19609312Y-13528254D01*
X19652577Y-13484990D01*
X19697521Y-13474200D01*
X20125910Y-13474200D01*
X20184101Y-13493107D01*
X20195914Y-13503196D01*
X20370504Y-13677786D01*
X20398281Y-13732303D01*
X20399500Y-13747790D01*
X20399500Y-14681521D01*
X20399501Y-14681523D01*
X20414352Y-14775299D01*
X20414354Y-14775304D01*
X20471950Y-14888342D01*
X20561658Y-14978050D01*
X20674696Y-15035646D01*
X20768481Y-15050500D01*
X21131518Y-15050499D01*
X21131520Y-15050499D01*
X21131521Y-15050498D01*
X21178411Y-15043072D01*
X21225299Y-15035647D01*
X21225299Y-15035646D01*
X21225304Y-15035646D01*
X21338342Y-14978050D01*
X21428050Y-14888342D01*
X21485646Y-14775304D01*
X21500500Y-14681519D01*
X21500499Y-13593482D01*
X21500499Y-13593478D01*
X21500498Y-13593476D01*
X21485647Y-13499700D01*
X21485646Y-13499698D01*
X21485646Y-13499696D01*
X21428050Y-13386658D01*
X21338342Y-13296950D01*
X21225304Y-13239354D01*
X21225305Y-13239354D01*
X21131522Y-13224500D01*
X21131519Y-13224500D01*
X20949590Y-13224500D01*
X20891399Y-13205593D01*
X20879587Y-13195504D01*
X20616899Y-12932817D01*
X20589121Y-12878300D01*
X20598692Y-12817868D01*
X20641957Y-12774603D01*
X20702388Y-12765032D01*
X20768481Y-12775500D01*
X21131518Y-12775499D01*
X21131520Y-12775499D01*
X21131521Y-12775498D01*
X21197610Y-12765032D01*
X21225299Y-12760647D01*
X21225299Y-12760646D01*
X21225304Y-12760646D01*
X21338342Y-12703050D01*
X21428050Y-12613342D01*
X21485646Y-12500304D01*
X21500500Y-12406519D01*
X21500499Y-11318482D01*
X21500499Y-11318481D01*
X21500499Y-11318478D01*
X21500498Y-11318476D01*
X21485647Y-11224700D01*
X21485646Y-11224698D01*
X21485646Y-11224696D01*
X21428050Y-11111658D01*
X21338342Y-11021950D01*
X21225304Y-10964354D01*
X21225305Y-10964354D01*
X21131522Y-10949500D01*
X20768479Y-10949500D01*
X20768476Y-10949501D01*
X20674700Y-10964352D01*
X20674695Y-10964354D01*
X20561659Y-11021949D01*
X20471949Y-11111659D01*
X20414354Y-11224695D01*
X20399500Y-11318478D01*
X20399500Y-12406521D01*
X20399501Y-12406523D01*
X20414352Y-12500299D01*
X20414354Y-12500304D01*
X20471950Y-12613342D01*
X20471951Y-12613343D01*
X20476531Y-12619647D01*
X20475079Y-12620701D01*
X20498460Y-12666591D01*
X20488889Y-12727023D01*
X20445624Y-12770288D01*
X20385192Y-12779859D01*
X20375057Y-12777705D01*
X20374002Y-12777422D01*
X20358244Y-12773200D01*
X19606205Y-12773200D01*
X19548014Y-12754293D01*
X19512050Y-12704793D01*
X19512050Y-12643607D01*
X19526109Y-12616014D01*
X19528045Y-12613346D01*
X19528050Y-12613342D01*
X19585646Y-12500304D01*
X19600500Y-12406519D01*
X19600499Y-11318482D01*
X19600499Y-11318481D01*
X19600499Y-11318478D01*
X19600498Y-11318476D01*
X19585647Y-11224700D01*
X19585646Y-11224698D01*
X19585646Y-11224696D01*
X19528050Y-11111658D01*
X19438342Y-11021950D01*
X19325304Y-10964354D01*
X19325305Y-10964354D01*
X19231522Y-10949500D01*
X18868479Y-10949500D01*
X18868476Y-10949501D01*
X18774700Y-10964352D01*
X18774695Y-10964354D01*
X18661659Y-11021949D01*
X18571949Y-11111659D01*
X18514354Y-11224695D01*
X18499500Y-11318478D01*
X18499500Y-11876309D01*
X18480593Y-11934500D01*
X18470504Y-11946313D01*
X17872514Y-12544304D01*
X17817997Y-12572081D01*
X17802510Y-12573300D01*
X16867032Y-12573300D01*
X16808841Y-12554393D01*
X16797029Y-12544304D01*
X16736015Y-12483291D01*
X16736010Y-12483287D01*
X16610488Y-12410817D01*
X16610489Y-12410817D01*
X16580896Y-12402887D01*
X16470475Y-12373300D01*
X16325525Y-12373300D01*
X16263790Y-12389841D01*
X16185510Y-12410817D01*
X16059989Y-12483287D01*
X15957487Y-12585789D01*
X15885017Y-12711310D01*
X15847500Y-12851325D01*
X15847500Y-12996274D01*
X15885017Y-13136289D01*
X15957487Y-13261810D01*
X15957489Y-13261812D01*
X15957491Y-13261815D01*
X16059985Y-13364309D01*
X16059987Y-13364310D01*
X16059989Y-13364312D01*
X16185511Y-13436782D01*
X16185512Y-13436782D01*
X16185515Y-13436784D01*
X16325525Y-13474300D01*
X16325526Y-13474300D01*
X16470474Y-13474300D01*
X16470475Y-13474300D01*
X16610485Y-13436784D01*
X16610487Y-13436782D01*
X16610489Y-13436782D01*
X16736010Y-13364312D01*
X16736010Y-13364311D01*
X16736015Y-13364309D01*
X16766522Y-13333802D01*
X16797029Y-13303296D01*
X16851546Y-13275519D01*
X16867032Y-13274300D01*
X18034842Y-13274300D01*
X18034844Y-13274300D01*
X18123988Y-13250414D01*
X18134612Y-13244280D01*
X18203912Y-13204270D01*
X18639597Y-12768583D01*
X18694112Y-12740807D01*
X18754543Y-12750377D01*
X18774696Y-12760646D01*
X18868481Y-12775500D01*
X18985412Y-12775499D01*
X19043601Y-12794406D01*
X19079565Y-12843906D01*
X19079566Y-12905091D01*
X19055414Y-12944503D01*
X18756968Y-13242948D01*
X18731911Y-13261153D01*
X18661660Y-13296948D01*
X18571948Y-13386660D01*
X18536154Y-13456909D01*
X18517949Y-13481967D01*
X16757803Y-15242113D01*
X16703286Y-15269890D01*
X16642854Y-15260319D01*
X16617795Y-15242113D01*
X13536389Y-12160707D01*
X13508612Y-12106190D01*
X13518182Y-12045763D01*
X13519873Y-12042445D01*
X13560530Y-11917317D01*
X13573402Y-11877702D01*
X13600500Y-11706614D01*
X13600500Y-11533385D01*
X13573402Y-11362297D01*
X13573401Y-11362293D01*
X13519876Y-11197561D01*
X13519874Y-11197558D01*
X13519873Y-11197557D01*
X13519873Y-11197555D01*
X13441232Y-11043212D01*
X13339414Y-10903072D01*
X13330843Y-10894501D01*
X13303068Y-10839987D01*
X13312639Y-10779555D01*
X13355904Y-10736290D01*
X13400849Y-10725500D01*
X16789433Y-10725500D01*
X16789435Y-10725500D01*
X16884938Y-10699910D01*
X16884940Y-10699908D01*
X16884942Y-10699908D01*
X16910377Y-10685222D01*
X16970562Y-10650475D01*
X17040475Y-10580562D01*
X17089910Y-10494938D01*
X17115500Y-10399435D01*
X17115500Y-9030565D01*
X17089910Y-8935062D01*
X17089908Y-8935059D01*
X17089908Y-8935057D01*
X17040476Y-8849440D01*
X17040475Y-8849438D01*
X16970562Y-8779525D01*
X16970559Y-8779523D01*
X16884941Y-8730091D01*
X16884943Y-8730091D01*
X16847885Y-8720161D01*
X16789435Y-8704500D01*
X16789433Y-8704500D01*
X16144460Y-8704500D01*
X16086269Y-8685593D01*
X16056250Y-8650445D01*
X15981233Y-8503213D01*
X15953390Y-8464891D01*
X15879414Y-8363072D01*
X15756928Y-8240586D01*
X15616788Y-8138768D01*
X15616787Y-8138767D01*
X15616785Y-8138766D01*
X15462441Y-8060125D01*
X15462438Y-8060123D01*
X15297706Y-8006598D01*
X15297702Y-8006597D01*
X15126614Y-7979500D01*
X15126611Y-7979500D01*
X14953389Y-7979500D01*
X14953386Y-7979500D01*
X14782297Y-8006597D01*
X14782293Y-8006598D01*
X14617561Y-8060123D01*
X14617558Y-8060125D01*
X14463214Y-8138766D01*
X14323073Y-8240585D01*
X14200585Y-8363073D01*
X14098766Y-8503214D01*
X14020125Y-8657558D01*
X14020123Y-8657561D01*
X13966598Y-8822293D01*
X13966597Y-8822297D01*
X13939500Y-8993385D01*
X13939500Y-9166614D01*
X13966597Y-9337702D01*
X13966598Y-9337706D01*
X14020123Y-9502438D01*
X14020125Y-9502441D01*
X14020126Y-9502444D01*
X14020127Y-9502445D01*
X14098768Y-9656788D01*
X14200586Y-9796928D01*
X14209156Y-9805498D01*
X14236932Y-9860013D01*
X14227361Y-9920445D01*
X14184096Y-9963710D01*
X14139151Y-9974500D01*
X13400849Y-9974500D01*
X13342658Y-9955593D01*
X13306694Y-9906093D01*
X13306694Y-9844907D01*
X13330843Y-9805498D01*
X13339414Y-9796928D01*
X13441232Y-9656788D01*
X13519873Y-9502445D01*
X13519874Y-9502440D01*
X13519876Y-9502438D01*
X13573401Y-9337706D01*
X13573402Y-9337702D01*
X13600500Y-9166614D01*
X13600500Y-8993385D01*
X13573402Y-8822297D01*
X13573401Y-8822293D01*
X13519876Y-8657561D01*
X13519874Y-8657558D01*
X13519873Y-8657557D01*
X13519873Y-8657555D01*
X13441232Y-8503212D01*
X13339414Y-8363072D01*
X13216928Y-8240586D01*
X13076788Y-8138768D01*
X13076787Y-8138767D01*
X13076785Y-8138766D01*
X12922441Y-8060125D01*
X12922438Y-8060123D01*
X12757706Y-8006598D01*
X12757702Y-8006597D01*
X12586614Y-7979500D01*
X12586611Y-7979500D01*
X12413389Y-7979500D01*
X12413386Y-7979500D01*
X12242297Y-8006597D01*
X12242293Y-8006598D01*
X12077561Y-8060123D01*
X12077558Y-8060125D01*
X11923214Y-8138766D01*
X11783073Y-8240585D01*
X11660585Y-8363073D01*
X11558766Y-8503214D01*
X11480125Y-8657558D01*
X11480123Y-8657561D01*
X11426598Y-8822293D01*
X11426597Y-8822297D01*
X11399500Y-8993385D01*
X11399500Y-9166614D01*
X11426597Y-9337702D01*
X11426598Y-9337706D01*
X11480123Y-9502438D01*
X11480125Y-9502441D01*
X11480126Y-9502444D01*
X11480127Y-9502445D01*
X11558768Y-9656788D01*
X11660586Y-9796928D01*
X11669156Y-9805498D01*
X11696932Y-9860013D01*
X11687361Y-9920445D01*
X11644096Y-9963710D01*
X11599151Y-9974500D01*
X11274500Y-9974500D01*
X11216309Y-9955593D01*
X11180345Y-9906093D01*
X11175500Y-9875500D01*
X11175500Y-7014500D01*
X11194407Y-6956309D01*
X11243907Y-6920345D01*
X11274500Y-6915500D01*
X11395540Y-6915500D01*
X11453731Y-6934407D01*
X11483750Y-6969555D01*
X11558766Y-7116786D01*
X11614451Y-7193430D01*
X11660586Y-7256928D01*
X11783072Y-7379414D01*
X11923212Y-7481232D01*
X12077555Y-7559873D01*
X12077557Y-7559873D01*
X12077558Y-7559874D01*
X12077561Y-7559876D01*
X12242293Y-7613401D01*
X12242297Y-7613402D01*
X12413386Y-7640500D01*
X12413389Y-7640500D01*
X12586614Y-7640500D01*
X12757702Y-7613402D01*
X12757706Y-7613401D01*
X12922438Y-7559876D01*
X12922440Y-7559874D01*
X12922445Y-7559873D01*
X13076788Y-7481232D01*
X13216928Y-7379414D01*
X13339414Y-7256928D01*
X13441232Y-7116788D01*
X13519873Y-6962445D01*
X13519874Y-6962440D01*
X13519876Y-6962438D01*
X13573401Y-6797706D01*
X13573402Y-6797702D01*
X13600500Y-6626614D01*
X13600500Y-6453385D01*
X13939500Y-6453385D01*
X13939500Y-6626614D01*
X13966597Y-6797702D01*
X13966598Y-6797706D01*
X14020123Y-6962438D01*
X14020125Y-6962441D01*
X14089998Y-7099577D01*
X14098768Y-7116788D01*
X14200586Y-7256928D01*
X14323072Y-7379414D01*
X14463212Y-7481232D01*
X14617555Y-7559873D01*
X14617557Y-7559873D01*
X14617558Y-7559874D01*
X14617561Y-7559876D01*
X14782293Y-7613401D01*
X14782297Y-7613402D01*
X14953386Y-7640500D01*
X14953389Y-7640500D01*
X15126614Y-7640500D01*
X15297702Y-7613402D01*
X15297706Y-7613401D01*
X15462438Y-7559876D01*
X15462440Y-7559874D01*
X15462445Y-7559873D01*
X15616788Y-7481232D01*
X15756928Y-7379414D01*
X15879414Y-7256928D01*
X15981232Y-7116788D01*
X16059873Y-6962445D01*
X16059874Y-6962440D01*
X16059876Y-6962438D01*
X16113401Y-6797706D01*
X16113402Y-6797702D01*
X16140500Y-6626614D01*
X16140500Y-6453385D01*
X16113402Y-6282297D01*
X16113401Y-6282293D01*
X16059876Y-6117561D01*
X16059874Y-6117558D01*
X16059873Y-6117557D01*
X16059873Y-6117555D01*
X15981232Y-5963212D01*
X15879414Y-5823072D01*
X15756928Y-5700586D01*
X15616788Y-5598768D01*
X15616787Y-5598767D01*
X15616785Y-5598766D01*
X15462441Y-5520125D01*
X15462438Y-5520123D01*
X15297706Y-5466598D01*
X15297702Y-5466597D01*
X15126614Y-5439500D01*
X15126611Y-5439500D01*
X14953389Y-5439500D01*
X14953386Y-5439500D01*
X14782297Y-5466597D01*
X14782293Y-5466598D01*
X14617561Y-5520123D01*
X14617558Y-5520125D01*
X14463214Y-5598766D01*
X14323073Y-5700585D01*
X14200585Y-5823073D01*
X14098766Y-5963214D01*
X14020125Y-6117558D01*
X14020123Y-6117561D01*
X13966598Y-6282293D01*
X13966597Y-6282297D01*
X13939500Y-6453385D01*
X13600500Y-6453385D01*
X13573402Y-6282297D01*
X13573401Y-6282293D01*
X13519876Y-6117561D01*
X13519874Y-6117558D01*
X13519873Y-6117557D01*
X13519873Y-6117555D01*
X13441232Y-5963212D01*
X13339414Y-5823072D01*
X13216928Y-5700586D01*
X13076788Y-5598768D01*
X13076787Y-5598767D01*
X13076785Y-5598766D01*
X12922441Y-5520125D01*
X12922438Y-5520123D01*
X12757706Y-5466598D01*
X12757702Y-5466597D01*
X12586614Y-5439500D01*
X12586611Y-5439500D01*
X12413389Y-5439500D01*
X12413386Y-5439500D01*
X12242297Y-5466597D01*
X12242293Y-5466598D01*
X12077561Y-5520123D01*
X12077558Y-5520125D01*
X11923214Y-5598766D01*
X11783073Y-5700585D01*
X11660585Y-5823073D01*
X11558766Y-5963213D01*
X11483750Y-6110445D01*
X11440486Y-6153709D01*
X11395540Y-6164500D01*
X10849435Y-6164500D01*
X10750565Y-6164500D01*
X10676206Y-6184424D01*
X10669852Y-6186127D01*
X10644229Y-6189500D01*
X8539743Y-6189500D01*
X8481552Y-6170593D01*
X8469745Y-6160509D01*
X8368716Y-6059480D01*
X8231784Y-5980423D01*
X8079057Y-5939500D01*
X7920943Y-5939500D01*
X7768216Y-5980423D01*
X7631284Y-6059480D01*
X7519480Y-6171284D01*
X7440423Y-6308216D01*
X7399500Y-6460943D01*
X500500Y-6460943D01*
X500500Y-3913385D01*
X13939500Y-3913385D01*
X13939500Y-4086614D01*
X13966597Y-4257702D01*
X13966598Y-4257706D01*
X14020123Y-4422438D01*
X14020125Y-4422441D01*
X14020126Y-4422444D01*
X14020127Y-4422445D01*
X14098768Y-4576788D01*
X14200586Y-4716928D01*
X14323072Y-4839414D01*
X14463212Y-4941232D01*
X14617555Y-5019873D01*
X14617557Y-5019873D01*
X14617558Y-5019874D01*
X14617561Y-5019876D01*
X14782293Y-5073401D01*
X14782297Y-5073402D01*
X14953386Y-5100500D01*
X14953389Y-5100500D01*
X15126614Y-5100500D01*
X15297702Y-5073402D01*
X15297706Y-5073401D01*
X15462438Y-5019876D01*
X15462440Y-5019874D01*
X15462445Y-5019873D01*
X15616788Y-4941232D01*
X15756928Y-4839414D01*
X15879414Y-4716928D01*
X15981232Y-4576788D01*
X16059873Y-4422445D01*
X16059874Y-4422440D01*
X16059876Y-4422438D01*
X16113401Y-4257706D01*
X16113402Y-4257702D01*
X16140500Y-4086614D01*
X16140500Y-3913385D01*
X16113402Y-3742297D01*
X16113401Y-3742293D01*
X16059876Y-3577561D01*
X16059874Y-3577558D01*
X16059873Y-3577557D01*
X16059873Y-3577555D01*
X15981232Y-3423212D01*
X15879414Y-3283072D01*
X15756928Y-3160586D01*
X15616788Y-3058768D01*
X15616787Y-3058767D01*
X15616785Y-3058766D01*
X15462441Y-2980125D01*
X15462438Y-2980123D01*
X15297706Y-2926598D01*
X15297702Y-2926597D01*
X15126614Y-2899500D01*
X15126611Y-2899500D01*
X14953389Y-2899500D01*
X14953386Y-2899500D01*
X14782297Y-2926597D01*
X14782293Y-2926598D01*
X14617561Y-2980123D01*
X14617558Y-2980125D01*
X14463214Y-3058766D01*
X14323073Y-3160585D01*
X14200585Y-3283073D01*
X14098766Y-3423214D01*
X14020125Y-3577558D01*
X14020123Y-3577561D01*
X13966598Y-3742293D01*
X13966597Y-3742297D01*
X13939500Y-3913385D01*
X500500Y-3913385D01*
X500500Y-599500D01*
X519407Y-541309D01*
X568907Y-505345D01*
X599500Y-500500D01*
X24400500Y-500500D01*
X24458691Y-519407D01*
G37*
%TD.AperFunction*%
%TD*%
M02*
