%TF.GenerationSoftware,KiCad,Pcbnew,10.0.5*%
%TF.CreationDate,2026-08-08T00:49:55+02:00*%
%TF.ProjectId,AIR-PRESSURE,4149522d-5052-4455-9353-5552452e6b69,rev?*%
%TF.SameCoordinates,Original*%
%TF.FileFunction,Copper,L4,Bot*%
%TF.FilePolarity,Positive*%
%FSLAX46Y46*%
G04 Gerber Fmt 4.6, Leading zero omitted, Abs format (unit mm)*
G04 Created by KiCad (PCBNEW 10.0.5) date 2026-08-08 00:49:55*
%MOMM*%
%LPD*%
G01*
G04 APERTURE LIST*
%TA.AperFunction,ComponentPad*%
%ADD10R,1.700000X1.700000*%
%TD*%
%TA.AperFunction,ComponentPad*%
%ADD11C,1.700000*%
%TD*%
%TA.AperFunction,ViaPad*%
%ADD12C,0.600000*%
%TD*%
%TA.AperFunction,ViaPad*%
%ADD13C,0.700000*%
%TD*%
%TA.AperFunction,Conductor*%
%ADD14C,0.200000*%
%TD*%
%TA.AperFunction,Conductor*%
%ADD15C,0.250000*%
%TD*%
G04 APERTURE END LIST*
D10*
%TO.P,J1,1*%
%TO.N,GND*%
X12500000Y-4000000D03*
D11*
%TO.P,J1,2*%
%TO.N,SLOT_5V*%
X15040000Y-4000000D03*
%TO.P,J1,3*%
%TO.N,I2C_SDA*%
X12500000Y-6540000D03*
%TO.P,J1,4*%
%TO.N,I2C_SCL*%
X15040000Y-6540000D03*
%TO.P,J1,5*%
X12500000Y-9080000D03*
%TO.P,J1,6*%
%TO.N,I2C_SDA*%
X15040000Y-9080000D03*
%TO.P,J1,7*%
%TO.N,SLOT_5V*%
X12500000Y-11620000D03*
%TO.P,J1,8*%
%TO.N,GND*%
X15040000Y-11620000D03*
%TD*%
D12*
%TO.N,GND*%
X18950000Y-18598200D03*
%TO.N,MOD_3V3*%
X16398000Y-12923800D03*
X7741300Y-21202500D03*
X17050000Y-19770400D03*
%TO.N,I2C_SCL*%
X10586700Y-19476500D03*
D13*
%TO.N,I2C_SDA*%
X11500000Y-18000000D03*
X8000000Y-6540000D03*
%TD*%
%TO.N,MOD_3V3*%
D14*
X17050000Y-19770400D02*
X17050000Y-13575800D01*
X17050000Y-13575800D02*
X16398000Y-12923800D01*
%TO.N,I2C_SCL*%
D15*
X17240000Y-6540000D02*
X17240000Y-10350000D01*
X10300000Y-10350000D02*
X10300000Y-9080000D01*
X15040000Y-6540000D02*
X17240000Y-6540000D01*
X10300000Y-9080000D02*
X12500000Y-9080000D01*
D14*
X10300000Y-19189800D02*
X10300000Y-10350000D01*
D15*
X17240000Y-10350000D02*
X10300000Y-10350000D01*
D14*
X10586700Y-19476500D02*
X10300000Y-19189800D01*
%TD*%
%TA.AperFunction,Conductor*%
%TO.N,GND*%
G36*
X24458691Y-519407D02*
G01*
X24494655Y-568907D01*
X24499500Y-599500D01*
X24499500Y-24400500D01*
X24480593Y-24458691D01*
X24431093Y-24494655D01*
X24400500Y-24499500D01*
X599500Y-24499500D01*
X541309Y-24480593D01*
X505345Y-24431093D01*
X500500Y-24400500D01*
X500500Y-21130025D01*
X7190800Y-21130025D01*
X7190800Y-21274974D01*
X7228317Y-21414989D01*
X7300787Y-21540510D01*
X7300789Y-21540512D01*
X7300791Y-21540515D01*
X7403285Y-21643009D01*
X7403287Y-21643010D01*
X7403289Y-21643012D01*
X7528811Y-21715482D01*
X7528812Y-21715482D01*
X7528815Y-21715484D01*
X7668825Y-21753000D01*
X7668826Y-21753000D01*
X7813774Y-21753000D01*
X7813775Y-21753000D01*
X7953785Y-21715484D01*
X7953787Y-21715482D01*
X7953789Y-21715482D01*
X8079310Y-21643012D01*
X8079310Y-21643011D01*
X8079315Y-21643009D01*
X8181809Y-21540515D01*
X8254284Y-21414985D01*
X8291800Y-21274975D01*
X8291800Y-21130025D01*
X8254284Y-20990015D01*
X8254282Y-20990012D01*
X8254282Y-20990010D01*
X8181812Y-20864489D01*
X8181810Y-20864487D01*
X8181809Y-20864485D01*
X8079315Y-20761991D01*
X8079312Y-20761989D01*
X8079310Y-20761987D01*
X7953788Y-20689517D01*
X7953789Y-20689517D01*
X7924196Y-20681587D01*
X7813775Y-20652000D01*
X7668825Y-20652000D01*
X7607090Y-20668541D01*
X7528810Y-20689517D01*
X7403289Y-20761987D01*
X7300787Y-20864489D01*
X7228317Y-20990010D01*
X7190800Y-21130025D01*
X500500Y-21130025D01*
X500500Y-9030565D01*
X9924500Y-9030565D01*
X9924500Y-10300565D01*
X9924500Y-10399435D01*
X9946127Y-10480147D01*
X9949500Y-10505770D01*
X9949500Y-19235944D01*
X9949499Y-19235944D01*
X9957021Y-19264011D01*
X9957021Y-19264014D01*
X9957022Y-19264014D01*
X9957022Y-19264015D01*
X9973386Y-19325088D01*
X10019530Y-19405012D01*
X10019531Y-19405013D01*
X10022775Y-19410631D01*
X10020034Y-19412213D01*
X10036165Y-19457723D01*
X10036200Y-19460342D01*
X10036200Y-19548975D01*
X10065787Y-19659396D01*
X10073717Y-19688989D01*
X10146187Y-19814510D01*
X10146189Y-19814512D01*
X10146191Y-19814515D01*
X10248685Y-19917009D01*
X10248687Y-19917010D01*
X10248689Y-19917012D01*
X10374211Y-19989482D01*
X10374212Y-19989482D01*
X10374215Y-19989484D01*
X10514225Y-20027000D01*
X10514226Y-20027000D01*
X10659174Y-20027000D01*
X10659175Y-20027000D01*
X10799185Y-19989484D01*
X10799187Y-19989482D01*
X10799189Y-19989482D01*
X10924710Y-19917012D01*
X10924710Y-19917011D01*
X10924715Y-19917009D01*
X11027209Y-19814515D01*
X11027212Y-19814510D01*
X11099682Y-19688989D01*
X11099682Y-19688987D01*
X11099684Y-19688985D01*
X11137200Y-19548975D01*
X11137200Y-19404025D01*
X11099684Y-19264015D01*
X11099682Y-19264011D01*
X11099682Y-19264010D01*
X11027212Y-19138489D01*
X11027210Y-19138487D01*
X11027209Y-19138485D01*
X10924715Y-19035991D01*
X10924712Y-19035989D01*
X10924710Y-19035987D01*
X10799188Y-18963517D01*
X10799184Y-18963515D01*
X10723876Y-18943336D01*
X10672562Y-18910012D01*
X10650636Y-18852890D01*
X10650500Y-18847710D01*
X10650500Y-17920943D01*
X10899500Y-17920943D01*
X10899500Y-18079057D01*
X10940423Y-18231784D01*
X11019480Y-18368716D01*
X11131284Y-18480520D01*
X11268216Y-18559577D01*
X11420943Y-18600500D01*
X11420945Y-18600500D01*
X11579055Y-18600500D01*
X11579057Y-18600500D01*
X11731784Y-18559577D01*
X11868716Y-18480520D01*
X11980520Y-18368716D01*
X12059577Y-18231784D01*
X12100500Y-18079057D01*
X12100500Y-17920943D01*
X12059577Y-17768216D01*
X11980520Y-17631284D01*
X11868716Y-17519480D01*
X11731784Y-17440423D01*
X11579057Y-17399500D01*
X11420943Y-17399500D01*
X11268216Y-17440423D01*
X11131284Y-17519480D01*
X11019480Y-17631284D01*
X10940423Y-17768216D01*
X10899500Y-17920943D01*
X10650500Y-17920943D01*
X10650500Y-12851325D01*
X15847500Y-12851325D01*
X15847500Y-12996275D01*
X15877087Y-13106696D01*
X15885017Y-13136289D01*
X15957487Y-13261810D01*
X15957489Y-13261812D01*
X15957491Y-13261815D01*
X16059985Y-13364309D01*
X16059987Y-13364310D01*
X16059989Y-13364312D01*
X16185511Y-13436782D01*
X16185512Y-13436782D01*
X16185515Y-13436784D01*
X16325525Y-13474300D01*
X16411811Y-13474300D01*
X16470002Y-13493207D01*
X16481814Y-13503296D01*
X16670503Y-13691984D01*
X16698281Y-13746501D01*
X16699500Y-13761988D01*
X16699500Y-19301368D01*
X16680593Y-19359559D01*
X16670504Y-19371371D01*
X16609491Y-19432384D01*
X16609487Y-19432389D01*
X16537017Y-19557910D01*
X16499500Y-19697925D01*
X16499500Y-19842874D01*
X16537017Y-19982889D01*
X16609487Y-20108410D01*
X16609489Y-20108412D01*
X16609491Y-20108415D01*
X16711985Y-20210909D01*
X16711987Y-20210910D01*
X16711989Y-20210912D01*
X16837511Y-20283382D01*
X16837512Y-20283382D01*
X16837515Y-20283384D01*
X16977525Y-20320900D01*
X16977526Y-20320900D01*
X17122474Y-20320900D01*
X17122475Y-20320900D01*
X17262485Y-20283384D01*
X17262487Y-20283382D01*
X17262489Y-20283382D01*
X17388010Y-20210912D01*
X17388010Y-20210911D01*
X17388015Y-20210909D01*
X17490509Y-20108415D01*
X17559174Y-19989484D01*
X17562982Y-19982889D01*
X17562982Y-19982887D01*
X17562984Y-19982885D01*
X17600500Y-19842875D01*
X17600500Y-19697925D01*
X17562984Y-19557915D01*
X17562982Y-19557912D01*
X17562982Y-19557910D01*
X17490512Y-19432389D01*
X17490508Y-19432384D01*
X17429496Y-19371371D01*
X17401719Y-19316854D01*
X17400500Y-19301368D01*
X17400500Y-13529657D01*
X17400500Y-13529656D01*
X17376614Y-13440512D01*
X17332619Y-13364312D01*
X17330470Y-13360589D01*
X17330468Y-13360587D01*
X17265217Y-13295335D01*
X17265211Y-13295330D01*
X16977496Y-13007614D01*
X16949719Y-12953098D01*
X16948500Y-12937611D01*
X16948500Y-12851325D01*
X16913445Y-12720500D01*
X16910984Y-12711315D01*
X16910982Y-12711312D01*
X16910982Y-12711310D01*
X16838512Y-12585789D01*
X16838510Y-12585787D01*
X16838509Y-12585785D01*
X16736015Y-12483291D01*
X16736012Y-12483289D01*
X16736010Y-12483287D01*
X16610488Y-12410817D01*
X16610489Y-12410817D01*
X16580896Y-12402887D01*
X16470475Y-12373300D01*
X16325525Y-12373300D01*
X16263790Y-12389841D01*
X16185510Y-12410817D01*
X16059989Y-12483287D01*
X15957487Y-12585789D01*
X15885017Y-12711310D01*
X15885016Y-12711315D01*
X15847500Y-12851325D01*
X10650500Y-12851325D01*
X10650500Y-10824500D01*
X10669407Y-10766309D01*
X10718907Y-10730345D01*
X10749500Y-10725500D01*
X11599151Y-10725500D01*
X11657342Y-10744407D01*
X11693306Y-10793907D01*
X11693306Y-10855093D01*
X11669156Y-10894501D01*
X11660586Y-10903072D01*
X11660585Y-10903073D01*
X11558766Y-11043214D01*
X11480125Y-11197558D01*
X11480123Y-11197561D01*
X11426598Y-11362293D01*
X11426597Y-11362297D01*
X11399500Y-11533385D01*
X11399500Y-11706614D01*
X11426597Y-11877702D01*
X11426598Y-11877706D01*
X11480123Y-12042438D01*
X11480125Y-12042441D01*
X11480126Y-12042444D01*
X11480127Y-12042445D01*
X11558768Y-12196788D01*
X11660586Y-12336928D01*
X11783072Y-12459414D01*
X11923212Y-12561232D01*
X12077555Y-12639873D01*
X12077557Y-12639873D01*
X12077558Y-12639874D01*
X12077561Y-12639876D01*
X12242293Y-12693401D01*
X12242297Y-12693402D01*
X12413386Y-12720500D01*
X12413389Y-12720500D01*
X12586614Y-12720500D01*
X12757702Y-12693402D01*
X12757706Y-12693401D01*
X12922438Y-12639876D01*
X12922440Y-12639874D01*
X12922445Y-12639873D01*
X13076788Y-12561232D01*
X13216928Y-12459414D01*
X13339414Y-12336928D01*
X13441232Y-12196788D01*
X13519873Y-12042445D01*
X13519874Y-12042440D01*
X13519876Y-12042438D01*
X13573401Y-11877706D01*
X13573402Y-11877702D01*
X13600500Y-11706614D01*
X13600500Y-11533385D01*
X13573402Y-11362297D01*
X13573401Y-11362293D01*
X13519876Y-11197561D01*
X13519874Y-11197558D01*
X13519873Y-11197557D01*
X13519873Y-11197555D01*
X13441232Y-11043212D01*
X13339414Y-10903072D01*
X13330843Y-10894501D01*
X13303068Y-10839987D01*
X13312639Y-10779555D01*
X13355904Y-10736290D01*
X13400849Y-10725500D01*
X17289433Y-10725500D01*
X17289435Y-10725500D01*
X17384938Y-10699910D01*
X17384940Y-10699908D01*
X17384942Y-10699908D01*
X17410377Y-10685222D01*
X17470562Y-10650475D01*
X17540475Y-10580562D01*
X17589910Y-10494938D01*
X17615500Y-10399435D01*
X17615500Y-6490565D01*
X17589910Y-6395062D01*
X17589908Y-6395059D01*
X17589908Y-6395057D01*
X17540476Y-6309440D01*
X17540475Y-6309438D01*
X17470562Y-6239525D01*
X17470559Y-6239523D01*
X17384941Y-6190091D01*
X17384943Y-6190091D01*
X17347885Y-6180161D01*
X17289435Y-6164500D01*
X17289433Y-6164500D01*
X16144460Y-6164500D01*
X16086269Y-6145593D01*
X16056250Y-6110445D01*
X15981233Y-5963213D01*
X15953390Y-5924891D01*
X15879414Y-5823072D01*
X15756928Y-5700586D01*
X15616788Y-5598768D01*
X15616787Y-5598767D01*
X15616785Y-5598766D01*
X15462441Y-5520125D01*
X15462438Y-5520123D01*
X15297706Y-5466598D01*
X15297702Y-5466597D01*
X15126614Y-5439500D01*
X15126611Y-5439500D01*
X14953389Y-5439500D01*
X14953386Y-5439500D01*
X14782297Y-5466597D01*
X14782293Y-5466598D01*
X14617561Y-5520123D01*
X14617558Y-5520125D01*
X14463214Y-5598766D01*
X14323073Y-5700585D01*
X14200585Y-5823073D01*
X14098766Y-5963214D01*
X14020125Y-6117558D01*
X14020123Y-6117561D01*
X13966598Y-6282293D01*
X13966597Y-6282297D01*
X13939500Y-6453385D01*
X13939500Y-6626614D01*
X13966597Y-6797702D01*
X13966598Y-6797706D01*
X14020123Y-6962438D01*
X14020125Y-6962441D01*
X14089998Y-7099577D01*
X14098768Y-7116788D01*
X14200586Y-7256928D01*
X14323072Y-7379414D01*
X14463212Y-7481232D01*
X14617555Y-7559873D01*
X14617557Y-7559873D01*
X14617558Y-7559874D01*
X14617561Y-7559876D01*
X14782293Y-7613401D01*
X14782297Y-7613402D01*
X14953386Y-7640500D01*
X14953389Y-7640500D01*
X15126614Y-7640500D01*
X15297702Y-7613402D01*
X15297706Y-7613401D01*
X15462438Y-7559876D01*
X15462440Y-7559874D01*
X15462445Y-7559873D01*
X15616788Y-7481232D01*
X15756928Y-7379414D01*
X15879414Y-7256928D01*
X15981232Y-7116788D01*
X16056250Y-6969554D01*
X16099514Y-6926291D01*
X16144460Y-6915500D01*
X16765500Y-6915500D01*
X16823691Y-6934407D01*
X16859655Y-6983907D01*
X16864500Y-7014500D01*
X16864500Y-9875500D01*
X16845593Y-9933691D01*
X16796093Y-9969655D01*
X16765500Y-9974500D01*
X15940849Y-9974500D01*
X15882658Y-9955593D01*
X15846694Y-9906093D01*
X15846694Y-9844907D01*
X15870843Y-9805498D01*
X15879414Y-9796928D01*
X15981232Y-9656788D01*
X16059873Y-9502445D01*
X16059874Y-9502440D01*
X16059876Y-9502438D01*
X16113401Y-9337706D01*
X16113402Y-9337702D01*
X16140500Y-9166614D01*
X16140500Y-8993385D01*
X16113402Y-8822297D01*
X16113401Y-8822293D01*
X16059876Y-8657561D01*
X16059874Y-8657558D01*
X16059873Y-8657557D01*
X16059873Y-8657555D01*
X15981232Y-8503212D01*
X15879414Y-8363072D01*
X15756928Y-8240586D01*
X15616788Y-8138768D01*
X15616787Y-8138767D01*
X15616785Y-8138766D01*
X15462441Y-8060125D01*
X15462438Y-8060123D01*
X15297706Y-8006598D01*
X15297702Y-8006597D01*
X15126614Y-7979500D01*
X15126611Y-7979500D01*
X14953389Y-7979500D01*
X14953386Y-7979500D01*
X14782297Y-8006597D01*
X14782293Y-8006598D01*
X14617561Y-8060123D01*
X14617558Y-8060125D01*
X14463214Y-8138766D01*
X14323073Y-8240585D01*
X14200585Y-8363073D01*
X14098766Y-8503214D01*
X14020125Y-8657558D01*
X14020123Y-8657561D01*
X13966598Y-8822293D01*
X13966597Y-8822297D01*
X13939500Y-8993385D01*
X13939500Y-9166614D01*
X13966597Y-9337702D01*
X13966598Y-9337706D01*
X14020123Y-9502438D01*
X14020125Y-9502441D01*
X14020126Y-9502444D01*
X14020127Y-9502445D01*
X14098768Y-9656788D01*
X14200586Y-9796928D01*
X14209156Y-9805498D01*
X14236932Y-9860013D01*
X14227361Y-9920445D01*
X14184096Y-9963710D01*
X14139151Y-9974500D01*
X13400849Y-9974500D01*
X13342658Y-9955593D01*
X13306694Y-9906093D01*
X13306694Y-9844907D01*
X13330843Y-9805498D01*
X13339414Y-9796928D01*
X13441232Y-9656788D01*
X13519873Y-9502445D01*
X13519874Y-9502440D01*
X13519876Y-9502438D01*
X13573401Y-9337706D01*
X13573402Y-9337702D01*
X13600500Y-9166614D01*
X13600500Y-8993385D01*
X13573402Y-8822297D01*
X13573401Y-8822293D01*
X13519876Y-8657561D01*
X13519874Y-8657558D01*
X13519873Y-8657557D01*
X13519873Y-8657555D01*
X13441232Y-8503212D01*
X13339414Y-8363072D01*
X13216928Y-8240586D01*
X13076788Y-8138768D01*
X13076787Y-8138767D01*
X13076785Y-8138766D01*
X12922441Y-8060125D01*
X12922438Y-8060123D01*
X12757706Y-8006598D01*
X12757702Y-8006597D01*
X12586614Y-7979500D01*
X12586611Y-7979500D01*
X12413389Y-7979500D01*
X12413386Y-7979500D01*
X12242297Y-8006597D01*
X12242293Y-8006598D01*
X12077561Y-8060123D01*
X12077558Y-8060125D01*
X11923214Y-8138766D01*
X11783073Y-8240585D01*
X11660585Y-8363073D01*
X11558766Y-8503213D01*
X11483750Y-8650445D01*
X11440486Y-8693709D01*
X11395540Y-8704500D01*
X10349435Y-8704500D01*
X10250565Y-8704500D01*
X10192114Y-8720161D01*
X10155057Y-8730091D01*
X10069440Y-8779523D01*
X9999523Y-8849440D01*
X9950091Y-8935057D01*
X9950090Y-8935062D01*
X9924500Y-9030565D01*
X500500Y-9030565D01*
X500500Y-6460943D01*
X7399500Y-6460943D01*
X7399500Y-6619057D01*
X7440423Y-6771784D01*
X7519480Y-6908716D01*
X7631284Y-7020520D01*
X7768216Y-7099577D01*
X7920943Y-7140500D01*
X7920945Y-7140500D01*
X8079055Y-7140500D01*
X8079057Y-7140500D01*
X8231784Y-7099577D01*
X8368716Y-7020520D01*
X8480520Y-6908716D01*
X8559577Y-6771784D01*
X8600500Y-6619057D01*
X8600500Y-6460943D01*
X8598475Y-6453385D01*
X11399500Y-6453385D01*
X11399500Y-6626614D01*
X11426597Y-6797702D01*
X11426598Y-6797706D01*
X11480123Y-6962438D01*
X11480125Y-6962441D01*
X11549998Y-7099577D01*
X11558768Y-7116788D01*
X11660586Y-7256928D01*
X11783072Y-7379414D01*
X11923212Y-7481232D01*
X12077555Y-7559873D01*
X12077557Y-7559873D01*
X12077558Y-7559874D01*
X12077561Y-7559876D01*
X12242293Y-7613401D01*
X12242297Y-7613402D01*
X12413386Y-7640500D01*
X12413389Y-7640500D01*
X12586614Y-7640500D01*
X12757702Y-7613402D01*
X12757706Y-7613401D01*
X12922438Y-7559876D01*
X12922440Y-7559874D01*
X12922445Y-7559873D01*
X13076788Y-7481232D01*
X13216928Y-7379414D01*
X13339414Y-7256928D01*
X13441232Y-7116788D01*
X13519873Y-6962445D01*
X13519874Y-6962440D01*
X13519876Y-6962438D01*
X13573401Y-6797706D01*
X13573402Y-6797702D01*
X13600500Y-6626614D01*
X13600500Y-6453385D01*
X13573402Y-6282297D01*
X13573401Y-6282293D01*
X13519876Y-6117561D01*
X13519874Y-6117558D01*
X13519873Y-6117557D01*
X13519873Y-6117555D01*
X13441232Y-5963212D01*
X13339414Y-5823072D01*
X13216928Y-5700586D01*
X13076788Y-5598768D01*
X13076787Y-5598767D01*
X13076785Y-5598766D01*
X12922441Y-5520125D01*
X12922438Y-5520123D01*
X12757706Y-5466598D01*
X12757702Y-5466597D01*
X12586614Y-5439500D01*
X12586611Y-5439500D01*
X12413389Y-5439500D01*
X12413386Y-5439500D01*
X12242297Y-5466597D01*
X12242293Y-5466598D01*
X12077561Y-5520123D01*
X12077558Y-5520125D01*
X11923214Y-5598766D01*
X11783073Y-5700585D01*
X11660585Y-5823073D01*
X11558766Y-5963214D01*
X11480125Y-6117558D01*
X11480123Y-6117561D01*
X11426598Y-6282293D01*
X11426597Y-6282297D01*
X11399500Y-6453385D01*
X8598475Y-6453385D01*
X8559577Y-6308216D01*
X8480520Y-6171284D01*
X8368716Y-6059480D01*
X8231784Y-5980423D01*
X8079057Y-5939500D01*
X7920943Y-5939500D01*
X7768216Y-5980423D01*
X7631284Y-6059480D01*
X7519480Y-6171284D01*
X7440423Y-6308216D01*
X7399500Y-6460943D01*
X500500Y-6460943D01*
X500500Y-3913385D01*
X13939500Y-3913385D01*
X13939500Y-4086614D01*
X13966597Y-4257702D01*
X13966598Y-4257706D01*
X14020123Y-4422438D01*
X14020125Y-4422441D01*
X14020126Y-4422444D01*
X14020127Y-4422445D01*
X14098768Y-4576788D01*
X14200586Y-4716928D01*
X14323072Y-4839414D01*
X14463212Y-4941232D01*
X14617555Y-5019873D01*
X14617557Y-5019873D01*
X14617558Y-5019874D01*
X14617561Y-5019876D01*
X14782293Y-5073401D01*
X14782297Y-5073402D01*
X14953386Y-5100500D01*
X14953389Y-5100500D01*
X15126614Y-5100500D01*
X15297702Y-5073402D01*
X15297706Y-5073401D01*
X15462438Y-5019876D01*
X15462440Y-5019874D01*
X15462445Y-5019873D01*
X15616788Y-4941232D01*
X15756928Y-4839414D01*
X15879414Y-4716928D01*
X15981232Y-4576788D01*
X16059873Y-4422445D01*
X16059874Y-4422440D01*
X16059876Y-4422438D01*
X16113401Y-4257706D01*
X16113402Y-4257702D01*
X16140500Y-4086614D01*
X16140500Y-3913385D01*
X16113402Y-3742297D01*
X16113401Y-3742293D01*
X16059876Y-3577561D01*
X16059874Y-3577558D01*
X16059873Y-3577557D01*
X16059873Y-3577555D01*
X15981232Y-3423212D01*
X15879414Y-3283072D01*
X15756928Y-3160586D01*
X15616788Y-3058768D01*
X15616787Y-3058767D01*
X15616785Y-3058766D01*
X15462441Y-2980125D01*
X15462438Y-2980123D01*
X15297706Y-2926598D01*
X15297702Y-2926597D01*
X15126614Y-2899500D01*
X15126611Y-2899500D01*
X14953389Y-2899500D01*
X14953386Y-2899500D01*
X14782297Y-2926597D01*
X14782293Y-2926598D01*
X14617561Y-2980123D01*
X14617558Y-2980125D01*
X14463214Y-3058766D01*
X14323073Y-3160585D01*
X14200585Y-3283073D01*
X14098766Y-3423214D01*
X14020125Y-3577558D01*
X14020123Y-3577561D01*
X13966598Y-3742293D01*
X13966597Y-3742297D01*
X13939500Y-3913385D01*
X500500Y-3913385D01*
X500500Y-599500D01*
X519407Y-541309D01*
X568907Y-505345D01*
X599500Y-500500D01*
X24400500Y-500500D01*
X24458691Y-519407D01*
G37*
%TD.AperFunction*%
%TD*%
M02*
