%TF.GenerationSoftware,KiCad,Pcbnew,10.0.5*%
%TF.CreationDate,2026-08-08T00:49:55+02:00*%
%TF.ProjectId,AIR-PRESSURE,4149522d-5052-4455-9353-5552452e6b69,rev?*%
%TF.SameCoordinates,Original*%
%TF.FileFunction,Legend,Top*%
%TF.FilePolarity,Positive*%
%FSLAX46Y46*%
G04 Gerber Fmt 4.6, Leading zero omitted, Abs format (unit mm)*
G04 Created by KiCad (PCBNEW 10.0.5) date 2026-08-08 00:49:55*
%MOMM*%
%LPD*%
G01*
G04 APERTURE LIST*
%ADD10C,0.100000*%
%ADD11C,0.120000*%
%ADD12C,0.060000*%
G04 APERTURE END LIST*
D10*
X5611903Y-1249240D02*
X5611903Y-699240D01*
X5611903Y-699240D02*
X5821427Y-699240D01*
X5821427Y-699240D02*
X5873808Y-725430D01*
X5873808Y-725430D02*
X5899998Y-751621D01*
X5899998Y-751621D02*
X5926189Y-804002D01*
X5926189Y-804002D02*
X5926189Y-882573D01*
X5926189Y-882573D02*
X5899998Y-934954D01*
X5899998Y-934954D02*
X5873808Y-961145D01*
X5873808Y-961145D02*
X5821427Y-987335D01*
X5821427Y-987335D02*
X5611903Y-987335D01*
X6476189Y-1249240D02*
X6292855Y-987335D01*
X6161903Y-1249240D02*
X6161903Y-699240D01*
X6161903Y-699240D02*
X6371427Y-699240D01*
X6371427Y-699240D02*
X6423808Y-725430D01*
X6423808Y-725430D02*
X6449998Y-751621D01*
X6449998Y-751621D02*
X6476189Y-804002D01*
X6476189Y-804002D02*
X6476189Y-882573D01*
X6476189Y-882573D02*
X6449998Y-934954D01*
X6449998Y-934954D02*
X6423808Y-961145D01*
X6423808Y-961145D02*
X6371427Y-987335D01*
X6371427Y-987335D02*
X6161903Y-987335D01*
X6711903Y-961145D02*
X6895236Y-961145D01*
X6973808Y-1249240D02*
X6711903Y-1249240D01*
X6711903Y-1249240D02*
X6711903Y-699240D01*
X6711903Y-699240D02*
X6973808Y-699240D01*
X7183331Y-1223050D02*
X7261903Y-1249240D01*
X7261903Y-1249240D02*
X7392855Y-1249240D01*
X7392855Y-1249240D02*
X7445236Y-1223050D01*
X7445236Y-1223050D02*
X7471427Y-1196859D01*
X7471427Y-1196859D02*
X7497617Y-1144478D01*
X7497617Y-1144478D02*
X7497617Y-1092097D01*
X7497617Y-1092097D02*
X7471427Y-1039716D01*
X7471427Y-1039716D02*
X7445236Y-1013526D01*
X7445236Y-1013526D02*
X7392855Y-987335D01*
X7392855Y-987335D02*
X7288093Y-961145D01*
X7288093Y-961145D02*
X7235712Y-934954D01*
X7235712Y-934954D02*
X7209522Y-908764D01*
X7209522Y-908764D02*
X7183331Y-856383D01*
X7183331Y-856383D02*
X7183331Y-804002D01*
X7183331Y-804002D02*
X7209522Y-751621D01*
X7209522Y-751621D02*
X7235712Y-725430D01*
X7235712Y-725430D02*
X7288093Y-699240D01*
X7288093Y-699240D02*
X7419046Y-699240D01*
X7419046Y-699240D02*
X7497617Y-725430D01*
X7707141Y-1223050D02*
X7785713Y-1249240D01*
X7785713Y-1249240D02*
X7916665Y-1249240D01*
X7916665Y-1249240D02*
X7969046Y-1223050D01*
X7969046Y-1223050D02*
X7995237Y-1196859D01*
X7995237Y-1196859D02*
X8021427Y-1144478D01*
X8021427Y-1144478D02*
X8021427Y-1092097D01*
X8021427Y-1092097D02*
X7995237Y-1039716D01*
X7995237Y-1039716D02*
X7969046Y-1013526D01*
X7969046Y-1013526D02*
X7916665Y-987335D01*
X7916665Y-987335D02*
X7811903Y-961145D01*
X7811903Y-961145D02*
X7759522Y-934954D01*
X7759522Y-934954D02*
X7733332Y-908764D01*
X7733332Y-908764D02*
X7707141Y-856383D01*
X7707141Y-856383D02*
X7707141Y-804002D01*
X7707141Y-804002D02*
X7733332Y-751621D01*
X7733332Y-751621D02*
X7759522Y-725430D01*
X7759522Y-725430D02*
X7811903Y-699240D01*
X7811903Y-699240D02*
X7942856Y-699240D01*
X7942856Y-699240D02*
X8021427Y-725430D01*
X8257142Y-699240D02*
X8257142Y-1144478D01*
X8257142Y-1144478D02*
X8283332Y-1196859D01*
X8283332Y-1196859D02*
X8309523Y-1223050D01*
X8309523Y-1223050D02*
X8361904Y-1249240D01*
X8361904Y-1249240D02*
X8466666Y-1249240D01*
X8466666Y-1249240D02*
X8519047Y-1223050D01*
X8519047Y-1223050D02*
X8545237Y-1196859D01*
X8545237Y-1196859D02*
X8571428Y-1144478D01*
X8571428Y-1144478D02*
X8571428Y-699240D01*
X9147618Y-1249240D02*
X8964284Y-987335D01*
X8833332Y-1249240D02*
X8833332Y-699240D01*
X8833332Y-699240D02*
X9042856Y-699240D01*
X9042856Y-699240D02*
X9095237Y-725430D01*
X9095237Y-725430D02*
X9121427Y-751621D01*
X9121427Y-751621D02*
X9147618Y-804002D01*
X9147618Y-804002D02*
X9147618Y-882573D01*
X9147618Y-882573D02*
X9121427Y-934954D01*
X9121427Y-934954D02*
X9095237Y-961145D01*
X9095237Y-961145D02*
X9042856Y-987335D01*
X9042856Y-987335D02*
X8833332Y-987335D01*
X9383332Y-961145D02*
X9566665Y-961145D01*
X9645237Y-1249240D02*
X9383332Y-1249240D01*
X9383332Y-1249240D02*
X9383332Y-699240D01*
X9383332Y-699240D02*
X9645237Y-699240D01*
X10692856Y-673050D02*
X10221427Y-1380192D01*
X11478570Y-961145D02*
X11557142Y-987335D01*
X11557142Y-987335D02*
X11583332Y-1013526D01*
X11583332Y-1013526D02*
X11609523Y-1065907D01*
X11609523Y-1065907D02*
X11609523Y-1144478D01*
X11609523Y-1144478D02*
X11583332Y-1196859D01*
X11583332Y-1196859D02*
X11557142Y-1223050D01*
X11557142Y-1223050D02*
X11504761Y-1249240D01*
X11504761Y-1249240D02*
X11295237Y-1249240D01*
X11295237Y-1249240D02*
X11295237Y-699240D01*
X11295237Y-699240D02*
X11478570Y-699240D01*
X11478570Y-699240D02*
X11530951Y-725430D01*
X11530951Y-725430D02*
X11557142Y-751621D01*
X11557142Y-751621D02*
X11583332Y-804002D01*
X11583332Y-804002D02*
X11583332Y-856383D01*
X11583332Y-856383D02*
X11557142Y-908764D01*
X11557142Y-908764D02*
X11530951Y-934954D01*
X11530951Y-934954D02*
X11478570Y-961145D01*
X11478570Y-961145D02*
X11295237Y-961145D01*
X11845237Y-1249240D02*
X11845237Y-699240D01*
X11845237Y-699240D02*
X12028570Y-1092097D01*
X12028570Y-1092097D02*
X12211904Y-699240D01*
X12211904Y-699240D02*
X12211904Y-1249240D01*
X12473808Y-1249240D02*
X12473808Y-699240D01*
X12473808Y-699240D02*
X12683332Y-699240D01*
X12683332Y-699240D02*
X12735713Y-725430D01*
X12735713Y-725430D02*
X12761903Y-751621D01*
X12761903Y-751621D02*
X12788094Y-804002D01*
X12788094Y-804002D02*
X12788094Y-882573D01*
X12788094Y-882573D02*
X12761903Y-934954D01*
X12761903Y-934954D02*
X12735713Y-961145D01*
X12735713Y-961145D02*
X12683332Y-987335D01*
X12683332Y-987335D02*
X12473808Y-987335D01*
X12971427Y-699240D02*
X13311903Y-699240D01*
X13311903Y-699240D02*
X13128570Y-908764D01*
X13128570Y-908764D02*
X13207141Y-908764D01*
X13207141Y-908764D02*
X13259522Y-934954D01*
X13259522Y-934954D02*
X13285713Y-961145D01*
X13285713Y-961145D02*
X13311903Y-1013526D01*
X13311903Y-1013526D02*
X13311903Y-1144478D01*
X13311903Y-1144478D02*
X13285713Y-1196859D01*
X13285713Y-1196859D02*
X13259522Y-1223050D01*
X13259522Y-1223050D02*
X13207141Y-1249240D01*
X13207141Y-1249240D02*
X13049998Y-1249240D01*
X13049998Y-1249240D02*
X12997617Y-1223050D01*
X12997617Y-1223050D02*
X12971427Y-1196859D01*
X13573808Y-1249240D02*
X13678570Y-1249240D01*
X13678570Y-1249240D02*
X13730951Y-1223050D01*
X13730951Y-1223050D02*
X13757142Y-1196859D01*
X13757142Y-1196859D02*
X13809523Y-1118288D01*
X13809523Y-1118288D02*
X13835713Y-1013526D01*
X13835713Y-1013526D02*
X13835713Y-804002D01*
X13835713Y-804002D02*
X13809523Y-751621D01*
X13809523Y-751621D02*
X13783332Y-725430D01*
X13783332Y-725430D02*
X13730951Y-699240D01*
X13730951Y-699240D02*
X13626189Y-699240D01*
X13626189Y-699240D02*
X13573808Y-725430D01*
X13573808Y-725430D02*
X13547618Y-751621D01*
X13547618Y-751621D02*
X13521427Y-804002D01*
X13521427Y-804002D02*
X13521427Y-934954D01*
X13521427Y-934954D02*
X13547618Y-987335D01*
X13547618Y-987335D02*
X13573808Y-1013526D01*
X13573808Y-1013526D02*
X13626189Y-1039716D01*
X13626189Y-1039716D02*
X13730951Y-1039716D01*
X13730951Y-1039716D02*
X13783332Y-1013526D01*
X13783332Y-1013526D02*
X13809523Y-987335D01*
X13809523Y-987335D02*
X13835713Y-934954D01*
X14176190Y-699240D02*
X14228571Y-699240D01*
X14228571Y-699240D02*
X14280952Y-725430D01*
X14280952Y-725430D02*
X14307142Y-751621D01*
X14307142Y-751621D02*
X14333333Y-804002D01*
X14333333Y-804002D02*
X14359523Y-908764D01*
X14359523Y-908764D02*
X14359523Y-1039716D01*
X14359523Y-1039716D02*
X14333333Y-1144478D01*
X14333333Y-1144478D02*
X14307142Y-1196859D01*
X14307142Y-1196859D02*
X14280952Y-1223050D01*
X14280952Y-1223050D02*
X14228571Y-1249240D01*
X14228571Y-1249240D02*
X14176190Y-1249240D01*
X14176190Y-1249240D02*
X14123809Y-1223050D01*
X14123809Y-1223050D02*
X14097618Y-1196859D01*
X14097618Y-1196859D02*
X14071428Y-1144478D01*
X14071428Y-1144478D02*
X14045237Y-1039716D01*
X14045237Y-1039716D02*
X14045237Y-908764D01*
X14045237Y-908764D02*
X14071428Y-804002D01*
X14071428Y-804002D02*
X14097618Y-751621D01*
X14097618Y-751621D02*
X14123809Y-725430D01*
X14123809Y-725430D02*
X14176190Y-699240D01*
X15145238Y-1432573D02*
X15145238Y-646859D01*
X15904763Y-699240D02*
X16271430Y-1249240D01*
X16271430Y-699240D02*
X15904763Y-1249240D01*
X16480954Y-961145D02*
X16664287Y-961145D01*
X16742859Y-1249240D02*
X16480954Y-1249240D01*
X16480954Y-1249240D02*
X16480954Y-699240D01*
X16480954Y-699240D02*
X16742859Y-699240D01*
X17292859Y-1249240D02*
X17109525Y-987335D01*
X16978573Y-1249240D02*
X16978573Y-699240D01*
X16978573Y-699240D02*
X17188097Y-699240D01*
X17188097Y-699240D02*
X17240478Y-725430D01*
X17240478Y-725430D02*
X17266668Y-751621D01*
X17266668Y-751621D02*
X17292859Y-804002D01*
X17292859Y-804002D02*
X17292859Y-882573D01*
X17292859Y-882573D02*
X17266668Y-934954D01*
X17266668Y-934954D02*
X17240478Y-961145D01*
X17240478Y-961145D02*
X17188097Y-987335D01*
X17188097Y-987335D02*
X16978573Y-987335D01*
X17633335Y-699240D02*
X17738097Y-699240D01*
X17738097Y-699240D02*
X17790478Y-725430D01*
X17790478Y-725430D02*
X17842859Y-777811D01*
X17842859Y-777811D02*
X17869049Y-882573D01*
X17869049Y-882573D02*
X17869049Y-1065907D01*
X17869049Y-1065907D02*
X17842859Y-1170669D01*
X17842859Y-1170669D02*
X17790478Y-1223050D01*
X17790478Y-1223050D02*
X17738097Y-1249240D01*
X17738097Y-1249240D02*
X17633335Y-1249240D01*
X17633335Y-1249240D02*
X17580954Y-1223050D01*
X17580954Y-1223050D02*
X17528573Y-1170669D01*
X17528573Y-1170669D02*
X17502382Y-1065907D01*
X17502382Y-1065907D02*
X17502382Y-882573D01*
X17502382Y-882573D02*
X17528573Y-777811D01*
X17528573Y-777811D02*
X17580954Y-725430D01*
X17580954Y-725430D02*
X17633335Y-699240D01*
X18366668Y-1249240D02*
X18104763Y-1249240D01*
X18104763Y-1249240D02*
X18104763Y-699240D01*
X18550001Y-699240D02*
X18550001Y-1144478D01*
X18550001Y-1144478D02*
X18576191Y-1196859D01*
X18576191Y-1196859D02*
X18602382Y-1223050D01*
X18602382Y-1223050D02*
X18654763Y-1249240D01*
X18654763Y-1249240D02*
X18759525Y-1249240D01*
X18759525Y-1249240D02*
X18811906Y-1223050D01*
X18811906Y-1223050D02*
X18838096Y-1196859D01*
X18838096Y-1196859D02*
X18864287Y-1144478D01*
X18864287Y-1144478D02*
X18864287Y-699240D01*
X19073810Y-699240D02*
X19440477Y-1249240D01*
X19440477Y-699240D02*
X19073810Y-1249240D01*
%TO.C,C3*%
D11*
X17738748Y-16265000D02*
X18261252Y-16265000D01*
X17738748Y-17735000D02*
X18261252Y-17735000D01*
%TO.C,C4*%
X17738748Y-20265000D02*
X18261252Y-20265000D01*
X17738748Y-21735000D02*
X18261252Y-21735000D01*
%TO.C,U2*%
X18440000Y-12090000D02*
X18490000Y-12090000D01*
X18440000Y-13910000D02*
X18440000Y-12090000D01*
X18490000Y-13910000D02*
X18440000Y-13910000D01*
X19610000Y-12090000D02*
X20390000Y-12090000D01*
X21510000Y-12090000D02*
X21560000Y-12090000D01*
X21560000Y-12090000D02*
X21560000Y-13910000D01*
X21560000Y-13910000D02*
X21510000Y-13910000D01*
X18490000Y-14450000D02*
X18160000Y-14690000D01*
X18160000Y-14210000D01*
X18490000Y-14450000D01*
G36*
X18490000Y-14450000D02*
G01*
X18160000Y-14690000D01*
X18160000Y-14210000D01*
X18490000Y-14450000D01*
G37*
%TO.C,U1*%
D10*
X8900000Y-16900000D02*
X8900000Y-17400000D01*
X8900000Y-18400000D02*
X8900000Y-19100000D01*
X8900000Y-19100000D02*
X9600000Y-19100000D01*
X9600000Y-16900000D02*
X8900000Y-16900000D01*
X10400000Y-16900000D02*
X11100000Y-16900000D01*
X10400000Y-19100000D02*
X11100000Y-19100000D01*
X11100000Y-16900000D02*
X11100000Y-17400000D01*
X11100000Y-19100000D02*
X11100000Y-18400000D01*
D12*
X9030000Y-19000000D02*
G75*
G02*
X8970000Y-19000000I-30000J0D01*
G01*
X8970000Y-19000000D02*
G75*
G02*
X9030000Y-19000000I30000J0D01*
G01*
D10*
X9450000Y-19260000D02*
G75*
G02*
X9190000Y-19260000I-130000J0D01*
G01*
X9190000Y-19260000D02*
G75*
G02*
X9450000Y-19260000I130000J0D01*
G01*
%TO.C,C2*%
D11*
X9859420Y-21490000D02*
X10140580Y-21490000D01*
X9859420Y-22510000D02*
X10140580Y-22510000D01*
%TO.C,C1*%
X5859420Y-21490000D02*
X6140580Y-21490000D01*
X5859420Y-22510000D02*
X6140580Y-22510000D01*
%TD*%
M02*
