%TF.GenerationSoftware,KiCad,Pcbnew,10.0.5*%
%TF.CreationDate,2026-08-08T00:49:42+02:00*%
%TF.ProjectId,AIR-CO2,4149522d-434f-4322-9e6b-696361645f70,rev?*%
%TF.SameCoordinates,Original*%
%TF.FileFunction,Copper,L2,Inr*%
%TF.FilePolarity,Positive*%
%FSLAX46Y46*%
G04 Gerber Fmt 4.6, Leading zero omitted, Abs format (unit mm)*
G04 Created by KiCad (PCBNEW 10.0.5) date 2026-08-08 00:49:42*
%MOMM*%
%LPD*%
G01*
G04 APERTURE LIST*
%TA.AperFunction,ComponentPad*%
%ADD10R,1.700000X1.700000*%
%TD*%
%TA.AperFunction,ComponentPad*%
%ADD11C,1.700000*%
%TD*%
%TA.AperFunction,ViaPad*%
%ADD12C,0.600000*%
%TD*%
%TA.AperFunction,Conductor*%
%ADD13C,0.250000*%
%TD*%
%TA.AperFunction,Conductor*%
%ADD14C,0.200000*%
%TD*%
G04 APERTURE END LIST*
D10*
%TO.N,GND*%
%TO.C,J1*%
X12500000Y-4000000D03*
D11*
%TO.N,SLOT_5V*%
X15040000Y-4000000D03*
%TO.N,I2C_SDA*%
X12500000Y-6540000D03*
%TO.N,I2C_SCL*%
X15040000Y-6540000D03*
X12500000Y-9080000D03*
%TO.N,I2C_SDA*%
X15040000Y-9080000D03*
%TO.N,SLOT_5V*%
X12500000Y-11620000D03*
%TO.N,GND*%
X15040000Y-11620000D03*
%TD*%
D12*
%TO.N,GND*%
X18450000Y-17728100D03*
X5209100Y-23760800D03*
%TO.N,MOD_3V3*%
X6021700Y-13220000D03*
X6459100Y-23756000D03*
X16955600Y-20730600D03*
X16367900Y-12923800D03*
%TO.N,I2C_SCL*%
X9050000Y-23757800D03*
%TO.N,I2C_SDA*%
X10822700Y-23551700D03*
%TD*%
%TO.N,GND*%
D13*
X10500000Y-4000000D02*
X10500000Y-14520000D01*
X12500000Y-4000000D02*
X10500000Y-4000000D01*
D14*
X17040000Y-16318100D02*
X17040000Y-14520000D01*
D13*
X17040000Y-11620000D02*
X15040000Y-11620000D01*
X17040000Y-14520000D02*
X17040000Y-11620000D01*
X10500000Y-14520000D02*
X17040000Y-14520000D01*
D14*
X18450000Y-17728100D02*
X17040000Y-16318100D01*
%TO.N,MOD_3V3*%
X6021700Y-13220000D02*
X6021700Y-23318600D01*
X6021700Y-23318600D02*
X6459100Y-23756000D01*
%TO.N,I2C_SDA*%
X15162800Y-9080000D02*
X15040000Y-9080000D01*
X15963500Y-18410900D02*
X18664400Y-18410900D01*
X18664400Y-18410900D02*
X19097500Y-17977800D01*
X19097500Y-13014700D02*
X15162800Y-9080000D01*
X10822700Y-23551700D02*
X15963500Y-18410900D01*
X19097500Y-17977800D02*
X19097500Y-13014700D01*
%TD*%
M02*
