%TF.GenerationSoftware,KiCad,Pcbnew,10.0.5*%
%TF.CreationDate,2026-08-08T00:49:42+02:00*%
%TF.ProjectId,AIR-CO2,4149522d-434f-4322-9e6b-696361645f70,rev?*%
%TF.SameCoordinates,Original*%
%TF.FileFunction,Soldermask,Top*%
%TF.FilePolarity,Negative*%
%FSLAX46Y46*%
G04 Gerber Fmt 4.6, Leading zero omitted, Abs format (unit mm)*
G04 Created by KiCad (PCBNEW 10.0.5) date 2026-08-08 00:49:42*
%MOMM*%
%LPD*%
G01*
G04 APERTURE LIST*
G04 Aperture macros list*
%AMRoundRect*
0 Rectangle with rounded corners*
0 $1 Rounding radius*
0 $2 $3 $4 $5 $6 $7 $8 $9 X,Y pos of 4 corners*
0 Add a 4 corners polygon primitive as box body*
4,1,4,$2,$3,$4,$5,$6,$7,$8,$9,$2,$3,0*
0 Add four circle primitives for the rounded corners*
1,1,$1+$1,$2,$3*
1,1,$1+$1,$4,$5*
1,1,$1+$1,$6,$7*
1,1,$1+$1,$8,$9*
0 Add four rect primitives between the rounded corners*
20,1,$1+$1,$2,$3,$4,$5,0*
20,1,$1+$1,$4,$5,$6,$7,0*
20,1,$1+$1,$6,$7,$8,$9,0*
20,1,$1+$1,$8,$9,$2,$3,0*%
G04 Aperture macros list end*
%ADD10RoundRect,0.250000X-0.250000X-0.475000X0.250000X-0.475000X0.250000X0.475000X-0.250000X0.475000X0*%
%ADD11RoundRect,0.150000X0.150000X-0.512500X0.150000X0.512500X-0.150000X0.512500X-0.150000X-0.512500X0*%
%ADD12R,1.500000X0.800000*%
%ADD13R,0.800000X1.500000*%
%ADD14R,4.800000X4.800000*%
%ADD15RoundRect,0.225000X-0.225000X-0.250000X0.225000X-0.250000X0.225000X0.250000X-0.225000X0.250000X0*%
%ADD16R,1.700000X1.700000*%
%ADD17C,1.700000*%
G04 APERTURE END LIST*
D10*
%TO.C,C1*%
X16550000Y-16500000D03*
X18450000Y-16500000D03*
%TD*%
D11*
%TO.C,U2*%
X19050000Y-14137500D03*
X20000000Y-14137500D03*
X20950000Y-14137500D03*
X20950000Y-11862500D03*
X19050000Y-11862500D03*
%TD*%
D10*
%TO.C,C2*%
X19550000Y-18500000D03*
X21450000Y-18500000D03*
%TD*%
D12*
%TO.C,U1*%
X3500000Y-16000000D03*
X3500000Y-17250000D03*
X3500000Y-18500000D03*
X3500000Y-19750000D03*
X3500000Y-21000000D03*
D13*
X5000000Y-22500000D03*
X6250000Y-22500000D03*
X7500000Y-22500000D03*
X8750000Y-22500000D03*
X10000000Y-22500000D03*
D12*
X11500000Y-21000000D03*
X11500000Y-19750000D03*
X11500000Y-18500000D03*
X11500000Y-17250000D03*
X11500000Y-16000000D03*
D13*
X10000000Y-14500000D03*
X8750000Y-14500000D03*
X7500000Y-14500000D03*
X6250000Y-14500000D03*
X5000000Y-14500000D03*
D14*
X7500000Y-18500000D03*
%TD*%
D15*
%TO.C,C3*%
X17725000Y-21500000D03*
X19275000Y-21500000D03*
%TD*%
D16*
%TO.C,J1*%
X12500000Y-4000000D03*
D17*
X15040000Y-4000000D03*
X12500000Y-6540000D03*
X15040000Y-6540000D03*
X12500000Y-9080000D03*
X15040000Y-9080000D03*
X12500000Y-11620000D03*
X15040000Y-11620000D03*
%TD*%
M02*
