%TF.GenerationSoftware,KiCad,Pcbnew,10.0.5*%
%TF.CreationDate,2026-08-08T00:43:40+02:00*%
%TF.ProjectId,IDM-RoomSensor-ESP-B-ES5-MODULAR,49444d2d-526f-46f6-9d53-656e736f722d,rev?*%
%TF.SameCoordinates,Original*%
%TF.FileFunction,Soldermask,Top*%
%TF.FilePolarity,Negative*%
%FSLAX46Y46*%
G04 Gerber Fmt 4.6, Leading zero omitted, Abs format (unit mm)*
G04 Created by KiCad (PCBNEW 10.0.5) date 2026-08-08 00:43:40*
%MOMM*%
%LPD*%
G01*
G04 APERTURE LIST*
G04 Aperture macros list*
%AMRoundRect*
0 Rectangle with rounded corners*
0 $1 Rounding radius*
0 $2 $3 $4 $5 $6 $7 $8 $9 X,Y pos of 4 corners*
0 Add a 4 corners polygon primitive as box body*
4,1,4,$2,$3,$4,$5,$6,$7,$8,$9,$2,$3,0*
0 Add four circle primitives for the rounded corners*
1,1,$1+$1,$2,$3*
1,1,$1+$1,$4,$5*
1,1,$1+$1,$6,$7*
1,1,$1+$1,$8,$9*
0 Add four rect primitives between the rounded corners*
20,1,$1+$1,$2,$3,$4,$5,0*
20,1,$1+$1,$4,$5,$6,$7,0*
20,1,$1+$1,$6,$7,$8,$9,0*
20,1,$1+$1,$8,$9,$2,$3,0*%
G04 Aperture macros list end*
%ADD10RoundRect,0.200000X0.275000X-0.200000X0.275000X0.200000X-0.275000X0.200000X-0.275000X-0.200000X0*%
%ADD11RoundRect,0.250000X-1.500000X-1.000000X1.500000X-1.000000X1.500000X1.000000X-1.500000X1.000000X0*%
%ADD12RoundRect,0.200000X-0.200000X-0.275000X0.200000X-0.275000X0.200000X0.275000X-0.200000X0.275000X0*%
%ADD13RoundRect,0.225000X-0.225000X-0.250000X0.225000X-0.250000X0.225000X0.250000X-0.225000X0.250000X0*%
%ADD14RoundRect,0.225000X0.250000X-0.225000X0.250000X0.225000X-0.250000X0.225000X-0.250000X-0.225000X0*%
%ADD15RoundRect,0.250000X-1.000000X-0.650000X1.000000X-0.650000X1.000000X0.650000X-1.000000X0.650000X0*%
%ADD16RoundRect,0.250000X-0.325000X-0.650000X0.325000X-0.650000X0.325000X0.650000X-0.325000X0.650000X0*%
%ADD17RoundRect,0.250000X-0.250000X-0.475000X0.250000X-0.475000X0.250000X0.475000X-0.250000X0.475000X0*%
%ADD18RoundRect,0.112500X-0.187500X-0.112500X0.187500X-0.112500X0.187500X0.112500X-0.187500X0.112500X0*%
%ADD19R,1.550000X0.600000*%
%ADD20R,2.600000X3.100000*%
%ADD21RoundRect,0.190000X0.190000X-0.610000X0.190000X0.610000X-0.190000X0.610000X-0.190000X-0.610000X0*%
%ADD22R,0.500000X0.300000*%
%ADD23RoundRect,0.218750X-0.218750X-0.256250X0.218750X-0.256250X0.218750X0.256250X-0.218750X0.256250X0*%
%ADD24RoundRect,0.250000X-0.312500X-1.450000X0.312500X-1.450000X0.312500X1.450000X-0.312500X1.450000X0*%
%ADD25R,0.900000X1.700000*%
%ADD26R,2.700000X3.600000*%
%ADD27RoundRect,0.150000X-0.587500X-0.150000X0.587500X-0.150000X0.587500X0.150000X-0.587500X0.150000X0*%
%ADD28RoundRect,0.250000X0.900000X-1.000000X0.900000X1.000000X-0.900000X1.000000X-0.900000X-1.000000X0*%
%ADD29RoundRect,0.250000X0.625000X-0.312500X0.625000X0.312500X-0.625000X0.312500X-0.625000X-0.312500X0*%
%ADD30RoundRect,0.150000X-0.875000X-0.150000X0.875000X-0.150000X0.875000X0.150000X-0.875000X0.150000X0*%
%ADD31RoundRect,0.150000X-0.512500X-0.150000X0.512500X-0.150000X0.512500X0.150000X-0.512500X0.150000X0*%
%ADD32RoundRect,0.250000X-0.325000X-1.100000X0.325000X-1.100000X0.325000X1.100000X-0.325000X1.100000X0*%
%ADD33RoundRect,0.112500X0.112500X-0.187500X0.112500X0.187500X-0.112500X0.187500X-0.112500X-0.187500X0*%
%ADD34R,1.500000X0.900000*%
%ADD35R,3.300000X3.300000*%
%ADD36RoundRect,0.150000X-0.150000X-0.625000X0.150000X-0.625000X0.150000X0.625000X-0.150000X0.625000X0*%
%ADD37RoundRect,0.250000X-0.350000X-0.650000X0.350000X-0.650000X0.350000X0.650000X-0.350000X0.650000X0*%
%ADD38RoundRect,0.150000X-0.150000X-0.575000X0.150000X-0.575000X0.150000X0.575000X-0.150000X0.575000X0*%
%ADD39RoundRect,0.075000X-0.075000X-0.650000X0.075000X-0.650000X0.075000X0.650000X-0.075000X0.650000X0*%
G04 APERTURE END LIST*
D10*
%TO.C,R5*%
X70500000Y-67825000D03*
X70500000Y-66175000D03*
%TD*%
D11*
%TO.C,C30*%
X124750000Y-94000000D03*
X131250000Y-94000000D03*
%TD*%
D12*
%TO.C,R20*%
X123175000Y-72000000D03*
X124825000Y-72000000D03*
%TD*%
D13*
%TO.C,C21*%
X119225000Y-75000000D03*
X120775000Y-75000000D03*
%TD*%
D14*
%TO.C,C10*%
X78000000Y-20775000D03*
X78000000Y-19225000D03*
%TD*%
%TO.C,C13*%
X102000000Y-46775000D03*
X102000000Y-45225000D03*
%TD*%
D12*
%TO.C,R13*%
X77175000Y-40000000D03*
X78825000Y-40000000D03*
%TD*%
D15*
%TO.C,D1*%
X36000000Y-66000000D03*
X40000000Y-66000000D03*
%TD*%
D16*
%TO.C,C5*%
X69525000Y-59000000D03*
X72475000Y-59000000D03*
%TD*%
D13*
%TO.C,C12*%
X93225000Y-42000000D03*
X94775000Y-42000000D03*
%TD*%
D17*
%TO.C,C16*%
X95050000Y-52500000D03*
X96950000Y-52500000D03*
%TD*%
%TO.C,C3*%
X46050000Y-72000000D03*
X47950000Y-72000000D03*
%TD*%
D12*
%TO.C,R19*%
X126175000Y-28000000D03*
X127825000Y-28000000D03*
%TD*%
D18*
%TO.C,TVS2*%
X95950000Y-25000000D03*
X98050000Y-25000000D03*
%TD*%
D19*
%TO.C,U1*%
X46300000Y-63095000D03*
X46300000Y-64365000D03*
X46300000Y-65635000D03*
X46300000Y-66905000D03*
X51700000Y-66905000D03*
X51700000Y-65635000D03*
X51700000Y-64365000D03*
X51700000Y-63095000D03*
D20*
X49000000Y-65000000D03*
%TD*%
D21*
%TO.C,SW3*%
X122000000Y-66810000D03*
X122000000Y-59190000D03*
%TD*%
D22*
%TO.C,U4*%
X73300000Y-19600000D03*
X73300000Y-20400000D03*
X74700000Y-20400000D03*
X74700000Y-19600000D03*
%TD*%
D12*
%TO.C,R2*%
X54175000Y-76000000D03*
X55825000Y-76000000D03*
%TD*%
D13*
%TO.C,C4*%
X53225000Y-58000000D03*
X54775000Y-58000000D03*
%TD*%
D23*
%TO.C,LED2*%
X94212500Y-40000000D03*
X95787500Y-40000000D03*
%TD*%
D12*
%TO.C,R18*%
X108175000Y-28000000D03*
X109825000Y-28000000D03*
%TD*%
%TO.C,R24*%
X90175000Y-40000000D03*
X91825000Y-40000000D03*
%TD*%
D17*
%TO.C,C8*%
X83050000Y-59000000D03*
X84950000Y-59000000D03*
%TD*%
%TO.C,C2*%
X44050000Y-53000000D03*
X45950000Y-53000000D03*
%TD*%
D12*
%TO.C,R23*%
X110175000Y-96000000D03*
X111825000Y-96000000D03*
%TD*%
D24*
%TO.C,F1*%
X26862500Y-66000000D03*
X31137500Y-66000000D03*
%TD*%
D13*
%TO.C,C9*%
X64225000Y-46000000D03*
X65775000Y-46000000D03*
%TD*%
D15*
%TO.C,D2*%
X72000000Y-54000000D03*
X76000000Y-54000000D03*
%TD*%
D12*
%TO.C,R7*%
X68175000Y-18000000D03*
X69825000Y-18000000D03*
%TD*%
%TO.C,R10*%
X90175000Y-52000000D03*
X91825000Y-52000000D03*
%TD*%
%TO.C,R6*%
X64175000Y-43000000D03*
X65825000Y-43000000D03*
%TD*%
D25*
%TO.C,SW1*%
X68300000Y-43000000D03*
X71700000Y-43000000D03*
%TD*%
D26*
%TO.C,L1*%
X56850000Y-65000000D03*
X65150000Y-65000000D03*
%TD*%
D10*
%TO.C,R4*%
X68000000Y-67825000D03*
X68000000Y-66175000D03*
%TD*%
D27*
%TO.C,D4*%
X115062500Y-73050000D03*
X115062500Y-74950000D03*
X116937500Y-74000000D03*
%TD*%
D12*
%TO.C,R25*%
X99175000Y-40000000D03*
X100825000Y-40000000D03*
%TD*%
D17*
%TO.C,C17*%
X112050000Y-54000000D03*
X113950000Y-54000000D03*
%TD*%
%TO.C,C7*%
X76050000Y-59000000D03*
X77950000Y-59000000D03*
%TD*%
D16*
%TO.C,C6*%
X69525000Y-64000000D03*
X72475000Y-64000000D03*
%TD*%
D28*
%TO.C,TVS1*%
X38000000Y-75150000D03*
X38000000Y-70850000D03*
%TD*%
D29*
%TO.C,R12*%
X116000000Y-64462500D03*
X116000000Y-61537500D03*
%TD*%
D12*
%TO.C,R22*%
X119175000Y-72000000D03*
X120825000Y-72000000D03*
%TD*%
D30*
%TO.C,U7*%
X100350000Y-55555000D03*
X100350000Y-56825000D03*
X100350000Y-58095000D03*
X100350000Y-59365000D03*
X100350000Y-60635000D03*
X100350000Y-61905000D03*
X100350000Y-63175000D03*
X100350000Y-64445000D03*
X109650000Y-64445000D03*
X109650000Y-63175000D03*
X109650000Y-61905000D03*
X109650000Y-60635000D03*
X109650000Y-59365000D03*
X109650000Y-58095000D03*
X109650000Y-56825000D03*
X109650000Y-55555000D03*
%TD*%
D12*
%TO.C,R15*%
X91175000Y-25000000D03*
X92825000Y-25000000D03*
%TD*%
D25*
%TO.C,SW4*%
X114300000Y-96000000D03*
X117700000Y-96000000D03*
%TD*%
D12*
%TO.C,R14*%
X86175000Y-25000000D03*
X87825000Y-25000000D03*
%TD*%
D15*
%TO.C,D3*%
X59000000Y-75000000D03*
X63000000Y-75000000D03*
%TD*%
D31*
%TO.C,ESD1*%
X73862500Y-67050000D03*
X73862500Y-68000000D03*
X73862500Y-68950000D03*
X76137500Y-68950000D03*
X76137500Y-68000000D03*
X76137500Y-67050000D03*
%TD*%
D32*
%TO.C,C1*%
X39525000Y-56000000D03*
X42475000Y-56000000D03*
%TD*%
D33*
%TO.C,TVS5*%
X127000000Y-76050000D03*
X127000000Y-73950000D03*
%TD*%
D31*
%TO.C,U6*%
X90862500Y-45050000D03*
X90862500Y-46000000D03*
X90862500Y-46950000D03*
X93137500Y-46950000D03*
X93137500Y-45050000D03*
%TD*%
D17*
%TO.C,C18*%
X112050000Y-57000000D03*
X113950000Y-57000000D03*
%TD*%
D31*
%TO.C,U5*%
X81862500Y-45050000D03*
X81862500Y-46000000D03*
X81862500Y-46950000D03*
X84137500Y-46950000D03*
X84137500Y-46000000D03*
X84137500Y-45050000D03*
%TD*%
D12*
%TO.C,R11*%
X98175000Y-46000000D03*
X99825000Y-46000000D03*
%TD*%
D34*
%TO.C,U3*%
X46250000Y-17495000D03*
X46250000Y-18765000D03*
X46250000Y-20035000D03*
X46250000Y-21305001D03*
X46250000Y-22575001D03*
X46250000Y-23844999D03*
X46250000Y-25115000D03*
X46250000Y-26385000D03*
X46250000Y-27655000D03*
X46250000Y-28925000D03*
X46250000Y-30194999D03*
X46250000Y-31465000D03*
X46250000Y-32735000D03*
X46250000Y-34005000D03*
X63750000Y-34005000D03*
X63750000Y-32735000D03*
X63750000Y-31465000D03*
X63750000Y-30194999D03*
X63750000Y-28925000D03*
X63750000Y-27655000D03*
X63750000Y-26385000D03*
X63750000Y-25115000D03*
X63750000Y-23844999D03*
X63750000Y-22575001D03*
X63750000Y-21305001D03*
X63750000Y-20035000D03*
X63750000Y-18765000D03*
X63750000Y-17495000D03*
D35*
X55000000Y-26005000D03*
%TD*%
D12*
%TO.C,R21*%
X123175000Y-75000000D03*
X124825000Y-75000000D03*
%TD*%
%TO.C,R8*%
X68175000Y-21000000D03*
X69825000Y-21000000D03*
%TD*%
D36*
%TO.C,J4*%
X115500000Y-104500000D03*
X116500000Y-104500000D03*
X117500000Y-104500000D03*
X118500000Y-104500000D03*
X119500000Y-104500000D03*
X120500000Y-104500000D03*
X121500000Y-104500000D03*
X122500000Y-104500000D03*
D37*
X114200000Y-108375000D03*
X123800000Y-108375000D03*
%TD*%
D23*
%TO.C,LED3*%
X103212500Y-40000000D03*
X104787500Y-40000000D03*
%TD*%
D18*
%TO.C,TVS4*%
X126950000Y-25000000D03*
X129050000Y-25000000D03*
%TD*%
D10*
%TO.C,R3*%
X50000000Y-57825000D03*
X50000000Y-56175000D03*
%TD*%
D13*
%TO.C,C11*%
X80225000Y-50000000D03*
X81775000Y-50000000D03*
%TD*%
D12*
%TO.C,R16*%
X111175000Y-25000000D03*
X112825000Y-25000000D03*
%TD*%
%TO.C,R9*%
X95175000Y-50000000D03*
X96825000Y-50000000D03*
%TD*%
D17*
%TO.C,C14*%
X95050000Y-55500000D03*
X96950000Y-55500000D03*
%TD*%
D23*
%TO.C,LED1*%
X81212500Y-40000000D03*
X82787500Y-40000000D03*
%TD*%
D18*
%TO.C,TVS3*%
X106950000Y-25000000D03*
X109050000Y-25000000D03*
%TD*%
D13*
%TO.C,C20*%
X123225000Y-31000000D03*
X124775000Y-31000000D03*
%TD*%
D12*
%TO.C,R17*%
X123175000Y-25000000D03*
X124825000Y-25000000D03*
%TD*%
D38*
%TO.C,J3*%
X99750000Y-103155000D03*
X100550000Y-103155000D03*
D39*
X101750000Y-103155000D03*
X102750000Y-103155000D03*
X103250000Y-103155000D03*
X104250000Y-103155000D03*
D38*
X105450000Y-103155000D03*
X106250000Y-103155000D03*
X106250000Y-103155000D03*
X105450000Y-103155000D03*
D39*
X104750000Y-103155000D03*
X103750000Y-103155000D03*
X102250000Y-103155000D03*
X101250000Y-103155000D03*
D38*
X100550000Y-103155000D03*
X99750000Y-103155000D03*
%TD*%
D25*
%TO.C,SW2*%
X75300000Y-43000000D03*
X78700000Y-43000000D03*
%TD*%
D13*
%TO.C,C19*%
X111225000Y-31000000D03*
X112775000Y-31000000D03*
%TD*%
D31*
%TO.C,U2*%
X78862500Y-63050000D03*
X78862500Y-64000000D03*
X78862500Y-64950000D03*
X81137500Y-64950000D03*
X81137500Y-63050000D03*
%TD*%
D12*
%TO.C,R1*%
X54175000Y-73000000D03*
X55825000Y-73000000D03*
%TD*%
M02*
