M48
; DRILL file KiCad 10.0.5 date 2026-08-08T00:43:40
; FORMAT={-:-/ absolute / metric / decimal}
; #@! TF.CreationDate,2026-08-08T00:43:40+02:00
; #@! TF.GenerationSoftware,Kicad,Pcbnew,10.0.5
; #@! TF.FileFunction,Plated,1,4,PTH
FMAT,2
METRIC
; #@! TA.AperFunction,Plated,PTH,ViaDrill
T1C0.300
; #@! TA.AperFunction,Plated,PTH,ComponentDrill
T2C0.300
; #@! TA.AperFunction,Plated,PTH,ViaDrill
T3C0.400
; #@! TA.AperFunction,Plated,PTH,ComponentDrill
T4C0.600
; #@! TA.AperFunction,Plated,PTH,ComponentDrill
T5C0.750
; #@! TA.AperFunction,Plated,PTH,ComponentDrill
T6C1.000
; #@! TA.AperFunction,Plated,PTH,ComponentDrill
T7C1.300
; #@! TA.AperFunction,Plated,PTH,ComponentDrill
T8C2.000
%
G90
G05
T1
X25.776Y-64.914
X31.425Y-103.08
X32.215Y-65.502
X36.333Y-76.208
X37.756Y-67.756
X38.642Y-64.642
X40.971Y-53.0
X44.993Y-34.005
X44.996Y-25.342
X45.012Y-66.905
X46.91Y-71.033
X47.502Y-32.735
X47.504Y-18.765
X47.504Y-20.262
X47.504Y-21.305
X47.504Y-22.575
X47.504Y-23.845
X47.507Y-26.385
X47.507Y-29.055
X47.514Y-17.707
X49.224Y-58.526
X50.873Y-55.579
X52.977Y-64.365
X52.979Y-67.107
X53.003Y-65.886
X53.225Y-58.98
X54.175Y-72.012
X54.775Y-58.987
X55.823Y-76.984
X55.823Y-93.891
X56.789Y-38.191
X56.84Y-74.439
X57.703Y-48.217
X58.963Y-48.288
X62.497Y-18.765
X63.434Y-43.741
X64.204Y-105.246
X65.002Y-22.575
X65.004Y-17.722
X65.004Y-21.532
X65.004Y-27.882
X65.004Y-30.195
X65.004Y-31.238
X65.004Y-32.508
X65.008Y-34.005
X65.01Y-26.177
X66.537Y-45.238
X67.27Y-18.089
X67.602Y-75.0
X67.724Y-64.31
X68.773Y-68.525
X71.478Y-67.825
X72.694Y-66.693
X73.345Y-56.03
X73.498Y-57.31
X74.332Y-43.0
X74.642Y-52.642
X75.277Y-70.191
X76.419Y-39.244
X77.812Y-57.771
X81.441Y-71.265
X84.138Y-47.753
X85.304Y-46.329
X85.437Y-25.738
X87.203Y-44.242
X89.697Y-46.736
X90.436Y-24.261
X93.138Y-43.928
X95.468Y-24.289
X95.946Y-54.604
X98.494Y-39.196
X98.805Y-58.524
X98.811Y-61.473
X98.822Y-59.365
X98.876Y-44.727
X101.211Y-104.417
X101.355Y-101.917
X101.48Y-101.112
X101.914Y-55.579
X103.146Y-101.37
X103.763Y-101.917
X104.75Y-101.91
X107.426Y-27.251
X107.568Y-25.618
X109.03Y-52.63
X109.825Y-29.552
X111.089Y-95.264
X111.175Y-24.011
X112.122Y-61.304
X113.535Y-30.24
X114.237Y-75.776
X114.697Y-103.697
X116.744Y-103.199
X117.545Y-103.207
X117.913Y-94.639
X118.472Y-103.222
X119.5Y-103.22
X120.09Y-71.265
X120.5Y-103.216
X121.104Y-65.914
X121.5Y-103.222
X122.903Y-59.19
X123.225Y-27.963
X123.825Y-96.838
X124.224Y-30.037
X125.423Y-28.752
X127.54Y-25.59
X127.795Y-76.05
X128.648Y-24.268
X131.25Y-95.771
T2
X48.4Y-63.2
X48.4Y-64.4
X48.4Y-65.7
X48.4Y-66.8
X49.6Y-63.2
X49.6Y-64.4
X49.6Y-65.7
X49.6Y-66.8
X53.9Y-24.905
X53.9Y-26.005
X53.9Y-27.105
X55.0Y-24.905
X55.0Y-26.005
X55.0Y-27.105
X56.1Y-24.905
X56.1Y-26.005
X56.1Y-27.105
T3
X70.6Y-18.4
X70.6Y-21.6
X77.4Y-18.4
X77.4Y-21.6
T5
X27.0Y-46.0
X28.27Y-46.0
X29.54Y-46.0
T6
X25.0Y-98.0
X25.0Y-100.54
X25.0Y-103.08
X25.0Y-105.62
X27.54Y-98.0
X27.54Y-100.54
X27.54Y-103.08
X27.54Y-105.62
X53.0Y-98.0
X53.0Y-100.54
X53.0Y-103.08
X53.0Y-105.62
X55.54Y-98.0
X55.54Y-100.54
X55.54Y-103.08
X55.54Y-105.62
X81.0Y-98.0
X81.0Y-100.54
X81.0Y-103.08
X81.0Y-105.62
X83.54Y-98.0
X83.54Y-100.54
X83.54Y-103.08
X83.54Y-105.62
T7
X16.0Y-51.0
X16.0Y-56.0
X16.0Y-61.0
X16.0Y-66.0
X84.0Y-15.0
X89.0Y-15.0
X94.0Y-15.0
X104.0Y-15.0
X109.0Y-15.0
X114.0Y-15.0
X126.0Y-15.0
X131.0Y-15.0
X135.0Y-33.0
X135.0Y-38.0
X135.0Y-43.0
X135.0Y-48.0
X135.0Y-70.0
X135.0Y-75.0
X136.0Y-15.0
T8
X22.0Y-38.0
X30.0Y-38.0
X38.0Y-38.0
X46.0Y-39.0
X54.0Y-40.0
X62.0Y-40.0
X70.0Y-38.0
X83.0Y-35.0
X86.0Y-31.0
X91.0Y-35.0
X94.0Y-31.0
X102.0Y-31.0
T4
X98.68Y-103.52G85X98.68Y-104.62
G05
X98.68Y-107.95G85X98.68Y-108.55
G05
X107.32Y-103.52G85X107.32Y-104.62
G05
X107.32Y-107.95G85X107.32Y-108.55
G05
M30
