%TF.GenerationSoftware,KiCad,Pcbnew,10.0.5*%
%TF.CreationDate,2026-08-08T00:43:40+02:00*%
%TF.ProjectId,IDM-RoomSensor-ESP-B-ES5-MODULAR,49444d2d-526f-46f6-9d53-656e736f722d,rev?*%
%TF.SameCoordinates,Original*%
%TF.FileFunction,Copper,L1,Top*%
%TF.FilePolarity,Positive*%
%FSLAX46Y46*%
G04 Gerber Fmt 4.6, Leading zero omitted, Abs format (unit mm)*
G04 Created by KiCad (PCBNEW 10.0.5) date 2026-08-08 00:43:40*
%MOMM*%
%LPD*%
G01*
G04 APERTURE LIST*
G04 Aperture macros list*
%AMRoundRect*
0 Rectangle with rounded corners*
0 $1 Rounding radius*
0 $2 $3 $4 $5 $6 $7 $8 $9 X,Y pos of 4 corners*
0 Add a 4 corners polygon primitive as box body*
4,1,4,$2,$3,$4,$5,$6,$7,$8,$9,$2,$3,0*
0 Add four circle primitives for the rounded corners*
1,1,$1+$1,$2,$3*
1,1,$1+$1,$4,$5*
1,1,$1+$1,$6,$7*
1,1,$1+$1,$8,$9*
0 Add four rect primitives between the rounded corners*
20,1,$1+$1,$2,$3,$4,$5,0*
20,1,$1+$1,$4,$5,$6,$7,0*
20,1,$1+$1,$6,$7,$8,$9,0*
20,1,$1+$1,$8,$9,$2,$3,0*%
G04 Aperture macros list end*
%TA.AperFunction,SMDPad,CuDef*%
%ADD10RoundRect,0.200000X0.275000X-0.200000X0.275000X0.200000X-0.275000X0.200000X-0.275000X-0.200000X0*%
%TD*%
%TA.AperFunction,SMDPad,CuDef*%
%ADD11RoundRect,0.250000X-1.500000X-1.000000X1.500000X-1.000000X1.500000X1.000000X-1.500000X1.000000X0*%
%TD*%
%TA.AperFunction,ComponentPad*%
%ADD12R,1.700000X1.700000*%
%TD*%
%TA.AperFunction,ComponentPad*%
%ADD13C,1.700000*%
%TD*%
%TA.AperFunction,SMDPad,CuDef*%
%ADD14RoundRect,0.200000X-0.200000X-0.275000X0.200000X-0.275000X0.200000X0.275000X-0.200000X0.275000X0*%
%TD*%
%TA.AperFunction,SMDPad,CuDef*%
%ADD15RoundRect,0.225000X-0.225000X-0.250000X0.225000X-0.250000X0.225000X0.250000X-0.225000X0.250000X0*%
%TD*%
%TA.AperFunction,ComponentPad*%
%ADD16C,3.000000*%
%TD*%
%TA.AperFunction,SMDPad,CuDef*%
%ADD17RoundRect,0.225000X0.250000X-0.225000X0.250000X0.225000X-0.250000X0.225000X-0.250000X-0.225000X0*%
%TD*%
%TA.AperFunction,SMDPad,CuDef*%
%ADD18RoundRect,0.250000X-1.000000X-0.650000X1.000000X-0.650000X1.000000X0.650000X-1.000000X0.650000X0*%
%TD*%
%TA.AperFunction,SMDPad,CuDef*%
%ADD19RoundRect,0.250000X-0.325000X-0.650000X0.325000X-0.650000X0.325000X0.650000X-0.325000X0.650000X0*%
%TD*%
%TA.AperFunction,ComponentPad*%
%ADD20RoundRect,0.250001X-1.149999X-1.149999X1.149999X-1.149999X1.149999X1.149999X-1.149999X1.149999X0*%
%TD*%
%TA.AperFunction,ComponentPad*%
%ADD21C,2.800000*%
%TD*%
%TA.AperFunction,SMDPad,CuDef*%
%ADD22RoundRect,0.250000X-0.250000X-0.475000X0.250000X-0.475000X0.250000X0.475000X-0.250000X0.475000X0*%
%TD*%
%TA.AperFunction,SMDPad,CuDef*%
%ADD23RoundRect,0.112500X-0.187500X-0.112500X0.187500X-0.112500X0.187500X0.112500X-0.187500X0.112500X0*%
%TD*%
%TA.AperFunction,SMDPad,CuDef*%
%ADD24R,1.550000X0.600000*%
%TD*%
%TA.AperFunction,ComponentPad*%
%ADD25C,0.600000*%
%TD*%
%TA.AperFunction,SMDPad,CuDef*%
%ADD26R,2.600000X3.100000*%
%TD*%
%TA.AperFunction,SMDPad,CuDef*%
%ADD27R,2.950000X4.500000*%
%TD*%
%TA.AperFunction,SMDPad,CuDef*%
%ADD28RoundRect,0.190000X0.190000X-0.610000X0.190000X0.610000X-0.190000X0.610000X-0.190000X-0.610000X0*%
%TD*%
%TA.AperFunction,SMDPad,CuDef*%
%ADD29R,0.500000X0.300000*%
%TD*%
%TA.AperFunction,SMDPad,CuDef*%
%ADD30RoundRect,0.218750X-0.218750X-0.256250X0.218750X-0.256250X0.218750X0.256250X-0.218750X0.256250X0*%
%TD*%
%TA.AperFunction,SMDPad,CuDef*%
%ADD31RoundRect,0.250000X-0.312500X-1.450000X0.312500X-1.450000X0.312500X1.450000X-0.312500X1.450000X0*%
%TD*%
%TA.AperFunction,ComponentPad*%
%ADD32RoundRect,0.250001X1.149999X-1.149999X1.149999X1.149999X-1.149999X1.149999X-1.149999X-1.149999X0*%
%TD*%
%TA.AperFunction,SMDPad,CuDef*%
%ADD33R,0.900000X1.700000*%
%TD*%
%TA.AperFunction,SMDPad,CuDef*%
%ADD34R,2.700000X3.600000*%
%TD*%
%TA.AperFunction,SMDPad,CuDef*%
%ADD35RoundRect,0.150000X-0.587500X-0.150000X0.587500X-0.150000X0.587500X0.150000X-0.587500X0.150000X0*%
%TD*%
%TA.AperFunction,SMDPad,CuDef*%
%ADD36RoundRect,0.250000X0.900000X-1.000000X0.900000X1.000000X-0.900000X1.000000X-0.900000X-1.000000X0*%
%TD*%
%TA.AperFunction,SMDPad,CuDef*%
%ADD37RoundRect,0.250000X0.625000X-0.312500X0.625000X0.312500X-0.625000X0.312500X-0.625000X-0.312500X0*%
%TD*%
%TA.AperFunction,SMDPad,CuDef*%
%ADD38RoundRect,0.150000X-0.875000X-0.150000X0.875000X-0.150000X0.875000X0.150000X-0.875000X0.150000X0*%
%TD*%
%TA.AperFunction,SMDPad,CuDef*%
%ADD39RoundRect,0.150000X-0.512500X-0.150000X0.512500X-0.150000X0.512500X0.150000X-0.512500X0.150000X0*%
%TD*%
%TA.AperFunction,SMDPad,CuDef*%
%ADD40RoundRect,0.250000X-0.325000X-1.100000X0.325000X-1.100000X0.325000X1.100000X-0.325000X1.100000X0*%
%TD*%
%TA.AperFunction,SMDPad,CuDef*%
%ADD41RoundRect,0.112500X0.112500X-0.187500X0.112500X0.187500X-0.112500X0.187500X-0.112500X-0.187500X0*%
%TD*%
%TA.AperFunction,SMDPad,CuDef*%
%ADD42R,1.500000X0.900000*%
%TD*%
%TA.AperFunction,SMDPad,CuDef*%
%ADD43R,3.300000X3.300000*%
%TD*%
%TA.AperFunction,SMDPad,CuDef*%
%ADD44RoundRect,0.150000X-0.150000X-0.625000X0.150000X-0.625000X0.150000X0.625000X-0.150000X0.625000X0*%
%TD*%
%TA.AperFunction,SMDPad,CuDef*%
%ADD45RoundRect,0.250000X-0.350000X-0.650000X0.350000X-0.650000X0.350000X0.650000X-0.350000X0.650000X0*%
%TD*%
%TA.AperFunction,ComponentPad*%
%ADD46R,1.050000X1.500000*%
%TD*%
%TA.AperFunction,ComponentPad*%
%ADD47O,1.050000X1.500000*%
%TD*%
%TA.AperFunction,SMDPad,CuDef*%
%ADD48RoundRect,0.150000X-0.150000X-0.575000X0.150000X-0.575000X0.150000X0.575000X-0.150000X0.575000X0*%
%TD*%
%TA.AperFunction,SMDPad,CuDef*%
%ADD49RoundRect,0.075000X-0.075000X-0.650000X0.075000X-0.650000X0.075000X0.650000X-0.075000X0.650000X0*%
%TD*%
%TA.AperFunction,ComponentPad*%
%ADD50O,1.000000X2.100000*%
%TD*%
%TA.AperFunction,ComponentPad*%
%ADD51O,1.000000X1.600000*%
%TD*%
%TA.AperFunction,ViaPad*%
%ADD52C,0.600000*%
%TD*%
%TA.AperFunction,ViaPad*%
%ADD53C,0.800000*%
%TD*%
%TA.AperFunction,Conductor*%
%ADD54C,0.200000*%
%TD*%
%TA.AperFunction,Conductor*%
%ADD55C,0.150000*%
%TD*%
%TA.AperFunction,Conductor*%
%ADD56C,0.250000*%
%TD*%
G04 APERTURE END LIST*
D10*
%TO.P,R5,1*%
%TO.N,USB_CC2*%
X70500000Y-67825000D03*
%TO.P,R5,2*%
%TO.N,GND*%
X70500000Y-66175000D03*
%TD*%
D11*
%TO.P,C30,1*%
%TO.N,SYS_5V*%
X124750000Y-94000000D03*
%TO.P,C30,2*%
%TO.N,GND*%
X131250000Y-94000000D03*
%TD*%
D12*
%TO.P,J10,1*%
%TO.N,GND*%
X53000000Y-98000000D03*
D13*
%TO.P,J10,2*%
%TO.N,SYS_5V*%
X55540000Y-98000000D03*
%TO.P,J10,3*%
%TO.N,I2C_SDA*%
X53000000Y-100540000D03*
%TO.P,J10,4*%
%TO.N,I2C_SCL*%
X55540000Y-100540000D03*
%TO.P,J10,5*%
X53000000Y-103080000D03*
%TO.P,J10,6*%
%TO.N,I2C_SDA*%
X55540000Y-103080000D03*
%TO.P,J10,7*%
%TO.N,SYS_5V*%
X53000000Y-105620000D03*
%TO.P,J10,8*%
%TO.N,GND*%
X55540000Y-105620000D03*
%TD*%
D14*
%TO.P,R20,1*%
%TO.N,AIN_0_10_RAW*%
X123175000Y-72000000D03*
%TO.P,R20,2*%
%TO.N,AIN_DIV*%
X124825000Y-72000000D03*
%TD*%
D15*
%TO.P,C21,1*%
%TO.N,ADC_0_10*%
X119225000Y-75000000D03*
%TO.P,C21,2*%
%TO.N,GND*%
X120775000Y-75000000D03*
%TD*%
D16*
%TO.P,TP6,1*%
%TO.N,I2C_SCL*%
X62000000Y-40000000D03*
%TD*%
D17*
%TO.P,C10,1*%
%TO.N,+3V3*%
X78000000Y-20775000D03*
%TO.P,C10,2*%
%TO.N,GND*%
X78000000Y-19225000D03*
%TD*%
%TO.P,C13,1*%
%TO.N,RH_OUT*%
X102000000Y-46775000D03*
%TO.P,C13,2*%
%TO.N,GND*%
X102000000Y-45225000D03*
%TD*%
D12*
%TO.P,J9,1*%
%TO.N,GND*%
X25000000Y-98000000D03*
D13*
%TO.P,J9,2*%
%TO.N,SYS_5V*%
X27540000Y-98000000D03*
%TO.P,J9,3*%
%TO.N,I2C_SDA*%
X25000000Y-100540000D03*
%TO.P,J9,4*%
%TO.N,I2C_SCL*%
X27540000Y-100540000D03*
%TO.P,J9,5*%
X25000000Y-103080000D03*
%TO.P,J9,6*%
%TO.N,I2C_SDA*%
X27540000Y-103080000D03*
%TO.P,J9,7*%
%TO.N,SYS_5V*%
X25000000Y-105620000D03*
%TO.P,J9,8*%
%TO.N,GND*%
X27540000Y-105620000D03*
%TD*%
D14*
%TO.P,R13,1*%
%TO.N,STATUS_LED*%
X77175000Y-40000000D03*
%TO.P,R13,2*%
%TO.N,STATUS_LED_R*%
X78825000Y-40000000D03*
%TD*%
D18*
%TO.P,D1,1*%
%TO.N,24V_PROT*%
X36000000Y-66000000D03*
%TO.P,D1,2*%
%TO.N,24V_FUSED*%
X40000000Y-66000000D03*
%TD*%
D19*
%TO.P,C5,1*%
%TO.N,5V_BUCK*%
X69525000Y-59000000D03*
%TO.P,C5,2*%
%TO.N,GND*%
X72475000Y-59000000D03*
%TD*%
D15*
%TO.P,C12,1*%
%TO.N,24V_PROT*%
X93225000Y-42000000D03*
%TO.P,C12,2*%
%TO.N,GND*%
X94775000Y-42000000D03*
%TD*%
D20*
%TO.P,J7,1*%
%TO.N,CONTACT1_EXT*%
X126000000Y-15000000D03*
D21*
%TO.P,J7,2*%
%TO.N,GND*%
X131000000Y-15000000D03*
%TO.P,J7,3*%
%TO.N,CONTACT2_EXT*%
X136000000Y-15000000D03*
%TD*%
D22*
%TO.P,C16,1*%
%TO.N,+3V3*%
X95050000Y-52500000D03*
%TO.P,C16,2*%
%TO.N,GND*%
X96950000Y-52500000D03*
%TD*%
%TO.P,C3,1*%
%TO.N,VCC_BYP*%
X46050000Y-72000000D03*
%TO.P,C3,2*%
%TO.N,GND*%
X47950000Y-72000000D03*
%TD*%
D14*
%TO.P,R19,1*%
%TO.N,+3V3*%
X126175000Y-28000000D03*
%TO.P,R19,2*%
%TO.N,CONTACT2*%
X127825000Y-28000000D03*
%TD*%
D23*
%TO.P,TVS2,1*%
%TO.N,GND*%
X95950000Y-25000000D03*
%TO.P,TVS2,2*%
%TO.N,ONEWIRE_EXT*%
X98050000Y-25000000D03*
%TD*%
D24*
%TO.P,U1,1*%
%TO.N,GND*%
X46300000Y-63095000D03*
%TO.P,U1,2*%
%TO.N,24V_PROT*%
X46300000Y-64365000D03*
%TO.P,U1,3*%
X46300000Y-65635000D03*
%TO.P,U1,4*%
%TO.N,PWR_GOOD*%
X46300000Y-66905000D03*
%TO.P,U1,5*%
%TO.N,BUCK_FB*%
X51700000Y-66905000D03*
%TO.P,U1,6*%
%TO.N,VCC_BYP*%
X51700000Y-65635000D03*
%TO.P,U1,7*%
%TO.N,BOOT*%
X51700000Y-64365000D03*
%TO.P,U1,8*%
%TO.N,SW*%
X51700000Y-63095000D03*
D25*
%TO.P,U1,9*%
%TO.N,GND*%
X48400000Y-63200000D03*
X48400000Y-64400000D03*
X48400000Y-65700000D03*
X48400000Y-66800000D03*
D26*
X49000000Y-65000000D03*
D27*
X49000000Y-65000000D03*
D25*
X49600000Y-63200000D03*
X49600000Y-64400000D03*
X49600000Y-65700000D03*
X49600000Y-66800000D03*
%TD*%
D28*
%TO.P,SW3,1*%
%TO.N,RS485_TERM*%
X122000000Y-66810000D03*
%TO.P,SW3,2*%
%TO.N,RS485_B*%
X122000000Y-59190000D03*
%TD*%
D29*
%TO.P,U4,1*%
%TO.N,I2C_SDA*%
X73300000Y-19600000D03*
%TO.P,U4,2*%
%TO.N,I2C_SCL*%
X73300000Y-20400000D03*
%TO.P,U4,3*%
%TO.N,+3V3*%
X74700000Y-20400000D03*
%TO.P,U4,4*%
%TO.N,GND*%
X74700000Y-19600000D03*
%TD*%
D16*
%TO.P,TP9,1*%
%TO.N,RS485_A*%
X86000000Y-31000000D03*
%TD*%
D14*
%TO.P,R2,1*%
%TO.N,BUCK_FB*%
X54175000Y-76000000D03*
%TO.P,R2,2*%
%TO.N,GND*%
X55825000Y-76000000D03*
%TD*%
D15*
%TO.P,C4,1*%
%TO.N,BOOT*%
X53225000Y-58000000D03*
%TO.P,C4,2*%
%TO.N,SW*%
X54775000Y-58000000D03*
%TD*%
D30*
%TO.P,LED2,1*%
%TO.N,PWR24_LED_R*%
X94212500Y-40000000D03*
%TO.P,LED2,2*%
%TO.N,GND*%
X95787500Y-40000000D03*
%TD*%
D14*
%TO.P,R18,1*%
%TO.N,+3V3*%
X108175000Y-28000000D03*
%TO.P,R18,2*%
%TO.N,CONTACT1*%
X109825000Y-28000000D03*
%TD*%
%TO.P,R24,1*%
%TO.N,24V_PROT*%
X90175000Y-40000000D03*
%TO.P,R24,2*%
%TO.N,PWR24_LED_R*%
X91825000Y-40000000D03*
%TD*%
D22*
%TO.P,C8,1*%
%TO.N,+3V3*%
X83050000Y-59000000D03*
%TO.P,C8,2*%
%TO.N,GND*%
X84950000Y-59000000D03*
%TD*%
%TO.P,C2,1*%
%TO.N,24V_PROT*%
X44050000Y-53000000D03*
%TO.P,C2,2*%
%TO.N,GND*%
X45950000Y-53000000D03*
%TD*%
D14*
%TO.P,R23,1*%
%TO.N,+3V3*%
X110175000Y-96000000D03*
%TO.P,R23,2*%
%TO.N,SERVICE_BUTTON*%
X111825000Y-96000000D03*
%TD*%
D16*
%TO.P,TP2,1*%
%TO.N,24V_PROT*%
X30000000Y-38000000D03*
%TD*%
D31*
%TO.P,F1,1*%
%TO.N,24V_RAW*%
X26862500Y-66000000D03*
%TO.P,F1,2*%
%TO.N,24V_FUSED*%
X31137500Y-66000000D03*
%TD*%
D15*
%TO.P,C9,1*%
%TO.N,C6_EN*%
X64225000Y-46000000D03*
%TO.P,C9,2*%
%TO.N,GND*%
X65775000Y-46000000D03*
%TD*%
D18*
%TO.P,D2,1*%
%TO.N,SYS_5V*%
X72000000Y-54000000D03*
%TO.P,D2,2*%
%TO.N,5V_BUCK*%
X76000000Y-54000000D03*
%TD*%
D14*
%TO.P,R7,1*%
%TO.N,+3V3*%
X68175000Y-18000000D03*
%TO.P,R7,2*%
%TO.N,I2C_SDA*%
X69825000Y-18000000D03*
%TD*%
D32*
%TO.P,J1,1*%
%TO.N,TEMP_KTY*%
X16000000Y-66000000D03*
D21*
%TO.P,J1,2*%
%TO.N,24V_RAW*%
X16000000Y-61000000D03*
%TO.P,J1,3*%
%TO.N,GND*%
X16000000Y-56000000D03*
%TO.P,J1,4*%
%TO.N,RH_OUT*%
X16000000Y-51000000D03*
%TD*%
D16*
%TO.P,TP1,1*%
%TO.N,24V_RAW*%
X22000000Y-38000000D03*
%TD*%
%TO.P,TP12,1*%
%TO.N,GND*%
X91000000Y-35000000D03*
%TD*%
D14*
%TO.P,R10,1*%
%TO.N,OPAMP_FB*%
X90175000Y-52000000D03*
%TO.P,R10,2*%
%TO.N,GND*%
X91825000Y-52000000D03*
%TD*%
%TO.P,R6,1*%
%TO.N,+3V3*%
X64175000Y-43000000D03*
%TO.P,R6,2*%
%TO.N,C6_EN*%
X65825000Y-43000000D03*
%TD*%
D33*
%TO.P,SW1,1*%
%TO.N,C6_EN*%
X68300000Y-43000000D03*
%TO.P,SW1,2*%
%TO.N,GND*%
X71700000Y-43000000D03*
%TD*%
D34*
%TO.P,L1,1*%
%TO.N,SW*%
X56850000Y-65000000D03*
%TO.P,L1,2*%
%TO.N,5V_BUCK*%
X65150000Y-65000000D03*
%TD*%
D10*
%TO.P,R4,1*%
%TO.N,USB_CC1*%
X68000000Y-67825000D03*
%TO.P,R4,2*%
%TO.N,GND*%
X68000000Y-66175000D03*
%TD*%
D35*
%TO.P,D4,1*%
%TO.N,GND*%
X115062500Y-73050000D03*
%TO.P,D4,2*%
%TO.N,+3V3*%
X115062500Y-74950000D03*
%TO.P,D4,3*%
%TO.N,ADC_0_10*%
X116937500Y-74000000D03*
%TD*%
D16*
%TO.P,TP3,1*%
%TO.N,SYS_5V*%
X38000000Y-38000000D03*
%TD*%
D14*
%TO.P,R25,1*%
%TO.N,BUS_LED*%
X99175000Y-40000000D03*
%TO.P,R25,2*%
%TO.N,BUS_LED_R*%
X100825000Y-40000000D03*
%TD*%
D22*
%TO.P,C17,1*%
%TO.N,VISO*%
X112050000Y-54000000D03*
%TO.P,C17,2*%
%TO.N,RS485_COM*%
X113950000Y-54000000D03*
%TD*%
%TO.P,C7,1*%
%TO.N,SYS_5V*%
X76050000Y-59000000D03*
%TO.P,C7,2*%
%TO.N,GND*%
X77950000Y-59000000D03*
%TD*%
D19*
%TO.P,C6,1*%
%TO.N,5V_BUCK*%
X69525000Y-64000000D03*
%TO.P,C6,2*%
%TO.N,GND*%
X72475000Y-64000000D03*
%TD*%
D36*
%TO.P,TVS1,1*%
%TO.N,GND*%
X38000000Y-75150000D03*
%TO.P,TVS1,2*%
%TO.N,24V_PROT*%
X38000000Y-70850000D03*
%TD*%
D37*
%TO.P,R12,1*%
%TO.N,RS485_A*%
X116000000Y-64462500D03*
%TO.P,R12,2*%
%TO.N,RS485_TERM*%
X116000000Y-61537500D03*
%TD*%
D16*
%TO.P,TP4,1*%
%TO.N,+3V3*%
X46000000Y-39000000D03*
%TD*%
D14*
%TO.P,R22,1*%
%TO.N,AIN_DIV*%
X119175000Y-72000000D03*
%TO.P,R22,2*%
%TO.N,ADC_0_10*%
X120825000Y-72000000D03*
%TD*%
D16*
%TO.P,TP8,1*%
%TO.N,TEMP_KTY*%
X83000000Y-35000000D03*
%TD*%
D20*
%TO.P,J6,1*%
%TO.N,+3V3*%
X104000000Y-15000000D03*
D21*
%TO.P,J6,2*%
%TO.N,ONEWIRE_EXT*%
X109000000Y-15000000D03*
%TO.P,J6,3*%
%TO.N,GND*%
X114000000Y-15000000D03*
%TD*%
D38*
%TO.P,U7,1*%
%TO.N,+3V3*%
X100350000Y-55555000D03*
%TO.P,U7,2*%
%TO.N,GND*%
X100350000Y-56825000D03*
%TO.P,U7,3*%
%TO.N,RS485_RX*%
X100350000Y-58095000D03*
%TO.P,U7,4*%
%TO.N,RS485_DE*%
X100350000Y-59365000D03*
%TO.P,U7,5*%
X100350000Y-60635000D03*
%TO.P,U7,6*%
%TO.N,RS485_TX*%
X100350000Y-61905000D03*
%TO.P,U7,7*%
%TO.N,N/C*%
X100350000Y-63175000D03*
%TO.P,U7,8*%
%TO.N,GND*%
X100350000Y-64445000D03*
%TO.P,U7,9*%
%TO.N,RS485_COM*%
X109650000Y-64445000D03*
%TO.P,U7,10*%
X109650000Y-63175000D03*
%TO.P,U7,11*%
%TO.N,N/C*%
X109650000Y-61905000D03*
%TO.P,U7,12*%
%TO.N,RS485_A*%
X109650000Y-60635000D03*
%TO.P,U7,13*%
%TO.N,RS485_B*%
X109650000Y-59365000D03*
%TO.P,U7,14*%
%TO.N,N/C*%
X109650000Y-58095000D03*
%TO.P,U7,15*%
%TO.N,RS485_COM*%
X109650000Y-56825000D03*
%TO.P,U7,16*%
%TO.N,VISO*%
X109650000Y-55555000D03*
%TD*%
D32*
%TO.P,J8,1*%
%TO.N,AIN_0_10_RAW*%
X135000000Y-75000000D03*
D21*
%TO.P,J8,2*%
%TO.N,GND*%
X135000000Y-70000000D03*
%TD*%
D14*
%TO.P,R15,1*%
%TO.N,+3V3*%
X91175000Y-25000000D03*
%TO.P,R15,2*%
%TO.N,ONEWIRE_EXT*%
X92825000Y-25000000D03*
%TD*%
D33*
%TO.P,SW4,1*%
%TO.N,SERVICE_BUTTON*%
X114300000Y-96000000D03*
%TO.P,SW4,2*%
%TO.N,GND*%
X117700000Y-96000000D03*
%TD*%
D14*
%TO.P,R14,1*%
%TO.N,ONEWIRE*%
X86175000Y-25000000D03*
%TO.P,R14,2*%
%TO.N,ONEWIRE_EXT*%
X87825000Y-25000000D03*
%TD*%
D18*
%TO.P,D3,1*%
%TO.N,SYS_5V*%
X59000000Y-75000000D03*
%TO.P,D3,2*%
%TO.N,USB_5V*%
X63000000Y-75000000D03*
%TD*%
D39*
%TO.P,ESD1,1*%
%TO.N,USB_D-*%
X73862500Y-67050000D03*
%TO.P,ESD1,2*%
%TO.N,GND*%
X73862500Y-68000000D03*
%TO.P,ESD1,3*%
%TO.N,USB_D+*%
X73862500Y-68950000D03*
%TO.P,ESD1,4*%
X76137500Y-68950000D03*
%TO.P,ESD1,5*%
%TO.N,USB_5V*%
X76137500Y-68000000D03*
%TO.P,ESD1,6*%
%TO.N,USB_D-*%
X76137500Y-67050000D03*
%TD*%
D40*
%TO.P,C1,1*%
%TO.N,24V_PROT*%
X39525000Y-56000000D03*
%TO.P,C1,2*%
%TO.N,GND*%
X42475000Y-56000000D03*
%TD*%
D41*
%TO.P,TVS5,1*%
%TO.N,GND*%
X127000000Y-76050000D03*
%TO.P,TVS5,2*%
%TO.N,AIN_0_10_RAW*%
X127000000Y-73950000D03*
%TD*%
D39*
%TO.P,U6,1*%
%TO.N,OPAMP_OUT*%
X90862500Y-45050000D03*
%TO.P,U6,2*%
%TO.N,GND*%
X90862500Y-46000000D03*
%TO.P,U6,3*%
%TO.N,DAC_RAW*%
X90862500Y-46950000D03*
%TO.P,U6,4*%
%TO.N,OPAMP_FB*%
X93137500Y-46950000D03*
%TO.P,U6,5*%
%TO.N,24V_PROT*%
X93137500Y-45050000D03*
%TD*%
D22*
%TO.P,C18,1*%
%TO.N,VISO*%
X112050000Y-57000000D03*
%TO.P,C18,2*%
%TO.N,RS485_COM*%
X113950000Y-57000000D03*
%TD*%
D16*
%TO.P,TP5,1*%
%TO.N,I2C_SDA*%
X54000000Y-40000000D03*
%TD*%
D39*
%TO.P,U5,1*%
%TO.N,DAC_RAW*%
X81862500Y-45050000D03*
%TO.P,U5,2*%
%TO.N,GND*%
X81862500Y-46000000D03*
%TO.P,U5,3*%
%TO.N,+3V3*%
X81862500Y-46950000D03*
%TO.P,U5,4*%
%TO.N,I2C_SDA*%
X84137500Y-46950000D03*
%TO.P,U5,5*%
%TO.N,I2C_SCL*%
X84137500Y-46000000D03*
%TO.P,U5,6*%
%TO.N,GND*%
X84137500Y-45050000D03*
%TD*%
D14*
%TO.P,R11,1*%
%TO.N,OPAMP_OUT*%
X98175000Y-46000000D03*
%TO.P,R11,2*%
%TO.N,RH_OUT*%
X99825000Y-46000000D03*
%TD*%
D42*
%TO.P,U3,1*%
%TO.N,GND*%
X46250000Y-17495000D03*
%TO.P,U3,2*%
%TO.N,+3V3*%
X46250000Y-18765000D03*
%TO.P,U3,3*%
%TO.N,C6_EN*%
X46250000Y-20035000D03*
%TO.P,U3,4*%
%TO.N,EXP_GPIO4*%
X46250000Y-21305001D03*
%TO.P,U3,5*%
%TO.N,EXP_GPIO5*%
X46250000Y-22575001D03*
%TO.P,U3,6*%
%TO.N,I2C_SDA*%
X46250000Y-23844999D03*
%TO.P,U3,7*%
%TO.N,I2C_SCL*%
X46250000Y-25115000D03*
%TO.P,U3,8*%
%TO.N,ADC_0_10*%
X46250000Y-26385000D03*
%TO.P,U3,9*%
%TO.N,N/C*%
X46250000Y-27655000D03*
%TO.P,U3,10*%
%TO.N,STATUS_LED*%
X46250000Y-28925000D03*
%TO.P,U3,11*%
%TO.N,N/C*%
X46250000Y-30194999D03*
%TO.P,U3,12*%
X46250000Y-31465000D03*
%TO.P,U3,13*%
%TO.N,USB_D-*%
X46250000Y-32735000D03*
%TO.P,U3,14*%
%TO.N,USB_D+*%
X46250000Y-34005000D03*
%TO.P,U3,15*%
%TO.N,C6_BOOT*%
X63750000Y-34005000D03*
%TO.P,U3,16*%
%TO.N,CONTACT1*%
X63750000Y-32735000D03*
%TO.P,U3,17*%
%TO.N,CONTACT2*%
X63750000Y-31465000D03*
%TO.P,U3,18*%
%TO.N,SERVICE_BUTTON*%
X63750000Y-30194999D03*
%TO.P,U3,19*%
%TO.N,N/C*%
X63750000Y-28925000D03*
%TO.P,U3,20*%
%TO.N,BUS_LED*%
X63750000Y-27655000D03*
%TO.P,U3,21*%
%TO.N,ONEWIRE*%
X63750000Y-26385000D03*
%TO.P,U3,22*%
%TO.N,N/C*%
X63750000Y-25115000D03*
%TO.P,U3,23*%
X63750000Y-23844999D03*
%TO.P,U3,24*%
%TO.N,RS485_RX*%
X63750000Y-22575001D03*
%TO.P,U3,25*%
%TO.N,RS485_TX*%
X63750000Y-21305001D03*
%TO.P,U3,26*%
%TO.N,N/C*%
X63750000Y-20035000D03*
%TO.P,U3,27*%
%TO.N,RS485_DE*%
X63750000Y-18765000D03*
%TO.P,U3,28*%
%TO.N,GND*%
X63750000Y-17495000D03*
D25*
%TO.P,U3,29*%
X53900000Y-24905000D03*
X53900000Y-26005000D03*
X53900000Y-27105000D03*
X55000000Y-24905000D03*
X55000000Y-26005000D03*
D43*
X55000000Y-26005000D03*
D25*
X55000000Y-27105000D03*
X56100000Y-24905000D03*
X56100000Y-26005000D03*
X56100000Y-27105000D03*
%TD*%
D14*
%TO.P,R21,1*%
%TO.N,AIN_DIV*%
X123175000Y-75000000D03*
%TO.P,R21,2*%
%TO.N,GND*%
X124825000Y-75000000D03*
%TD*%
%TO.P,R8,1*%
%TO.N,+3V3*%
X68175000Y-21000000D03*
%TO.P,R8,2*%
%TO.N,I2C_SCL*%
X69825000Y-21000000D03*
%TD*%
D44*
%TO.P,J4,1*%
%TO.N,+3V3*%
X115500000Y-104500000D03*
%TO.P,J4,2*%
%TO.N,GND*%
X116500000Y-104500000D03*
%TO.P,J4,3*%
%TO.N,I2C_SDA*%
X117500000Y-104500000D03*
%TO.P,J4,4*%
%TO.N,I2C_SCL*%
X118500000Y-104500000D03*
%TO.P,J4,5*%
%TO.N,ONEWIRE*%
X119500000Y-104500000D03*
%TO.P,J4,6*%
%TO.N,EXP_GPIO4*%
X120500000Y-104500000D03*
%TO.P,J4,7*%
%TO.N,EXP_GPIO5*%
X121500000Y-104500000D03*
%TO.P,J4,8*%
%TO.N,SYS_5V*%
X122500000Y-104500000D03*
D45*
%TO.P,J4,MP*%
%TO.N,N/C*%
X114200000Y-108375000D03*
X123800000Y-108375000D03*
%TD*%
D16*
%TO.P,TP10,1*%
%TO.N,RS485_B*%
X94000000Y-31000000D03*
%TD*%
%TO.P,TP11,1*%
%TO.N,RS485_COM*%
X102000000Y-31000000D03*
%TD*%
D32*
%TO.P,J2,1*%
%TO.N,RS485_A*%
X135000000Y-48000000D03*
D21*
%TO.P,J2,2*%
%TO.N,RS485_B*%
X135000000Y-43000000D03*
%TO.P,J2,3*%
%TO.N,RS485_COM*%
X135000000Y-38000000D03*
%TO.P,J2,4*%
%TO.N,RS485_SHIELD*%
X135000000Y-33000000D03*
%TD*%
D30*
%TO.P,LED3,1*%
%TO.N,BUS_LED_R*%
X103212500Y-40000000D03*
%TO.P,LED3,2*%
%TO.N,GND*%
X104787500Y-40000000D03*
%TD*%
D23*
%TO.P,TVS4,1*%
%TO.N,GND*%
X126950000Y-25000000D03*
%TO.P,TVS4,2*%
%TO.N,CONTACT2_EXT*%
X129050000Y-25000000D03*
%TD*%
D10*
%TO.P,R3,1*%
%TO.N,PWR_GOOD*%
X50000000Y-57825000D03*
%TO.P,R3,2*%
%TO.N,5V_BUCK*%
X50000000Y-56175000D03*
%TD*%
D15*
%TO.P,C11,1*%
%TO.N,+3V3*%
X80225000Y-50000000D03*
%TO.P,C11,2*%
%TO.N,GND*%
X81775000Y-50000000D03*
%TD*%
D14*
%TO.P,R16,1*%
%TO.N,CONTACT1_EXT*%
X111175000Y-25000000D03*
%TO.P,R16,2*%
%TO.N,CONTACT1*%
X112825000Y-25000000D03*
%TD*%
%TO.P,R9,1*%
%TO.N,OPAMP_OUT*%
X95175000Y-50000000D03*
%TO.P,R9,2*%
%TO.N,OPAMP_FB*%
X96825000Y-50000000D03*
%TD*%
D16*
%TO.P,TP7,1*%
%TO.N,RH_OUT*%
X70000000Y-38000000D03*
%TD*%
D22*
%TO.P,C14,1*%
%TO.N,+3V3*%
X95050000Y-55500000D03*
%TO.P,C14,2*%
%TO.N,GND*%
X96950000Y-55500000D03*
%TD*%
D46*
%TO.P,RTH1,1*%
%TO.N,TEMP_KTY*%
X27000000Y-46000000D03*
D47*
%TO.P,RTH1,2*%
%TO.N,GND*%
X28270000Y-46000000D03*
%TO.P,RTH1,3*%
%TO.N,N/C*%
X29540000Y-46000000D03*
%TD*%
D30*
%TO.P,LED1,1*%
%TO.N,STATUS_LED_R*%
X81212500Y-40000000D03*
%TO.P,LED1,2*%
%TO.N,GND*%
X82787500Y-40000000D03*
%TD*%
D23*
%TO.P,TVS3,1*%
%TO.N,GND*%
X106950000Y-25000000D03*
%TO.P,TVS3,2*%
%TO.N,CONTACT1_EXT*%
X109050000Y-25000000D03*
%TD*%
D15*
%TO.P,C20,1*%
%TO.N,CONTACT2*%
X123225000Y-31000000D03*
%TO.P,C20,2*%
%TO.N,GND*%
X124775000Y-31000000D03*
%TD*%
D14*
%TO.P,R17,1*%
%TO.N,CONTACT2_EXT*%
X123175000Y-25000000D03*
%TO.P,R17,2*%
%TO.N,CONTACT2*%
X124825000Y-25000000D03*
%TD*%
D48*
%TO.P,J3,A1*%
%TO.N,GND*%
X99750000Y-103155000D03*
%TO.P,J3,A4*%
%TO.N,USB_5V*%
X100550000Y-103155000D03*
D49*
%TO.P,J3,A5*%
%TO.N,USB_CC1*%
X101750000Y-103155000D03*
%TO.P,J3,A6*%
%TO.N,USB_D+*%
X102750000Y-103155000D03*
%TO.P,J3,A7*%
%TO.N,USB_D-*%
X103250000Y-103155000D03*
%TO.P,J3,A8*%
%TO.N,N/C*%
X104250000Y-103155000D03*
D48*
%TO.P,J3,A9*%
%TO.N,USB_5V*%
X105450000Y-103155000D03*
%TO.P,J3,A12*%
%TO.N,GND*%
X106250000Y-103155000D03*
%TO.P,J3,B1*%
X106250000Y-103155000D03*
%TO.P,J3,B4*%
%TO.N,USB_5V*%
X105450000Y-103155000D03*
D49*
%TO.P,J3,B5*%
%TO.N,USB_CC2*%
X104750000Y-103155000D03*
%TO.P,J3,B6*%
%TO.N,USB_D+*%
X103750000Y-103155000D03*
%TO.P,J3,B7*%
%TO.N,USB_D-*%
X102250000Y-103155000D03*
%TO.P,J3,B8*%
%TO.N,N/C*%
X101250000Y-103155000D03*
D48*
%TO.P,J3,B9*%
%TO.N,USB_5V*%
X100550000Y-103155000D03*
%TO.P,J3,B12*%
%TO.N,GND*%
X99750000Y-103155000D03*
D50*
%TO.P,J3,SH*%
X98680000Y-104070000D03*
D51*
X98680000Y-108250000D03*
D50*
X107320000Y-104070000D03*
D51*
X107320000Y-108250000D03*
%TD*%
D33*
%TO.P,SW2,1*%
%TO.N,C6_BOOT*%
X75300000Y-43000000D03*
%TO.P,SW2,2*%
%TO.N,GND*%
X78700000Y-43000000D03*
%TD*%
D20*
%TO.P,J5,1*%
%TO.N,+3V3*%
X84000000Y-15000000D03*
D21*
%TO.P,J5,2*%
%TO.N,ONEWIRE_EXT*%
X89000000Y-15000000D03*
%TO.P,J5,3*%
%TO.N,GND*%
X94000000Y-15000000D03*
%TD*%
D12*
%TO.P,J11,1*%
%TO.N,GND*%
X81000000Y-98000000D03*
D13*
%TO.P,J11,2*%
%TO.N,SYS_5V*%
X83540000Y-98000000D03*
%TO.P,J11,3*%
%TO.N,I2C_SDA*%
X81000000Y-100540000D03*
%TO.P,J11,4*%
%TO.N,I2C_SCL*%
X83540000Y-100540000D03*
%TO.P,J11,5*%
X81000000Y-103080000D03*
%TO.P,J11,6*%
%TO.N,I2C_SDA*%
X83540000Y-103080000D03*
%TO.P,J11,7*%
%TO.N,SYS_5V*%
X81000000Y-105620000D03*
%TO.P,J11,8*%
%TO.N,GND*%
X83540000Y-105620000D03*
%TD*%
D15*
%TO.P,C19,1*%
%TO.N,CONTACT1*%
X111225000Y-31000000D03*
%TO.P,C19,2*%
%TO.N,GND*%
X112775000Y-31000000D03*
%TD*%
D39*
%TO.P,U2,1*%
%TO.N,SYS_5V*%
X78862500Y-63050000D03*
%TO.P,U2,2*%
%TO.N,GND*%
X78862500Y-64000000D03*
%TO.P,U2,3*%
%TO.N,SYS_5V*%
X78862500Y-64950000D03*
%TO.P,U2,4*%
%TO.N,N/C*%
X81137500Y-64950000D03*
%TO.P,U2,5*%
%TO.N,+3V3*%
X81137500Y-63050000D03*
%TD*%
D14*
%TO.P,R1,1*%
%TO.N,5V_BUCK*%
X54175000Y-73000000D03*
%TO.P,R1,2*%
%TO.N,BUCK_FB*%
X55825000Y-73000000D03*
%TD*%
D52*
%TO.N,USB_CC2*%
X104750000Y-101910400D03*
X71477600Y-67825000D03*
%TO.N,GND*%
X116743700Y-103199300D03*
X66536900Y-45238100D03*
X55823400Y-76984200D03*
D53*
X77400000Y-18400000D03*
D52*
X36332900Y-76208300D03*
X131250000Y-95771200D03*
X77812000Y-57770900D03*
X65004100Y-17722400D03*
X127540400Y-25590400D03*
X117912800Y-94639300D03*
X55823400Y-93890900D03*
X73498400Y-57310000D03*
X107568200Y-25618200D03*
X124224100Y-30036600D03*
X113534900Y-30240100D03*
X95467500Y-24288700D03*
X127794700Y-76050000D03*
X47514100Y-17707400D03*
%TO.N,SYS_5V*%
X56840400Y-74439400D03*
X73345100Y-56029800D03*
X123825400Y-96838000D03*
%TO.N,I2C_SDA*%
X47504100Y-23845000D03*
X117545500Y-103206700D03*
X57703400Y-48216800D03*
D53*
X70600000Y-18400000D03*
D52*
X84137500Y-47753100D03*
%TO.N,I2C_SCL*%
X44995900Y-25342400D03*
D53*
X70600000Y-21600000D03*
D52*
X58963100Y-48288500D03*
X118472200Y-103222400D03*
X31424900Y-103080000D03*
X85304300Y-46329500D03*
X64203700Y-105245700D03*
%TO.N,ADC_0_10*%
X47506600Y-26385000D03*
X120090000Y-71265000D03*
X81441000Y-71265000D03*
D53*
%TO.N,+3V3*%
X77400000Y-21600000D03*
D52*
X114236700Y-75775800D03*
X63434200Y-43740800D03*
X95945600Y-54604400D03*
X107425800Y-27250800D03*
X125423100Y-28751900D03*
X47504100Y-18765000D03*
X101913800Y-55578600D03*
X67269800Y-18088700D03*
X90435700Y-24260700D03*
X114697200Y-103697200D03*
%TO.N,RH_OUT*%
X98876000Y-44727000D03*
%TO.N,STATUS_LED*%
X47506900Y-29054700D03*
X56788700Y-38190500D03*
X76418900Y-39243900D03*
%TO.N,24V_PROT*%
X37755700Y-67755600D03*
X93137500Y-43928200D03*
X40970600Y-53000000D03*
%TO.N,24V_FUSED*%
X38642100Y-64642100D03*
X32215500Y-65502300D03*
%TO.N,5V_BUCK*%
X74641600Y-52641600D03*
X50872700Y-55578600D03*
X54175000Y-72011600D03*
X67724500Y-64310300D03*
%TO.N,CONTACT1_EXT*%
X111175000Y-24010900D03*
%TO.N,CONTACT2_EXT*%
X128647900Y-24268200D03*
%TO.N,VCC_BYP*%
X46910500Y-71032700D03*
X53002900Y-65886200D03*
%TO.N,CONTACT2*%
X65004100Y-31237600D03*
X123225000Y-27963100D03*
%TO.N,PWR_GOOD*%
X45012100Y-66905000D03*
X49224000Y-58525700D03*
%TO.N,BUCK_FB*%
X52978800Y-67107100D03*
%TO.N,BOOT*%
X52977300Y-64365000D03*
X53225000Y-58980200D03*
%TO.N,SW*%
X54775000Y-58987500D03*
%TO.N,RS485_TERM*%
X121103700Y-65913700D03*
%TO.N,RS485_B*%
X122902900Y-59190000D03*
%TO.N,RS485_A*%
X112122100Y-61304200D03*
%TO.N,CONTACT1*%
X109825000Y-29552000D03*
X65004100Y-32507600D03*
%TO.N,SERVICE_BUTTON*%
X65004100Y-30195000D03*
X111089400Y-95264400D03*
%TO.N,24V_RAW*%
X25776200Y-64913700D03*
%TO.N,C6_EN*%
X47504100Y-20262400D03*
%TO.N,USB_CC1*%
X68772600Y-68525100D03*
X101355000Y-101917500D03*
%TO.N,BUS_LED*%
X65004100Y-27882400D03*
X98493900Y-39196400D03*
%TO.N,RS485_COM*%
X109029900Y-52629900D03*
%TO.N,RS485_RX*%
X98805100Y-58524100D03*
X65002500Y-22575000D03*
%TO.N,RS485_DE*%
X62497500Y-18765000D03*
X98821700Y-59365000D03*
%TO.N,RS485_TX*%
X98811100Y-61472800D03*
X65004100Y-21532400D03*
%TO.N,ONEWIRE*%
X85437300Y-25737700D03*
X119500000Y-103220000D03*
X65009800Y-26176900D03*
%TO.N,USB_5V*%
X67602500Y-75000000D03*
X101210900Y-104417500D03*
%TO.N,USB_D-*%
X103145700Y-101370200D03*
X47502500Y-32735000D03*
X72694300Y-66692900D03*
%TO.N,USB_D+*%
X101480000Y-101112500D03*
X103762600Y-101917200D03*
X75277300Y-70191500D03*
X44993400Y-34005000D03*
%TO.N,DAC_RAW*%
X89697300Y-46736200D03*
X87203400Y-44242300D03*
%TO.N,EXP_GPIO4*%
X47504100Y-21305000D03*
X120500000Y-103216000D03*
%TO.N,EXP_GPIO5*%
X47504100Y-22575000D03*
X121500000Y-103222100D03*
%TO.N,C6_BOOT*%
X74332200Y-43000000D03*
X65008200Y-34005000D03*
%TD*%
%TO.N,USB_CC2*%
D54*
X70500000Y-67825000D02*
X71477600Y-67825000D01*
X104750000Y-101910400D02*
X104750000Y-103155000D01*
%TO.N,GND*%
X95787500Y-40000000D02*
X95787500Y-40987500D01*
X100997300Y-43790200D02*
X100997300Y-44222300D01*
X80548300Y-46000000D02*
X81862500Y-46000000D01*
X124224100Y-30449100D02*
X124775000Y-31000000D01*
X100350000Y-64445000D02*
X99918300Y-64445000D01*
X78000000Y-19225000D02*
X77400000Y-18625000D01*
X95467500Y-24288700D02*
X95950000Y-24771200D01*
X106686700Y-102718300D02*
X106250000Y-103155000D01*
X107320000Y-102718300D02*
X106686700Y-102718300D01*
X107568200Y-25618200D02*
X106950000Y-25000000D01*
X46250000Y-17495000D02*
X47301700Y-17495000D01*
X95531000Y-42756000D02*
X95531000Y-43790200D01*
X42475000Y-56000000D02*
X42950000Y-56000000D01*
X69861900Y-45238100D02*
X70948300Y-44151700D01*
X131250000Y-94000000D02*
X131250000Y-95771200D01*
X95531000Y-43790200D02*
X100997300Y-43790200D01*
X127794700Y-76050000D02*
X127000000Y-76050000D01*
X72475000Y-64000000D02*
X70500000Y-65975000D01*
X55825000Y-76000000D02*
X55825000Y-76982600D01*
X72475000Y-64000000D02*
X72475000Y-59000000D01*
X124825000Y-75812900D02*
X124825000Y-75000000D01*
X73149300Y-68349200D02*
X70975100Y-66175000D01*
X74700000Y-19600000D02*
X76200000Y-19600000D01*
X78495600Y-58454400D02*
X79034800Y-57915200D01*
X100997300Y-44222300D02*
X102000000Y-45225000D01*
X83036400Y-45399200D02*
X82831000Y-45604600D01*
X96092600Y-105620000D02*
X83540000Y-105620000D01*
X36332900Y-76208300D02*
X36941700Y-76208300D01*
X73498400Y-57310000D02*
X72475000Y-58333400D01*
X98680000Y-104070000D02*
X98680000Y-103032600D01*
X66536900Y-45238100D02*
X69861900Y-45238100D01*
X46300000Y-63095000D02*
X47376700Y-63095000D01*
X124224100Y-30036600D02*
X124224100Y-30449100D01*
X98680000Y-103032600D02*
X98680000Y-102718300D01*
X46300000Y-63095000D02*
X45223300Y-63095000D01*
X82831000Y-45604600D02*
X82831000Y-46000000D01*
X117700000Y-94848300D02*
X117703800Y-94848300D01*
X82831000Y-48944000D02*
X81775000Y-50000000D01*
X82831000Y-46000000D02*
X82831000Y-48944000D01*
D55*
X83036400Y-45399200D02*
X83788300Y-45399200D01*
X65004100Y-17722400D02*
X64776700Y-17495000D01*
D54*
X127540400Y-25590400D02*
X126950000Y-25000000D01*
X91033500Y-52791500D02*
X86678500Y-52791500D01*
X48400000Y-64400000D02*
X49000000Y-65000000D01*
X116500000Y-104500000D02*
X116500000Y-103443000D01*
X121587900Y-75812900D02*
X120775000Y-75000000D01*
X84137500Y-45050000D02*
X89560300Y-45050000D01*
X48400000Y-71550000D02*
X47950000Y-72000000D01*
X82495500Y-40000000D02*
X82787500Y-40000000D01*
D55*
X98189100Y-56825000D02*
X100350000Y-56825000D01*
D54*
X36941700Y-76208300D02*
X38000000Y-75150000D01*
X68000000Y-66175000D02*
X70500000Y-66175000D01*
X120775000Y-75000000D02*
X118825000Y-73050000D01*
X99918300Y-64445000D02*
X98189100Y-62715800D01*
X76200000Y-19600000D02*
X77400000Y-18400000D01*
X118825000Y-73050000D02*
X115062500Y-73050000D01*
X42950000Y-56000000D02*
X42950000Y-60821700D01*
X96950000Y-55500000D02*
X96950000Y-52500000D01*
X94775000Y-42000000D02*
X95531000Y-42756000D01*
X98680000Y-102718300D02*
X99313300Y-102718300D01*
D55*
X73513300Y-68349200D02*
X73149300Y-68349200D01*
D54*
X78495600Y-58454400D02*
X77812000Y-57770900D01*
X113534900Y-30240100D02*
X112775000Y-31000000D01*
X98189100Y-56739100D02*
X98189100Y-56825000D01*
X127000000Y-76050000D02*
X125062100Y-76050000D01*
X70500000Y-65975000D02*
X70500000Y-66175000D01*
X70975100Y-66175000D02*
X70500000Y-66175000D01*
X78700000Y-43795500D02*
X78700000Y-44151700D01*
X72475000Y-64000000D02*
X78862500Y-64000000D01*
X86678500Y-52791500D02*
X82831000Y-48944000D01*
X77400000Y-18625000D02*
X77400000Y-18400000D01*
X72475000Y-58333400D02*
X72475000Y-59000000D01*
X86000000Y-40000000D02*
X91000000Y-35000000D01*
X98680000Y-103032600D02*
X96092600Y-105620000D01*
X92366800Y-51458200D02*
X91825000Y-52000000D01*
X90510300Y-46000000D02*
X90862500Y-46000000D01*
X79034800Y-57915200D02*
X83865200Y-57915200D01*
X66536900Y-45238100D02*
X65775000Y-46000000D01*
X78700000Y-43000000D02*
X78700000Y-43795500D01*
X100997300Y-43790200D02*
X104787500Y-40000000D01*
X82787500Y-40000000D02*
X86000000Y-40000000D01*
D55*
X83788300Y-45399200D02*
X84029400Y-45158100D01*
D54*
X98189100Y-62715800D02*
X98189100Y-56825000D01*
X71700000Y-43000000D02*
X70948300Y-43000000D01*
X48400000Y-63200000D02*
X47481700Y-63200000D01*
X95787500Y-40987500D02*
X94775000Y-42000000D01*
X47301700Y-17495000D02*
X47514100Y-17707400D01*
X83865200Y-57915200D02*
X84950000Y-59000000D01*
X89560300Y-45050000D02*
X90510300Y-46000000D01*
X107320000Y-104070000D02*
X107320000Y-102718300D01*
D55*
X73622200Y-68240300D02*
X73513300Y-68349200D01*
D54*
X42950000Y-56000000D02*
X45950000Y-53000000D01*
X47481700Y-63200000D02*
X47376700Y-63095000D01*
X95787500Y-39787500D02*
X95787500Y-40000000D01*
X42950000Y-60821700D02*
X45223300Y-63095000D01*
X117703800Y-94848300D02*
X117912800Y-94639300D01*
X81862500Y-46000000D02*
X82831000Y-46000000D01*
X91000000Y-35000000D02*
X95787500Y-39787500D01*
X84029400Y-45158100D02*
X84137500Y-45050000D01*
X117700000Y-96000000D02*
X117700000Y-94848300D01*
X48400000Y-66800000D02*
X48400000Y-71550000D01*
X77950000Y-59000000D02*
X78495600Y-58454400D01*
X95908200Y-51458200D02*
X92366800Y-51458200D01*
X73862500Y-68000000D02*
X73622200Y-68240300D01*
X96950000Y-55500000D02*
X98189100Y-56739100D01*
X116500000Y-103443000D02*
X116743700Y-103199300D01*
X78700000Y-43795500D02*
X82495500Y-40000000D01*
X125062100Y-76050000D02*
X124825000Y-75812900D01*
X124825000Y-75812900D02*
X121587900Y-75812900D01*
X78700000Y-44151700D02*
X80548300Y-46000000D01*
X70948300Y-44151700D02*
X78700000Y-44151700D01*
X96950000Y-52500000D02*
X95908200Y-51458200D01*
D55*
X63750000Y-17495000D02*
X64776700Y-17495000D01*
D54*
X70948300Y-44151700D02*
X70948300Y-43000000D01*
X91825000Y-52000000D02*
X91033500Y-52791500D01*
X99313300Y-102718300D02*
X99750000Y-103155000D01*
X95950000Y-24771200D02*
X95950000Y-25000000D01*
X55825000Y-76982600D02*
X55823400Y-76984200D01*
%TO.N,SYS_5V*%
X123825400Y-103174600D02*
X122500000Y-104500000D01*
X78862500Y-61812500D02*
X78862500Y-63050000D01*
X123825400Y-96838000D02*
X123825400Y-103174600D01*
X79827300Y-64346400D02*
X79827300Y-63662600D01*
X124750000Y-94000000D02*
X124750000Y-95913400D01*
X59000000Y-75000000D02*
X58439400Y-74439400D01*
X124750000Y-95913400D02*
X123825400Y-96838000D01*
X72000000Y-54000000D02*
X72000000Y-54684700D01*
X79214700Y-63050000D02*
X78862500Y-63050000D01*
X79223700Y-64950000D02*
X79827300Y-64346400D01*
X79827300Y-63662600D02*
X79214700Y-63050000D01*
X58439400Y-74439400D02*
X56840400Y-74439400D01*
X76050000Y-59000000D02*
X78862500Y-61812500D01*
X73345100Y-56295100D02*
X73345100Y-56029800D01*
X76050000Y-59000000D02*
X73345100Y-56295100D01*
X78862500Y-64950000D02*
X79223700Y-64950000D01*
X72000000Y-54684700D02*
X73345100Y-56029800D01*
%TO.N,I2C_SDA*%
D56*
X79300000Y-104350000D02*
X85240000Y-104350000D01*
D55*
X46250000Y-23845000D02*
X47276700Y-23845000D01*
D54*
X71800000Y-19600000D02*
X70600000Y-18400000D01*
D56*
X51300000Y-104350000D02*
X57240000Y-104350000D01*
D54*
X117500000Y-103252200D02*
X117545500Y-103206700D01*
D56*
X29240000Y-103080000D02*
X27540000Y-103080000D01*
D54*
X117500000Y-104500000D02*
X117500000Y-103252200D01*
D56*
X29240000Y-104350000D02*
X29240000Y-103080000D01*
X85240000Y-103080000D02*
X83540000Y-103080000D01*
D54*
X70200000Y-18000000D02*
X70600000Y-18400000D01*
X84137500Y-47753100D02*
X84137500Y-46950000D01*
D56*
X53000000Y-100540000D02*
X51300000Y-100540000D01*
X57240000Y-104350000D02*
X57240000Y-103080000D01*
X81000000Y-100540000D02*
X79300000Y-100540000D01*
D54*
X73300000Y-19600000D02*
X71800000Y-19600000D01*
X69825000Y-18000000D02*
X70200000Y-18000000D01*
D56*
X85240000Y-104350000D02*
X85240000Y-103080000D01*
X57240000Y-103080000D02*
X55540000Y-103080000D01*
X25000000Y-100540000D02*
X23300000Y-100540000D01*
X23300000Y-104350000D02*
X29240000Y-104350000D01*
X79300000Y-100540000D02*
X79300000Y-104350000D01*
D55*
X47276700Y-23845000D02*
X47504100Y-23845000D01*
D56*
X23300000Y-100540000D02*
X23300000Y-104350000D01*
X51300000Y-100540000D02*
X51300000Y-104350000D01*
%TO.N,I2C_SCL*%
D54*
X71800000Y-20400000D02*
X70600000Y-21600000D01*
X118500000Y-103250200D02*
X118472200Y-103222400D01*
X70000000Y-21000000D02*
X70600000Y-21600000D01*
X118500000Y-104500000D02*
X118500000Y-103250200D01*
X69825000Y-21000000D02*
X70000000Y-21000000D01*
X73300000Y-20400000D02*
X71800000Y-20400000D01*
D55*
X84467000Y-46329500D02*
X85304300Y-46329500D01*
X44995900Y-25342400D02*
X45223300Y-25115000D01*
X46250000Y-25115000D02*
X45223300Y-25115000D01*
X84137500Y-46000000D02*
X84467000Y-46329500D01*
%TO.N,AIN_0_10_RAW*%
D54*
X125125000Y-73950000D02*
X123175000Y-72000000D01*
X127000000Y-73950000D02*
X133950000Y-73950000D01*
X133950000Y-73950000D02*
X135000000Y-75000000D01*
X127000000Y-73950000D02*
X125125000Y-73950000D01*
%TO.N,AIN_DIV*%
X120163600Y-72988600D02*
X119175000Y-72000000D01*
D55*
X123475600Y-71224000D02*
X123263100Y-71011500D01*
D54*
X121138500Y-72963400D02*
X121038400Y-72863300D01*
X124049000Y-71224000D02*
X123675800Y-71224000D01*
X122141600Y-71960300D02*
X121325900Y-72776000D01*
X122924000Y-71011500D02*
X122141600Y-71793900D01*
X123263100Y-71011500D02*
X122924000Y-71011500D01*
X124825000Y-72000000D02*
X124049000Y-71224000D01*
D55*
X121325900Y-72776000D02*
X121138500Y-72963400D01*
X121038400Y-72863300D02*
X120913100Y-72988600D01*
D54*
X123175000Y-75000000D02*
X121138500Y-72963400D01*
X120913100Y-72988600D02*
X120163600Y-72988600D01*
D55*
X123675800Y-71224000D02*
X123475600Y-71224000D01*
D54*
X122141600Y-71793900D02*
X122141600Y-71960300D01*
%TO.N,ADC_0_10*%
X116937500Y-74000000D02*
X114591400Y-74000000D01*
X120090000Y-71265000D02*
X120825000Y-72000000D01*
X113986100Y-73394700D02*
X113986100Y-72700800D01*
X119225000Y-75000000D02*
X117937500Y-75000000D01*
X46250000Y-26385000D02*
X47301700Y-26385000D01*
X113986100Y-72700800D02*
X115496200Y-71190700D01*
X117937500Y-75000000D02*
X116937500Y-74000000D01*
X115496200Y-71190700D02*
X120015700Y-71190700D01*
X114591400Y-74000000D02*
X113986100Y-73394700D01*
X120015700Y-71190700D02*
X120090000Y-71265000D01*
X47301700Y-26385000D02*
X47506600Y-26385000D01*
%TO.N,+3V3*%
X68175000Y-21000000D02*
X68175000Y-18000000D01*
X115500000Y-104500000D02*
X114697200Y-103697200D01*
X84083400Y-60033400D02*
X90516600Y-60033400D01*
X63434200Y-46434700D02*
X63434200Y-43740800D01*
X107425800Y-27250800D02*
X108175000Y-28000000D01*
X114697200Y-103697200D02*
X110175000Y-99175000D01*
X90435700Y-24260700D02*
X91175000Y-25000000D01*
X101913800Y-55578600D02*
X100373600Y-55578600D01*
X76200000Y-20400000D02*
X77400000Y-21600000D01*
X80225000Y-50000000D02*
X80225000Y-48587500D01*
X67269800Y-18088700D02*
X68086300Y-18088700D01*
X78000000Y-20775000D02*
X77400000Y-21375000D01*
X80225000Y-50000000D02*
X85725000Y-55500000D01*
X90516600Y-60033400D02*
X95050000Y-55500000D01*
X83050000Y-59000000D02*
X84083400Y-60033400D01*
X85725000Y-55500000D02*
X95050000Y-55500000D01*
X68086300Y-18088700D02*
X68175000Y-18000000D01*
X80225000Y-48587500D02*
X81862500Y-46950000D01*
D55*
X47276700Y-18765000D02*
X47504100Y-18765000D01*
D54*
X63434200Y-43740800D02*
X64175000Y-43000000D01*
X95945600Y-54604400D02*
X95050000Y-55500000D01*
X125423100Y-28751900D02*
X126175000Y-28000000D01*
D55*
X46250000Y-18765000D02*
X47276700Y-18765000D01*
D54*
X114236700Y-75775800D02*
X115062500Y-74950000D01*
X81137500Y-60912500D02*
X81137500Y-63050000D01*
X74700000Y-20400000D02*
X76200000Y-20400000D01*
X77400000Y-21375000D02*
X77400000Y-21600000D01*
X95050000Y-55500000D02*
X95050000Y-52500000D01*
X100373600Y-55578600D02*
X100350000Y-55555000D01*
X65587000Y-48587500D02*
X63434200Y-46434700D01*
X80225000Y-48587500D02*
X65587000Y-48587500D01*
X83050000Y-59000000D02*
X81137500Y-60912500D01*
X110175000Y-99175000D02*
X110175000Y-96000000D01*
%TO.N,RH_OUT*%
X100600000Y-46775000D02*
X99825000Y-46000000D01*
X102000000Y-46775000D02*
X100600000Y-46775000D01*
X99801100Y-45976100D02*
X99825000Y-46000000D01*
D55*
X98876000Y-45051000D02*
X99801100Y-45976100D01*
X98876000Y-44727000D02*
X98876000Y-45051000D01*
%TO.N,STATUS_LED*%
D54*
X47431400Y-29054700D02*
X47301700Y-28925000D01*
X46250000Y-28925000D02*
X47301700Y-28925000D01*
X47506900Y-29054700D02*
X47431400Y-29054700D01*
X76418900Y-39243900D02*
X77175000Y-40000000D01*
%TO.N,STATUS_LED_R*%
X81212500Y-40000000D02*
X78825000Y-40000000D01*
%TO.N,24V_PROT*%
X93225000Y-42718900D02*
X93137500Y-42806400D01*
D55*
X39525000Y-54348800D02*
X40970600Y-54348800D01*
D54*
X38000000Y-70850000D02*
X39425000Y-69425000D01*
X39425000Y-69425000D02*
X37755700Y-67755600D01*
X37755700Y-67755600D02*
X36000000Y-66000000D01*
D55*
X40970600Y-53000000D02*
X44050000Y-53000000D01*
D54*
X93137500Y-42806400D02*
X92768900Y-42806400D01*
X92768900Y-42806400D02*
X90175000Y-40212500D01*
X93137500Y-42806400D02*
X93137500Y-43928200D01*
X93137500Y-43928200D02*
X93137500Y-45050000D01*
X40970600Y-53000000D02*
X40970600Y-54348800D01*
X93225000Y-42000000D02*
X93225000Y-42718900D01*
X90175000Y-40212500D02*
X90175000Y-40000000D01*
X39525000Y-56000000D02*
X39525000Y-54348800D01*
X46300000Y-65635000D02*
X46300000Y-64365000D01*
X46300000Y-65635000D02*
X43215000Y-65635000D01*
X43215000Y-65635000D02*
X39425000Y-69425000D01*
%TO.N,24V_FUSED*%
X31635200Y-65502300D02*
X31137500Y-66000000D01*
X38642100Y-64642100D02*
X40000000Y-66000000D01*
X32215500Y-65502300D02*
X31635200Y-65502300D01*
%TO.N,5V_BUCK*%
X69525000Y-64000000D02*
X69525000Y-59000000D01*
X65150000Y-65000000D02*
X67034800Y-65000000D01*
X76000000Y-54000000D02*
X74641600Y-52641600D01*
X67034800Y-65000000D02*
X67724500Y-64310300D01*
X54175000Y-72011600D02*
X54175000Y-73000000D01*
X67724500Y-64310300D02*
X69214700Y-64310300D01*
X50872700Y-55578600D02*
X50596400Y-55578600D01*
X69214700Y-64310300D02*
X69525000Y-64000000D01*
X50596400Y-55578600D02*
X50000000Y-56175000D01*
%TO.N,CONTACT1_EXT*%
X111175000Y-24010900D02*
X111175000Y-25000000D01*
X109050000Y-25000000D02*
X111175000Y-25000000D01*
%TO.N,CONTACT2_EXT*%
X123958800Y-24216200D02*
X123175000Y-25000000D01*
X128483100Y-24433000D02*
X128266200Y-24216200D01*
X128647900Y-24268200D02*
X128483100Y-24433000D01*
X129050000Y-25000000D02*
X128483100Y-24433000D01*
X128266200Y-24216200D02*
X123958800Y-24216200D01*
%TO.N,VCC_BYP*%
X46050000Y-71893200D02*
X46050000Y-72000000D01*
X46910500Y-71032700D02*
X46050000Y-71893200D01*
D55*
X51700000Y-65635000D02*
X52751700Y-65635000D01*
X53002900Y-65886200D02*
X52751700Y-65635000D01*
%TO.N,CONTACT2*%
X63750000Y-31465000D02*
X64776700Y-31465000D01*
D54*
X124825000Y-25000000D02*
X127825000Y-28000000D01*
X123225000Y-26600000D02*
X124825000Y-25000000D01*
X123225000Y-27963100D02*
X123225000Y-26600000D01*
X123225000Y-31000000D02*
X123225000Y-27963100D01*
D55*
X65004100Y-31237600D02*
X64776700Y-31465000D01*
%TO.N,ONEWIRE_EXT*%
D54*
X87825000Y-25000000D02*
X88630000Y-25805000D01*
X92825000Y-25565200D02*
X97484800Y-25565200D01*
X92825000Y-25565200D02*
X92825000Y-25000000D01*
X87825000Y-16175000D02*
X87825000Y-25000000D01*
X92585200Y-25805000D02*
X92825000Y-25565200D01*
X97484800Y-25565200D02*
X98050000Y-25000000D01*
X88630000Y-25805000D02*
X92585200Y-25805000D01*
X89000000Y-15000000D02*
X87825000Y-16175000D01*
%TO.N,PWR_GOOD*%
X45223300Y-66905000D02*
X45012100Y-66905000D01*
X46300000Y-66905000D02*
X45223300Y-66905000D01*
X49224000Y-58525700D02*
X49299300Y-58525700D01*
X49299300Y-58525700D02*
X50000000Y-57825000D01*
%TO.N,BUCK_FB*%
X52978800Y-67107100D02*
X55825000Y-69953300D01*
X55825000Y-74350000D02*
X54175000Y-76000000D01*
X55825000Y-69953300D02*
X55825000Y-73000000D01*
X55825000Y-73000000D02*
X55825000Y-74350000D01*
X52978800Y-67107100D02*
X52776700Y-66905000D01*
X51700000Y-66905000D02*
X52776700Y-66905000D01*
%TO.N,BOOT*%
X51700000Y-64365000D02*
X52977300Y-64365000D01*
X53225000Y-58980200D02*
X53225000Y-58000000D01*
%TO.N,SW*%
X51700000Y-63095000D02*
X52776700Y-63095000D01*
X54775000Y-58987500D02*
X53035000Y-60727500D01*
X53035000Y-62836700D02*
X55198300Y-65000000D01*
X56850000Y-65000000D02*
X55198300Y-65000000D01*
X53035000Y-60727500D02*
X53035000Y-62836700D01*
X53035000Y-62836700D02*
X52776700Y-63095000D01*
X54775000Y-58987500D02*
X54775000Y-58000000D01*
%TO.N,RS485_TERM*%
X121103700Y-65913700D02*
X116727500Y-61537500D01*
X121103700Y-65913700D02*
X122000000Y-66810000D01*
X116727500Y-61537500D02*
X116000000Y-61537500D01*
%TO.N,RS485_B*%
X122000000Y-59190000D02*
X109825000Y-59190000D01*
X109825000Y-59190000D02*
X109650000Y-59365000D01*
X122000000Y-59190000D02*
X122902900Y-59190000D01*
%TO.N,RS485_A*%
X115280400Y-64462500D02*
X116000000Y-64462500D01*
D55*
X110319200Y-61304200D02*
X109650000Y-60635000D01*
X112122100Y-61304200D02*
X110319200Y-61304200D01*
D54*
X112122100Y-61304200D02*
X115280400Y-64462500D01*
%TO.N,PWR24_LED_R*%
X94212500Y-40000000D02*
X91825000Y-40000000D01*
%TO.N,CONTACT1*%
X111225000Y-31000000D02*
X109825000Y-29600000D01*
X109825000Y-28000000D02*
X112825000Y-25000000D01*
D55*
X63750000Y-32735000D02*
X64776700Y-32735000D01*
D54*
X109825000Y-29600000D02*
X109825000Y-29552000D01*
D55*
X65004100Y-32507600D02*
X64776700Y-32735000D01*
D54*
X109825000Y-29552000D02*
X109825000Y-28000000D01*
%TO.N,SERVICE_BUTTON*%
D55*
X64776700Y-30195000D02*
X65004100Y-30195000D01*
X63750000Y-30195000D02*
X64776700Y-30195000D01*
D54*
X111089400Y-95264400D02*
X111825000Y-96000000D01*
X114300000Y-96000000D02*
X111825000Y-96000000D01*
%TO.N,24V_RAW*%
X25776200Y-64913700D02*
X26862500Y-66000000D01*
%TO.N,C6_EN*%
X65825000Y-43000000D02*
X65825000Y-44400000D01*
X68300000Y-43000000D02*
X65825000Y-43000000D01*
X65825000Y-40588500D02*
X65825000Y-43000000D01*
X50667400Y-23425700D02*
X50667400Y-25430900D01*
D55*
X46250000Y-20035000D02*
X47276700Y-20035000D01*
D54*
X47504100Y-20262400D02*
X50667400Y-23425700D01*
X50667400Y-25430900D02*
X65825000Y-40588500D01*
X65825000Y-44400000D02*
X64225000Y-46000000D01*
D55*
X47504100Y-20262400D02*
X47276700Y-20035000D01*
%TO.N,OPAMP_FB*%
D54*
X94352300Y-47993700D02*
X94469200Y-48110600D01*
X94935600Y-48110600D02*
X96825000Y-50000000D01*
X94469200Y-48110600D02*
X94935600Y-48110600D01*
X94181300Y-47993700D02*
X94352300Y-47993700D01*
D55*
X94181300Y-47993700D02*
X93137500Y-46950000D01*
D54*
X90175000Y-52000000D02*
X94181300Y-47993700D01*
%TO.N,USB_CC1*%
X101749900Y-103155000D02*
X101750000Y-103155000D01*
X68772600Y-68525100D02*
X68072500Y-67825000D01*
X68072500Y-67825000D02*
X68000000Y-67825000D01*
X101355000Y-101917500D02*
X101749900Y-102312400D01*
X101749900Y-102312400D02*
X101749900Y-103155000D01*
%TO.N,BUS_LED*%
D55*
X63750000Y-27655000D02*
X64776700Y-27655000D01*
X65004100Y-27882400D02*
X64776700Y-27655000D01*
D54*
X98493900Y-39196400D02*
X99175000Y-39877500D01*
X99175000Y-39877500D02*
X99175000Y-40000000D01*
%TO.N,BUS_LED_R*%
X103212500Y-40000000D02*
X100825000Y-40000000D01*
%TO.N,VISO*%
X110495000Y-55555000D02*
X112050000Y-54000000D01*
X111988900Y-56938900D02*
X111988900Y-56224200D01*
X112050000Y-57000000D02*
X111988900Y-56938900D01*
D55*
X111988900Y-56224200D02*
X110319200Y-56224200D01*
X110319200Y-56224200D02*
X109650000Y-55555000D01*
D54*
X109650000Y-55555000D02*
X110495000Y-55555000D01*
%TO.N,RS485_COM*%
X112885100Y-58064900D02*
X111532700Y-58064900D01*
X111472200Y-58004300D02*
X111048200Y-57580400D01*
X108230900Y-62199500D02*
X109206400Y-63175000D01*
D55*
X110319200Y-57494200D02*
X109650000Y-56825000D01*
D54*
X113950000Y-57000000D02*
X112885100Y-58064900D01*
X113950000Y-57000000D02*
X113950000Y-54000000D01*
D55*
X111048200Y-57494200D02*
X110319200Y-57494200D01*
D54*
X113950000Y-54000000D02*
X112579900Y-52629900D01*
X111532700Y-58064900D02*
X111472200Y-58004300D01*
X110746500Y-58730000D02*
X108617300Y-58730000D01*
X109650000Y-63175000D02*
X109650000Y-64445000D01*
X111472200Y-58004300D02*
X110746500Y-58730000D01*
X112579900Y-52629900D02*
X109029900Y-52629900D01*
X108230900Y-59116400D02*
X108230900Y-62199500D01*
X108617300Y-58730000D02*
X108230900Y-59116400D01*
X109206400Y-63175000D02*
X109650000Y-63175000D01*
X111048200Y-57580400D02*
X111048200Y-57494200D01*
%TO.N,RS485_RX*%
D55*
X63750000Y-22575000D02*
X64776700Y-22575000D01*
D54*
X99920900Y-58524100D02*
X98805100Y-58524100D01*
X100350000Y-58095000D02*
X99920900Y-58524100D01*
D55*
X64776700Y-22575000D02*
X65002500Y-22575000D01*
%TO.N,RS485_DE*%
X63750000Y-18765000D02*
X62723300Y-18765000D01*
X62723300Y-18765000D02*
X62497500Y-18765000D01*
D54*
X100350000Y-59365000D02*
X98821700Y-59365000D01*
X100350000Y-59365000D02*
X100350000Y-60635000D01*
%TO.N,RS485_TX*%
D55*
X63750000Y-21305000D02*
X64776700Y-21305000D01*
D54*
X98811100Y-61472800D02*
X99917800Y-61472800D01*
X99917800Y-61472800D02*
X100350000Y-61905000D01*
D55*
X65004100Y-21532400D02*
X64776700Y-21305000D01*
%TO.N,ONEWIRE*%
D54*
X85437300Y-25737700D02*
X86175000Y-25000000D01*
X65009800Y-26176900D02*
X64801700Y-26385000D01*
X63750000Y-26385000D02*
X64801700Y-26385000D01*
X119500000Y-103220000D02*
X119500000Y-104500000D01*
%TO.N,USB_5V*%
X103651700Y-104417500D02*
X104789100Y-104417500D01*
X103416300Y-104819200D02*
X103651700Y-104583800D01*
X100550000Y-103155000D02*
X100550000Y-103756600D01*
X105450000Y-103756600D02*
X105450000Y-103155000D01*
X77151700Y-69277200D02*
X77151700Y-68349200D01*
X100550000Y-103756600D02*
X101210900Y-104417500D01*
X67602500Y-75000000D02*
X71428900Y-75000000D01*
X63000000Y-75000000D02*
X67602500Y-75000000D01*
X104789100Y-104417500D02*
X105450000Y-103756600D01*
D55*
X76486700Y-68349200D02*
X76137500Y-68000000D01*
D54*
X102333200Y-104819200D02*
X103416300Y-104819200D01*
X101210900Y-104417500D02*
X101931500Y-104417500D01*
X103651700Y-104583800D02*
X103651700Y-104417500D01*
D55*
X77151700Y-68349200D02*
X76486700Y-68349200D01*
D54*
X101931500Y-104417500D02*
X102333200Y-104819200D01*
X71428900Y-75000000D02*
X77151700Y-69277200D01*
%TO.N,USB_D-*%
X103145700Y-102161600D02*
X103145700Y-101370200D01*
X76137500Y-67050000D02*
X73862500Y-67050000D01*
X73505400Y-66692900D02*
X72694300Y-66692900D01*
X103250000Y-103155000D02*
X103250000Y-102265900D01*
X102981100Y-104217400D02*
X102499600Y-104217400D01*
X102250000Y-103967800D02*
X102250000Y-103155000D01*
X73862500Y-67050000D02*
X73505400Y-66692900D01*
D55*
X47276700Y-32735000D02*
X47502500Y-32735000D01*
D54*
X102499600Y-104217400D02*
X102250000Y-103967800D01*
X103250000Y-103948500D02*
X102981100Y-104217400D01*
X103250000Y-102265900D02*
X103145700Y-102161600D01*
X103250000Y-103155000D02*
X103250000Y-103948500D01*
D55*
X46250000Y-32735000D02*
X47276700Y-32735000D01*
%TO.N,USB_D+*%
D54*
X46250000Y-34005000D02*
X45198300Y-34005000D01*
X76137500Y-68950000D02*
X73862500Y-68950000D01*
X101480000Y-101112500D02*
X102750000Y-102382500D01*
X102750000Y-102382500D02*
X102750000Y-103155000D01*
X76137500Y-69331300D02*
X75277300Y-70191500D01*
X45198300Y-34005000D02*
X44993400Y-34005000D01*
X103750000Y-103155000D02*
X103750000Y-101929800D01*
X76137500Y-68950000D02*
X76137500Y-69331300D01*
X103750000Y-101929800D02*
X103762600Y-101917200D01*
%TO.N,OPAMP_OUT*%
X91214700Y-45050000D02*
X92298200Y-46133500D01*
D55*
X97526000Y-49624400D02*
X97526100Y-49624400D01*
D54*
X97955100Y-50136300D02*
X97312600Y-50778800D01*
X97955100Y-50053400D02*
X97955100Y-50136300D01*
X97526000Y-49424200D02*
X97526000Y-46649000D01*
X95953800Y-50778800D02*
X95175000Y-50000000D01*
D55*
X97526100Y-49624400D02*
X97955100Y-50053400D01*
D54*
X97526000Y-46649000D02*
X98041500Y-46133500D01*
D55*
X97526000Y-49424200D02*
X97526000Y-49624400D01*
D54*
X90862500Y-45050000D02*
X91214700Y-45050000D01*
X98041500Y-46133500D02*
X98175000Y-46000000D01*
X97312600Y-50778800D02*
X95953800Y-50778800D01*
X92298200Y-46133500D02*
X98041500Y-46133500D01*
%TO.N,DAC_RAW*%
X81862500Y-45050000D02*
X82670200Y-44242300D01*
X82670200Y-44242300D02*
X87203400Y-44242300D01*
X90862500Y-46950000D02*
X90648700Y-46736200D01*
X90648700Y-46736200D02*
X89697300Y-46736200D01*
%TO.N,EXP_GPIO4*%
D55*
X46250000Y-21305000D02*
X47276700Y-21305000D01*
D54*
X120500000Y-104500000D02*
X120500000Y-103216000D01*
D55*
X47276700Y-21305000D02*
X47504100Y-21305000D01*
%TO.N,EXP_GPIO5*%
X46250000Y-22575000D02*
X47276700Y-22575000D01*
D54*
X121500000Y-104500000D02*
X121500000Y-103222100D01*
D55*
X47276700Y-22575000D02*
X47504100Y-22575000D01*
%TO.N,C6_BOOT*%
D54*
X63750000Y-34005000D02*
X64801700Y-34005000D01*
X64801700Y-34005000D02*
X65008200Y-34005000D01*
X74548300Y-43000000D02*
X74332200Y-43000000D01*
X75300000Y-43000000D02*
X74548300Y-43000000D01*
%TD*%
M02*
