%TF.GenerationSoftware,KiCad,Pcbnew,10.0.5*%
%TF.CreationDate,2026-08-08T00:43:40+02:00*%
%TF.ProjectId,IDM-RoomSensor-ESP-B-ES5-MODULAR,49444d2d-526f-46f6-9d53-656e736f722d,rev?*%
%TF.SameCoordinates,Original*%
%TF.FileFunction,Copper,L2,Inr*%
%TF.FilePolarity,Positive*%
%FSLAX46Y46*%
G04 Gerber Fmt 4.6, Leading zero omitted, Abs format (unit mm)*
G04 Created by KiCad (PCBNEW 10.0.5) date 2026-08-08 00:43:40*
%MOMM*%
%LPD*%
G01*
G04 APERTURE LIST*
G04 Aperture macros list*
%AMRoundRect*
0 Rectangle with rounded corners*
0 $1 Rounding radius*
0 $2 $3 $4 $5 $6 $7 $8 $9 X,Y pos of 4 corners*
0 Add a 4 corners polygon primitive as box body*
4,1,4,$2,$3,$4,$5,$6,$7,$8,$9,$2,$3,0*
0 Add four circle primitives for the rounded corners*
1,1,$1+$1,$2,$3*
1,1,$1+$1,$4,$5*
1,1,$1+$1,$6,$7*
1,1,$1+$1,$8,$9*
0 Add four rect primitives between the rounded corners*
20,1,$1+$1,$2,$3,$4,$5,0*
20,1,$1+$1,$4,$5,$6,$7,0*
20,1,$1+$1,$6,$7,$8,$9,0*
20,1,$1+$1,$8,$9,$2,$3,0*%
G04 Aperture macros list end*
%TA.AperFunction,ComponentPad*%
%ADD10R,1.700000X1.700000*%
%TD*%
%TA.AperFunction,ComponentPad*%
%ADD11C,1.700000*%
%TD*%
%TA.AperFunction,ComponentPad*%
%ADD12C,3.000000*%
%TD*%
%TA.AperFunction,ComponentPad*%
%ADD13RoundRect,0.250001X-1.149999X-1.149999X1.149999X-1.149999X1.149999X1.149999X-1.149999X1.149999X0*%
%TD*%
%TA.AperFunction,ComponentPad*%
%ADD14C,2.800000*%
%TD*%
%TA.AperFunction,ComponentPad*%
%ADD15C,0.600000*%
%TD*%
%TA.AperFunction,ComponentPad*%
%ADD16RoundRect,0.250001X1.149999X-1.149999X1.149999X1.149999X-1.149999X1.149999X-1.149999X-1.149999X0*%
%TD*%
%TA.AperFunction,ComponentPad*%
%ADD17R,1.050000X1.500000*%
%TD*%
%TA.AperFunction,ComponentPad*%
%ADD18O,1.050000X1.500000*%
%TD*%
%TA.AperFunction,ComponentPad*%
%ADD19O,1.000000X2.100000*%
%TD*%
%TA.AperFunction,ComponentPad*%
%ADD20O,1.000000X1.600000*%
%TD*%
%TA.AperFunction,ViaPad*%
%ADD21C,0.600000*%
%TD*%
%TA.AperFunction,ViaPad*%
%ADD22C,0.800000*%
%TD*%
%TA.AperFunction,Conductor*%
%ADD23C,0.200000*%
%TD*%
%TA.AperFunction,Conductor*%
%ADD24C,0.250000*%
%TD*%
G04 APERTURE END LIST*
D10*
%TO.N,GND*%
%TO.C,J10*%
X53000000Y-98000000D03*
D11*
%TO.N,SYS_5V*%
X55540000Y-98000000D03*
%TO.N,I2C_SDA*%
X53000000Y-100540000D03*
%TO.N,I2C_SCL*%
X55540000Y-100540000D03*
X53000000Y-103080000D03*
%TO.N,I2C_SDA*%
X55540000Y-103080000D03*
%TO.N,SYS_5V*%
X53000000Y-105620000D03*
%TO.N,GND*%
X55540000Y-105620000D03*
%TD*%
D12*
%TO.N,I2C_SCL*%
%TO.C,TP6*%
X62000000Y-40000000D03*
%TD*%
D10*
%TO.N,GND*%
%TO.C,J9*%
X25000000Y-98000000D03*
D11*
%TO.N,SYS_5V*%
X27540000Y-98000000D03*
%TO.N,I2C_SDA*%
X25000000Y-100540000D03*
%TO.N,I2C_SCL*%
X27540000Y-100540000D03*
X25000000Y-103080000D03*
%TO.N,I2C_SDA*%
X27540000Y-103080000D03*
%TO.N,SYS_5V*%
X25000000Y-105620000D03*
%TO.N,GND*%
X27540000Y-105620000D03*
%TD*%
D13*
%TO.N,CONTACT1_EXT*%
%TO.C,J7*%
X126000000Y-15000000D03*
D14*
%TO.N,GND*%
X131000000Y-15000000D03*
%TO.N,CONTACT2_EXT*%
X136000000Y-15000000D03*
%TD*%
D15*
%TO.N,GND*%
%TO.C,U1*%
X48400000Y-63200000D03*
X48400000Y-64400000D03*
X48400000Y-65700000D03*
X48400000Y-66800000D03*
X49600000Y-63200000D03*
X49600000Y-64400000D03*
X49600000Y-65700000D03*
X49600000Y-66800000D03*
%TD*%
D12*
%TO.N,RS485_A*%
%TO.C,TP9*%
X86000000Y-31000000D03*
%TD*%
%TO.N,24V_PROT*%
%TO.C,TP2*%
X30000000Y-38000000D03*
%TD*%
D16*
%TO.N,TEMP_KTY*%
%TO.C,J1*%
X16000000Y-66000000D03*
D14*
%TO.N,24V_RAW*%
X16000000Y-61000000D03*
%TO.N,GND*%
X16000000Y-56000000D03*
%TO.N,RH_OUT*%
X16000000Y-51000000D03*
%TD*%
D12*
%TO.N,24V_RAW*%
%TO.C,TP1*%
X22000000Y-38000000D03*
%TD*%
%TO.N,GND*%
%TO.C,TP12*%
X91000000Y-35000000D03*
%TD*%
%TO.N,SYS_5V*%
%TO.C,TP3*%
X38000000Y-38000000D03*
%TD*%
%TO.N,+3V3*%
%TO.C,TP4*%
X46000000Y-39000000D03*
%TD*%
%TO.N,TEMP_KTY*%
%TO.C,TP8*%
X83000000Y-35000000D03*
%TD*%
D13*
%TO.N,+3V3*%
%TO.C,J6*%
X104000000Y-15000000D03*
D14*
%TO.N,ONEWIRE_EXT*%
X109000000Y-15000000D03*
%TO.N,GND*%
X114000000Y-15000000D03*
%TD*%
D16*
%TO.N,AIN_0_10_RAW*%
%TO.C,J8*%
X135000000Y-75000000D03*
D14*
%TO.N,GND*%
X135000000Y-70000000D03*
%TD*%
D12*
%TO.N,I2C_SDA*%
%TO.C,TP5*%
X54000000Y-40000000D03*
%TD*%
D15*
%TO.N,GND*%
%TO.C,U3*%
X53900000Y-24905000D03*
X53900000Y-26005000D03*
X53900000Y-27105000D03*
X55000000Y-24905000D03*
X55000000Y-26005000D03*
X55000000Y-27105000D03*
X56100000Y-24905000D03*
X56100000Y-26005000D03*
X56100000Y-27105000D03*
%TD*%
D12*
%TO.N,RS485_B*%
%TO.C,TP10*%
X94000000Y-31000000D03*
%TD*%
%TO.N,RS485_COM*%
%TO.C,TP11*%
X102000000Y-31000000D03*
%TD*%
D16*
%TO.N,RS485_A*%
%TO.C,J2*%
X135000000Y-48000000D03*
D14*
%TO.N,RS485_B*%
X135000000Y-43000000D03*
%TO.N,RS485_COM*%
X135000000Y-38000000D03*
%TO.N,RS485_SHIELD*%
X135000000Y-33000000D03*
%TD*%
D12*
%TO.N,RH_OUT*%
%TO.C,TP7*%
X70000000Y-38000000D03*
%TD*%
D17*
%TO.N,TEMP_KTY*%
%TO.C,RTH1*%
X27000000Y-46000000D03*
D18*
%TO.N,GND*%
X28270000Y-46000000D03*
%TO.N,N/C*%
X29540000Y-46000000D03*
%TD*%
D19*
%TO.N,GND*%
%TO.C,J3*%
X98680000Y-104070000D03*
D20*
X98680000Y-108250000D03*
D19*
X107320000Y-104070000D03*
D20*
X107320000Y-108250000D03*
%TD*%
D13*
%TO.N,+3V3*%
%TO.C,J5*%
X84000000Y-15000000D03*
D14*
%TO.N,ONEWIRE_EXT*%
X89000000Y-15000000D03*
%TO.N,GND*%
X94000000Y-15000000D03*
%TD*%
D10*
%TO.N,GND*%
%TO.C,J11*%
X81000000Y-98000000D03*
D11*
%TO.N,SYS_5V*%
X83540000Y-98000000D03*
%TO.N,I2C_SDA*%
X81000000Y-100540000D03*
%TO.N,I2C_SCL*%
X83540000Y-100540000D03*
X81000000Y-103080000D03*
%TO.N,I2C_SDA*%
X83540000Y-103080000D03*
%TO.N,SYS_5V*%
X81000000Y-105620000D03*
%TO.N,GND*%
X83540000Y-105620000D03*
%TD*%
D21*
%TO.N,USB_CC2*%
X104750000Y-101910400D03*
X71477600Y-67825000D03*
%TO.N,GND*%
X116743700Y-103199300D03*
X66536900Y-45238100D03*
X55823400Y-76984200D03*
D22*
X77400000Y-18400000D03*
D21*
X36332900Y-76208300D03*
X131250000Y-95771200D03*
X77812000Y-57770900D03*
X65004100Y-17722400D03*
X127540400Y-25590400D03*
X117912800Y-94639300D03*
X55823400Y-93890900D03*
X73498400Y-57310000D03*
X107568200Y-25618200D03*
X124224100Y-30036600D03*
X113534900Y-30240100D03*
X95467500Y-24288700D03*
X127794700Y-76050000D03*
X47514100Y-17707400D03*
%TO.N,SYS_5V*%
X56840400Y-74439400D03*
X73345100Y-56029800D03*
X123825400Y-96838000D03*
%TO.N,I2C_SDA*%
X47504100Y-23845000D03*
X117545500Y-103206700D03*
X57703400Y-48216800D03*
D22*
X70600000Y-18400000D03*
D21*
X84137500Y-47753100D03*
%TO.N,I2C_SCL*%
X44995900Y-25342400D03*
D22*
X70600000Y-21600000D03*
D21*
X58963100Y-48288500D03*
X118472200Y-103222400D03*
X31424900Y-103080000D03*
X85304300Y-46329500D03*
X64203700Y-105245700D03*
%TO.N,ADC_0_10*%
X47506600Y-26385000D03*
X120090000Y-71265000D03*
X81441000Y-71265000D03*
D22*
%TO.N,+3V3*%
X77400000Y-21600000D03*
D21*
X114236700Y-75775800D03*
X63434200Y-43740800D03*
X95945600Y-54604400D03*
X107425800Y-27250800D03*
X125423100Y-28751900D03*
X47504100Y-18765000D03*
X101913800Y-55578600D03*
X67269800Y-18088700D03*
X90435700Y-24260700D03*
X114697200Y-103697200D03*
%TO.N,RH_OUT*%
X98876000Y-44727000D03*
%TO.N,STATUS_LED*%
X47506900Y-29054700D03*
X56788700Y-38190500D03*
X76418900Y-39243900D03*
%TO.N,24V_PROT*%
X37755700Y-67755600D03*
X93137500Y-43928200D03*
X40970600Y-53000000D03*
%TO.N,24V_FUSED*%
X38642100Y-64642100D03*
X32215500Y-65502300D03*
%TO.N,5V_BUCK*%
X74641600Y-52641600D03*
X50872700Y-55578600D03*
X54175000Y-72011600D03*
X67724500Y-64310300D03*
%TO.N,CONTACT1_EXT*%
X111175000Y-24010900D03*
%TO.N,CONTACT2_EXT*%
X128647900Y-24268200D03*
%TO.N,VCC_BYP*%
X46910500Y-71032700D03*
X53002900Y-65886200D03*
%TO.N,CONTACT2*%
X65004100Y-31237600D03*
X123225000Y-27963100D03*
%TO.N,PWR_GOOD*%
X45012100Y-66905000D03*
X49224000Y-58525700D03*
%TO.N,BUCK_FB*%
X52978800Y-67107100D03*
%TO.N,BOOT*%
X52977300Y-64365000D03*
X53225000Y-58980200D03*
%TO.N,SW*%
X54775000Y-58987500D03*
%TO.N,RS485_TERM*%
X121103700Y-65913700D03*
%TO.N,RS485_B*%
X122902900Y-59190000D03*
%TO.N,RS485_A*%
X112122100Y-61304200D03*
%TO.N,CONTACT1*%
X109825000Y-29552000D03*
X65004100Y-32507600D03*
%TO.N,SERVICE_BUTTON*%
X65004100Y-30195000D03*
X111089400Y-95264400D03*
%TO.N,24V_RAW*%
X25776200Y-64913700D03*
%TO.N,C6_EN*%
X47504100Y-20262400D03*
%TO.N,USB_CC1*%
X68772600Y-68525100D03*
X101355000Y-101917500D03*
%TO.N,BUS_LED*%
X65004100Y-27882400D03*
X98493900Y-39196400D03*
%TO.N,RS485_COM*%
X109029900Y-52629900D03*
%TO.N,RS485_RX*%
X98805100Y-58524100D03*
X65002500Y-22575000D03*
%TO.N,RS485_DE*%
X62497500Y-18765000D03*
X98821700Y-59365000D03*
%TO.N,RS485_TX*%
X98811100Y-61472800D03*
X65004100Y-21532400D03*
%TO.N,ONEWIRE*%
X85437300Y-25737700D03*
X119500000Y-103220000D03*
X65009800Y-26176900D03*
%TO.N,USB_5V*%
X67602500Y-75000000D03*
X101210900Y-104417500D03*
%TO.N,USB_D-*%
X103145700Y-101370200D03*
X47502500Y-32735000D03*
X72694300Y-66692900D03*
%TO.N,USB_D+*%
X101480000Y-101112500D03*
X103762600Y-101917200D03*
X75277300Y-70191500D03*
X44993400Y-34005000D03*
%TO.N,DAC_RAW*%
X89697300Y-46736200D03*
X87203400Y-44242300D03*
%TO.N,EXP_GPIO4*%
X47504100Y-21305000D03*
X120500000Y-103216000D03*
%TO.N,EXP_GPIO5*%
X47504100Y-22575000D03*
X121500000Y-103222100D03*
%TO.N,C6_BOOT*%
X74332200Y-43000000D03*
X65008200Y-34005000D03*
%TD*%
%TO.N,USB_CC2*%
D23*
X101128700Y-102559800D02*
X104100600Y-102559800D01*
X104100600Y-102559800D02*
X104750000Y-101910400D01*
X71477600Y-67825000D02*
X71477600Y-72908700D01*
X71477600Y-72908700D02*
X101128700Y-102559800D01*
%TO.N,GND*%
X66536900Y-50348500D02*
X73498400Y-57310000D01*
D24*
X23000000Y-98000000D02*
X23000000Y-108520000D01*
D23*
X66536900Y-45238100D02*
X66536900Y-50348500D01*
X56100000Y-27105000D02*
X56100000Y-26005000D01*
X53900000Y-27105000D02*
X53900000Y-26005000D01*
X55823400Y-93890900D02*
X55823400Y-94024900D01*
D24*
X79000000Y-108520000D02*
X85540000Y-108520000D01*
D23*
X91000000Y-28756200D02*
X91000000Y-35000000D01*
X73959300Y-57770900D02*
X73498400Y-57310000D01*
X131250000Y-76050000D02*
X131250000Y-95771200D01*
X53900000Y-24905000D02*
X53900000Y-24093300D01*
D24*
X23000000Y-108520000D02*
X29540000Y-108520000D01*
X79000000Y-98000000D02*
X79000000Y-108520000D01*
D23*
X25000000Y-98000000D02*
X25000000Y-96848300D01*
X55823400Y-94024900D02*
X53000000Y-96848300D01*
D24*
X57540000Y-105620000D02*
X55540000Y-105620000D01*
D23*
X131250000Y-73750000D02*
X131250000Y-76050000D01*
D24*
X57540000Y-108520000D02*
X57540000Y-105620000D01*
D23*
X98680000Y-108250000D02*
X98680000Y-104070000D01*
X135000000Y-70000000D02*
X131250000Y-73750000D01*
X28270000Y-46000000D02*
X28270000Y-44948300D01*
X48400000Y-66800000D02*
X48400000Y-65700000D01*
D24*
X53000000Y-98000000D02*
X51000000Y-98000000D01*
D23*
X49600000Y-70760800D02*
X55823400Y-76984200D01*
X56100000Y-26005000D02*
X56100000Y-24905000D01*
X16000000Y-56000000D02*
X16000000Y-55289000D01*
X131250000Y-76050000D02*
X127794700Y-76050000D01*
X16000000Y-55289000D02*
X26340700Y-44948300D01*
D24*
X85540000Y-108520000D02*
X85540000Y-105620000D01*
D23*
X95467500Y-24288700D02*
X95467500Y-16467500D01*
X107568200Y-25618200D02*
X112190100Y-30240100D01*
X127540400Y-25590400D02*
X124224100Y-28906700D01*
X107320000Y-108250000D02*
X107320000Y-104070000D01*
D24*
X29540000Y-108520000D02*
X29540000Y-105620000D01*
D23*
X131000000Y-15000000D02*
X127540400Y-18459600D01*
X127540400Y-18459600D02*
X127540400Y-25590400D01*
X114000000Y-29775000D02*
X113534900Y-30240100D01*
X95467500Y-16467500D02*
X94000000Y-15000000D01*
D24*
X85540000Y-105620000D02*
X83540000Y-105620000D01*
X51000000Y-98000000D02*
X51000000Y-108520000D01*
X51000000Y-108520000D02*
X57540000Y-108520000D01*
D23*
X49600000Y-66800000D02*
X49600000Y-70760800D01*
X26340700Y-44948300D02*
X28270000Y-44948300D01*
X112190100Y-30240100D02*
X113534900Y-30240100D01*
X36332900Y-85515400D02*
X36332900Y-76208300D01*
X48400000Y-64400000D02*
X48400000Y-63200000D01*
X25000000Y-96848300D02*
X36332900Y-85515400D01*
D24*
X29540000Y-105620000D02*
X27540000Y-105620000D01*
X25000000Y-98000000D02*
X23000000Y-98000000D01*
D23*
X124224100Y-28906700D02*
X124224100Y-30036600D01*
X95467500Y-24288700D02*
X91000000Y-28756200D01*
X53900000Y-26005000D02*
X53900000Y-24905000D01*
D24*
X81000000Y-98000000D02*
X79000000Y-98000000D01*
D23*
X55823400Y-76984200D02*
X55823400Y-93890900D01*
X49600000Y-66800000D02*
X49600000Y-65700000D01*
X77812000Y-57770900D02*
X73959300Y-57770900D01*
X48400000Y-65700000D02*
X48400000Y-64400000D01*
X114000000Y-15000000D02*
X114000000Y-29775000D01*
X53900000Y-24093300D02*
X47514100Y-17707400D01*
X53000000Y-98000000D02*
X53000000Y-96848300D01*
%TO.N,SYS_5V*%
X54557900Y-74439400D02*
X56840400Y-74439400D01*
X56840400Y-74439400D02*
X56840400Y-96699600D01*
X52070300Y-52070300D02*
X52070300Y-71951800D01*
X38000000Y-38000000D02*
X52070300Y-52070300D01*
X52070300Y-71951800D02*
X54557900Y-74439400D01*
X56840400Y-96699600D02*
X55540000Y-98000000D01*
%TO.N,I2C_SDA*%
X52920900Y-71819200D02*
X57703400Y-67036700D01*
X57442200Y-74109200D02*
X56851800Y-73518800D01*
X53000000Y-100540000D02*
X54388300Y-99151700D01*
X46889600Y-24459500D02*
X47504100Y-23845000D01*
X52920900Y-72234400D02*
X52920900Y-71819200D01*
X55837900Y-73518800D02*
X55385100Y-73066000D01*
X56851800Y-73518800D02*
X55837900Y-73518800D01*
X55385100Y-73066000D02*
X53752500Y-73066000D01*
X46889600Y-32982000D02*
X46889600Y-24459500D01*
X56017100Y-99151700D02*
X57442200Y-97726600D01*
X57703400Y-67036700D02*
X57703400Y-48216800D01*
X54000000Y-40000000D02*
X53907600Y-40000000D01*
X57442200Y-97726600D02*
X57442200Y-74109200D01*
X53752500Y-73066000D02*
X52920900Y-72234400D01*
X53907600Y-40000000D02*
X46889600Y-32982000D01*
X54388300Y-99151700D02*
X56017100Y-99151700D01*
%TO.N,I2C_SCL*%
X58963100Y-48288500D02*
X58963100Y-66345000D01*
X53918800Y-72664300D02*
X56565300Y-72664300D01*
X28884900Y-100540000D02*
X31424900Y-103080000D01*
X57864800Y-98215200D02*
X57519000Y-98561000D01*
X58963100Y-66345000D02*
X53322600Y-71985500D01*
X57519000Y-98561000D02*
X64203700Y-105245700D01*
X56565300Y-72664300D02*
X57864800Y-73963800D01*
X53322600Y-71985500D02*
X53322600Y-72068100D01*
X27540000Y-100540000D02*
X28884900Y-100540000D01*
X57864800Y-73963800D02*
X57864800Y-98215200D01*
X57519000Y-98561000D02*
X55540000Y-100540000D01*
X53322600Y-72068100D02*
X53918800Y-72664300D01*
%TO.N,ADC_0_10*%
X57704900Y-42367300D02*
X81440900Y-66103300D01*
X47506600Y-26385000D02*
X57704900Y-36583300D01*
X81441000Y-66103300D02*
X81441000Y-71265000D01*
X81440900Y-66103300D02*
X81441000Y-66103300D01*
X57704900Y-36583300D02*
X57704900Y-42367300D01*
%TO.N,+3V3*%
X114697200Y-103697200D02*
X114697200Y-76236300D01*
X44360600Y-37360600D02*
X46000000Y-39000000D01*
X47504100Y-18765000D02*
X44360600Y-21908500D01*
X114236700Y-75775800D02*
X101913800Y-63452900D01*
X84000000Y-17825000D02*
X84000000Y-15000000D01*
X104000000Y-15000000D02*
X104000000Y-23825000D01*
X84000000Y-15000000D02*
X77400000Y-21600000D01*
X90435700Y-24260700D02*
X84000000Y-17825000D01*
X44360600Y-21908500D02*
X44360600Y-37360600D01*
X114697200Y-76236300D02*
X114236700Y-75775800D01*
X101913800Y-63452900D02*
X101913800Y-55578600D01*
X104000000Y-23825000D02*
X107425800Y-27250800D01*
%TO.N,STATUS_LED*%
X47506900Y-29054700D02*
X47652900Y-29054700D01*
X47652900Y-29054700D02*
X56788700Y-38190500D01*
%TO.N,24V_PROT*%
X40970600Y-53000000D02*
X30000000Y-42029400D01*
X40970600Y-64540700D02*
X37755700Y-67755600D01*
X40970600Y-53000000D02*
X40970600Y-64540700D01*
X30000000Y-42029400D02*
X30000000Y-38000000D01*
%TO.N,5V_BUCK*%
X67724500Y-64310300D02*
X61876300Y-64310300D01*
X61876300Y-64310300D02*
X54175000Y-72011600D01*
%TO.N,CONTACT2_EXT*%
X136000000Y-16916100D02*
X136000000Y-15000000D01*
X128647900Y-24268200D02*
X136000000Y-16916100D01*
%TO.N,PWR_GOOD*%
X45012100Y-62737600D02*
X45012100Y-66905000D01*
X49224000Y-58525700D02*
X45012100Y-62737600D01*
%TO.N,BOOT*%
X52977300Y-59227900D02*
X53225000Y-58980200D01*
X52977300Y-64365000D02*
X52977300Y-59227900D01*
%TO.N,RS485_B*%
X122902900Y-53231700D02*
X122902900Y-59190000D01*
X122902900Y-53231700D02*
X108773800Y-53231700D01*
X124768300Y-53231700D02*
X122902900Y-53231700D01*
X94000000Y-38457900D02*
X94000000Y-31000000D01*
X135000000Y-43000000D02*
X124768300Y-53231700D01*
X108773800Y-53231700D02*
X94000000Y-38457900D01*
%TO.N,RS485_A*%
X86000000Y-35182100D02*
X86000000Y-31000000D01*
X112122100Y-61304200D02*
X86000000Y-35182100D01*
%TO.N,SERVICE_BUTTON*%
X111089400Y-95264400D02*
X111089400Y-76280300D01*
X111089400Y-76280300D02*
X65004100Y-30195000D01*
%TO.N,24V_RAW*%
X16000000Y-61000000D02*
X14246000Y-59246000D01*
X14246000Y-45754000D02*
X22000000Y-38000000D01*
X14246000Y-59246000D02*
X14246000Y-45754000D01*
%TO.N,TEMP_KTY*%
X27000000Y-55000000D02*
X16000000Y-66000000D01*
X27000000Y-46000000D02*
X27000000Y-55000000D01*
%TO.N,USB_CC1*%
X68772600Y-68525100D02*
X70094700Y-67203000D01*
X72109900Y-72672400D02*
X101355000Y-101917500D01*
X71732100Y-67203000D02*
X72109900Y-67580800D01*
X70094700Y-67203000D02*
X71732100Y-67203000D01*
X72109900Y-67580800D02*
X72109900Y-72672400D01*
%TO.N,RS485_COM*%
X109029900Y-52629900D02*
X102001600Y-45601600D01*
X102001600Y-31001500D02*
X102001500Y-31001500D01*
X102001600Y-45601600D02*
X102001600Y-31001500D01*
X102001500Y-31001500D02*
X102000000Y-31000000D01*
%TO.N,RS485_RX*%
X84537500Y-46747900D02*
X84537500Y-42110000D01*
X98805100Y-58524100D02*
X98890400Y-58524100D01*
X98890400Y-58524100D02*
X99429200Y-59062900D01*
X98506300Y-62082500D02*
X85154600Y-48730800D01*
X99429200Y-59062900D02*
X99429200Y-61741800D01*
X84537500Y-42110000D02*
X65002500Y-22575000D01*
X99429200Y-61741800D02*
X99088500Y-62082500D01*
X85154600Y-48730800D02*
X85154600Y-47365000D01*
X99088500Y-62082500D02*
X98506300Y-62082500D01*
X85154600Y-47365000D02*
X84537500Y-46747900D01*
%TO.N,RS485_DE*%
X98821700Y-59365000D02*
X98700900Y-59365000D01*
X96681000Y-57345100D02*
X96681000Y-52294400D01*
X96681000Y-52294400D02*
X63151600Y-18765000D01*
X63151600Y-18765000D02*
X62497500Y-18765000D01*
X98700900Y-59365000D02*
X96681000Y-57345100D01*
%TO.N,RS485_TX*%
X85929000Y-48590700D02*
X98811100Y-61472800D01*
X85929000Y-42457300D02*
X85929000Y-48590700D01*
X65004100Y-21532400D02*
X85929000Y-42457300D01*
%TO.N,ONEWIRE*%
X121969200Y-104262600D02*
X122596700Y-103635100D01*
X120542600Y-104262600D02*
X121969200Y-104262600D01*
X122596700Y-69882600D02*
X88811200Y-36097100D01*
X88811200Y-29111600D02*
X85437300Y-25737700D01*
X88811200Y-36097100D02*
X88811200Y-29111600D01*
X119500000Y-103220000D02*
X120542600Y-104262600D01*
X122596700Y-103635100D02*
X122596700Y-69882600D01*
%TO.N,USB_5V*%
X67602500Y-75000000D02*
X67602500Y-97803900D01*
X67602500Y-97803900D02*
X78834700Y-109036100D01*
X78834700Y-109036100D02*
X87463400Y-109036100D01*
X99477900Y-102684500D02*
X101210900Y-104417500D01*
X93815000Y-102684500D02*
X99477900Y-102684500D01*
X87463400Y-109036100D02*
X93815000Y-102684500D01*
%TO.N,USB_D-*%
X47502500Y-32735000D02*
X49353200Y-32735000D01*
X57161600Y-40543400D02*
X57161600Y-42563900D01*
X57161600Y-42563900D02*
X72694300Y-58096600D01*
X49353200Y-32735000D02*
X57161600Y-40543400D01*
X103145700Y-97144300D02*
X72694300Y-66692900D01*
X72694300Y-58096600D02*
X72694300Y-66692900D01*
X103145700Y-101370200D02*
X103145700Y-97144300D01*
%TO.N,USB_D+*%
X58694600Y-47706200D02*
X44993400Y-34005000D01*
X59564800Y-48039300D02*
X59212300Y-47686800D01*
X59564800Y-48537700D02*
X59564800Y-48039300D01*
X103762600Y-101917200D02*
X103677500Y-102002300D01*
X70149800Y-59161400D02*
X59545500Y-48557000D01*
X102369800Y-102002300D02*
X101480000Y-101112500D01*
X103677500Y-102002300D02*
X102369800Y-102002300D01*
X72458200Y-67294700D02*
X72391800Y-67294700D01*
X59212300Y-47686800D02*
X58714000Y-47686800D01*
X58714000Y-47686800D02*
X58694600Y-47706200D01*
X75277300Y-70113800D02*
X72458200Y-67294700D01*
X75277300Y-70191500D02*
X75277300Y-70113800D01*
X70149800Y-65052700D02*
X70149800Y-59161400D01*
X72391800Y-67294700D02*
X70149800Y-65052700D01*
X59545500Y-48557000D02*
X59564800Y-48537700D01*
X75277300Y-74909800D02*
X75277300Y-70191500D01*
X101480000Y-101112500D02*
X75277300Y-74909800D01*
%TO.N,EXP_GPIO4*%
X122145000Y-103437900D02*
X122145000Y-102972100D01*
X48173900Y-21974800D02*
X47504100Y-21305000D01*
X115740200Y-103078400D02*
X115740200Y-103524800D01*
X121144900Y-103860900D02*
X121722000Y-103860900D01*
X115740200Y-103524800D02*
X114935900Y-104329100D01*
X116072600Y-102180100D02*
X115598800Y-102653900D01*
X109233200Y-83455300D02*
X48173900Y-22396000D01*
X48173900Y-22396000D02*
X48173900Y-21974800D01*
X121353000Y-102180100D02*
X116072600Y-102180100D01*
X115598800Y-102937000D02*
X115740200Y-103078400D01*
X114935900Y-104329100D02*
X114378000Y-104329100D01*
X121722000Y-103860900D02*
X122145000Y-103437900D01*
X120500000Y-103216000D02*
X121144900Y-103860900D01*
X109233200Y-99184300D02*
X109233200Y-83455300D01*
X114378000Y-104329100D02*
X109233200Y-99184300D01*
X122145000Y-102972100D02*
X121353000Y-102180100D01*
X115598800Y-102653900D02*
X115598800Y-102937000D01*
%TO.N,EXP_GPIO5*%
X116227400Y-102593300D02*
X120871200Y-102593300D01*
X114211600Y-104730800D02*
X115102200Y-104730800D01*
X116025300Y-102795400D02*
X116227400Y-102593300D01*
X116025300Y-102795500D02*
X116025300Y-102795400D01*
X95550900Y-86070100D02*
X114211600Y-104730800D01*
X120871200Y-102593300D02*
X121500000Y-103222100D01*
X47504100Y-22575000D02*
X95550900Y-70621800D01*
X116141900Y-102912100D02*
X116025300Y-102795500D01*
X95550900Y-70621800D02*
X95550900Y-86070100D01*
X116141900Y-103691100D02*
X116141900Y-102912100D01*
X115102200Y-104730800D02*
X116141900Y-103691100D01*
%TO.N,C6_BOOT*%
X72379700Y-43000000D02*
X65008200Y-35628500D01*
X65008200Y-35628500D02*
X65008200Y-34005000D01*
X74332200Y-43000000D02*
X72379700Y-43000000D01*
%TD*%
M02*
