M48
; DRILL file KiCad 10.0.5 date 2026-08-07T20:15:27
; FORMAT={-:-/ absolute / metric / decimal}
; #@! TF.CreationDate,2026-08-07T20:15:27+02:00
; #@! TF.GenerationSoftware,Kicad,Pcbnew,10.0.5
; #@! TF.FileFunction,Plated,1,4,PTH
FMAT,2
METRIC
; #@! TA.AperFunction,Plated,PTH,ViaDrill
T1C0.300
; #@! TA.AperFunction,Plated,PTH,ComponentDrill
T2C0.300
; #@! TA.AperFunction,Plated,PTH,ViaDrill
T3C0.400
; #@! TA.AperFunction,Plated,PTH,ComponentDrill
T4C0.600
; #@! TA.AperFunction,Plated,PTH,ComponentDrill
T5C0.750
; #@! TA.AperFunction,Plated,PTH,ComponentDrill
T6C1.300
; #@! TA.AperFunction,Plated,PTH,ComponentDrill
T7C2.000
%
G90
G05
T1
X25.786Y-64.923
X32.215Y-65.502
X37.924Y-67.924
X38.627Y-64.627
X39.585Y-73.763
X40.971Y-53.002
X44.905Y-54.045
X44.984Y-34.005
X45.023Y-66.905
X46.968Y-71.082
X47.503Y-32.735
X47.503Y-17.696
X47.504Y-18.765
X47.504Y-20.035
X47.504Y-22.575
X47.504Y-23.845
X47.505Y-21.305
X47.892Y-26.212
X47.927Y-25.41
X48.294Y-28.925
X48.859Y-72.909
X50.0Y-58.732
X50.999Y-55.94
X52.461Y-58.764
X52.982Y-64.57
X53.832Y-66.305
X54.175Y-72.011
X56.564Y-76.739
X57.239Y-74.982
X62.496Y-18.765
X63.235Y-43.116
X63.298Y-64.852
X64.334Y-44.199
X64.484Y-73.763
X65.004Y-17.722
X65.004Y-21.305
X65.004Y-22.575
X65.004Y-27.882
X65.004Y-30.195
X65.004Y-31.238
X65.004Y-32.508
X65.016Y-34.005
X65.032Y-26.237
X68.737Y-68.562
X68.74Y-45.209
X71.234Y-68.559
X71.741Y-67.235
X72.0Y-55.414
X72.55Y-81.915
X72.686Y-67.05
X73.75Y-84.382
X73.862Y-69.759
X74.422Y-41.848
X74.767Y-81.922
X75.386Y-84.385
X75.75Y-81.922
X76.44Y-39.266
X76.75Y-81.465
X76.891Y-57.941
X77.087Y-61.274
X77.307Y-67.822
X77.449Y-81.915
X78.988Y-19.537
X79.934Y-41.248
X81.138Y-62.232
X83.694Y-83.694
X85.304Y-47.032
X85.449Y-46.037
X86.5Y-83.222
X86.922Y-25.747
X87.5Y-83.22
X88.5Y-83.221
X88.572Y-25.747
X89.265Y-45.951
X89.5Y-83.213
X90.07Y-44.256
X90.431Y-24.256
X90.5Y-83.21
X92.327Y-84.5
X92.376Y-68.567
X93.715Y-49.224
X94.775Y-44.277
X95.403Y-51.272
X95.435Y-24.323
X96.624Y-50.983
X96.722Y-45.268
X97.761Y-50.0
X98.436Y-39.261
X98.624Y-55.85
X98.787Y-59.005
X98.81Y-61.88
X98.98Y-57.426
X100.35Y-54.734
X101.174Y-65.269
X101.575Y-84.094
X105.332Y-85.055
X107.437Y-27.262
X107.569Y-25.619
X107.92Y-37.107
X109.825Y-29.6
X110.475Y-65.27
X110.668Y-83.995
X111.175Y-24.018
X112.43Y-61.573
X113.531Y-30.243
X114.254Y-75.758
X114.948Y-32.177
X114.988Y-53.917
X115.671Y-74.0
X120.09Y-71.265
X122.913Y-58.911
X124.731Y-75.992
X125.421Y-28.754
X125.539Y-30.236
X127.545Y-25.595
T2
X48.4Y-63.2
X48.4Y-64.4
X48.4Y-65.7
X48.4Y-66.8
X49.6Y-63.2
X49.6Y-64.4
X49.6Y-65.7
X49.6Y-66.8
X53.9Y-24.905
X53.9Y-26.005
X53.9Y-27.105
X55.0Y-24.905
X55.0Y-26.005
X55.0Y-27.105
X56.1Y-24.905
X56.1Y-26.005
X56.1Y-27.105
T3
X71.8Y-18.8
X71.8Y-21.2
X76.2Y-18.8
X76.2Y-21.2
T5
X27.0Y-46.0
X28.27Y-46.0
X29.54Y-46.0
T6
X16.0Y-51.0
X16.0Y-56.0
X16.0Y-61.0
X16.0Y-66.0
X84.0Y-15.0
X89.0Y-15.0
X94.0Y-15.0
X104.0Y-15.0
X109.0Y-15.0
X114.0Y-15.0
X126.0Y-15.0
X131.0Y-15.0
X135.0Y-33.0
X135.0Y-38.0
X135.0Y-43.0
X135.0Y-48.0
X135.0Y-70.0
X135.0Y-75.0
X136.0Y-15.0
T7
X22.0Y-38.0
X30.0Y-38.0
X38.0Y-38.0
X46.0Y-39.0
X54.0Y-40.0
X62.0Y-40.0
X70.0Y-38.0
X83.0Y-35.0
X86.0Y-31.0
X91.0Y-35.0
X94.0Y-31.0
X102.0Y-31.0
T4
X70.68Y-83.52G85X70.68Y-84.62
G05
X70.68Y-87.95G85X70.68Y-88.55
G05
X79.32Y-83.52G85X79.32Y-84.62
G05
X79.32Y-87.95G85X79.32Y-88.55
G05
M30
