%TF.GenerationSoftware,KiCad,Pcbnew,10.0.5*%
%TF.CreationDate,2026-08-07T20:14:38+02:00*%
%TF.ProjectId,IDM-RoomSensor-ESP-B-ES3-C6,49444d2d-526f-46f6-9d53-656e736f722d,rev?*%
%TF.SameCoordinates,Original*%
%TF.FileFunction,Copper,L4,Bot*%
%TF.FilePolarity,Positive*%
%FSLAX46Y46*%
G04 Gerber Fmt 4.6, Leading zero omitted, Abs format (unit mm)*
G04 Created by KiCad (PCBNEW 10.0.5) date 2026-08-07 20:14:38*
%MOMM*%
%LPD*%
G01*
G04 APERTURE LIST*
G04 Aperture macros list*
%AMRoundRect*
0 Rectangle with rounded corners*
0 $1 Rounding radius*
0 $2 $3 $4 $5 $6 $7 $8 $9 X,Y pos of 4 corners*
0 Add a 4 corners polygon primitive as box body*
4,1,4,$2,$3,$4,$5,$6,$7,$8,$9,$2,$3,0*
0 Add four circle primitives for the rounded corners*
1,1,$1+$1,$2,$3*
1,1,$1+$1,$4,$5*
1,1,$1+$1,$6,$7*
1,1,$1+$1,$8,$9*
0 Add four rect primitives between the rounded corners*
20,1,$1+$1,$2,$3,$4,$5,0*
20,1,$1+$1,$4,$5,$6,$7,0*
20,1,$1+$1,$6,$7,$8,$9,0*
20,1,$1+$1,$8,$9,$2,$3,0*%
G04 Aperture macros list end*
%TA.AperFunction,ComponentPad*%
%ADD10RoundRect,0.250001X-1.149999X-1.149999X1.149999X-1.149999X1.149999X1.149999X-1.149999X1.149999X0*%
%TD*%
%TA.AperFunction,ComponentPad*%
%ADD11C,2.800000*%
%TD*%
%TA.AperFunction,ComponentPad*%
%ADD12C,0.600000*%
%TD*%
%TA.AperFunction,SMDPad,CuDef*%
%ADD13R,2.950000X4.500000*%
%TD*%
%TA.AperFunction,ComponentPad*%
%ADD14C,3.000000*%
%TD*%
%TA.AperFunction,ComponentPad*%
%ADD15O,1.000000X2.100000*%
%TD*%
%TA.AperFunction,ComponentPad*%
%ADD16O,1.000000X1.600000*%
%TD*%
%TA.AperFunction,ComponentPad*%
%ADD17R,1.050000X1.500000*%
%TD*%
%TA.AperFunction,ComponentPad*%
%ADD18O,1.050000X1.500000*%
%TD*%
%TA.AperFunction,ComponentPad*%
%ADD19RoundRect,0.250001X1.149999X-1.149999X1.149999X1.149999X-1.149999X1.149999X-1.149999X-1.149999X0*%
%TD*%
%TA.AperFunction,ViaPad*%
%ADD20C,0.600000*%
%TD*%
%TA.AperFunction,ViaPad*%
%ADD21C,0.800000*%
%TD*%
%TA.AperFunction,Conductor*%
%ADD22C,0.200000*%
%TD*%
G04 APERTURE END LIST*
D10*
%TO.P,J7,1*%
%TO.N,CONTACT1_EXT*%
X126000000Y-15000000D03*
D11*
%TO.P,J7,2*%
%TO.N,GND*%
X131000000Y-15000000D03*
%TO.P,J7,3*%
%TO.N,CONTACT2_EXT*%
X136000000Y-15000000D03*
%TD*%
D10*
%TO.P,J5,1*%
%TO.N,+3V3*%
X84000000Y-15000000D03*
D11*
%TO.P,J5,2*%
%TO.N,ONEWIRE_EXT*%
X89000000Y-15000000D03*
%TO.P,J5,3*%
%TO.N,GND*%
X94000000Y-15000000D03*
%TD*%
D10*
%TO.P,J6,1*%
%TO.N,+3V3*%
X104000000Y-15000000D03*
D11*
%TO.P,J6,2*%
%TO.N,ONEWIRE_EXT*%
X109000000Y-15000000D03*
%TO.P,J6,3*%
%TO.N,GND*%
X114000000Y-15000000D03*
%TD*%
D12*
%TO.P,U1,9*%
%TO.N,GND*%
X48400000Y-63200000D03*
X48400000Y-64400000D03*
X48400000Y-65700000D03*
X48400000Y-66800000D03*
D13*
X49000000Y-65000000D03*
D12*
X49600000Y-63200000D03*
X49600000Y-64400000D03*
X49600000Y-65700000D03*
X49600000Y-66800000D03*
%TD*%
D14*
%TO.P,TP6,1*%
%TO.N,I2C_SCL*%
X62000000Y-40000000D03*
%TD*%
D12*
%TO.P,U3,29*%
%TO.N,GND*%
X53900000Y-24905000D03*
X53900000Y-26005000D03*
X53900000Y-27105000D03*
X55000000Y-24905000D03*
X55000000Y-26005000D03*
X55000000Y-27105000D03*
X56100000Y-24905000D03*
X56100000Y-26005000D03*
X56100000Y-27105000D03*
%TD*%
D14*
%TO.P,TP2,1*%
%TO.N,24V_PROT*%
X30000000Y-38000000D03*
%TD*%
%TO.P,TP1,1*%
%TO.N,24V_RAW*%
X22000000Y-38000000D03*
%TD*%
D15*
%TO.P,J3,SH*%
%TO.N,GND*%
X70680000Y-84070000D03*
D16*
X70680000Y-88250000D03*
D15*
X79320000Y-84070000D03*
D16*
X79320000Y-88250000D03*
%TD*%
D14*
%TO.P,TP7,1*%
%TO.N,RH_OUT*%
X70000000Y-38000000D03*
%TD*%
D17*
%TO.P,RTH1,1*%
%TO.N,TEMP_KTY*%
X27000000Y-46000000D03*
D18*
%TO.P,RTH1,2*%
%TO.N,GND*%
X28270000Y-46000000D03*
%TO.P,RTH1,3*%
%TO.N,N/C*%
X29540000Y-46000000D03*
%TD*%
D19*
%TO.P,J2,1*%
%TO.N,RS485_A*%
X135000000Y-48000000D03*
D11*
%TO.P,J2,2*%
%TO.N,RS485_B*%
X135000000Y-43000000D03*
%TO.P,J2,3*%
%TO.N,RS485_COM*%
X135000000Y-38000000D03*
%TO.P,J2,4*%
%TO.N,RS485_SHIELD*%
X135000000Y-33000000D03*
%TD*%
D14*
%TO.P,TP12,1*%
%TO.N,GND*%
X91000000Y-35000000D03*
%TD*%
%TO.P,TP11,1*%
%TO.N,RS485_COM*%
X102000000Y-31000000D03*
%TD*%
D19*
%TO.P,J1,1*%
%TO.N,TEMP_KTY*%
X16000000Y-66000000D03*
D11*
%TO.P,J1,2*%
%TO.N,24V_RAW*%
X16000000Y-61000000D03*
%TO.P,J1,3*%
%TO.N,GND*%
X16000000Y-56000000D03*
%TO.P,J1,4*%
%TO.N,RH_OUT*%
X16000000Y-51000000D03*
%TD*%
D14*
%TO.P,TP4,1*%
%TO.N,+3V3*%
X46000000Y-39000000D03*
%TD*%
%TO.P,TP10,1*%
%TO.N,RS485_B*%
X94000000Y-31000000D03*
%TD*%
D19*
%TO.P,J8,1*%
%TO.N,AIN_0_10_RAW*%
X135000000Y-75000000D03*
D11*
%TO.P,J8,2*%
%TO.N,GND*%
X135000000Y-70000000D03*
%TD*%
D14*
%TO.P,TP9,1*%
%TO.N,RS485_A*%
X86000000Y-31000000D03*
%TD*%
%TO.P,TP5,1*%
%TO.N,I2C_SDA*%
X54000000Y-40000000D03*
%TD*%
%TO.P,TP8,1*%
%TO.N,TEMP_KTY*%
X83000000Y-35000000D03*
%TD*%
%TO.P,TP3,1*%
%TO.N,SYS_5V*%
X38000000Y-38000000D03*
%TD*%
D20*
%TO.N,+3V3*%
X83693900Y-83693900D03*
X101574600Y-84094400D03*
X100350000Y-54734300D03*
X63235200Y-43116200D03*
X47504100Y-18765000D03*
X125420800Y-28754200D03*
X107436800Y-27261800D03*
X81137500Y-62231700D03*
X114254500Y-75758000D03*
X90431000Y-24256000D03*
D21*
X76200000Y-21200000D03*
D20*
%TO.N,GND*%
X39585100Y-73762800D03*
X79933900Y-41248400D03*
X56564100Y-76739100D03*
X48858900Y-72908900D03*
X124730700Y-75991800D03*
X107568800Y-25618800D03*
X101174300Y-65269300D03*
X71741200Y-67234900D03*
X76890500Y-57940500D03*
X94775000Y-44276800D03*
X113531500Y-30243500D03*
X98624000Y-55850000D03*
X47503000Y-17696300D03*
X95434800Y-24322800D03*
X78988000Y-19536500D03*
X127545100Y-25595100D03*
X65004100Y-17722400D03*
X44904700Y-54045300D03*
X68740400Y-45209500D03*
D21*
X76200000Y-18800000D03*
D20*
X110667900Y-83995100D03*
X95403100Y-51272000D03*
X125539200Y-30235800D03*
%TO.N,CONTACT1_EXT*%
X111175000Y-24018100D03*
%TO.N,ONEWIRE_EXT*%
X88572100Y-25747100D03*
%TO.N,OPAMP_OUT*%
X90070500Y-44256400D03*
X96624300Y-50982800D03*
%TO.N,OPAMP_FB*%
X97761200Y-49999600D03*
X93714500Y-49224000D03*
%TO.N,ADC_0_10*%
X92375700Y-68567000D03*
X120089900Y-71264900D03*
X47892500Y-26211800D03*
X115670700Y-74000000D03*
%TO.N,RS485_A*%
X112429900Y-61573400D03*
%TO.N,CONTACT2*%
X65004100Y-31237600D03*
X114948100Y-32177200D03*
%TO.N,C6_BOOT*%
X65015900Y-34005000D03*
X74422400Y-41848300D03*
%TO.N,SYS_5V*%
X77086800Y-61274200D03*
X57239100Y-74981800D03*
X72000000Y-55413700D03*
X92327400Y-84500000D03*
%TO.N,USB_5V*%
X77448900Y-81915500D03*
X64484200Y-73762800D03*
X77306800Y-67822000D03*
X72550000Y-81914600D03*
%TO.N,RH_OUT*%
X96722300Y-45268100D03*
%TO.N,BUS_LED*%
X65004100Y-27882400D03*
X98435700Y-39260700D03*
%TO.N,USB_CC1*%
X68736700Y-68561700D03*
X73750000Y-84382000D03*
%TO.N,5V_BUCK*%
X63297900Y-64851600D03*
X50998800Y-55939600D03*
X54175000Y-72010800D03*
%TO.N,RS485_B*%
X122912800Y-58910800D03*
%TO.N,24V_PROT*%
X37923800Y-67923700D03*
X40970600Y-53001600D03*
X89265000Y-45950900D03*
%TO.N,PWR_GOOD*%
X45022700Y-66905000D03*
X50000000Y-58731700D03*
%TO.N,VCC_BYP*%
X46967900Y-71082100D03*
X53831900Y-66304800D03*
%TO.N,BOOT*%
X52461000Y-58764000D03*
X52981900Y-64570200D03*
%TO.N,STATUS_LED*%
X48294200Y-28925000D03*
X76439800Y-39266400D03*
%TO.N,C6_EN*%
X64334100Y-44199400D03*
X47504100Y-20035000D03*
%TO.N,I2C_SDA*%
X85304400Y-47031900D03*
X86500000Y-83221900D03*
X47504100Y-23845000D03*
D21*
X71800000Y-18800000D03*
%TO.N,I2C_SCL*%
X71800000Y-21200000D03*
D20*
X87500000Y-83220300D03*
X47927400Y-25410000D03*
X85448600Y-46037000D03*
%TO.N,EXP_GPIO4*%
X89500000Y-83212600D03*
X47504600Y-21305000D03*
%TO.N,EXP_GPIO5*%
X90500000Y-83210100D03*
X47504100Y-22575000D03*
%TO.N,USB_D-*%
X47502900Y-32735000D03*
X75386100Y-84385200D03*
X72685900Y-67050000D03*
%TO.N,USB_D+*%
X73862500Y-69758700D03*
X74766700Y-81921800D03*
X44984100Y-34005000D03*
X75750000Y-81921800D03*
%TO.N,CONTACT1*%
X65004100Y-32507600D03*
X109825000Y-29600000D03*
%TO.N,SERVICE_BUTTON*%
X105332200Y-85054600D03*
X65004100Y-30195000D03*
%TO.N,ONEWIRE*%
X88500000Y-83220500D03*
X65032100Y-26237500D03*
X86922100Y-25747100D03*
%TO.N,RS485_RX*%
X98980200Y-57425800D03*
X65004100Y-22575000D03*
%TO.N,RS485_TX*%
X65004100Y-21305000D03*
X98810100Y-61880000D03*
%TO.N,RS485_DE*%
X62495900Y-18765000D03*
X98786900Y-59005300D03*
%TO.N,RS485_COM*%
X114988500Y-53917500D03*
X110475200Y-65270200D03*
X107919800Y-37107300D03*
%TO.N,24V_RAW*%
X25785900Y-64923400D03*
%TO.N,24V_FUSED*%
X32215500Y-65502300D03*
X38627500Y-64627500D03*
%TO.N,USB_CC2*%
X76750000Y-81465000D03*
X71234500Y-68559500D03*
%TD*%
%TO.N,GND*%
D22*
X48400000Y-64400000D02*
X49000000Y-65000000D01*
%TD*%
M02*
