%TF.GenerationSoftware,KiCad,Pcbnew,10.0.5*%
%TF.CreationDate,2026-08-07T20:14:38+02:00*%
%TF.ProjectId,IDM-RoomSensor-ESP-B-ES3-C6,49444d2d-526f-46f6-9d53-656e736f722d,rev?*%
%TF.SameCoordinates,Original*%
%TF.FileFunction,Copper,L1,Top*%
%TF.FilePolarity,Positive*%
%FSLAX46Y46*%
G04 Gerber Fmt 4.6, Leading zero omitted, Abs format (unit mm)*
G04 Created by KiCad (PCBNEW 10.0.5) date 2026-08-07 20:14:38*
%MOMM*%
%LPD*%
G01*
G04 APERTURE LIST*
G04 Aperture macros list*
%AMRoundRect*
0 Rectangle with rounded corners*
0 $1 Rounding radius*
0 $2 $3 $4 $5 $6 $7 $8 $9 X,Y pos of 4 corners*
0 Add a 4 corners polygon primitive as box body*
4,1,4,$2,$3,$4,$5,$6,$7,$8,$9,$2,$3,0*
0 Add four circle primitives for the rounded corners*
1,1,$1+$1,$2,$3*
1,1,$1+$1,$4,$5*
1,1,$1+$1,$6,$7*
1,1,$1+$1,$8,$9*
0 Add four rect primitives between the rounded corners*
20,1,$1+$1,$2,$3,$4,$5,0*
20,1,$1+$1,$4,$5,$6,$7,0*
20,1,$1+$1,$6,$7,$8,$9,0*
20,1,$1+$1,$8,$9,$2,$3,0*%
G04 Aperture macros list end*
%TA.AperFunction,SMDPad,CuDef*%
%ADD10RoundRect,0.250000X-0.250000X-0.475000X0.250000X-0.475000X0.250000X0.475000X-0.250000X0.475000X0*%
%TD*%
%TA.AperFunction,ComponentPad*%
%ADD11RoundRect,0.250001X-1.149999X-1.149999X1.149999X-1.149999X1.149999X1.149999X-1.149999X1.149999X0*%
%TD*%
%TA.AperFunction,ComponentPad*%
%ADD12C,2.800000*%
%TD*%
%TA.AperFunction,SMDPad,CuDef*%
%ADD13RoundRect,0.200000X-0.200000X-0.275000X0.200000X-0.275000X0.200000X0.275000X-0.200000X0.275000X0*%
%TD*%
%TA.AperFunction,SMDPad,CuDef*%
%ADD14RoundRect,0.250000X0.625000X-0.312500X0.625000X0.312500X-0.625000X0.312500X-0.625000X-0.312500X0*%
%TD*%
%TA.AperFunction,SMDPad,CuDef*%
%ADD15R,0.900000X1.700000*%
%TD*%
%TA.AperFunction,SMDPad,CuDef*%
%ADD16RoundRect,0.250000X-1.000000X-0.650000X1.000000X-0.650000X1.000000X0.650000X-1.000000X0.650000X0*%
%TD*%
%TA.AperFunction,SMDPad,CuDef*%
%ADD17RoundRect,0.200000X0.275000X-0.200000X0.275000X0.200000X-0.275000X0.200000X-0.275000X-0.200000X0*%
%TD*%
%TA.AperFunction,SMDPad,CuDef*%
%ADD18R,2.700000X3.600000*%
%TD*%
%TA.AperFunction,SMDPad,CuDef*%
%ADD19RoundRect,0.190000X0.190000X-0.610000X0.190000X0.610000X-0.190000X0.610000X-0.190000X-0.610000X0*%
%TD*%
%TA.AperFunction,SMDPad,CuDef*%
%ADD20R,1.550000X0.600000*%
%TD*%
%TA.AperFunction,ComponentPad*%
%ADD21C,0.600000*%
%TD*%
%TA.AperFunction,SMDPad,CuDef*%
%ADD22R,2.600000X3.100000*%
%TD*%
%TA.AperFunction,SMDPad,CuDef*%
%ADD23R,2.950000X4.500000*%
%TD*%
%TA.AperFunction,SMDPad,CuDef*%
%ADD24RoundRect,0.112500X0.112500X-0.187500X0.112500X0.187500X-0.112500X0.187500X-0.112500X-0.187500X0*%
%TD*%
%TA.AperFunction,SMDPad,CuDef*%
%ADD25RoundRect,0.150000X-0.512500X-0.150000X0.512500X-0.150000X0.512500X0.150000X-0.512500X0.150000X0*%
%TD*%
%TA.AperFunction,ComponentPad*%
%ADD26C,3.000000*%
%TD*%
%TA.AperFunction,SMDPad,CuDef*%
%ADD27R,1.500000X0.900000*%
%TD*%
%TA.AperFunction,SMDPad,CuDef*%
%ADD28R,3.300000X3.300000*%
%TD*%
%TA.AperFunction,SMDPad,CuDef*%
%ADD29RoundRect,0.225000X-0.225000X-0.250000X0.225000X-0.250000X0.225000X0.250000X-0.225000X0.250000X0*%
%TD*%
%TA.AperFunction,SMDPad,CuDef*%
%ADD30RoundRect,0.150000X-0.875000X-0.150000X0.875000X-0.150000X0.875000X0.150000X-0.875000X0.150000X0*%
%TD*%
%TA.AperFunction,SMDPad,CuDef*%
%ADD31RoundRect,0.218750X-0.218750X-0.256250X0.218750X-0.256250X0.218750X0.256250X-0.218750X0.256250X0*%
%TD*%
%TA.AperFunction,SMDPad,CuDef*%
%ADD32RoundRect,0.150000X-0.587500X-0.150000X0.587500X-0.150000X0.587500X0.150000X-0.587500X0.150000X0*%
%TD*%
%TA.AperFunction,SMDPad,CuDef*%
%ADD33R,0.500000X0.300000*%
%TD*%
%TA.AperFunction,SMDPad,CuDef*%
%ADD34RoundRect,0.250000X-0.312500X-1.450000X0.312500X-1.450000X0.312500X1.450000X-0.312500X1.450000X0*%
%TD*%
%TA.AperFunction,SMDPad,CuDef*%
%ADD35RoundRect,0.250000X-0.325000X-1.100000X0.325000X-1.100000X0.325000X1.100000X-0.325000X1.100000X0*%
%TD*%
%TA.AperFunction,SMDPad,CuDef*%
%ADD36RoundRect,0.150000X-0.150000X-0.575000X0.150000X-0.575000X0.150000X0.575000X-0.150000X0.575000X0*%
%TD*%
%TA.AperFunction,SMDPad,CuDef*%
%ADD37RoundRect,0.075000X-0.075000X-0.650000X0.075000X-0.650000X0.075000X0.650000X-0.075000X0.650000X0*%
%TD*%
%TA.AperFunction,ComponentPad*%
%ADD38O,1.000000X2.100000*%
%TD*%
%TA.AperFunction,ComponentPad*%
%ADD39O,1.000000X1.600000*%
%TD*%
%TA.AperFunction,SMDPad,CuDef*%
%ADD40RoundRect,0.112500X-0.187500X-0.112500X0.187500X-0.112500X0.187500X0.112500X-0.187500X0.112500X0*%
%TD*%
%TA.AperFunction,SMDPad,CuDef*%
%ADD41RoundRect,0.150000X-0.150000X-0.625000X0.150000X-0.625000X0.150000X0.625000X-0.150000X0.625000X0*%
%TD*%
%TA.AperFunction,SMDPad,CuDef*%
%ADD42RoundRect,0.250000X-0.350000X-0.650000X0.350000X-0.650000X0.350000X0.650000X-0.350000X0.650000X0*%
%TD*%
%TA.AperFunction,ComponentPad*%
%ADD43R,1.050000X1.500000*%
%TD*%
%TA.AperFunction,ComponentPad*%
%ADD44O,1.050000X1.500000*%
%TD*%
%TA.AperFunction,ComponentPad*%
%ADD45RoundRect,0.250001X1.149999X-1.149999X1.149999X1.149999X-1.149999X1.149999X-1.149999X-1.149999X0*%
%TD*%
%TA.AperFunction,SMDPad,CuDef*%
%ADD46RoundRect,0.250000X0.900000X-1.000000X0.900000X1.000000X-0.900000X1.000000X-0.900000X-1.000000X0*%
%TD*%
%TA.AperFunction,SMDPad,CuDef*%
%ADD47RoundRect,0.225000X0.250000X-0.225000X0.250000X0.225000X-0.250000X0.225000X-0.250000X-0.225000X0*%
%TD*%
%TA.AperFunction,SMDPad,CuDef*%
%ADD48RoundRect,0.250000X-0.325000X-0.650000X0.325000X-0.650000X0.325000X0.650000X-0.325000X0.650000X0*%
%TD*%
%TA.AperFunction,ViaPad*%
%ADD49C,0.600000*%
%TD*%
%TA.AperFunction,ViaPad*%
%ADD50C,0.800000*%
%TD*%
%TA.AperFunction,Conductor*%
%ADD51C,0.200000*%
%TD*%
G04 APERTURE END LIST*
D10*
%TO.P,C14,1*%
%TO.N,+3V3*%
X95050000Y-55500000D03*
%TO.P,C14,2*%
%TO.N,GND*%
X96950000Y-55500000D03*
%TD*%
D11*
%TO.P,J7,1*%
%TO.N,CONTACT1_EXT*%
X126000000Y-15000000D03*
D12*
%TO.P,J7,2*%
%TO.N,GND*%
X131000000Y-15000000D03*
%TO.P,J7,3*%
%TO.N,CONTACT2_EXT*%
X136000000Y-15000000D03*
%TD*%
D11*
%TO.P,J5,1*%
%TO.N,+3V3*%
X84000000Y-15000000D03*
D12*
%TO.P,J5,2*%
%TO.N,ONEWIRE_EXT*%
X89000000Y-15000000D03*
%TO.P,J5,3*%
%TO.N,GND*%
X94000000Y-15000000D03*
%TD*%
D13*
%TO.P,R9,1*%
%TO.N,OPAMP_OUT*%
X95175000Y-50000000D03*
%TO.P,R9,2*%
%TO.N,OPAMP_FB*%
X96825000Y-50000000D03*
%TD*%
%TO.P,R22,1*%
%TO.N,AIN_DIV*%
X119175000Y-72000000D03*
%TO.P,R22,2*%
%TO.N,ADC_0_10*%
X120825000Y-72000000D03*
%TD*%
D14*
%TO.P,R12,1*%
%TO.N,RS485_A*%
X116000000Y-64462500D03*
%TO.P,R12,2*%
%TO.N,RS485_TERM*%
X116000000Y-61537500D03*
%TD*%
D13*
%TO.P,R19,1*%
%TO.N,+3V3*%
X126175000Y-28000000D03*
%TO.P,R19,2*%
%TO.N,CONTACT2*%
X127825000Y-28000000D03*
%TD*%
D15*
%TO.P,SW2,1*%
%TO.N,C6_BOOT*%
X75300000Y-43000000D03*
%TO.P,SW2,2*%
%TO.N,GND*%
X78700000Y-43000000D03*
%TD*%
D16*
%TO.P,D3,1*%
%TO.N,SYS_5V*%
X59000000Y-75000000D03*
%TO.P,D3,2*%
%TO.N,USB_5V*%
X63000000Y-75000000D03*
%TD*%
D13*
%TO.P,R11,1*%
%TO.N,OPAMP_OUT*%
X98175000Y-46000000D03*
%TO.P,R11,2*%
%TO.N,RH_OUT*%
X99825000Y-46000000D03*
%TD*%
%TO.P,R25,1*%
%TO.N,BUS_LED*%
X99175000Y-40000000D03*
%TO.P,R25,2*%
%TO.N,BUS_LED_R*%
X100825000Y-40000000D03*
%TD*%
%TO.P,R17,1*%
%TO.N,CONTACT2_EXT*%
X123175000Y-25000000D03*
%TO.P,R17,2*%
%TO.N,CONTACT2*%
X124825000Y-25000000D03*
%TD*%
D17*
%TO.P,R4,1*%
%TO.N,USB_CC1*%
X68000000Y-67825000D03*
%TO.P,R4,2*%
%TO.N,GND*%
X68000000Y-66175000D03*
%TD*%
D18*
%TO.P,L1,1*%
%TO.N,SW*%
X56850000Y-65000000D03*
%TO.P,L1,2*%
%TO.N,5V_BUCK*%
X65150000Y-65000000D03*
%TD*%
D19*
%TO.P,SW3,1*%
%TO.N,RS485_TERM*%
X122000000Y-66810000D03*
%TO.P,SW3,2*%
%TO.N,RS485_B*%
X122000000Y-59190000D03*
%TD*%
D11*
%TO.P,J6,1*%
%TO.N,+3V3*%
X104000000Y-15000000D03*
D12*
%TO.P,J6,2*%
%TO.N,ONEWIRE_EXT*%
X109000000Y-15000000D03*
%TO.P,J6,3*%
%TO.N,GND*%
X114000000Y-15000000D03*
%TD*%
D20*
%TO.P,U1,1*%
%TO.N,GND*%
X46300000Y-63095000D03*
%TO.P,U1,2*%
%TO.N,24V_PROT*%
X46300000Y-64365000D03*
%TO.P,U1,3*%
X46300000Y-65635000D03*
%TO.P,U1,4*%
%TO.N,PWR_GOOD*%
X46300000Y-66905000D03*
%TO.P,U1,5*%
%TO.N,BUCK_FB*%
X51700000Y-66905000D03*
%TO.P,U1,6*%
%TO.N,VCC_BYP*%
X51700000Y-65635000D03*
%TO.P,U1,7*%
%TO.N,BOOT*%
X51700000Y-64365000D03*
%TO.P,U1,8*%
%TO.N,SW*%
X51700000Y-63095000D03*
D21*
%TO.P,U1,9*%
%TO.N,GND*%
X48400000Y-63200000D03*
X48400000Y-64400000D03*
X48400000Y-65700000D03*
X48400000Y-66800000D03*
D22*
X49000000Y-65000000D03*
D23*
X49000000Y-65000000D03*
D21*
X49600000Y-63200000D03*
X49600000Y-64400000D03*
X49600000Y-65700000D03*
X49600000Y-66800000D03*
%TD*%
D13*
%TO.P,R13,1*%
%TO.N,STATUS_LED*%
X77175000Y-40000000D03*
%TO.P,R13,2*%
%TO.N,STATUS_LED_R*%
X78825000Y-40000000D03*
%TD*%
D15*
%TO.P,SW1,1*%
%TO.N,C6_EN*%
X68300000Y-43000000D03*
%TO.P,SW1,2*%
%TO.N,GND*%
X71700000Y-43000000D03*
%TD*%
D10*
%TO.P,C7,1*%
%TO.N,SYS_5V*%
X76050000Y-59000000D03*
%TO.P,C7,2*%
%TO.N,GND*%
X77950000Y-59000000D03*
%TD*%
D24*
%TO.P,TVS5,1*%
%TO.N,GND*%
X127000000Y-76050000D03*
%TO.P,TVS5,2*%
%TO.N,AIN_0_10_RAW*%
X127000000Y-73950000D03*
%TD*%
D25*
%TO.P,U5,1*%
%TO.N,DAC_RAW*%
X81862500Y-45050000D03*
%TO.P,U5,2*%
%TO.N,GND*%
X81862500Y-46000000D03*
%TO.P,U5,3*%
%TO.N,+3V3*%
X81862500Y-46950000D03*
%TO.P,U5,4*%
%TO.N,I2C_SDA*%
X84137500Y-46950000D03*
%TO.P,U5,5*%
%TO.N,I2C_SCL*%
X84137500Y-46000000D03*
%TO.P,U5,6*%
%TO.N,GND*%
X84137500Y-45050000D03*
%TD*%
D26*
%TO.P,TP6,1*%
%TO.N,I2C_SCL*%
X62000000Y-40000000D03*
%TD*%
D27*
%TO.P,U3,1*%
%TO.N,GND*%
X46250000Y-17495000D03*
%TO.P,U3,2*%
%TO.N,+3V3*%
X46250000Y-18765000D03*
%TO.P,U3,3*%
%TO.N,C6_EN*%
X46250000Y-20035000D03*
%TO.P,U3,4*%
%TO.N,EXP_GPIO4*%
X46250000Y-21305001D03*
%TO.P,U3,5*%
%TO.N,EXP_GPIO5*%
X46250000Y-22575001D03*
%TO.P,U3,6*%
%TO.N,I2C_SDA*%
X46250000Y-23844999D03*
%TO.P,U3,7*%
%TO.N,I2C_SCL*%
X46250000Y-25115000D03*
%TO.P,U3,8*%
%TO.N,ADC_0_10*%
X46250000Y-26385000D03*
%TO.P,U3,9*%
%TO.N,N/C*%
X46250000Y-27655000D03*
%TO.P,U3,10*%
%TO.N,STATUS_LED*%
X46250000Y-28925000D03*
%TO.P,U3,11*%
%TO.N,N/C*%
X46250000Y-30194999D03*
%TO.P,U3,12*%
X46250000Y-31465000D03*
%TO.P,U3,13*%
%TO.N,USB_D-*%
X46250000Y-32735000D03*
%TO.P,U3,14*%
%TO.N,USB_D+*%
X46250000Y-34005000D03*
%TO.P,U3,15*%
%TO.N,C6_BOOT*%
X63750000Y-34005000D03*
%TO.P,U3,16*%
%TO.N,CONTACT1*%
X63750000Y-32735000D03*
%TO.P,U3,17*%
%TO.N,CONTACT2*%
X63750000Y-31465000D03*
%TO.P,U3,18*%
%TO.N,SERVICE_BUTTON*%
X63750000Y-30194999D03*
%TO.P,U3,19*%
%TO.N,N/C*%
X63750000Y-28925000D03*
%TO.P,U3,20*%
%TO.N,BUS_LED*%
X63750000Y-27655000D03*
%TO.P,U3,21*%
%TO.N,ONEWIRE*%
X63750000Y-26385000D03*
%TO.P,U3,22*%
%TO.N,N/C*%
X63750000Y-25115000D03*
%TO.P,U3,23*%
X63750000Y-23844999D03*
%TO.P,U3,24*%
%TO.N,RS485_RX*%
X63750000Y-22575001D03*
%TO.P,U3,25*%
%TO.N,RS485_TX*%
X63750000Y-21305001D03*
%TO.P,U3,26*%
%TO.N,N/C*%
X63750000Y-20035000D03*
%TO.P,U3,27*%
%TO.N,RS485_DE*%
X63750000Y-18765000D03*
%TO.P,U3,28*%
%TO.N,GND*%
X63750000Y-17495000D03*
D21*
%TO.P,U3,29*%
X53900000Y-24905000D03*
X53900000Y-26005000D03*
X53900000Y-27105000D03*
X55000000Y-24905000D03*
X55000000Y-26005000D03*
D28*
X55000000Y-26005000D03*
D21*
X55000000Y-27105000D03*
X56100000Y-24905000D03*
X56100000Y-26005000D03*
X56100000Y-27105000D03*
%TD*%
D26*
%TO.P,TP2,1*%
%TO.N,24V_PROT*%
X30000000Y-38000000D03*
%TD*%
D13*
%TO.P,R18,1*%
%TO.N,+3V3*%
X108175000Y-28000000D03*
%TO.P,R18,2*%
%TO.N,CONTACT1*%
X109825000Y-28000000D03*
%TD*%
D29*
%TO.P,C9,1*%
%TO.N,C6_EN*%
X64225000Y-46000000D03*
%TO.P,C9,2*%
%TO.N,GND*%
X65775000Y-46000000D03*
%TD*%
D25*
%TO.P,U6,1*%
%TO.N,OPAMP_OUT*%
X90862500Y-45050000D03*
%TO.P,U6,2*%
%TO.N,GND*%
X90862500Y-46000000D03*
%TO.P,U6,3*%
%TO.N,DAC_RAW*%
X90862500Y-46950000D03*
%TO.P,U6,4*%
%TO.N,OPAMP_FB*%
X93137500Y-46950000D03*
%TO.P,U6,5*%
%TO.N,24V_PROT*%
X93137500Y-45050000D03*
%TD*%
D29*
%TO.P,C20,1*%
%TO.N,CONTACT2*%
X123225000Y-31000000D03*
%TO.P,C20,2*%
%TO.N,GND*%
X124775000Y-31000000D03*
%TD*%
D30*
%TO.P,U7,1*%
%TO.N,+3V3*%
X100350000Y-55555000D03*
%TO.P,U7,2*%
%TO.N,GND*%
X100350000Y-56825000D03*
%TO.P,U7,3*%
%TO.N,RS485_RX*%
X100350000Y-58095000D03*
%TO.P,U7,4*%
%TO.N,RS485_DE*%
X100350000Y-59365000D03*
%TO.P,U7,5*%
X100350000Y-60635000D03*
%TO.P,U7,6*%
%TO.N,RS485_TX*%
X100350000Y-61905000D03*
%TO.P,U7,7*%
%TO.N,N/C*%
X100350000Y-63175000D03*
%TO.P,U7,8*%
%TO.N,GND*%
X100350000Y-64445000D03*
%TO.P,U7,9*%
%TO.N,RS485_COM*%
X109650000Y-64445000D03*
%TO.P,U7,10*%
X109650000Y-63175000D03*
%TO.P,U7,11*%
%TO.N,N/C*%
X109650000Y-61905000D03*
%TO.P,U7,12*%
%TO.N,RS485_A*%
X109650000Y-60635000D03*
%TO.P,U7,13*%
%TO.N,RS485_B*%
X109650000Y-59365000D03*
%TO.P,U7,14*%
%TO.N,N/C*%
X109650000Y-58095000D03*
%TO.P,U7,15*%
%TO.N,RS485_COM*%
X109650000Y-56825000D03*
%TO.P,U7,16*%
%TO.N,VISO*%
X109650000Y-55555000D03*
%TD*%
D31*
%TO.P,LED2,1*%
%TO.N,PWR24_LED_R*%
X94212500Y-40000000D03*
%TO.P,LED2,2*%
%TO.N,GND*%
X95787500Y-40000000D03*
%TD*%
%TO.P,LED3,1*%
%TO.N,BUS_LED_R*%
X103212500Y-40000000D03*
%TO.P,LED3,2*%
%TO.N,GND*%
X104787500Y-40000000D03*
%TD*%
D10*
%TO.P,C8,1*%
%TO.N,+3V3*%
X83050000Y-59000000D03*
%TO.P,C8,2*%
%TO.N,GND*%
X84950000Y-59000000D03*
%TD*%
D32*
%TO.P,D4,1*%
%TO.N,GND*%
X115062500Y-73050000D03*
%TO.P,D4,2*%
%TO.N,+3V3*%
X115062500Y-74950000D03*
%TO.P,D4,3*%
%TO.N,ADC_0_10*%
X116937500Y-74000000D03*
%TD*%
D33*
%TO.P,U4,1*%
%TO.N,I2C_SDA*%
X73300000Y-19600000D03*
%TO.P,U4,2*%
%TO.N,I2C_SCL*%
X73300000Y-20400000D03*
%TO.P,U4,3*%
%TO.N,+3V3*%
X74700000Y-20400000D03*
%TO.P,U4,4*%
%TO.N,GND*%
X74700000Y-19600000D03*
%TD*%
D26*
%TO.P,TP1,1*%
%TO.N,24V_RAW*%
X22000000Y-38000000D03*
%TD*%
D34*
%TO.P,F1,1*%
%TO.N,24V_RAW*%
X26862500Y-66000000D03*
%TO.P,F1,2*%
%TO.N,24V_FUSED*%
X31137500Y-66000000D03*
%TD*%
D35*
%TO.P,C1,1*%
%TO.N,24V_PROT*%
X39525000Y-56000000D03*
%TO.P,C1,2*%
%TO.N,GND*%
X42475000Y-56000000D03*
%TD*%
D10*
%TO.P,C16,1*%
%TO.N,+3V3*%
X95050000Y-52500000D03*
%TO.P,C16,2*%
%TO.N,GND*%
X96950000Y-52500000D03*
%TD*%
D13*
%TO.P,R7,1*%
%TO.N,+3V3*%
X68175000Y-18000000D03*
%TO.P,R7,2*%
%TO.N,I2C_SDA*%
X69825000Y-18000000D03*
%TD*%
D36*
%TO.P,J3,A1*%
%TO.N,GND*%
X71750000Y-83155000D03*
%TO.P,J3,A4*%
%TO.N,USB_5V*%
X72550000Y-83155000D03*
D37*
%TO.P,J3,A5*%
%TO.N,USB_CC1*%
X73750000Y-83155000D03*
%TO.P,J3,A6*%
%TO.N,USB_D+*%
X74750000Y-83155000D03*
%TO.P,J3,A7*%
%TO.N,USB_D-*%
X75250000Y-83155000D03*
%TO.P,J3,A8*%
%TO.N,N/C*%
X76250000Y-83155000D03*
D36*
%TO.P,J3,A9*%
%TO.N,USB_5V*%
X77450000Y-83155000D03*
%TO.P,J3,A12*%
%TO.N,GND*%
X78250000Y-83155000D03*
%TO.P,J3,B1*%
X78250000Y-83155000D03*
%TO.P,J3,B4*%
%TO.N,USB_5V*%
X77450000Y-83155000D03*
D37*
%TO.P,J3,B5*%
%TO.N,USB_CC2*%
X76750000Y-83155000D03*
%TO.P,J3,B6*%
%TO.N,USB_D+*%
X75750000Y-83155000D03*
%TO.P,J3,B7*%
%TO.N,USB_D-*%
X74250000Y-83155000D03*
%TO.P,J3,B8*%
%TO.N,N/C*%
X73250000Y-83155000D03*
D36*
%TO.P,J3,B9*%
%TO.N,USB_5V*%
X72550000Y-83155000D03*
%TO.P,J3,B12*%
%TO.N,GND*%
X71750000Y-83155000D03*
D38*
%TO.P,J3,SH*%
X70680000Y-84070000D03*
D39*
X70680000Y-88250000D03*
D38*
X79320000Y-84070000D03*
D39*
X79320000Y-88250000D03*
%TD*%
D26*
%TO.P,TP7,1*%
%TO.N,RH_OUT*%
X70000000Y-38000000D03*
%TD*%
D13*
%TO.P,R24,1*%
%TO.N,24V_PROT*%
X90175000Y-40000000D03*
%TO.P,R24,2*%
%TO.N,PWR24_LED_R*%
X91825000Y-40000000D03*
%TD*%
D40*
%TO.P,TVS3,1*%
%TO.N,GND*%
X106950000Y-25000000D03*
%TO.P,TVS3,2*%
%TO.N,CONTACT1_EXT*%
X109050000Y-25000000D03*
%TD*%
D41*
%TO.P,J4,1*%
%TO.N,+3V3*%
X84500000Y-84500000D03*
%TO.P,J4,2*%
%TO.N,GND*%
X85500000Y-84500000D03*
%TO.P,J4,3*%
%TO.N,I2C_SDA*%
X86500000Y-84500000D03*
%TO.P,J4,4*%
%TO.N,I2C_SCL*%
X87500000Y-84500000D03*
%TO.P,J4,5*%
%TO.N,ONEWIRE*%
X88500000Y-84500000D03*
%TO.P,J4,6*%
%TO.N,EXP_GPIO4*%
X89500000Y-84500000D03*
%TO.P,J4,7*%
%TO.N,EXP_GPIO5*%
X90500000Y-84500000D03*
%TO.P,J4,8*%
%TO.N,SYS_5V*%
X91500000Y-84500000D03*
D42*
%TO.P,J4,MP*%
%TO.N,N/C*%
X83200000Y-88375000D03*
X92800000Y-88375000D03*
%TD*%
D25*
%TO.P,U2,1*%
%TO.N,SYS_5V*%
X78862500Y-63050000D03*
%TO.P,U2,2*%
%TO.N,GND*%
X78862500Y-64000000D03*
%TO.P,U2,3*%
%TO.N,SYS_5V*%
X78862500Y-64950000D03*
%TO.P,U2,4*%
%TO.N,N/C*%
X81137500Y-64950000D03*
%TO.P,U2,5*%
%TO.N,+3V3*%
X81137500Y-63050000D03*
%TD*%
D43*
%TO.P,RTH1,1*%
%TO.N,TEMP_KTY*%
X27000000Y-46000000D03*
D44*
%TO.P,RTH1,2*%
%TO.N,GND*%
X28270000Y-46000000D03*
%TO.P,RTH1,3*%
%TO.N,N/C*%
X29540000Y-46000000D03*
%TD*%
D13*
%TO.P,R23,1*%
%TO.N,+3V3*%
X102175000Y-85000000D03*
%TO.P,R23,2*%
%TO.N,SERVICE_BUTTON*%
X103825000Y-85000000D03*
%TD*%
D16*
%TO.P,D1,1*%
%TO.N,24V_PROT*%
X36000000Y-66000000D03*
%TO.P,D1,2*%
%TO.N,24V_FUSED*%
X40000000Y-66000000D03*
%TD*%
D45*
%TO.P,J2,1*%
%TO.N,RS485_A*%
X135000000Y-48000000D03*
D12*
%TO.P,J2,2*%
%TO.N,RS485_B*%
X135000000Y-43000000D03*
%TO.P,J2,3*%
%TO.N,RS485_COM*%
X135000000Y-38000000D03*
%TO.P,J2,4*%
%TO.N,RS485_SHIELD*%
X135000000Y-33000000D03*
%TD*%
D40*
%TO.P,TVS2,1*%
%TO.N,GND*%
X95950000Y-25000000D03*
%TO.P,TVS2,2*%
%TO.N,ONEWIRE_EXT*%
X98050000Y-25000000D03*
%TD*%
D26*
%TO.P,TP12,1*%
%TO.N,GND*%
X91000000Y-35000000D03*
%TD*%
%TO.P,TP11,1*%
%TO.N,RS485_COM*%
X102000000Y-31000000D03*
%TD*%
D10*
%TO.P,C3,1*%
%TO.N,VCC_BYP*%
X46050000Y-72000000D03*
%TO.P,C3,2*%
%TO.N,GND*%
X47950000Y-72000000D03*
%TD*%
D46*
%TO.P,TVS1,1*%
%TO.N,GND*%
X38000000Y-75150000D03*
%TO.P,TVS1,2*%
%TO.N,24V_PROT*%
X38000000Y-70850000D03*
%TD*%
D13*
%TO.P,R2,1*%
%TO.N,BUCK_FB*%
X54175000Y-76000000D03*
%TO.P,R2,2*%
%TO.N,GND*%
X55825000Y-76000000D03*
%TD*%
D16*
%TO.P,D2,1*%
%TO.N,SYS_5V*%
X72000000Y-54000000D03*
%TO.P,D2,2*%
%TO.N,5V_BUCK*%
X76000000Y-54000000D03*
%TD*%
D45*
%TO.P,J1,1*%
%TO.N,TEMP_KTY*%
X16000000Y-66000000D03*
D12*
%TO.P,J1,2*%
%TO.N,24V_RAW*%
X16000000Y-61000000D03*
%TO.P,J1,3*%
%TO.N,GND*%
X16000000Y-56000000D03*
%TO.P,J1,4*%
%TO.N,RH_OUT*%
X16000000Y-51000000D03*
%TD*%
D29*
%TO.P,C19,1*%
%TO.N,CONTACT1*%
X111225000Y-31000000D03*
%TO.P,C19,2*%
%TO.N,GND*%
X112775000Y-31000000D03*
%TD*%
D13*
%TO.P,R1,1*%
%TO.N,5V_BUCK*%
X54175000Y-73000000D03*
%TO.P,R1,2*%
%TO.N,BUCK_FB*%
X55825000Y-73000000D03*
%TD*%
D26*
%TO.P,TP4,1*%
%TO.N,+3V3*%
X46000000Y-39000000D03*
%TD*%
D13*
%TO.P,R6,1*%
%TO.N,+3V3*%
X64175000Y-43000000D03*
%TO.P,R6,2*%
%TO.N,C6_EN*%
X65825000Y-43000000D03*
%TD*%
D29*
%TO.P,C12,1*%
%TO.N,24V_PROT*%
X93225000Y-42000000D03*
%TO.P,C12,2*%
%TO.N,GND*%
X94775000Y-42000000D03*
%TD*%
D13*
%TO.P,R14,1*%
%TO.N,ONEWIRE*%
X86175000Y-25000000D03*
%TO.P,R14,2*%
%TO.N,ONEWIRE_EXT*%
X87825000Y-25000000D03*
%TD*%
D26*
%TO.P,TP10,1*%
%TO.N,RS485_B*%
X94000000Y-31000000D03*
%TD*%
D29*
%TO.P,C21,1*%
%TO.N,ADC_0_10*%
X119225000Y-75000000D03*
%TO.P,C21,2*%
%TO.N,GND*%
X120775000Y-75000000D03*
%TD*%
D45*
%TO.P,J8,1*%
%TO.N,AIN_0_10_RAW*%
X135000000Y-75000000D03*
D12*
%TO.P,J8,2*%
%TO.N,GND*%
X135000000Y-70000000D03*
%TD*%
D25*
%TO.P,ESD1,1*%
%TO.N,USB_D-*%
X73862500Y-67050000D03*
%TO.P,ESD1,2*%
%TO.N,GND*%
X73862500Y-68000000D03*
%TO.P,ESD1,3*%
%TO.N,USB_D+*%
X73862500Y-68950000D03*
%TO.P,ESD1,4*%
X76137500Y-68950000D03*
%TO.P,ESD1,5*%
%TO.N,USB_5V*%
X76137500Y-68000000D03*
%TO.P,ESD1,6*%
%TO.N,USB_D-*%
X76137500Y-67050000D03*
%TD*%
D17*
%TO.P,R3,1*%
%TO.N,PWR_GOOD*%
X50000000Y-57825000D03*
%TO.P,R3,2*%
%TO.N,5V_BUCK*%
X50000000Y-56175000D03*
%TD*%
D26*
%TO.P,TP9,1*%
%TO.N,RS485_A*%
X86000000Y-31000000D03*
%TD*%
D10*
%TO.P,C17,1*%
%TO.N,VISO*%
X112050000Y-54000000D03*
%TO.P,C17,2*%
%TO.N,RS485_COM*%
X113950000Y-54000000D03*
%TD*%
D47*
%TO.P,C10,1*%
%TO.N,+3V3*%
X78000000Y-20775000D03*
%TO.P,C10,2*%
%TO.N,GND*%
X78000000Y-19225000D03*
%TD*%
D13*
%TO.P,R21,1*%
%TO.N,AIN_DIV*%
X123175000Y-75000000D03*
%TO.P,R21,2*%
%TO.N,GND*%
X124825000Y-75000000D03*
%TD*%
%TO.P,R10,1*%
%TO.N,OPAMP_FB*%
X90175000Y-52000000D03*
%TO.P,R10,2*%
%TO.N,GND*%
X91825000Y-52000000D03*
%TD*%
%TO.P,R16,1*%
%TO.N,CONTACT1_EXT*%
X111175000Y-25000000D03*
%TO.P,R16,2*%
%TO.N,CONTACT1*%
X112825000Y-25000000D03*
%TD*%
D17*
%TO.P,R5,1*%
%TO.N,USB_CC2*%
X70500000Y-67825000D03*
%TO.P,R5,2*%
%TO.N,GND*%
X70500000Y-66175000D03*
%TD*%
D13*
%TO.P,R20,1*%
%TO.N,AIN_0_10_RAW*%
X123175000Y-72000000D03*
%TO.P,R20,2*%
%TO.N,AIN_DIV*%
X124825000Y-72000000D03*
%TD*%
D31*
%TO.P,LED1,1*%
%TO.N,STATUS_LED_R*%
X81212500Y-40000000D03*
%TO.P,LED1,2*%
%TO.N,GND*%
X82787500Y-40000000D03*
%TD*%
D26*
%TO.P,TP5,1*%
%TO.N,I2C_SDA*%
X54000000Y-40000000D03*
%TD*%
D40*
%TO.P,TVS4,1*%
%TO.N,GND*%
X126950000Y-25000000D03*
%TO.P,TVS4,2*%
%TO.N,CONTACT2_EXT*%
X129050000Y-25000000D03*
%TD*%
D10*
%TO.P,C18,1*%
%TO.N,VISO*%
X112050000Y-57000000D03*
%TO.P,C18,2*%
%TO.N,RS485_COM*%
X113950000Y-57000000D03*
%TD*%
D26*
%TO.P,TP8,1*%
%TO.N,TEMP_KTY*%
X83000000Y-35000000D03*
%TD*%
D29*
%TO.P,C11,1*%
%TO.N,+3V3*%
X80225000Y-50000000D03*
%TO.P,C11,2*%
%TO.N,GND*%
X81775000Y-50000000D03*
%TD*%
D48*
%TO.P,C5,1*%
%TO.N,5V_BUCK*%
X69525000Y-59000000D03*
%TO.P,C5,2*%
%TO.N,GND*%
X72475000Y-59000000D03*
%TD*%
D13*
%TO.P,R8,1*%
%TO.N,+3V3*%
X68175000Y-21000000D03*
%TO.P,R8,2*%
%TO.N,I2C_SCL*%
X69825000Y-21000000D03*
%TD*%
%TO.P,R15,1*%
%TO.N,+3V3*%
X91175000Y-25000000D03*
%TO.P,R15,2*%
%TO.N,ONEWIRE_EXT*%
X92825000Y-25000000D03*
%TD*%
D10*
%TO.P,C2,1*%
%TO.N,24V_PROT*%
X44050000Y-53000000D03*
%TO.P,C2,2*%
%TO.N,GND*%
X45950000Y-53000000D03*
%TD*%
D48*
%TO.P,C6,1*%
%TO.N,5V_BUCK*%
X69525000Y-64000000D03*
%TO.P,C6,2*%
%TO.N,GND*%
X72475000Y-64000000D03*
%TD*%
D47*
%TO.P,C13,1*%
%TO.N,RH_OUT*%
X102000000Y-46775000D03*
%TO.P,C13,2*%
%TO.N,GND*%
X102000000Y-45225000D03*
%TD*%
D26*
%TO.P,TP3,1*%
%TO.N,SYS_5V*%
X38000000Y-38000000D03*
%TD*%
D15*
%TO.P,SW4,1*%
%TO.N,SERVICE_BUTTON*%
X106300000Y-85000000D03*
%TO.P,SW4,2*%
%TO.N,GND*%
X109700000Y-85000000D03*
%TD*%
D29*
%TO.P,C4,1*%
%TO.N,BOOT*%
X53225000Y-58000000D03*
%TO.P,C4,2*%
%TO.N,SW*%
X54775000Y-58000000D03*
%TD*%
D49*
%TO.N,+3V3*%
X83693900Y-83693900D03*
X101574600Y-84094400D03*
X100350000Y-54734300D03*
X63235200Y-43116200D03*
X47504100Y-18765000D03*
X125420800Y-28754200D03*
X107436800Y-27261800D03*
X81137500Y-62231700D03*
X114254500Y-75758000D03*
X90431000Y-24256000D03*
D50*
X76200000Y-21200000D03*
D49*
%TO.N,GND*%
X39585100Y-73762800D03*
X79933900Y-41248400D03*
X56564100Y-76739100D03*
X48858900Y-72908900D03*
X124730700Y-75991800D03*
X107568800Y-25618800D03*
X101174300Y-65269300D03*
X71741200Y-67234900D03*
X76890500Y-57940500D03*
X94775000Y-44276800D03*
X113531500Y-30243500D03*
X98624000Y-55850000D03*
X47503000Y-17696300D03*
X95434800Y-24322800D03*
X78988000Y-19536500D03*
X127545100Y-25595100D03*
X65004100Y-17722400D03*
X44904700Y-54045300D03*
X68740400Y-45209500D03*
D50*
X76200000Y-18800000D03*
D49*
X110667900Y-83995100D03*
X95403100Y-51272000D03*
X125539200Y-30235800D03*
%TO.N,CONTACT1_EXT*%
X111175000Y-24018100D03*
%TO.N,ONEWIRE_EXT*%
X88572100Y-25747100D03*
%TO.N,OPAMP_OUT*%
X90070500Y-44256400D03*
X96624300Y-50982800D03*
%TO.N,OPAMP_FB*%
X97761200Y-49999600D03*
X93714500Y-49224000D03*
%TO.N,ADC_0_10*%
X92375700Y-68567000D03*
X120089900Y-71264900D03*
X47892500Y-26211800D03*
X115670700Y-74000000D03*
%TO.N,RS485_A*%
X112429900Y-61573400D03*
%TO.N,CONTACT2*%
X65004100Y-31237600D03*
X114948100Y-32177200D03*
%TO.N,C6_BOOT*%
X65015900Y-34005000D03*
X74422400Y-41848300D03*
%TO.N,SYS_5V*%
X77086800Y-61274200D03*
X57239100Y-74981800D03*
X72000000Y-55413700D03*
X92327400Y-84500000D03*
%TO.N,USB_5V*%
X77448900Y-81915500D03*
X64484200Y-73762800D03*
X77306800Y-67822000D03*
X72550000Y-81914600D03*
%TO.N,RH_OUT*%
X96722300Y-45268100D03*
%TO.N,BUS_LED*%
X65004100Y-27882400D03*
X98435700Y-39260700D03*
%TO.N,USB_CC1*%
X68736700Y-68561700D03*
X73750000Y-84382000D03*
%TO.N,5V_BUCK*%
X63297900Y-64851600D03*
X50998800Y-55939600D03*
X54175000Y-72010800D03*
%TO.N,RS485_B*%
X122912800Y-58910800D03*
%TO.N,24V_PROT*%
X37923800Y-67923700D03*
X40970600Y-53001600D03*
X89265000Y-45950900D03*
%TO.N,PWR_GOOD*%
X45022700Y-66905000D03*
X50000000Y-58731700D03*
%TO.N,VCC_BYP*%
X46967900Y-71082100D03*
X53831900Y-66304800D03*
%TO.N,BOOT*%
X52461000Y-58764000D03*
X52981900Y-64570200D03*
%TO.N,STATUS_LED*%
X48294200Y-28925000D03*
X76439800Y-39266400D03*
%TO.N,C6_EN*%
X64334100Y-44199400D03*
X47504100Y-20035000D03*
%TO.N,I2C_SDA*%
X85304400Y-47031900D03*
X86500000Y-83221900D03*
X47504100Y-23845000D03*
D50*
X71800000Y-18800000D03*
%TO.N,I2C_SCL*%
X71800000Y-21200000D03*
D49*
X87500000Y-83220300D03*
X47927400Y-25410000D03*
X85448600Y-46037000D03*
%TO.N,EXP_GPIO4*%
X89500000Y-83212600D03*
X47504600Y-21305000D03*
%TO.N,EXP_GPIO5*%
X90500000Y-83210100D03*
X47504100Y-22575000D03*
%TO.N,USB_D-*%
X47502900Y-32735000D03*
X75386100Y-84385200D03*
X72685900Y-67050000D03*
%TO.N,USB_D+*%
X73862500Y-69758700D03*
X74766700Y-81921800D03*
X44984100Y-34005000D03*
X75750000Y-81921800D03*
%TO.N,CONTACT1*%
X65004100Y-32507600D03*
X109825000Y-29600000D03*
%TO.N,SERVICE_BUTTON*%
X105332200Y-85054600D03*
X65004100Y-30195000D03*
%TO.N,ONEWIRE*%
X88500000Y-83220500D03*
X65032100Y-26237500D03*
X86922100Y-25747100D03*
%TO.N,RS485_RX*%
X98980200Y-57425800D03*
X65004100Y-22575000D03*
%TO.N,RS485_TX*%
X65004100Y-21305000D03*
X98810100Y-61880000D03*
%TO.N,RS485_DE*%
X62495900Y-18765000D03*
X98786900Y-59005300D03*
%TO.N,RS485_COM*%
X114988500Y-53917500D03*
X110475200Y-65270200D03*
X107919800Y-37107300D03*
%TO.N,24V_RAW*%
X25785900Y-64923400D03*
%TO.N,24V_FUSED*%
X32215500Y-65502300D03*
X38627500Y-64627500D03*
%TO.N,USB_CC2*%
X76750000Y-81465000D03*
X71234500Y-68559500D03*
%TD*%
%TO.N,+3V3*%
D51*
X102175000Y-84694800D02*
X101574600Y-84094400D01*
X114254500Y-75758000D02*
X115062500Y-74950000D01*
X83050000Y-59000000D02*
X81137500Y-60912500D01*
X80225000Y-50000000D02*
X80225000Y-48587500D01*
X81137500Y-60912500D02*
X81137500Y-62231700D01*
X80225000Y-48587500D02*
X81862500Y-46950000D01*
X68175000Y-18000000D02*
X68962600Y-17212400D01*
X81137500Y-63050000D02*
X81137500Y-62231700D01*
X90431000Y-24256000D02*
X91175000Y-25000000D01*
X47276700Y-18765000D02*
X47504100Y-18765000D01*
X100065200Y-54449500D02*
X95050000Y-54449500D01*
X76625000Y-20775000D02*
X76200000Y-21200000D01*
X94745900Y-52804100D02*
X95050000Y-52500000D01*
X74700000Y-20400000D02*
X76200000Y-21200000D01*
X100350000Y-54734300D02*
X100350000Y-55555000D01*
X75670000Y-17212400D02*
X76915600Y-18458000D01*
X79077200Y-48587500D02*
X72283700Y-41794000D01*
X125420800Y-28754200D02*
X126175000Y-28000000D01*
X83693900Y-83693900D02*
X84500000Y-84500000D01*
X80225000Y-48587500D02*
X79077200Y-48587500D01*
X72283700Y-41794000D02*
X65381000Y-41794000D01*
X63235200Y-43116200D02*
X64058800Y-43116200D01*
X64058800Y-43116200D02*
X64175000Y-43000000D01*
X100350000Y-54734300D02*
X100065200Y-54449500D01*
X108175000Y-28000000D02*
X107436800Y-27261800D01*
X83029100Y-52804100D02*
X94745900Y-52804100D01*
X68175000Y-21000000D02*
X68175000Y-18000000D01*
X68962600Y-17212400D02*
X75670000Y-17212400D01*
X80225000Y-50000000D02*
X83029100Y-52804100D01*
X102175000Y-85000000D02*
X102175000Y-84694800D01*
X95050000Y-52500000D02*
X95050000Y-54449500D01*
X76915600Y-18458000D02*
X76915600Y-20775000D01*
X65381000Y-41794000D02*
X64175000Y-43000000D01*
X95050000Y-54449500D02*
X95050000Y-55500000D01*
X46250000Y-18765000D02*
X47276700Y-18765000D01*
X76915600Y-20775000D02*
X76625000Y-20775000D01*
X78000000Y-20775000D02*
X76915600Y-20775000D01*
%TO.N,GND*%
X102000000Y-45225000D02*
X101441400Y-44666400D01*
X102000000Y-45225000D02*
X104787500Y-42437500D01*
X79933900Y-41741300D02*
X78700000Y-42975200D01*
X101441400Y-44666400D02*
X94775000Y-44666400D01*
X71700000Y-43000000D02*
X70948300Y-43000000D01*
X109700000Y-85000000D02*
X110451700Y-85000000D01*
X93567200Y-46000000D02*
X94775000Y-44792200D01*
X100350000Y-64445000D02*
X101174300Y-65269300D01*
X124730700Y-75991800D02*
X121766800Y-75991800D01*
X72475000Y-64000000D02*
X78862500Y-64000000D01*
X83036400Y-45399200D02*
X83788300Y-45399200D01*
X70678900Y-65796100D02*
X70678900Y-66175000D01*
X70678900Y-66175000D02*
X71740000Y-67236100D01*
X125875000Y-76050000D02*
X125273800Y-75448700D01*
X67949900Y-46000000D02*
X68740400Y-45209500D01*
X56564100Y-76739100D02*
X55825000Y-76000000D01*
X65004100Y-17722400D02*
X64776700Y-17495000D01*
X96950000Y-55500000D02*
X97511100Y-56061100D01*
X125539200Y-30235800D02*
X124775000Y-31000000D01*
X63750000Y-17495000D02*
X64776700Y-17495000D01*
X72475000Y-59000000D02*
X73534500Y-57940500D01*
X78700000Y-43000000D02*
X78700000Y-44151700D01*
X68740400Y-45207900D02*
X68740400Y-45209500D01*
X95434800Y-24322800D02*
X95950000Y-24838000D01*
X118825000Y-73050000D02*
X115062500Y-73050000D01*
X82787500Y-40000000D02*
X82787500Y-40413900D01*
X104787500Y-42437500D02*
X104787500Y-40000000D01*
X90862500Y-46000000D02*
X93567200Y-46000000D01*
X82831000Y-48944000D02*
X81775000Y-50000000D01*
X48400000Y-63200000D02*
X47481700Y-63200000D01*
X127000000Y-76050000D02*
X125875000Y-76050000D01*
X72475000Y-64000000D02*
X70678900Y-65796100D01*
X95920100Y-51470100D02*
X96950000Y-52500000D01*
X39387200Y-73762800D02*
X38000000Y-75150000D01*
X79933900Y-41246800D02*
X79933900Y-41248400D01*
X95787500Y-40987500D02*
X94775000Y-42000000D01*
X121766800Y-75991800D02*
X120775000Y-75000000D01*
X79034800Y-57915200D02*
X83865200Y-57915200D01*
X99680800Y-56155800D02*
X100350000Y-56825000D01*
X78250000Y-83155000D02*
X78686700Y-82718300D01*
X80548300Y-46000000D02*
X81862500Y-46000000D01*
X71313300Y-82718300D02*
X71750000Y-83155000D01*
X83036400Y-45399200D02*
X82831000Y-45604600D01*
X47481700Y-63200000D02*
X47376700Y-63095000D01*
X82831000Y-45604600D02*
X82831000Y-46000000D01*
X46250000Y-17495000D02*
X47301700Y-17495000D01*
X39585100Y-73762800D02*
X39387200Y-73762800D01*
X107568800Y-25618800D02*
X106950000Y-25000000D01*
X83788300Y-45399200D02*
X84137500Y-45050000D01*
X84142200Y-82718300D02*
X85500000Y-84076100D01*
X71740000Y-67236100D02*
X71741200Y-67234900D01*
X110667900Y-83995100D02*
X110451700Y-84211300D01*
X72154700Y-67650800D02*
X73513300Y-67650800D01*
X46300000Y-63095000D02*
X47376700Y-63095000D01*
X124730700Y-75991800D02*
X125273800Y-75448700D01*
X78988000Y-19536500D02*
X78676500Y-19225000D01*
X91825000Y-52000000D02*
X92354900Y-51470100D01*
X74700000Y-19600000D02*
X76200000Y-18800000D01*
X98624000Y-56155800D02*
X99680800Y-56155800D01*
X78700000Y-42975200D02*
X78700000Y-43000000D01*
X80428400Y-41246800D02*
X80899200Y-40776000D01*
X47503000Y-17696300D02*
X47301700Y-17495000D01*
X82787500Y-40413900D02*
X82425400Y-40776000D01*
X94775000Y-44666400D02*
X94775000Y-44276800D01*
X97511100Y-56061100D02*
X97511100Y-56155800D01*
X73513300Y-67650800D02*
X73862500Y-68000000D01*
X113531500Y-30243500D02*
X112775000Y-31000000D01*
X85500000Y-84076100D02*
X85500000Y-84500000D01*
X42950000Y-56000000D02*
X44904700Y-54045300D01*
X127545100Y-25595100D02*
X126950000Y-25000000D01*
X95787500Y-40000000D02*
X95787500Y-40987500D01*
X81862500Y-46000000D02*
X82831000Y-46000000D01*
X70948300Y-43000000D02*
X68740400Y-45207900D01*
X71740000Y-67236100D02*
X72154700Y-67650800D01*
X48400000Y-64400000D02*
X49000000Y-65000000D01*
X82831000Y-46000000D02*
X82831000Y-48944000D01*
X70680000Y-84070000D02*
X70680000Y-82718300D01*
X95950000Y-24838000D02*
X95950000Y-25000000D01*
X42475000Y-56000000D02*
X42950000Y-56000000D01*
X70680000Y-82718300D02*
X71313300Y-82718300D01*
X120775000Y-75000000D02*
X118825000Y-73050000D01*
X78700000Y-44151700D02*
X80548300Y-46000000D01*
X94775000Y-44792200D02*
X94775000Y-44666400D01*
X125273800Y-75448700D02*
X124825000Y-75000000D01*
X76890500Y-57940500D02*
X77950000Y-59000000D01*
X73534500Y-57940500D02*
X76890500Y-57940500D01*
X79320000Y-84070000D02*
X79320000Y-82718300D01*
X98624000Y-55850000D02*
X98624000Y-56155800D01*
X44904700Y-54045300D02*
X45950000Y-53000000D01*
X110451700Y-84211300D02*
X110451700Y-85000000D01*
X79933900Y-41248400D02*
X79933900Y-41741300D01*
X78676500Y-19225000D02*
X78000000Y-19225000D01*
X77950000Y-59000000D02*
X79034800Y-57915200D01*
X70500000Y-66175000D02*
X70678900Y-66175000D01*
X79933900Y-41246800D02*
X80428400Y-41246800D01*
X70500000Y-66175000D02*
X68000000Y-66175000D01*
X80899200Y-40776000D02*
X82425400Y-40776000D01*
X97511100Y-56155800D02*
X98624000Y-56155800D01*
X95403100Y-51272000D02*
X95403100Y-51470100D01*
X83865200Y-57915200D02*
X84950000Y-59000000D01*
X95403100Y-51470100D02*
X95920100Y-51470100D01*
X94775000Y-42000000D02*
X94775000Y-44276800D01*
X48858900Y-72908900D02*
X47950000Y-72000000D01*
X79320000Y-82718300D02*
X84142200Y-82718300D01*
X65775000Y-46000000D02*
X67949900Y-46000000D01*
X78686700Y-82718300D02*
X79320000Y-82718300D01*
X92354900Y-51470100D02*
X95403100Y-51470100D01*
%TO.N,CONTACT1_EXT*%
X111175000Y-24018100D02*
X111175000Y-25000000D01*
X109050000Y-25000000D02*
X111175000Y-25000000D01*
%TO.N,CONTACT2_EXT*%
X129050000Y-25000000D02*
X128244500Y-24194500D01*
X123980500Y-24194500D02*
X123175000Y-25000000D01*
X128244500Y-24194500D02*
X123980500Y-24194500D01*
X129050000Y-21950000D02*
X129050000Y-25000000D01*
X136000000Y-15000000D02*
X129050000Y-21950000D01*
%TO.N,ONEWIRE_EXT*%
X88572100Y-25747100D02*
X88645200Y-25820200D01*
X88572100Y-25747100D02*
X87825000Y-25000000D01*
X92577600Y-25820200D02*
X92825000Y-25572800D01*
X97477200Y-25572800D02*
X98050000Y-25000000D01*
X92825000Y-25572800D02*
X92825000Y-25000000D01*
X88645200Y-25820200D02*
X92577600Y-25820200D01*
X92825000Y-25572800D02*
X97477200Y-25572800D01*
%TO.N,OPAMP_OUT*%
X96516600Y-50875100D02*
X96050100Y-50875100D01*
X96624300Y-50982800D02*
X96516600Y-50875100D01*
X90070500Y-44258000D02*
X90070500Y-44256400D01*
X98175000Y-47000000D02*
X98175000Y-46000000D01*
X90862500Y-45050000D02*
X90070500Y-44258000D01*
X96050100Y-50875100D02*
X95175000Y-50000000D01*
X95175000Y-50000000D02*
X98175000Y-47000000D01*
%TO.N,OPAMP_FB*%
X92951000Y-49224000D02*
X90175000Y-52000000D01*
X96825400Y-49999600D02*
X96825000Y-50000000D01*
X97761200Y-49999600D02*
X96825400Y-49999600D01*
X93714500Y-49224000D02*
X92951000Y-49224000D01*
X93714500Y-49224000D02*
X93714500Y-47527000D01*
X93714500Y-47527000D02*
X93137500Y-46950000D01*
%TO.N,AIN_DIV*%
X124825000Y-72000000D02*
X124825000Y-72075000D01*
X121537500Y-74362500D02*
X119175000Y-72000000D01*
X124825000Y-72075000D02*
X122537500Y-74362500D01*
X122537500Y-74362500D02*
X121537500Y-74362500D01*
X123175000Y-75000000D02*
X122537500Y-74362500D01*
%TO.N,ADC_0_10*%
X46250000Y-26385000D02*
X47301700Y-26385000D01*
X120089900Y-71264900D02*
X120825000Y-72000000D01*
X117937500Y-75000000D02*
X116937500Y-74000000D01*
X115670700Y-74000000D02*
X116937500Y-74000000D01*
X119225000Y-75000000D02*
X117937500Y-75000000D01*
X47474900Y-26211800D02*
X47892500Y-26211800D01*
X47301700Y-26385000D02*
X47474900Y-26211800D01*
%TO.N,RS485_A*%
X110319200Y-61304200D02*
X109650000Y-60635000D01*
X116000000Y-64462500D02*
X115319000Y-64462500D01*
X112160600Y-61304200D02*
X110319200Y-61304200D01*
X112160600Y-61304200D02*
X112429800Y-61573400D01*
X112429800Y-61573400D02*
X112429900Y-61573400D01*
X115319000Y-64462500D02*
X112429900Y-61573400D01*
%TO.N,RS485_TERM*%
X117403700Y-61881200D02*
X122000000Y-66477500D01*
X117403700Y-61881200D02*
X116343700Y-61881200D01*
X116343700Y-61881200D02*
X116000000Y-61537500D01*
X122000000Y-66477500D02*
X122000000Y-66810000D01*
%TO.N,CONTACT2*%
X65004100Y-31237600D02*
X64776700Y-31465000D01*
X122047800Y-32177200D02*
X114948100Y-32177200D01*
X123225000Y-26600000D02*
X124825000Y-25000000D01*
X124825000Y-25000000D02*
X127825000Y-28000000D01*
X63750000Y-31465000D02*
X64776700Y-31465000D01*
X123225000Y-31000000D02*
X122047800Y-32177200D01*
X123225000Y-31000000D02*
X123225000Y-26600000D01*
%TO.N,C6_BOOT*%
X74422400Y-41848300D02*
X75300000Y-41848300D01*
X64801700Y-34005000D02*
X65015900Y-34005000D01*
X63750000Y-34005000D02*
X64801700Y-34005000D01*
X75300000Y-43000000D02*
X75300000Y-41848300D01*
%TO.N,SYS_5V*%
X77086800Y-61274300D02*
X77086800Y-61274200D01*
X79877100Y-64600800D02*
X79211700Y-64600800D01*
X58981800Y-74981800D02*
X59000000Y-75000000D01*
X78862500Y-63050000D02*
X79271300Y-63050000D01*
X57239100Y-74981800D02*
X58981800Y-74981800D01*
X72000000Y-54000000D02*
X72000000Y-55413700D01*
X79877100Y-63655800D02*
X79877100Y-64600800D01*
X78862500Y-63050000D02*
X77086800Y-61274300D01*
X79211700Y-64600800D02*
X78862500Y-64950000D01*
X76050000Y-59000000D02*
X76050000Y-60237400D01*
X79271300Y-63050000D02*
X79877100Y-63655800D01*
X76050000Y-60237400D02*
X77086800Y-61274200D01*
X91500000Y-84500000D02*
X92327400Y-84500000D01*
%TO.N,USB_5V*%
X64484200Y-73762800D02*
X64237200Y-73762800D01*
X64237200Y-73762800D02*
X63000000Y-75000000D01*
X77306800Y-67822000D02*
X76315500Y-67822000D01*
X77450000Y-83155000D02*
X77450000Y-81916600D01*
X76315500Y-67822000D02*
X76137500Y-68000000D01*
X77450000Y-81916600D02*
X77448900Y-81915500D01*
X72550000Y-81914600D02*
X72550000Y-83155000D01*
%TO.N,RH_OUT*%
X100600000Y-46775000D02*
X99825000Y-46000000D01*
X98267800Y-45224000D02*
X98283600Y-45208200D01*
X102000000Y-46775000D02*
X100600000Y-46775000D01*
X99801100Y-45976100D02*
X99825000Y-46000000D01*
X99643900Y-45976100D02*
X99801100Y-45976100D01*
X98876000Y-45208200D02*
X99643900Y-45976100D01*
X96722300Y-45224000D02*
X98267800Y-45224000D01*
X96722300Y-45268100D02*
X96722300Y-45224000D01*
X98283600Y-45208200D02*
X98876000Y-45208200D01*
%TO.N,BUS_LED*%
X63750000Y-27655000D02*
X64776700Y-27655000D01*
X65004100Y-27882400D02*
X64776700Y-27655000D01*
X98435700Y-39260700D02*
X99175000Y-40000000D01*
%TO.N,BUS_LED_R*%
X103212500Y-40000000D02*
X100825000Y-40000000D01*
%TO.N,USB_CC1*%
X73750000Y-83155000D02*
X73750000Y-84382000D01*
X68736700Y-68561700D02*
X68000000Y-67825000D01*
%TO.N,SW*%
X53004300Y-62867400D02*
X52776700Y-63095000D01*
X55176100Y-64662900D02*
X54823600Y-64310400D01*
X54775000Y-61096700D02*
X54775000Y-58000000D01*
X54447300Y-64310400D02*
X53004300Y-62867400D01*
X54823600Y-64310400D02*
X54447300Y-64310400D01*
X55176100Y-65000000D02*
X55176100Y-64662900D01*
X53004300Y-62867400D02*
X54775000Y-61096700D01*
X51700000Y-63095000D02*
X52776700Y-63095000D01*
X56850000Y-65000000D02*
X55176100Y-65000000D01*
%TO.N,5V_BUCK*%
X69525000Y-59000000D02*
X74525000Y-54000000D01*
X50235400Y-55939600D02*
X50000000Y-56175000D01*
X63349900Y-64851600D02*
X63498300Y-65000000D01*
X65150000Y-65000000D02*
X63498300Y-65000000D01*
X67801700Y-64000000D02*
X66801700Y-65000000D01*
X65150000Y-65000000D02*
X66801700Y-65000000D01*
X69525000Y-64000000D02*
X67801700Y-64000000D01*
X69525000Y-64000000D02*
X69525000Y-59000000D01*
X50998800Y-55939600D02*
X50235400Y-55939600D01*
X54175000Y-73000000D02*
X54175000Y-72010800D01*
X63297900Y-64851600D02*
X63349900Y-64851600D01*
X74525000Y-54000000D02*
X76000000Y-54000000D01*
%TO.N,RS485_B*%
X122912800Y-58910800D02*
X122279200Y-58910800D01*
X122000000Y-59190000D02*
X109825000Y-59190000D01*
X122279200Y-58910800D02*
X122000000Y-59190000D01*
X109825000Y-59190000D02*
X109650000Y-59365000D01*
%TO.N,24V_PROT*%
X39425000Y-69425000D02*
X37923800Y-67923700D01*
X90175000Y-40212500D02*
X90175000Y-40000000D01*
X92769000Y-42806400D02*
X92197300Y-42234700D01*
X37923800Y-67923700D02*
X36000000Y-66000000D01*
X40970600Y-53001600D02*
X40970600Y-54348800D01*
X92197300Y-42234700D02*
X92197200Y-42234700D01*
X91708800Y-41746200D02*
X90175000Y-40212500D01*
X46300000Y-65635000D02*
X46300000Y-64365000D01*
X89468700Y-44856600D02*
X89265000Y-45060300D01*
X44578500Y-66304800D02*
X45248300Y-65635000D01*
X38000000Y-70850000D02*
X39425000Y-69425000D01*
X93137500Y-42806400D02*
X92769000Y-42806400D01*
X93137500Y-42806400D02*
X93137500Y-45050000D01*
X39525000Y-54348800D02*
X40970600Y-54348800D01*
X92197200Y-42234700D02*
X91708800Y-41746200D01*
X93225000Y-42718900D02*
X93137500Y-42806400D01*
X46300000Y-65635000D02*
X45248300Y-65635000D01*
X42545200Y-66304800D02*
X44093000Y-66304800D01*
X39525000Y-56000000D02*
X39525000Y-54348800D01*
X39425000Y-69425000D02*
X42545200Y-66304800D01*
X93225000Y-42000000D02*
X93225000Y-42718900D01*
X91708800Y-41746200D02*
X89468700Y-43986300D01*
X40970600Y-53000000D02*
X40970600Y-53001600D01*
X44093000Y-66304800D02*
X44578500Y-66304800D01*
X89468700Y-43986300D02*
X89468700Y-44856600D01*
X89265000Y-45060300D02*
X89265000Y-45950900D01*
X40970600Y-53000000D02*
X44050000Y-53000000D01*
%TO.N,PWR_GOOD*%
X46300000Y-66905000D02*
X45223300Y-66905000D01*
X50000000Y-58731700D02*
X50000000Y-57825000D01*
X45223300Y-66905000D02*
X45022700Y-66905000D01*
%TO.N,BUCK_FB*%
X55794900Y-74380100D02*
X55634500Y-74380100D01*
X55825000Y-73000000D02*
X55825000Y-69951000D01*
X55634500Y-74380100D02*
X55281900Y-74732700D01*
X51700000Y-66905000D02*
X52776700Y-66905000D01*
X55825000Y-74350000D02*
X55794900Y-74380100D01*
X55825000Y-69951000D02*
X52977300Y-67103300D01*
X52975000Y-67103300D02*
X52776700Y-66905000D01*
X55281900Y-74732700D02*
X55281900Y-74893100D01*
X55825000Y-73000000D02*
X55825000Y-74350000D01*
X52977300Y-67103300D02*
X52975000Y-67103300D01*
X55281900Y-74893100D02*
X54175000Y-76000000D01*
%TO.N,VCC_BYP*%
X53421500Y-66304800D02*
X52751700Y-65635000D01*
X46967900Y-71082100D02*
X46050000Y-72000000D01*
X51700000Y-65635000D02*
X52751700Y-65635000D01*
X53831900Y-66304800D02*
X53421500Y-66304800D01*
%TO.N,BOOT*%
X52461000Y-58764000D02*
X53225000Y-58000000D01*
X52981900Y-64570200D02*
X52776700Y-64365000D01*
X51700000Y-64365000D02*
X52776700Y-64365000D01*
%TO.N,STATUS_LED*%
X46250000Y-28925000D02*
X47301700Y-28925000D01*
X76441400Y-39266400D02*
X76439800Y-39266400D01*
X77175000Y-40000000D02*
X76441400Y-39266400D01*
X47301700Y-28925000D02*
X48294200Y-28925000D01*
%TO.N,STATUS_LED_R*%
X81212500Y-40000000D02*
X78825000Y-40000000D01*
%TO.N,C6_EN*%
X68300000Y-43000000D02*
X65825000Y-43000000D01*
X46250000Y-20035000D02*
X47276700Y-20035000D01*
X65825000Y-43000000D02*
X64625600Y-44199400D01*
X64225000Y-44308500D02*
X64334100Y-44199400D01*
X64625600Y-44199400D02*
X64334100Y-44199400D01*
X64225000Y-46000000D02*
X64225000Y-44308500D01*
X47276700Y-20035000D02*
X47504100Y-20035000D01*
%TO.N,AIN_0_10_RAW*%
X123961400Y-71213600D02*
X123175000Y-72000000D01*
X127000000Y-73950000D02*
X127000000Y-72951400D01*
X128050000Y-75000000D02*
X127000000Y-73950000D01*
X127000000Y-72951400D02*
X125262200Y-71213600D01*
X135000000Y-75000000D02*
X128050000Y-75000000D01*
X125262200Y-71213600D02*
X123961400Y-71213600D01*
%TO.N,DAC_RAW*%
X89492500Y-47029200D02*
X89665400Y-47029200D01*
X82474000Y-44438500D02*
X86901800Y-44438500D01*
X89665400Y-47029200D02*
X90783300Y-47029200D01*
X86901800Y-44438500D02*
X89492500Y-47029200D01*
X81862500Y-45050000D02*
X82474000Y-44438500D01*
X90783300Y-47029200D02*
X90862500Y-46950000D01*
%TO.N,I2C_SDA*%
X84137500Y-46950000D02*
X84219400Y-47031900D01*
X73300000Y-19600000D02*
X71800000Y-18800000D01*
X84219400Y-47031900D02*
X85304400Y-47031900D01*
X47276700Y-23845000D02*
X47504100Y-23845000D01*
X71000000Y-18000000D02*
X71800000Y-18800000D01*
X46250000Y-23845000D02*
X47276700Y-23845000D01*
X69825000Y-18000000D02*
X71000000Y-18000000D01*
X86500000Y-84500000D02*
X86500000Y-83221900D01*
%TO.N,I2C_SCL*%
X47571700Y-25410000D02*
X47927400Y-25410000D01*
X87500000Y-84500000D02*
X87500000Y-83220300D01*
X46250000Y-25115000D02*
X47276700Y-25115000D01*
X47276700Y-25115000D02*
X47571700Y-25410000D01*
X73300000Y-20400000D02*
X71800000Y-21200000D01*
X85448600Y-46036900D02*
X85448600Y-46037000D01*
X69825000Y-21000000D02*
X71600000Y-21000000D01*
X84174400Y-46036900D02*
X85448600Y-46036900D01*
X71600000Y-21000000D02*
X71800000Y-21200000D01*
X84137500Y-46000000D02*
X84174400Y-46036900D01*
%TO.N,EXP_GPIO4*%
X46250000Y-21305000D02*
X47276700Y-21305000D01*
X47276700Y-21305000D02*
X47504600Y-21305000D01*
X89500000Y-84500000D02*
X89500000Y-83212600D01*
%TO.N,EXP_GPIO5*%
X47276700Y-22575000D02*
X47504100Y-22575000D01*
X90500000Y-84500000D02*
X90500000Y-83210100D01*
X46250000Y-22575000D02*
X47276700Y-22575000D01*
%TO.N,USB_D-*%
X75250000Y-83931100D02*
X75091000Y-84090100D01*
X74981100Y-84200000D02*
X74499600Y-84200000D01*
X46250000Y-32735000D02*
X47276700Y-32735000D01*
X73862500Y-67050000D02*
X72685900Y-67050000D01*
X74250000Y-83950400D02*
X74250000Y-83155000D01*
X75091000Y-84090100D02*
X74981100Y-84200000D01*
X74499600Y-84200000D02*
X74250000Y-83950400D01*
X47276700Y-32735000D02*
X47502900Y-32735000D01*
X75250000Y-83155000D02*
X75250000Y-83931100D01*
X75091000Y-84090100D02*
X75386100Y-84385200D01*
X76137500Y-67050000D02*
X73862500Y-67050000D01*
%TO.N,USB_D+*%
X73862500Y-69758700D02*
X73862500Y-68950000D01*
X46250000Y-34005000D02*
X45198300Y-34005000D01*
X75750000Y-81921800D02*
X75750000Y-83155000D01*
X45198300Y-34005000D02*
X44984100Y-34005000D01*
X74750000Y-83155000D02*
X74750000Y-81938500D01*
X74750000Y-81938500D02*
X74766700Y-81921800D01*
X76137500Y-68950000D02*
X73862500Y-68950000D01*
%TO.N,CONTACT1*%
X65004100Y-32507600D02*
X64776700Y-32735000D01*
X109825000Y-28000000D02*
X112825000Y-25000000D01*
X109825000Y-29600000D02*
X109825000Y-28000000D01*
X63750000Y-32735000D02*
X64776700Y-32735000D01*
X111225000Y-31000000D02*
X109825000Y-29600000D01*
%TO.N,SERVICE_BUTTON*%
X105548300Y-85000000D02*
X103825000Y-85000000D01*
X64776700Y-30195000D02*
X65004100Y-30195000D01*
X63750000Y-30195000D02*
X64776700Y-30195000D01*
X106300000Y-85000000D02*
X105548300Y-85000000D01*
X105332200Y-85054600D02*
X105493700Y-85054600D01*
X105493700Y-85054600D02*
X105548300Y-85000000D01*
%TO.N,ONEWIRE*%
X63750000Y-26385000D02*
X64801700Y-26385000D01*
X88500000Y-84500000D02*
X88500000Y-83220500D01*
X86922100Y-25747100D02*
X86175000Y-25000000D01*
X64949200Y-26237500D02*
X65032100Y-26237500D01*
X64801700Y-26385000D02*
X64949200Y-26237500D01*
%TO.N,RS485_RX*%
X63750000Y-22575000D02*
X64776700Y-22575000D01*
X98980200Y-57425800D02*
X99680800Y-57425800D01*
X99680800Y-57425800D02*
X100350000Y-58095000D01*
X64776700Y-22575000D02*
X65004100Y-22575000D01*
%TO.N,RS485_TX*%
X63750000Y-21305000D02*
X64776700Y-21305000D01*
X100350000Y-61905000D02*
X100325000Y-61880000D01*
X100325000Y-61880000D02*
X98810100Y-61880000D01*
X64776700Y-21305000D02*
X65004100Y-21305000D01*
%TO.N,RS485_DE*%
X62723300Y-18765000D02*
X62495900Y-18765000D01*
X98786900Y-59005300D02*
X99990300Y-59005300D01*
X99990300Y-59005300D02*
X100350000Y-59365000D01*
X63750000Y-18765000D02*
X62723300Y-18765000D01*
X100350000Y-59365000D02*
X100350000Y-60635000D01*
%TO.N,RS485_COM*%
X111048200Y-57580400D02*
X111048200Y-57494200D01*
X111532700Y-58064900D02*
X111048200Y-57580400D01*
X114988500Y-53917500D02*
X114032500Y-53917500D01*
X113950000Y-57000000D02*
X112885100Y-58064900D01*
X114032500Y-53917500D02*
X113950000Y-54000000D01*
X109650000Y-64445000D02*
X110475200Y-65270200D01*
X110319200Y-57494200D02*
X109650000Y-56825000D01*
X112885100Y-58064900D02*
X111532700Y-58064900D01*
X113950000Y-57000000D02*
X113950000Y-54000000D01*
X109650000Y-63175000D02*
X109650000Y-64445000D01*
X111048200Y-57494200D02*
X110319200Y-57494200D01*
%TO.N,VISO*%
X109650000Y-55555000D02*
X110495000Y-55555000D01*
X110495000Y-55555000D02*
X112050000Y-54000000D01*
X111988900Y-56938900D02*
X111988900Y-56224200D01*
X112050000Y-57000000D02*
X111988900Y-56938900D01*
X111988900Y-56224200D02*
X110319200Y-56224200D01*
X110319200Y-56224200D02*
X109650000Y-55555000D01*
%TO.N,PWR24_LED_R*%
X94212500Y-40000000D02*
X91825000Y-40000000D01*
%TO.N,24V_RAW*%
X25785900Y-64923400D02*
X26862500Y-66000000D01*
%TO.N,24V_FUSED*%
X38627500Y-64627500D02*
X40000000Y-66000000D01*
X32215500Y-65502300D02*
X31635200Y-65502300D01*
X31635200Y-65502300D02*
X31137500Y-66000000D01*
%TO.N,USB_CC2*%
X71234500Y-68559500D02*
X70500000Y-67825000D01*
X76750000Y-81465000D02*
X76750000Y-83155000D01*
%TD*%
M02*
