M48
; DRILL file KiCad 10.0.5 date 2026-08-07T23:42:27
; FORMAT={-:-/ absolute / metric / decimal}
; #@! TF.CreationDate,2026-08-07T23:42:27+02:00
; #@! TF.GenerationSoftware,Kicad,Pcbnew,10.0.5
; #@! TF.FileFunction,Plated,1,4,PTH
FMAT,2
METRIC
; #@! TA.AperFunction,Plated,PTH,ViaDrill
T1C0.300
; #@! TA.AperFunction,Plated,PTH,ComponentDrill
T2C0.300
; #@! TA.AperFunction,Plated,PTH,ViaDrill
T3C0.400
; #@! TA.AperFunction,Plated,PTH,ComponentDrill
T4C0.600
; #@! TA.AperFunction,Plated,PTH,ComponentDrill
T5C0.750
; #@! TA.AperFunction,Plated,PTH,ComponentDrill
T6C1.300
; #@! TA.AperFunction,Plated,PTH,ComponentDrill
T7C2.000
%
G90
G05
T1
X25.776Y-64.914
X26.53Y-106.26
X27.0Y-34.77
X27.975Y-106.276
X29.471Y-94.227
X32.215Y-65.502
X32.328Y-106.05
X36.333Y-76.208
X37.756Y-67.756
X38.549Y-101.741
X38.642Y-64.642
X39.335Y-103.062
X40.962Y-92.731
X40.971Y-53.0
X41.843Y-99.971
X42.455Y-101.137
X44.28Y-55.579
X44.992Y-34.005
X45.012Y-67.116
X46.757Y-102.791
X46.91Y-71.033
X46.973Y-91.618
X47.456Y-101.5
X47.502Y-25.115
X47.502Y-32.735
X47.504Y-18.765
X47.506Y-20.035
X47.506Y-21.305
X47.51Y-26.177
X47.512Y-22.575
X47.514Y-17.707
X47.549Y-29.055
X48.253Y-24.274
X49.277Y-58.579
X50.873Y-55.579
X52.977Y-64.365
X52.979Y-66.905
X53.003Y-65.886
X53.225Y-58.979
X53.388Y-37.233
X54.175Y-72.012
X55.103Y-72.234
X56.561Y-76.736
X57.146Y-91.596
X60.361Y-73.639
X61.146Y-91.596
X61.838Y-102.529
X62.496Y-18.765
X63.434Y-43.741
X63.83Y-98.98
X65.002Y-21.305
X65.004Y-17.722
X65.004Y-22.802
X65.004Y-27.655
X65.004Y-32.508
X65.01Y-26.177
X65.029Y-30.195
X65.032Y-31.312
X65.338Y-34.005
X65.825Y-42.02
X67.41Y-18.719
X68.773Y-68.525
X70.562Y-75.0
X71.478Y-67.825
X72.686Y-66.665
X73.194Y-104.446
X73.305Y-101.92
X73.362Y-52.638
X73.862Y-69.788
X74.346Y-43.0
X74.638Y-55.362
X74.852Y-101.917
X74.951Y-36.802
X75.75Y-101.917
X76.42Y-39.245
X76.72Y-61.473
X76.75Y-101.899
X79.439Y-101.9
X80.496Y-45.948
X81.138Y-62.226
X82.672Y-44.241
X83.697Y-103.697
X84.138Y-47.755
X85.305Y-46.331
X85.437Y-25.738
X86.5Y-103.01
X87.5Y-105.792
X88.699Y-102.824
X89.439Y-39.264
X89.5Y-103.197
X89.696Y-46.737
X90.436Y-24.261
X90.5Y-103.212
X90.798Y-102.079
X91.953Y-51.013
X92.303Y-103.697
X94.669Y-48.666
X95.468Y-24.289
X96.109Y-51.493
X98.112Y-55.024
X98.467Y-59.363
X98.494Y-39.196
X98.86Y-58.554
X99.011Y-61.273
X99.09Y-45.264
X101.543Y-104.123
X101.879Y-64.42
X101.914Y-55.579
X103.079Y-25.842
X107.426Y-27.251
X107.554Y-24.396
X110.47Y-31.755
X110.668Y-104.053
X111.202Y-64.42
X111.914Y-24.261
X113.145Y-62.201
X113.535Y-30.24
X113.714Y-58.247
X114.237Y-75.776
X117.774Y-74.837
X118.991Y-73.216
X120.484Y-99.785
X122.437Y-25.738
X122.903Y-59.19
X123.225Y-29.055
X126.175Y-27.015
X126.95Y-28.825
X126.979Y-99.785
X127.585Y-75.428
X128.446Y-24.396
T2
X48.4Y-63.2
X48.4Y-64.4
X48.4Y-65.7
X48.4Y-66.8
X49.6Y-63.2
X49.6Y-64.4
X49.6Y-65.7
X49.6Y-66.8
X53.9Y-24.905
X53.9Y-26.005
X53.9Y-27.105
X55.0Y-24.905
X55.0Y-26.005
X55.0Y-27.105
X56.1Y-24.905
X56.1Y-26.005
X56.1Y-27.105
T3
X70.6Y-18.4
X70.6Y-21.6
X77.4Y-18.4
X77.4Y-21.6
T5
X27.0Y-46.0
X28.27Y-46.0
X29.54Y-46.0
T6
X16.0Y-51.0
X16.0Y-56.0
X16.0Y-61.0
X16.0Y-66.0
X84.0Y-15.0
X89.0Y-15.0
X94.0Y-15.0
X104.0Y-15.0
X109.0Y-15.0
X114.0Y-15.0
X126.0Y-15.0
X131.0Y-15.0
X135.0Y-33.0
X135.0Y-38.0
X135.0Y-43.0
X135.0Y-48.0
X135.0Y-70.0
X135.0Y-75.0
X136.0Y-15.0
T7
X22.0Y-38.0
X30.0Y-38.0
X38.0Y-38.0
X46.0Y-39.0
X54.0Y-40.0
X55.0Y-104.0
X62.0Y-40.0
X70.0Y-38.0
X83.0Y-35.0
X86.0Y-31.0
X91.0Y-35.0
X94.0Y-31.0
X102.0Y-31.0
T4
X70.68Y-103.52G85X70.68Y-104.62
G05
X70.68Y-107.95G85X70.68Y-108.55
G05
X79.32Y-103.52G85X79.32Y-104.62
G05
X79.32Y-107.95G85X79.32Y-108.55
G05
M30
