%TF.GenerationSoftware,KiCad,Pcbnew,10.0.5*%
%TF.CreationDate,2026-08-07T23:42:27+02:00*%
%TF.ProjectId,IDM-RoomSensor-ESP-B-ES4-AIR,49444d2d-526f-46f6-9d53-656e736f722d,rev?*%
%TF.SameCoordinates,Original*%
%TF.FileFunction,Copper,L3,Inr*%
%TF.FilePolarity,Positive*%
%FSLAX46Y46*%
G04 Gerber Fmt 4.6, Leading zero omitted, Abs format (unit mm)*
G04 Created by KiCad (PCBNEW 10.0.5) date 2026-08-07 23:42:27*
%MOMM*%
%LPD*%
G01*
G04 APERTURE LIST*
G04 Aperture macros list*
%AMRoundRect*
0 Rectangle with rounded corners*
0 $1 Rounding radius*
0 $2 $3 $4 $5 $6 $7 $8 $9 X,Y pos of 4 corners*
0 Add a 4 corners polygon primitive as box body*
4,1,4,$2,$3,$4,$5,$6,$7,$8,$9,$2,$3,0*
0 Add four circle primitives for the rounded corners*
1,1,$1+$1,$2,$3*
1,1,$1+$1,$4,$5*
1,1,$1+$1,$6,$7*
1,1,$1+$1,$8,$9*
0 Add four rect primitives between the rounded corners*
20,1,$1+$1,$2,$3,$4,$5,0*
20,1,$1+$1,$4,$5,$6,$7,0*
20,1,$1+$1,$6,$7,$8,$9,0*
20,1,$1+$1,$8,$9,$2,$3,0*%
G04 Aperture macros list end*
%TA.AperFunction,ComponentPad*%
%ADD10C,3.000000*%
%TD*%
%TA.AperFunction,ComponentPad*%
%ADD11R,1.050000X1.500000*%
%TD*%
%TA.AperFunction,ComponentPad*%
%ADD12O,1.050000X1.500000*%
%TD*%
%TA.AperFunction,ComponentPad*%
%ADD13C,0.600000*%
%TD*%
%TA.AperFunction,ComponentPad*%
%ADD14RoundRect,0.250001X1.149999X-1.149999X1.149999X1.149999X-1.149999X1.149999X-1.149999X-1.149999X0*%
%TD*%
%TA.AperFunction,ComponentPad*%
%ADD15C,2.800000*%
%TD*%
%TA.AperFunction,ComponentPad*%
%ADD16RoundRect,0.250001X-1.149999X-1.149999X1.149999X-1.149999X1.149999X1.149999X-1.149999X1.149999X0*%
%TD*%
%TA.AperFunction,ComponentPad*%
%ADD17O,1.000000X2.100000*%
%TD*%
%TA.AperFunction,ComponentPad*%
%ADD18O,1.000000X1.600000*%
%TD*%
%TA.AperFunction,ViaPad*%
%ADD19C,0.600000*%
%TD*%
%TA.AperFunction,ViaPad*%
%ADD20C,0.800000*%
%TD*%
%TA.AperFunction,Conductor*%
%ADD21C,0.200000*%
%TD*%
G04 APERTURE END LIST*
D10*
%TO.N,AIR_3V3*%
%TO.C,TP13*%
X55000000Y-104000000D03*
%TD*%
D11*
%TO.N,TEMP_KTY*%
%TO.C,RTH1*%
X27000000Y-46000000D03*
D12*
%TO.N,GND*%
X28270000Y-46000000D03*
%TO.N,N/C*%
X29540000Y-46000000D03*
%TD*%
D13*
%TO.N,GND*%
%TO.C,U1*%
X48400000Y-63200000D03*
X48400000Y-64400000D03*
X48400000Y-65700000D03*
X48400000Y-66800000D03*
X49600000Y-63200000D03*
X49600000Y-64400000D03*
X49600000Y-65700000D03*
X49600000Y-66800000D03*
%TD*%
D10*
%TO.N,I2C_SCL*%
%TO.C,TP6*%
X62000000Y-40000000D03*
%TD*%
%TO.N,RH_OUT*%
%TO.C,TP7*%
X70000000Y-38000000D03*
%TD*%
D14*
%TO.N,AIN_0_10_RAW*%
%TO.C,J8*%
X135000000Y-75000000D03*
D15*
%TO.N,GND*%
X135000000Y-70000000D03*
%TD*%
D10*
%TO.N,GND*%
%TO.C,TP12*%
X91000000Y-35000000D03*
%TD*%
%TO.N,+3V3*%
%TO.C,TP4*%
X46000000Y-39000000D03*
%TD*%
%TO.N,I2C_SDA*%
%TO.C,TP5*%
X54000000Y-40000000D03*
%TD*%
%TO.N,24V_PROT*%
%TO.C,TP2*%
X30000000Y-38000000D03*
%TD*%
D13*
%TO.N,GND*%
%TO.C,U3*%
X53900000Y-24905000D03*
X53900000Y-26005000D03*
X53900000Y-27105000D03*
X55000000Y-24905000D03*
X55000000Y-26005000D03*
X55000000Y-27105000D03*
X56100000Y-24905000D03*
X56100000Y-26005000D03*
X56100000Y-27105000D03*
%TD*%
D10*
%TO.N,RS485_COM*%
%TO.C,TP11*%
X102000000Y-31000000D03*
%TD*%
D16*
%TO.N,CONTACT1_EXT*%
%TO.C,J7*%
X126000000Y-15000000D03*
D15*
%TO.N,GND*%
X131000000Y-15000000D03*
%TO.N,CONTACT2_EXT*%
X136000000Y-15000000D03*
%TD*%
D14*
%TO.N,RS485_A*%
%TO.C,J2*%
X135000000Y-48000000D03*
D15*
%TO.N,RS485_B*%
X135000000Y-43000000D03*
%TO.N,RS485_COM*%
X135000000Y-38000000D03*
%TO.N,RS485_SHIELD*%
X135000000Y-33000000D03*
%TD*%
D10*
%TO.N,RS485_B*%
%TO.C,TP10*%
X94000000Y-31000000D03*
%TD*%
%TO.N,SYS_5V*%
%TO.C,TP3*%
X38000000Y-38000000D03*
%TD*%
%TO.N,24V_RAW*%
%TO.C,TP1*%
X22000000Y-38000000D03*
%TD*%
D16*
%TO.N,+3V3*%
%TO.C,J5*%
X84000000Y-15000000D03*
D15*
%TO.N,ONEWIRE_EXT*%
X89000000Y-15000000D03*
%TO.N,GND*%
X94000000Y-15000000D03*
%TD*%
D10*
%TO.N,RS485_A*%
%TO.C,TP9*%
X86000000Y-31000000D03*
%TD*%
D17*
%TO.N,GND*%
%TO.C,J3*%
X70680000Y-104070000D03*
D18*
X70680000Y-108250000D03*
D17*
X79320000Y-104070000D03*
D18*
X79320000Y-108250000D03*
%TD*%
D14*
%TO.N,TEMP_KTY*%
%TO.C,J1*%
X16000000Y-66000000D03*
D15*
%TO.N,24V_RAW*%
X16000000Y-61000000D03*
%TO.N,GND*%
X16000000Y-56000000D03*
%TO.N,RH_OUT*%
X16000000Y-51000000D03*
%TD*%
D10*
%TO.N,TEMP_KTY*%
%TO.C,TP8*%
X83000000Y-35000000D03*
%TD*%
D16*
%TO.N,+3V3*%
%TO.C,J6*%
X104000000Y-15000000D03*
D15*
%TO.N,ONEWIRE_EXT*%
X109000000Y-15000000D03*
%TO.N,GND*%
X114000000Y-15000000D03*
%TD*%
D19*
%TO.N,24V_PROT*%
X89439000Y-39264000D03*
X37755700Y-67755600D03*
X40970600Y-53000000D03*
%TO.N,GND*%
X96108600Y-51493200D03*
X56561200Y-76736200D03*
X36332900Y-76208300D03*
X126950000Y-28825000D03*
X101879000Y-64419900D03*
X65004100Y-17722400D03*
X107553600Y-24396400D03*
X47514100Y-17707400D03*
X80496100Y-45947700D03*
X38549500Y-101741300D03*
X26530100Y-106260300D03*
X118990600Y-73215600D03*
X113534900Y-30240100D03*
X44280100Y-55578600D03*
X126979300Y-99785100D03*
X63829700Y-98980500D03*
X110667900Y-104053300D03*
X127584900Y-75427600D03*
X95467500Y-24288700D03*
X40962300Y-92731000D03*
X98112000Y-55023600D03*
D20*
X77400000Y-18400000D03*
D19*
%TO.N,C6_EN*%
X47505700Y-20035000D03*
X65825000Y-42019700D03*
%TO.N,+3V3*%
X81137500Y-62226500D03*
X114236700Y-75775800D03*
X63434200Y-43740800D03*
X101543000Y-104122600D03*
X67409800Y-18718700D03*
D20*
X77400000Y-21600000D03*
D19*
X107425800Y-27250800D03*
X47504100Y-18765000D03*
X101913800Y-55578600D03*
X90435700Y-24260700D03*
X83697200Y-103697200D03*
X126175000Y-27015000D03*
%TO.N,I2C_SDA*%
X86500000Y-103010400D03*
X84137500Y-47754700D03*
D20*
X70600000Y-18400000D03*
D19*
X48252700Y-24274000D03*
X47456500Y-101500000D03*
X39335400Y-103062100D03*
D20*
%TO.N,I2C_SCL*%
X70600000Y-21600000D03*
D19*
X47501700Y-25115000D03*
X41842800Y-99971500D03*
X87500000Y-105792000D03*
X46757400Y-102790600D03*
X85305500Y-46330700D03*
X32328100Y-106050200D03*
%TO.N,ONEWIRE*%
X88699000Y-102823600D03*
X85437300Y-25737700D03*
X65009800Y-26176900D03*
%TO.N,EXP_GPIO4*%
X89500000Y-103197300D03*
X47505700Y-21305000D03*
%TO.N,EXP_GPIO5*%
X90500000Y-103212500D03*
X47511900Y-22575000D03*
%TO.N,SYS_5V*%
X120484500Y-99785100D03*
X73361700Y-52638300D03*
X57146300Y-91596300D03*
X92303200Y-103696800D03*
X76719700Y-61472800D03*
X61838500Y-102529300D03*
X60360900Y-73639100D03*
%TO.N,CONTACT2*%
X123225000Y-29054700D03*
X65031600Y-31312200D03*
%TO.N,AIR_3V3*%
X61146300Y-91596300D03*
X27974800Y-106276500D03*
X42455400Y-101137000D03*
X46972700Y-91618100D03*
X29470800Y-94227500D03*
%TO.N,TEMP_KTY*%
X27000000Y-34769900D03*
%TO.N,DAC_RAW*%
X82671800Y-44240700D03*
X89696100Y-46737300D03*
%TO.N,OPAMP_FB*%
X91953500Y-51012600D03*
X94669300Y-48665900D03*
%TO.N,5V_BUCK*%
X50872700Y-55578600D03*
X54175000Y-72011600D03*
X74638400Y-55361600D03*
%TO.N,BUCK_FB*%
X52978800Y-66905000D03*
X55103000Y-72234100D03*
%TO.N,PWR_GOOD*%
X45012100Y-67116200D03*
X49277200Y-58578900D03*
%TO.N,VCC_BYP*%
X53002900Y-65886200D03*
X46910500Y-71032700D03*
%TO.N,BOOT*%
X52977300Y-64365000D03*
X53225000Y-58978600D03*
%TO.N,RH_OUT*%
X99089500Y-45264500D03*
%TO.N,RS485_COM*%
X111201700Y-64419900D03*
X113714400Y-58247500D03*
%TO.N,RS485_B*%
X122902900Y-59190000D03*
%TO.N,USB_5V*%
X73193800Y-104446000D03*
X70561600Y-75000000D03*
%TO.N,USB_CC1*%
X73305300Y-101919900D03*
X68772600Y-68525100D03*
%TO.N,24V_FUSED*%
X38642100Y-64642100D03*
X32215500Y-65502300D03*
%TO.N,ADC_0_10*%
X47509800Y-26176900D03*
X103079200Y-25842400D03*
X117774100Y-74836600D03*
%TO.N,CONTACT1*%
X65004100Y-32507600D03*
X110470300Y-31754700D03*
%TO.N,RS485_RX*%
X65004100Y-22802400D03*
X98859700Y-58553900D03*
%TO.N,RS485_DE*%
X62495900Y-18765000D03*
X98467200Y-59363400D03*
%TO.N,RS485_TX*%
X99011400Y-61272600D03*
X65002500Y-21305000D03*
%TO.N,RS485_A*%
X113145200Y-62201000D03*
%TO.N,STATUS_LED*%
X76420000Y-39245000D03*
X47549500Y-29054700D03*
X53388100Y-37233100D03*
%TO.N,USB_D-*%
X72686400Y-66665200D03*
X79438900Y-101900300D03*
X47502500Y-32735000D03*
%TO.N,USB_D+*%
X73862500Y-69788200D03*
X75750000Y-101917500D03*
X74851800Y-101917500D03*
X44991800Y-34005000D03*
%TO.N,C6_BOOT*%
X74346400Y-43000000D03*
X65337800Y-34005000D03*
%TO.N,SERVICE_BUTTON*%
X90798500Y-102078600D03*
X65028700Y-30195000D03*
%TO.N,BUS_LED*%
X98493900Y-39196400D03*
X65004100Y-27655000D03*
X74950800Y-36801700D03*
%TO.N,24V_RAW*%
X25776200Y-64913700D03*
%TO.N,CONTACT2_EXT*%
X122437300Y-25737700D03*
X128446400Y-24396400D03*
%TO.N,CONTACT1_EXT*%
X111914300Y-24260700D03*
%TO.N,USB_CC2*%
X76750000Y-101898900D03*
X71477600Y-67825000D03*
%TD*%
%TO.N,24V_PROT*%
D21*
X87749900Y-37574900D02*
X74873200Y-37574900D01*
X73042600Y-35744300D02*
X32255700Y-35744300D01*
X89439000Y-39264000D02*
X87749900Y-37574900D01*
X74873200Y-37574900D02*
X73042600Y-35744300D01*
X32255700Y-35744300D02*
X30000000Y-38000000D01*
%TO.N,GND*%
X31049100Y-101741300D02*
X38549500Y-101741300D01*
X95575200Y-24396400D02*
X95467500Y-24288700D01*
X65087300Y-17639200D02*
X76639200Y-17639200D01*
X49600000Y-64400000D02*
X48400000Y-64400000D01*
X83814500Y-49266100D02*
X93881500Y-49266100D01*
X79320000Y-105421700D02*
X79652100Y-105421700D01*
X28270000Y-47051700D02*
X36796900Y-55578600D01*
X76639200Y-17639200D02*
X77400000Y-18400000D01*
X55000000Y-27105000D02*
X53900000Y-27105000D01*
X64989100Y-17707400D02*
X65004100Y-17722400D01*
X121202600Y-75427600D02*
X127584900Y-75427600D01*
X28270000Y-46000000D02*
X28270000Y-47051700D01*
X47514100Y-17707400D02*
X64989100Y-17707400D01*
X80339400Y-104734400D02*
X109986800Y-104734400D01*
X118990600Y-73215600D02*
X110194900Y-64419900D01*
X110667900Y-104053300D02*
X122711100Y-104053300D01*
X94000000Y-15000000D02*
X90600000Y-18400000D01*
X90600000Y-18400000D02*
X77400000Y-18400000D01*
X49600000Y-63200000D02*
X48400000Y-63200000D01*
X80496100Y-45947700D02*
X83814500Y-49266100D01*
X70680000Y-108250000D02*
X70680000Y-107148300D01*
X55000000Y-24905000D02*
X53900000Y-24905000D01*
X79320000Y-108250000D02*
X79320000Y-107148300D01*
X36796900Y-55578600D02*
X44280100Y-55578600D01*
X110194900Y-64419900D02*
X101879000Y-64419900D01*
X93881500Y-49266100D02*
X96108600Y-51493200D01*
X118990600Y-73215600D02*
X121202600Y-75427600D01*
X125534900Y-30240100D02*
X113534900Y-30240100D01*
X56100000Y-24905000D02*
X55000000Y-24905000D01*
X79320000Y-104070000D02*
X79320000Y-105421700D01*
X24948300Y-47051700D02*
X16000000Y-56000000D01*
X109986800Y-104734400D02*
X110667900Y-104053300D01*
X49600000Y-65700000D02*
X48400000Y-65700000D01*
X65004100Y-17722400D02*
X65087300Y-17639200D01*
X122711100Y-104053300D02*
X126979300Y-99785100D01*
X126950000Y-28825000D02*
X125534900Y-30240100D01*
X55000000Y-26005000D02*
X53900000Y-26005000D01*
X70680000Y-107148300D02*
X79320000Y-107148300D01*
X79652100Y-105421700D02*
X80339400Y-104734400D01*
X26530100Y-106260300D02*
X31049100Y-101741300D01*
X28270000Y-47051700D02*
X24948300Y-47051700D01*
X107553600Y-24396400D02*
X95575200Y-24396400D01*
%TO.N,+3V3*%
X93425800Y-27250800D02*
X90435700Y-24260700D01*
X84315000Y-104315000D02*
X83697200Y-103697200D01*
X81137500Y-62226500D02*
X87738700Y-55625300D01*
X56252800Y-38189800D02*
X61803800Y-43740800D01*
X46810200Y-38189800D02*
X56252800Y-38189800D01*
X101350600Y-104315000D02*
X84315000Y-104315000D01*
X48116300Y-19377200D02*
X66751300Y-19377200D01*
X90435700Y-24260700D02*
X87775000Y-21600000D01*
X61803800Y-43740800D02*
X63434200Y-43740800D01*
X107425800Y-27250800D02*
X93425800Y-27250800D01*
X101867100Y-55625300D02*
X101913800Y-55578600D01*
X125939200Y-27250800D02*
X107425800Y-27250800D01*
X126175000Y-27015000D02*
X125939200Y-27250800D01*
X66751300Y-19377200D02*
X67409800Y-18718700D01*
X46000000Y-39000000D02*
X46810200Y-38189800D01*
X47504100Y-18765000D02*
X48116300Y-19377200D01*
X101543000Y-104122600D02*
X101350600Y-104315000D01*
X87775000Y-21600000D02*
X77400000Y-21600000D01*
X87738700Y-55625300D02*
X101867100Y-55625300D01*
%TO.N,I2C_SDA*%
X69206400Y-19793600D02*
X52733100Y-19793600D01*
X46769300Y-102187200D02*
X47456500Y-101500000D01*
X39901700Y-103062100D02*
X40776600Y-102187200D01*
X39335400Y-103062100D02*
X39901700Y-103062100D01*
X59343000Y-45343000D02*
X54000000Y-40000000D01*
X86500000Y-103010400D02*
X84761000Y-101271400D01*
X47685100Y-101271400D02*
X47456500Y-101500000D01*
X70600000Y-18400000D02*
X69206400Y-19793600D01*
X81725800Y-45343000D02*
X59343000Y-45343000D01*
X84137500Y-47754700D02*
X81725800Y-45343000D01*
X40776600Y-102187200D02*
X46769300Y-102187200D01*
X52733100Y-19793600D02*
X48252700Y-24274000D01*
X84761000Y-101271400D02*
X47685100Y-101271400D01*
%TO.N,I2C_SCL*%
X51229600Y-22052900D02*
X70147100Y-22052900D01*
X66941200Y-44941200D02*
X62000000Y-40000000D01*
X48854400Y-24428100D02*
X51229600Y-22052900D01*
X87466900Y-105825100D02*
X87500000Y-105792000D01*
X85305500Y-46330700D02*
X83916000Y-44941200D01*
X32328100Y-106050200D02*
X46532300Y-106050200D01*
X46757400Y-105825100D02*
X87466900Y-105825100D01*
X47501700Y-25115000D02*
X47741000Y-24875700D01*
X46532300Y-106050200D02*
X46757400Y-105825100D01*
X83916000Y-44941200D02*
X66941200Y-44941200D01*
X46757400Y-105825100D02*
X46757400Y-102790600D01*
X48854400Y-24523200D02*
X48854400Y-24428100D01*
X70147100Y-22052900D02*
X70600000Y-21600000D01*
X48501900Y-24875700D02*
X48854400Y-24523200D01*
X47741000Y-24875700D02*
X48501900Y-24875700D01*
%TO.N,ONEWIRE*%
X65009800Y-26176900D02*
X84998100Y-26176900D01*
X84998100Y-26176900D02*
X85437300Y-25737700D01*
%TO.N,SYS_5V*%
X52638300Y-52638300D02*
X73361700Y-52638300D01*
X92146500Y-103853500D02*
X92303200Y-103696800D01*
X64553400Y-73639100D02*
X60360900Y-73639100D01*
X120484500Y-99785100D02*
X96214900Y-99785100D01*
X86486200Y-103853500D02*
X92146500Y-103853500D01*
X96214900Y-99785100D02*
X92303200Y-103696800D01*
X76719700Y-61472800D02*
X64553400Y-73639100D01*
X38000000Y-38000000D02*
X52638300Y-52638300D01*
X85162000Y-102529300D02*
X86486200Y-103853500D01*
X61838500Y-102529300D02*
X85162000Y-102529300D01*
%TO.N,CONTACT2*%
X123225000Y-29054700D02*
X67289100Y-29054700D01*
X67289100Y-29054700D02*
X65031600Y-31312200D01*
%TO.N,AIR_3V3*%
X61146300Y-91596300D02*
X60532500Y-92210100D01*
X27974800Y-106276500D02*
X31815500Y-102435800D01*
X47564700Y-92210100D02*
X46972700Y-91618100D01*
X31815500Y-102435800D02*
X39889300Y-102435800D01*
X41188100Y-101137000D02*
X42455400Y-101137000D01*
X60532500Y-92210100D02*
X47564700Y-92210100D01*
X39889300Y-102435800D02*
X41188100Y-101137000D01*
%TO.N,ONEWIRE_EXT*%
X107297200Y-13297200D02*
X90702800Y-13297200D01*
X109000000Y-15000000D02*
X107297200Y-13297200D01*
X90702800Y-13297200D02*
X89000000Y-15000000D01*
%TO.N,TEMP_KTY*%
X82769900Y-34769900D02*
X27000000Y-34769900D01*
X83000000Y-35000000D02*
X82769900Y-34769900D01*
%TO.N,DAC_RAW*%
X82671800Y-44240700D02*
X87199500Y-44240700D01*
X87199500Y-44240700D02*
X89696100Y-46737300D01*
%TO.N,5V_BUCK*%
X74638400Y-55361600D02*
X74421400Y-55578600D01*
X74421400Y-55578600D02*
X50872700Y-55578600D01*
%TO.N,VCC_BYP*%
X53002900Y-65886300D02*
X53002900Y-65886200D01*
X52056900Y-65886300D02*
X53002900Y-65886300D01*
X46910500Y-71032700D02*
X52056900Y-65886300D01*
%TO.N,RH_OUT*%
X87171200Y-43646500D02*
X97471500Y-43646500D01*
X32110100Y-40584600D02*
X26415400Y-40584600D01*
X70000000Y-38000000D02*
X81524700Y-38000000D01*
X68194900Y-36194900D02*
X36499800Y-36194900D01*
X97471500Y-43646500D02*
X99089500Y-45264500D01*
X36499800Y-36194900D02*
X32110100Y-40584600D01*
X70000000Y-38000000D02*
X68194900Y-36194900D01*
X81524700Y-38000000D02*
X87171200Y-43646500D01*
X26415400Y-40584600D02*
X16000000Y-51000000D01*
%TO.N,RS485_COM*%
X102301300Y-30698700D02*
X102000000Y-31000000D01*
X111355700Y-30698700D02*
X102301300Y-30698700D01*
X135000000Y-38000000D02*
X128000000Y-31000000D01*
X111657000Y-31000000D02*
X111355700Y-30698700D01*
X128000000Y-31000000D02*
X111657000Y-31000000D01*
%TO.N,RS485_B*%
X100600000Y-32853600D02*
X98746400Y-31000000D01*
X111417300Y-31560200D02*
X111007200Y-31150100D01*
X135000000Y-43000000D02*
X123560200Y-31560200D01*
X123560200Y-31560200D02*
X111417300Y-31560200D01*
X103265500Y-32853600D02*
X100600000Y-32853600D01*
X98746400Y-31000000D02*
X94000000Y-31000000D01*
X104969000Y-31150100D02*
X103265500Y-32853600D01*
X111007200Y-31150100D02*
X104969000Y-31150100D01*
%TO.N,24V_FUSED*%
X37781900Y-65502300D02*
X38642100Y-64642100D01*
X32215500Y-65502300D02*
X37781900Y-65502300D01*
%TO.N,ADC_0_10*%
X50364600Y-23581000D02*
X74319000Y-23581000D01*
X89567800Y-20866400D02*
X94543800Y-25842400D01*
X47509800Y-26176900D02*
X47768700Y-26176900D01*
X94543800Y-25842400D02*
X103079200Y-25842400D01*
X47768700Y-26176900D02*
X50364600Y-23581000D01*
X74319000Y-23581000D02*
X77033600Y-20866400D01*
X77033600Y-20866400D02*
X89567800Y-20866400D01*
%TO.N,CONTACT1*%
X99832800Y-32854600D02*
X65351100Y-32854600D01*
X110470300Y-31754700D02*
X108969700Y-33255300D01*
X108969700Y-33255300D02*
X100233500Y-33255300D01*
X65351100Y-32854600D02*
X65004100Y-32507600D01*
X100233500Y-33255300D02*
X99832800Y-32854600D01*
%TO.N,RS485_A*%
X135000000Y-48000000D02*
X127346200Y-48000000D01*
X127346200Y-48000000D02*
X113145200Y-62201000D01*
%TO.N,STATUS_LED*%
X75847700Y-39817300D02*
X76420000Y-39245000D01*
X68543600Y-39817300D02*
X75847700Y-39817300D01*
X65959400Y-37233100D02*
X68543600Y-39817300D01*
X53388100Y-37233100D02*
X65959400Y-37233100D01*
%TO.N,USB_D+*%
X75750000Y-101917500D02*
X74851800Y-101917500D01*
%TO.N,BUS_LED*%
X74950800Y-36801700D02*
X96099200Y-36801700D01*
X96099200Y-36801700D02*
X98493900Y-39196400D01*
%TO.N,24V_RAW*%
X21862500Y-61000000D02*
X25776200Y-64913700D01*
X16000000Y-61000000D02*
X21862500Y-61000000D01*
%TO.N,CONTACT2_EXT*%
X127105100Y-25737700D02*
X128446400Y-24396400D01*
X122437300Y-25737700D02*
X127105100Y-25737700D01*
%TO.N,CONTACT1_EXT*%
X126000000Y-15000000D02*
X116739300Y-24260700D01*
X116739300Y-24260700D02*
X111914300Y-24260700D01*
%TD*%
%TA.AperFunction,Conductor*%
%TO.N,RS485_COM*%
G36*
X113065408Y-35004843D02*
G01*
X113078095Y-35008966D01*
X113127595Y-35044927D01*
X113127596Y-35044928D01*
X113130591Y-35049050D01*
X113149500Y-35107240D01*
X113149500Y-35121290D01*
X113180314Y-35355347D01*
X113180314Y-35355353D01*
X113181160Y-35361781D01*
X113181161Y-35361784D01*
X113181161Y-35361786D01*
X113243944Y-35596092D01*
X113243948Y-35596105D01*
X113243949Y-35596109D01*
X113243950Y-35596110D01*
X113336769Y-35820198D01*
X113336772Y-35820204D01*
X113336774Y-35820208D01*
X113336776Y-35820212D01*
X113458064Y-36030289D01*
X113458066Y-36030292D01*
X113605729Y-36222731D01*
X113605731Y-36222733D01*
X113605735Y-36222738D01*
X113777262Y-36394265D01*
X113777266Y-36394268D01*
X113777271Y-36394273D01*
X113777293Y-36394292D01*
X113777667Y-36394576D01*
X113969707Y-36541933D01*
X113969711Y-36541936D01*
X114179788Y-36663224D01*
X114403900Y-36756054D01*
X114638211Y-36818838D01*
X114878712Y-36850500D01*
X114878713Y-36850500D01*
X115121287Y-36850500D01*
X115121288Y-36850500D01*
X115361789Y-36818838D01*
X115596100Y-36756054D01*
X115820212Y-36663224D01*
X116030289Y-36541936D01*
X116222738Y-36394265D01*
X116394265Y-36222738D01*
X116541936Y-36030289D01*
X116663224Y-35820212D01*
X116756054Y-35596100D01*
X116818838Y-35361789D01*
X116850500Y-35121288D01*
X116850500Y-35114680D01*
X116855343Y-35084094D01*
X116859465Y-35071405D01*
X116895423Y-35021906D01*
X116896022Y-35021471D01*
X116899563Y-35018900D01*
X116957743Y-35000000D01*
X126447630Y-35000000D01*
X126478221Y-35004845D01*
X126490558Y-35008853D01*
X126501447Y-35012391D01*
X126540860Y-35036542D01*
X133543600Y-42039281D01*
X133561804Y-42064337D01*
X133567860Y-42076222D01*
X133577433Y-42136652D01*
X133575347Y-42149825D01*
X133565775Y-42179286D01*
X133470418Y-42366434D01*
X133390137Y-42613514D01*
X133349500Y-42870095D01*
X133349500Y-43129903D01*
X133390137Y-43386485D01*
X133390508Y-43387832D01*
X133391152Y-43389609D01*
X133470421Y-43633572D01*
X133588366Y-43865051D01*
X133741069Y-44075229D01*
X133924771Y-44258931D01*
X134134949Y-44411634D01*
X134366428Y-44529579D01*
X134613346Y-44609807D01*
X134613505Y-44609860D01*
X134870097Y-44650500D01*
X135129900Y-44650500D01*
X135129903Y-44650500D01*
X135231233Y-44634450D01*
X135386488Y-44609861D01*
X135386488Y-44609860D01*
X135386490Y-44609860D01*
X135386493Y-44609860D01*
X135386496Y-44609858D01*
X135389072Y-44609451D01*
X135393879Y-44607459D01*
X135633572Y-44529579D01*
X135865051Y-44411634D01*
X136075229Y-44258931D01*
X136258931Y-44075229D01*
X136411634Y-43865051D01*
X136529579Y-43633572D01*
X136609860Y-43386493D01*
X136609861Y-43386485D01*
X136650500Y-43129900D01*
X136650500Y-42870095D01*
X136609862Y-42613515D01*
X136530635Y-42369680D01*
X136530104Y-42367831D01*
X136529580Y-42366431D01*
X136529579Y-42366430D01*
X136529579Y-42366428D01*
X136411634Y-42134949D01*
X136258931Y-41924771D01*
X136075229Y-41741069D01*
X135871351Y-41592943D01*
X135871077Y-41592709D01*
X135865051Y-41588366D01*
X135865050Y-41588365D01*
X135865048Y-41588364D01*
X135865047Y-41588363D01*
X135865041Y-41588359D01*
X135864785Y-41588230D01*
X135757964Y-41533802D01*
X135633572Y-41470421D01*
X135633569Y-41470420D01*
X135633567Y-41470419D01*
X135386488Y-41390138D01*
X135386486Y-41390137D01*
X135386484Y-41390137D01*
X135129903Y-41349500D01*
X135129900Y-41349500D01*
X135129897Y-41349500D01*
X134870103Y-41349500D01*
X134870100Y-41349500D01*
X134870096Y-41349500D01*
X134613513Y-41390137D01*
X134369681Y-41469362D01*
X134363102Y-41471251D01*
X134355695Y-41473102D01*
X134346855Y-41480392D01*
X134179285Y-41565774D01*
X134149825Y-41575346D01*
X134136653Y-41577432D01*
X134076222Y-41567860D01*
X134064337Y-41561804D01*
X134039281Y-41543600D01*
X127675772Y-35180090D01*
X127657566Y-35155031D01*
X127652600Y-35145284D01*
X127643031Y-35084854D01*
X127670810Y-35030338D01*
X127717709Y-35004077D01*
X127723305Y-35002734D01*
X127746408Y-35000000D01*
X139384820Y-35000000D01*
X139415408Y-35004843D01*
X139428095Y-35008966D01*
X139477595Y-35044927D01*
X139477596Y-35044928D01*
X139480591Y-35049050D01*
X139499500Y-35107240D01*
X139499500Y-69645500D01*
X139480593Y-69703691D01*
X139431093Y-69739655D01*
X139400500Y-69744500D01*
X136715162Y-69744500D01*
X136656971Y-69725593D01*
X136621007Y-69676093D01*
X136617381Y-69660987D01*
X136609862Y-69613515D01*
X136530635Y-69369680D01*
X136530104Y-69367831D01*
X136529580Y-69366431D01*
X136529579Y-69366430D01*
X136529579Y-69366428D01*
X136411634Y-69134949D01*
X136258931Y-68924771D01*
X136075229Y-68741069D01*
X135871351Y-68592943D01*
X135871077Y-68592709D01*
X135865051Y-68588366D01*
X135865050Y-68588365D01*
X135865048Y-68588364D01*
X135865047Y-68588363D01*
X135865041Y-68588359D01*
X135864785Y-68588230D01*
X135757964Y-68533802D01*
X135633572Y-68470421D01*
X135633569Y-68470420D01*
X135633567Y-68470419D01*
X135386488Y-68390138D01*
X135386486Y-68390137D01*
X135386484Y-68390137D01*
X135129903Y-68349500D01*
X135129900Y-68349500D01*
X135129897Y-68349500D01*
X134870103Y-68349500D01*
X134870100Y-68349500D01*
X134870096Y-68349500D01*
X134613515Y-68390136D01*
X134366431Y-68470419D01*
X134134953Y-68588362D01*
X133924773Y-68741067D01*
X133924772Y-68741068D01*
X133741068Y-68924772D01*
X133642351Y-69060643D01*
X133588362Y-69134953D01*
X133470419Y-69366431D01*
X133390136Y-69613515D01*
X133382618Y-69660987D01*
X133354841Y-69715504D01*
X133300324Y-69743281D01*
X133284837Y-69744500D01*
X116056189Y-69744500D01*
X115997998Y-69725593D01*
X115986185Y-69715504D01*
X114620181Y-68349500D01*
X110410112Y-64139430D01*
X110330188Y-64093286D01*
X110241044Y-64069400D01*
X110241042Y-64069400D01*
X106614680Y-64069400D01*
X106584087Y-64064554D01*
X106571401Y-64060432D01*
X106521901Y-64024468D01*
X106521894Y-64024458D01*
X106518900Y-64020336D01*
X106500000Y-63962156D01*
X106500000Y-62128525D01*
X112594700Y-62128525D01*
X112594700Y-62273474D01*
X112627785Y-62396949D01*
X112632218Y-62413493D01*
X112704685Y-62539008D01*
X112704687Y-62539010D01*
X112704689Y-62539012D01*
X112704691Y-62539015D01*
X112807185Y-62641509D01*
X112807187Y-62641510D01*
X112807294Y-62641617D01*
X112807545Y-62641803D01*
X112809738Y-62642984D01*
X112922307Y-62707975D01*
X112929957Y-62712392D01*
X112932370Y-62713890D01*
X112932708Y-62713980D01*
X112932711Y-62713982D01*
X112932712Y-62713982D01*
X112932715Y-62713984D01*
X113072725Y-62751500D01*
X113072726Y-62751500D01*
X113217674Y-62751500D01*
X113217675Y-62751500D01*
X113357685Y-62713984D01*
X113357686Y-62713983D01*
X113357688Y-62713982D01*
X113357689Y-62713982D01*
X113477080Y-62645051D01*
X113479968Y-62643648D01*
X113480754Y-62643131D01*
X113485763Y-62640037D01*
X113487062Y-62639286D01*
X113492420Y-62632303D01*
X113585709Y-62539015D01*
X113585713Y-62539008D01*
X113658182Y-62413489D01*
X113658182Y-62413487D01*
X113658184Y-62413485D01*
X113695700Y-62273475D01*
X113695700Y-62202870D01*
X113700544Y-62172281D01*
X113708091Y-62149050D01*
X113732240Y-62109641D01*
X116724356Y-59117525D01*
X122352400Y-59117525D01*
X122352400Y-59262474D01*
X122385485Y-59385949D01*
X122389918Y-59402493D01*
X122462385Y-59528008D01*
X122462387Y-59528010D01*
X122462389Y-59528012D01*
X122462391Y-59528015D01*
X122564885Y-59630509D01*
X122564887Y-59630510D01*
X122564994Y-59630617D01*
X122565245Y-59630803D01*
X122567438Y-59631984D01*
X122680007Y-59696975D01*
X122687657Y-59701392D01*
X122690070Y-59702890D01*
X122690408Y-59702980D01*
X122690411Y-59702982D01*
X122690412Y-59702982D01*
X122690415Y-59702984D01*
X122830425Y-59740500D01*
X122830426Y-59740500D01*
X122975374Y-59740500D01*
X122975375Y-59740500D01*
X123115385Y-59702984D01*
X123115386Y-59702983D01*
X123115388Y-59702982D01*
X123115389Y-59702982D01*
X123234780Y-59634051D01*
X123237668Y-59632648D01*
X123238454Y-59632131D01*
X123243463Y-59629037D01*
X123244762Y-59628286D01*
X123250120Y-59621303D01*
X123343409Y-59528015D01*
X123343413Y-59528008D01*
X123415882Y-59402489D01*
X123415882Y-59402487D01*
X123415884Y-59402485D01*
X123453400Y-59262475D01*
X123453400Y-59117525D01*
X123415884Y-58977515D01*
X123415882Y-58977512D01*
X123415882Y-58977510D01*
X123415881Y-58977508D01*
X123415790Y-58977168D01*
X123414297Y-58974764D01*
X123344885Y-58854539D01*
X123343705Y-58852347D01*
X123343517Y-58852094D01*
X123343410Y-58851987D01*
X123343409Y-58851985D01*
X123240915Y-58749491D01*
X123240912Y-58749489D01*
X123240910Y-58749487D01*
X123172674Y-58710091D01*
X123151641Y-58686731D01*
X123085797Y-58669087D01*
X123085796Y-58669087D01*
X122975375Y-58639500D01*
X122975373Y-58639500D01*
X122830423Y-58639500D01*
X122768688Y-58656041D01*
X122768687Y-58656040D01*
X122690412Y-58677015D01*
X122690406Y-58677018D01*
X122564893Y-58749483D01*
X122462383Y-58851993D01*
X122389918Y-58977505D01*
X122368942Y-59055787D01*
X122352400Y-59117525D01*
X116724356Y-59117525D01*
X127451302Y-48390579D01*
X127476354Y-48372378D01*
X127498121Y-48361288D01*
X127543062Y-48350500D01*
X133234820Y-48350500D01*
X133265408Y-48355343D01*
X133278095Y-48359466D01*
X133327595Y-48395427D01*
X133327596Y-48395428D01*
X133330591Y-48399550D01*
X133349500Y-48457740D01*
X133349500Y-49197865D01*
X133349499Y-49197865D01*
X133355908Y-49257476D01*
X133355908Y-49257477D01*
X133355912Y-49257493D01*
X133406200Y-49392326D01*
X133492451Y-49507543D01*
X133492525Y-49507635D01*
X133492802Y-49507882D01*
X133494606Y-49509156D01*
X133561129Y-49558956D01*
X133607669Y-49593796D01*
X133607670Y-49593796D01*
X133607671Y-49593797D01*
X133741545Y-49643728D01*
X133742986Y-49644285D01*
X133744248Y-49644466D01*
X133747768Y-49644655D01*
X133802128Y-49650500D01*
X133802131Y-49650500D01*
X136197869Y-49650500D01*
X136197872Y-49650500D01*
X136257482Y-49644091D01*
X136304304Y-49626627D01*
X136390717Y-49594397D01*
X136394023Y-49593232D01*
X136397581Y-49592047D01*
X136405166Y-49584186D01*
X136507546Y-49507546D01*
X136593796Y-49392330D01*
X136593798Y-49392326D01*
X136644089Y-49257487D01*
X136644088Y-49257487D01*
X136644091Y-49257482D01*
X136650500Y-49197872D01*
X136650500Y-46802128D01*
X136644091Y-46742518D01*
X136644089Y-46742512D01*
X136642818Y-46739104D01*
X136593798Y-46607672D01*
X136571679Y-46578125D01*
X136509156Y-46494606D01*
X136507882Y-46492802D01*
X136507635Y-46492525D01*
X136507543Y-46492451D01*
X136392326Y-46406200D01*
X136262427Y-46357752D01*
X136258938Y-46356234D01*
X136258024Y-46355996D01*
X136255926Y-46355540D01*
X136252205Y-46355341D01*
X136235311Y-46353524D01*
X136226248Y-46352550D01*
X136226247Y-46352549D01*
X136197875Y-46349500D01*
X136197872Y-46349500D01*
X133802128Y-46349500D01*
X133799751Y-46349755D01*
X133777637Y-46352132D01*
X133777637Y-46352133D01*
X133768858Y-46353076D01*
X133742520Y-46355908D01*
X133742514Y-46355909D01*
X133742512Y-46355910D01*
X133742509Y-46355910D01*
X133742505Y-46355912D01*
X133607672Y-46406200D01*
X133492460Y-46492448D01*
X133492448Y-46492460D01*
X133406200Y-46607672D01*
X133355912Y-46742505D01*
X133355910Y-46742509D01*
X133355910Y-46742512D01*
X133355908Y-46742523D01*
X133349501Y-46802128D01*
X133349500Y-46802133D01*
X133349500Y-47534819D01*
X133344654Y-47565412D01*
X133340532Y-47578098D01*
X133304580Y-47627589D01*
X133300459Y-47630584D01*
X133242271Y-47649500D01*
X127392344Y-47649500D01*
X127300056Y-47649500D01*
X127210912Y-47673386D01*
X127130988Y-47719530D01*
X113240100Y-61610417D01*
X113215043Y-61628621D01*
X113193285Y-61639708D01*
X113148338Y-61650500D01*
X113072723Y-61650500D01*
X113010988Y-61667041D01*
X113010987Y-61667040D01*
X112932712Y-61688015D01*
X112932706Y-61688018D01*
X112807193Y-61760483D01*
X112704683Y-61862993D01*
X112632218Y-61988505D01*
X112632217Y-61988510D01*
X112594700Y-62128525D01*
X106500000Y-62128525D01*
X106500000Y-35114680D01*
X106504843Y-35084094D01*
X106508965Y-35071405D01*
X106544923Y-35021906D01*
X106545522Y-35021471D01*
X106549063Y-35018900D01*
X106607243Y-35000000D01*
X113034820Y-35000000D01*
X113065408Y-35004843D01*
G37*
%TD.AperFunction*%
%TD*%
%TA.AperFunction,Conductor*%
%TO.N,GND*%
G36*
X45659191Y-10519407D02*
G01*
X45695155Y-10568907D01*
X45700000Y-10599500D01*
X45700000Y-17000000D01*
X45700001Y-17000000D01*
X64299999Y-17000000D01*
X64300000Y-17000000D01*
X64300000Y-13802130D01*
X82349500Y-13802130D01*
X82349500Y-16197869D01*
X82355908Y-16257476D01*
X82355910Y-16257487D01*
X82406202Y-16392328D01*
X82492450Y-16507541D01*
X82492454Y-16507546D01*
X82492457Y-16507548D01*
X82492458Y-16507549D01*
X82607671Y-16593797D01*
X82742512Y-16644089D01*
X82742513Y-16644089D01*
X82742518Y-16644091D01*
X82802128Y-16650500D01*
X82802131Y-16650500D01*
X85197869Y-16650500D01*
X85197872Y-16650500D01*
X85257482Y-16644091D01*
X85304304Y-16626627D01*
X85392328Y-16593797D01*
X85392328Y-16593796D01*
X85392330Y-16593796D01*
X85507546Y-16507546D01*
X85593796Y-16392330D01*
X85644091Y-16257482D01*
X85650500Y-16197872D01*
X85650500Y-14870099D01*
X87349500Y-14870099D01*
X87349500Y-15129900D01*
X87390138Y-15386488D01*
X87440647Y-15541936D01*
X87470421Y-15633572D01*
X87485530Y-15663224D01*
X87580951Y-15850500D01*
X87588366Y-15865051D01*
X87741069Y-16075229D01*
X87924771Y-16258931D01*
X88134949Y-16411634D01*
X88366428Y-16529579D01*
X88613507Y-16609860D01*
X88613508Y-16609860D01*
X88613511Y-16609861D01*
X88870100Y-16650500D01*
X88870103Y-16650500D01*
X89129900Y-16650500D01*
X89386488Y-16609861D01*
X89386489Y-16609860D01*
X89386493Y-16609860D01*
X89633572Y-16529579D01*
X89865051Y-16411634D01*
X90075229Y-16258931D01*
X90258931Y-16075229D01*
X90411634Y-15865051D01*
X90529579Y-15633572D01*
X90609860Y-15386493D01*
X90650500Y-15129897D01*
X90650500Y-14870103D01*
X90650500Y-14870099D01*
X90609861Y-14613511D01*
X90604206Y-14596105D01*
X90529579Y-14366428D01*
X90427105Y-14165313D01*
X90417535Y-14104884D01*
X90445310Y-14050370D01*
X90818986Y-13676696D01*
X90873502Y-13648919D01*
X90888989Y-13647700D01*
X102255889Y-13647700D01*
X102314080Y-13666607D01*
X102350044Y-13716107D01*
X102354322Y-13757283D01*
X102349500Y-13802131D01*
X102349500Y-16197869D01*
X102355908Y-16257476D01*
X102355910Y-16257487D01*
X102406202Y-16392328D01*
X102492450Y-16507541D01*
X102492454Y-16507546D01*
X102492457Y-16507548D01*
X102492458Y-16507549D01*
X102607671Y-16593797D01*
X102742512Y-16644089D01*
X102742513Y-16644089D01*
X102742518Y-16644091D01*
X102802128Y-16650500D01*
X102802131Y-16650500D01*
X105197869Y-16650500D01*
X105197872Y-16650500D01*
X105257482Y-16644091D01*
X105304304Y-16626627D01*
X105392328Y-16593797D01*
X105392328Y-16593796D01*
X105392330Y-16593796D01*
X105507546Y-16507546D01*
X105593796Y-16392330D01*
X105644091Y-16257482D01*
X105650500Y-16197872D01*
X105650500Y-13802128D01*
X105645678Y-13757281D01*
X105658257Y-13697405D01*
X105703628Y-13656355D01*
X105744111Y-13647700D01*
X107111010Y-13647700D01*
X107169201Y-13666607D01*
X107181014Y-13676696D01*
X107554686Y-14050368D01*
X107582463Y-14104885D01*
X107572892Y-14165317D01*
X107470419Y-14366432D01*
X107390138Y-14613511D01*
X107349500Y-14870099D01*
X107349500Y-15129900D01*
X107390138Y-15386488D01*
X107440647Y-15541936D01*
X107470421Y-15633572D01*
X107485530Y-15663224D01*
X107580951Y-15850500D01*
X107588366Y-15865051D01*
X107741069Y-16075229D01*
X107924771Y-16258931D01*
X108134949Y-16411634D01*
X108366428Y-16529579D01*
X108613507Y-16609860D01*
X108613508Y-16609860D01*
X108613511Y-16609861D01*
X108870100Y-16650500D01*
X108870103Y-16650500D01*
X109129900Y-16650500D01*
X109386488Y-16609861D01*
X109386489Y-16609860D01*
X109386493Y-16609860D01*
X109633572Y-16529579D01*
X109865051Y-16411634D01*
X110075229Y-16258931D01*
X110258931Y-16075229D01*
X110411634Y-15865051D01*
X110529579Y-15633572D01*
X110609860Y-15386493D01*
X110650500Y-15129897D01*
X110650500Y-14870103D01*
X110650500Y-14870099D01*
X110609861Y-14613511D01*
X110604206Y-14596105D01*
X110529579Y-14366428D01*
X110411634Y-14134949D01*
X110258931Y-13924771D01*
X110075229Y-13741069D01*
X109865051Y-13588366D01*
X109865050Y-13588365D01*
X109865048Y-13588364D01*
X109757964Y-13533802D01*
X109633572Y-13470421D01*
X109633569Y-13470420D01*
X109633567Y-13470419D01*
X109386488Y-13390138D01*
X109129900Y-13349500D01*
X109129897Y-13349500D01*
X108870103Y-13349500D01*
X108870100Y-13349500D01*
X108613511Y-13390138D01*
X108366432Y-13470419D01*
X108165317Y-13572892D01*
X108104885Y-13582463D01*
X108050368Y-13554686D01*
X107845182Y-13349500D01*
X107512412Y-13016730D01*
X107432488Y-12970586D01*
X107432487Y-12970585D01*
X107432486Y-12970585D01*
X107429219Y-12969710D01*
X107429218Y-12969710D01*
X107343344Y-12946700D01*
X90656656Y-12946700D01*
X90642797Y-12950413D01*
X90570784Y-12969708D01*
X90570785Y-12969709D01*
X90567514Y-12970585D01*
X90567513Y-12970585D01*
X90487585Y-13016732D01*
X89949629Y-13554686D01*
X89895113Y-13582463D01*
X89834682Y-13572892D01*
X89633572Y-13470421D01*
X89633569Y-13470420D01*
X89633567Y-13470419D01*
X89386488Y-13390138D01*
X89129900Y-13349500D01*
X89129897Y-13349500D01*
X88870103Y-13349500D01*
X88870100Y-13349500D01*
X88613511Y-13390138D01*
X88366432Y-13470419D01*
X88134951Y-13588364D01*
X87924772Y-13741068D01*
X87741068Y-13924772D01*
X87588364Y-14134951D01*
X87470419Y-14366432D01*
X87390138Y-14613511D01*
X87349500Y-14870099D01*
X85650500Y-14870099D01*
X85650500Y-13802128D01*
X85644091Y-13742518D01*
X85643550Y-13741068D01*
X85593797Y-13607671D01*
X85507549Y-13492458D01*
X85507548Y-13492457D01*
X85507546Y-13492454D01*
X85507541Y-13492450D01*
X85392328Y-13406202D01*
X85257487Y-13355910D01*
X85257482Y-13355909D01*
X85257480Y-13355908D01*
X85257476Y-13355908D01*
X85226248Y-13352550D01*
X85197872Y-13349500D01*
X82802128Y-13349500D01*
X82777637Y-13352133D01*
X82742523Y-13355908D01*
X82742512Y-13355910D01*
X82607671Y-13406202D01*
X82492458Y-13492450D01*
X82492450Y-13492458D01*
X82406202Y-13607671D01*
X82355910Y-13742512D01*
X82355908Y-13742523D01*
X82349500Y-13802130D01*
X64300000Y-13802130D01*
X64300000Y-10599500D01*
X64318907Y-10541309D01*
X64368407Y-10505345D01*
X64399000Y-10500500D01*
X139400500Y-10500500D01*
X139458691Y-10519407D01*
X139494655Y-10568907D01*
X139499500Y-10599500D01*
X139499500Y-33901000D01*
X139480593Y-33959191D01*
X139431093Y-33995155D01*
X139400500Y-34000000D01*
X136504428Y-34000000D01*
X136446237Y-33981093D01*
X136410273Y-33931593D01*
X136410273Y-33870407D01*
X136416218Y-33856055D01*
X136448593Y-33792515D01*
X136529579Y-33633572D01*
X136609860Y-33386493D01*
X136617407Y-33338842D01*
X136650500Y-33129900D01*
X136650500Y-32870099D01*
X136609861Y-32613511D01*
X136573987Y-32503100D01*
X136529579Y-32366428D01*
X136411634Y-32134949D01*
X136258931Y-31924771D01*
X136075229Y-31741069D01*
X135865051Y-31588366D01*
X135865050Y-31588365D01*
X135865048Y-31588364D01*
X135740078Y-31524689D01*
X135633572Y-31470421D01*
X135633569Y-31470420D01*
X135633567Y-31470419D01*
X135386488Y-31390138D01*
X135129900Y-31349500D01*
X135129897Y-31349500D01*
X134870103Y-31349500D01*
X134870100Y-31349500D01*
X134613511Y-31390138D01*
X134366432Y-31470419D01*
X134134951Y-31588364D01*
X133924772Y-31741068D01*
X133741068Y-31924772D01*
X133588364Y-32134951D01*
X133470419Y-32366432D01*
X133390138Y-32613511D01*
X133349500Y-32870099D01*
X133349500Y-33129900D01*
X133390138Y-33386488D01*
X133453636Y-33581912D01*
X133470421Y-33633572D01*
X133543635Y-33777262D01*
X133583782Y-33856055D01*
X133593353Y-33916487D01*
X133565575Y-33971004D01*
X133511059Y-33998781D01*
X133495572Y-34000000D01*
X131536690Y-34000000D01*
X131478499Y-33981093D01*
X131466686Y-33971004D01*
X129862110Y-32366428D01*
X128215212Y-30719530D01*
X128135288Y-30673386D01*
X128046144Y-30649500D01*
X128046142Y-30649500D01*
X111843190Y-30649500D01*
X111784999Y-30630593D01*
X111773187Y-30620504D01*
X111570914Y-30418232D01*
X111570912Y-30418230D01*
X111490988Y-30372086D01*
X111401844Y-30348200D01*
X111401842Y-30348200D01*
X103690893Y-30348200D01*
X103632702Y-30329293D01*
X103599429Y-30287086D01*
X103573346Y-30224116D01*
X103458611Y-30025388D01*
X103318921Y-29843342D01*
X103318919Y-29843339D01*
X103156661Y-29681081D01*
X103156656Y-29681077D01*
X103156654Y-29681075D01*
X103028504Y-29582742D01*
X102993848Y-29532317D01*
X102995450Y-29471153D01*
X103032697Y-29422611D01*
X103088771Y-29405200D01*
X122755968Y-29405200D01*
X122814159Y-29424107D01*
X122825971Y-29434196D01*
X122886984Y-29495208D01*
X122886989Y-29495212D01*
X123012511Y-29567682D01*
X123012512Y-29567682D01*
X123012515Y-29567684D01*
X123152525Y-29605200D01*
X123152526Y-29605200D01*
X123297474Y-29605200D01*
X123297475Y-29605200D01*
X123437485Y-29567684D01*
X123437487Y-29567682D01*
X123437489Y-29567682D01*
X123563010Y-29495212D01*
X123563010Y-29495211D01*
X123563015Y-29495209D01*
X123665509Y-29392715D01*
X123737984Y-29267185D01*
X123775500Y-29127175D01*
X123775500Y-28982225D01*
X123737984Y-28842215D01*
X123737982Y-28842212D01*
X123737982Y-28842210D01*
X123665512Y-28716689D01*
X123665510Y-28716687D01*
X123665509Y-28716685D01*
X123563015Y-28614191D01*
X123563012Y-28614189D01*
X123563010Y-28614187D01*
X123437488Y-28541717D01*
X123437489Y-28541717D01*
X123407896Y-28533787D01*
X123297475Y-28504200D01*
X123152525Y-28504200D01*
X123090790Y-28520741D01*
X123012510Y-28541717D01*
X122886989Y-28614187D01*
X122886984Y-28614191D01*
X122825971Y-28675204D01*
X122771454Y-28702981D01*
X122755968Y-28704200D01*
X67242956Y-28704200D01*
X67153812Y-28728086D01*
X67073888Y-28774230D01*
X65731386Y-30116731D01*
X65676869Y-30144508D01*
X65616437Y-30134937D01*
X65573172Y-30091672D01*
X65565755Y-30072350D01*
X65541684Y-29982515D01*
X65541682Y-29982512D01*
X65541682Y-29982510D01*
X65469212Y-29856989D01*
X65469210Y-29856987D01*
X65469209Y-29856985D01*
X65366715Y-29754491D01*
X65366712Y-29754489D01*
X65366710Y-29754487D01*
X65241188Y-29682017D01*
X65241189Y-29682017D01*
X65211596Y-29674087D01*
X65101175Y-29644500D01*
X64956225Y-29644500D01*
X64894490Y-29661041D01*
X64816210Y-29682017D01*
X64690689Y-29754487D01*
X64588187Y-29856989D01*
X64515717Y-29982510D01*
X64486467Y-30091672D01*
X64478200Y-30122525D01*
X64478200Y-30267475D01*
X64506231Y-30372086D01*
X64515717Y-30407489D01*
X64588187Y-30533010D01*
X64588189Y-30533012D01*
X64588191Y-30533015D01*
X64690685Y-30635509D01*
X64690687Y-30635510D01*
X64748174Y-30668701D01*
X64789114Y-30714171D01*
X64795509Y-30775021D01*
X64764916Y-30828009D01*
X64748174Y-30840173D01*
X64693587Y-30871689D01*
X64591087Y-30974189D01*
X64518617Y-31099710D01*
X64513822Y-31117607D01*
X64481100Y-31239725D01*
X64481100Y-31384675D01*
X64486427Y-31404555D01*
X64518617Y-31524689D01*
X64591087Y-31650210D01*
X64591089Y-31650212D01*
X64591091Y-31650215D01*
X64693585Y-31752709D01*
X64804644Y-31816829D01*
X64845584Y-31862298D01*
X64851980Y-31923148D01*
X64821387Y-31976136D01*
X64793040Y-31994024D01*
X64791619Y-31994612D01*
X64666089Y-32067087D01*
X64563587Y-32169589D01*
X64491117Y-32295110D01*
X64453600Y-32435125D01*
X64453600Y-32580074D01*
X64491117Y-32720089D01*
X64563587Y-32845610D01*
X64563589Y-32845612D01*
X64563591Y-32845615D01*
X64666085Y-32948109D01*
X64666087Y-32948110D01*
X64666089Y-32948112D01*
X64791611Y-33020582D01*
X64791612Y-33020582D01*
X64791615Y-33020584D01*
X64931625Y-33058100D01*
X65017910Y-33058100D01*
X65076101Y-33077007D01*
X65087913Y-33087096D01*
X65135888Y-33135070D01*
X65205920Y-33175504D01*
X65205929Y-33175507D01*
X65205931Y-33175509D01*
X65215812Y-33181214D01*
X65304956Y-33205100D01*
X82261289Y-33205100D01*
X82319480Y-33224007D01*
X82355444Y-33273507D01*
X82355444Y-33334693D01*
X82319480Y-33384193D01*
X82299174Y-33395564D01*
X82224119Y-33426652D01*
X82025388Y-33541388D01*
X81843342Y-33681078D01*
X81681078Y-33843342D01*
X81541388Y-34025388D01*
X81426653Y-34224116D01*
X81371079Y-34358286D01*
X81331342Y-34404811D01*
X81279615Y-34419400D01*
X65905682Y-34419400D01*
X65847491Y-34400493D01*
X65811527Y-34350993D01*
X65811527Y-34289807D01*
X65819945Y-34270900D01*
X65831649Y-34250626D01*
X65850784Y-34217485D01*
X65888300Y-34077475D01*
X65888300Y-33932525D01*
X65850784Y-33792515D01*
X65850782Y-33792512D01*
X65850782Y-33792510D01*
X65778312Y-33666989D01*
X65778310Y-33666987D01*
X65778309Y-33666985D01*
X65675815Y-33564491D01*
X65675812Y-33564489D01*
X65675810Y-33564487D01*
X65550288Y-33492017D01*
X65550289Y-33492017D01*
X65520696Y-33484087D01*
X65410275Y-33454500D01*
X65265325Y-33454500D01*
X65252017Y-33458066D01*
X65125310Y-33492017D01*
X64999789Y-33564487D01*
X64897287Y-33666989D01*
X64824817Y-33792510D01*
X64787300Y-33932525D01*
X64787300Y-34077474D01*
X64824816Y-34217486D01*
X64855655Y-34270900D01*
X64868376Y-34330749D01*
X64843489Y-34386644D01*
X64790501Y-34417237D01*
X64769918Y-34419400D01*
X45559682Y-34419400D01*
X45501491Y-34400493D01*
X45465527Y-34350993D01*
X45465527Y-34289807D01*
X45473945Y-34270900D01*
X45485649Y-34250626D01*
X45504784Y-34217485D01*
X45542300Y-34077475D01*
X45542300Y-33932525D01*
X45504784Y-33792515D01*
X45504782Y-33792512D01*
X45504782Y-33792510D01*
X45432312Y-33666989D01*
X45432310Y-33666987D01*
X45432309Y-33666985D01*
X45329815Y-33564491D01*
X45329812Y-33564489D01*
X45329810Y-33564487D01*
X45204288Y-33492017D01*
X45204289Y-33492017D01*
X45174696Y-33484087D01*
X45064275Y-33454500D01*
X44919325Y-33454500D01*
X44906017Y-33458066D01*
X44779310Y-33492017D01*
X44653789Y-33564487D01*
X44551287Y-33666989D01*
X44478817Y-33792510D01*
X44441300Y-33932525D01*
X44441300Y-34077474D01*
X44478816Y-34217486D01*
X44509655Y-34270900D01*
X44522376Y-34330749D01*
X44497489Y-34386644D01*
X44444501Y-34417237D01*
X44423918Y-34419400D01*
X27469032Y-34419400D01*
X27410841Y-34400493D01*
X27399029Y-34390404D01*
X27338015Y-34329391D01*
X27338010Y-34329387D01*
X27212488Y-34256917D01*
X27212489Y-34256917D01*
X27182896Y-34248987D01*
X27072475Y-34219400D01*
X26927525Y-34219400D01*
X26865790Y-34235941D01*
X26787510Y-34256917D01*
X26661989Y-34329387D01*
X26559487Y-34431889D01*
X26487017Y-34557410D01*
X26462074Y-34650500D01*
X26449500Y-34697425D01*
X26449500Y-34842375D01*
X26460993Y-34885266D01*
X26487017Y-34982389D01*
X26559487Y-35107910D01*
X26559489Y-35107912D01*
X26559491Y-35107915D01*
X26661985Y-35210409D01*
X26661987Y-35210410D01*
X26661989Y-35210412D01*
X26787511Y-35282882D01*
X26787512Y-35282882D01*
X26787515Y-35282884D01*
X26927525Y-35320400D01*
X26927526Y-35320400D01*
X27072474Y-35320400D01*
X27072475Y-35320400D01*
X27212485Y-35282884D01*
X27212487Y-35282882D01*
X27212489Y-35282882D01*
X27338010Y-35210412D01*
X27338010Y-35210411D01*
X27338015Y-35210409D01*
X27368522Y-35179902D01*
X27399029Y-35149396D01*
X27453546Y-35121619D01*
X27469032Y-35120400D01*
X81163426Y-35120400D01*
X81221617Y-35139307D01*
X81257581Y-35188807D01*
X81261577Y-35206473D01*
X81271638Y-35282882D01*
X81279452Y-35342238D01*
X81338841Y-35563885D01*
X81426653Y-35775883D01*
X81426656Y-35775888D01*
X81541389Y-35974612D01*
X81681081Y-36156661D01*
X81806618Y-36282198D01*
X81834394Y-36336713D01*
X81824823Y-36397145D01*
X81781558Y-36440410D01*
X81736613Y-36451200D01*
X75419832Y-36451200D01*
X75361641Y-36432293D01*
X75349829Y-36422204D01*
X75288815Y-36361191D01*
X75288810Y-36361187D01*
X75163288Y-36288717D01*
X75163289Y-36288717D01*
X75070313Y-36263804D01*
X75023275Y-36251200D01*
X74878325Y-36251200D01*
X74831287Y-36263804D01*
X74738310Y-36288717D01*
X74612789Y-36361187D01*
X74510287Y-36463689D01*
X74482333Y-36512108D01*
X74436864Y-36553049D01*
X74376013Y-36559445D01*
X74326593Y-36532612D01*
X73888781Y-36094800D01*
X73257812Y-35463830D01*
X73177888Y-35417686D01*
X73088744Y-35393800D01*
X32209556Y-35393800D01*
X32120412Y-35417686D01*
X32040485Y-35463832D01*
X31020919Y-36483396D01*
X30966403Y-36511173D01*
X30905971Y-36501602D01*
X30901417Y-36499129D01*
X30799711Y-36440410D01*
X30775888Y-36426656D01*
X30704643Y-36397145D01*
X30563885Y-36338841D01*
X30342238Y-36279452D01*
X30114734Y-36249500D01*
X29885266Y-36249500D01*
X29885265Y-36249500D01*
X29657761Y-36279452D01*
X29436114Y-36338841D01*
X29224116Y-36426653D01*
X29025388Y-36541388D01*
X28843342Y-36681078D01*
X28681078Y-36843342D01*
X28541388Y-37025388D01*
X28426653Y-37224116D01*
X28338841Y-37436114D01*
X28279452Y-37657761D01*
X28249500Y-37885265D01*
X28249500Y-38114734D01*
X28279452Y-38342238D01*
X28338841Y-38563885D01*
X28426653Y-38775883D01*
X28541388Y-38974611D01*
X28580351Y-39025388D01*
X28681081Y-39156661D01*
X28843339Y-39318919D01*
X29025388Y-39458611D01*
X29224112Y-39573344D01*
X29224113Y-39573344D01*
X29224116Y-39573346D01*
X29312269Y-39609860D01*
X29436113Y-39661158D01*
X29657762Y-39720548D01*
X29885266Y-39750500D01*
X29885267Y-39750500D01*
X30114733Y-39750500D01*
X30114734Y-39750500D01*
X30342238Y-39720548D01*
X30563887Y-39661158D01*
X30775888Y-39573344D01*
X30974612Y-39458611D01*
X31156661Y-39318919D01*
X31318919Y-39156661D01*
X31458611Y-38974612D01*
X31573344Y-38775888D01*
X31661158Y-38563887D01*
X31720548Y-38342238D01*
X31750500Y-38114734D01*
X31750500Y-37885266D01*
X31720548Y-37657762D01*
X31661158Y-37436113D01*
X31583357Y-37248286D01*
X31573346Y-37224116D01*
X31563034Y-37206255D01*
X31500868Y-37098580D01*
X31488148Y-37038733D01*
X31513035Y-36982838D01*
X31516603Y-36979078D01*
X32371887Y-36123796D01*
X32426403Y-36096019D01*
X32441890Y-36094800D01*
X35865211Y-36094800D01*
X35923402Y-36113707D01*
X35959366Y-36163207D01*
X35959366Y-36224393D01*
X35935215Y-36263803D01*
X33949518Y-38249500D01*
X31993914Y-40205104D01*
X31939397Y-40232881D01*
X31923910Y-40234100D01*
X26369256Y-40234100D01*
X26280112Y-40257986D01*
X26200188Y-40304130D01*
X16949630Y-49554686D01*
X16895113Y-49582463D01*
X16834682Y-49572892D01*
X16633572Y-49470421D01*
X16633569Y-49470420D01*
X16633567Y-49470419D01*
X16386488Y-49390138D01*
X16129900Y-49349500D01*
X16129897Y-49349500D01*
X15870103Y-49349500D01*
X15870100Y-49349500D01*
X15613511Y-49390138D01*
X15366432Y-49470419D01*
X15134951Y-49588364D01*
X14924772Y-49741068D01*
X14741068Y-49924772D01*
X14588364Y-50134951D01*
X14470419Y-50366432D01*
X14390138Y-50613511D01*
X14349500Y-50870099D01*
X14349500Y-51129900D01*
X14390138Y-51386488D01*
X14435333Y-51525582D01*
X14470421Y-51633572D01*
X14588366Y-51865051D01*
X14741069Y-52075229D01*
X14924771Y-52258931D01*
X15134949Y-52411634D01*
X15366428Y-52529579D01*
X15613507Y-52609860D01*
X15613508Y-52609860D01*
X15613511Y-52609861D01*
X15870100Y-52650500D01*
X15870103Y-52650500D01*
X16129900Y-52650500D01*
X16386488Y-52609861D01*
X16386489Y-52609860D01*
X16386493Y-52609860D01*
X16633572Y-52529579D01*
X16865051Y-52411634D01*
X17075229Y-52258931D01*
X17258931Y-52075229D01*
X17411634Y-51865051D01*
X17529579Y-51633572D01*
X17609860Y-51386493D01*
X17609861Y-51386488D01*
X17650500Y-51129900D01*
X17650500Y-50870099D01*
X17609861Y-50613511D01*
X17596402Y-50572087D01*
X17529579Y-50366428D01*
X17427107Y-50165316D01*
X17417536Y-50104884D01*
X17445311Y-50050369D01*
X22270354Y-45225327D01*
X26224500Y-45225327D01*
X26224500Y-46774672D01*
X26224501Y-46774684D01*
X26239033Y-46847736D01*
X26239035Y-46847742D01*
X26294397Y-46930599D01*
X26294399Y-46930601D01*
X26377260Y-46985966D01*
X26432808Y-46997015D01*
X26450315Y-47000498D01*
X26450320Y-47000498D01*
X26450326Y-47000500D01*
X26450327Y-47000500D01*
X27549673Y-47000500D01*
X27549674Y-47000500D01*
X27622740Y-46985966D01*
X27705601Y-46930601D01*
X27760966Y-46847740D01*
X27775500Y-46774674D01*
X27775500Y-45698617D01*
X28764500Y-45698617D01*
X28764500Y-46301382D01*
X28794302Y-46451204D01*
X28794302Y-46451206D01*
X28852759Y-46592334D01*
X28852759Y-46592335D01*
X28863006Y-46607670D01*
X28937630Y-46719352D01*
X29045648Y-46827370D01*
X29172663Y-46912239D01*
X29313795Y-46970698D01*
X29463620Y-47000500D01*
X29463621Y-47000500D01*
X29616379Y-47000500D01*
X29616380Y-47000500D01*
X29766205Y-46970698D01*
X29907337Y-46912239D01*
X30034352Y-46827370D01*
X30142370Y-46719352D01*
X30227239Y-46592337D01*
X30285698Y-46451205D01*
X30315500Y-46301380D01*
X30315500Y-45698620D01*
X30285698Y-45548795D01*
X30227240Y-45407665D01*
X30227240Y-45407664D01*
X30185873Y-45345755D01*
X30142370Y-45280648D01*
X30034352Y-45172630D01*
X29907337Y-45087761D01*
X29907336Y-45087760D01*
X29907334Y-45087759D01*
X29766205Y-45029302D01*
X29616382Y-44999500D01*
X29616380Y-44999500D01*
X29463620Y-44999500D01*
X29463617Y-44999500D01*
X29313795Y-45029302D01*
X29313793Y-45029302D01*
X29172665Y-45087759D01*
X29172664Y-45087759D01*
X29045648Y-45172630D01*
X29045644Y-45172633D01*
X28937633Y-45280644D01*
X28937630Y-45280648D01*
X28852759Y-45407664D01*
X28852759Y-45407665D01*
X28794302Y-45548793D01*
X28794302Y-45548795D01*
X28764500Y-45698617D01*
X27775500Y-45698617D01*
X27775500Y-45225326D01*
X27760966Y-45152260D01*
X27705601Y-45069399D01*
X27705599Y-45069397D01*
X27622742Y-45014035D01*
X27622740Y-45014034D01*
X27622737Y-45014033D01*
X27622736Y-45014033D01*
X27549684Y-44999501D01*
X27549674Y-44999500D01*
X26450326Y-44999500D01*
X26450325Y-44999500D01*
X26450315Y-44999501D01*
X26377263Y-45014033D01*
X26377257Y-45014035D01*
X26294400Y-45069397D01*
X26294397Y-45069400D01*
X26239035Y-45152257D01*
X26239033Y-45152263D01*
X26224501Y-45225315D01*
X26224500Y-45225327D01*
X22270354Y-45225327D01*
X26531586Y-40964096D01*
X26586103Y-40936319D01*
X26601590Y-40935100D01*
X32156242Y-40935100D01*
X32156244Y-40935100D01*
X32245388Y-40911214D01*
X32325312Y-40865070D01*
X36615985Y-36574395D01*
X36670502Y-36546619D01*
X36685989Y-36545400D01*
X36740013Y-36545400D01*
X36798204Y-36564307D01*
X36834168Y-36613807D01*
X36834168Y-36674993D01*
X36810018Y-36714401D01*
X36731833Y-36792587D01*
X36681078Y-36843342D01*
X36541388Y-37025388D01*
X36426653Y-37224116D01*
X36338841Y-37436114D01*
X36279452Y-37657761D01*
X36249500Y-37885265D01*
X36249500Y-38114734D01*
X36279452Y-38342238D01*
X36338841Y-38563885D01*
X36426653Y-38775883D01*
X36541388Y-38974611D01*
X36580351Y-39025388D01*
X36681081Y-39156661D01*
X36843339Y-39318919D01*
X37025388Y-39458611D01*
X37224112Y-39573344D01*
X37224113Y-39573344D01*
X37224116Y-39573346D01*
X37312269Y-39609860D01*
X37436113Y-39661158D01*
X37657762Y-39720548D01*
X37885266Y-39750500D01*
X37885267Y-39750500D01*
X38114733Y-39750500D01*
X38114734Y-39750500D01*
X38342238Y-39720548D01*
X38563887Y-39661158D01*
X38775888Y-39573344D01*
X38901416Y-39500869D01*
X38961264Y-39488148D01*
X39017160Y-39513034D01*
X39020920Y-39516602D01*
X52357831Y-52853512D01*
X52357830Y-52853512D01*
X52423087Y-52918768D01*
X52423089Y-52918770D01*
X52472002Y-52947010D01*
X52503012Y-52964914D01*
X52592156Y-52988800D01*
X72892668Y-52988800D01*
X72950859Y-53007707D01*
X72962671Y-53017796D01*
X73023684Y-53078808D01*
X73023689Y-53078812D01*
X73149211Y-53151282D01*
X73149212Y-53151282D01*
X73149215Y-53151284D01*
X73289225Y-53188800D01*
X73289226Y-53188800D01*
X73434174Y-53188800D01*
X73434175Y-53188800D01*
X73574185Y-53151284D01*
X73574187Y-53151282D01*
X73574189Y-53151282D01*
X73699710Y-53078812D01*
X73699710Y-53078811D01*
X73699715Y-53078809D01*
X73802209Y-52976315D01*
X73802212Y-52976310D01*
X73874682Y-52850789D01*
X73874682Y-52850787D01*
X73874684Y-52850785D01*
X73912200Y-52710775D01*
X73912200Y-52565825D01*
X73874684Y-52425815D01*
X73874682Y-52425812D01*
X73874682Y-52425810D01*
X73802212Y-52300289D01*
X73802210Y-52300287D01*
X73802209Y-52300285D01*
X73699715Y-52197791D01*
X73699712Y-52197789D01*
X73699710Y-52197787D01*
X73574188Y-52125317D01*
X73574189Y-52125317D01*
X73544596Y-52117387D01*
X73434175Y-52087800D01*
X73289225Y-52087800D01*
X73227490Y-52104341D01*
X73149210Y-52125317D01*
X73023689Y-52197787D01*
X73023684Y-52197791D01*
X72962671Y-52258804D01*
X72908154Y-52286581D01*
X72892668Y-52287800D01*
X52824489Y-52287800D01*
X52766298Y-52268893D01*
X52754485Y-52258804D01*
X51435806Y-50940125D01*
X91403000Y-50940125D01*
X91403000Y-51085074D01*
X91440517Y-51225089D01*
X91512987Y-51350610D01*
X91512989Y-51350612D01*
X91512991Y-51350615D01*
X91615485Y-51453109D01*
X91615487Y-51453110D01*
X91615489Y-51453112D01*
X91741011Y-51525582D01*
X91741012Y-51525582D01*
X91741015Y-51525584D01*
X91881025Y-51563100D01*
X91881026Y-51563100D01*
X92025974Y-51563100D01*
X92025975Y-51563100D01*
X92165985Y-51525584D01*
X92165987Y-51525582D01*
X92165989Y-51525582D01*
X92291510Y-51453112D01*
X92291510Y-51453111D01*
X92291515Y-51453109D01*
X92394009Y-51350615D01*
X92466484Y-51225085D01*
X92504000Y-51085075D01*
X92504000Y-50940125D01*
X92466484Y-50800115D01*
X92466482Y-50800112D01*
X92466482Y-50800110D01*
X92394012Y-50674589D01*
X92394010Y-50674587D01*
X92394009Y-50674585D01*
X92291515Y-50572091D01*
X92291512Y-50572089D01*
X92291510Y-50572087D01*
X92165988Y-50499617D01*
X92165989Y-50499617D01*
X92136396Y-50491687D01*
X92025975Y-50462100D01*
X91881025Y-50462100D01*
X91819290Y-50478641D01*
X91741010Y-50499617D01*
X91615489Y-50572087D01*
X91512987Y-50674589D01*
X91440517Y-50800110D01*
X91403000Y-50940125D01*
X51435806Y-50940125D01*
X49152621Y-48656940D01*
X49089106Y-48593425D01*
X94118800Y-48593425D01*
X94118800Y-48738374D01*
X94156317Y-48878389D01*
X94228787Y-49003910D01*
X94228789Y-49003912D01*
X94228791Y-49003915D01*
X94331285Y-49106409D01*
X94331287Y-49106410D01*
X94331289Y-49106412D01*
X94456811Y-49178882D01*
X94456812Y-49178882D01*
X94456815Y-49178884D01*
X94596825Y-49216400D01*
X94596826Y-49216400D01*
X94741774Y-49216400D01*
X94741775Y-49216400D01*
X94881785Y-49178884D01*
X94881787Y-49178882D01*
X94881789Y-49178882D01*
X95007310Y-49106412D01*
X95007310Y-49106411D01*
X95007315Y-49106409D01*
X95109809Y-49003915D01*
X95182284Y-48878385D01*
X95219800Y-48738375D01*
X95219800Y-48593425D01*
X95182284Y-48453415D01*
X95182282Y-48453412D01*
X95182282Y-48453410D01*
X95109812Y-48327889D01*
X95109810Y-48327887D01*
X95109809Y-48327885D01*
X95007315Y-48225391D01*
X95007312Y-48225389D01*
X95007310Y-48225387D01*
X94881788Y-48152917D01*
X94881789Y-48152917D01*
X94852196Y-48144987D01*
X94741775Y-48115400D01*
X94596825Y-48115400D01*
X94535090Y-48131941D01*
X94456810Y-48152917D01*
X94331289Y-48225387D01*
X94228787Y-48327889D01*
X94156317Y-48453410D01*
X94118800Y-48593425D01*
X49089106Y-48593425D01*
X46119152Y-45623471D01*
X39516602Y-39020920D01*
X39488825Y-38966403D01*
X39498396Y-38905971D01*
X39500870Y-38901416D01*
X39510194Y-38885267D01*
X39573344Y-38775888D01*
X39661158Y-38563887D01*
X39720548Y-38342238D01*
X39750500Y-38114734D01*
X39750500Y-37885266D01*
X39720548Y-37657762D01*
X39661158Y-37436113D01*
X39583357Y-37248286D01*
X39573346Y-37224116D01*
X39548566Y-37181196D01*
X39458611Y-37025388D01*
X39318919Y-36843339D01*
X39189981Y-36714401D01*
X39162206Y-36659887D01*
X39171777Y-36599455D01*
X39215042Y-36556190D01*
X39259987Y-36545400D01*
X53108758Y-36545400D01*
X53166949Y-36564307D01*
X53202913Y-36613807D01*
X53202913Y-36674993D01*
X53166949Y-36724493D01*
X53158258Y-36730136D01*
X53050089Y-36792587D01*
X52947587Y-36895089D01*
X52875117Y-37020610D01*
X52837600Y-37160625D01*
X52837600Y-37305574D01*
X52875117Y-37445589D01*
X52947587Y-37571110D01*
X52947589Y-37571112D01*
X52947591Y-37571115D01*
X53046774Y-37670298D01*
X53074550Y-37724813D01*
X53064979Y-37785245D01*
X53021714Y-37828510D01*
X52976769Y-37839300D01*
X47355888Y-37839300D01*
X47297697Y-37820393D01*
X47285885Y-37810304D01*
X47156661Y-37681081D01*
X46974611Y-37541388D01*
X46775883Y-37426653D01*
X46563885Y-37338841D01*
X46342238Y-37279452D01*
X46114734Y-37249500D01*
X45885266Y-37249500D01*
X45885265Y-37249500D01*
X45657761Y-37279452D01*
X45436114Y-37338841D01*
X45224116Y-37426653D01*
X45025388Y-37541388D01*
X44843342Y-37681078D01*
X44681078Y-37843342D01*
X44541388Y-38025388D01*
X44426653Y-38224116D01*
X44338841Y-38436114D01*
X44279452Y-38657761D01*
X44249500Y-38885265D01*
X44249500Y-39114734D01*
X44279452Y-39342238D01*
X44338841Y-39563885D01*
X44426653Y-39775883D01*
X44489804Y-39885265D01*
X44541389Y-39974612D01*
X44681081Y-40156661D01*
X44843339Y-40318919D01*
X45025388Y-40458611D01*
X45224112Y-40573344D01*
X45224113Y-40573344D01*
X45224116Y-40573346D01*
X45320167Y-40613131D01*
X45436113Y-40661158D01*
X45657762Y-40720548D01*
X45885266Y-40750500D01*
X45885267Y-40750500D01*
X46114733Y-40750500D01*
X46114734Y-40750500D01*
X46342238Y-40720548D01*
X46563887Y-40661158D01*
X46775888Y-40573344D01*
X46974612Y-40458611D01*
X47156661Y-40318919D01*
X47318919Y-40156661D01*
X47458611Y-39974612D01*
X47573344Y-39775888D01*
X47661158Y-39563887D01*
X47720548Y-39342238D01*
X47750500Y-39114734D01*
X47750500Y-38885266D01*
X47720548Y-38657762D01*
X47720547Y-38657761D01*
X47720125Y-38654549D01*
X47721216Y-38654405D01*
X47727907Y-38597858D01*
X47769437Y-38552926D01*
X47817815Y-38540300D01*
X52745113Y-38540300D01*
X52803304Y-38559207D01*
X52839268Y-38608707D01*
X52839268Y-38669893D01*
X52815118Y-38709301D01*
X52719933Y-38804487D01*
X52681078Y-38843342D01*
X52541388Y-39025388D01*
X52426653Y-39224116D01*
X52338841Y-39436114D01*
X52279452Y-39657761D01*
X52249500Y-39885265D01*
X52249500Y-40114734D01*
X52279452Y-40342238D01*
X52338841Y-40563885D01*
X52426653Y-40775883D01*
X52541388Y-40974611D01*
X52649010Y-41114865D01*
X52681081Y-41156661D01*
X52843339Y-41318919D01*
X53025388Y-41458611D01*
X53224112Y-41573344D01*
X53224113Y-41573344D01*
X53224116Y-41573346D01*
X53260378Y-41588366D01*
X53436113Y-41661158D01*
X53657762Y-41720548D01*
X53885266Y-41750500D01*
X53885267Y-41750500D01*
X54114733Y-41750500D01*
X54114734Y-41750500D01*
X54342238Y-41720548D01*
X54563887Y-41661158D01*
X54775888Y-41573344D01*
X54901416Y-41500869D01*
X54961264Y-41488148D01*
X55017160Y-41513034D01*
X55020920Y-41516602D01*
X59127788Y-45623470D01*
X59127790Y-45623471D01*
X59199716Y-45664998D01*
X59199717Y-45664998D01*
X59199720Y-45665000D01*
X59207712Y-45669614D01*
X59296856Y-45693500D01*
X81539610Y-45693500D01*
X81597801Y-45712407D01*
X81609614Y-45722496D01*
X83558004Y-47670886D01*
X83585781Y-47725403D01*
X83587000Y-47740890D01*
X83587000Y-47827174D01*
X83624517Y-47967189D01*
X83696987Y-48092710D01*
X83696989Y-48092712D01*
X83696991Y-48092715D01*
X83799485Y-48195209D01*
X83799487Y-48195210D01*
X83799489Y-48195212D01*
X83925011Y-48267682D01*
X83925012Y-48267682D01*
X83925015Y-48267684D01*
X84065025Y-48305200D01*
X84065026Y-48305200D01*
X84209974Y-48305200D01*
X84209975Y-48305200D01*
X84349985Y-48267684D01*
X84349987Y-48267682D01*
X84349989Y-48267682D01*
X84475510Y-48195212D01*
X84475510Y-48195211D01*
X84475515Y-48195209D01*
X84578009Y-48092715D01*
X84650484Y-47967185D01*
X84688000Y-47827175D01*
X84688000Y-47682225D01*
X84650484Y-47542215D01*
X84650482Y-47542212D01*
X84650482Y-47542210D01*
X84578012Y-47416689D01*
X84578010Y-47416687D01*
X84578009Y-47416685D01*
X84475515Y-47314191D01*
X84475512Y-47314189D01*
X84475510Y-47314187D01*
X84349988Y-47241717D01*
X84349989Y-47241717D01*
X84320396Y-47233787D01*
X84209975Y-47204200D01*
X84209974Y-47204200D01*
X84123690Y-47204200D01*
X84065499Y-47185293D01*
X84053686Y-47175204D01*
X82339186Y-45460704D01*
X82311409Y-45406187D01*
X82320980Y-45345755D01*
X82364245Y-45302490D01*
X82409190Y-45291700D01*
X83729810Y-45291700D01*
X83788001Y-45310607D01*
X83799814Y-45320696D01*
X84726004Y-46246886D01*
X84753781Y-46301403D01*
X84755000Y-46316890D01*
X84755000Y-46403175D01*
X84767870Y-46451205D01*
X84792517Y-46543189D01*
X84864987Y-46668710D01*
X84864989Y-46668712D01*
X84864991Y-46668715D01*
X84967485Y-46771209D01*
X84967487Y-46771210D01*
X84967489Y-46771212D01*
X85093011Y-46843682D01*
X85093012Y-46843682D01*
X85093015Y-46843684D01*
X85233025Y-46881200D01*
X85233026Y-46881200D01*
X85377974Y-46881200D01*
X85377975Y-46881200D01*
X85517985Y-46843684D01*
X85517987Y-46843682D01*
X85517989Y-46843682D01*
X85643510Y-46771212D01*
X85643510Y-46771211D01*
X85643515Y-46771209D01*
X85746009Y-46668715D01*
X85748255Y-46664825D01*
X85818482Y-46543189D01*
X85818482Y-46543187D01*
X85818484Y-46543185D01*
X85856000Y-46403175D01*
X85856000Y-46258225D01*
X85818484Y-46118215D01*
X85818482Y-46118212D01*
X85818482Y-46118210D01*
X85746012Y-45992689D01*
X85746010Y-45992687D01*
X85746009Y-45992685D01*
X85643515Y-45890191D01*
X85643512Y-45890189D01*
X85643510Y-45890187D01*
X85517988Y-45817717D01*
X85517989Y-45817717D01*
X85488396Y-45809787D01*
X85377975Y-45780200D01*
X85377974Y-45780200D01*
X85291690Y-45780200D01*
X85233499Y-45761293D01*
X85221686Y-45751204D01*
X84751126Y-45280644D01*
X84230683Y-44760201D01*
X84202908Y-44705687D01*
X84212479Y-44645255D01*
X84255744Y-44601990D01*
X84300689Y-44591200D01*
X87013310Y-44591200D01*
X87071501Y-44610107D01*
X87083314Y-44620196D01*
X89116604Y-46653486D01*
X89144381Y-46708003D01*
X89145600Y-46723490D01*
X89145600Y-46809775D01*
X89173055Y-46912239D01*
X89183117Y-46949789D01*
X89255587Y-47075310D01*
X89255589Y-47075312D01*
X89255591Y-47075315D01*
X89358085Y-47177809D01*
X89358087Y-47177810D01*
X89358089Y-47177812D01*
X89483611Y-47250282D01*
X89483612Y-47250282D01*
X89483615Y-47250284D01*
X89623625Y-47287800D01*
X89623626Y-47287800D01*
X89768574Y-47287800D01*
X89768575Y-47287800D01*
X89908585Y-47250284D01*
X89908587Y-47250282D01*
X89908589Y-47250282D01*
X90034110Y-47177812D01*
X90034110Y-47177811D01*
X90034115Y-47177809D01*
X90136609Y-47075315D01*
X90197010Y-46970698D01*
X90209082Y-46949789D01*
X90209082Y-46949787D01*
X90209084Y-46949785D01*
X90246600Y-46809775D01*
X90246600Y-46664825D01*
X90209084Y-46524815D01*
X90209082Y-46524812D01*
X90209082Y-46524810D01*
X90136612Y-46399289D01*
X90136610Y-46399287D01*
X90136609Y-46399285D01*
X90034115Y-46296791D01*
X90034112Y-46296789D01*
X90034110Y-46296787D01*
X89908588Y-46224317D01*
X89908589Y-46224317D01*
X89878996Y-46216387D01*
X89768575Y-46186800D01*
X89768574Y-46186800D01*
X89682290Y-46186800D01*
X89624099Y-46167893D01*
X89612286Y-46157804D01*
X87620486Y-44166004D01*
X87592709Y-44111487D01*
X87602280Y-44051055D01*
X87645545Y-44007790D01*
X87690490Y-43997000D01*
X97285310Y-43997000D01*
X97343501Y-44015907D01*
X97355314Y-44025996D01*
X98510004Y-45180686D01*
X98537781Y-45235203D01*
X98539000Y-45250690D01*
X98539000Y-45336974D01*
X98576517Y-45476989D01*
X98648987Y-45602510D01*
X98648989Y-45602512D01*
X98648991Y-45602515D01*
X98751485Y-45705009D01*
X98751487Y-45705010D01*
X98751489Y-45705012D01*
X98877011Y-45777482D01*
X98877012Y-45777482D01*
X98877015Y-45777484D01*
X99017025Y-45815000D01*
X99017026Y-45815000D01*
X99161974Y-45815000D01*
X99161975Y-45815000D01*
X99301985Y-45777484D01*
X99301987Y-45777482D01*
X99301989Y-45777482D01*
X99427510Y-45705012D01*
X99427510Y-45705011D01*
X99427515Y-45705009D01*
X99530009Y-45602515D01*
X99530012Y-45602510D01*
X99602482Y-45476989D01*
X99602482Y-45476987D01*
X99602484Y-45476985D01*
X99640000Y-45336975D01*
X99640000Y-45192025D01*
X99602484Y-45052015D01*
X99602482Y-45052012D01*
X99602482Y-45052010D01*
X99530012Y-44926489D01*
X99530010Y-44926487D01*
X99530009Y-44926485D01*
X99427515Y-44823991D01*
X99427512Y-44823989D01*
X99427510Y-44823987D01*
X99301988Y-44751517D01*
X99301989Y-44751517D01*
X99272396Y-44743587D01*
X99161975Y-44714000D01*
X99161974Y-44714000D01*
X99075690Y-44714000D01*
X99017499Y-44695093D01*
X99005686Y-44685004D01*
X98346678Y-44025996D01*
X97686712Y-43366030D01*
X97606788Y-43319886D01*
X97517644Y-43296000D01*
X97517642Y-43296000D01*
X87357390Y-43296000D01*
X87299199Y-43277093D01*
X87287386Y-43267004D01*
X82114786Y-38094404D01*
X82087009Y-38039887D01*
X82096580Y-37979455D01*
X82139845Y-37936190D01*
X82184790Y-37925400D01*
X87563710Y-37925400D01*
X87621901Y-37944307D01*
X87633714Y-37954396D01*
X88859504Y-39180186D01*
X88887281Y-39234703D01*
X88888500Y-39250190D01*
X88888500Y-39336475D01*
X88915651Y-39437804D01*
X88926017Y-39476489D01*
X88998487Y-39602010D01*
X88998489Y-39602012D01*
X88998491Y-39602015D01*
X89100985Y-39704509D01*
X89100987Y-39704510D01*
X89100989Y-39704512D01*
X89226511Y-39776982D01*
X89226512Y-39776982D01*
X89226515Y-39776984D01*
X89366525Y-39814500D01*
X89366526Y-39814500D01*
X89511474Y-39814500D01*
X89511475Y-39814500D01*
X89651485Y-39776984D01*
X89651487Y-39776982D01*
X89651489Y-39776982D01*
X89777010Y-39704512D01*
X89777010Y-39704511D01*
X89777015Y-39704509D01*
X89879509Y-39602015D01*
X89901522Y-39563887D01*
X89951982Y-39476489D01*
X89951982Y-39476487D01*
X89951984Y-39476485D01*
X89989500Y-39336475D01*
X89989500Y-39191525D01*
X89951984Y-39051515D01*
X89951982Y-39051512D01*
X89951982Y-39051510D01*
X89879512Y-38925989D01*
X89879510Y-38925987D01*
X89879509Y-38925985D01*
X89777015Y-38823491D01*
X89777012Y-38823489D01*
X89777010Y-38823487D01*
X89651488Y-38751017D01*
X89651489Y-38751017D01*
X89621896Y-38743087D01*
X89511475Y-38713500D01*
X89511474Y-38713500D01*
X89425190Y-38713500D01*
X89366999Y-38694593D01*
X89355186Y-38684504D01*
X88696070Y-38025388D01*
X87991883Y-37321201D01*
X87964108Y-37266687D01*
X87973679Y-37206255D01*
X88016944Y-37162990D01*
X88061889Y-37152200D01*
X95913010Y-37152200D01*
X95971201Y-37171107D01*
X95983014Y-37181196D01*
X97914404Y-39112586D01*
X97942181Y-39167103D01*
X97943400Y-39182590D01*
X97943400Y-39268875D01*
X97956810Y-39318921D01*
X97980917Y-39408889D01*
X98053387Y-39534410D01*
X98053389Y-39534412D01*
X98053391Y-39534415D01*
X98155885Y-39636909D01*
X98155887Y-39636910D01*
X98155889Y-39636912D01*
X98281411Y-39709382D01*
X98281412Y-39709382D01*
X98281415Y-39709384D01*
X98421425Y-39746900D01*
X98421426Y-39746900D01*
X98566374Y-39746900D01*
X98566375Y-39746900D01*
X98706385Y-39709384D01*
X98706387Y-39709382D01*
X98706389Y-39709382D01*
X98831910Y-39636912D01*
X98831910Y-39636911D01*
X98831915Y-39636909D01*
X98934409Y-39534415D01*
X98937201Y-39529579D01*
X99006882Y-39408889D01*
X99006882Y-39408887D01*
X99006884Y-39408885D01*
X99044400Y-39268875D01*
X99044400Y-39123925D01*
X99006884Y-38983915D01*
X99006882Y-38983912D01*
X99006882Y-38983910D01*
X98934412Y-38858389D01*
X98934410Y-38858387D01*
X98934409Y-38858385D01*
X98831915Y-38755891D01*
X98831912Y-38755889D01*
X98831910Y-38755887D01*
X98706388Y-38683417D01*
X98706389Y-38683417D01*
X98655917Y-38669893D01*
X98566375Y-38645900D01*
X98566374Y-38645900D01*
X98480090Y-38645900D01*
X98421899Y-38626993D01*
X98410086Y-38616904D01*
X97364292Y-37571110D01*
X96314412Y-36521230D01*
X96234488Y-36475086D01*
X96145344Y-36451200D01*
X96145342Y-36451200D01*
X84263387Y-36451200D01*
X84205196Y-36432293D01*
X84169232Y-36382793D01*
X84169232Y-36321607D01*
X84193381Y-36282198D01*
X84318919Y-36156661D01*
X84458611Y-35974612D01*
X84573344Y-35775888D01*
X84661158Y-35563887D01*
X84720548Y-35342238D01*
X84750500Y-35114734D01*
X84750500Y-34885266D01*
X84720548Y-34657762D01*
X84661158Y-34436113D01*
X84587767Y-34258931D01*
X84573346Y-34224116D01*
X84570623Y-34219400D01*
X84458611Y-34025388D01*
X84318919Y-33843339D01*
X84156661Y-33681081D01*
X84114865Y-33649010D01*
X83974611Y-33541388D01*
X83889095Y-33492016D01*
X83775888Y-33426656D01*
X83775884Y-33426654D01*
X83775880Y-33426652D01*
X83700826Y-33395564D01*
X83654300Y-33355828D01*
X83640016Y-33296333D01*
X83663431Y-33239805D01*
X83715600Y-33207835D01*
X83738711Y-33205100D01*
X99646611Y-33205100D01*
X99704802Y-33224007D01*
X99716614Y-33234096D01*
X99953030Y-33470511D01*
X99953031Y-33470513D01*
X100018287Y-33535768D01*
X100018289Y-33535770D01*
X100067202Y-33564010D01*
X100098212Y-33581914D01*
X100187356Y-33605800D01*
X100187358Y-33605800D01*
X109015842Y-33605800D01*
X109015844Y-33605800D01*
X109104988Y-33581914D01*
X109114086Y-33576661D01*
X109118634Y-33574036D01*
X109136392Y-33563782D01*
X109184912Y-33535770D01*
X110386486Y-32334196D01*
X110441003Y-32306419D01*
X110456490Y-32305200D01*
X110542774Y-32305200D01*
X110542775Y-32305200D01*
X110682785Y-32267684D01*
X110682787Y-32267682D01*
X110682789Y-32267682D01*
X110808310Y-32195212D01*
X110808310Y-32195211D01*
X110808315Y-32195209D01*
X110910809Y-32092715D01*
X110925603Y-32067091D01*
X110983282Y-31967189D01*
X110983282Y-31967187D01*
X110983284Y-31967185D01*
X111011879Y-31860467D01*
X111045201Y-31809157D01*
X111102322Y-31787230D01*
X111161423Y-31803065D01*
X111177506Y-31816089D01*
X111199932Y-31838514D01*
X111202088Y-31840670D01*
X111282012Y-31886814D01*
X111371156Y-31910700D01*
X123374010Y-31910700D01*
X123432201Y-31929607D01*
X123444014Y-31939696D01*
X125335314Y-33830996D01*
X125363091Y-33885513D01*
X125353520Y-33945945D01*
X125310255Y-33989210D01*
X125265310Y-34000000D01*
X116613999Y-34000000D01*
X116555808Y-33981093D01*
X116535457Y-33961267D01*
X116394270Y-33777268D01*
X116394268Y-33777266D01*
X116394265Y-33777262D01*
X116222738Y-33605735D01*
X116222733Y-33605731D01*
X116222731Y-33605729D01*
X116030292Y-33458066D01*
X116030289Y-33458064D01*
X115820212Y-33336776D01*
X115820208Y-33336774D01*
X115820204Y-33336772D01*
X115596105Y-33243948D01*
X115596104Y-33243947D01*
X115596100Y-33243946D01*
X115361789Y-33181162D01*
X115361786Y-33181161D01*
X115361784Y-33181161D01*
X115121289Y-33149500D01*
X115121288Y-33149500D01*
X114878712Y-33149500D01*
X114878710Y-33149500D01*
X114638218Y-33181161D01*
X114638213Y-33181161D01*
X114403907Y-33243944D01*
X114403894Y-33243948D01*
X114179795Y-33336772D01*
X113969707Y-33458066D01*
X113777268Y-33605729D01*
X113605729Y-33777268D01*
X113464543Y-33961267D01*
X113414119Y-33995923D01*
X113386001Y-34000000D01*
X103500000Y-34000000D01*
X103500000Y-70000000D01*
X139400500Y-70000000D01*
X139458691Y-70018907D01*
X139494655Y-70068407D01*
X139499500Y-70099000D01*
X139499500Y-109400500D01*
X139480593Y-109458691D01*
X139431093Y-109494655D01*
X139400500Y-109499500D01*
X50099000Y-109499500D01*
X50040809Y-109480593D01*
X50004845Y-109431093D01*
X50000000Y-109400500D01*
X50000000Y-106274600D01*
X50018907Y-106216409D01*
X50068407Y-106180445D01*
X50099000Y-106175600D01*
X87064068Y-106175600D01*
X87122259Y-106194507D01*
X87134070Y-106204595D01*
X87161983Y-106232507D01*
X87161989Y-106232512D01*
X87287511Y-106304982D01*
X87287512Y-106304982D01*
X87287515Y-106304984D01*
X87427525Y-106342500D01*
X87427526Y-106342500D01*
X87572474Y-106342500D01*
X87572475Y-106342500D01*
X87712485Y-106304984D01*
X87712487Y-106304982D01*
X87712489Y-106304982D01*
X87838010Y-106232512D01*
X87838010Y-106232511D01*
X87838015Y-106232509D01*
X87940509Y-106130015D01*
X88012984Y-106004485D01*
X88046686Y-105878710D01*
X134149500Y-105878710D01*
X134149500Y-106121289D01*
X134181161Y-106361781D01*
X134181161Y-106361786D01*
X134243944Y-106596092D01*
X134243948Y-106596105D01*
X134336772Y-106820204D01*
X134336774Y-106820208D01*
X134336776Y-106820212D01*
X134458064Y-107030289D01*
X134458066Y-107030292D01*
X134605729Y-107222731D01*
X134605731Y-107222733D01*
X134605735Y-107222738D01*
X134777262Y-107394265D01*
X134777266Y-107394268D01*
X134777268Y-107394270D01*
X134969707Y-107541933D01*
X134969711Y-107541936D01*
X135179788Y-107663224D01*
X135403900Y-107756054D01*
X135638211Y-107818838D01*
X135878712Y-107850500D01*
X135878713Y-107850500D01*
X136121287Y-107850500D01*
X136121288Y-107850500D01*
X136361789Y-107818838D01*
X136596100Y-107756054D01*
X136820212Y-107663224D01*
X137030289Y-107541936D01*
X137222738Y-107394265D01*
X137394265Y-107222738D01*
X137541936Y-107030289D01*
X137663224Y-106820212D01*
X137756054Y-106596100D01*
X137818838Y-106361789D01*
X137850500Y-106121288D01*
X137850500Y-105878712D01*
X137818838Y-105638211D01*
X137756054Y-105403900D01*
X137663224Y-105179788D01*
X137541936Y-104969711D01*
X137529392Y-104953363D01*
X137394270Y-104777268D01*
X137394268Y-104777266D01*
X137394265Y-104777262D01*
X137222738Y-104605735D01*
X137222733Y-104605731D01*
X137222731Y-104605729D01*
X137030292Y-104458066D01*
X137030289Y-104458064D01*
X136820212Y-104336776D01*
X136820208Y-104336774D01*
X136820204Y-104336772D01*
X136596105Y-104243948D01*
X136596104Y-104243947D01*
X136596100Y-104243946D01*
X136361789Y-104181162D01*
X136361786Y-104181161D01*
X136361784Y-104181161D01*
X136121289Y-104149500D01*
X136121288Y-104149500D01*
X135878712Y-104149500D01*
X135878710Y-104149500D01*
X135638218Y-104181161D01*
X135638213Y-104181161D01*
X135403907Y-104243944D01*
X135403894Y-104243948D01*
X135179795Y-104336772D01*
X134969707Y-104458066D01*
X134777268Y-104605729D01*
X134605729Y-104777268D01*
X134458066Y-104969707D01*
X134336772Y-105179795D01*
X134243948Y-105403894D01*
X134243944Y-105403907D01*
X134181161Y-105638213D01*
X134181161Y-105638218D01*
X134149500Y-105878710D01*
X88046686Y-105878710D01*
X88050500Y-105864475D01*
X88050500Y-105719525D01*
X88012984Y-105579515D01*
X88012982Y-105579512D01*
X88012982Y-105579510D01*
X87940512Y-105453989D01*
X87940510Y-105453987D01*
X87940509Y-105453985D01*
X87838015Y-105351491D01*
X87838012Y-105351489D01*
X87838010Y-105351487D01*
X87712488Y-105279017D01*
X87712489Y-105279017D01*
X87682896Y-105271087D01*
X87572475Y-105241500D01*
X87427525Y-105241500D01*
X87365790Y-105258041D01*
X87287510Y-105279017D01*
X87161989Y-105351487D01*
X87161988Y-105351488D01*
X87161985Y-105351490D01*
X87161985Y-105351491D01*
X87067870Y-105445605D01*
X87013356Y-105473381D01*
X86997869Y-105474600D01*
X56239987Y-105474600D01*
X56181796Y-105455693D01*
X56145832Y-105406193D01*
X56145832Y-105345007D01*
X56169981Y-105305598D01*
X56318919Y-105156661D01*
X56458611Y-104974612D01*
X56573344Y-104775888D01*
X56661158Y-104563887D01*
X56671783Y-104524234D01*
X71534500Y-104524234D01*
X71534500Y-104675766D01*
X71568034Y-104800919D01*
X71573720Y-104822139D01*
X71649481Y-104953360D01*
X71649483Y-104953362D01*
X71649485Y-104953365D01*
X71756635Y-105060515D01*
X71756637Y-105060516D01*
X71756639Y-105060518D01*
X71887861Y-105136279D01*
X71887859Y-105136279D01*
X71887863Y-105136280D01*
X71887865Y-105136281D01*
X72034234Y-105175500D01*
X72034236Y-105175500D01*
X72185764Y-105175500D01*
X72185766Y-105175500D01*
X72332135Y-105136281D01*
X72332137Y-105136279D01*
X72332139Y-105136279D01*
X72463360Y-105060518D01*
X72463360Y-105060517D01*
X72463365Y-105060515D01*
X72570515Y-104953365D01*
X72634893Y-104841858D01*
X72680362Y-104800919D01*
X72741212Y-104794523D01*
X72790630Y-104821354D01*
X72855785Y-104886509D01*
X72855787Y-104886510D01*
X72855789Y-104886512D01*
X72981311Y-104958982D01*
X72981312Y-104958982D01*
X72981315Y-104958984D01*
X73121325Y-104996500D01*
X73121326Y-104996500D01*
X73266274Y-104996500D01*
X73266275Y-104996500D01*
X73406285Y-104958984D01*
X73406287Y-104958982D01*
X73406289Y-104958982D01*
X73531810Y-104886512D01*
X73531810Y-104886511D01*
X73531815Y-104886509D01*
X73634309Y-104784015D01*
X73634312Y-104784010D01*
X73706782Y-104658489D01*
X73706782Y-104658487D01*
X73706784Y-104658485D01*
X73742757Y-104524234D01*
X77314500Y-104524234D01*
X77314500Y-104675766D01*
X77348034Y-104800919D01*
X77353720Y-104822139D01*
X77429481Y-104953360D01*
X77429483Y-104953362D01*
X77429485Y-104953365D01*
X77536635Y-105060515D01*
X77536637Y-105060516D01*
X77536639Y-105060518D01*
X77667861Y-105136279D01*
X77667859Y-105136279D01*
X77667863Y-105136280D01*
X77667865Y-105136281D01*
X77814234Y-105175500D01*
X77814236Y-105175500D01*
X77965764Y-105175500D01*
X77965766Y-105175500D01*
X78112135Y-105136281D01*
X78112137Y-105136279D01*
X78112139Y-105136279D01*
X78243360Y-105060518D01*
X78243360Y-105060517D01*
X78243365Y-105060515D01*
X78350515Y-104953365D01*
X78389113Y-104886512D01*
X78426279Y-104822139D01*
X78426279Y-104822137D01*
X78426281Y-104822135D01*
X78465500Y-104675766D01*
X78465500Y-104524234D01*
X78426281Y-104377865D01*
X78426279Y-104377862D01*
X78426279Y-104377860D01*
X78350518Y-104246639D01*
X78350516Y-104246637D01*
X78350515Y-104246635D01*
X78243365Y-104139485D01*
X78243362Y-104139483D01*
X78243360Y-104139481D01*
X78112138Y-104063720D01*
X78112140Y-104063720D01*
X78055347Y-104048503D01*
X77965766Y-104024500D01*
X77814234Y-104024500D01*
X77724652Y-104048503D01*
X77667860Y-104063720D01*
X77536639Y-104139481D01*
X77429481Y-104246639D01*
X77353720Y-104377860D01*
X77353719Y-104377865D01*
X77314500Y-104524234D01*
X73742757Y-104524234D01*
X73744300Y-104518475D01*
X73744300Y-104373525D01*
X73706784Y-104233515D01*
X73706782Y-104233512D01*
X73706782Y-104233510D01*
X73634312Y-104107989D01*
X73634310Y-104107987D01*
X73634309Y-104107985D01*
X73531815Y-104005491D01*
X73531812Y-104005489D01*
X73531810Y-104005487D01*
X73406288Y-103933017D01*
X73406289Y-103933017D01*
X73339049Y-103915000D01*
X73266275Y-103895500D01*
X73121325Y-103895500D01*
X73068372Y-103909689D01*
X72981310Y-103933017D01*
X72855789Y-104005487D01*
X72753289Y-104107987D01*
X72700149Y-104200027D01*
X72654679Y-104240967D01*
X72593829Y-104247362D01*
X72544411Y-104220531D01*
X72463365Y-104139485D01*
X72463362Y-104139483D01*
X72463360Y-104139481D01*
X72332138Y-104063720D01*
X72332140Y-104063720D01*
X72275347Y-104048503D01*
X72185766Y-104024500D01*
X72034234Y-104024500D01*
X71944652Y-104048503D01*
X71887860Y-104063720D01*
X71756639Y-104139481D01*
X71649481Y-104246639D01*
X71573720Y-104377860D01*
X71573719Y-104377865D01*
X71534500Y-104524234D01*
X56671783Y-104524234D01*
X56720548Y-104342238D01*
X56750500Y-104114734D01*
X56750500Y-103885266D01*
X56720548Y-103657762D01*
X56661158Y-103436113D01*
X56594251Y-103274585D01*
X56573346Y-103224116D01*
X56572635Y-103222885D01*
X56458611Y-103025388D01*
X56318919Y-102843339D01*
X56156661Y-102681081D01*
X56089175Y-102629297D01*
X55974611Y-102541388D01*
X55775883Y-102426653D01*
X55563885Y-102338841D01*
X55342238Y-102279452D01*
X55114734Y-102249500D01*
X54885266Y-102249500D01*
X54885265Y-102249500D01*
X54657761Y-102279452D01*
X54436114Y-102338841D01*
X54224116Y-102426653D01*
X54025388Y-102541388D01*
X53843342Y-102681078D01*
X53681078Y-102843342D01*
X53541388Y-103025388D01*
X53426653Y-103224116D01*
X53338841Y-103436114D01*
X53279452Y-103657761D01*
X53249500Y-103885265D01*
X53249500Y-104114734D01*
X53279452Y-104342238D01*
X53338841Y-104563885D01*
X53426653Y-104775883D01*
X53490524Y-104886512D01*
X53541389Y-104974612D01*
X53681081Y-105156661D01*
X53830018Y-105305598D01*
X53857794Y-105360113D01*
X53848223Y-105420545D01*
X53804958Y-105463810D01*
X53760013Y-105474600D01*
X50099000Y-105474600D01*
X50040809Y-105455693D01*
X50004845Y-105406193D01*
X50000000Y-105375600D01*
X50000000Y-101720900D01*
X50018907Y-101662709D01*
X50068407Y-101626745D01*
X50099000Y-101621900D01*
X72686210Y-101621900D01*
X72744401Y-101640807D01*
X72780365Y-101690307D01*
X72781836Y-101746522D01*
X72754800Y-101847425D01*
X72754800Y-101992375D01*
X72759468Y-102009796D01*
X72771360Y-102054177D01*
X72768157Y-102115278D01*
X72729652Y-102162828D01*
X72675733Y-102178800D01*
X62307532Y-102178800D01*
X62249341Y-102159893D01*
X62237529Y-102149804D01*
X62176515Y-102088791D01*
X62176510Y-102088787D01*
X62050988Y-102016317D01*
X62050989Y-102016317D01*
X62012952Y-102006125D01*
X61910975Y-101978800D01*
X61766025Y-101978800D01*
X61724324Y-101989974D01*
X61626010Y-102016317D01*
X61500489Y-102088787D01*
X61397987Y-102191289D01*
X61325517Y-102316810D01*
X61325516Y-102316815D01*
X61288000Y-102456825D01*
X61288000Y-102601775D01*
X61306072Y-102669219D01*
X61325517Y-102741789D01*
X61397987Y-102867310D01*
X61397989Y-102867312D01*
X61397991Y-102867315D01*
X61500485Y-102969809D01*
X61500487Y-102969810D01*
X61500489Y-102969812D01*
X61626011Y-103042282D01*
X61626012Y-103042282D01*
X61626015Y-103042284D01*
X61766025Y-103079800D01*
X61766026Y-103079800D01*
X61910974Y-103079800D01*
X61910975Y-103079800D01*
X62050985Y-103042284D01*
X62050987Y-103042282D01*
X62050989Y-103042282D01*
X62176510Y-102969812D01*
X62176510Y-102969811D01*
X62176515Y-102969809D01*
X62208399Y-102937925D01*
X62237529Y-102908796D01*
X62292046Y-102881019D01*
X62307532Y-102879800D01*
X84975810Y-102879800D01*
X85034001Y-102898707D01*
X85045814Y-102908796D01*
X85932514Y-103795496D01*
X85960291Y-103850013D01*
X85950720Y-103910445D01*
X85907455Y-103953710D01*
X85862510Y-103964500D01*
X84501190Y-103964500D01*
X84442999Y-103945593D01*
X84431186Y-103935504D01*
X84276696Y-103781014D01*
X84248919Y-103726497D01*
X84247700Y-103711010D01*
X84247700Y-103624725D01*
X84210184Y-103484715D01*
X84210182Y-103484712D01*
X84210182Y-103484710D01*
X84137712Y-103359189D01*
X84137710Y-103359187D01*
X84137709Y-103359185D01*
X84035215Y-103256691D01*
X84035212Y-103256689D01*
X84035210Y-103256687D01*
X83909688Y-103184217D01*
X83909689Y-103184217D01*
X83880096Y-103176287D01*
X83769675Y-103146700D01*
X83624725Y-103146700D01*
X83569081Y-103161610D01*
X83484710Y-103184217D01*
X83359189Y-103256687D01*
X83256687Y-103359189D01*
X83184217Y-103484710D01*
X83179421Y-103502609D01*
X83146700Y-103624725D01*
X83146700Y-103769675D01*
X83150695Y-103784585D01*
X83184217Y-103909689D01*
X83256687Y-104035210D01*
X83256689Y-104035212D01*
X83256691Y-104035215D01*
X83359185Y-104137709D01*
X83359187Y-104137710D01*
X83359189Y-104137712D01*
X83484711Y-104210182D01*
X83484712Y-104210182D01*
X83484715Y-104210184D01*
X83624725Y-104247700D01*
X83711010Y-104247700D01*
X83769201Y-104266607D01*
X83781013Y-104276696D01*
X84099788Y-104595470D01*
X84169262Y-104635581D01*
X84169268Y-104635584D01*
X84179712Y-104641614D01*
X84268856Y-104665500D01*
X84268858Y-104665500D01*
X101396745Y-104665500D01*
X101403178Y-104664653D01*
X101403392Y-104666285D01*
X101445076Y-104666281D01*
X101457526Y-104669617D01*
X101470522Y-104673099D01*
X101470524Y-104673100D01*
X101470525Y-104673100D01*
X101615474Y-104673100D01*
X101615475Y-104673100D01*
X101755485Y-104635584D01*
X101755487Y-104635582D01*
X101755489Y-104635582D01*
X101881010Y-104563112D01*
X101881010Y-104563111D01*
X101881015Y-104563109D01*
X101983509Y-104460615D01*
X102055984Y-104335085D01*
X102093500Y-104195075D01*
X102093500Y-104050125D01*
X102055984Y-103910115D01*
X102055982Y-103910112D01*
X102055982Y-103910110D01*
X101983512Y-103784589D01*
X101983510Y-103784587D01*
X101983509Y-103784585D01*
X101881015Y-103682091D01*
X101881012Y-103682089D01*
X101881010Y-103682087D01*
X101755488Y-103609617D01*
X101755489Y-103609617D01*
X101725896Y-103601687D01*
X101615475Y-103572100D01*
X101470525Y-103572100D01*
X101408790Y-103588641D01*
X101330510Y-103609617D01*
X101204989Y-103682087D01*
X101102487Y-103784589D01*
X101027195Y-103915000D01*
X100981726Y-103955941D01*
X100941459Y-103964500D01*
X92930409Y-103964500D01*
X92872218Y-103945593D01*
X92836254Y-103896093D01*
X92834782Y-103839877D01*
X92846674Y-103795496D01*
X92853700Y-103769275D01*
X92853700Y-103682990D01*
X92872607Y-103624799D01*
X92882696Y-103612986D01*
X96331086Y-100164596D01*
X96385603Y-100136819D01*
X96401090Y-100135600D01*
X120015468Y-100135600D01*
X120073659Y-100154507D01*
X120085471Y-100164596D01*
X120146484Y-100225608D01*
X120146489Y-100225612D01*
X120272011Y-100298082D01*
X120272012Y-100298082D01*
X120272015Y-100298084D01*
X120412025Y-100335600D01*
X120412026Y-100335600D01*
X120556974Y-100335600D01*
X120556975Y-100335600D01*
X120696985Y-100298084D01*
X120696987Y-100298082D01*
X120696989Y-100298082D01*
X120822510Y-100225612D01*
X120822510Y-100225611D01*
X120822515Y-100225609D01*
X120925009Y-100123115D01*
X120997484Y-99997585D01*
X121035000Y-99857575D01*
X121035000Y-99712625D01*
X120997484Y-99572615D01*
X120997482Y-99572612D01*
X120997482Y-99572610D01*
X120925012Y-99447089D01*
X120925010Y-99447087D01*
X120925009Y-99447085D01*
X120822515Y-99344591D01*
X120822512Y-99344589D01*
X120822510Y-99344587D01*
X120696988Y-99272117D01*
X120696989Y-99272117D01*
X120667396Y-99264187D01*
X120556975Y-99234600D01*
X120412025Y-99234600D01*
X120350290Y-99251141D01*
X120272010Y-99272117D01*
X120146489Y-99344587D01*
X120146484Y-99344591D01*
X120085471Y-99405604D01*
X120030954Y-99433381D01*
X120015468Y-99434600D01*
X96168756Y-99434600D01*
X96079612Y-99458486D01*
X95999688Y-99504630D01*
X92387014Y-103117304D01*
X92332497Y-103145081D01*
X92317010Y-103146300D01*
X92230725Y-103146300D01*
X92173588Y-103161610D01*
X92090710Y-103183817D01*
X91965189Y-103256287D01*
X91862687Y-103358789D01*
X91808006Y-103453500D01*
X91762537Y-103494441D01*
X91722270Y-103503000D01*
X91121099Y-103503000D01*
X91062908Y-103484093D01*
X91026944Y-103434593D01*
X91025473Y-103378376D01*
X91050499Y-103284977D01*
X91050500Y-103284975D01*
X91050500Y-103140025D01*
X91044412Y-103117304D01*
X91012984Y-103000015D01*
X91012982Y-103000012D01*
X91012982Y-103000010D01*
X90940512Y-102874489D01*
X90940510Y-102874487D01*
X90940509Y-102874485D01*
X90853532Y-102787508D01*
X90825757Y-102732994D01*
X90835328Y-102672562D01*
X90878593Y-102629297D01*
X90897903Y-102621884D01*
X91010985Y-102591584D01*
X91010987Y-102591582D01*
X91010989Y-102591582D01*
X91136510Y-102519112D01*
X91136510Y-102519111D01*
X91136515Y-102519109D01*
X91239009Y-102416615D01*
X91258364Y-102383091D01*
X91311482Y-102291089D01*
X91311482Y-102291087D01*
X91311484Y-102291085D01*
X91349000Y-102151075D01*
X91349000Y-102006125D01*
X91311484Y-101866115D01*
X91311482Y-101866112D01*
X91311482Y-101866110D01*
X91239012Y-101740589D01*
X91239010Y-101740587D01*
X91239009Y-101740585D01*
X91136515Y-101638091D01*
X91136512Y-101638089D01*
X91136510Y-101638087D01*
X91010988Y-101565617D01*
X91010989Y-101565617D01*
X90970687Y-101554818D01*
X90870975Y-101528100D01*
X90726025Y-101528100D01*
X90664290Y-101544641D01*
X90586010Y-101565617D01*
X90460489Y-101638087D01*
X90357987Y-101740589D01*
X90285517Y-101866110D01*
X90285516Y-101866115D01*
X90248000Y-102006125D01*
X90248000Y-102151075D01*
X90274373Y-102249500D01*
X90285517Y-102291089D01*
X90357987Y-102416610D01*
X90357989Y-102416612D01*
X90357991Y-102416615D01*
X90444966Y-102503590D01*
X90472742Y-102558105D01*
X90463171Y-102618537D01*
X90419906Y-102661802D01*
X90400588Y-102669217D01*
X90287515Y-102699516D01*
X90287513Y-102699516D01*
X90287509Y-102699518D01*
X90161989Y-102771987D01*
X90161988Y-102771988D01*
X90161985Y-102771990D01*
X90161985Y-102771991D01*
X90077601Y-102856374D01*
X90023087Y-102884150D01*
X89962655Y-102874579D01*
X89937599Y-102856375D01*
X89838015Y-102756791D01*
X89838012Y-102756789D01*
X89838010Y-102756787D01*
X89712488Y-102684317D01*
X89712489Y-102684317D01*
X89656143Y-102669219D01*
X89572475Y-102646800D01*
X89427525Y-102646800D01*
X89343857Y-102669219D01*
X89332042Y-102672385D01*
X89330683Y-102672749D01*
X89269582Y-102669546D01*
X89222032Y-102631041D01*
X89213593Y-102615002D01*
X89211985Y-102611120D01*
X89211984Y-102611115D01*
X89211980Y-102611109D01*
X89211979Y-102611105D01*
X89139512Y-102485589D01*
X89139510Y-102485587D01*
X89139509Y-102485585D01*
X89037015Y-102383091D01*
X89037012Y-102383089D01*
X89037010Y-102383087D01*
X88911488Y-102310617D01*
X88911489Y-102310617D01*
X88838595Y-102291085D01*
X88771475Y-102273100D01*
X88626525Y-102273100D01*
X88564790Y-102289641D01*
X88486510Y-102310617D01*
X88360989Y-102383087D01*
X88258487Y-102485589D01*
X88186017Y-102611110D01*
X88166401Y-102684317D01*
X88148500Y-102751125D01*
X88148500Y-102896075D01*
X88151909Y-102908796D01*
X88186017Y-103036089D01*
X88258487Y-103161610D01*
X88258489Y-103161612D01*
X88258491Y-103161615D01*
X88360985Y-103264109D01*
X88454783Y-103318263D01*
X88495724Y-103363733D01*
X88502120Y-103424583D01*
X88471527Y-103477571D01*
X88415631Y-103502458D01*
X88405283Y-103503000D01*
X87022644Y-103503000D01*
X86964453Y-103484093D01*
X86928489Y-103434593D01*
X86928489Y-103373407D01*
X86938353Y-103354663D01*
X86937265Y-103354035D01*
X87012982Y-103222889D01*
X87012982Y-103222887D01*
X87012984Y-103222885D01*
X87050500Y-103082875D01*
X87050500Y-102937925D01*
X87012984Y-102797915D01*
X87012982Y-102797912D01*
X87012982Y-102797910D01*
X86940512Y-102672389D01*
X86940510Y-102672387D01*
X86940509Y-102672385D01*
X86838015Y-102569891D01*
X86838012Y-102569889D01*
X86838010Y-102569887D01*
X86712488Y-102497417D01*
X86712489Y-102497417D01*
X86682896Y-102489487D01*
X86572475Y-102459900D01*
X86572474Y-102459900D01*
X86486189Y-102459900D01*
X86427998Y-102440993D01*
X86416185Y-102430904D01*
X85725866Y-101740585D01*
X84976212Y-100990930D01*
X84896288Y-100944786D01*
X84807144Y-100920900D01*
X50099000Y-100920900D01*
X50040809Y-100901993D01*
X50004845Y-100852493D01*
X50000000Y-100821900D01*
X50000000Y-92659600D01*
X50018907Y-92601409D01*
X50068407Y-92565445D01*
X50099000Y-92560600D01*
X60578642Y-92560600D01*
X60578644Y-92560600D01*
X60667788Y-92536714D01*
X60747712Y-92490570D01*
X61062484Y-92175796D01*
X61117001Y-92148019D01*
X61132488Y-92146800D01*
X61218774Y-92146800D01*
X61218775Y-92146800D01*
X61358785Y-92109284D01*
X61358787Y-92109282D01*
X61358789Y-92109282D01*
X61484310Y-92036812D01*
X61484310Y-92036811D01*
X61484315Y-92036809D01*
X61586809Y-91934315D01*
X61630650Y-91858381D01*
X61659282Y-91808789D01*
X61659282Y-91808787D01*
X61659284Y-91808785D01*
X61696800Y-91668775D01*
X61696800Y-91523825D01*
X61659284Y-91383815D01*
X61659282Y-91383812D01*
X61659282Y-91383810D01*
X61586812Y-91258289D01*
X61586810Y-91258287D01*
X61586809Y-91258285D01*
X61484315Y-91155791D01*
X61484312Y-91155789D01*
X61484310Y-91155787D01*
X61358788Y-91083317D01*
X61358789Y-91083317D01*
X61300133Y-91067600D01*
X61218775Y-91045800D01*
X61073825Y-91045800D01*
X61012090Y-91062341D01*
X60933810Y-91083317D01*
X60808289Y-91155787D01*
X60705787Y-91258289D01*
X60633317Y-91383810D01*
X60595800Y-91523825D01*
X60595800Y-91610110D01*
X60576893Y-91668301D01*
X60566804Y-91680114D01*
X60416314Y-91830604D01*
X60361797Y-91858381D01*
X60346310Y-91859600D01*
X57774688Y-91859600D01*
X57716497Y-91840693D01*
X57680533Y-91791193D01*
X57679061Y-91734977D01*
X57696800Y-91668775D01*
X57696800Y-91523825D01*
X57659284Y-91383815D01*
X57659282Y-91383812D01*
X57659282Y-91383810D01*
X57586812Y-91258289D01*
X57586810Y-91258287D01*
X57586809Y-91258285D01*
X57484315Y-91155791D01*
X57484312Y-91155789D01*
X57484310Y-91155787D01*
X57358788Y-91083317D01*
X57358789Y-91083317D01*
X57300133Y-91067600D01*
X57218775Y-91045800D01*
X57073825Y-91045800D01*
X57012090Y-91062341D01*
X56933810Y-91083317D01*
X56808289Y-91155787D01*
X56705787Y-91258289D01*
X56633317Y-91383810D01*
X56595800Y-91523825D01*
X56595800Y-91668775D01*
X56613539Y-91734977D01*
X56610336Y-91796078D01*
X56571831Y-91843628D01*
X56517912Y-91859600D01*
X50099000Y-91859600D01*
X50040809Y-91840693D01*
X50004845Y-91791193D01*
X50000000Y-91760600D01*
X50000000Y-89500001D01*
X50000000Y-89500000D01*
X49999999Y-89500000D01*
X20000001Y-89500000D01*
X20000000Y-89500000D01*
X20000000Y-89500001D01*
X20000000Y-109400500D01*
X19981093Y-109458691D01*
X19931593Y-109494655D01*
X19901000Y-109499500D01*
X10599500Y-109499500D01*
X10541309Y-109480593D01*
X10505345Y-109431093D01*
X10500500Y-109400500D01*
X10500500Y-105878710D01*
X12149500Y-105878710D01*
X12149500Y-106121289D01*
X12181161Y-106361781D01*
X12181161Y-106361786D01*
X12243944Y-106596092D01*
X12243948Y-106596105D01*
X12336772Y-106820204D01*
X12336774Y-106820208D01*
X12336776Y-106820212D01*
X12458064Y-107030289D01*
X12458066Y-107030292D01*
X12605729Y-107222731D01*
X12605731Y-107222733D01*
X12605735Y-107222738D01*
X12777262Y-107394265D01*
X12777266Y-107394268D01*
X12777268Y-107394270D01*
X12969707Y-107541933D01*
X12969711Y-107541936D01*
X13179788Y-107663224D01*
X13403900Y-107756054D01*
X13638211Y-107818838D01*
X13878712Y-107850500D01*
X13878713Y-107850500D01*
X14121287Y-107850500D01*
X14121288Y-107850500D01*
X14361789Y-107818838D01*
X14596100Y-107756054D01*
X14820212Y-107663224D01*
X15030289Y-107541936D01*
X15222738Y-107394265D01*
X15394265Y-107222738D01*
X15541936Y-107030289D01*
X15663224Y-106820212D01*
X15756054Y-106596100D01*
X15818838Y-106361789D01*
X15850500Y-106121288D01*
X15850500Y-105878712D01*
X15818838Y-105638211D01*
X15756054Y-105403900D01*
X15663224Y-105179788D01*
X15541936Y-104969711D01*
X15529392Y-104953363D01*
X15394270Y-104777268D01*
X15394268Y-104777266D01*
X15394265Y-104777262D01*
X15222738Y-104605735D01*
X15222733Y-104605731D01*
X15222731Y-104605729D01*
X15030292Y-104458066D01*
X15030289Y-104458064D01*
X14820212Y-104336776D01*
X14820208Y-104336774D01*
X14820204Y-104336772D01*
X14596105Y-104243948D01*
X14596104Y-104243947D01*
X14596100Y-104243946D01*
X14361789Y-104181162D01*
X14361786Y-104181161D01*
X14361784Y-104181161D01*
X14121289Y-104149500D01*
X14121288Y-104149500D01*
X13878712Y-104149500D01*
X13878710Y-104149500D01*
X13638218Y-104181161D01*
X13638213Y-104181161D01*
X13403907Y-104243944D01*
X13403894Y-104243948D01*
X13179795Y-104336772D01*
X12969707Y-104458066D01*
X12777268Y-104605729D01*
X12605729Y-104777268D01*
X12458066Y-104969707D01*
X12336772Y-105179795D01*
X12243948Y-105403894D01*
X12243944Y-105403907D01*
X12181161Y-105638213D01*
X12181161Y-105638218D01*
X12149500Y-105878710D01*
X10500500Y-105878710D01*
X10500500Y-75703325D01*
X113686200Y-75703325D01*
X113686200Y-75848274D01*
X113723717Y-75988289D01*
X113796187Y-76113810D01*
X113796189Y-76113812D01*
X113796191Y-76113815D01*
X113898685Y-76216309D01*
X113898687Y-76216310D01*
X113898689Y-76216312D01*
X114024211Y-76288782D01*
X114024212Y-76288782D01*
X114024215Y-76288784D01*
X114164225Y-76326300D01*
X114164226Y-76326300D01*
X114309174Y-76326300D01*
X114309175Y-76326300D01*
X114449185Y-76288784D01*
X114449187Y-76288782D01*
X114449189Y-76288782D01*
X114574710Y-76216312D01*
X114574710Y-76216311D01*
X114574715Y-76216309D01*
X114677209Y-76113815D01*
X114749684Y-75988285D01*
X114787200Y-75848275D01*
X114787200Y-75703325D01*
X114749684Y-75563315D01*
X114749682Y-75563312D01*
X114749682Y-75563310D01*
X114677212Y-75437789D01*
X114677210Y-75437787D01*
X114677209Y-75437785D01*
X114574715Y-75335291D01*
X114574712Y-75335289D01*
X114574710Y-75335287D01*
X114449188Y-75262817D01*
X114449189Y-75262817D01*
X114419596Y-75254887D01*
X114309175Y-75225300D01*
X114164225Y-75225300D01*
X114102490Y-75241841D01*
X114024210Y-75262817D01*
X113898689Y-75335287D01*
X113796187Y-75437789D01*
X113723717Y-75563310D01*
X113686200Y-75703325D01*
X10500500Y-75703325D01*
X10500500Y-74927525D01*
X70011100Y-74927525D01*
X70011100Y-75072474D01*
X70048617Y-75212489D01*
X70121087Y-75338010D01*
X70121089Y-75338012D01*
X70121091Y-75338015D01*
X70223585Y-75440509D01*
X70223587Y-75440510D01*
X70223589Y-75440512D01*
X70349111Y-75512982D01*
X70349112Y-75512982D01*
X70349115Y-75512984D01*
X70489125Y-75550500D01*
X70489126Y-75550500D01*
X70634074Y-75550500D01*
X70634075Y-75550500D01*
X70774085Y-75512984D01*
X70774087Y-75512982D01*
X70774089Y-75512982D01*
X70899610Y-75440512D01*
X70899610Y-75440511D01*
X70899615Y-75440509D01*
X71002109Y-75338015D01*
X71003684Y-75335287D01*
X71074582Y-75212489D01*
X71074582Y-75212487D01*
X71074584Y-75212485D01*
X71112100Y-75072475D01*
X71112100Y-74927525D01*
X71074584Y-74787515D01*
X71061080Y-74764125D01*
X117223600Y-74764125D01*
X117223600Y-74909074D01*
X117261117Y-75049089D01*
X117333587Y-75174610D01*
X117333589Y-75174612D01*
X117333591Y-75174615D01*
X117436085Y-75277109D01*
X117436087Y-75277110D01*
X117436089Y-75277112D01*
X117561611Y-75349582D01*
X117561612Y-75349582D01*
X117561615Y-75349584D01*
X117701625Y-75387100D01*
X117701626Y-75387100D01*
X117846574Y-75387100D01*
X117846575Y-75387100D01*
X117986585Y-75349584D01*
X117986587Y-75349582D01*
X117986589Y-75349582D01*
X118112110Y-75277112D01*
X118112110Y-75277111D01*
X118112115Y-75277109D01*
X118214609Y-75174615D01*
X118273580Y-75072475D01*
X118287082Y-75049089D01*
X118287082Y-75049087D01*
X118287084Y-75049085D01*
X118324600Y-74909075D01*
X118324600Y-74764125D01*
X118287084Y-74624115D01*
X118287082Y-74624112D01*
X118287082Y-74624110D01*
X118214612Y-74498589D01*
X118214610Y-74498587D01*
X118214609Y-74498585D01*
X118112115Y-74396091D01*
X118112112Y-74396089D01*
X118112110Y-74396087D01*
X117986588Y-74323617D01*
X117986589Y-74323617D01*
X117956996Y-74315687D01*
X117846575Y-74286100D01*
X117701625Y-74286100D01*
X117639890Y-74302641D01*
X117561610Y-74323617D01*
X117436089Y-74396087D01*
X117333587Y-74498589D01*
X117261117Y-74624110D01*
X117223600Y-74764125D01*
X71061080Y-74764125D01*
X71002112Y-74661989D01*
X71002110Y-74661987D01*
X71002109Y-74661985D01*
X70899615Y-74559491D01*
X70899612Y-74559489D01*
X70899610Y-74559487D01*
X70774088Y-74487017D01*
X70774089Y-74487017D01*
X70744496Y-74479087D01*
X70634075Y-74449500D01*
X70489125Y-74449500D01*
X70427390Y-74466041D01*
X70349110Y-74487017D01*
X70223589Y-74559487D01*
X70121087Y-74661989D01*
X70048617Y-74787510D01*
X70011100Y-74927525D01*
X10500500Y-74927525D01*
X10500500Y-73566625D01*
X59810400Y-73566625D01*
X59810400Y-73711574D01*
X59847917Y-73851589D01*
X59920387Y-73977110D01*
X59920389Y-73977112D01*
X59920391Y-73977115D01*
X60022885Y-74079609D01*
X60022887Y-74079610D01*
X60022889Y-74079612D01*
X60148411Y-74152082D01*
X60148412Y-74152082D01*
X60148415Y-74152084D01*
X60288425Y-74189600D01*
X60288426Y-74189600D01*
X60433374Y-74189600D01*
X60433375Y-74189600D01*
X60573385Y-74152084D01*
X60573387Y-74152082D01*
X60573389Y-74152082D01*
X60698910Y-74079612D01*
X60698910Y-74079611D01*
X60698915Y-74079609D01*
X60729422Y-74049102D01*
X60759929Y-74018596D01*
X60814446Y-73990819D01*
X60829932Y-73989600D01*
X64599542Y-73989600D01*
X64599544Y-73989600D01*
X64688688Y-73965714D01*
X64699312Y-73959580D01*
X64768612Y-73919570D01*
X64886052Y-73802130D01*
X133349500Y-73802130D01*
X133349500Y-76197869D01*
X133355908Y-76257476D01*
X133355910Y-76257487D01*
X133406202Y-76392328D01*
X133492450Y-76507541D01*
X133492454Y-76507546D01*
X133492457Y-76507548D01*
X133492458Y-76507549D01*
X133607671Y-76593797D01*
X133742512Y-76644089D01*
X133742513Y-76644089D01*
X133742518Y-76644091D01*
X133802128Y-76650500D01*
X133802131Y-76650500D01*
X136197869Y-76650500D01*
X136197872Y-76650500D01*
X136257482Y-76644091D01*
X136304304Y-76626627D01*
X136392328Y-76593797D01*
X136392328Y-76593796D01*
X136392330Y-76593796D01*
X136507546Y-76507546D01*
X136593796Y-76392330D01*
X136644091Y-76257482D01*
X136650500Y-76197872D01*
X136650500Y-73802128D01*
X136644091Y-73742518D01*
X136632550Y-73711574D01*
X136593797Y-73607671D01*
X136507549Y-73492458D01*
X136507548Y-73492457D01*
X136507546Y-73492454D01*
X136419596Y-73426615D01*
X136392328Y-73406202D01*
X136257487Y-73355910D01*
X136257482Y-73355909D01*
X136257480Y-73355908D01*
X136257476Y-73355908D01*
X136226248Y-73352550D01*
X136197872Y-73349500D01*
X133802128Y-73349500D01*
X133777637Y-73352133D01*
X133742523Y-73355908D01*
X133742512Y-73355910D01*
X133607671Y-73406202D01*
X133492458Y-73492450D01*
X133492450Y-73492458D01*
X133406202Y-73607671D01*
X133355910Y-73742512D01*
X133355908Y-73742523D01*
X133349500Y-73802130D01*
X64886052Y-73802130D01*
X68972456Y-69715725D01*
X73312000Y-69715725D01*
X73312000Y-69860674D01*
X73349517Y-70000689D01*
X73421987Y-70126210D01*
X73421989Y-70126212D01*
X73421991Y-70126215D01*
X73524485Y-70228709D01*
X73524487Y-70228710D01*
X73524489Y-70228712D01*
X73650011Y-70301182D01*
X73650012Y-70301182D01*
X73650015Y-70301184D01*
X73790025Y-70338700D01*
X73790026Y-70338700D01*
X73934974Y-70338700D01*
X73934975Y-70338700D01*
X74074985Y-70301184D01*
X74074987Y-70301182D01*
X74074989Y-70301182D01*
X74200510Y-70228712D01*
X74200510Y-70228711D01*
X74200515Y-70228709D01*
X74303009Y-70126215D01*
X74336385Y-70068407D01*
X74375482Y-70000689D01*
X74375482Y-70000687D01*
X74375484Y-70000685D01*
X74413000Y-69860675D01*
X74413000Y-69715725D01*
X74375484Y-69575715D01*
X74375482Y-69575712D01*
X74375482Y-69575710D01*
X74303012Y-69450189D01*
X74303010Y-69450187D01*
X74303009Y-69450185D01*
X74200515Y-69347691D01*
X74200512Y-69347689D01*
X74200510Y-69347687D01*
X74074988Y-69275217D01*
X74074989Y-69275217D01*
X74045396Y-69267287D01*
X73934975Y-69237700D01*
X73790025Y-69237700D01*
X73728290Y-69254241D01*
X73650010Y-69275217D01*
X73524489Y-69347687D01*
X73421987Y-69450189D01*
X73349517Y-69575710D01*
X73312000Y-69715725D01*
X68972456Y-69715725D01*
X70777028Y-67911153D01*
X70831543Y-67883378D01*
X70891975Y-67892949D01*
X70935240Y-67936214D01*
X70942656Y-67955535D01*
X70964615Y-68037484D01*
X70964617Y-68037488D01*
X71037087Y-68163010D01*
X71037089Y-68163012D01*
X71037091Y-68163015D01*
X71139585Y-68265509D01*
X71139587Y-68265510D01*
X71139589Y-68265512D01*
X71265111Y-68337982D01*
X71265112Y-68337982D01*
X71265115Y-68337984D01*
X71405125Y-68375500D01*
X71405126Y-68375500D01*
X71550074Y-68375500D01*
X71550075Y-68375500D01*
X71690085Y-68337984D01*
X71690087Y-68337982D01*
X71690089Y-68337982D01*
X71815610Y-68265512D01*
X71815610Y-68265511D01*
X71815615Y-68265509D01*
X71918109Y-68163015D01*
X71990584Y-68037485D01*
X72028100Y-67897475D01*
X72028100Y-67752525D01*
X71990584Y-67612515D01*
X71990582Y-67612512D01*
X71990582Y-67612510D01*
X71918112Y-67486989D01*
X71918110Y-67486987D01*
X71918109Y-67486985D01*
X71815615Y-67384491D01*
X71815612Y-67384489D01*
X71815610Y-67384487D01*
X71690088Y-67312017D01*
X71690084Y-67312015D01*
X71608134Y-67290056D01*
X71556820Y-67256732D01*
X71534894Y-67199610D01*
X71550730Y-67140510D01*
X71563746Y-67124435D01*
X71975473Y-66712707D01*
X72029988Y-66684932D01*
X72090420Y-66694503D01*
X72133685Y-66737768D01*
X72141101Y-66757089D01*
X72173415Y-66877684D01*
X72173417Y-66877688D01*
X72245887Y-67003210D01*
X72245889Y-67003212D01*
X72245891Y-67003215D01*
X72348385Y-67105709D01*
X72348387Y-67105710D01*
X72348389Y-67105712D01*
X72473911Y-67178182D01*
X72473912Y-67178182D01*
X72473915Y-67178184D01*
X72613925Y-67215700D01*
X72613926Y-67215700D01*
X72758874Y-67215700D01*
X72758875Y-67215700D01*
X72898885Y-67178184D01*
X72898887Y-67178182D01*
X72898889Y-67178182D01*
X73024410Y-67105712D01*
X73024410Y-67105711D01*
X73024415Y-67105709D01*
X73126909Y-67003215D01*
X73184356Y-66903715D01*
X73199382Y-66877689D01*
X73199382Y-66877687D01*
X73199384Y-66877685D01*
X73236900Y-66737675D01*
X73236900Y-66592725D01*
X73199384Y-66452715D01*
X73199382Y-66452712D01*
X73199382Y-66452710D01*
X73126912Y-66327189D01*
X73126910Y-66327187D01*
X73126909Y-66327185D01*
X73024415Y-66224691D01*
X73024412Y-66224689D01*
X73024410Y-66224687D01*
X72898888Y-66152217D01*
X72898884Y-66152215D01*
X72778289Y-66119901D01*
X72726975Y-66086577D01*
X72705049Y-66029455D01*
X72720885Y-65970355D01*
X72733904Y-65954276D01*
X76534157Y-62154025D01*
X80587000Y-62154025D01*
X80587000Y-62298974D01*
X80624517Y-62438989D01*
X80696987Y-62564510D01*
X80696989Y-62564512D01*
X80696991Y-62564515D01*
X80799485Y-62667009D01*
X80799487Y-62667010D01*
X80799489Y-62667012D01*
X80925011Y-62739482D01*
X80925012Y-62739482D01*
X80925015Y-62739484D01*
X81065025Y-62777000D01*
X81065026Y-62777000D01*
X81209974Y-62777000D01*
X81209975Y-62777000D01*
X81349985Y-62739484D01*
X81349987Y-62739482D01*
X81349989Y-62739482D01*
X81475510Y-62667012D01*
X81475510Y-62667011D01*
X81475515Y-62667009D01*
X81578009Y-62564515D01*
X81578012Y-62564510D01*
X81650482Y-62438989D01*
X81650482Y-62438987D01*
X81650484Y-62438985D01*
X81688000Y-62298975D01*
X81688000Y-62212690D01*
X81706907Y-62154499D01*
X81716996Y-62142686D01*
X82659557Y-61200125D01*
X98460900Y-61200125D01*
X98460900Y-61345075D01*
X98490487Y-61455496D01*
X98498417Y-61485089D01*
X98570887Y-61610610D01*
X98570889Y-61610612D01*
X98570891Y-61610615D01*
X98673385Y-61713109D01*
X98673387Y-61713110D01*
X98673389Y-61713112D01*
X98798911Y-61785582D01*
X98798912Y-61785582D01*
X98798915Y-61785584D01*
X98938925Y-61823100D01*
X98938926Y-61823100D01*
X99083874Y-61823100D01*
X99083875Y-61823100D01*
X99223885Y-61785584D01*
X99223887Y-61785582D01*
X99223889Y-61785582D01*
X99349410Y-61713112D01*
X99349410Y-61713111D01*
X99349415Y-61713109D01*
X99451909Y-61610615D01*
X99489634Y-61545274D01*
X99524382Y-61485089D01*
X99524382Y-61485087D01*
X99524384Y-61485085D01*
X99561900Y-61345075D01*
X99561900Y-61200125D01*
X99524384Y-61060115D01*
X99524382Y-61060112D01*
X99524382Y-61060110D01*
X99451912Y-60934589D01*
X99451910Y-60934587D01*
X99451909Y-60934585D01*
X99349415Y-60832091D01*
X99349412Y-60832089D01*
X99349410Y-60832087D01*
X99223888Y-60759617D01*
X99223889Y-60759617D01*
X99194296Y-60751687D01*
X99083875Y-60722100D01*
X98938925Y-60722100D01*
X98877190Y-60738641D01*
X98798910Y-60759617D01*
X98673389Y-60832087D01*
X98570887Y-60934589D01*
X98498417Y-61060110D01*
X98498416Y-61060115D01*
X98460900Y-61200125D01*
X82659557Y-61200125D01*
X84568757Y-59290925D01*
X97916700Y-59290925D01*
X97916700Y-59435874D01*
X97954217Y-59575889D01*
X98026687Y-59701410D01*
X98026689Y-59701412D01*
X98026691Y-59701415D01*
X98129185Y-59803909D01*
X98129187Y-59803910D01*
X98129189Y-59803912D01*
X98254711Y-59876382D01*
X98254712Y-59876382D01*
X98254715Y-59876384D01*
X98394725Y-59913900D01*
X98394726Y-59913900D01*
X98539674Y-59913900D01*
X98539675Y-59913900D01*
X98679685Y-59876384D01*
X98679687Y-59876382D01*
X98679689Y-59876382D01*
X98805210Y-59803912D01*
X98805210Y-59803911D01*
X98805215Y-59803909D01*
X98907709Y-59701415D01*
X98972978Y-59588366D01*
X98980182Y-59575889D01*
X98980182Y-59575887D01*
X98980184Y-59575885D01*
X99017700Y-59435875D01*
X99017700Y-59290925D01*
X98990962Y-59191138D01*
X98994163Y-59130039D01*
X99032668Y-59082488D01*
X99060961Y-59069891D01*
X99072185Y-59066884D01*
X99197715Y-58994409D01*
X99300209Y-58891915D01*
X99372684Y-58766385D01*
X99410200Y-58626375D01*
X99410200Y-58481425D01*
X99372684Y-58341415D01*
X99372682Y-58341412D01*
X99372682Y-58341410D01*
X99300212Y-58215889D01*
X99300210Y-58215887D01*
X99300209Y-58215885D01*
X99197715Y-58113391D01*
X99197712Y-58113389D01*
X99197710Y-58113387D01*
X99072188Y-58040917D01*
X99072189Y-58040917D01*
X99025475Y-58028400D01*
X98932175Y-58003400D01*
X98787225Y-58003400D01*
X98725490Y-58019941D01*
X98647210Y-58040917D01*
X98521689Y-58113387D01*
X98419187Y-58215889D01*
X98346717Y-58341410D01*
X98314945Y-58459985D01*
X98309200Y-58481425D01*
X98309200Y-58626375D01*
X98322769Y-58677016D01*
X98335938Y-58726160D01*
X98332736Y-58787261D01*
X98294231Y-58834811D01*
X98265936Y-58847409D01*
X98254714Y-58850416D01*
X98254711Y-58850417D01*
X98129189Y-58922887D01*
X98026687Y-59025389D01*
X97954217Y-59150910D01*
X97916700Y-59290925D01*
X84568757Y-59290925D01*
X87854886Y-56004796D01*
X87909403Y-55977019D01*
X87924890Y-55975800D01*
X101491469Y-55975800D01*
X101549660Y-55994707D01*
X101561466Y-56004790D01*
X101575785Y-56019109D01*
X101575787Y-56019110D01*
X101575789Y-56019112D01*
X101701311Y-56091582D01*
X101701312Y-56091582D01*
X101701315Y-56091584D01*
X101841325Y-56129100D01*
X101841326Y-56129100D01*
X101986274Y-56129100D01*
X101986275Y-56129100D01*
X102126285Y-56091584D01*
X102126287Y-56091582D01*
X102126289Y-56091582D01*
X102251810Y-56019112D01*
X102251810Y-56019111D01*
X102251815Y-56019109D01*
X102354309Y-55916615D01*
X102420418Y-55802112D01*
X102426782Y-55791089D01*
X102426782Y-55791087D01*
X102426784Y-55791085D01*
X102464300Y-55651075D01*
X102464300Y-55506125D01*
X102426784Y-55366115D01*
X102426782Y-55366112D01*
X102426782Y-55366110D01*
X102354312Y-55240589D01*
X102354310Y-55240587D01*
X102354309Y-55240585D01*
X102251815Y-55138091D01*
X102251812Y-55138089D01*
X102251810Y-55138087D01*
X102126288Y-55065617D01*
X102126289Y-55065617D01*
X102096696Y-55057687D01*
X101986275Y-55028100D01*
X101841325Y-55028100D01*
X101779590Y-55044641D01*
X101701310Y-55065617D01*
X101575789Y-55138087D01*
X101575788Y-55138088D01*
X101575785Y-55138090D01*
X101575785Y-55138091D01*
X101473291Y-55240585D01*
X101473289Y-55240587D01*
X101468703Y-55245174D01*
X101466581Y-55243052D01*
X101426373Y-55270711D01*
X101398216Y-55274800D01*
X87692556Y-55274800D01*
X87605487Y-55298130D01*
X87605486Y-55298129D01*
X87603417Y-55298684D01*
X87603415Y-55298684D01*
X87523488Y-55344830D01*
X81221314Y-61647004D01*
X81166797Y-61674781D01*
X81151310Y-61676000D01*
X81065025Y-61676000D01*
X81020181Y-61688016D01*
X80925010Y-61713517D01*
X80799489Y-61785987D01*
X80696987Y-61888489D01*
X80624517Y-62014010D01*
X80587000Y-62154025D01*
X76534157Y-62154025D01*
X76635886Y-62052296D01*
X76690403Y-62024519D01*
X76705890Y-62023300D01*
X76792174Y-62023300D01*
X76792175Y-62023300D01*
X76932185Y-61985784D01*
X76932187Y-61985782D01*
X76932189Y-61985782D01*
X77057710Y-61913312D01*
X77057710Y-61913311D01*
X77057715Y-61913309D01*
X77160209Y-61810815D01*
X77174541Y-61785991D01*
X77232682Y-61685289D01*
X77232682Y-61685287D01*
X77232684Y-61685285D01*
X77270200Y-61545275D01*
X77270200Y-61400325D01*
X77232684Y-61260315D01*
X77232682Y-61260312D01*
X77232682Y-61260310D01*
X77160212Y-61134789D01*
X77160210Y-61134787D01*
X77160209Y-61134785D01*
X77057715Y-61032291D01*
X77057712Y-61032289D01*
X77057710Y-61032287D01*
X76932188Y-60959817D01*
X76932189Y-60959817D01*
X76902596Y-60951887D01*
X76792175Y-60922300D01*
X76647225Y-60922300D01*
X76585490Y-60938841D01*
X76507210Y-60959817D01*
X76381689Y-61032287D01*
X76279187Y-61134789D01*
X76206717Y-61260310D01*
X76169200Y-61400325D01*
X76169200Y-61486609D01*
X76150293Y-61544800D01*
X76140204Y-61556613D01*
X69412911Y-68283905D01*
X69358394Y-68311682D01*
X69297962Y-68302111D01*
X69257171Y-68263401D01*
X69213112Y-68187089D01*
X69213110Y-68187087D01*
X69213109Y-68187085D01*
X69110615Y-68084591D01*
X69110612Y-68084589D01*
X69110610Y-68084587D01*
X68985088Y-68012117D01*
X68985089Y-68012117D01*
X68955496Y-68004187D01*
X68845075Y-67974600D01*
X68700125Y-67974600D01*
X68638390Y-67991141D01*
X68560110Y-68012117D01*
X68434589Y-68084587D01*
X68332087Y-68187089D01*
X68259617Y-68312610D01*
X68222100Y-68452625D01*
X68222100Y-68597574D01*
X68259617Y-68737589D01*
X68332087Y-68863110D01*
X68332089Y-68863112D01*
X68332091Y-68863115D01*
X68434585Y-68965609D01*
X68434587Y-68965610D01*
X68434589Y-68965612D01*
X68510901Y-69009671D01*
X68551842Y-69055140D01*
X68558238Y-69115990D01*
X68531405Y-69165411D01*
X64437214Y-73259604D01*
X64382697Y-73287381D01*
X64367210Y-73288600D01*
X60829932Y-73288600D01*
X60771741Y-73269693D01*
X60759929Y-73259604D01*
X60698915Y-73198591D01*
X60698910Y-73198587D01*
X60573388Y-73126117D01*
X60573389Y-73126117D01*
X60543796Y-73118187D01*
X60433375Y-73088600D01*
X60288425Y-73088600D01*
X60226690Y-73105141D01*
X60148410Y-73126117D01*
X60022889Y-73198587D01*
X59920387Y-73301089D01*
X59847917Y-73426610D01*
X59810400Y-73566625D01*
X10500500Y-73566625D01*
X10500500Y-71939125D01*
X53624500Y-71939125D01*
X53624500Y-72084074D01*
X53662017Y-72224089D01*
X53734487Y-72349610D01*
X53734489Y-72349612D01*
X53734491Y-72349615D01*
X53836985Y-72452109D01*
X53836987Y-72452110D01*
X53836989Y-72452112D01*
X53962511Y-72524582D01*
X53962512Y-72524582D01*
X53962515Y-72524584D01*
X54102525Y-72562100D01*
X54102526Y-72562100D01*
X54247474Y-72562100D01*
X54247475Y-72562100D01*
X54387485Y-72524584D01*
X54387487Y-72524582D01*
X54387489Y-72524582D01*
X54487421Y-72466886D01*
X54547269Y-72454164D01*
X54603165Y-72479050D01*
X54622657Y-72503122D01*
X54662487Y-72572110D01*
X54662489Y-72572112D01*
X54662491Y-72572115D01*
X54764985Y-72674609D01*
X54764987Y-72674610D01*
X54764989Y-72674612D01*
X54890511Y-72747082D01*
X54890512Y-72747082D01*
X54890515Y-72747084D01*
X55030525Y-72784600D01*
X55030526Y-72784600D01*
X55175474Y-72784600D01*
X55175475Y-72784600D01*
X55315485Y-72747084D01*
X55315487Y-72747082D01*
X55315489Y-72747082D01*
X55441010Y-72674612D01*
X55441010Y-72674611D01*
X55441015Y-72674609D01*
X55543509Y-72572115D01*
X55583342Y-72503122D01*
X55615982Y-72446589D01*
X55615982Y-72446587D01*
X55615984Y-72446585D01*
X55653500Y-72306575D01*
X55653500Y-72161625D01*
X55615984Y-72021615D01*
X55615982Y-72021612D01*
X55615982Y-72021610D01*
X55543512Y-71896089D01*
X55543510Y-71896087D01*
X55543509Y-71896085D01*
X55441015Y-71793591D01*
X55441012Y-71793589D01*
X55441010Y-71793587D01*
X55315488Y-71721117D01*
X55315489Y-71721117D01*
X55285896Y-71713187D01*
X55175475Y-71683600D01*
X55030525Y-71683600D01*
X54983855Y-71696105D01*
X54890513Y-71721116D01*
X54790579Y-71778814D01*
X54730731Y-71791535D01*
X54674835Y-71766648D01*
X54655343Y-71742578D01*
X54615510Y-71673587D01*
X54615509Y-71673585D01*
X54513015Y-71571091D01*
X54513012Y-71571089D01*
X54513010Y-71571087D01*
X54387488Y-71498617D01*
X54387489Y-71498617D01*
X54357896Y-71490687D01*
X54247475Y-71461100D01*
X54102525Y-71461100D01*
X54057334Y-71473209D01*
X53962510Y-71498617D01*
X53836989Y-71571087D01*
X53734487Y-71673589D01*
X53662017Y-71799110D01*
X53624500Y-71939125D01*
X10500500Y-71939125D01*
X10500500Y-70960225D01*
X46360000Y-70960225D01*
X46360000Y-71105174D01*
X46397517Y-71245189D01*
X46469987Y-71370710D01*
X46469989Y-71370712D01*
X46469991Y-71370715D01*
X46572485Y-71473209D01*
X46572487Y-71473210D01*
X46572489Y-71473212D01*
X46698011Y-71545682D01*
X46698012Y-71545682D01*
X46698015Y-71545684D01*
X46838025Y-71583200D01*
X46838026Y-71583200D01*
X46982974Y-71583200D01*
X46982975Y-71583200D01*
X47122985Y-71545684D01*
X47122987Y-71545682D01*
X47122989Y-71545682D01*
X47248510Y-71473212D01*
X47248510Y-71473211D01*
X47248515Y-71473209D01*
X47351009Y-71370715D01*
X47423484Y-71245185D01*
X47461000Y-71105175D01*
X47461000Y-71018890D01*
X47479907Y-70960699D01*
X47489996Y-70948886D01*
X52173086Y-66265796D01*
X52227603Y-66238019D01*
X52243090Y-66236800D01*
X52533968Y-66236800D01*
X52592159Y-66255707D01*
X52603971Y-66265796D01*
X52652557Y-66314381D01*
X52680335Y-66368897D01*
X52670764Y-66429329D01*
X52645355Y-66459884D01*
X52645374Y-66459903D01*
X52645172Y-66460104D01*
X52642832Y-66462919D01*
X52640792Y-66464484D01*
X52538287Y-66566989D01*
X52465817Y-66692510D01*
X52428300Y-66832525D01*
X52428300Y-66977474D01*
X52465817Y-67117489D01*
X52538287Y-67243010D01*
X52538289Y-67243012D01*
X52538291Y-67243015D01*
X52640785Y-67345509D01*
X52640787Y-67345510D01*
X52640789Y-67345512D01*
X52766311Y-67417982D01*
X52766312Y-67417982D01*
X52766315Y-67417984D01*
X52906325Y-67455500D01*
X52906326Y-67455500D01*
X53051274Y-67455500D01*
X53051275Y-67455500D01*
X53191285Y-67417984D01*
X53191287Y-67417982D01*
X53191289Y-67417982D01*
X53316810Y-67345512D01*
X53316810Y-67345511D01*
X53316815Y-67345509D01*
X53419309Y-67243015D01*
X53419539Y-67242616D01*
X53491782Y-67117489D01*
X53491782Y-67117487D01*
X53491784Y-67117485D01*
X53529300Y-66977475D01*
X53529300Y-66832525D01*
X53491784Y-66692515D01*
X53491782Y-66692512D01*
X53491782Y-66692510D01*
X53419312Y-66566989D01*
X53419310Y-66566987D01*
X53419309Y-66566985D01*
X53329139Y-66476815D01*
X53301364Y-66422301D01*
X53310935Y-66361869D01*
X53336345Y-66331316D01*
X53336326Y-66331297D01*
X53336541Y-66331081D01*
X53338879Y-66328271D01*
X53340909Y-66326712D01*
X53340915Y-66326709D01*
X53443409Y-66224215D01*
X53484978Y-66152216D01*
X53515882Y-66098689D01*
X53515882Y-66098687D01*
X53515884Y-66098685D01*
X53553400Y-65958675D01*
X53553400Y-65813725D01*
X53515884Y-65673715D01*
X53515882Y-65673712D01*
X53515882Y-65673710D01*
X53443412Y-65548189D01*
X53443410Y-65548187D01*
X53443409Y-65548185D01*
X53340915Y-65445691D01*
X53340912Y-65445689D01*
X53340910Y-65445687D01*
X53215388Y-65373217D01*
X53215389Y-65373217D01*
X53144458Y-65354211D01*
X53075375Y-65335700D01*
X52930425Y-65335700D01*
X52868690Y-65352241D01*
X52790410Y-65373217D01*
X52664889Y-65445687D01*
X52664884Y-65445691D01*
X52603771Y-65506804D01*
X52549254Y-65534581D01*
X52533768Y-65535800D01*
X52010756Y-65535800D01*
X51987162Y-65542122D01*
X51963567Y-65548444D01*
X51963566Y-65548443D01*
X51921615Y-65559684D01*
X51841688Y-65605830D01*
X46994314Y-70453204D01*
X46939797Y-70480981D01*
X46924310Y-70482200D01*
X46838025Y-70482200D01*
X46776290Y-70498741D01*
X46698010Y-70519717D01*
X46572489Y-70592187D01*
X46469987Y-70694689D01*
X46397517Y-70820210D01*
X46360000Y-70960225D01*
X10500500Y-70960225D01*
X10500500Y-67683125D01*
X37205200Y-67683125D01*
X37205200Y-67828075D01*
X37234176Y-67936214D01*
X37242717Y-67968089D01*
X37315187Y-68093610D01*
X37315189Y-68093612D01*
X37315191Y-68093615D01*
X37417685Y-68196109D01*
X37417687Y-68196110D01*
X37417689Y-68196112D01*
X37543211Y-68268582D01*
X37543212Y-68268582D01*
X37543215Y-68268584D01*
X37683225Y-68306100D01*
X37683226Y-68306100D01*
X37828174Y-68306100D01*
X37828175Y-68306100D01*
X37968185Y-68268584D01*
X37968187Y-68268582D01*
X37968189Y-68268582D01*
X38093710Y-68196112D01*
X38093710Y-68196111D01*
X38093715Y-68196109D01*
X38196209Y-68093615D01*
X38201421Y-68084587D01*
X38268682Y-67968089D01*
X38268682Y-67968087D01*
X38268684Y-67968085D01*
X38306200Y-67828075D01*
X38306200Y-67683125D01*
X38268684Y-67543115D01*
X38268682Y-67543112D01*
X38268682Y-67543110D01*
X38196212Y-67417589D01*
X38196210Y-67417587D01*
X38196209Y-67417585D01*
X38093715Y-67315091D01*
X38093712Y-67315089D01*
X38093710Y-67315087D01*
X37968188Y-67242617D01*
X37968189Y-67242617D01*
X37867734Y-67215700D01*
X37828175Y-67205100D01*
X37683225Y-67205100D01*
X37643666Y-67215700D01*
X37543210Y-67242617D01*
X37417689Y-67315087D01*
X37315187Y-67417589D01*
X37242717Y-67543110D01*
X37215660Y-67644089D01*
X37205200Y-67683125D01*
X10500500Y-67683125D01*
X10500500Y-64802130D01*
X14349500Y-64802130D01*
X14349500Y-67197869D01*
X14355908Y-67257476D01*
X14355910Y-67257487D01*
X14406202Y-67392328D01*
X14477062Y-67486985D01*
X14492454Y-67507546D01*
X14492457Y-67507548D01*
X14492458Y-67507549D01*
X14607671Y-67593797D01*
X14742512Y-67644089D01*
X14742513Y-67644089D01*
X14742518Y-67644091D01*
X14802128Y-67650500D01*
X14802131Y-67650500D01*
X17197869Y-67650500D01*
X17197872Y-67650500D01*
X17257482Y-67644091D01*
X17392330Y-67593796D01*
X17507546Y-67507546D01*
X17593796Y-67392330D01*
X17644091Y-67257482D01*
X17650500Y-67197872D01*
X17650500Y-67043725D01*
X44461600Y-67043725D01*
X44461600Y-67188675D01*
X44476054Y-67242616D01*
X44499117Y-67328689D01*
X44571587Y-67454210D01*
X44571589Y-67454212D01*
X44571591Y-67454215D01*
X44674085Y-67556709D01*
X44674087Y-67556710D01*
X44674089Y-67556712D01*
X44799611Y-67629182D01*
X44799612Y-67629182D01*
X44799615Y-67629184D01*
X44939625Y-67666700D01*
X44939626Y-67666700D01*
X45084574Y-67666700D01*
X45084575Y-67666700D01*
X45224585Y-67629184D01*
X45224587Y-67629182D01*
X45224589Y-67629182D01*
X45350110Y-67556712D01*
X45350110Y-67556711D01*
X45350115Y-67556709D01*
X45452609Y-67454215D01*
X45473755Y-67417589D01*
X45525082Y-67328689D01*
X45525082Y-67328687D01*
X45525084Y-67328685D01*
X45562600Y-67188675D01*
X45562600Y-67043725D01*
X45525084Y-66903715D01*
X45525082Y-66903712D01*
X45525082Y-66903710D01*
X45452612Y-66778189D01*
X45452610Y-66778187D01*
X45452609Y-66778185D01*
X45350115Y-66675691D01*
X45350112Y-66675689D01*
X45350110Y-66675687D01*
X45224588Y-66603217D01*
X45224589Y-66603217D01*
X45194996Y-66595287D01*
X45084575Y-66565700D01*
X44939625Y-66565700D01*
X44877890Y-66582241D01*
X44799610Y-66603217D01*
X44674089Y-66675687D01*
X44571587Y-66778189D01*
X44499117Y-66903710D01*
X44499116Y-66903715D01*
X44461600Y-67043725D01*
X17650500Y-67043725D01*
X17650500Y-64802128D01*
X17644091Y-64742518D01*
X17633492Y-64714101D01*
X17593797Y-64607671D01*
X17507549Y-64492458D01*
X17507548Y-64492457D01*
X17507546Y-64492454D01*
X17507541Y-64492450D01*
X17392328Y-64406202D01*
X17257487Y-64355910D01*
X17257482Y-64355909D01*
X17257480Y-64355908D01*
X17257476Y-64355908D01*
X17226248Y-64352550D01*
X17197872Y-64349500D01*
X14802128Y-64349500D01*
X14777637Y-64352133D01*
X14742523Y-64355908D01*
X14742512Y-64355910D01*
X14607671Y-64406202D01*
X14492458Y-64492450D01*
X14492450Y-64492458D01*
X14406202Y-64607671D01*
X14355910Y-64742512D01*
X14355908Y-64742523D01*
X14349500Y-64802130D01*
X10500500Y-64802130D01*
X10500500Y-60870099D01*
X14349500Y-60870099D01*
X14349500Y-61129900D01*
X14390138Y-61386488D01*
X14462962Y-61610615D01*
X14470421Y-61633572D01*
X14510949Y-61713112D01*
X14560728Y-61810810D01*
X14588366Y-61865051D01*
X14741069Y-62075229D01*
X14924771Y-62258931D01*
X15134949Y-62411634D01*
X15366428Y-62529579D01*
X15613507Y-62609860D01*
X15613508Y-62609860D01*
X15613511Y-62609861D01*
X15870100Y-62650500D01*
X15870103Y-62650500D01*
X16129900Y-62650500D01*
X16386488Y-62609861D01*
X16386489Y-62609860D01*
X16386493Y-62609860D01*
X16633572Y-62529579D01*
X16865051Y-62411634D01*
X17075229Y-62258931D01*
X17258931Y-62075229D01*
X17411634Y-61865051D01*
X17529579Y-61633572D01*
X17599328Y-61418906D01*
X17635292Y-61369407D01*
X17693483Y-61350500D01*
X21676310Y-61350500D01*
X21734501Y-61369407D01*
X21746314Y-61379496D01*
X25196704Y-64829886D01*
X25224481Y-64884403D01*
X25225700Y-64899890D01*
X25225700Y-64986175D01*
X25251540Y-65082609D01*
X25263217Y-65126189D01*
X25335687Y-65251710D01*
X25335689Y-65251712D01*
X25335691Y-65251715D01*
X25438185Y-65354209D01*
X25438187Y-65354210D01*
X25438189Y-65354212D01*
X25563711Y-65426682D01*
X25563712Y-65426682D01*
X25563715Y-65426684D01*
X25703725Y-65464200D01*
X25703726Y-65464200D01*
X25848674Y-65464200D01*
X25848675Y-65464200D01*
X25976963Y-65429825D01*
X31665000Y-65429825D01*
X31665000Y-65574774D01*
X31702517Y-65714789D01*
X31774987Y-65840310D01*
X31774989Y-65840312D01*
X31774991Y-65840315D01*
X31877485Y-65942809D01*
X31877487Y-65942810D01*
X31877489Y-65942812D01*
X32003011Y-66015282D01*
X32003012Y-66015282D01*
X32003015Y-66015284D01*
X32143025Y-66052800D01*
X32143026Y-66052800D01*
X32287974Y-66052800D01*
X32287975Y-66052800D01*
X32427985Y-66015284D01*
X32427987Y-66015282D01*
X32427989Y-66015282D01*
X32553510Y-65942812D01*
X32553510Y-65942811D01*
X32553515Y-65942809D01*
X32584022Y-65912302D01*
X32614529Y-65881796D01*
X32669046Y-65854019D01*
X32684532Y-65852800D01*
X37828042Y-65852800D01*
X37828044Y-65852800D01*
X37917188Y-65828914D01*
X37943496Y-65813725D01*
X37997112Y-65782770D01*
X38558286Y-65221596D01*
X38612803Y-65193819D01*
X38628290Y-65192600D01*
X38714574Y-65192600D01*
X38714575Y-65192600D01*
X38854585Y-65155084D01*
X38854587Y-65155082D01*
X38854589Y-65155082D01*
X38980110Y-65082612D01*
X38980110Y-65082611D01*
X38980115Y-65082609D01*
X39082609Y-64980115D01*
X39155084Y-64854585D01*
X39192600Y-64714575D01*
X39192600Y-64569625D01*
X39155084Y-64429615D01*
X39155082Y-64429612D01*
X39155082Y-64429610D01*
X39100768Y-64335536D01*
X39082612Y-64304089D01*
X39082610Y-64304087D01*
X39082609Y-64304085D01*
X39071049Y-64292525D01*
X52426800Y-64292525D01*
X52426800Y-64437474D01*
X52464317Y-64577489D01*
X52536787Y-64703010D01*
X52536789Y-64703012D01*
X52536791Y-64703015D01*
X52639285Y-64805509D01*
X52639287Y-64805510D01*
X52639289Y-64805512D01*
X52764811Y-64877982D01*
X52764812Y-64877982D01*
X52764815Y-64877984D01*
X52904825Y-64915500D01*
X52904826Y-64915500D01*
X53049774Y-64915500D01*
X53049775Y-64915500D01*
X53189785Y-64877984D01*
X53189787Y-64877982D01*
X53189789Y-64877982D01*
X53315310Y-64805512D01*
X53315310Y-64805511D01*
X53315315Y-64805509D01*
X53417809Y-64703015D01*
X53445005Y-64655910D01*
X53490282Y-64577489D01*
X53490282Y-64577487D01*
X53490284Y-64577485D01*
X53527800Y-64437475D01*
X53527800Y-64292525D01*
X53490284Y-64152515D01*
X53490282Y-64152512D01*
X53490282Y-64152510D01*
X53417812Y-64026989D01*
X53417810Y-64026987D01*
X53417809Y-64026985D01*
X53315315Y-63924491D01*
X53315312Y-63924489D01*
X53315310Y-63924487D01*
X53189788Y-63852017D01*
X53189789Y-63852017D01*
X53160196Y-63844087D01*
X53049775Y-63814500D01*
X52904825Y-63814500D01*
X52843090Y-63831041D01*
X52764810Y-63852017D01*
X52639289Y-63924487D01*
X52536787Y-64026989D01*
X52464317Y-64152510D01*
X52426800Y-64292525D01*
X39071049Y-64292525D01*
X38980115Y-64201591D01*
X38980112Y-64201589D01*
X38980110Y-64201587D01*
X38854588Y-64129117D01*
X38854589Y-64129117D01*
X38824996Y-64121187D01*
X38714575Y-64091600D01*
X38569625Y-64091600D01*
X38507890Y-64108141D01*
X38429610Y-64129117D01*
X38304089Y-64201587D01*
X38201587Y-64304089D01*
X38129117Y-64429610D01*
X38091600Y-64569625D01*
X38091600Y-64655910D01*
X38072693Y-64714101D01*
X38062604Y-64725914D01*
X37665714Y-65122804D01*
X37611197Y-65150581D01*
X37595710Y-65151800D01*
X32684532Y-65151800D01*
X32626341Y-65132893D01*
X32614529Y-65122804D01*
X32553515Y-65061791D01*
X32553510Y-65061787D01*
X32427988Y-64989317D01*
X32427989Y-64989317D01*
X32357390Y-64970400D01*
X32287975Y-64951800D01*
X32143025Y-64951800D01*
X32081290Y-64968341D01*
X32003010Y-64989317D01*
X31877489Y-65061787D01*
X31774987Y-65164289D01*
X31702517Y-65289810D01*
X31665000Y-65429825D01*
X25976963Y-65429825D01*
X25988685Y-65426684D01*
X25988687Y-65426682D01*
X25988689Y-65426682D01*
X26114210Y-65354212D01*
X26114210Y-65354211D01*
X26114215Y-65354209D01*
X26216709Y-65251715D01*
X26234098Y-65221596D01*
X26289182Y-65126189D01*
X26289182Y-65126187D01*
X26289184Y-65126185D01*
X26326700Y-64986175D01*
X26326700Y-64841225D01*
X26289184Y-64701215D01*
X26289182Y-64701212D01*
X26289182Y-64701210D01*
X26216712Y-64575689D01*
X26216710Y-64575687D01*
X26216709Y-64575685D01*
X26114215Y-64473191D01*
X26114212Y-64473189D01*
X26114210Y-64473187D01*
X25988688Y-64400717D01*
X25988689Y-64400717D01*
X25959096Y-64392787D01*
X25848675Y-64363200D01*
X25848674Y-64363200D01*
X25762390Y-64363200D01*
X25704199Y-64344293D01*
X25692386Y-64334204D01*
X23887761Y-62529579D01*
X22077712Y-60719530D01*
X21997788Y-60673386D01*
X21908644Y-60649500D01*
X21908642Y-60649500D01*
X17693483Y-60649500D01*
X17635292Y-60630593D01*
X17599328Y-60581093D01*
X17529580Y-60366432D01*
X17529579Y-60366428D01*
X17411634Y-60134949D01*
X17258931Y-59924771D01*
X17075229Y-59741069D01*
X16865051Y-59588366D01*
X16865050Y-59588365D01*
X16865048Y-59588364D01*
X16746606Y-59528015D01*
X16633572Y-59470421D01*
X16633569Y-59470420D01*
X16633567Y-59470419D01*
X16386488Y-59390138D01*
X16129900Y-59349500D01*
X16129897Y-59349500D01*
X15870103Y-59349500D01*
X15870100Y-59349500D01*
X15613511Y-59390138D01*
X15366432Y-59470419D01*
X15134951Y-59588364D01*
X14924772Y-59741068D01*
X14741068Y-59924772D01*
X14588364Y-60134951D01*
X14470419Y-60366432D01*
X14390138Y-60613511D01*
X14349500Y-60870099D01*
X10500500Y-60870099D01*
X10500500Y-58506425D01*
X48726700Y-58506425D01*
X48726700Y-58651374D01*
X48764217Y-58791389D01*
X48836687Y-58916910D01*
X48836689Y-58916912D01*
X48836691Y-58916915D01*
X48939185Y-59019409D01*
X48939187Y-59019410D01*
X48939189Y-59019412D01*
X49064711Y-59091882D01*
X49064712Y-59091882D01*
X49064715Y-59091884D01*
X49204725Y-59129400D01*
X49204726Y-59129400D01*
X49349674Y-59129400D01*
X49349675Y-59129400D01*
X49489685Y-59091884D01*
X49489687Y-59091882D01*
X49489689Y-59091882D01*
X49615210Y-59019412D01*
X49615210Y-59019411D01*
X49615215Y-59019409D01*
X49717709Y-58916915D01*
X49723939Y-58906125D01*
X52674500Y-58906125D01*
X52674500Y-59051075D01*
X52695487Y-59129400D01*
X52712017Y-59191089D01*
X52784487Y-59316610D01*
X52784489Y-59316612D01*
X52784491Y-59316615D01*
X52886985Y-59419109D01*
X52886987Y-59419110D01*
X52886989Y-59419112D01*
X53012511Y-59491582D01*
X53012512Y-59491582D01*
X53012515Y-59491584D01*
X53152525Y-59529100D01*
X53152526Y-59529100D01*
X53297474Y-59529100D01*
X53297475Y-59529100D01*
X53437485Y-59491584D01*
X53437487Y-59491582D01*
X53437489Y-59491582D01*
X53563010Y-59419112D01*
X53563010Y-59419111D01*
X53563015Y-59419109D01*
X53665509Y-59316615D01*
X53696767Y-59262475D01*
X53737982Y-59191089D01*
X53737982Y-59191087D01*
X53737984Y-59191085D01*
X53775500Y-59051075D01*
X53775500Y-58906125D01*
X53737984Y-58766115D01*
X53737982Y-58766112D01*
X53737982Y-58766110D01*
X53665512Y-58640589D01*
X53665510Y-58640587D01*
X53665509Y-58640585D01*
X53563015Y-58538091D01*
X53563012Y-58538089D01*
X53563010Y-58538087D01*
X53437488Y-58465617D01*
X53437489Y-58465617D01*
X53407896Y-58457687D01*
X53297475Y-58428100D01*
X53152525Y-58428100D01*
X53090790Y-58444641D01*
X53012510Y-58465617D01*
X52886989Y-58538087D01*
X52784487Y-58640589D01*
X52712017Y-58766110D01*
X52689427Y-58850416D01*
X52674500Y-58906125D01*
X49723939Y-58906125D01*
X49755197Y-58851985D01*
X49756260Y-58850143D01*
X49756264Y-58850136D01*
X49765112Y-58834811D01*
X49790184Y-58791385D01*
X49827700Y-58651375D01*
X49827700Y-58506425D01*
X49790184Y-58366415D01*
X49790182Y-58366412D01*
X49790182Y-58366410D01*
X49717712Y-58240889D01*
X49717710Y-58240887D01*
X49717709Y-58240885D01*
X49615215Y-58138391D01*
X49615212Y-58138389D01*
X49615210Y-58138387D01*
X49489688Y-58065917D01*
X49489689Y-58065917D01*
X49460096Y-58057987D01*
X49349675Y-58028400D01*
X49204725Y-58028400D01*
X49142990Y-58044941D01*
X49064710Y-58065917D01*
X48939189Y-58138387D01*
X48836687Y-58240889D01*
X48764217Y-58366410D01*
X48726700Y-58506425D01*
X10500500Y-58506425D01*
X10500500Y-55506125D01*
X50322200Y-55506125D01*
X50322200Y-55651075D01*
X50351787Y-55761496D01*
X50359717Y-55791089D01*
X50432187Y-55916610D01*
X50432189Y-55916612D01*
X50432191Y-55916615D01*
X50534685Y-56019109D01*
X50534687Y-56019110D01*
X50534689Y-56019112D01*
X50660211Y-56091582D01*
X50660212Y-56091582D01*
X50660215Y-56091584D01*
X50800225Y-56129100D01*
X50800226Y-56129100D01*
X50945174Y-56129100D01*
X50945175Y-56129100D01*
X51085185Y-56091584D01*
X51085187Y-56091582D01*
X51085189Y-56091582D01*
X51210710Y-56019112D01*
X51210710Y-56019111D01*
X51210715Y-56019109D01*
X51254024Y-55975800D01*
X51271729Y-55958096D01*
X51326246Y-55930319D01*
X51341732Y-55929100D01*
X74467545Y-55929100D01*
X74467545Y-55929099D01*
X74514138Y-55916615D01*
X74523476Y-55914113D01*
X74562024Y-55911586D01*
X74565922Y-55912099D01*
X74565925Y-55912100D01*
X74565928Y-55912100D01*
X74710874Y-55912100D01*
X74710875Y-55912100D01*
X74850885Y-55874584D01*
X74850887Y-55874582D01*
X74850889Y-55874582D01*
X74976410Y-55802112D01*
X74976410Y-55802111D01*
X74976415Y-55802109D01*
X75078909Y-55699615D01*
X75151384Y-55574085D01*
X75188900Y-55434075D01*
X75188900Y-55289125D01*
X75151384Y-55149115D01*
X75151382Y-55149111D01*
X75151382Y-55149110D01*
X75078912Y-55023589D01*
X75078910Y-55023587D01*
X75078909Y-55023585D01*
X74976415Y-54921091D01*
X74976412Y-54921089D01*
X74976410Y-54921087D01*
X74850888Y-54848617D01*
X74850889Y-54848617D01*
X74821296Y-54840687D01*
X74710875Y-54811100D01*
X74565925Y-54811100D01*
X74504190Y-54827641D01*
X74425910Y-54848617D01*
X74300389Y-54921087D01*
X74197887Y-55023589D01*
X74125417Y-55149111D01*
X74123914Y-55154722D01*
X74090591Y-55206037D01*
X74033470Y-55227964D01*
X74028287Y-55228100D01*
X51341732Y-55228100D01*
X51283541Y-55209193D01*
X51271729Y-55199104D01*
X51210715Y-55138091D01*
X51210710Y-55138087D01*
X51085188Y-55065617D01*
X51085189Y-55065617D01*
X51055596Y-55057687D01*
X50945175Y-55028100D01*
X50800225Y-55028100D01*
X50738490Y-55044641D01*
X50660210Y-55065617D01*
X50534689Y-55138087D01*
X50432187Y-55240589D01*
X50359717Y-55366110D01*
X50359716Y-55366115D01*
X50322200Y-55506125D01*
X10500500Y-55506125D01*
X10500500Y-52927525D01*
X40420100Y-52927525D01*
X40420100Y-53072474D01*
X40457617Y-53212489D01*
X40530087Y-53338010D01*
X40530089Y-53338012D01*
X40530091Y-53338015D01*
X40632585Y-53440509D01*
X40632587Y-53440510D01*
X40632589Y-53440512D01*
X40758111Y-53512982D01*
X40758112Y-53512982D01*
X40758115Y-53512984D01*
X40898125Y-53550500D01*
X40898126Y-53550500D01*
X41043074Y-53550500D01*
X41043075Y-53550500D01*
X41183085Y-53512984D01*
X41183087Y-53512982D01*
X41183089Y-53512982D01*
X41308610Y-53440512D01*
X41308610Y-53440511D01*
X41308615Y-53440509D01*
X41411109Y-53338015D01*
X41483584Y-53212485D01*
X41521100Y-53072475D01*
X41521100Y-52927525D01*
X41483584Y-52787515D01*
X41483582Y-52787512D01*
X41483582Y-52787510D01*
X41411112Y-52661989D01*
X41411110Y-52661987D01*
X41411109Y-52661985D01*
X41308615Y-52559491D01*
X41308612Y-52559489D01*
X41308610Y-52559487D01*
X41183088Y-52487017D01*
X41183089Y-52487017D01*
X41153496Y-52479087D01*
X41043075Y-52449500D01*
X40898125Y-52449500D01*
X40836390Y-52466041D01*
X40758110Y-52487017D01*
X40632589Y-52559487D01*
X40530087Y-52661989D01*
X40457617Y-52787510D01*
X40420100Y-52927525D01*
X10500500Y-52927525D01*
X10500500Y-37885265D01*
X20249500Y-37885265D01*
X20249500Y-38114734D01*
X20279452Y-38342238D01*
X20338841Y-38563885D01*
X20426653Y-38775883D01*
X20541388Y-38974611D01*
X20580351Y-39025388D01*
X20681081Y-39156661D01*
X20843339Y-39318919D01*
X21025388Y-39458611D01*
X21224112Y-39573344D01*
X21224113Y-39573344D01*
X21224116Y-39573346D01*
X21312269Y-39609860D01*
X21436113Y-39661158D01*
X21657762Y-39720548D01*
X21885266Y-39750500D01*
X21885267Y-39750500D01*
X22114733Y-39750500D01*
X22114734Y-39750500D01*
X22342238Y-39720548D01*
X22563887Y-39661158D01*
X22775888Y-39573344D01*
X22974612Y-39458611D01*
X23156661Y-39318919D01*
X23318919Y-39156661D01*
X23458611Y-38974612D01*
X23573344Y-38775888D01*
X23661158Y-38563887D01*
X23720548Y-38342238D01*
X23750500Y-38114734D01*
X23750500Y-37885266D01*
X23720548Y-37657762D01*
X23661158Y-37436113D01*
X23583357Y-37248286D01*
X23573346Y-37224116D01*
X23548566Y-37181196D01*
X23458611Y-37025388D01*
X23318919Y-36843339D01*
X23156661Y-36681081D01*
X23017627Y-36574396D01*
X22974611Y-36541388D01*
X22775883Y-36426653D01*
X22563885Y-36338841D01*
X22342238Y-36279452D01*
X22114734Y-36249500D01*
X21885266Y-36249500D01*
X21885265Y-36249500D01*
X21657761Y-36279452D01*
X21436114Y-36338841D01*
X21224116Y-36426653D01*
X21025388Y-36541388D01*
X20843342Y-36681078D01*
X20681078Y-36843342D01*
X20541388Y-37025388D01*
X20426653Y-37224116D01*
X20338841Y-37436114D01*
X20279452Y-37657761D01*
X20249500Y-37885265D01*
X10500500Y-37885265D01*
X10500500Y-32662525D01*
X46952000Y-32662525D01*
X46952000Y-32807475D01*
X46962220Y-32845615D01*
X46989517Y-32947489D01*
X47061987Y-33073010D01*
X47061989Y-33073012D01*
X47061991Y-33073015D01*
X47164485Y-33175509D01*
X47164487Y-33175510D01*
X47164489Y-33175512D01*
X47290011Y-33247982D01*
X47290012Y-33247982D01*
X47290015Y-33247984D01*
X47430025Y-33285500D01*
X47430026Y-33285500D01*
X47574974Y-33285500D01*
X47574975Y-33285500D01*
X47714985Y-33247984D01*
X47714987Y-33247982D01*
X47714989Y-33247982D01*
X47840510Y-33175512D01*
X47840510Y-33175511D01*
X47840515Y-33175509D01*
X47943009Y-33073015D01*
X48015484Y-32947485D01*
X48053000Y-32807475D01*
X48053000Y-32662525D01*
X48015484Y-32522515D01*
X48015482Y-32522512D01*
X48015482Y-32522510D01*
X47943012Y-32396989D01*
X47943010Y-32396987D01*
X47943009Y-32396985D01*
X47840515Y-32294491D01*
X47840512Y-32294489D01*
X47840510Y-32294487D01*
X47714988Y-32222017D01*
X47714989Y-32222017D01*
X47614952Y-32195212D01*
X47574975Y-32184500D01*
X47430025Y-32184500D01*
X47390059Y-32195209D01*
X47290010Y-32222017D01*
X47164489Y-32294487D01*
X47061987Y-32396989D01*
X46989517Y-32522510D01*
X46965134Y-32613507D01*
X46952000Y-32662525D01*
X10500500Y-32662525D01*
X10500500Y-28982225D01*
X46999000Y-28982225D01*
X46999000Y-29127174D01*
X47036517Y-29267189D01*
X47108987Y-29392710D01*
X47108989Y-29392712D01*
X47108991Y-29392715D01*
X47211485Y-29495209D01*
X47211487Y-29495210D01*
X47211489Y-29495212D01*
X47337011Y-29567682D01*
X47337012Y-29567682D01*
X47337015Y-29567684D01*
X47477025Y-29605200D01*
X47477026Y-29605200D01*
X47621974Y-29605200D01*
X47621975Y-29605200D01*
X47761985Y-29567684D01*
X47761987Y-29567682D01*
X47761989Y-29567682D01*
X47887510Y-29495212D01*
X47887510Y-29495211D01*
X47887515Y-29495209D01*
X47990009Y-29392715D01*
X48062484Y-29267185D01*
X48100000Y-29127175D01*
X48100000Y-28982225D01*
X48062484Y-28842215D01*
X48062482Y-28842212D01*
X48062482Y-28842210D01*
X47990012Y-28716689D01*
X47990010Y-28716687D01*
X47990009Y-28716685D01*
X47887515Y-28614191D01*
X47887512Y-28614189D01*
X47887510Y-28614187D01*
X47761988Y-28541717D01*
X47761989Y-28541717D01*
X47732396Y-28533787D01*
X47621975Y-28504200D01*
X47477025Y-28504200D01*
X47415290Y-28520741D01*
X47337010Y-28541717D01*
X47211489Y-28614187D01*
X47108987Y-28716689D01*
X47036517Y-28842210D01*
X46999000Y-28982225D01*
X10500500Y-28982225D01*
X10500500Y-27582525D01*
X64453600Y-27582525D01*
X64453600Y-27727474D01*
X64491117Y-27867489D01*
X64563587Y-27993010D01*
X64563589Y-27993012D01*
X64563591Y-27993015D01*
X64666085Y-28095509D01*
X64666087Y-28095510D01*
X64666089Y-28095512D01*
X64791611Y-28167982D01*
X64791612Y-28167982D01*
X64791615Y-28167984D01*
X64931625Y-28205500D01*
X64931626Y-28205500D01*
X65076574Y-28205500D01*
X65076575Y-28205500D01*
X65216585Y-28167984D01*
X65216587Y-28167982D01*
X65216589Y-28167982D01*
X65342110Y-28095512D01*
X65342110Y-28095511D01*
X65342115Y-28095509D01*
X65444609Y-27993015D01*
X65517084Y-27867485D01*
X65554600Y-27727475D01*
X65554600Y-27582525D01*
X65517084Y-27442515D01*
X65517082Y-27442512D01*
X65517082Y-27442510D01*
X65444612Y-27316989D01*
X65444610Y-27316987D01*
X65444609Y-27316985D01*
X65342115Y-27214491D01*
X65342112Y-27214489D01*
X65342110Y-27214487D01*
X65216588Y-27142017D01*
X65216589Y-27142017D01*
X65186996Y-27134087D01*
X65076575Y-27104500D01*
X64931625Y-27104500D01*
X64869890Y-27121041D01*
X64791610Y-27142017D01*
X64666089Y-27214487D01*
X64563587Y-27316989D01*
X64491117Y-27442510D01*
X64453600Y-27582525D01*
X10500500Y-27582525D01*
X10500500Y-25042525D01*
X46951200Y-25042525D01*
X46951200Y-25187475D01*
X46979181Y-25291900D01*
X46988717Y-25327489D01*
X47061187Y-25453010D01*
X47061189Y-25453012D01*
X47061191Y-25453015D01*
X47163685Y-25555509D01*
X47163687Y-25555510D01*
X47175882Y-25562551D01*
X47216824Y-25608020D01*
X47223220Y-25668870D01*
X47192628Y-25721859D01*
X47175885Y-25734023D01*
X47171789Y-25736387D01*
X47069287Y-25838889D01*
X46996817Y-25964410D01*
X46963321Y-26089419D01*
X46959300Y-26104425D01*
X46959300Y-26249375D01*
X46969703Y-26288200D01*
X46996817Y-26389389D01*
X47069287Y-26514910D01*
X47069289Y-26514912D01*
X47069291Y-26514915D01*
X47171785Y-26617409D01*
X47171787Y-26617410D01*
X47171789Y-26617412D01*
X47297311Y-26689882D01*
X47297312Y-26689882D01*
X47297315Y-26689884D01*
X47437325Y-26727400D01*
X47437326Y-26727400D01*
X47582274Y-26727400D01*
X47582275Y-26727400D01*
X47722285Y-26689884D01*
X47722287Y-26689882D01*
X47722289Y-26689882D01*
X47847810Y-26617412D01*
X47847810Y-26617411D01*
X47847815Y-26617409D01*
X47950309Y-26514915D01*
X47976500Y-26469548D01*
X47992223Y-26449058D01*
X48336856Y-26104425D01*
X64459300Y-26104425D01*
X64459300Y-26249375D01*
X64469703Y-26288200D01*
X64496817Y-26389389D01*
X64569287Y-26514910D01*
X64569289Y-26514912D01*
X64569291Y-26514915D01*
X64671785Y-26617409D01*
X64671787Y-26617410D01*
X64671789Y-26617412D01*
X64797311Y-26689882D01*
X64797312Y-26689882D01*
X64797315Y-26689884D01*
X64937325Y-26727400D01*
X64937326Y-26727400D01*
X65082274Y-26727400D01*
X65082275Y-26727400D01*
X65222285Y-26689884D01*
X65222287Y-26689882D01*
X65222289Y-26689882D01*
X65347810Y-26617412D01*
X65347810Y-26617411D01*
X65347815Y-26617409D01*
X65390737Y-26574487D01*
X65408829Y-26556396D01*
X65463346Y-26528619D01*
X65478832Y-26527400D01*
X85044242Y-26527400D01*
X85044244Y-26527400D01*
X85133388Y-26503514D01*
X85144012Y-26497380D01*
X85213312Y-26457370D01*
X85315300Y-26355382D01*
X85353487Y-26317196D01*
X85408003Y-26289419D01*
X85423490Y-26288200D01*
X85509774Y-26288200D01*
X85509775Y-26288200D01*
X85649785Y-26250684D01*
X85649787Y-26250682D01*
X85649789Y-26250682D01*
X85775310Y-26178212D01*
X85775310Y-26178211D01*
X85775315Y-26178209D01*
X85877809Y-26075715D01*
X85877812Y-26075710D01*
X85950282Y-25950189D01*
X85950282Y-25950187D01*
X85950284Y-25950185D01*
X85987800Y-25810175D01*
X85987800Y-25665225D01*
X85950284Y-25525215D01*
X85950282Y-25525212D01*
X85950282Y-25525210D01*
X85877812Y-25399689D01*
X85877810Y-25399687D01*
X85877809Y-25399685D01*
X85775315Y-25297191D01*
X85775312Y-25297189D01*
X85775310Y-25297187D01*
X85649788Y-25224717D01*
X85649789Y-25224717D01*
X85620196Y-25216787D01*
X85509775Y-25187200D01*
X85364825Y-25187200D01*
X85303090Y-25203741D01*
X85224810Y-25224717D01*
X85099289Y-25297187D01*
X84996787Y-25399689D01*
X84924317Y-25525210D01*
X84886800Y-25665225D01*
X84886800Y-25727400D01*
X84867893Y-25785591D01*
X84818393Y-25821555D01*
X84787800Y-25826400D01*
X65478832Y-25826400D01*
X65420641Y-25807493D01*
X65408829Y-25797404D01*
X65347815Y-25736391D01*
X65347810Y-25736387D01*
X65222288Y-25663917D01*
X65222289Y-25663917D01*
X65159285Y-25647035D01*
X65082275Y-25626400D01*
X64937325Y-25626400D01*
X64875590Y-25642941D01*
X64797310Y-25663917D01*
X64671789Y-25736387D01*
X64569287Y-25838889D01*
X64496817Y-25964410D01*
X64463321Y-26089419D01*
X64459300Y-26104425D01*
X48336856Y-26104425D01*
X50480786Y-23960496D01*
X50535303Y-23932719D01*
X50550790Y-23931500D01*
X74365142Y-23931500D01*
X74365144Y-23931500D01*
X74454288Y-23907614D01*
X74466098Y-23900794D01*
X74466102Y-23900794D01*
X74505423Y-23878090D01*
X74534212Y-23861470D01*
X76620362Y-21775319D01*
X76674877Y-21747544D01*
X76735309Y-21757115D01*
X76778574Y-21800380D01*
X76781828Y-21807439D01*
X76823534Y-21908125D01*
X76823538Y-21908133D01*
X76855936Y-21956619D01*
X76894724Y-22014669D01*
X76985331Y-22105276D01*
X77048848Y-22147717D01*
X77091866Y-22176461D01*
X77091870Y-22176463D01*
X77091873Y-22176465D01*
X77210256Y-22225501D01*
X77335931Y-22250500D01*
X77335932Y-22250500D01*
X77464068Y-22250500D01*
X77464069Y-22250500D01*
X77589744Y-22225501D01*
X77708127Y-22176465D01*
X77814669Y-22105276D01*
X77905276Y-22014669D01*
X77918753Y-21994498D01*
X77966803Y-21956619D01*
X78001069Y-21950500D01*
X87588810Y-21950500D01*
X87647001Y-21969407D01*
X87658814Y-21979496D01*
X89856204Y-24176886D01*
X89883981Y-24231403D01*
X89885200Y-24246890D01*
X89885200Y-24333175D01*
X89888764Y-24346475D01*
X89922717Y-24473189D01*
X89995187Y-24598710D01*
X89995189Y-24598712D01*
X89995191Y-24598715D01*
X90097685Y-24701209D01*
X90097687Y-24701210D01*
X90097689Y-24701212D01*
X90223211Y-24773682D01*
X90223212Y-24773682D01*
X90223215Y-24773684D01*
X90363225Y-24811200D01*
X90449510Y-24811200D01*
X90507701Y-24830107D01*
X90519514Y-24840196D01*
X93210588Y-27531270D01*
X93210590Y-27531271D01*
X93279877Y-27571275D01*
X93279886Y-27571278D01*
X93279888Y-27571280D01*
X93290512Y-27577414D01*
X93379656Y-27601300D01*
X106956768Y-27601300D01*
X107014959Y-27620207D01*
X107026771Y-27630296D01*
X107087784Y-27691308D01*
X107087789Y-27691312D01*
X107213311Y-27763782D01*
X107213312Y-27763782D01*
X107213315Y-27763784D01*
X107353325Y-27801300D01*
X107353326Y-27801300D01*
X107498274Y-27801300D01*
X107498275Y-27801300D01*
X107638285Y-27763784D01*
X107638287Y-27763782D01*
X107638289Y-27763782D01*
X107763810Y-27691312D01*
X107763810Y-27691311D01*
X107763815Y-27691309D01*
X107794322Y-27660802D01*
X107824829Y-27630296D01*
X107879346Y-27602519D01*
X107894832Y-27601300D01*
X125985342Y-27601300D01*
X125985344Y-27601300D01*
X126074488Y-27577414D01*
X126074499Y-27577407D01*
X126080483Y-27574930D01*
X126081080Y-27576372D01*
X126121650Y-27565500D01*
X126247474Y-27565500D01*
X126247475Y-27565500D01*
X126387485Y-27527984D01*
X126387487Y-27527982D01*
X126387489Y-27527982D01*
X126513010Y-27455512D01*
X126513010Y-27455511D01*
X126513015Y-27455509D01*
X126615509Y-27353015D01*
X126687984Y-27227485D01*
X126725500Y-27087475D01*
X126725500Y-26942525D01*
X126687984Y-26802515D01*
X126687982Y-26802511D01*
X126687982Y-26802510D01*
X126615512Y-26676989D01*
X126615510Y-26676987D01*
X126615509Y-26676985D01*
X126513015Y-26574491D01*
X126513012Y-26574489D01*
X126513010Y-26574487D01*
X126387488Y-26502017D01*
X126387489Y-26502017D01*
X126357896Y-26494087D01*
X126247475Y-26464500D01*
X126102525Y-26464500D01*
X126040790Y-26481041D01*
X125962510Y-26502017D01*
X125836989Y-26574487D01*
X125734487Y-26676989D01*
X125662017Y-26802511D01*
X125662015Y-26802515D01*
X125655475Y-26826924D01*
X125622151Y-26878238D01*
X125565029Y-26900164D01*
X125559849Y-26900300D01*
X107894832Y-26900300D01*
X107836641Y-26881393D01*
X107824829Y-26871304D01*
X107763815Y-26810291D01*
X107763810Y-26810287D01*
X107638288Y-26737817D01*
X107638289Y-26737817D01*
X107599412Y-26727400D01*
X107498275Y-26700300D01*
X107353325Y-26700300D01*
X107291590Y-26716841D01*
X107213310Y-26737817D01*
X107087789Y-26810287D01*
X107087784Y-26810291D01*
X107026771Y-26871304D01*
X106972254Y-26899081D01*
X106956768Y-26900300D01*
X93611990Y-26900300D01*
X93553799Y-26881393D01*
X93541986Y-26871304D01*
X91015196Y-24344514D01*
X90987419Y-24289997D01*
X90986200Y-24274510D01*
X90986200Y-24188225D01*
X90983162Y-24176886D01*
X90948684Y-24048215D01*
X90948682Y-24048212D01*
X90948682Y-24048210D01*
X90876212Y-23922689D01*
X90876210Y-23922687D01*
X90876209Y-23922685D01*
X90773715Y-23820191D01*
X90773712Y-23820189D01*
X90773710Y-23820187D01*
X90648188Y-23747717D01*
X90648189Y-23747717D01*
X90618596Y-23739787D01*
X90508175Y-23710200D01*
X90508174Y-23710200D01*
X90421890Y-23710200D01*
X90363699Y-23691293D01*
X90351886Y-23681204D01*
X89222582Y-22551900D01*
X88056583Y-21385901D01*
X88028808Y-21331387D01*
X88038379Y-21270955D01*
X88081644Y-21227690D01*
X88126589Y-21216900D01*
X89381610Y-21216900D01*
X89439801Y-21235807D01*
X89451614Y-21245896D01*
X94328588Y-26122870D01*
X94328590Y-26122871D01*
X94397877Y-26162875D01*
X94397886Y-26162878D01*
X94397888Y-26162880D01*
X94408512Y-26169014D01*
X94497656Y-26192900D01*
X94497657Y-26192900D01*
X94589944Y-26192900D01*
X102610168Y-26192900D01*
X102668359Y-26211807D01*
X102680171Y-26221896D01*
X102741184Y-26282908D01*
X102741189Y-26282912D01*
X102866711Y-26355382D01*
X102866712Y-26355382D01*
X102866715Y-26355384D01*
X103006725Y-26392900D01*
X103006726Y-26392900D01*
X103151674Y-26392900D01*
X103151675Y-26392900D01*
X103291685Y-26355384D01*
X103291687Y-26355382D01*
X103291689Y-26355382D01*
X103417210Y-26282912D01*
X103417210Y-26282911D01*
X103417215Y-26282909D01*
X103519709Y-26180415D01*
X103520983Y-26178208D01*
X103592182Y-26054889D01*
X103592182Y-26054887D01*
X103592184Y-26054885D01*
X103629700Y-25914875D01*
X103629700Y-25769925D01*
X103601645Y-25665225D01*
X121886800Y-25665225D01*
X121886800Y-25810175D01*
X121891148Y-25826400D01*
X121924317Y-25950189D01*
X121996787Y-26075710D01*
X121996789Y-26075712D01*
X121996791Y-26075715D01*
X122099285Y-26178209D01*
X122099287Y-26178210D01*
X122099289Y-26178212D01*
X122224811Y-26250682D01*
X122224812Y-26250682D01*
X122224815Y-26250684D01*
X122364825Y-26288200D01*
X122364826Y-26288200D01*
X122509774Y-26288200D01*
X122509775Y-26288200D01*
X122649785Y-26250684D01*
X122649787Y-26250682D01*
X122649789Y-26250682D01*
X122775310Y-26178212D01*
X122775310Y-26178211D01*
X122775315Y-26178209D01*
X122805822Y-26147702D01*
X122836329Y-26117196D01*
X122890846Y-26089419D01*
X122906332Y-26088200D01*
X127151242Y-26088200D01*
X127151244Y-26088200D01*
X127240388Y-26064314D01*
X127251993Y-26057613D01*
X127251995Y-26057613D01*
X127270300Y-26047044D01*
X127320312Y-26018170D01*
X128362586Y-24975896D01*
X128417103Y-24948119D01*
X128432590Y-24946900D01*
X128518874Y-24946900D01*
X128518875Y-24946900D01*
X128658885Y-24909384D01*
X128658887Y-24909382D01*
X128658889Y-24909382D01*
X128784410Y-24836912D01*
X128784410Y-24836911D01*
X128784415Y-24836909D01*
X128886909Y-24734415D01*
X128957344Y-24612419D01*
X128959382Y-24608889D01*
X128959382Y-24608887D01*
X128959384Y-24608885D01*
X128996900Y-24468875D01*
X128996900Y-24323925D01*
X128959384Y-24183915D01*
X128959382Y-24183912D01*
X128959382Y-24183910D01*
X128886912Y-24058389D01*
X128886910Y-24058387D01*
X128886909Y-24058385D01*
X128784415Y-23955891D01*
X128784412Y-23955889D01*
X128784410Y-23955887D01*
X128658888Y-23883417D01*
X128658889Y-23883417D01*
X128576982Y-23861470D01*
X128518875Y-23845900D01*
X128373925Y-23845900D01*
X128315818Y-23861470D01*
X128233910Y-23883417D01*
X128108389Y-23955887D01*
X128005887Y-24058389D01*
X127933417Y-24183910D01*
X127895900Y-24323925D01*
X127895900Y-24410210D01*
X127876993Y-24468401D01*
X127866904Y-24480214D01*
X126988914Y-25358204D01*
X126934397Y-25385981D01*
X126918910Y-25387200D01*
X122906332Y-25387200D01*
X122848141Y-25368293D01*
X122836329Y-25358204D01*
X122775315Y-25297191D01*
X122775310Y-25297187D01*
X122649788Y-25224717D01*
X122649789Y-25224717D01*
X122620196Y-25216787D01*
X122509775Y-25187200D01*
X122364825Y-25187200D01*
X122303090Y-25203741D01*
X122224810Y-25224717D01*
X122099289Y-25297187D01*
X121996787Y-25399689D01*
X121924317Y-25525210D01*
X121902128Y-25608020D01*
X121886800Y-25665225D01*
X103601645Y-25665225D01*
X103592184Y-25629915D01*
X103592182Y-25629912D01*
X103592182Y-25629910D01*
X103519712Y-25504389D01*
X103519710Y-25504387D01*
X103519709Y-25504385D01*
X103417215Y-25401891D01*
X103417212Y-25401889D01*
X103417210Y-25401887D01*
X103291688Y-25329417D01*
X103291689Y-25329417D01*
X103262096Y-25321487D01*
X103151675Y-25291900D01*
X103006725Y-25291900D01*
X102944990Y-25308441D01*
X102866710Y-25329417D01*
X102741189Y-25401887D01*
X102741184Y-25401891D01*
X102680171Y-25462904D01*
X102625654Y-25490681D01*
X102610168Y-25491900D01*
X94729990Y-25491900D01*
X94671799Y-25472993D01*
X94659986Y-25462904D01*
X93448822Y-24251740D01*
X93385307Y-24188225D01*
X111363800Y-24188225D01*
X111363800Y-24333175D01*
X111367364Y-24346475D01*
X111401317Y-24473189D01*
X111473787Y-24598710D01*
X111473789Y-24598712D01*
X111473791Y-24598715D01*
X111576285Y-24701209D01*
X111576287Y-24701210D01*
X111576289Y-24701212D01*
X111701811Y-24773682D01*
X111701812Y-24773682D01*
X111701815Y-24773684D01*
X111841825Y-24811200D01*
X111841826Y-24811200D01*
X111986774Y-24811200D01*
X111986775Y-24811200D01*
X112126785Y-24773684D01*
X112126787Y-24773682D01*
X112126789Y-24773682D01*
X112252310Y-24701212D01*
X112252310Y-24701211D01*
X112252315Y-24701209D01*
X112282822Y-24670702D01*
X112313329Y-24640196D01*
X112367846Y-24612419D01*
X112383332Y-24611200D01*
X116785442Y-24611200D01*
X116785444Y-24611200D01*
X116874588Y-24587314D01*
X116885212Y-24581180D01*
X116954512Y-24541170D01*
X124816186Y-16679496D01*
X124870703Y-16651719D01*
X124886190Y-16650500D01*
X127197869Y-16650500D01*
X127197872Y-16650500D01*
X127257482Y-16644091D01*
X127304304Y-16626627D01*
X127392328Y-16593797D01*
X127392328Y-16593796D01*
X127392330Y-16593796D01*
X127507546Y-16507546D01*
X127593796Y-16392330D01*
X127644091Y-16257482D01*
X127650500Y-16197872D01*
X127650500Y-14870099D01*
X134349500Y-14870099D01*
X134349500Y-15129900D01*
X134390138Y-15386488D01*
X134440647Y-15541936D01*
X134470421Y-15633572D01*
X134485530Y-15663224D01*
X134580951Y-15850500D01*
X134588366Y-15865051D01*
X134741069Y-16075229D01*
X134924771Y-16258931D01*
X135134949Y-16411634D01*
X135366428Y-16529579D01*
X135613507Y-16609860D01*
X135613508Y-16609860D01*
X135613511Y-16609861D01*
X135870100Y-16650500D01*
X135870103Y-16650500D01*
X136129900Y-16650500D01*
X136386488Y-16609861D01*
X136386489Y-16609860D01*
X136386493Y-16609860D01*
X136633572Y-16529579D01*
X136865051Y-16411634D01*
X137075229Y-16258931D01*
X137258931Y-16075229D01*
X137411634Y-15865051D01*
X137529579Y-15633572D01*
X137609860Y-15386493D01*
X137650500Y-15129897D01*
X137650500Y-14870103D01*
X137650500Y-14870099D01*
X137609861Y-14613511D01*
X137604206Y-14596105D01*
X137529579Y-14366428D01*
X137411634Y-14134949D01*
X137258931Y-13924771D01*
X137075229Y-13741069D01*
X136865051Y-13588366D01*
X136865050Y-13588365D01*
X136865048Y-13588364D01*
X136757964Y-13533802D01*
X136633572Y-13470421D01*
X136633569Y-13470420D01*
X136633567Y-13470419D01*
X136386488Y-13390138D01*
X136129900Y-13349500D01*
X136129897Y-13349500D01*
X135870103Y-13349500D01*
X135870100Y-13349500D01*
X135613511Y-13390138D01*
X135366432Y-13470419D01*
X135134951Y-13588364D01*
X134924772Y-13741068D01*
X134741068Y-13924772D01*
X134588364Y-14134951D01*
X134470419Y-14366432D01*
X134390138Y-14613511D01*
X134349500Y-14870099D01*
X127650500Y-14870099D01*
X127650500Y-13802128D01*
X127644091Y-13742518D01*
X127643550Y-13741068D01*
X127593797Y-13607671D01*
X127507549Y-13492458D01*
X127507548Y-13492457D01*
X127507546Y-13492454D01*
X127507541Y-13492450D01*
X127392328Y-13406202D01*
X127257487Y-13355910D01*
X127257482Y-13355909D01*
X127257480Y-13355908D01*
X127257476Y-13355908D01*
X127226248Y-13352550D01*
X127197872Y-13349500D01*
X124802128Y-13349500D01*
X124777637Y-13352133D01*
X124742523Y-13355908D01*
X124742512Y-13355910D01*
X124607671Y-13406202D01*
X124492458Y-13492450D01*
X124492450Y-13492458D01*
X124406202Y-13607671D01*
X124355910Y-13742512D01*
X124355908Y-13742523D01*
X124349500Y-13802130D01*
X124349500Y-16113810D01*
X124330593Y-16172001D01*
X124320504Y-16183814D01*
X116623114Y-23881204D01*
X116568597Y-23908981D01*
X116553110Y-23910200D01*
X112383332Y-23910200D01*
X112325141Y-23891293D01*
X112313329Y-23881204D01*
X112252315Y-23820191D01*
X112252310Y-23820187D01*
X112126788Y-23747717D01*
X112126789Y-23747717D01*
X112097196Y-23739787D01*
X111986775Y-23710200D01*
X111841825Y-23710200D01*
X111796739Y-23722281D01*
X111701810Y-23747717D01*
X111576289Y-23820187D01*
X111473787Y-23922689D01*
X111401317Y-24048210D01*
X111397752Y-24061515D01*
X111363800Y-24188225D01*
X93385307Y-24188225D01*
X91619389Y-22422307D01*
X89783012Y-20585930D01*
X89703088Y-20539786D01*
X89613944Y-20515900D01*
X76987456Y-20515900D01*
X76898312Y-20539786D01*
X76818388Y-20585930D01*
X74202814Y-23201504D01*
X74148297Y-23229281D01*
X74132810Y-23230500D01*
X65564072Y-23230500D01*
X65505881Y-23211593D01*
X65469917Y-23162093D01*
X65469917Y-23100907D01*
X65478335Y-23082000D01*
X65516722Y-23015512D01*
X65517084Y-23014885D01*
X65554600Y-22874875D01*
X65554600Y-22729925D01*
X65517084Y-22589915D01*
X65495136Y-22551900D01*
X65482415Y-22492052D01*
X65507302Y-22436156D01*
X65560290Y-22405563D01*
X65580873Y-22403400D01*
X70193242Y-22403400D01*
X70193244Y-22403400D01*
X70282388Y-22379514D01*
X70311831Y-22362515D01*
X70362312Y-22333370D01*
X70422819Y-22272861D01*
X70477335Y-22245083D01*
X70512137Y-22245766D01*
X70535931Y-22250500D01*
X70535936Y-22250500D01*
X70664068Y-22250500D01*
X70664069Y-22250500D01*
X70789744Y-22225501D01*
X70908127Y-22176465D01*
X71014669Y-22105276D01*
X71105276Y-22014669D01*
X71176465Y-21908127D01*
X71225501Y-21789744D01*
X71250500Y-21664069D01*
X71250500Y-21535931D01*
X71225501Y-21410256D01*
X71176465Y-21291873D01*
X71176463Y-21291870D01*
X71176461Y-21291866D01*
X71133579Y-21227690D01*
X71105276Y-21185331D01*
X71014669Y-21094724D01*
X70972226Y-21066365D01*
X70908133Y-21023538D01*
X70908125Y-21023534D01*
X70789747Y-20974500D01*
X70789745Y-20974499D01*
X70789744Y-20974499D01*
X70664069Y-20949500D01*
X70535931Y-20949500D01*
X70535930Y-20949500D01*
X70473093Y-20961999D01*
X70410256Y-20974499D01*
X70410255Y-20974499D01*
X70410252Y-20974500D01*
X70291874Y-21023534D01*
X70291866Y-21023538D01*
X70185331Y-21094724D01*
X70185327Y-21094727D01*
X70094727Y-21185327D01*
X70094724Y-21185331D01*
X70023538Y-21291866D01*
X70023534Y-21291874D01*
X69974500Y-21410252D01*
X69974499Y-21410257D01*
X69949500Y-21535930D01*
X69949500Y-21603400D01*
X69930593Y-21661591D01*
X69881093Y-21697555D01*
X69850500Y-21702400D01*
X65580197Y-21702400D01*
X65522006Y-21683493D01*
X65486042Y-21633993D01*
X65486042Y-21572807D01*
X65494460Y-21553901D01*
X65510449Y-21526204D01*
X65515484Y-21517485D01*
X65553000Y-21377475D01*
X65553000Y-21232525D01*
X65515484Y-21092515D01*
X65515482Y-21092512D01*
X65515482Y-21092510D01*
X65443012Y-20966989D01*
X65443010Y-20966987D01*
X65443009Y-20966985D01*
X65340515Y-20864491D01*
X65340512Y-20864489D01*
X65340510Y-20864487D01*
X65214988Y-20792017D01*
X65214989Y-20792017D01*
X65185396Y-20784087D01*
X65074975Y-20754500D01*
X64930025Y-20754500D01*
X64900449Y-20762425D01*
X64790010Y-20792017D01*
X64664489Y-20864487D01*
X64561987Y-20966989D01*
X64489517Y-21092510D01*
X64452000Y-21232525D01*
X64452000Y-21377474D01*
X64489517Y-21517488D01*
X64510540Y-21553901D01*
X64523261Y-21613749D01*
X64498374Y-21669644D01*
X64445386Y-21700237D01*
X64424803Y-21702400D01*
X51558990Y-21702400D01*
X51500799Y-21683493D01*
X51464835Y-21633993D01*
X51464835Y-21572807D01*
X51488986Y-21533396D01*
X52849286Y-20173096D01*
X52903803Y-20145319D01*
X52919290Y-20144100D01*
X69252542Y-20144100D01*
X69252544Y-20144100D01*
X69341688Y-20120214D01*
X69421612Y-20074070D01*
X70422822Y-19072858D01*
X70477337Y-19045083D01*
X70512137Y-19045766D01*
X70535931Y-19050500D01*
X70535936Y-19050500D01*
X70664068Y-19050500D01*
X70664069Y-19050500D01*
X70789744Y-19025501D01*
X70908127Y-18976465D01*
X71014669Y-18905276D01*
X71105276Y-18814669D01*
X71176465Y-18708127D01*
X71225501Y-18589744D01*
X71250500Y-18464069D01*
X71250500Y-18335931D01*
X71225501Y-18210256D01*
X71176465Y-18091873D01*
X71176463Y-18091870D01*
X71176461Y-18091866D01*
X71147717Y-18048848D01*
X71105276Y-17985331D01*
X71014669Y-17894724D01*
X70972226Y-17866365D01*
X70908133Y-17823538D01*
X70908125Y-17823534D01*
X70789747Y-17774500D01*
X70789745Y-17774499D01*
X70789744Y-17774499D01*
X70664069Y-17749500D01*
X70535931Y-17749500D01*
X70535930Y-17749500D01*
X70473093Y-17761999D01*
X70410256Y-17774499D01*
X70410255Y-17774499D01*
X70410252Y-17774500D01*
X70291874Y-17823534D01*
X70291866Y-17823538D01*
X70185331Y-17894724D01*
X70185327Y-17894727D01*
X70094727Y-17985327D01*
X70094724Y-17985331D01*
X70023538Y-18091866D01*
X70023534Y-18091874D01*
X69974500Y-18210252D01*
X69974499Y-18210257D01*
X69949500Y-18335930D01*
X69949500Y-18464074D01*
X69954232Y-18487861D01*
X69947040Y-18548622D01*
X69927138Y-18577177D01*
X69090214Y-19414103D01*
X69035697Y-19441881D01*
X69020210Y-19443100D01*
X67585250Y-19443100D01*
X67527059Y-19424193D01*
X67491095Y-19374693D01*
X67491095Y-19313507D01*
X67527059Y-19264007D01*
X67559623Y-19248474D01*
X67622285Y-19231684D01*
X67747815Y-19159209D01*
X67850309Y-19056715D01*
X67857025Y-19045083D01*
X67922782Y-18931189D01*
X67922782Y-18931187D01*
X67922784Y-18931185D01*
X67960300Y-18791175D01*
X67960300Y-18646225D01*
X67922784Y-18506215D01*
X67922782Y-18506212D01*
X67922782Y-18506210D01*
X67850312Y-18380689D01*
X67850310Y-18380687D01*
X67850309Y-18380685D01*
X67747815Y-18278191D01*
X67747812Y-18278189D01*
X67747810Y-18278187D01*
X67622288Y-18205717D01*
X67622289Y-18205717D01*
X67592696Y-18197787D01*
X67482275Y-18168200D01*
X67337325Y-18168200D01*
X67275590Y-18184741D01*
X67197310Y-18205717D01*
X67071789Y-18278187D01*
X66969287Y-18380689D01*
X66896817Y-18506210D01*
X66859300Y-18646225D01*
X66859300Y-18732510D01*
X66840393Y-18790701D01*
X66830304Y-18802514D01*
X66635114Y-18997704D01*
X66580597Y-19025481D01*
X66565110Y-19026700D01*
X63124716Y-19026700D01*
X63066525Y-19007793D01*
X63030561Y-18958293D01*
X63029090Y-18902076D01*
X63046400Y-18837475D01*
X63046400Y-18692525D01*
X63008884Y-18552515D01*
X63008882Y-18552512D01*
X63008882Y-18552510D01*
X62936412Y-18426989D01*
X62936410Y-18426987D01*
X62936409Y-18426985D01*
X62833915Y-18324491D01*
X62833912Y-18324489D01*
X62833910Y-18324487D01*
X62708388Y-18252017D01*
X62708389Y-18252017D01*
X62678796Y-18244087D01*
X62568375Y-18214500D01*
X62423425Y-18214500D01*
X62361690Y-18231041D01*
X62283410Y-18252017D01*
X62157889Y-18324487D01*
X62055387Y-18426989D01*
X61982917Y-18552510D01*
X61945400Y-18692525D01*
X61945400Y-18837477D01*
X61962710Y-18902076D01*
X61959509Y-18963178D01*
X61921004Y-19010728D01*
X61867084Y-19026700D01*
X48302490Y-19026700D01*
X48244299Y-19007793D01*
X48232486Y-18997704D01*
X48083596Y-18848814D01*
X48055819Y-18794297D01*
X48054600Y-18778810D01*
X48054600Y-18692525D01*
X48027060Y-18589747D01*
X48017084Y-18552515D01*
X48017082Y-18552512D01*
X48017082Y-18552510D01*
X47944612Y-18426989D01*
X47944610Y-18426987D01*
X47944609Y-18426985D01*
X47842115Y-18324491D01*
X47842112Y-18324489D01*
X47842110Y-18324487D01*
X47716588Y-18252017D01*
X47716589Y-18252017D01*
X47686996Y-18244087D01*
X47576575Y-18214500D01*
X47431625Y-18214500D01*
X47369890Y-18231041D01*
X47291610Y-18252017D01*
X47166089Y-18324487D01*
X47063587Y-18426989D01*
X46991117Y-18552510D01*
X46966006Y-18646225D01*
X46953600Y-18692525D01*
X46953600Y-18837475D01*
X46978710Y-18931185D01*
X46991117Y-18977489D01*
X47063587Y-19103010D01*
X47063589Y-19103012D01*
X47063591Y-19103015D01*
X47166085Y-19205509D01*
X47166087Y-19205510D01*
X47166089Y-19205512D01*
X47291611Y-19277982D01*
X47291612Y-19277982D01*
X47291615Y-19277984D01*
X47390901Y-19304588D01*
X47442215Y-19337911D01*
X47464141Y-19395033D01*
X47448305Y-19454133D01*
X47400755Y-19492639D01*
X47390901Y-19495840D01*
X47293215Y-19522015D01*
X47293211Y-19522017D01*
X47167689Y-19594487D01*
X47065187Y-19696989D01*
X46992717Y-19822510D01*
X46992716Y-19822515D01*
X46955200Y-19962525D01*
X46955200Y-20107475D01*
X46972783Y-20173096D01*
X46992717Y-20247489D01*
X47065187Y-20373010D01*
X47065189Y-20373012D01*
X47065191Y-20373015D01*
X47167685Y-20475509D01*
X47167687Y-20475510D01*
X47167689Y-20475512D01*
X47293209Y-20547981D01*
X47293210Y-20547981D01*
X47293215Y-20547984D01*
X47391702Y-20574373D01*
X47443015Y-20607698D01*
X47464941Y-20664819D01*
X47449105Y-20723920D01*
X47401555Y-20762425D01*
X47391710Y-20765623D01*
X47293215Y-20792016D01*
X47293213Y-20792016D01*
X47293209Y-20792018D01*
X47167689Y-20864487D01*
X47065187Y-20966989D01*
X46992717Y-21092510D01*
X46955200Y-21232525D01*
X46955200Y-21377474D01*
X46992717Y-21517489D01*
X47065187Y-21643010D01*
X47065189Y-21643012D01*
X47065191Y-21643015D01*
X47167685Y-21745509D01*
X47167687Y-21745510D01*
X47167689Y-21745512D01*
X47293211Y-21817982D01*
X47293209Y-21817982D01*
X47293213Y-21817983D01*
X47293215Y-21817984D01*
X47394802Y-21845204D01*
X47446114Y-21878527D01*
X47468041Y-21935649D01*
X47452205Y-21994749D01*
X47404656Y-22033254D01*
X47394801Y-22036456D01*
X47299415Y-22062015D01*
X47299411Y-22062017D01*
X47173889Y-22134487D01*
X47071387Y-22236989D01*
X46998917Y-22362510D01*
X46961400Y-22502525D01*
X46961400Y-22647474D01*
X46998917Y-22787489D01*
X47071387Y-22913010D01*
X47071389Y-22913012D01*
X47071391Y-22913015D01*
X47173885Y-23015509D01*
X47173887Y-23015510D01*
X47173889Y-23015512D01*
X47299411Y-23087982D01*
X47299412Y-23087982D01*
X47299415Y-23087984D01*
X47439425Y-23125500D01*
X47439426Y-23125500D01*
X47584374Y-23125500D01*
X47584375Y-23125500D01*
X47724385Y-23087984D01*
X47724387Y-23087982D01*
X47724389Y-23087982D01*
X47849910Y-23015512D01*
X47849910Y-23015511D01*
X47849915Y-23015509D01*
X47952409Y-22913015D01*
X48024884Y-22787485D01*
X48062400Y-22647475D01*
X48062400Y-22502525D01*
X48024884Y-22362515D01*
X48024882Y-22362512D01*
X48024882Y-22362510D01*
X47952412Y-22236989D01*
X47952410Y-22236987D01*
X47952409Y-22236985D01*
X47849915Y-22134491D01*
X47849912Y-22134489D01*
X47849910Y-22134487D01*
X47724390Y-22062018D01*
X47724387Y-22062017D01*
X47724385Y-22062016D01*
X47622796Y-22034795D01*
X47571484Y-22001471D01*
X47549558Y-21944350D01*
X47565394Y-21885249D01*
X47612944Y-21846744D01*
X47622783Y-21843547D01*
X47718185Y-21817984D01*
X47718187Y-21817982D01*
X47718189Y-21817982D01*
X47843710Y-21745512D01*
X47843710Y-21745511D01*
X47843715Y-21745509D01*
X47946209Y-21643015D01*
X48018684Y-21517485D01*
X48056200Y-21377475D01*
X48056200Y-21232525D01*
X48018684Y-21092515D01*
X48018682Y-21092512D01*
X48018682Y-21092510D01*
X47946212Y-20966989D01*
X47946210Y-20966987D01*
X47946209Y-20966985D01*
X47843715Y-20864491D01*
X47843712Y-20864489D01*
X47843710Y-20864487D01*
X47718188Y-20792017D01*
X47718189Y-20792017D01*
X47706799Y-20788965D01*
X47619697Y-20765626D01*
X47568384Y-20732303D01*
X47546458Y-20675181D01*
X47562294Y-20616081D01*
X47609844Y-20577575D01*
X47619689Y-20574376D01*
X47718185Y-20547984D01*
X47718187Y-20547982D01*
X47718189Y-20547982D01*
X47843710Y-20475512D01*
X47843710Y-20475511D01*
X47843715Y-20475509D01*
X47946209Y-20373015D01*
X48018684Y-20247485D01*
X48056200Y-20107475D01*
X48056200Y-19962525D01*
X48026671Y-19852322D01*
X48029873Y-19791222D01*
X48068379Y-19743672D01*
X48122298Y-19727700D01*
X48162444Y-19727700D01*
X52064310Y-19727700D01*
X52122501Y-19746607D01*
X52158465Y-19796107D01*
X52158465Y-19857293D01*
X52134314Y-19896704D01*
X48336514Y-23694504D01*
X48281997Y-23722281D01*
X48266510Y-23723500D01*
X48180225Y-23723500D01*
X48118490Y-23740041D01*
X48040210Y-23761017D01*
X47914689Y-23833487D01*
X47812187Y-23935989D01*
X47739717Y-24061510D01*
X47702200Y-24201525D01*
X47702200Y-24346474D01*
X47720766Y-24415765D01*
X47717563Y-24476867D01*
X47679058Y-24524417D01*
X47650763Y-24537014D01*
X47605713Y-24549085D01*
X47605706Y-24549088D01*
X47601983Y-24551238D01*
X47552486Y-24564500D01*
X47429225Y-24564500D01*
X47367490Y-24581041D01*
X47289210Y-24602017D01*
X47163689Y-24674487D01*
X47061187Y-24776989D01*
X46988717Y-24902510D01*
X46988716Y-24902515D01*
X46951200Y-25042525D01*
X10500500Y-25042525D01*
X10500500Y-13878710D01*
X12149500Y-13878710D01*
X12149500Y-14121289D01*
X12181161Y-14361781D01*
X12181161Y-14361786D01*
X12243944Y-14596092D01*
X12243948Y-14596105D01*
X12336772Y-14820204D01*
X12336774Y-14820208D01*
X12336776Y-14820212D01*
X12365581Y-14870103D01*
X12458066Y-15030292D01*
X12605729Y-15222731D01*
X12605731Y-15222733D01*
X12605735Y-15222738D01*
X12777262Y-15394265D01*
X12777266Y-15394268D01*
X12777268Y-15394270D01*
X12969707Y-15541933D01*
X12969711Y-15541936D01*
X13179788Y-15663224D01*
X13403900Y-15756054D01*
X13638211Y-15818838D01*
X13878712Y-15850500D01*
X13878713Y-15850500D01*
X14121287Y-15850500D01*
X14121288Y-15850500D01*
X14361789Y-15818838D01*
X14596100Y-15756054D01*
X14820212Y-15663224D01*
X15030289Y-15541936D01*
X15222738Y-15394265D01*
X15394265Y-15222738D01*
X15541936Y-15030289D01*
X15663224Y-14820212D01*
X15756054Y-14596100D01*
X15818838Y-14361789D01*
X15850500Y-14121288D01*
X15850500Y-13878712D01*
X15818838Y-13638211D01*
X15756054Y-13403900D01*
X15663224Y-13179788D01*
X15541936Y-12969711D01*
X15394265Y-12777262D01*
X15222738Y-12605735D01*
X15222733Y-12605731D01*
X15222731Y-12605729D01*
X15030292Y-12458066D01*
X15030289Y-12458064D01*
X14820212Y-12336776D01*
X14820208Y-12336774D01*
X14820204Y-12336772D01*
X14596105Y-12243948D01*
X14596104Y-12243947D01*
X14596100Y-12243946D01*
X14361789Y-12181162D01*
X14361786Y-12181161D01*
X14361784Y-12181161D01*
X14121289Y-12149500D01*
X14121288Y-12149500D01*
X13878712Y-12149500D01*
X13878710Y-12149500D01*
X13638218Y-12181161D01*
X13638213Y-12181161D01*
X13403907Y-12243944D01*
X13403894Y-12243948D01*
X13179795Y-12336772D01*
X12969707Y-12458066D01*
X12777268Y-12605729D01*
X12605729Y-12777268D01*
X12458066Y-12969707D01*
X12336772Y-13179795D01*
X12243948Y-13403894D01*
X12243944Y-13403907D01*
X12181161Y-13638213D01*
X12181161Y-13638218D01*
X12149500Y-13878710D01*
X10500500Y-13878710D01*
X10500500Y-10599500D01*
X10519407Y-10541309D01*
X10568907Y-10505345D01*
X10599500Y-10500500D01*
X45601000Y-10500500D01*
X45659191Y-10519407D01*
G37*
%TD.AperFunction*%
%TD*%
M02*
