%TF.GenerationSoftware,KiCad,Pcbnew,10.0.5*%
%TF.CreationDate,2026-08-07T23:42:27+02:00*%
%TF.ProjectId,IDM-RoomSensor-ESP-B-ES4-AIR,49444d2d-526f-46f6-9d53-656e736f722d,rev?*%
%TF.SameCoordinates,Original*%
%TF.FileFunction,Copper,L4,Bot*%
%TF.FilePolarity,Positive*%
%FSLAX46Y46*%
G04 Gerber Fmt 4.6, Leading zero omitted, Abs format (unit mm)*
G04 Created by KiCad (PCBNEW 10.0.5) date 2026-08-07 23:42:27*
%MOMM*%
%LPD*%
G01*
G04 APERTURE LIST*
G04 Aperture macros list*
%AMRoundRect*
0 Rectangle with rounded corners*
0 $1 Rounding radius*
0 $2 $3 $4 $5 $6 $7 $8 $9 X,Y pos of 4 corners*
0 Add a 4 corners polygon primitive as box body*
4,1,4,$2,$3,$4,$5,$6,$7,$8,$9,$2,$3,0*
0 Add four circle primitives for the rounded corners*
1,1,$1+$1,$2,$3*
1,1,$1+$1,$4,$5*
1,1,$1+$1,$6,$7*
1,1,$1+$1,$8,$9*
0 Add four rect primitives between the rounded corners*
20,1,$1+$1,$2,$3,$4,$5,0*
20,1,$1+$1,$4,$5,$6,$7,0*
20,1,$1+$1,$6,$7,$8,$9,0*
20,1,$1+$1,$8,$9,$2,$3,0*%
G04 Aperture macros list end*
%TA.AperFunction,ComponentPad*%
%ADD10C,3.000000*%
%TD*%
%TA.AperFunction,ComponentPad*%
%ADD11R,1.050000X1.500000*%
%TD*%
%TA.AperFunction,ComponentPad*%
%ADD12O,1.050000X1.500000*%
%TD*%
%TA.AperFunction,ComponentPad*%
%ADD13C,0.600000*%
%TD*%
%TA.AperFunction,SMDPad,CuDef*%
%ADD14R,2.950000X4.500000*%
%TD*%
%TA.AperFunction,ComponentPad*%
%ADD15RoundRect,0.250001X1.149999X-1.149999X1.149999X1.149999X-1.149999X1.149999X-1.149999X-1.149999X0*%
%TD*%
%TA.AperFunction,ComponentPad*%
%ADD16C,2.800000*%
%TD*%
%TA.AperFunction,ComponentPad*%
%ADD17RoundRect,0.250001X-1.149999X-1.149999X1.149999X-1.149999X1.149999X1.149999X-1.149999X1.149999X0*%
%TD*%
%TA.AperFunction,ComponentPad*%
%ADD18O,1.000000X2.100000*%
%TD*%
%TA.AperFunction,ComponentPad*%
%ADD19O,1.000000X1.600000*%
%TD*%
%TA.AperFunction,ViaPad*%
%ADD20C,0.600000*%
%TD*%
%TA.AperFunction,ViaPad*%
%ADD21C,0.800000*%
%TD*%
%TA.AperFunction,Conductor*%
%ADD22C,0.200000*%
%TD*%
G04 APERTURE END LIST*
D10*
%TO.P,TP13,1*%
%TO.N,AIR_3V3*%
X55000000Y-104000000D03*
%TD*%
D11*
%TO.P,RTH1,1*%
%TO.N,TEMP_KTY*%
X27000000Y-46000000D03*
D12*
%TO.P,RTH1,2*%
%TO.N,GND*%
X28270000Y-46000000D03*
%TO.P,RTH1,3*%
%TO.N,N/C*%
X29540000Y-46000000D03*
%TD*%
D13*
%TO.P,U1,9*%
%TO.N,GND*%
X48400000Y-63200000D03*
X48400000Y-64400000D03*
X48400000Y-65700000D03*
X48400000Y-66800000D03*
D14*
X49000000Y-65000000D03*
D13*
X49600000Y-63200000D03*
X49600000Y-64400000D03*
X49600000Y-65700000D03*
X49600000Y-66800000D03*
%TD*%
D10*
%TO.P,TP6,1*%
%TO.N,I2C_SCL*%
X62000000Y-40000000D03*
%TD*%
%TO.P,TP7,1*%
%TO.N,RH_OUT*%
X70000000Y-38000000D03*
%TD*%
D15*
%TO.P,J8,1*%
%TO.N,AIN_0_10_RAW*%
X135000000Y-75000000D03*
D16*
%TO.P,J8,2*%
%TO.N,GND*%
X135000000Y-70000000D03*
%TD*%
D10*
%TO.P,TP12,1*%
%TO.N,GND*%
X91000000Y-35000000D03*
%TD*%
%TO.P,TP4,1*%
%TO.N,+3V3*%
X46000000Y-39000000D03*
%TD*%
%TO.P,TP5,1*%
%TO.N,I2C_SDA*%
X54000000Y-40000000D03*
%TD*%
%TO.P,TP2,1*%
%TO.N,24V_PROT*%
X30000000Y-38000000D03*
%TD*%
D13*
%TO.P,U3,29*%
%TO.N,GND*%
X53900000Y-24905000D03*
X53900000Y-26005000D03*
X53900000Y-27105000D03*
X55000000Y-24905000D03*
X55000000Y-26005000D03*
X55000000Y-27105000D03*
X56100000Y-24905000D03*
X56100000Y-26005000D03*
X56100000Y-27105000D03*
%TD*%
D10*
%TO.P,TP11,1*%
%TO.N,RS485_COM*%
X102000000Y-31000000D03*
%TD*%
D17*
%TO.P,J7,1*%
%TO.N,CONTACT1_EXT*%
X126000000Y-15000000D03*
D16*
%TO.P,J7,2*%
%TO.N,GND*%
X131000000Y-15000000D03*
%TO.P,J7,3*%
%TO.N,CONTACT2_EXT*%
X136000000Y-15000000D03*
%TD*%
D15*
%TO.P,J2,1*%
%TO.N,RS485_A*%
X135000000Y-48000000D03*
D16*
%TO.P,J2,2*%
%TO.N,RS485_B*%
X135000000Y-43000000D03*
%TO.P,J2,3*%
%TO.N,RS485_COM*%
X135000000Y-38000000D03*
%TO.P,J2,4*%
%TO.N,RS485_SHIELD*%
X135000000Y-33000000D03*
%TD*%
D10*
%TO.P,TP10,1*%
%TO.N,RS485_B*%
X94000000Y-31000000D03*
%TD*%
%TO.P,TP3,1*%
%TO.N,SYS_5V*%
X38000000Y-38000000D03*
%TD*%
%TO.P,TP1,1*%
%TO.N,24V_RAW*%
X22000000Y-38000000D03*
%TD*%
D17*
%TO.P,J5,1*%
%TO.N,+3V3*%
X84000000Y-15000000D03*
D16*
%TO.P,J5,2*%
%TO.N,ONEWIRE_EXT*%
X89000000Y-15000000D03*
%TO.P,J5,3*%
%TO.N,GND*%
X94000000Y-15000000D03*
%TD*%
D10*
%TO.P,TP9,1*%
%TO.N,RS485_A*%
X86000000Y-31000000D03*
%TD*%
D18*
%TO.P,J3,SH*%
%TO.N,GND*%
X70680000Y-104070000D03*
D19*
X70680000Y-108250000D03*
D18*
X79320000Y-104070000D03*
D19*
X79320000Y-108250000D03*
%TD*%
D15*
%TO.P,J1,1*%
%TO.N,TEMP_KTY*%
X16000000Y-66000000D03*
D16*
%TO.P,J1,2*%
%TO.N,24V_RAW*%
X16000000Y-61000000D03*
%TO.P,J1,3*%
%TO.N,GND*%
X16000000Y-56000000D03*
%TO.P,J1,4*%
%TO.N,RH_OUT*%
X16000000Y-51000000D03*
%TD*%
D10*
%TO.P,TP8,1*%
%TO.N,TEMP_KTY*%
X83000000Y-35000000D03*
%TD*%
D17*
%TO.P,J6,1*%
%TO.N,+3V3*%
X104000000Y-15000000D03*
D16*
%TO.P,J6,2*%
%TO.N,ONEWIRE_EXT*%
X109000000Y-15000000D03*
%TO.P,J6,3*%
%TO.N,GND*%
X114000000Y-15000000D03*
%TD*%
D20*
%TO.N,24V_PROT*%
X89439000Y-39264000D03*
X37755700Y-67755600D03*
X40970600Y-53000000D03*
%TO.N,GND*%
X96108600Y-51493200D03*
X56561200Y-76736200D03*
X36332900Y-76208300D03*
X126950000Y-28825000D03*
X101879000Y-64419900D03*
X65004100Y-17722400D03*
X107553600Y-24396400D03*
X47514100Y-17707400D03*
X80496100Y-45947700D03*
X38549500Y-101741300D03*
X26530100Y-106260300D03*
X118990600Y-73215600D03*
X113534900Y-30240100D03*
X44280100Y-55578600D03*
X126979300Y-99785100D03*
X63829700Y-98980500D03*
X110667900Y-104053300D03*
X127584900Y-75427600D03*
X95467500Y-24288700D03*
X40962300Y-92731000D03*
X98112000Y-55023600D03*
D21*
X77400000Y-18400000D03*
D20*
%TO.N,C6_EN*%
X47505700Y-20035000D03*
X65825000Y-42019700D03*
%TO.N,+3V3*%
X81137500Y-62226500D03*
X114236700Y-75775800D03*
X63434200Y-43740800D03*
X101543000Y-104122600D03*
X67409800Y-18718700D03*
D21*
X77400000Y-21600000D03*
D20*
X107425800Y-27250800D03*
X47504100Y-18765000D03*
X101913800Y-55578600D03*
X90435700Y-24260700D03*
X83697200Y-103697200D03*
X126175000Y-27015000D03*
%TO.N,I2C_SDA*%
X86500000Y-103010400D03*
X84137500Y-47754700D03*
D21*
X70600000Y-18400000D03*
D20*
X48252700Y-24274000D03*
X47456500Y-101500000D03*
X39335400Y-103062100D03*
D21*
%TO.N,I2C_SCL*%
X70600000Y-21600000D03*
D20*
X47501700Y-25115000D03*
X41842800Y-99971500D03*
X87500000Y-105792000D03*
X46757400Y-102790600D03*
X85305500Y-46330700D03*
X32328100Y-106050200D03*
%TO.N,ONEWIRE*%
X88699000Y-102823600D03*
X85437300Y-25737700D03*
X65009800Y-26176900D03*
%TO.N,EXP_GPIO4*%
X89500000Y-103197300D03*
X47505700Y-21305000D03*
%TO.N,EXP_GPIO5*%
X90500000Y-103212500D03*
X47511900Y-22575000D03*
%TO.N,SYS_5V*%
X120484500Y-99785100D03*
X73361700Y-52638300D03*
X57146300Y-91596300D03*
X92303200Y-103696800D03*
X76719700Y-61472800D03*
X61838500Y-102529300D03*
X60360900Y-73639100D03*
%TO.N,CONTACT2*%
X123225000Y-29054700D03*
X65031600Y-31312200D03*
%TO.N,AIR_3V3*%
X61146300Y-91596300D03*
X27974800Y-106276500D03*
X42455400Y-101137000D03*
X46972700Y-91618100D03*
X29470800Y-94227500D03*
%TO.N,TEMP_KTY*%
X27000000Y-34769900D03*
%TO.N,DAC_RAW*%
X82671800Y-44240700D03*
X89696100Y-46737300D03*
%TO.N,OPAMP_FB*%
X91953500Y-51012600D03*
X94669300Y-48665900D03*
%TO.N,5V_BUCK*%
X50872700Y-55578600D03*
X54175000Y-72011600D03*
X74638400Y-55361600D03*
%TO.N,BUCK_FB*%
X52978800Y-66905000D03*
X55103000Y-72234100D03*
%TO.N,PWR_GOOD*%
X45012100Y-67116200D03*
X49277200Y-58578900D03*
%TO.N,VCC_BYP*%
X53002900Y-65886200D03*
X46910500Y-71032700D03*
%TO.N,BOOT*%
X52977300Y-64365000D03*
X53225000Y-58978600D03*
%TO.N,RH_OUT*%
X99089500Y-45264500D03*
%TO.N,RS485_COM*%
X111201700Y-64419900D03*
X113714400Y-58247500D03*
%TO.N,RS485_B*%
X122902900Y-59190000D03*
%TO.N,USB_5V*%
X73193800Y-104446000D03*
X70561600Y-75000000D03*
%TO.N,USB_CC1*%
X73305300Y-101919900D03*
X68772600Y-68525100D03*
%TO.N,24V_FUSED*%
X38642100Y-64642100D03*
X32215500Y-65502300D03*
%TO.N,ADC_0_10*%
X47509800Y-26176900D03*
X103079200Y-25842400D03*
X117774100Y-74836600D03*
%TO.N,CONTACT1*%
X65004100Y-32507600D03*
X110470300Y-31754700D03*
%TO.N,RS485_RX*%
X65004100Y-22802400D03*
X98859700Y-58553900D03*
%TO.N,RS485_DE*%
X62495900Y-18765000D03*
X98467200Y-59363400D03*
%TO.N,RS485_TX*%
X99011400Y-61272600D03*
X65002500Y-21305000D03*
%TO.N,RS485_A*%
X113145200Y-62201000D03*
%TO.N,STATUS_LED*%
X76420000Y-39245000D03*
X47549500Y-29054700D03*
X53388100Y-37233100D03*
%TO.N,USB_D-*%
X72686400Y-66665200D03*
X79438900Y-101900300D03*
X47502500Y-32735000D03*
%TO.N,USB_D+*%
X73862500Y-69788200D03*
X75750000Y-101917500D03*
X74851800Y-101917500D03*
X44991800Y-34005000D03*
%TO.N,C6_BOOT*%
X74346400Y-43000000D03*
X65337800Y-34005000D03*
%TO.N,SERVICE_BUTTON*%
X90798500Y-102078600D03*
X65028700Y-30195000D03*
%TO.N,BUS_LED*%
X98493900Y-39196400D03*
X65004100Y-27655000D03*
X74950800Y-36801700D03*
%TO.N,24V_RAW*%
X25776200Y-64913700D03*
%TO.N,CONTACT2_EXT*%
X122437300Y-25737700D03*
X128446400Y-24396400D03*
%TO.N,CONTACT1_EXT*%
X111914300Y-24260700D03*
%TO.N,USB_CC2*%
X76750000Y-101898900D03*
X71477600Y-67825000D03*
%TD*%
%TO.N,GND*%
D22*
X49600000Y-65600000D02*
X49000000Y-65000000D01*
X48400000Y-64400000D02*
X49000000Y-65000000D01*
X49600000Y-65700000D02*
X49600000Y-65600000D01*
%TO.N,OPAMP_FB*%
X92322600Y-51012600D02*
X94669300Y-48665900D01*
X91953500Y-51012600D02*
X92322600Y-51012600D01*
%TD*%
M02*
