%TF.GenerationSoftware,KiCad,Pcbnew,10.0.5*%
%TF.CreationDate,2026-08-07T12:52:17+02:00*%
%TF.ProjectId,IDM-RoomSensor-ESP-B-ES1,49444d2d-526f-46f6-9d53-656e736f722d,rev?*%
%TF.SameCoordinates,Original*%
%TF.FileFunction,Copper,L2,Bot*%
%TF.FilePolarity,Positive*%
%FSLAX46Y46*%
G04 Gerber Fmt 4.6, Leading zero omitted, Abs format (unit mm)*
G04 Created by KiCad (PCBNEW 10.0.5) date 2026-08-07 12:52:17*
%MOMM*%
%LPD*%
G01*
G04 APERTURE LIST*
G04 Aperture macros list*
%AMRoundRect*
0 Rectangle with rounded corners*
0 $1 Rounding radius*
0 $2 $3 $4 $5 $6 $7 $8 $9 X,Y pos of 4 corners*
0 Add a 4 corners polygon primitive as box body*
4,1,4,$2,$3,$4,$5,$6,$7,$8,$9,$2,$3,0*
0 Add four circle primitives for the rounded corners*
1,1,$1+$1,$2,$3*
1,1,$1+$1,$4,$5*
1,1,$1+$1,$6,$7*
1,1,$1+$1,$8,$9*
0 Add four rect primitives between the rounded corners*
20,1,$1+$1,$2,$3,$4,$5,0*
20,1,$1+$1,$4,$5,$6,$7,0*
20,1,$1+$1,$6,$7,$8,$9,0*
20,1,$1+$1,$8,$9,$2,$3,0*%
G04 Aperture macros list end*
%TA.AperFunction,ComponentPad*%
%ADD10C,3.000000*%
%TD*%
%TA.AperFunction,ComponentPad*%
%ADD11R,1.050000X1.500000*%
%TD*%
%TA.AperFunction,ComponentPad*%
%ADD12O,1.050000X1.500000*%
%TD*%
%TA.AperFunction,ComponentPad*%
%ADD13RoundRect,0.500000X-0.500000X-0.500000X0.500000X-0.500000X0.500000X0.500000X-0.500000X0.500000X0*%
%TD*%
%TA.AperFunction,ComponentPad*%
%ADD14C,2.000000*%
%TD*%
%TA.AperFunction,ComponentPad*%
%ADD15R,1.500000X1.500000*%
%TD*%
%TA.AperFunction,ComponentPad*%
%ADD16C,1.500000*%
%TD*%
%TA.AperFunction,ComponentPad*%
%ADD17RoundRect,0.250001X-0.949999X-0.949999X0.949999X-0.949999X0.949999X0.949999X-0.949999X0.949999X0*%
%TD*%
%TA.AperFunction,ComponentPad*%
%ADD18C,2.400000*%
%TD*%
%TA.AperFunction,ComponentPad*%
%ADD19R,1.500000X2.500000*%
%TD*%
%TA.AperFunction,ComponentPad*%
%ADD20O,1.500000X2.500000*%
%TD*%
%TA.AperFunction,ViaPad*%
%ADD21C,0.600000*%
%TD*%
%TA.AperFunction,ViaPad*%
%ADD22C,0.800000*%
%TD*%
%TA.AperFunction,Conductor*%
%ADD23C,0.200000*%
%TD*%
G04 APERTURE END LIST*
D10*
%TO.P,TP3,1*%
%TO.N,+5V*%
X48000000Y-84000000D03*
%TD*%
%TO.P,TP5,1*%
%TO.N,I2C_SDA*%
X72000000Y-84000000D03*
%TD*%
%TO.P,TP1,1*%
%TO.N,24V_RAW*%
X24000000Y-84000000D03*
%TD*%
%TO.P,TP10,1*%
%TO.N,GND*%
X132000000Y-84000000D03*
%TD*%
D11*
%TO.P,RTH1,1*%
%TO.N,TEMP_KTY*%
X24000000Y-55000000D03*
D12*
%TO.P,RTH1,2*%
%TO.N,GND*%
X25270000Y-55000000D03*
%TO.P,RTH1,3*%
%TO.N,N/C*%
X26540000Y-55000000D03*
%TD*%
D10*
%TO.P,TP6,1*%
%TO.N,I2C_SCL*%
X84000000Y-84000000D03*
%TD*%
D13*
%TO.P,F1,1*%
%TO.N,24V_RAW*%
X29000000Y-22000000D03*
X34000000Y-22000000D03*
D14*
%TO.P,F1,2*%
%TO.N,24V_FUSED*%
X44000000Y-22000000D03*
X49000000Y-22000000D03*
%TD*%
D10*
%TO.P,TP8,1*%
%TO.N,RH_OUT*%
X108000000Y-84000000D03*
%TD*%
%TO.P,TP9,1*%
%TO.N,TEMP_KTY*%
X120000000Y-84000000D03*
%TD*%
D15*
%TO.P,A1,1*%
%TO.N,GND*%
X80000000Y-43000000D03*
D16*
%TO.P,A1,2*%
%TO.N,+3V3*%
X80000000Y-45540000D03*
%TO.P,A1,3*%
X80000000Y-48080000D03*
%TO.P,A1,4*%
%TO.N,N/C*%
X80000000Y-50620000D03*
%TO.P,A1,5*%
X80000000Y-53160000D03*
%TO.P,A1,6*%
%TO.N,GND*%
X80000000Y-55700000D03*
%TO.P,A1,7*%
%TO.N,N/C*%
X80000000Y-58240000D03*
%TO.P,A1,8*%
%TO.N,GND*%
X80000000Y-60780000D03*
%TO.P,A1,9*%
%TO.N,N/C*%
X80000000Y-63320000D03*
%TO.P,A1,10*%
X80000000Y-65860000D03*
%TO.P,A1,11*%
X80000000Y-68400000D03*
%TO.P,A1,12*%
%TO.N,GND*%
X80000000Y-70940000D03*
%TO.P,A1,13*%
%TO.N,+5V*%
X80000000Y-73480000D03*
%TO.P,A1,14*%
X80000000Y-76020000D03*
%TO.P,A1,15*%
%TO.N,GND*%
X80000000Y-78560000D03*
%TO.P,A1,16*%
X102860000Y-78560000D03*
%TO.P,A1,17*%
%TO.N,N/C*%
X102860000Y-76020000D03*
%TO.P,A1,18*%
X102860000Y-73480000D03*
%TO.P,A1,19*%
%TO.N,GND*%
X102860000Y-70940000D03*
%TO.P,A1,20*%
%TO.N,N/C*%
X102860000Y-68400000D03*
%TO.P,A1,21*%
X102860000Y-65860000D03*
%TO.P,A1,22*%
X102860000Y-63320000D03*
%TO.P,A1,23*%
X102860000Y-60780000D03*
%TO.P,A1,24*%
%TO.N,GND*%
X102860000Y-58240000D03*
%TO.P,A1,25*%
%TO.N,I2C_SDA*%
X102860000Y-55700000D03*
%TO.P,A1,26*%
%TO.N,I2C_SCL*%
X102860000Y-53160000D03*
%TO.P,A1,27*%
%TO.N,GND*%
X102860000Y-50620000D03*
%TO.P,A1,28*%
%TO.N,N/C*%
X102860000Y-48080000D03*
%TO.P,A1,29*%
X102860000Y-45540000D03*
%TO.P,A1,30*%
%TO.N,GND*%
X102860000Y-43000000D03*
%TD*%
D10*
%TO.P,TP7,1*%
%TO.N,DAC_RAW*%
X96000000Y-84000000D03*
%TD*%
%TO.P,TP4,1*%
%TO.N,+3V3*%
X60000000Y-84000000D03*
%TD*%
%TO.P,TP2,1*%
%TO.N,24V_PROT*%
X36000000Y-84000000D03*
%TD*%
D17*
%TO.P,J1,1*%
%TO.N,TEMP_KTY*%
X16000000Y-40000000D03*
D18*
%TO.P,J1,2*%
%TO.N,24V_RAW*%
X19500000Y-40000000D03*
%TO.P,J1,3*%
%TO.N,GND*%
X23000000Y-40000000D03*
%TO.P,J1,4*%
%TO.N,RH_OUT*%
X26500000Y-40000000D03*
%TD*%
D19*
%TO.P,U1,1*%
%TO.N,24V_PROT*%
X69000000Y-22000000D03*
D20*
%TO.P,U1,2*%
%TO.N,GND*%
X71540000Y-22000000D03*
%TO.P,U1,3*%
%TO.N,+5V*%
X74080000Y-22000000D03*
%TD*%
D21*
%TO.N,RH_OUT*%
X146557500Y-39175000D03*
X147693500Y-48999900D03*
%TO.N,DAC_RAW*%
X115097200Y-38385600D03*
%TO.N,+3V3*%
X111538200Y-52422000D03*
X113862500Y-41780900D03*
D22*
%TO.N,I2C_SDA*%
X113500000Y-58600000D03*
D21*
X115097200Y-48999900D03*
%TO.N,I2C_SCL*%
X110114000Y-50973800D03*
D22*
X113500000Y-61400000D03*
D21*
%TO.N,24V_PROT*%
X52517700Y-22933200D03*
X52867900Y-31622100D03*
X61307700Y-31622100D03*
%TO.N,24V_FUSED*%
X49904600Y-19744400D03*
%TO.N,OPAMP_FB*%
X132877000Y-54792500D03*
X135200300Y-40950000D03*
X135263400Y-46438400D03*
%TO.N,OPAMP_OUT*%
X134991700Y-39461900D03*
X140709700Y-44115300D03*
%TD*%
%TO.N,+5V*%
D23*
X80000000Y-73480000D02*
X81070000Y-72410000D01*
X74080000Y-22000000D02*
X75131700Y-22000000D01*
X81070000Y-72410000D02*
X81070000Y-27938300D01*
X81070000Y-27938300D02*
X75131700Y-22000000D01*
X80000000Y-76020000D02*
X80000000Y-73480000D01*
%TO.N,RH_OUT*%
X112693400Y-84000000D02*
X108000000Y-84000000D01*
X147693500Y-48999900D02*
X112693400Y-84000000D01*
X147693500Y-40311000D02*
X146557500Y-39175000D01*
X147693500Y-48999900D02*
X147693500Y-40311000D01*
%TO.N,DAC_RAW*%
X102711400Y-77187600D02*
X103235900Y-77187600D01*
X115715400Y-39003800D02*
X115097200Y-38385600D01*
X96000000Y-83899000D02*
X102711400Y-77187600D01*
X115715400Y-64708100D02*
X115715400Y-39003800D01*
X96000000Y-84000000D02*
X96000000Y-83899000D01*
X103235900Y-77187600D02*
X115715400Y-64708100D01*
%TO.N,+3V3*%
X111538200Y-44105200D02*
X113862500Y-41780900D01*
X111538200Y-52422000D02*
X111538200Y-44105200D01*
X60000000Y-84000000D02*
X60000000Y-68080000D01*
X80000000Y-48080000D02*
X80000000Y-45540000D01*
X60000000Y-68080000D02*
X80000000Y-48080000D01*
%TO.N,I2C_SDA*%
X78710000Y-77290000D02*
X72000000Y-84000000D01*
X115097200Y-48999900D02*
X115097200Y-57002800D01*
X102860000Y-55700000D02*
X81270000Y-77290000D01*
X115097200Y-57002800D02*
X113500000Y-58600000D01*
X81270000Y-77290000D02*
X78710000Y-77290000D01*
%TO.N,I2C_SCL*%
X102607200Y-59510000D02*
X84000000Y-78117200D01*
X103085700Y-59510000D02*
X102607200Y-59510000D01*
X113500000Y-61400000D02*
X110114000Y-58014000D01*
X103935300Y-53160000D02*
X103935300Y-58660400D01*
X102860000Y-53160000D02*
X103935300Y-53160000D01*
X110114000Y-58014000D02*
X110114000Y-53160000D01*
X103935300Y-53160000D02*
X110114000Y-53160000D01*
X84000000Y-78117200D02*
X84000000Y-84000000D01*
X103935300Y-58660400D02*
X103085700Y-59510000D01*
X110114000Y-53160000D02*
X110114000Y-50973800D01*
%TO.N,24V_RAW*%
X19500000Y-40000000D02*
X19500000Y-31500000D01*
X27387100Y-80612900D02*
X24000000Y-84000000D01*
X27387100Y-47887100D02*
X27387100Y-80612900D01*
X19500000Y-31500000D02*
X29000000Y-22000000D01*
X19500000Y-40000000D02*
X27387100Y-47887100D01*
%TO.N,24V_PROT*%
X52517700Y-31271900D02*
X52517700Y-22933200D01*
X69000000Y-22000000D02*
X67948300Y-22000000D01*
X52867900Y-31622100D02*
X36000000Y-48490000D01*
X61307700Y-31622100D02*
X52867900Y-31622100D01*
X36000000Y-48490000D02*
X36000000Y-84000000D01*
X67948300Y-24981500D02*
X61307700Y-31622100D01*
X67948300Y-22000000D02*
X67948300Y-24981500D01*
X52867900Y-31622100D02*
X52517700Y-31271900D01*
%TO.N,24V_FUSED*%
X49904600Y-21095400D02*
X49904600Y-19744400D01*
X49000000Y-22000000D02*
X49904600Y-21095400D01*
%TO.N,TEMP_KTY*%
X16000000Y-40000000D02*
X16000000Y-47826700D01*
X24000000Y-55000000D02*
X23173300Y-55000000D01*
X16000000Y-47826700D02*
X23173300Y-55000000D01*
%TO.N,OPAMP_FB*%
X135263400Y-46438400D02*
X135200400Y-46375400D01*
X135200400Y-40950000D02*
X135200300Y-40950000D01*
X132877000Y-48824800D02*
X132877000Y-54792500D01*
X135200400Y-46375400D02*
X135200400Y-40950000D01*
X135263400Y-46438400D02*
X132877000Y-48824800D01*
%TO.N,OPAMP_OUT*%
X136056300Y-39461900D02*
X140709700Y-44115300D01*
X134991700Y-39461900D02*
X136056300Y-39461900D01*
%TD*%
M02*
