%TF.GenerationSoftware,KiCad,Pcbnew,10.0.5*%
%TF.CreationDate,2026-08-07T12:52:17+02:00*%
%TF.ProjectId,IDM-RoomSensor-ESP-B-ES1,49444d2d-526f-46f6-9d53-656e736f722d,rev?*%
%TF.SameCoordinates,Original*%
%TF.FileFunction,Soldermask,Bot*%
%TF.FilePolarity,Negative*%
%FSLAX46Y46*%
G04 Gerber Fmt 4.6, Leading zero omitted, Abs format (unit mm)*
G04 Created by KiCad (PCBNEW 10.0.5) date 2026-08-07 12:52:17*
%MOMM*%
%LPD*%
G01*
G04 APERTURE LIST*
G04 Aperture macros list*
%AMRoundRect*
0 Rectangle with rounded corners*
0 $1 Rounding radius*
0 $2 $3 $4 $5 $6 $7 $8 $9 X,Y pos of 4 corners*
0 Add a 4 corners polygon primitive as box body*
4,1,4,$2,$3,$4,$5,$6,$7,$8,$9,$2,$3,0*
0 Add four circle primitives for the rounded corners*
1,1,$1+$1,$2,$3*
1,1,$1+$1,$4,$5*
1,1,$1+$1,$6,$7*
1,1,$1+$1,$8,$9*
0 Add four rect primitives between the rounded corners*
20,1,$1+$1,$2,$3,$4,$5,0*
20,1,$1+$1,$4,$5,$6,$7,0*
20,1,$1+$1,$6,$7,$8,$9,0*
20,1,$1+$1,$8,$9,$2,$3,0*%
G04 Aperture macros list end*
%ADD10C,3.000000*%
%ADD11C,3.200000*%
%ADD12R,1.050000X1.500000*%
%ADD13O,1.050000X1.500000*%
%ADD14RoundRect,0.500000X-0.500000X-0.500000X0.500000X-0.500000X0.500000X0.500000X-0.500000X0.500000X0*%
%ADD15C,2.000000*%
%ADD16R,1.500000X1.500000*%
%ADD17C,1.500000*%
%ADD18RoundRect,0.250001X-0.949999X-0.949999X0.949999X-0.949999X0.949999X0.949999X-0.949999X0.949999X0*%
%ADD19C,2.400000*%
%ADD20R,1.500000X2.500000*%
%ADD21O,1.500000X2.500000*%
G04 APERTURE END LIST*
D10*
%TO.C,TP3*%
X48000000Y-84000000D03*
%TD*%
%TO.C,TP5*%
X72000000Y-84000000D03*
%TD*%
%TO.C,TP1*%
X24000000Y-84000000D03*
%TD*%
D11*
%TO.C,H2*%
X151000000Y-84000000D03*
%TD*%
D10*
%TO.C,TP10*%
X132000000Y-84000000D03*
%TD*%
D12*
%TO.C,RTH1*%
X24000000Y-55000000D03*
D13*
X25270000Y-55000000D03*
X26540000Y-55000000D03*
%TD*%
D10*
%TO.C,TP6*%
X84000000Y-84000000D03*
%TD*%
D14*
%TO.C,F1*%
X29000000Y-22000000D03*
X34000000Y-22000000D03*
D15*
X44000000Y-22000000D03*
X49000000Y-22000000D03*
%TD*%
D10*
%TO.C,TP8*%
X108000000Y-84000000D03*
%TD*%
%TO.C,TP9*%
X120000000Y-84000000D03*
%TD*%
D16*
%TO.C,A1*%
X80000000Y-43000000D03*
D17*
X80000000Y-45540000D03*
X80000000Y-48080000D03*
X80000000Y-50620000D03*
X80000000Y-53160000D03*
X80000000Y-55700000D03*
X80000000Y-58240000D03*
X80000000Y-60780000D03*
X80000000Y-63320000D03*
X80000000Y-65860000D03*
X80000000Y-68400000D03*
X80000000Y-70940000D03*
X80000000Y-73480000D03*
X80000000Y-76020000D03*
X80000000Y-78560000D03*
X102860000Y-78560000D03*
X102860000Y-76020000D03*
X102860000Y-73480000D03*
X102860000Y-70940000D03*
X102860000Y-68400000D03*
X102860000Y-65860000D03*
X102860000Y-63320000D03*
X102860000Y-60780000D03*
X102860000Y-58240000D03*
X102860000Y-55700000D03*
X102860000Y-53160000D03*
X102860000Y-50620000D03*
X102860000Y-48080000D03*
X102860000Y-45540000D03*
X102860000Y-43000000D03*
%TD*%
D10*
%TO.C,TP7*%
X96000000Y-84000000D03*
%TD*%
%TO.C,TP4*%
X60000000Y-84000000D03*
%TD*%
%TO.C,TP2*%
X36000000Y-84000000D03*
%TD*%
D11*
%TO.C,H1*%
X14000000Y-84000000D03*
%TD*%
D18*
%TO.C,J1*%
X16000000Y-40000000D03*
D19*
X19500000Y-40000000D03*
X23000000Y-40000000D03*
X26500000Y-40000000D03*
%TD*%
D20*
%TO.C,U1*%
X69000000Y-22000000D03*
D21*
X71540000Y-22000000D03*
X74080000Y-22000000D03*
%TD*%
M02*
