M48
; DRILL file KiCad 10.0.5 date 2026-08-07T12:52:17
; FORMAT={-:-/ absolute / metric / decimal}
; #@! TF.CreationDate,2026-08-07T12:52:17+02:00
; #@! TF.GenerationSoftware,Kicad,Pcbnew,10.0.5
; #@! TF.FileFunction,Plated,1,2,PTH
FMAT,2
METRIC
; #@! TA.AperFunction,Plated,PTH,ViaDrill
T1C0.300
; #@! TA.AperFunction,Plated,PTH,ViaDrill
T2C0.400
; #@! TA.AperFunction,Plated,PTH,ComponentDrill
T3C0.750
; #@! TA.AperFunction,Plated,PTH,ComponentDrill
T4C0.900
; #@! TA.AperFunction,Plated,PTH,ComponentDrill
T5C1.000
; #@! TA.AperFunction,Plated,PTH,ComponentDrill
T6C1.050
; #@! TA.AperFunction,Plated,PTH,ComponentDrill
T7C1.200
; #@! TA.AperFunction,Plated,PTH,ComponentDrill
T8C2.000
%
G90
G05
T1
X49.905Y-19.744
X52.518Y-22.933
X52.868Y-31.622
X61.308Y-31.622
X110.114Y-50.974
X111.538Y-52.422
X113.862Y-41.781
X115.097Y-38.386
X115.097Y-49.0
X132.877Y-54.792
X134.992Y-39.462
X135.2Y-40.95
X135.263Y-46.438
X140.71Y-44.115
X146.558Y-39.175
X147.694Y-49.0
T2
X113.5Y-58.6
X113.5Y-61.4
T3
X24.0Y-55.0
X25.27Y-55.0
X26.54Y-55.0
T4
X80.0Y-43.0
X80.0Y-45.54
X80.0Y-48.08
X80.0Y-50.62
X80.0Y-53.16
X80.0Y-55.7
X80.0Y-58.24
X80.0Y-60.78
X80.0Y-63.32
X80.0Y-65.86
X80.0Y-68.4
X80.0Y-70.94
X80.0Y-73.48
X80.0Y-76.02
X80.0Y-78.56
X102.86Y-43.0
X102.86Y-45.54
X102.86Y-48.08
X102.86Y-50.62
X102.86Y-53.16
X102.86Y-55.7
X102.86Y-58.24
X102.86Y-60.78
X102.86Y-63.32
X102.86Y-65.86
X102.86Y-68.4
X102.86Y-70.94
X102.86Y-73.48
X102.86Y-76.02
X102.86Y-78.56
T5
X69.0Y-22.0
X71.54Y-22.0
X74.08Y-22.0
T6
X29.0Y-22.0
X34.0Y-22.0
X44.0Y-22.0
X49.0Y-22.0
T7
X16.0Y-40.0
X19.5Y-40.0
X23.0Y-40.0
X26.5Y-40.0
T8
X24.0Y-84.0
X36.0Y-84.0
X48.0Y-84.0
X60.0Y-84.0
X72.0Y-84.0
X84.0Y-84.0
X96.0Y-84.0
X108.0Y-84.0
X120.0Y-84.0
X132.0Y-84.0
M30
