%TF.GenerationSoftware,KiCad,Pcbnew,10.0.5*%
%TF.CreationDate,2026-08-07T12:52:10+02:00*%
%TF.ProjectId,IDM-RoomSensor-Classic-B-ES1,49444d2d-526f-46f6-9d53-656e736f722d,rev?*%
%TF.SameCoordinates,Original*%
%TF.FileFunction,Copper,L2,Bot*%
%TF.FilePolarity,Positive*%
%FSLAX46Y46*%
G04 Gerber Fmt 4.6, Leading zero omitted, Abs format (unit mm)*
G04 Created by KiCad (PCBNEW 10.0.5) date 2026-08-07 12:52:10*
%MOMM*%
%LPD*%
G01*
G04 APERTURE LIST*
G04 Aperture macros list*
%AMRoundRect*
0 Rectangle with rounded corners*
0 $1 Rounding radius*
0 $2 $3 $4 $5 $6 $7 $8 $9 X,Y pos of 4 corners*
0 Add a 4 corners polygon primitive as box body*
4,1,4,$2,$3,$4,$5,$6,$7,$8,$9,$2,$3,0*
0 Add four circle primitives for the rounded corners*
1,1,$1+$1,$2,$3*
1,1,$1+$1,$4,$5*
1,1,$1+$1,$6,$7*
1,1,$1+$1,$8,$9*
0 Add four rect primitives between the rounded corners*
20,1,$1+$1,$2,$3,$4,$5,0*
20,1,$1+$1,$4,$5,$6,$7,0*
20,1,$1+$1,$6,$7,$8,$9,0*
20,1,$1+$1,$8,$9,$2,$3,0*%
G04 Aperture macros list end*
%TA.AperFunction,ComponentPad*%
%ADD10C,3.000000*%
%TD*%
%TA.AperFunction,ComponentPad*%
%ADD11R,1.500000X2.500000*%
%TD*%
%TA.AperFunction,ComponentPad*%
%ADD12O,1.500000X2.500000*%
%TD*%
%TA.AperFunction,ComponentPad*%
%ADD13RoundRect,0.500000X-0.500000X-0.500000X0.500000X-0.500000X0.500000X0.500000X-0.500000X0.500000X0*%
%TD*%
%TA.AperFunction,ComponentPad*%
%ADD14C,2.000000*%
%TD*%
%TA.AperFunction,ComponentPad*%
%ADD15R,1.700000X1.700000*%
%TD*%
%TA.AperFunction,ComponentPad*%
%ADD16C,1.700000*%
%TD*%
%TA.AperFunction,ComponentPad*%
%ADD17R,1.050000X1.500000*%
%TD*%
%TA.AperFunction,ComponentPad*%
%ADD18O,1.050000X1.500000*%
%TD*%
%TA.AperFunction,ComponentPad*%
%ADD19RoundRect,0.250001X-0.949999X-0.949999X0.949999X-0.949999X0.949999X0.949999X-0.949999X0.949999X0*%
%TD*%
%TA.AperFunction,ComponentPad*%
%ADD20C,2.400000*%
%TD*%
%TA.AperFunction,ViaPad*%
%ADD21C,0.600000*%
%TD*%
%TA.AperFunction,ViaPad*%
%ADD22C,0.800000*%
%TD*%
%TA.AperFunction,Conductor*%
%ADD23C,0.200000*%
%TD*%
G04 APERTURE END LIST*
D10*
%TO.P,TP7,1*%
%TO.N,DAC_RAW*%
X96000000Y-84000000D03*
%TD*%
D11*
%TO.P,U1,1*%
%TO.N,24V_PROT*%
X69000000Y-22000000D03*
D12*
%TO.P,U1,2*%
%TO.N,GND*%
X71540000Y-22000000D03*
%TO.P,U1,3*%
%TO.N,+5V*%
X74080000Y-22000000D03*
%TD*%
D13*
%TO.P,F1,1*%
%TO.N,24V_RAW*%
X29000000Y-22000000D03*
X34000000Y-22000000D03*
D14*
%TO.P,F1,2*%
%TO.N,24V_FUSED*%
X44000000Y-22000000D03*
X49000000Y-22000000D03*
%TD*%
D15*
%TO.P,J2,1*%
%TO.N,+3V3*%
X96000000Y-62000000D03*
D16*
%TO.P,J2,2*%
%TO.N,UPDI*%
X98540000Y-62000000D03*
%TO.P,J2,3*%
%TO.N,GND*%
X101080000Y-62000000D03*
%TD*%
D10*
%TO.P,TP8,1*%
%TO.N,RH_OUT*%
X108000000Y-84000000D03*
%TD*%
%TO.P,TP10,1*%
%TO.N,GND*%
X132000000Y-84000000D03*
%TD*%
%TO.P,TP9,1*%
%TO.N,TEMP_KTY*%
X120000000Y-84000000D03*
%TD*%
%TO.P,TP3,1*%
%TO.N,+5V*%
X48000000Y-84000000D03*
%TD*%
D17*
%TO.P,RTH1,1*%
%TO.N,TEMP_KTY*%
X24000000Y-55000000D03*
D18*
%TO.P,RTH1,2*%
%TO.N,GND*%
X25270000Y-55000000D03*
%TO.P,RTH1,3*%
%TO.N,N/C*%
X26540000Y-55000000D03*
%TD*%
D10*
%TO.P,TP1,1*%
%TO.N,24V_RAW*%
X24000000Y-84000000D03*
%TD*%
D19*
%TO.P,J1,1*%
%TO.N,TEMP_KTY*%
X16000000Y-40000000D03*
D20*
%TO.P,J1,2*%
%TO.N,24V_RAW*%
X19500000Y-40000000D03*
%TO.P,J1,3*%
%TO.N,GND*%
X23000000Y-40000000D03*
%TO.P,J1,4*%
%TO.N,RH_OUT*%
X26500000Y-40000000D03*
%TD*%
D10*
%TO.P,TP5,1*%
%TO.N,I2C_SDA*%
X72000000Y-84000000D03*
%TD*%
%TO.P,TP4,1*%
%TO.N,+3V3*%
X60000000Y-84000000D03*
%TD*%
%TO.P,TP2,1*%
%TO.N,24V_PROT*%
X36000000Y-84000000D03*
%TD*%
%TO.P,TP6,1*%
%TO.N,I2C_SCL*%
X84000000Y-84000000D03*
%TD*%
D21*
%TO.N,+3V3*%
X77814600Y-37414700D03*
X76574300Y-60585100D03*
X88427500Y-25829500D03*
X109000000Y-53779600D03*
X113565400Y-41775800D03*
D22*
%TO.N,GND*%
X115500000Y-58500000D03*
X115500000Y-55000000D03*
D21*
%TO.N,OPAMP_FB*%
X135840300Y-40311000D03*
X128744600Y-54080400D03*
X138516700Y-45816800D03*
%TO.N,24V_PROT*%
X52517700Y-22933200D03*
X52867900Y-31622100D03*
X59713600Y-31622100D03*
%TO.N,DAC_RAW*%
X121023800Y-43207300D03*
%TO.N,+5V*%
X70042100Y-31622100D03*
%TO.N,24V_FUSED*%
X49904600Y-19744400D03*
%TO.N,UPDI*%
X91390800Y-43034200D03*
%TO.N,RH_OUT*%
X145775100Y-48999900D03*
X146004300Y-39175000D03*
X121079400Y-57513100D03*
%TO.N,I2C_SDA*%
X91390800Y-40425800D03*
D22*
X113500000Y-58600000D03*
D21*
X116137500Y-41789500D03*
X111538200Y-51536500D03*
D22*
%TO.N,I2C_SCL*%
X113500000Y-61400000D03*
D21*
X85464200Y-40311000D03*
X110114000Y-52180700D03*
%TD*%
%TO.N,+3V3*%
D23*
X109000000Y-53779600D02*
X109000100Y-53779600D01*
X76574300Y-67425700D02*
X60000000Y-84000000D01*
X98015400Y-63151700D02*
X97151700Y-62288000D01*
X99810000Y-61609100D02*
X99810000Y-62392600D01*
X88427500Y-26801800D02*
X77814600Y-37414700D01*
X88427500Y-25829500D02*
X88427500Y-26801800D01*
X96000000Y-62000000D02*
X97151700Y-62000000D01*
X77814600Y-59344800D02*
X76574300Y-60585100D01*
X109000000Y-53779600D02*
X107639500Y-53779600D01*
X77814600Y-37414700D02*
X77814600Y-59344800D01*
X97151700Y-62288000D02*
X97151700Y-62000000D01*
X76574300Y-60585100D02*
X76574300Y-67425700D01*
X109000100Y-46341100D02*
X113565400Y-41775800D01*
X109000100Y-53779600D02*
X109000100Y-46341100D01*
X99050900Y-63151700D02*
X98015400Y-63151700D01*
X99810000Y-62392600D02*
X99050900Y-63151700D01*
X107639500Y-53779600D02*
X99810000Y-61609100D01*
%TO.N,GND*%
X115500000Y-58500000D02*
X115500000Y-55000000D01*
%TO.N,OPAMP_FB*%
X137008200Y-45816800D02*
X128744600Y-54080400D01*
X138516700Y-42987400D02*
X138516700Y-45816800D01*
X135840300Y-40311000D02*
X138516700Y-42987400D01*
X138516700Y-45816800D02*
X137008200Y-45816800D01*
%TO.N,24V_PROT*%
X36000000Y-48490000D02*
X36000000Y-84000000D01*
X59713600Y-31622100D02*
X59713600Y-30234700D01*
X52517700Y-31271900D02*
X52517700Y-22933200D01*
X59713600Y-31622100D02*
X52867900Y-31622100D01*
X69000000Y-22000000D02*
X67948300Y-22000000D01*
X52867900Y-31622100D02*
X36000000Y-48490000D01*
X59713600Y-30234700D02*
X67948300Y-22000000D01*
X52867900Y-31622100D02*
X52517700Y-31271900D01*
%TO.N,DAC_RAW*%
X121023800Y-43207300D02*
X121023800Y-54921500D01*
X96000000Y-79945300D02*
X96000000Y-84000000D01*
X121023800Y-54921500D02*
X96000000Y-79945300D01*
%TO.N,+5V*%
X74080000Y-22000000D02*
X74080000Y-27584200D01*
X70042100Y-61957900D02*
X48000000Y-84000000D01*
X74080000Y-27584200D02*
X70042100Y-31622100D01*
X70042100Y-31622100D02*
X70042100Y-61957900D01*
%TO.N,24V_RAW*%
X19500000Y-31500000D02*
X29000000Y-22000000D01*
X27379100Y-80620900D02*
X24000000Y-84000000D01*
X27379100Y-47879100D02*
X27379100Y-80620900D01*
X19500000Y-40000000D02*
X27379100Y-47879100D01*
X19500000Y-40000000D02*
X19500000Y-31500000D01*
%TO.N,24V_FUSED*%
X49904600Y-19744400D02*
X49000000Y-20649000D01*
X49000000Y-20649000D02*
X49000000Y-22000000D01*
%TO.N,UPDI*%
X98540000Y-50183400D02*
X91390800Y-43034200D01*
X98540000Y-62000000D02*
X98540000Y-50183400D01*
%TO.N,RH_OUT*%
X132809900Y-61965100D02*
X145775100Y-48999900D01*
X125531400Y-61965100D02*
X121079400Y-57513100D01*
X108000000Y-84000000D02*
X125531400Y-66468600D01*
X125531400Y-66468600D02*
X125531400Y-61965100D01*
X145775100Y-39404200D02*
X146004300Y-39175000D01*
X125531400Y-61965100D02*
X132809900Y-61965100D01*
X145775100Y-48999900D02*
X145775100Y-39404200D01*
%TO.N,I2C_SDA*%
X90662900Y-39697900D02*
X91390800Y-40425800D01*
X113500000Y-58600000D02*
X111538200Y-56638200D01*
X116137500Y-46937200D02*
X116137500Y-41789500D01*
X84222700Y-71777300D02*
X84222700Y-40665400D01*
X84222700Y-40665400D02*
X85190200Y-39697900D01*
X111538200Y-56638200D02*
X111538200Y-51536500D01*
X111538200Y-51536500D02*
X116137500Y-46937200D01*
X85190200Y-39697900D02*
X90662900Y-39697900D01*
X72000000Y-84000000D02*
X84222700Y-71777300D01*
%TO.N,I2C_SCL*%
X110114000Y-58014000D02*
X110114000Y-52180700D01*
X113500000Y-61400000D02*
X110114000Y-58014000D01*
X85464200Y-40311000D02*
X85464200Y-82535800D01*
X85464200Y-82535800D02*
X84000000Y-84000000D01*
%TO.N,TEMP_KTY*%
X16000000Y-40000000D02*
X16000000Y-47826700D01*
X16000000Y-47826700D02*
X23173300Y-55000000D01*
X24000000Y-55000000D02*
X23173300Y-55000000D01*
%TD*%
M02*
