%TF.GenerationSoftware,KiCad,Pcbnew,10.0.5*%
%TF.CreationDate,2026-08-07T12:52:10+02:00*%
%TF.ProjectId,IDM-RoomSensor-Classic-B-ES1,49444d2d-526f-46f6-9d53-656e736f722d,rev?*%
%TF.SameCoordinates,Original*%
%TF.FileFunction,Soldermask,Top*%
%TF.FilePolarity,Negative*%
%FSLAX46Y46*%
G04 Gerber Fmt 4.6, Leading zero omitted, Abs format (unit mm)*
G04 Created by KiCad (PCBNEW 10.0.5) date 2026-08-07 12:52:10*
%MOMM*%
%LPD*%
G01*
G04 APERTURE LIST*
G04 Aperture macros list*
%AMRoundRect*
0 Rectangle with rounded corners*
0 $1 Rounding radius*
0 $2 $3 $4 $5 $6 $7 $8 $9 X,Y pos of 4 corners*
0 Add a 4 corners polygon primitive as box body*
4,1,4,$2,$3,$4,$5,$6,$7,$8,$9,$2,$3,0*
0 Add four circle primitives for the rounded corners*
1,1,$1+$1,$2,$3*
1,1,$1+$1,$4,$5*
1,1,$1+$1,$6,$7*
1,1,$1+$1,$8,$9*
0 Add four rect primitives between the rounded corners*
20,1,$1+$1,$2,$3,$4,$5,0*
20,1,$1+$1,$4,$5,$6,$7,0*
20,1,$1+$1,$6,$7,$8,$9,0*
20,1,$1+$1,$8,$9,$2,$3,0*%
G04 Aperture macros list end*
%ADD10C,3.200000*%
%ADD11RoundRect,0.225000X0.250000X-0.225000X0.250000X0.225000X-0.250000X0.225000X-0.250000X-0.225000X0*%
%ADD12RoundRect,0.200000X0.275000X-0.200000X0.275000X0.200000X-0.275000X0.200000X-0.275000X-0.200000X0*%
%ADD13C,3.000000*%
%ADD14R,1.500000X2.500000*%
%ADD15O,1.500000X2.500000*%
%ADD16RoundRect,0.500000X-0.500000X-0.500000X0.500000X-0.500000X0.500000X0.500000X-0.500000X0.500000X0*%
%ADD17C,2.000000*%
%ADD18R,1.700000X1.700000*%
%ADD19C,1.700000*%
%ADD20RoundRect,0.250000X-1.000000X-0.650000X1.000000X-0.650000X1.000000X0.650000X-1.000000X0.650000X0*%
%ADD21RoundRect,0.150000X-0.875000X-0.150000X0.875000X-0.150000X0.875000X0.150000X-0.875000X0.150000X0*%
%ADD22RoundRect,0.150000X-0.512500X-0.150000X0.512500X-0.150000X0.512500X0.150000X-0.512500X0.150000X0*%
%ADD23R,0.500000X0.300000*%
%ADD24RoundRect,0.225000X-0.225000X-0.250000X0.225000X-0.250000X0.225000X0.250000X-0.225000X0.250000X0*%
%ADD25RoundRect,0.250000X-0.250000X-0.475000X0.250000X-0.475000X0.250000X0.475000X-0.250000X0.475000X0*%
%ADD26R,1.050000X1.500000*%
%ADD27O,1.050000X1.500000*%
%ADD28RoundRect,0.250001X-0.949999X-0.949999X0.949999X-0.949999X0.949999X0.949999X-0.949999X0.949999X0*%
%ADD29C,2.400000*%
%ADD30RoundRect,0.250000X-0.325000X-1.100000X0.325000X-1.100000X0.325000X1.100000X-0.325000X1.100000X0*%
G04 APERTURE END LIST*
D10*
%TO.C,H1*%
X14000000Y-84000000D03*
%TD*%
D11*
%TO.C,C4*%
X121000000Y-60775000D03*
X121000000Y-59225000D03*
%TD*%
D12*
%TO.C,R3*%
X136000000Y-48825000D03*
X136000000Y-47175000D03*
%TD*%
D11*
%TO.C,C5*%
X128000000Y-30775000D03*
X128000000Y-29225000D03*
%TD*%
D13*
%TO.C,TP7*%
X96000000Y-84000000D03*
%TD*%
D14*
%TO.C,U1*%
X69000000Y-22000000D03*
D15*
X71540000Y-22000000D03*
X74080000Y-22000000D03*
%TD*%
D16*
%TO.C,F1*%
X29000000Y-22000000D03*
X34000000Y-22000000D03*
D17*
X44000000Y-22000000D03*
X49000000Y-22000000D03*
%TD*%
D18*
%TO.C,J2*%
X96000000Y-62000000D03*
D19*
X98540000Y-62000000D03*
X101080000Y-62000000D03*
%TD*%
D12*
%TO.C,R5*%
X145000000Y-40825000D03*
X145000000Y-39175000D03*
%TD*%
D20*
%TO.C,D1*%
X55000000Y-22000000D03*
X59000000Y-22000000D03*
%TD*%
D21*
%TO.C,U2*%
X79350000Y-37285000D03*
X79350000Y-38555000D03*
X79350000Y-39825000D03*
X79350000Y-41095000D03*
X79350000Y-42365000D03*
X79350000Y-43635000D03*
X79350000Y-44905000D03*
X79350000Y-46175000D03*
X79350000Y-47445000D03*
X79350000Y-48715000D03*
X88650000Y-48715000D03*
X88650000Y-47445000D03*
X88650000Y-46175000D03*
X88650000Y-44905000D03*
X88650000Y-43635000D03*
X88650000Y-42365000D03*
X88650000Y-41095000D03*
X88650000Y-39825000D03*
X88650000Y-38555000D03*
X88650000Y-37285000D03*
%TD*%
D22*
%TO.C,U6*%
X82862500Y-26050000D03*
X82862500Y-27000000D03*
X82862500Y-27950000D03*
X85137500Y-27950000D03*
X85137500Y-26050000D03*
%TD*%
D13*
%TO.C,TP8*%
X108000000Y-84000000D03*
%TD*%
%TO.C,TP10*%
X132000000Y-84000000D03*
%TD*%
%TO.C,TP9*%
X120000000Y-84000000D03*
%TD*%
D11*
%TO.C,C6*%
X145000000Y-49775000D03*
X145000000Y-48225000D03*
%TD*%
D13*
%TO.C,TP3*%
X48000000Y-84000000D03*
%TD*%
D23*
%TO.C,U3*%
X115300000Y-59600000D03*
X115300000Y-60400000D03*
X116700000Y-60400000D03*
X116700000Y-59600000D03*
%TD*%
D24*
%TO.C,C2*%
X62225000Y-31000000D03*
X63775000Y-31000000D03*
%TD*%
D25*
%TO.C,C3*%
X71050000Y-31000000D03*
X72950000Y-31000000D03*
%TD*%
D26*
%TO.C,RTH1*%
X24000000Y-55000000D03*
D27*
X25270000Y-55000000D03*
X26540000Y-55000000D03*
%TD*%
D13*
%TO.C,TP1*%
X24000000Y-84000000D03*
%TD*%
D28*
%TO.C,J1*%
X16000000Y-40000000D03*
D29*
X19500000Y-40000000D03*
X23000000Y-40000000D03*
X26500000Y-40000000D03*
%TD*%
D12*
%TO.C,R1*%
X109000000Y-52825000D03*
X109000000Y-51175000D03*
%TD*%
D30*
%TO.C,C1*%
X55525000Y-31000000D03*
X58475000Y-31000000D03*
%TD*%
D13*
%TO.C,TP5*%
X72000000Y-84000000D03*
%TD*%
%TO.C,TP4*%
X60000000Y-84000000D03*
%TD*%
D22*
%TO.C,U4*%
X113862500Y-39050000D03*
X113862500Y-40000000D03*
X113862500Y-40950000D03*
X116137500Y-40950000D03*
X116137500Y-40000000D03*
X116137500Y-39050000D03*
%TD*%
D13*
%TO.C,TP2*%
X36000000Y-84000000D03*
%TD*%
%TO.C,TP6*%
X84000000Y-84000000D03*
%TD*%
D12*
%TO.C,R2*%
X113000000Y-52825000D03*
X113000000Y-51175000D03*
%TD*%
%TO.C,R4*%
X128000000Y-54825000D03*
X128000000Y-53175000D03*
%TD*%
D10*
%TO.C,H2*%
X151000000Y-84000000D03*
%TD*%
D22*
%TO.C,U5*%
X130862500Y-39050000D03*
X130862500Y-40000000D03*
X130862500Y-40950000D03*
X133137500Y-40950000D03*
X133137500Y-39050000D03*
%TD*%
M02*
