%TF.GenerationSoftware,KiCad,Pcbnew,10.0.5*%
%TF.CreationDate,2026-08-07T12:52:10+02:00*%
%TF.ProjectId,IDM-RoomSensor-Classic-B-ES1,49444d2d-526f-46f6-9d53-656e736f722d,rev?*%
%TF.SameCoordinates,Original*%
%TF.FileFunction,Copper,L1,Top*%
%TF.FilePolarity,Positive*%
%FSLAX46Y46*%
G04 Gerber Fmt 4.6, Leading zero omitted, Abs format (unit mm)*
G04 Created by KiCad (PCBNEW 10.0.5) date 2026-08-07 12:52:10*
%MOMM*%
%LPD*%
G01*
G04 APERTURE LIST*
G04 Aperture macros list*
%AMRoundRect*
0 Rectangle with rounded corners*
0 $1 Rounding radius*
0 $2 $3 $4 $5 $6 $7 $8 $9 X,Y pos of 4 corners*
0 Add a 4 corners polygon primitive as box body*
4,1,4,$2,$3,$4,$5,$6,$7,$8,$9,$2,$3,0*
0 Add four circle primitives for the rounded corners*
1,1,$1+$1,$2,$3*
1,1,$1+$1,$4,$5*
1,1,$1+$1,$6,$7*
1,1,$1+$1,$8,$9*
0 Add four rect primitives between the rounded corners*
20,1,$1+$1,$2,$3,$4,$5,0*
20,1,$1+$1,$4,$5,$6,$7,0*
20,1,$1+$1,$6,$7,$8,$9,0*
20,1,$1+$1,$8,$9,$2,$3,0*%
G04 Aperture macros list end*
%TA.AperFunction,SMDPad,CuDef*%
%ADD10RoundRect,0.225000X0.250000X-0.225000X0.250000X0.225000X-0.250000X0.225000X-0.250000X-0.225000X0*%
%TD*%
%TA.AperFunction,SMDPad,CuDef*%
%ADD11RoundRect,0.200000X0.275000X-0.200000X0.275000X0.200000X-0.275000X0.200000X-0.275000X-0.200000X0*%
%TD*%
%TA.AperFunction,ComponentPad*%
%ADD12C,3.000000*%
%TD*%
%TA.AperFunction,ComponentPad*%
%ADD13R,1.500000X2.500000*%
%TD*%
%TA.AperFunction,ComponentPad*%
%ADD14O,1.500000X2.500000*%
%TD*%
%TA.AperFunction,ComponentPad*%
%ADD15RoundRect,0.500000X-0.500000X-0.500000X0.500000X-0.500000X0.500000X0.500000X-0.500000X0.500000X0*%
%TD*%
%TA.AperFunction,ComponentPad*%
%ADD16C,2.000000*%
%TD*%
%TA.AperFunction,ComponentPad*%
%ADD17R,1.700000X1.700000*%
%TD*%
%TA.AperFunction,ComponentPad*%
%ADD18C,1.700000*%
%TD*%
%TA.AperFunction,SMDPad,CuDef*%
%ADD19RoundRect,0.250000X-1.000000X-0.650000X1.000000X-0.650000X1.000000X0.650000X-1.000000X0.650000X0*%
%TD*%
%TA.AperFunction,SMDPad,CuDef*%
%ADD20RoundRect,0.150000X-0.875000X-0.150000X0.875000X-0.150000X0.875000X0.150000X-0.875000X0.150000X0*%
%TD*%
%TA.AperFunction,SMDPad,CuDef*%
%ADD21RoundRect,0.150000X-0.512500X-0.150000X0.512500X-0.150000X0.512500X0.150000X-0.512500X0.150000X0*%
%TD*%
%TA.AperFunction,SMDPad,CuDef*%
%ADD22R,0.500000X0.300000*%
%TD*%
%TA.AperFunction,SMDPad,CuDef*%
%ADD23RoundRect,0.225000X-0.225000X-0.250000X0.225000X-0.250000X0.225000X0.250000X-0.225000X0.250000X0*%
%TD*%
%TA.AperFunction,SMDPad,CuDef*%
%ADD24RoundRect,0.250000X-0.250000X-0.475000X0.250000X-0.475000X0.250000X0.475000X-0.250000X0.475000X0*%
%TD*%
%TA.AperFunction,ComponentPad*%
%ADD25R,1.050000X1.500000*%
%TD*%
%TA.AperFunction,ComponentPad*%
%ADD26O,1.050000X1.500000*%
%TD*%
%TA.AperFunction,ComponentPad*%
%ADD27RoundRect,0.250001X-0.949999X-0.949999X0.949999X-0.949999X0.949999X0.949999X-0.949999X0.949999X0*%
%TD*%
%TA.AperFunction,ComponentPad*%
%ADD28C,2.400000*%
%TD*%
%TA.AperFunction,SMDPad,CuDef*%
%ADD29RoundRect,0.250000X-0.325000X-1.100000X0.325000X-1.100000X0.325000X1.100000X-0.325000X1.100000X0*%
%TD*%
%TA.AperFunction,ViaPad*%
%ADD30C,0.600000*%
%TD*%
%TA.AperFunction,ViaPad*%
%ADD31C,0.800000*%
%TD*%
%TA.AperFunction,Conductor*%
%ADD32C,0.200000*%
%TD*%
G04 APERTURE END LIST*
D10*
%TO.P,C4,1*%
%TO.N,+3V3*%
X121000000Y-60775000D03*
%TO.P,C4,2*%
%TO.N,GND*%
X121000000Y-59225000D03*
%TD*%
D11*
%TO.P,R3,1*%
%TO.N,OPAMP_OUT*%
X136000000Y-48825000D03*
%TO.P,R3,2*%
%TO.N,OPAMP_FB*%
X136000000Y-47175000D03*
%TD*%
D10*
%TO.P,C5,1*%
%TO.N,24V_PROT*%
X128000000Y-30775000D03*
%TO.P,C5,2*%
%TO.N,GND*%
X128000000Y-29225000D03*
%TD*%
D12*
%TO.P,TP7,1*%
%TO.N,DAC_RAW*%
X96000000Y-84000000D03*
%TD*%
D13*
%TO.P,U1,1*%
%TO.N,24V_PROT*%
X69000000Y-22000000D03*
D14*
%TO.P,U1,2*%
%TO.N,GND*%
X71540000Y-22000000D03*
%TO.P,U1,3*%
%TO.N,+5V*%
X74080000Y-22000000D03*
%TD*%
D15*
%TO.P,F1,1*%
%TO.N,24V_RAW*%
X29000000Y-22000000D03*
X34000000Y-22000000D03*
D16*
%TO.P,F1,2*%
%TO.N,24V_FUSED*%
X44000000Y-22000000D03*
X49000000Y-22000000D03*
%TD*%
D17*
%TO.P,J2,1*%
%TO.N,+3V3*%
X96000000Y-62000000D03*
D18*
%TO.P,J2,2*%
%TO.N,UPDI*%
X98540000Y-62000000D03*
%TO.P,J2,3*%
%TO.N,GND*%
X101080000Y-62000000D03*
%TD*%
D11*
%TO.P,R5,1*%
%TO.N,OPAMP_OUT*%
X145000000Y-40825000D03*
%TO.P,R5,2*%
%TO.N,RH_OUT*%
X145000000Y-39175000D03*
%TD*%
D19*
%TO.P,D1,1*%
%TO.N,24V_PROT*%
X55000000Y-22000000D03*
%TO.P,D1,2*%
%TO.N,24V_FUSED*%
X59000000Y-22000000D03*
%TD*%
D20*
%TO.P,U2,1*%
%TO.N,+3V3*%
X79350000Y-37285000D03*
%TO.P,U2,2*%
%TO.N,N/C*%
X79350000Y-38555000D03*
%TO.P,U2,3*%
X79350000Y-39825000D03*
%TO.P,U2,4*%
X79350000Y-41095000D03*
%TO.P,U2,5*%
X79350000Y-42365000D03*
%TO.P,U2,6*%
X79350000Y-43635000D03*
%TO.P,U2,7*%
X79350000Y-44905000D03*
%TO.P,U2,8*%
X79350000Y-46175000D03*
%TO.P,U2,9*%
X79350000Y-47445000D03*
%TO.P,U2,10*%
X79350000Y-48715000D03*
%TO.P,U2,11*%
X88650000Y-48715000D03*
%TO.P,U2,12*%
X88650000Y-47445000D03*
%TO.P,U2,13*%
X88650000Y-46175000D03*
%TO.P,U2,14*%
X88650000Y-44905000D03*
%TO.P,U2,15*%
X88650000Y-43635000D03*
%TO.P,U2,16*%
%TO.N,UPDI*%
X88650000Y-42365000D03*
%TO.P,U2,17*%
%TO.N,I2C_SDA*%
X88650000Y-41095000D03*
%TO.P,U2,18*%
%TO.N,I2C_SCL*%
X88650000Y-39825000D03*
%TO.P,U2,19*%
%TO.N,N/C*%
X88650000Y-38555000D03*
%TO.P,U2,20*%
%TO.N,GND*%
X88650000Y-37285000D03*
%TD*%
D21*
%TO.P,U6,1*%
%TO.N,+5V*%
X82862500Y-26050000D03*
%TO.P,U6,2*%
%TO.N,GND*%
X82862500Y-27000000D03*
%TO.P,U6,3*%
%TO.N,+5V*%
X82862500Y-27950000D03*
%TO.P,U6,4*%
%TO.N,N/C*%
X85137500Y-27950000D03*
%TO.P,U6,5*%
%TO.N,+3V3*%
X85137500Y-26050000D03*
%TD*%
D12*
%TO.P,TP8,1*%
%TO.N,RH_OUT*%
X108000000Y-84000000D03*
%TD*%
%TO.P,TP10,1*%
%TO.N,GND*%
X132000000Y-84000000D03*
%TD*%
%TO.P,TP9,1*%
%TO.N,TEMP_KTY*%
X120000000Y-84000000D03*
%TD*%
D10*
%TO.P,C6,1*%
%TO.N,RH_OUT*%
X145000000Y-49775000D03*
%TO.P,C6,2*%
%TO.N,GND*%
X145000000Y-48225000D03*
%TD*%
D12*
%TO.P,TP3,1*%
%TO.N,+5V*%
X48000000Y-84000000D03*
%TD*%
D22*
%TO.P,U3,1*%
%TO.N,I2C_SDA*%
X115300000Y-59600000D03*
%TO.P,U3,2*%
%TO.N,I2C_SCL*%
X115300000Y-60400000D03*
%TO.P,U3,3*%
%TO.N,+3V3*%
X116700000Y-60400000D03*
%TO.P,U3,4*%
%TO.N,GND*%
X116700000Y-59600000D03*
%TD*%
D23*
%TO.P,C2,1*%
%TO.N,24V_PROT*%
X62225000Y-31000000D03*
%TO.P,C2,2*%
%TO.N,GND*%
X63775000Y-31000000D03*
%TD*%
D24*
%TO.P,C3,1*%
%TO.N,+5V*%
X71050000Y-31000000D03*
%TO.P,C3,2*%
%TO.N,GND*%
X72950000Y-31000000D03*
%TD*%
D25*
%TO.P,RTH1,1*%
%TO.N,TEMP_KTY*%
X24000000Y-55000000D03*
D26*
%TO.P,RTH1,2*%
%TO.N,GND*%
X25270000Y-55000000D03*
%TO.P,RTH1,3*%
%TO.N,N/C*%
X26540000Y-55000000D03*
%TD*%
D12*
%TO.P,TP1,1*%
%TO.N,24V_RAW*%
X24000000Y-84000000D03*
%TD*%
D27*
%TO.P,J1,1*%
%TO.N,TEMP_KTY*%
X16000000Y-40000000D03*
D28*
%TO.P,J1,2*%
%TO.N,24V_RAW*%
X19500000Y-40000000D03*
%TO.P,J1,3*%
%TO.N,GND*%
X23000000Y-40000000D03*
%TO.P,J1,4*%
%TO.N,RH_OUT*%
X26500000Y-40000000D03*
%TD*%
D11*
%TO.P,R1,1*%
%TO.N,+3V3*%
X109000000Y-52825000D03*
%TO.P,R1,2*%
%TO.N,I2C_SDA*%
X109000000Y-51175000D03*
%TD*%
D29*
%TO.P,C1,1*%
%TO.N,24V_PROT*%
X55525000Y-31000000D03*
%TO.P,C1,2*%
%TO.N,GND*%
X58475000Y-31000000D03*
%TD*%
D12*
%TO.P,TP5,1*%
%TO.N,I2C_SDA*%
X72000000Y-84000000D03*
%TD*%
%TO.P,TP4,1*%
%TO.N,+3V3*%
X60000000Y-84000000D03*
%TD*%
D21*
%TO.P,U4,1*%
%TO.N,DAC_RAW*%
X113862500Y-39050000D03*
%TO.P,U4,2*%
%TO.N,GND*%
X113862500Y-40000000D03*
%TO.P,U4,3*%
%TO.N,+3V3*%
X113862500Y-40950000D03*
%TO.P,U4,4*%
%TO.N,I2C_SDA*%
X116137500Y-40950000D03*
%TO.P,U4,5*%
%TO.N,I2C_SCL*%
X116137500Y-40000000D03*
%TO.P,U4,6*%
%TO.N,GND*%
X116137500Y-39050000D03*
%TD*%
D12*
%TO.P,TP2,1*%
%TO.N,24V_PROT*%
X36000000Y-84000000D03*
%TD*%
%TO.P,TP6,1*%
%TO.N,I2C_SCL*%
X84000000Y-84000000D03*
%TD*%
D11*
%TO.P,R2,1*%
%TO.N,+3V3*%
X113000000Y-52825000D03*
%TO.P,R2,2*%
%TO.N,I2C_SCL*%
X113000000Y-51175000D03*
%TD*%
%TO.P,R4,1*%
%TO.N,OPAMP_FB*%
X128000000Y-54825000D03*
%TO.P,R4,2*%
%TO.N,GND*%
X128000000Y-53175000D03*
%TD*%
D21*
%TO.P,U5,1*%
%TO.N,OPAMP_OUT*%
X130862500Y-39050000D03*
%TO.P,U5,2*%
%TO.N,GND*%
X130862500Y-40000000D03*
%TO.P,U5,3*%
%TO.N,DAC_RAW*%
X130862500Y-40950000D03*
%TO.P,U5,4*%
%TO.N,OPAMP_FB*%
X133137500Y-40950000D03*
%TO.P,U5,5*%
%TO.N,24V_PROT*%
X133137500Y-39050000D03*
%TD*%
D30*
%TO.N,+3V3*%
X77814600Y-37414700D03*
X76574300Y-60585100D03*
X88427500Y-25829500D03*
X109000000Y-53779600D03*
X113565400Y-41775800D03*
D31*
%TO.N,GND*%
X115500000Y-58500000D03*
X115500000Y-55000000D03*
D30*
%TO.N,OPAMP_FB*%
X135840300Y-40311000D03*
X128744600Y-54080400D03*
X138516700Y-45816800D03*
%TO.N,24V_PROT*%
X52517700Y-22933200D03*
X52867900Y-31622100D03*
X59713600Y-31622100D03*
%TO.N,DAC_RAW*%
X121023800Y-43207300D03*
%TO.N,+5V*%
X70042100Y-31622100D03*
%TO.N,24V_FUSED*%
X49904600Y-19744400D03*
%TO.N,UPDI*%
X91390800Y-43034200D03*
%TO.N,RH_OUT*%
X145775100Y-48999900D03*
X146004300Y-39175000D03*
X121079400Y-57513100D03*
%TO.N,I2C_SDA*%
X91390800Y-40425800D03*
D31*
X113500000Y-58600000D03*
D30*
X116137500Y-41789500D03*
X111538200Y-51536500D03*
D31*
%TO.N,I2C_SCL*%
X113500000Y-61400000D03*
D30*
X85464200Y-40311000D03*
X110114000Y-52180700D03*
%TD*%
%TO.N,+3V3*%
D32*
X113862500Y-41478700D02*
X113862500Y-40950000D01*
X79220300Y-37414700D02*
X79350000Y-37285000D01*
X85358000Y-25829500D02*
X85137500Y-26050000D01*
X121828700Y-59946300D02*
X121828700Y-57404200D01*
X117500000Y-60400000D02*
X118500000Y-61400000D01*
X93433400Y-60585100D02*
X94848300Y-62000000D01*
X116700000Y-60400000D02*
X117500000Y-60400000D01*
X121828700Y-57404200D02*
X117249500Y-52825000D01*
X121000000Y-60775000D02*
X119125000Y-60775000D01*
X109000000Y-53779600D02*
X109000000Y-52825000D01*
X113565400Y-41775800D02*
X113862500Y-41478700D01*
X119125000Y-60775000D02*
X118500000Y-61400000D01*
X76574300Y-60585100D02*
X93433400Y-60585100D01*
X121000000Y-60775000D02*
X121828700Y-59946300D01*
X77814600Y-37414700D02*
X79220300Y-37414700D01*
X109000000Y-52825000D02*
X113000000Y-52825000D01*
X88427500Y-25829500D02*
X85358000Y-25829500D01*
X117249500Y-52825000D02*
X113000000Y-52825000D01*
X96000000Y-62000000D02*
X94848300Y-62000000D01*
%TO.N,GND*%
X117500000Y-59600000D02*
X117500000Y-58500000D01*
X117500000Y-58500000D02*
X115500000Y-58500000D01*
X116700000Y-59600000D02*
X117500000Y-59600000D01*
%TO.N,OPAMP_OUT*%
X131835300Y-39050000D02*
X132437600Y-39652300D01*
X130862500Y-39050000D02*
X131835300Y-39050000D01*
X140792000Y-44408000D02*
X136375000Y-48825000D01*
X136036300Y-39652300D02*
X140792000Y-44408000D01*
X132437600Y-39652300D02*
X136036300Y-39652300D01*
X136375000Y-48825000D02*
X136000000Y-48825000D01*
X145000000Y-40825000D02*
X141417000Y-44408000D01*
X141417000Y-44408000D02*
X140792000Y-44408000D01*
%TO.N,OPAMP_FB*%
X138516700Y-45816800D02*
X137358200Y-45816800D01*
X128744600Y-54080400D02*
X128000000Y-54825000D01*
X133776500Y-40311000D02*
X133137500Y-40950000D01*
X135840300Y-40311000D02*
X133776500Y-40311000D01*
X137358200Y-45816800D02*
X136000000Y-47175000D01*
%TO.N,24V_PROT*%
X59713600Y-31622100D02*
X61602900Y-31622100D01*
X126550200Y-32224800D02*
X63449800Y-32224800D01*
X128000000Y-30775000D02*
X133137500Y-35912500D01*
X54066800Y-22933200D02*
X55000000Y-22000000D01*
X133137500Y-35912500D02*
X133137500Y-39050000D01*
X54902900Y-31622100D02*
X55525000Y-31000000D01*
X52867900Y-31622100D02*
X54902900Y-31622100D01*
X128000000Y-30775000D02*
X126550200Y-32224800D01*
X61602900Y-31622100D02*
X62225000Y-31000000D01*
X52517700Y-22933200D02*
X54066800Y-22933200D01*
X63449800Y-32224800D02*
X62225000Y-31000000D01*
%TO.N,DAC_RAW*%
X120033900Y-40950000D02*
X117469500Y-38385600D01*
X128605200Y-43207300D02*
X130862500Y-40950000D01*
X130862500Y-40950000D02*
X120033900Y-40950000D01*
X117469500Y-38385600D02*
X114526900Y-38385600D01*
X121023800Y-43207300D02*
X128605200Y-43207300D01*
X114526900Y-38385600D02*
X113862500Y-39050000D01*
%TO.N,+5V*%
X74080000Y-22000000D02*
X78812500Y-22000000D01*
X83877100Y-26655800D02*
X83877100Y-27600800D01*
X70042100Y-31622100D02*
X70427900Y-31622100D01*
X83877100Y-27600800D02*
X83211700Y-27600800D01*
X70427900Y-31622100D02*
X71050000Y-31000000D01*
X78812500Y-22000000D02*
X82862500Y-26050000D01*
X83211700Y-27600800D02*
X82862500Y-27950000D01*
X83271300Y-26050000D02*
X83877100Y-26655800D01*
X82862500Y-26050000D02*
X83271300Y-26050000D01*
%TO.N,24V_RAW*%
X34000000Y-22000000D02*
X29000000Y-22000000D01*
%TO.N,24V_FUSED*%
X56744400Y-19744400D02*
X59000000Y-22000000D01*
X49904600Y-19744400D02*
X56744400Y-19744400D01*
X49000000Y-22000000D02*
X44000000Y-22000000D01*
%TO.N,UPDI*%
X89319200Y-43034200D02*
X88650000Y-42365000D01*
X91390800Y-43034200D02*
X89319200Y-43034200D01*
%TO.N,RH_OUT*%
X145775100Y-48999900D02*
X145000000Y-49775000D01*
X121079400Y-57513100D02*
X44013100Y-57513100D01*
X146004300Y-39175000D02*
X145000000Y-39175000D01*
X44013100Y-57513100D02*
X26500000Y-40000000D01*
%TO.N,I2C_SDA*%
X111538200Y-51536500D02*
X109361500Y-51536500D01*
X115300000Y-59600000D02*
X114500000Y-59600000D01*
X91390800Y-40425800D02*
X98250800Y-40425800D01*
X98250800Y-40425800D02*
X109000000Y-51175000D01*
X116137500Y-41789500D02*
X116137500Y-40950000D01*
X114500000Y-59600000D02*
X113500000Y-58600000D01*
X89319200Y-40425800D02*
X88650000Y-41095000D01*
X109361500Y-51536500D02*
X109000000Y-51175000D01*
X91390800Y-40425800D02*
X89319200Y-40425800D01*
%TO.N,I2C_SCL*%
X115036400Y-40349200D02*
X115788300Y-40349200D01*
X115300000Y-60400000D02*
X114500000Y-60400000D01*
X115036400Y-41194900D02*
X115036400Y-40349200D01*
X110114000Y-52180700D02*
X111994300Y-52180700D01*
X85464200Y-40311000D02*
X88164000Y-40311000D01*
X113000000Y-51175000D02*
X113000000Y-43889100D01*
X88164000Y-40311000D02*
X88650000Y-39825000D01*
X112671100Y-43560200D02*
X108852200Y-39741300D01*
X112671100Y-43560200D02*
X115036400Y-41194900D01*
X111994300Y-52180700D02*
X113000000Y-51175000D01*
X114500000Y-60400000D02*
X113500000Y-61400000D01*
X88733700Y-39741300D02*
X88650000Y-39825000D01*
X108852200Y-39741300D02*
X88733700Y-39741300D01*
X113000000Y-43889100D02*
X112671100Y-43560200D01*
X115788300Y-40349200D02*
X116137500Y-40000000D01*
%TO.N,TEMP_KTY*%
X43632600Y-75684300D02*
X111684300Y-75684300D01*
X24000000Y-55000000D02*
X24000000Y-56051700D01*
X24000000Y-56051700D02*
X43632600Y-75684300D01*
X111684300Y-75684300D02*
X120000000Y-84000000D01*
%TD*%
%TA.AperFunction,Conductor*%
%TO.N,GND*%
G36*
X120647847Y-57932507D02*
G01*
X120659659Y-57942596D01*
X120696289Y-57979225D01*
X120710684Y-57993620D01*
X120847616Y-58072677D01*
X121000343Y-58113600D01*
X121000345Y-58113600D01*
X121158454Y-58113600D01*
X121158457Y-58113600D01*
X121303580Y-58074714D01*
X121364678Y-58077916D01*
X121412228Y-58116421D01*
X121428200Y-58170341D01*
X121428200Y-59739400D01*
X121409293Y-59797591D01*
X121399204Y-59809403D01*
X121213105Y-59995503D01*
X121158588Y-60023281D01*
X121143101Y-60024500D01*
X120708851Y-60024500D01*
X120624408Y-60034641D01*
X120490027Y-60087634D01*
X120402398Y-60154086D01*
X120374922Y-60174922D01*
X120305264Y-60266780D01*
X120287634Y-60290028D01*
X120279041Y-60311819D01*
X120240105Y-60359016D01*
X120186944Y-60374500D01*
X119072273Y-60374500D01*
X119021343Y-60388146D01*
X118970411Y-60401793D01*
X118882198Y-60452724D01*
X118882194Y-60452726D01*
X118879090Y-60454517D01*
X118879085Y-60454521D01*
X118570002Y-60763603D01*
X118515486Y-60791380D01*
X118455054Y-60781809D01*
X118429995Y-60763603D01*
X118172435Y-60506043D01*
X117745913Y-60079520D01*
X117745910Y-60079518D01*
X117745908Y-60079516D01*
X117654591Y-60026794D01*
X117654593Y-60026794D01*
X117615070Y-60016204D01*
X117552727Y-59999500D01*
X117552725Y-59999500D01*
X117147512Y-59999500D01*
X117107526Y-59991065D01*
X117019991Y-59952415D01*
X117019990Y-59952414D01*
X117019988Y-59952414D01*
X116994869Y-59949500D01*
X116994865Y-59949500D01*
X116849000Y-59949500D01*
X116790809Y-59930593D01*
X116754845Y-59881093D01*
X116750000Y-59850500D01*
X116750000Y-59750001D01*
X116750000Y-59750000D01*
X116749999Y-59750000D01*
X116549000Y-59750000D01*
X116490809Y-59731093D01*
X116454845Y-59681593D01*
X116450000Y-59651000D01*
X116450000Y-59549000D01*
X116468907Y-59490809D01*
X116518407Y-59454845D01*
X116549000Y-59450000D01*
X116749999Y-59450000D01*
X116750000Y-59450000D01*
X116750000Y-59250000D01*
X116749999Y-59250000D01*
X115815979Y-59250000D01*
X115757788Y-59231093D01*
X115745977Y-59221005D01*
X115722766Y-59197795D01*
X115722765Y-59197794D01*
X115619991Y-59152415D01*
X115619990Y-59152414D01*
X115619988Y-59152414D01*
X115594868Y-59149500D01*
X115005139Y-59149500D01*
X115005136Y-59149501D01*
X114980009Y-59152414D01*
X114939041Y-59170504D01*
X114892473Y-59191065D01*
X114852488Y-59199500D01*
X114706900Y-59199500D01*
X114648709Y-59180593D01*
X114636896Y-59170504D01*
X114227113Y-58760721D01*
X114199336Y-58706204D01*
X114200021Y-58671396D01*
X114200500Y-58668993D01*
X114200500Y-58531007D01*
X114173580Y-58395672D01*
X114120775Y-58268189D01*
X114120774Y-58268187D01*
X114120771Y-58268182D01*
X114044114Y-58153458D01*
X113973260Y-58082604D01*
X113945483Y-58028087D01*
X113955054Y-57967655D01*
X113998319Y-57924390D01*
X114043264Y-57913600D01*
X120589656Y-57913600D01*
X120647847Y-57932507D01*
G37*
%TD.AperFunction*%
%TA.AperFunction,Conductor*%
G36*
X154458691Y-10519407D02*
G01*
X154494655Y-10568907D01*
X154499500Y-10599500D01*
X154499500Y-87400500D01*
X154480593Y-87458691D01*
X154431093Y-87494655D01*
X154400500Y-87499500D01*
X10599500Y-87499500D01*
X10541309Y-87480593D01*
X10505345Y-87431093D01*
X10500500Y-87400500D01*
X10500500Y-83878710D01*
X12149500Y-83878710D01*
X12149500Y-84121289D01*
X12181161Y-84361781D01*
X12181161Y-84361786D01*
X12243944Y-84596092D01*
X12243948Y-84596105D01*
X12336772Y-84820204D01*
X12336774Y-84820208D01*
X12336776Y-84820212D01*
X12441991Y-85002450D01*
X12458066Y-85030292D01*
X12605729Y-85222731D01*
X12605731Y-85222733D01*
X12605735Y-85222738D01*
X12777262Y-85394265D01*
X12777266Y-85394268D01*
X12777268Y-85394270D01*
X12969707Y-85541933D01*
X12969711Y-85541936D01*
X13179788Y-85663224D01*
X13403900Y-85756054D01*
X13638211Y-85818838D01*
X13878712Y-85850500D01*
X13878713Y-85850500D01*
X14121287Y-85850500D01*
X14121288Y-85850500D01*
X14361789Y-85818838D01*
X14596100Y-85756054D01*
X14820212Y-85663224D01*
X15030289Y-85541936D01*
X15222738Y-85394265D01*
X15394265Y-85222738D01*
X15541936Y-85030289D01*
X15663224Y-84820212D01*
X15756054Y-84596100D01*
X15818838Y-84361789D01*
X15850500Y-84121288D01*
X15850500Y-83881987D01*
X22199500Y-83881987D01*
X22199500Y-84118012D01*
X22230306Y-84352006D01*
X22230306Y-84352011D01*
X22291393Y-84579992D01*
X22381713Y-84798044D01*
X22499729Y-85002453D01*
X22643402Y-85189692D01*
X22643404Y-85189694D01*
X22643408Y-85189699D01*
X22810301Y-85356592D01*
X22810305Y-85356595D01*
X22810307Y-85356597D01*
X22859397Y-85394265D01*
X22997550Y-85500273D01*
X23201951Y-85618284D01*
X23201952Y-85618284D01*
X23201955Y-85618286D01*
X23420007Y-85708606D01*
X23647986Y-85769693D01*
X23881989Y-85800500D01*
X23881990Y-85800500D01*
X24118010Y-85800500D01*
X24118011Y-85800500D01*
X24352014Y-85769693D01*
X24579993Y-85708606D01*
X24798049Y-85618284D01*
X25002450Y-85500273D01*
X25189699Y-85356592D01*
X25356592Y-85189699D01*
X25500273Y-85002450D01*
X25618284Y-84798049D01*
X25708606Y-84579993D01*
X25769693Y-84352014D01*
X25800500Y-84118011D01*
X25800500Y-83881989D01*
X25800500Y-83881987D01*
X34199500Y-83881987D01*
X34199500Y-84118012D01*
X34230306Y-84352006D01*
X34230306Y-84352011D01*
X34291393Y-84579992D01*
X34381713Y-84798044D01*
X34499729Y-85002453D01*
X34643402Y-85189692D01*
X34643404Y-85189694D01*
X34643408Y-85189699D01*
X34810301Y-85356592D01*
X34810305Y-85356595D01*
X34810307Y-85356597D01*
X34859397Y-85394265D01*
X34997550Y-85500273D01*
X35201951Y-85618284D01*
X35201952Y-85618284D01*
X35201955Y-85618286D01*
X35420007Y-85708606D01*
X35647986Y-85769693D01*
X35881989Y-85800500D01*
X35881990Y-85800500D01*
X36118010Y-85800500D01*
X36118011Y-85800500D01*
X36352014Y-85769693D01*
X36579993Y-85708606D01*
X36798049Y-85618284D01*
X37002450Y-85500273D01*
X37189699Y-85356592D01*
X37356592Y-85189699D01*
X37500273Y-85002450D01*
X37618284Y-84798049D01*
X37708606Y-84579993D01*
X37769693Y-84352014D01*
X37800500Y-84118011D01*
X37800500Y-83881989D01*
X37800500Y-83881987D01*
X46199500Y-83881987D01*
X46199500Y-84118012D01*
X46230306Y-84352006D01*
X46230306Y-84352011D01*
X46291393Y-84579992D01*
X46381713Y-84798044D01*
X46499729Y-85002453D01*
X46643402Y-85189692D01*
X46643404Y-85189694D01*
X46643408Y-85189699D01*
X46810301Y-85356592D01*
X46810305Y-85356595D01*
X46810307Y-85356597D01*
X46859397Y-85394265D01*
X46997550Y-85500273D01*
X47201951Y-85618284D01*
X47201952Y-85618284D01*
X47201955Y-85618286D01*
X47420007Y-85708606D01*
X47647986Y-85769693D01*
X47881989Y-85800500D01*
X47881990Y-85800500D01*
X48118010Y-85800500D01*
X48118011Y-85800500D01*
X48352014Y-85769693D01*
X48579993Y-85708606D01*
X48798049Y-85618284D01*
X49002450Y-85500273D01*
X49189699Y-85356592D01*
X49356592Y-85189699D01*
X49500273Y-85002450D01*
X49618284Y-84798049D01*
X49708606Y-84579993D01*
X49769693Y-84352014D01*
X49800500Y-84118011D01*
X49800500Y-83881989D01*
X49800500Y-83881987D01*
X58199500Y-83881987D01*
X58199500Y-84118012D01*
X58230306Y-84352006D01*
X58230306Y-84352011D01*
X58291393Y-84579992D01*
X58381713Y-84798044D01*
X58499729Y-85002453D01*
X58643402Y-85189692D01*
X58643404Y-85189694D01*
X58643408Y-85189699D01*
X58810301Y-85356592D01*
X58810305Y-85356595D01*
X58810307Y-85356597D01*
X58859397Y-85394265D01*
X58997550Y-85500273D01*
X59201951Y-85618284D01*
X59201952Y-85618284D01*
X59201955Y-85618286D01*
X59420007Y-85708606D01*
X59647986Y-85769693D01*
X59881989Y-85800500D01*
X59881990Y-85800500D01*
X60118010Y-85800500D01*
X60118011Y-85800500D01*
X60352014Y-85769693D01*
X60579993Y-85708606D01*
X60798049Y-85618284D01*
X61002450Y-85500273D01*
X61189699Y-85356592D01*
X61356592Y-85189699D01*
X61500273Y-85002450D01*
X61618284Y-84798049D01*
X61708606Y-84579993D01*
X61769693Y-84352014D01*
X61800500Y-84118011D01*
X61800500Y-83881989D01*
X61800500Y-83881987D01*
X70199500Y-83881987D01*
X70199500Y-84118012D01*
X70230306Y-84352006D01*
X70230306Y-84352011D01*
X70291393Y-84579992D01*
X70381713Y-84798044D01*
X70499729Y-85002453D01*
X70643402Y-85189692D01*
X70643404Y-85189694D01*
X70643408Y-85189699D01*
X70810301Y-85356592D01*
X70810305Y-85356595D01*
X70810307Y-85356597D01*
X70859397Y-85394265D01*
X70997550Y-85500273D01*
X71201951Y-85618284D01*
X71201952Y-85618284D01*
X71201955Y-85618286D01*
X71420007Y-85708606D01*
X71647986Y-85769693D01*
X71881989Y-85800500D01*
X71881990Y-85800500D01*
X72118010Y-85800500D01*
X72118011Y-85800500D01*
X72352014Y-85769693D01*
X72579993Y-85708606D01*
X72798049Y-85618284D01*
X73002450Y-85500273D01*
X73189699Y-85356592D01*
X73356592Y-85189699D01*
X73500273Y-85002450D01*
X73618284Y-84798049D01*
X73708606Y-84579993D01*
X73769693Y-84352014D01*
X73800500Y-84118011D01*
X73800500Y-83881989D01*
X73800500Y-83881987D01*
X82199500Y-83881987D01*
X82199500Y-84118012D01*
X82230306Y-84352006D01*
X82230306Y-84352011D01*
X82291393Y-84579992D01*
X82381713Y-84798044D01*
X82499729Y-85002453D01*
X82643402Y-85189692D01*
X82643404Y-85189694D01*
X82643408Y-85189699D01*
X82810301Y-85356592D01*
X82810305Y-85356595D01*
X82810307Y-85356597D01*
X82859397Y-85394265D01*
X82997550Y-85500273D01*
X83201951Y-85618284D01*
X83201952Y-85618284D01*
X83201955Y-85618286D01*
X83420007Y-85708606D01*
X83647986Y-85769693D01*
X83881989Y-85800500D01*
X83881990Y-85800500D01*
X84118010Y-85800500D01*
X84118011Y-85800500D01*
X84352014Y-85769693D01*
X84579993Y-85708606D01*
X84798049Y-85618284D01*
X85002450Y-85500273D01*
X85189699Y-85356592D01*
X85356592Y-85189699D01*
X85500273Y-85002450D01*
X85618284Y-84798049D01*
X85708606Y-84579993D01*
X85769693Y-84352014D01*
X85800500Y-84118011D01*
X85800500Y-83881989D01*
X85800500Y-83881987D01*
X94199500Y-83881987D01*
X94199500Y-84118012D01*
X94230306Y-84352006D01*
X94230306Y-84352011D01*
X94291393Y-84579992D01*
X94381713Y-84798044D01*
X94499729Y-85002453D01*
X94643402Y-85189692D01*
X94643404Y-85189694D01*
X94643408Y-85189699D01*
X94810301Y-85356592D01*
X94810305Y-85356595D01*
X94810307Y-85356597D01*
X94859397Y-85394265D01*
X94997550Y-85500273D01*
X95201951Y-85618284D01*
X95201952Y-85618284D01*
X95201955Y-85618286D01*
X95420007Y-85708606D01*
X95647986Y-85769693D01*
X95881989Y-85800500D01*
X95881990Y-85800500D01*
X96118010Y-85800500D01*
X96118011Y-85800500D01*
X96352014Y-85769693D01*
X96579993Y-85708606D01*
X96798049Y-85618284D01*
X97002450Y-85500273D01*
X97189699Y-85356592D01*
X97356592Y-85189699D01*
X97500273Y-85002450D01*
X97618284Y-84798049D01*
X97708606Y-84579993D01*
X97769693Y-84352014D01*
X97800500Y-84118011D01*
X97800500Y-83881989D01*
X97800500Y-83881987D01*
X106199500Y-83881987D01*
X106199500Y-84118012D01*
X106230306Y-84352006D01*
X106230306Y-84352011D01*
X106291393Y-84579992D01*
X106381713Y-84798044D01*
X106499729Y-85002453D01*
X106643402Y-85189692D01*
X106643404Y-85189694D01*
X106643408Y-85189699D01*
X106810301Y-85356592D01*
X106810305Y-85356595D01*
X106810307Y-85356597D01*
X106859397Y-85394265D01*
X106997550Y-85500273D01*
X107201951Y-85618284D01*
X107201952Y-85618284D01*
X107201955Y-85618286D01*
X107420007Y-85708606D01*
X107647986Y-85769693D01*
X107881989Y-85800500D01*
X107881990Y-85800500D01*
X108118010Y-85800500D01*
X108118011Y-85800500D01*
X108352014Y-85769693D01*
X108579993Y-85708606D01*
X108798049Y-85618284D01*
X109002450Y-85500273D01*
X109189699Y-85356592D01*
X109356592Y-85189699D01*
X109500273Y-85002450D01*
X109618284Y-84798049D01*
X109708606Y-84579993D01*
X109769693Y-84352014D01*
X109800500Y-84118011D01*
X109800500Y-83881989D01*
X109769693Y-83647986D01*
X109708606Y-83420007D01*
X109618284Y-83201951D01*
X109500273Y-82997550D01*
X109492412Y-82987305D01*
X109356597Y-82810307D01*
X109356595Y-82810305D01*
X109356592Y-82810301D01*
X109189699Y-82643408D01*
X109189694Y-82643404D01*
X109189692Y-82643402D01*
X109002453Y-82499729D01*
X108930287Y-82458064D01*
X108798049Y-82381716D01*
X108798047Y-82381715D01*
X108798044Y-82381713D01*
X108579992Y-82291393D01*
X108424277Y-82249670D01*
X108352014Y-82230307D01*
X108352011Y-82230306D01*
X108352009Y-82230306D01*
X108118012Y-82199500D01*
X108118011Y-82199500D01*
X107881989Y-82199500D01*
X107881987Y-82199500D01*
X107647993Y-82230306D01*
X107647988Y-82230306D01*
X107420007Y-82291393D01*
X107201955Y-82381713D01*
X106997546Y-82499729D01*
X106810307Y-82643402D01*
X106643402Y-82810307D01*
X106499729Y-82997546D01*
X106381713Y-83201955D01*
X106291393Y-83420007D01*
X106230306Y-83647988D01*
X106230306Y-83647993D01*
X106199500Y-83881987D01*
X97800500Y-83881987D01*
X97769693Y-83647986D01*
X97708606Y-83420007D01*
X97618284Y-83201951D01*
X97500273Y-82997550D01*
X97492412Y-82987305D01*
X97356597Y-82810307D01*
X97356595Y-82810305D01*
X97356592Y-82810301D01*
X97189699Y-82643408D01*
X97189694Y-82643404D01*
X97189692Y-82643402D01*
X97002453Y-82499729D01*
X96930287Y-82458064D01*
X96798049Y-82381716D01*
X96798047Y-82381715D01*
X96798044Y-82381713D01*
X96579992Y-82291393D01*
X96424277Y-82249670D01*
X96352014Y-82230307D01*
X96352011Y-82230306D01*
X96352009Y-82230306D01*
X96118012Y-82199500D01*
X96118011Y-82199500D01*
X95881989Y-82199500D01*
X95881987Y-82199500D01*
X95647993Y-82230306D01*
X95647988Y-82230306D01*
X95420007Y-82291393D01*
X95201955Y-82381713D01*
X94997546Y-82499729D01*
X94810307Y-82643402D01*
X94643402Y-82810307D01*
X94499729Y-82997546D01*
X94381713Y-83201955D01*
X94291393Y-83420007D01*
X94230306Y-83647988D01*
X94230306Y-83647993D01*
X94199500Y-83881987D01*
X85800500Y-83881987D01*
X85769693Y-83647986D01*
X85708606Y-83420007D01*
X85618284Y-83201951D01*
X85500273Y-82997550D01*
X85492412Y-82987305D01*
X85356597Y-82810307D01*
X85356595Y-82810305D01*
X85356592Y-82810301D01*
X85189699Y-82643408D01*
X85189694Y-82643404D01*
X85189692Y-82643402D01*
X85002453Y-82499729D01*
X84930287Y-82458064D01*
X84798049Y-82381716D01*
X84798047Y-82381715D01*
X84798044Y-82381713D01*
X84579992Y-82291393D01*
X84424277Y-82249670D01*
X84352014Y-82230307D01*
X84352011Y-82230306D01*
X84352009Y-82230306D01*
X84118012Y-82199500D01*
X84118011Y-82199500D01*
X83881989Y-82199500D01*
X83881987Y-82199500D01*
X83647993Y-82230306D01*
X83647988Y-82230306D01*
X83420007Y-82291393D01*
X83201955Y-82381713D01*
X82997546Y-82499729D01*
X82810307Y-82643402D01*
X82643402Y-82810307D01*
X82499729Y-82997546D01*
X82381713Y-83201955D01*
X82291393Y-83420007D01*
X82230306Y-83647988D01*
X82230306Y-83647993D01*
X82199500Y-83881987D01*
X73800500Y-83881987D01*
X73769693Y-83647986D01*
X73708606Y-83420007D01*
X73618284Y-83201951D01*
X73500273Y-82997550D01*
X73492412Y-82987305D01*
X73356597Y-82810307D01*
X73356595Y-82810305D01*
X73356592Y-82810301D01*
X73189699Y-82643408D01*
X73189694Y-82643404D01*
X73189692Y-82643402D01*
X73002453Y-82499729D01*
X72930287Y-82458064D01*
X72798049Y-82381716D01*
X72798047Y-82381715D01*
X72798044Y-82381713D01*
X72579992Y-82291393D01*
X72424277Y-82249670D01*
X72352014Y-82230307D01*
X72352011Y-82230306D01*
X72352009Y-82230306D01*
X72118012Y-82199500D01*
X72118011Y-82199500D01*
X71881989Y-82199500D01*
X71881987Y-82199500D01*
X71647993Y-82230306D01*
X71647988Y-82230306D01*
X71420007Y-82291393D01*
X71201955Y-82381713D01*
X70997546Y-82499729D01*
X70810307Y-82643402D01*
X70643402Y-82810307D01*
X70499729Y-82997546D01*
X70381713Y-83201955D01*
X70291393Y-83420007D01*
X70230306Y-83647988D01*
X70230306Y-83647993D01*
X70199500Y-83881987D01*
X61800500Y-83881987D01*
X61769693Y-83647986D01*
X61708606Y-83420007D01*
X61618284Y-83201951D01*
X61500273Y-82997550D01*
X61492412Y-82987305D01*
X61356597Y-82810307D01*
X61356595Y-82810305D01*
X61356592Y-82810301D01*
X61189699Y-82643408D01*
X61189694Y-82643404D01*
X61189692Y-82643402D01*
X61002453Y-82499729D01*
X60930287Y-82458064D01*
X60798049Y-82381716D01*
X60798047Y-82381715D01*
X60798044Y-82381713D01*
X60579992Y-82291393D01*
X60424277Y-82249670D01*
X60352014Y-82230307D01*
X60352011Y-82230306D01*
X60352009Y-82230306D01*
X60118012Y-82199500D01*
X60118011Y-82199500D01*
X59881989Y-82199500D01*
X59881987Y-82199500D01*
X59647993Y-82230306D01*
X59647988Y-82230306D01*
X59420007Y-82291393D01*
X59201955Y-82381713D01*
X58997546Y-82499729D01*
X58810307Y-82643402D01*
X58643402Y-82810307D01*
X58499729Y-82997546D01*
X58381713Y-83201955D01*
X58291393Y-83420007D01*
X58230306Y-83647988D01*
X58230306Y-83647993D01*
X58199500Y-83881987D01*
X49800500Y-83881987D01*
X49769693Y-83647986D01*
X49708606Y-83420007D01*
X49618284Y-83201951D01*
X49500273Y-82997550D01*
X49492412Y-82987305D01*
X49356597Y-82810307D01*
X49356595Y-82810305D01*
X49356592Y-82810301D01*
X49189699Y-82643408D01*
X49189694Y-82643404D01*
X49189692Y-82643402D01*
X49002453Y-82499729D01*
X48930287Y-82458064D01*
X48798049Y-82381716D01*
X48798047Y-82381715D01*
X48798044Y-82381713D01*
X48579992Y-82291393D01*
X48424277Y-82249670D01*
X48352014Y-82230307D01*
X48352011Y-82230306D01*
X48352009Y-82230306D01*
X48118012Y-82199500D01*
X48118011Y-82199500D01*
X47881989Y-82199500D01*
X47881987Y-82199500D01*
X47647993Y-82230306D01*
X47647988Y-82230306D01*
X47420007Y-82291393D01*
X47201955Y-82381713D01*
X46997546Y-82499729D01*
X46810307Y-82643402D01*
X46643402Y-82810307D01*
X46499729Y-82997546D01*
X46381713Y-83201955D01*
X46291393Y-83420007D01*
X46230306Y-83647988D01*
X46230306Y-83647993D01*
X46199500Y-83881987D01*
X37800500Y-83881987D01*
X37769693Y-83647986D01*
X37708606Y-83420007D01*
X37618284Y-83201951D01*
X37500273Y-82997550D01*
X37492412Y-82987305D01*
X37356597Y-82810307D01*
X37356595Y-82810305D01*
X37356592Y-82810301D01*
X37189699Y-82643408D01*
X37189694Y-82643404D01*
X37189692Y-82643402D01*
X37002453Y-82499729D01*
X36930287Y-82458064D01*
X36798049Y-82381716D01*
X36798047Y-82381715D01*
X36798044Y-82381713D01*
X36579992Y-82291393D01*
X36424277Y-82249670D01*
X36352014Y-82230307D01*
X36352011Y-82230306D01*
X36352009Y-82230306D01*
X36118012Y-82199500D01*
X36118011Y-82199500D01*
X35881989Y-82199500D01*
X35881987Y-82199500D01*
X35647993Y-82230306D01*
X35647988Y-82230306D01*
X35420007Y-82291393D01*
X35201955Y-82381713D01*
X34997546Y-82499729D01*
X34810307Y-82643402D01*
X34643402Y-82810307D01*
X34499729Y-82997546D01*
X34381713Y-83201955D01*
X34291393Y-83420007D01*
X34230306Y-83647988D01*
X34230306Y-83647993D01*
X34199500Y-83881987D01*
X25800500Y-83881987D01*
X25769693Y-83647986D01*
X25708606Y-83420007D01*
X25618284Y-83201951D01*
X25500273Y-82997550D01*
X25492412Y-82987305D01*
X25356597Y-82810307D01*
X25356595Y-82810305D01*
X25356592Y-82810301D01*
X25189699Y-82643408D01*
X25189694Y-82643404D01*
X25189692Y-82643402D01*
X25002453Y-82499729D01*
X24930287Y-82458064D01*
X24798049Y-82381716D01*
X24798047Y-82381715D01*
X24798044Y-82381713D01*
X24579992Y-82291393D01*
X24424277Y-82249670D01*
X24352014Y-82230307D01*
X24352011Y-82230306D01*
X24352009Y-82230306D01*
X24118012Y-82199500D01*
X24118011Y-82199500D01*
X23881989Y-82199500D01*
X23881987Y-82199500D01*
X23647993Y-82230306D01*
X23647988Y-82230306D01*
X23420007Y-82291393D01*
X23201955Y-82381713D01*
X22997546Y-82499729D01*
X22810307Y-82643402D01*
X22643402Y-82810307D01*
X22499729Y-82997546D01*
X22381713Y-83201955D01*
X22291393Y-83420007D01*
X22230306Y-83647988D01*
X22230306Y-83647993D01*
X22199500Y-83881987D01*
X15850500Y-83881987D01*
X15850500Y-83878712D01*
X15818838Y-83638211D01*
X15756054Y-83403900D01*
X15663224Y-83179788D01*
X15541936Y-82969711D01*
X15541933Y-82969707D01*
X15394270Y-82777268D01*
X15394268Y-82777266D01*
X15394265Y-82777262D01*
X15222738Y-82605735D01*
X15222733Y-82605731D01*
X15222731Y-82605729D01*
X15030292Y-82458066D01*
X15030289Y-82458064D01*
X14820212Y-82336776D01*
X14820208Y-82336774D01*
X14820204Y-82336772D01*
X14596105Y-82243948D01*
X14596104Y-82243947D01*
X14596100Y-82243946D01*
X14361789Y-82181162D01*
X14361786Y-82181161D01*
X14361784Y-82181161D01*
X14121289Y-82149500D01*
X14121288Y-82149500D01*
X13878712Y-82149500D01*
X13878710Y-82149500D01*
X13638218Y-82181161D01*
X13638213Y-82181161D01*
X13403907Y-82243944D01*
X13403894Y-82243948D01*
X13179795Y-82336772D01*
X12969707Y-82458066D01*
X12777268Y-82605729D01*
X12605729Y-82777268D01*
X12458066Y-82969707D01*
X12336772Y-83179795D01*
X12243948Y-83403894D01*
X12243944Y-83403907D01*
X12181161Y-83638213D01*
X12181161Y-83638218D01*
X12149500Y-83878710D01*
X10500500Y-83878710D01*
X10500500Y-54205130D01*
X23174500Y-54205130D01*
X23174500Y-55794860D01*
X23174501Y-55794863D01*
X23177414Y-55819990D01*
X23197822Y-55866208D01*
X23222794Y-55922765D01*
X23302235Y-56002206D01*
X23405009Y-56047585D01*
X23430135Y-56050500D01*
X23509084Y-56050499D01*
X23567274Y-56069406D01*
X23603238Y-56118905D01*
X23604711Y-56123876D01*
X23626794Y-56206292D01*
X23679516Y-56297608D01*
X23679518Y-56297610D01*
X23679520Y-56297613D01*
X43386687Y-76004780D01*
X43386689Y-76004781D01*
X43386691Y-76004783D01*
X43478008Y-76057505D01*
X43478006Y-76057505D01*
X43478010Y-76057506D01*
X43478012Y-76057507D01*
X43579873Y-76084800D01*
X43685327Y-76084800D01*
X111477399Y-76084800D01*
X111535590Y-76103707D01*
X111547403Y-76113796D01*
X118420912Y-82987305D01*
X118448689Y-83041822D01*
X118439118Y-83102254D01*
X118436645Y-83106808D01*
X118381715Y-83201951D01*
X118291393Y-83420007D01*
X118230306Y-83647988D01*
X118230306Y-83647993D01*
X118199500Y-83881987D01*
X118199500Y-84118012D01*
X118230306Y-84352006D01*
X118230306Y-84352011D01*
X118291393Y-84579992D01*
X118381713Y-84798044D01*
X118499729Y-85002453D01*
X118643402Y-85189692D01*
X118643404Y-85189694D01*
X118643408Y-85189699D01*
X118810301Y-85356592D01*
X118810305Y-85356595D01*
X118810307Y-85356597D01*
X118859397Y-85394265D01*
X118997550Y-85500273D01*
X119201951Y-85618284D01*
X119201952Y-85618284D01*
X119201955Y-85618286D01*
X119420007Y-85708606D01*
X119647986Y-85769693D01*
X119881989Y-85800500D01*
X119881990Y-85800500D01*
X120118010Y-85800500D01*
X120118011Y-85800500D01*
X120352014Y-85769693D01*
X120579993Y-85708606D01*
X120798049Y-85618284D01*
X121002450Y-85500273D01*
X121189699Y-85356592D01*
X121356592Y-85189699D01*
X121500273Y-85002450D01*
X121618284Y-84798049D01*
X121708606Y-84579993D01*
X121769693Y-84352014D01*
X121800500Y-84118011D01*
X121800500Y-83881989D01*
X121800068Y-83878710D01*
X149149500Y-83878710D01*
X149149500Y-84121289D01*
X149181161Y-84361781D01*
X149181161Y-84361786D01*
X149243944Y-84596092D01*
X149243948Y-84596105D01*
X149336772Y-84820204D01*
X149336774Y-84820208D01*
X149336776Y-84820212D01*
X149441991Y-85002450D01*
X149458066Y-85030292D01*
X149605729Y-85222731D01*
X149605731Y-85222733D01*
X149605735Y-85222738D01*
X149777262Y-85394265D01*
X149777266Y-85394268D01*
X149777268Y-85394270D01*
X149969707Y-85541933D01*
X149969711Y-85541936D01*
X150179788Y-85663224D01*
X150403900Y-85756054D01*
X150638211Y-85818838D01*
X150878712Y-85850500D01*
X150878713Y-85850500D01*
X151121287Y-85850500D01*
X151121288Y-85850500D01*
X151361789Y-85818838D01*
X151596100Y-85756054D01*
X151820212Y-85663224D01*
X152030289Y-85541936D01*
X152222738Y-85394265D01*
X152394265Y-85222738D01*
X152541936Y-85030289D01*
X152663224Y-84820212D01*
X152756054Y-84596100D01*
X152818838Y-84361789D01*
X152850500Y-84121288D01*
X152850500Y-83878712D01*
X152818838Y-83638211D01*
X152756054Y-83403900D01*
X152663224Y-83179788D01*
X152541936Y-82969711D01*
X152541933Y-82969707D01*
X152394270Y-82777268D01*
X152394268Y-82777266D01*
X152394265Y-82777262D01*
X152222738Y-82605735D01*
X152222733Y-82605731D01*
X152222731Y-82605729D01*
X152030292Y-82458066D01*
X152030289Y-82458064D01*
X151820212Y-82336776D01*
X151820208Y-82336774D01*
X151820204Y-82336772D01*
X151596105Y-82243948D01*
X151596104Y-82243947D01*
X151596100Y-82243946D01*
X151361789Y-82181162D01*
X151361786Y-82181161D01*
X151361784Y-82181161D01*
X151121289Y-82149500D01*
X151121288Y-82149500D01*
X150878712Y-82149500D01*
X150878710Y-82149500D01*
X150638218Y-82181161D01*
X150638213Y-82181161D01*
X150403907Y-82243944D01*
X150403894Y-82243948D01*
X150179795Y-82336772D01*
X149969707Y-82458066D01*
X149777268Y-82605729D01*
X149605729Y-82777268D01*
X149458066Y-82969707D01*
X149336772Y-83179795D01*
X149243948Y-83403894D01*
X149243944Y-83403907D01*
X149181161Y-83638213D01*
X149181161Y-83638218D01*
X149149500Y-83878710D01*
X121800068Y-83878710D01*
X121769693Y-83647986D01*
X121708606Y-83420007D01*
X121618284Y-83201951D01*
X121500273Y-82997550D01*
X121492412Y-82987305D01*
X121356597Y-82810307D01*
X121356595Y-82810305D01*
X121356592Y-82810301D01*
X121189699Y-82643408D01*
X121189694Y-82643404D01*
X121189692Y-82643402D01*
X121002453Y-82499729D01*
X120930287Y-82458064D01*
X120798049Y-82381716D01*
X120798047Y-82381715D01*
X120798044Y-82381713D01*
X120579992Y-82291393D01*
X120424277Y-82249670D01*
X120352014Y-82230307D01*
X120352011Y-82230306D01*
X120352009Y-82230306D01*
X120118012Y-82199500D01*
X120118011Y-82199500D01*
X119881989Y-82199500D01*
X119881987Y-82199500D01*
X119647993Y-82230306D01*
X119647988Y-82230306D01*
X119420007Y-82291393D01*
X119201951Y-82381715D01*
X119106808Y-82436645D01*
X119046959Y-82449366D01*
X118991064Y-82424478D01*
X118987305Y-82420912D01*
X118715893Y-82149500D01*
X111930213Y-75363820D01*
X111930210Y-75363818D01*
X111930209Y-75363817D01*
X111930208Y-75363816D01*
X111838891Y-75311094D01*
X111838893Y-75311094D01*
X111799370Y-75300504D01*
X111737027Y-75283800D01*
X111737025Y-75283800D01*
X43839501Y-75283800D01*
X43781310Y-75264893D01*
X43769497Y-75254804D01*
X29020736Y-60506043D01*
X75973800Y-60506043D01*
X75973800Y-60664157D01*
X76014723Y-60816884D01*
X76093780Y-60953816D01*
X76205584Y-61065620D01*
X76342516Y-61144677D01*
X76495243Y-61185600D01*
X76495245Y-61185600D01*
X76653355Y-61185600D01*
X76653357Y-61185600D01*
X76806084Y-61144677D01*
X76943016Y-61065620D01*
X76968529Y-61040106D01*
X76994041Y-61014596D01*
X77048558Y-60986819D01*
X77064044Y-60985600D01*
X93226499Y-60985600D01*
X93284690Y-61004507D01*
X93296503Y-61014596D01*
X94527818Y-62245910D01*
X94527820Y-62245913D01*
X94602387Y-62320480D01*
X94648050Y-62346843D01*
X94693712Y-62373207D01*
X94776124Y-62395288D01*
X94827438Y-62428612D01*
X94849365Y-62485733D01*
X94849501Y-62490915D01*
X94849501Y-62894863D01*
X94852414Y-62919990D01*
X94877756Y-62977385D01*
X94897794Y-63022765D01*
X94977235Y-63102206D01*
X95080009Y-63147585D01*
X95105135Y-63150500D01*
X96894864Y-63150499D01*
X96919991Y-63147585D01*
X97022765Y-63102206D01*
X97102206Y-63022765D01*
X97147585Y-62919991D01*
X97150500Y-62894865D01*
X97150499Y-61909450D01*
X97389500Y-61909450D01*
X97389500Y-62090549D01*
X97417828Y-62269406D01*
X97473788Y-62441637D01*
X97498896Y-62490915D01*
X97556004Y-62602994D01*
X97662447Y-62749501D01*
X97790499Y-62877553D01*
X97937006Y-62983996D01*
X98098361Y-63066211D01*
X98270591Y-63122171D01*
X98342136Y-63133502D01*
X98449451Y-63150500D01*
X98449454Y-63150500D01*
X98630549Y-63150500D01*
X98719977Y-63136335D01*
X98809409Y-63122171D01*
X98981639Y-63066211D01*
X99142994Y-62983996D01*
X99289501Y-62877553D01*
X99417553Y-62749501D01*
X99523996Y-62602994D01*
X99606211Y-62441639D01*
X99662171Y-62269409D01*
X99676335Y-62179977D01*
X99690500Y-62090549D01*
X99690500Y-61909450D01*
X99662171Y-61730593D01*
X99662171Y-61730591D01*
X99606211Y-61558361D01*
X99523996Y-61397006D01*
X99417553Y-61250499D01*
X99289501Y-61122447D01*
X99142994Y-61016004D01*
X99142993Y-61016003D01*
X99142991Y-61016002D01*
X98981637Y-60933788D01*
X98809406Y-60877828D01*
X98630549Y-60849500D01*
X98630546Y-60849500D01*
X98449454Y-60849500D01*
X98449451Y-60849500D01*
X98270593Y-60877828D01*
X98098362Y-60933788D01*
X97937008Y-61016002D01*
X97902398Y-61041148D01*
X97790499Y-61122447D01*
X97662447Y-61250499D01*
X97609225Y-61323752D01*
X97556002Y-61397008D01*
X97473788Y-61558362D01*
X97417828Y-61730593D01*
X97389500Y-61909450D01*
X97150499Y-61909450D01*
X97150499Y-61105136D01*
X97147585Y-61080009D01*
X97102206Y-60977235D01*
X97022765Y-60897794D01*
X96919991Y-60852415D01*
X96919990Y-60852414D01*
X96919988Y-60852414D01*
X96894868Y-60849500D01*
X95105139Y-60849500D01*
X95105136Y-60849501D01*
X95080009Y-60852414D01*
X94977235Y-60897794D01*
X94897794Y-60977235D01*
X94852414Y-61080011D01*
X94849500Y-61105130D01*
X94849500Y-61195799D01*
X94830593Y-61253990D01*
X94781093Y-61289954D01*
X94719907Y-61289954D01*
X94680496Y-61265803D01*
X94183600Y-60768907D01*
X93679313Y-60264620D01*
X93679310Y-60264618D01*
X93679309Y-60264617D01*
X93679308Y-60264616D01*
X93587991Y-60211894D01*
X93587993Y-60211894D01*
X93548470Y-60201304D01*
X93486127Y-60184600D01*
X93486125Y-60184600D01*
X77064044Y-60184600D01*
X77005853Y-60165693D01*
X76994041Y-60155604D01*
X76943018Y-60104582D01*
X76943016Y-60104580D01*
X76806084Y-60025523D01*
X76653357Y-59984600D01*
X76495243Y-59984600D01*
X76342516Y-60025523D01*
X76205584Y-60104580D01*
X76093780Y-60216384D01*
X76014723Y-60353316D01*
X75973800Y-60506043D01*
X29020736Y-60506043D01*
X24674490Y-56159797D01*
X24646713Y-56105280D01*
X24656284Y-56044848D01*
X24691638Y-56009493D01*
X24690197Y-56007390D01*
X24697760Y-56002207D01*
X24697765Y-56002206D01*
X24777206Y-55922765D01*
X24822585Y-55819991D01*
X24825500Y-55794865D01*
X24825499Y-54693694D01*
X25714500Y-54693694D01*
X25714500Y-55306305D01*
X25746224Y-55465790D01*
X25808450Y-55616018D01*
X25808451Y-55616020D01*
X25808452Y-55616021D01*
X25898792Y-55751225D01*
X26013775Y-55866208D01*
X26148979Y-55956548D01*
X26299211Y-56018776D01*
X26458695Y-56050500D01*
X26458696Y-56050500D01*
X26621304Y-56050500D01*
X26621305Y-56050500D01*
X26780789Y-56018776D01*
X26931021Y-55956548D01*
X27066225Y-55866208D01*
X27181208Y-55751225D01*
X27271548Y-55616021D01*
X27333776Y-55465789D01*
X27365500Y-55306305D01*
X27365500Y-54693695D01*
X27333776Y-54534211D01*
X27271548Y-54383979D01*
X27181208Y-54248775D01*
X27066225Y-54133792D01*
X27061910Y-54130909D01*
X26931018Y-54043450D01*
X26780790Y-53981224D01*
X26621305Y-53949500D01*
X26458695Y-53949500D01*
X26458694Y-53949500D01*
X26299209Y-53981224D01*
X26148981Y-54043450D01*
X26013778Y-54133789D01*
X25898789Y-54248778D01*
X25808450Y-54383981D01*
X25746224Y-54534209D01*
X25714500Y-54693694D01*
X24825499Y-54693694D01*
X24825499Y-54205136D01*
X24822585Y-54180009D01*
X24777206Y-54077235D01*
X24697765Y-53997794D01*
X24594991Y-53952415D01*
X24594990Y-53952414D01*
X24594988Y-53952414D01*
X24569868Y-53949500D01*
X23430139Y-53949500D01*
X23430136Y-53949501D01*
X23405009Y-53952414D01*
X23302235Y-53997794D01*
X23222794Y-54077235D01*
X23177414Y-54180011D01*
X23174500Y-54205130D01*
X10500500Y-54205130D01*
X10500500Y-39006898D01*
X14499500Y-39006898D01*
X14499500Y-40993096D01*
X14499501Y-40993097D01*
X14499501Y-40993098D01*
X14510124Y-41081564D01*
X14565639Y-41222342D01*
X14657078Y-41342922D01*
X14777658Y-41434361D01*
X14918436Y-41489876D01*
X15006901Y-41500500D01*
X16993098Y-41500499D01*
X17081564Y-41489876D01*
X17222342Y-41434361D01*
X17342922Y-41342922D01*
X17434361Y-41222342D01*
X17489876Y-41081564D01*
X17500500Y-40993099D01*
X17500499Y-39881904D01*
X17999500Y-39881904D01*
X17999500Y-40118095D01*
X18036445Y-40351363D01*
X18109432Y-40575992D01*
X18213331Y-40779907D01*
X18216657Y-40786433D01*
X18355483Y-40977510D01*
X18522490Y-41144517D01*
X18713567Y-41283343D01*
X18924008Y-41390568D01*
X19148632Y-41463553D01*
X19148633Y-41463553D01*
X19148636Y-41463554D01*
X19381905Y-41500500D01*
X19381908Y-41500500D01*
X19618095Y-41500500D01*
X19851363Y-41463554D01*
X19851364Y-41463553D01*
X19851368Y-41463553D01*
X20075992Y-41390568D01*
X20286433Y-41283343D01*
X20477510Y-41144517D01*
X20644517Y-40977510D01*
X20783343Y-40786433D01*
X20890568Y-40575992D01*
X20963553Y-40351368D01*
X20964042Y-40348281D01*
X21000500Y-40118095D01*
X21000500Y-39881904D01*
X24999500Y-39881904D01*
X24999500Y-40118095D01*
X25036445Y-40351363D01*
X25109432Y-40575992D01*
X25213331Y-40779907D01*
X25216657Y-40786433D01*
X25355483Y-40977510D01*
X25522490Y-41144517D01*
X25713567Y-41283343D01*
X25924008Y-41390568D01*
X26148632Y-41463553D01*
X26148633Y-41463553D01*
X26148636Y-41463554D01*
X26381905Y-41500500D01*
X26381908Y-41500500D01*
X26618095Y-41500500D01*
X26851363Y-41463554D01*
X26851364Y-41463553D01*
X26851368Y-41463553D01*
X27075992Y-41390568D01*
X27176317Y-41339449D01*
X27236746Y-41329879D01*
X27291262Y-41357656D01*
X27291263Y-41357656D01*
X43692618Y-57759010D01*
X43692620Y-57759013D01*
X43767187Y-57833580D01*
X43797741Y-57851220D01*
X43836482Y-57873588D01*
X43836485Y-57873589D01*
X43858513Y-57886307D01*
X43960370Y-57913600D01*
X43960372Y-57913601D01*
X43960373Y-57913601D01*
X44071890Y-57913601D01*
X44071906Y-57913600D01*
X112956736Y-57913600D01*
X113014927Y-57932507D01*
X113050891Y-57982007D01*
X113050891Y-58043193D01*
X113026740Y-58082604D01*
X112955889Y-58153454D01*
X112955885Y-58153458D01*
X112879228Y-58268182D01*
X112879222Y-58268193D01*
X112826420Y-58395670D01*
X112826420Y-58395672D01*
X112799500Y-58531004D01*
X112799500Y-58668995D01*
X112826420Y-58804327D01*
X112826420Y-58804329D01*
X112879222Y-58931806D01*
X112879228Y-58931817D01*
X112955885Y-59046541D01*
X113053458Y-59144114D01*
X113168182Y-59220771D01*
X113168193Y-59220777D01*
X113193099Y-59231093D01*
X113295672Y-59273580D01*
X113431007Y-59300500D01*
X113431008Y-59300500D01*
X113568988Y-59300500D01*
X113568993Y-59300500D01*
X113571393Y-59300022D01*
X113572503Y-59300153D01*
X113573829Y-59300023D01*
X113573857Y-59300313D01*
X113632152Y-59307205D01*
X113660721Y-59327113D01*
X114179518Y-59845910D01*
X114179520Y-59845913D01*
X114254087Y-59920480D01*
X114254089Y-59920481D01*
X114254090Y-59920482D01*
X114255363Y-59921459D01*
X114256013Y-59922405D01*
X114258676Y-59925068D01*
X114258182Y-59925561D01*
X114290018Y-59971885D01*
X114288415Y-60033049D01*
X114258275Y-60074532D01*
X114258675Y-60074932D01*
X114256152Y-60077454D01*
X114255363Y-60078541D01*
X114254086Y-60079520D01*
X114179519Y-60154086D01*
X114179520Y-60154087D01*
X114179518Y-60154089D01*
X113660721Y-60672885D01*
X113606204Y-60700662D01*
X113571406Y-60699979D01*
X113569003Y-60699501D01*
X113568993Y-60699500D01*
X113431007Y-60699500D01*
X113431004Y-60699500D01*
X113295672Y-60726420D01*
X113295670Y-60726420D01*
X113168193Y-60779222D01*
X113168182Y-60779228D01*
X113053458Y-60855885D01*
X112955885Y-60953458D01*
X112879228Y-61068182D01*
X112879222Y-61068193D01*
X112826420Y-61195670D01*
X112826420Y-61195672D01*
X112799500Y-61331004D01*
X112799500Y-61468995D01*
X112826420Y-61604327D01*
X112826420Y-61604329D01*
X112879222Y-61731806D01*
X112879228Y-61731817D01*
X112955885Y-61846541D01*
X113053458Y-61944114D01*
X113168182Y-62020771D01*
X113168193Y-62020777D01*
X113215283Y-62040282D01*
X113295672Y-62073580D01*
X113431007Y-62100500D01*
X113431008Y-62100500D01*
X113568992Y-62100500D01*
X113568993Y-62100500D01*
X113704328Y-62073580D01*
X113831811Y-62020775D01*
X113946542Y-61944114D01*
X114044114Y-61846542D01*
X114120775Y-61731811D01*
X114173580Y-61604328D01*
X114200500Y-61468993D01*
X114200500Y-61331007D01*
X114200020Y-61328595D01*
X114200152Y-61327481D01*
X114200023Y-61326171D01*
X114200310Y-61326142D01*
X114207209Y-61267838D01*
X114227111Y-61239279D01*
X114636896Y-60829496D01*
X114691412Y-60801719D01*
X114706899Y-60800500D01*
X114852488Y-60800500D01*
X114892473Y-60808934D01*
X114980009Y-60847585D01*
X115005135Y-60850500D01*
X115594864Y-60850499D01*
X115619991Y-60847585D01*
X115722765Y-60802206D01*
X115734371Y-60790599D01*
X115745977Y-60778995D01*
X115800494Y-60751219D01*
X115815979Y-60750000D01*
X116184021Y-60750000D01*
X116242212Y-60768907D01*
X116254023Y-60778995D01*
X116266409Y-60791380D01*
X116277235Y-60802206D01*
X116380009Y-60847585D01*
X116405135Y-60850500D01*
X116994864Y-60850499D01*
X117019991Y-60847585D01*
X117107526Y-60808934D01*
X117147512Y-60800500D01*
X117293099Y-60800500D01*
X117351290Y-60819407D01*
X117363103Y-60829496D01*
X118179518Y-61645910D01*
X118179520Y-61645913D01*
X118254087Y-61720480D01*
X118254089Y-61720481D01*
X118254091Y-61720483D01*
X118332544Y-61765777D01*
X118345412Y-61773207D01*
X118345416Y-61773208D01*
X118366940Y-61778975D01*
X118366942Y-61778975D01*
X118447273Y-61800501D01*
X118552725Y-61800501D01*
X118552727Y-61800501D01*
X118654588Y-61773207D01*
X118728397Y-61730593D01*
X118745908Y-61720483D01*
X118745908Y-61720482D01*
X118745913Y-61720480D01*
X118820480Y-61645913D01*
X119261897Y-61204496D01*
X119316414Y-61176719D01*
X119331901Y-61175500D01*
X120186944Y-61175500D01*
X120245135Y-61194407D01*
X120279041Y-61238181D01*
X120287634Y-61259971D01*
X120287636Y-61259975D01*
X120374922Y-61375078D01*
X120490025Y-61462364D01*
X120490026Y-61462364D01*
X120490027Y-61462365D01*
X120506840Y-61468995D01*
X120624410Y-61515359D01*
X120708856Y-61525500D01*
X120708858Y-61525500D01*
X121291142Y-61525500D01*
X121291144Y-61525500D01*
X121375590Y-61515359D01*
X121509975Y-61462364D01*
X121625078Y-61375078D01*
X121712364Y-61259975D01*
X121765359Y-61125590D01*
X121775500Y-61041144D01*
X121775500Y-60606898D01*
X121794407Y-60548707D01*
X121804490Y-60536901D01*
X122074610Y-60266781D01*
X122074613Y-60266780D01*
X122149180Y-60192213D01*
X122199775Y-60104580D01*
X122201907Y-60100888D01*
X122229200Y-59999027D01*
X122229200Y-59893573D01*
X122229200Y-57464914D01*
X122229201Y-57464901D01*
X122229201Y-57351475D01*
X122229201Y-57351473D01*
X122201907Y-57249612D01*
X122169002Y-57192620D01*
X122169002Y-57192619D01*
X122149181Y-57158289D01*
X122149180Y-57158287D01*
X122074613Y-57083720D01*
X122074610Y-57083718D01*
X119568022Y-54577129D01*
X127224500Y-54577129D01*
X127224500Y-55072866D01*
X127224501Y-55072870D01*
X127230908Y-55132480D01*
X127230909Y-55132485D01*
X127281202Y-55267329D01*
X127310378Y-55306303D01*
X127367454Y-55382546D01*
X127367457Y-55382548D01*
X127367458Y-55382549D01*
X127482670Y-55468797D01*
X127617511Y-55519089D01*
X127617512Y-55519089D01*
X127617517Y-55519091D01*
X127677127Y-55525500D01*
X128322872Y-55525499D01*
X128382483Y-55519091D01*
X128449907Y-55493943D01*
X128517329Y-55468797D01*
X128517329Y-55468796D01*
X128517331Y-55468796D01*
X128632546Y-55382546D01*
X128718796Y-55267331D01*
X128769091Y-55132483D01*
X128775500Y-55072873D01*
X128775499Y-54769768D01*
X128794406Y-54711579D01*
X128843906Y-54675615D01*
X128848854Y-54674148D01*
X128976384Y-54639977D01*
X129113316Y-54560920D01*
X129225120Y-54449116D01*
X129304177Y-54312184D01*
X129345100Y-54159457D01*
X129345100Y-54001343D01*
X129304177Y-53848616D01*
X129225120Y-53711684D01*
X129113316Y-53599880D01*
X128976384Y-53520823D01*
X128823657Y-53479900D01*
X128665543Y-53479900D01*
X128512816Y-53520823D01*
X128375884Y-53599880D01*
X128264080Y-53711684D01*
X128185023Y-53848616D01*
X128157211Y-53952414D01*
X128144100Y-54001344D01*
X128144100Y-54025500D01*
X128125193Y-54083691D01*
X128075693Y-54119655D01*
X128045100Y-54124500D01*
X127677133Y-54124500D01*
X127677129Y-54124500D01*
X127677128Y-54124501D01*
X127669949Y-54125272D01*
X127617519Y-54130908D01*
X127617514Y-54130909D01*
X127482670Y-54181202D01*
X127367458Y-54267450D01*
X127367450Y-54267458D01*
X127281202Y-54382670D01*
X127230910Y-54517511D01*
X127230908Y-54517522D01*
X127224500Y-54577129D01*
X119568022Y-54577129D01*
X117495413Y-52504520D01*
X117495410Y-52504518D01*
X117495408Y-52504516D01*
X117404091Y-52451794D01*
X117404093Y-52451794D01*
X117364570Y-52441204D01*
X117302227Y-52424500D01*
X117302225Y-52424500D01*
X113799666Y-52424500D01*
X113741475Y-52405593D01*
X113720413Y-52384829D01*
X113632549Y-52267458D01*
X113632548Y-52267457D01*
X113632546Y-52267454D01*
X113632541Y-52267450D01*
X113517329Y-52181202D01*
X113382488Y-52130910D01*
X113382483Y-52130909D01*
X113382481Y-52130908D01*
X113382477Y-52130908D01*
X113351249Y-52127550D01*
X113322873Y-52124500D01*
X113322870Y-52124500D01*
X112855898Y-52124500D01*
X112797707Y-52105593D01*
X112761743Y-52056093D01*
X112761743Y-51994907D01*
X112785895Y-51955496D01*
X112836897Y-51904495D01*
X112891414Y-51876718D01*
X112906900Y-51875499D01*
X113322867Y-51875499D01*
X113322872Y-51875499D01*
X113382483Y-51869091D01*
X113449907Y-51843943D01*
X113517329Y-51818797D01*
X113517329Y-51818796D01*
X113517331Y-51818796D01*
X113632546Y-51732546D01*
X113718796Y-51617331D01*
X113769091Y-51482483D01*
X113775500Y-51422873D01*
X113775499Y-50927128D01*
X113769091Y-50867517D01*
X113769089Y-50867511D01*
X113718797Y-50732670D01*
X113632549Y-50617458D01*
X113632548Y-50617457D01*
X113632546Y-50617454D01*
X113632541Y-50617450D01*
X113517336Y-50531207D01*
X113517335Y-50531206D01*
X113517332Y-50531205D01*
X113517331Y-50531204D01*
X113464901Y-50511648D01*
X113416988Y-50473597D01*
X113400500Y-50418891D01*
X113400500Y-43836374D01*
X113400500Y-43836373D01*
X113373207Y-43734513D01*
X113373207Y-43734512D01*
X113373207Y-43734511D01*
X113320483Y-43643191D01*
X113320481Y-43643189D01*
X113320480Y-43643187D01*
X113307494Y-43630201D01*
X113279719Y-43575687D01*
X113289290Y-43515255D01*
X113307493Y-43490199D01*
X115284433Y-41513258D01*
X115338948Y-41485483D01*
X115399380Y-41495054D01*
X115410633Y-41502007D01*
X115412115Y-41502791D01*
X115412118Y-41502793D01*
X115490462Y-41530206D01*
X115539141Y-41567271D01*
X115556738Y-41625871D01*
X115553390Y-41649272D01*
X115540145Y-41698704D01*
X115537000Y-41710443D01*
X115537000Y-41868557D01*
X115577923Y-42021284D01*
X115656980Y-42158216D01*
X115768784Y-42270020D01*
X115905716Y-42349077D01*
X116058443Y-42390000D01*
X116058445Y-42390000D01*
X116216555Y-42390000D01*
X116216557Y-42390000D01*
X116369284Y-42349077D01*
X116506216Y-42270020D01*
X116618020Y-42158216D01*
X116697077Y-42021284D01*
X116738000Y-41868557D01*
X116738000Y-41710443D01*
X116721609Y-41649271D01*
X116724812Y-41588172D01*
X116763317Y-41540622D01*
X116784529Y-41530209D01*
X116862882Y-41502793D01*
X116865991Y-41500499D01*
X116908945Y-41468797D01*
X116972150Y-41422150D01*
X117052793Y-41312882D01*
X117097646Y-41184699D01*
X117100499Y-41154273D01*
X117100500Y-41154273D01*
X117100500Y-40745727D01*
X117100499Y-40745725D01*
X117099223Y-40732116D01*
X117097646Y-40715301D01*
X117052793Y-40587118D01*
X117045419Y-40577127D01*
X117013434Y-40533788D01*
X116994092Y-40475741D01*
X117012563Y-40417410D01*
X117013434Y-40416212D01*
X117032737Y-40390057D01*
X117052793Y-40362882D01*
X117097646Y-40234699D01*
X117100499Y-40204273D01*
X117100500Y-40204273D01*
X117100500Y-39795727D01*
X117100499Y-39795725D01*
X117097646Y-39765305D01*
X117097646Y-39765301D01*
X117052793Y-39637118D01*
X117040701Y-39620734D01*
X116972154Y-39527855D01*
X116972152Y-39527853D01*
X116972150Y-39527850D01*
X116972146Y-39527847D01*
X116972144Y-39527845D01*
X116862883Y-39447207D01*
X116734703Y-39402355D01*
X116734694Y-39402353D01*
X116704274Y-39399500D01*
X116704266Y-39399500D01*
X115570734Y-39399500D01*
X115570725Y-39399500D01*
X115540305Y-39402353D01*
X115540296Y-39402355D01*
X115412116Y-39447207D01*
X115302855Y-39527845D01*
X115302845Y-39527855D01*
X115222207Y-39637116D01*
X115177355Y-39765296D01*
X115177353Y-39765305D01*
X115174500Y-39795725D01*
X115174500Y-39849700D01*
X115155593Y-39907891D01*
X115106093Y-39943855D01*
X115075500Y-39948700D01*
X114983673Y-39948700D01*
X114881813Y-39975993D01*
X114881812Y-39975993D01*
X114881810Y-39975994D01*
X114881809Y-39975994D01*
X114790489Y-40028718D01*
X114715918Y-40103289D01*
X114663194Y-40194609D01*
X114663193Y-40194611D01*
X114634721Y-40300872D01*
X114601396Y-40352187D01*
X114544275Y-40374113D01*
X114506397Y-40368694D01*
X114485871Y-40361512D01*
X114459699Y-40352354D01*
X114459697Y-40352353D01*
X114459694Y-40352353D01*
X114429274Y-40349500D01*
X114429266Y-40349500D01*
X113295734Y-40349500D01*
X113295725Y-40349500D01*
X113265305Y-40352353D01*
X113265296Y-40352355D01*
X113137116Y-40397207D01*
X113027855Y-40477845D01*
X113027845Y-40477855D01*
X112947207Y-40587116D01*
X112902355Y-40715296D01*
X112902353Y-40715305D01*
X112899500Y-40745725D01*
X112899500Y-41154274D01*
X112902353Y-41184694D01*
X112902355Y-41184703D01*
X112947207Y-41312883D01*
X113016477Y-41406740D01*
X113035819Y-41464787D01*
X113022560Y-41515025D01*
X113005823Y-41544016D01*
X112964900Y-41696743D01*
X112964900Y-41854857D01*
X113005823Y-42007584D01*
X113084880Y-42144516D01*
X113196684Y-42256320D01*
X113219288Y-42269370D01*
X113260230Y-42314838D01*
X113266627Y-42375688D01*
X113239794Y-42425111D01*
X112741103Y-42923802D01*
X112686586Y-42951579D01*
X112626154Y-42942008D01*
X112601095Y-42923802D01*
X110861987Y-41184694D01*
X109098113Y-39420820D01*
X109098110Y-39420818D01*
X109098109Y-39420817D01*
X109098108Y-39420816D01*
X109006791Y-39368094D01*
X109006793Y-39368094D01*
X108967270Y-39357504D01*
X108904927Y-39340800D01*
X108904925Y-39340800D01*
X89863399Y-39340800D01*
X89805208Y-39321893D01*
X89804611Y-39321455D01*
X89734425Y-39269655D01*
X89698832Y-39219887D01*
X89699290Y-39158704D01*
X89734425Y-39110345D01*
X89801630Y-39060744D01*
X89847150Y-39027150D01*
X89909096Y-38943216D01*
X89927791Y-38917885D01*
X89927792Y-38917883D01*
X89927793Y-38917882D01*
X89953042Y-38845725D01*
X112899500Y-38845725D01*
X112899500Y-39254274D01*
X112902353Y-39284694D01*
X112902355Y-39284703D01*
X112947207Y-39412883D01*
X113027845Y-39522144D01*
X113027847Y-39522146D01*
X113027850Y-39522150D01*
X113027853Y-39522152D01*
X113027855Y-39522154D01*
X113137116Y-39602792D01*
X113137117Y-39602792D01*
X113137118Y-39602793D01*
X113265301Y-39647646D01*
X113295725Y-39650499D01*
X113295727Y-39650500D01*
X113295734Y-39650500D01*
X114429273Y-39650500D01*
X114429273Y-39650499D01*
X114459699Y-39647646D01*
X114587882Y-39602793D01*
X114697150Y-39522150D01*
X114777793Y-39412882D01*
X114822646Y-39284699D01*
X114825499Y-39254273D01*
X114825500Y-39254273D01*
X114825500Y-38885100D01*
X114844407Y-38826909D01*
X114893907Y-38790945D01*
X114924500Y-38786100D01*
X117262599Y-38786100D01*
X117320790Y-38805007D01*
X117332603Y-38815096D01*
X119787987Y-41270480D01*
X119787989Y-41270481D01*
X119787990Y-41270482D01*
X119787991Y-41270483D01*
X119879308Y-41323205D01*
X119879306Y-41323205D01*
X119879310Y-41323206D01*
X119879312Y-41323207D01*
X119981173Y-41350500D01*
X129656599Y-41350500D01*
X129714790Y-41369407D01*
X129750754Y-41418907D01*
X129750754Y-41480093D01*
X129726603Y-41519504D01*
X128468303Y-42777804D01*
X128413786Y-42805581D01*
X128398299Y-42806800D01*
X121513544Y-42806800D01*
X121455353Y-42787893D01*
X121443541Y-42777804D01*
X121392518Y-42726782D01*
X121392516Y-42726780D01*
X121255584Y-42647723D01*
X121102857Y-42606800D01*
X120944743Y-42606800D01*
X120792016Y-42647723D01*
X120655084Y-42726780D01*
X120543280Y-42838584D01*
X120464223Y-42975516D01*
X120423300Y-43128243D01*
X120423300Y-43286357D01*
X120464223Y-43439084D01*
X120543280Y-43576016D01*
X120655084Y-43687820D01*
X120792016Y-43766877D01*
X120944743Y-43807800D01*
X120944745Y-43807800D01*
X121102855Y-43807800D01*
X121102857Y-43807800D01*
X121255584Y-43766877D01*
X121392516Y-43687820D01*
X121418029Y-43662306D01*
X121443541Y-43636796D01*
X121498058Y-43609019D01*
X121513544Y-43607800D01*
X128657925Y-43607800D01*
X128657927Y-43607800D01*
X128759788Y-43580507D01*
X128759790Y-43580505D01*
X128759792Y-43580505D01*
X128851108Y-43527783D01*
X128851108Y-43527782D01*
X128851113Y-43527780D01*
X130799397Y-41579496D01*
X130853914Y-41551719D01*
X130869401Y-41550500D01*
X131429273Y-41550500D01*
X131429273Y-41550499D01*
X131459699Y-41547646D01*
X131587882Y-41502793D01*
X131697150Y-41422150D01*
X131777793Y-41312882D01*
X131822646Y-41184699D01*
X131825499Y-41154273D01*
X131825500Y-41154273D01*
X131825500Y-40745727D01*
X131825499Y-40745725D01*
X131824223Y-40732116D01*
X131822646Y-40715301D01*
X131777793Y-40587118D01*
X131770420Y-40577128D01*
X131697154Y-40477855D01*
X131697152Y-40477853D01*
X131697150Y-40477850D01*
X131697146Y-40477847D01*
X131697144Y-40477845D01*
X131587883Y-40397207D01*
X131459703Y-40352355D01*
X131459694Y-40352353D01*
X131429274Y-40349500D01*
X131429266Y-40349500D01*
X130295734Y-40349500D01*
X130295725Y-40349500D01*
X130265305Y-40352353D01*
X130265296Y-40352355D01*
X130137116Y-40397207D01*
X130027850Y-40477849D01*
X130004648Y-40509288D01*
X129954880Y-40544881D01*
X129924992Y-40549500D01*
X120240801Y-40549500D01*
X120182610Y-40530593D01*
X120170797Y-40520504D01*
X118971748Y-39321455D01*
X117715413Y-38065120D01*
X117715410Y-38065118D01*
X117715409Y-38065117D01*
X117715408Y-38065116D01*
X117624091Y-38012394D01*
X117624093Y-38012394D01*
X117576548Y-37999655D01*
X117522227Y-37985100D01*
X114474173Y-37985100D01*
X114372313Y-38012393D01*
X114372312Y-38012393D01*
X114372310Y-38012394D01*
X114372309Y-38012394D01*
X114280987Y-38065119D01*
X113925602Y-38420504D01*
X113871086Y-38448281D01*
X113855599Y-38449500D01*
X113295725Y-38449500D01*
X113265305Y-38452353D01*
X113265296Y-38452355D01*
X113137116Y-38497207D01*
X113027855Y-38577845D01*
X113027845Y-38577855D01*
X112947207Y-38687116D01*
X112902355Y-38815296D01*
X112902353Y-38815305D01*
X112899500Y-38845725D01*
X89953042Y-38845725D01*
X89972646Y-38789699D01*
X89975499Y-38759273D01*
X89975500Y-38759273D01*
X89975500Y-38350727D01*
X89975499Y-38350716D01*
X89972646Y-38320305D01*
X89972646Y-38320301D01*
X89927793Y-38192118D01*
X89849465Y-38085987D01*
X89847154Y-38082855D01*
X89847152Y-38082853D01*
X89847150Y-38082850D01*
X89847146Y-38082847D01*
X89847144Y-38082845D01*
X89737883Y-38002207D01*
X89609703Y-37957355D01*
X89609694Y-37957353D01*
X89579274Y-37954500D01*
X89579266Y-37954500D01*
X87720734Y-37954500D01*
X87720725Y-37954500D01*
X87690305Y-37957353D01*
X87690296Y-37957355D01*
X87562116Y-38002207D01*
X87452855Y-38082845D01*
X87452845Y-38082855D01*
X87372207Y-38192116D01*
X87327355Y-38320296D01*
X87327353Y-38320305D01*
X87324501Y-38350716D01*
X87324500Y-38350727D01*
X87324500Y-38759274D01*
X87327353Y-38789694D01*
X87327355Y-38789703D01*
X87372207Y-38917883D01*
X87452845Y-39027144D01*
X87452847Y-39027146D01*
X87452850Y-39027150D01*
X87452853Y-39027152D01*
X87452855Y-39027154D01*
X87565574Y-39110345D01*
X87601167Y-39160113D01*
X87600709Y-39221296D01*
X87565574Y-39269655D01*
X87452855Y-39352845D01*
X87452845Y-39352855D01*
X87372207Y-39462116D01*
X87327355Y-39590296D01*
X87327353Y-39590305D01*
X87324500Y-39620725D01*
X87324500Y-39811500D01*
X87305593Y-39869691D01*
X87256093Y-39905655D01*
X87225500Y-39910500D01*
X85953944Y-39910500D01*
X85895753Y-39891593D01*
X85883941Y-39881504D01*
X85832918Y-39830482D01*
X85832916Y-39830480D01*
X85695984Y-39751423D01*
X85543257Y-39710500D01*
X85385143Y-39710500D01*
X85232416Y-39751423D01*
X85095484Y-39830480D01*
X84983680Y-39942284D01*
X84904623Y-40079216D01*
X84863700Y-40231943D01*
X84863700Y-40390057D01*
X84904623Y-40542784D01*
X84983680Y-40679716D01*
X85095484Y-40791520D01*
X85232416Y-40870577D01*
X85385143Y-40911500D01*
X85385145Y-40911500D01*
X85543255Y-40911500D01*
X85543257Y-40911500D01*
X85695984Y-40870577D01*
X85832916Y-40791520D01*
X85858429Y-40766006D01*
X85883941Y-40740496D01*
X85938458Y-40712719D01*
X85953944Y-40711500D01*
X87239894Y-40711500D01*
X87298085Y-40730407D01*
X87334049Y-40779907D01*
X87334049Y-40841093D01*
X87333339Y-40843197D01*
X87327354Y-40860301D01*
X87327353Y-40860305D01*
X87324500Y-40890725D01*
X87324500Y-41299274D01*
X87327353Y-41329694D01*
X87327355Y-41329703D01*
X87372207Y-41457883D01*
X87452845Y-41567144D01*
X87452847Y-41567146D01*
X87452850Y-41567150D01*
X87452853Y-41567152D01*
X87452855Y-41567154D01*
X87565574Y-41650345D01*
X87601167Y-41700113D01*
X87600709Y-41761296D01*
X87565574Y-41809655D01*
X87452855Y-41892845D01*
X87452845Y-41892855D01*
X87372207Y-42002116D01*
X87327355Y-42130296D01*
X87327353Y-42130305D01*
X87324500Y-42160725D01*
X87324500Y-42569274D01*
X87327353Y-42599694D01*
X87327355Y-42599703D01*
X87372207Y-42727883D01*
X87452845Y-42837144D01*
X87452847Y-42837146D01*
X87452850Y-42837150D01*
X87452853Y-42837152D01*
X87452855Y-42837154D01*
X87565574Y-42920345D01*
X87601167Y-42970113D01*
X87600709Y-43031296D01*
X87565574Y-43079655D01*
X87452855Y-43162845D01*
X87452845Y-43162855D01*
X87372207Y-43272116D01*
X87327355Y-43400296D01*
X87327353Y-43400305D01*
X87324500Y-43430725D01*
X87324500Y-43839274D01*
X87327353Y-43869694D01*
X87327355Y-43869703D01*
X87372207Y-43997883D01*
X87452845Y-44107144D01*
X87452847Y-44107146D01*
X87452850Y-44107150D01*
X87452853Y-44107152D01*
X87452855Y-44107154D01*
X87565574Y-44190345D01*
X87601167Y-44240113D01*
X87600709Y-44301296D01*
X87565574Y-44349655D01*
X87452855Y-44432845D01*
X87452845Y-44432855D01*
X87372207Y-44542116D01*
X87327355Y-44670296D01*
X87327353Y-44670305D01*
X87324500Y-44700725D01*
X87324500Y-45109274D01*
X87327353Y-45139694D01*
X87327355Y-45139703D01*
X87372207Y-45267883D01*
X87452845Y-45377144D01*
X87452847Y-45377146D01*
X87452850Y-45377150D01*
X87452853Y-45377152D01*
X87452855Y-45377154D01*
X87565574Y-45460345D01*
X87601167Y-45510113D01*
X87600709Y-45571296D01*
X87565574Y-45619655D01*
X87452855Y-45702845D01*
X87452845Y-45702855D01*
X87372207Y-45812116D01*
X87327355Y-45940296D01*
X87327353Y-45940305D01*
X87324500Y-45970725D01*
X87324500Y-46379274D01*
X87327353Y-46409694D01*
X87327355Y-46409703D01*
X87372207Y-46537883D01*
X87452845Y-46647144D01*
X87452847Y-46647146D01*
X87452850Y-46647150D01*
X87452853Y-46647152D01*
X87452855Y-46647154D01*
X87565574Y-46730345D01*
X87601167Y-46780113D01*
X87600709Y-46841296D01*
X87565574Y-46889655D01*
X87452855Y-46972845D01*
X87452845Y-46972855D01*
X87372207Y-47082116D01*
X87327355Y-47210296D01*
X87327353Y-47210305D01*
X87324500Y-47240725D01*
X87324500Y-47649274D01*
X87327353Y-47679694D01*
X87327355Y-47679703D01*
X87372207Y-47807883D01*
X87452845Y-47917144D01*
X87452847Y-47917146D01*
X87452850Y-47917150D01*
X87452853Y-47917152D01*
X87452855Y-47917154D01*
X87565574Y-48000345D01*
X87601167Y-48050113D01*
X87600709Y-48111296D01*
X87565574Y-48159655D01*
X87452855Y-48242845D01*
X87452845Y-48242855D01*
X87372207Y-48352116D01*
X87327355Y-48480296D01*
X87327353Y-48480305D01*
X87324500Y-48510725D01*
X87324500Y-48919274D01*
X87327353Y-48949694D01*
X87327355Y-48949703D01*
X87372207Y-49077883D01*
X87452845Y-49187144D01*
X87452847Y-49187146D01*
X87452850Y-49187150D01*
X87452853Y-49187152D01*
X87452855Y-49187154D01*
X87562116Y-49267792D01*
X87562117Y-49267792D01*
X87562118Y-49267793D01*
X87690301Y-49312646D01*
X87720725Y-49315499D01*
X87720727Y-49315500D01*
X87720734Y-49315500D01*
X89579273Y-49315500D01*
X89579273Y-49315499D01*
X89609699Y-49312646D01*
X89737882Y-49267793D01*
X89847150Y-49187150D01*
X89927793Y-49077882D01*
X89972646Y-48949699D01*
X89975499Y-48919273D01*
X89975500Y-48919273D01*
X89975500Y-48510727D01*
X89975499Y-48510725D01*
X89972646Y-48480305D01*
X89972646Y-48480301D01*
X89927793Y-48352118D01*
X89865311Y-48267458D01*
X89847154Y-48242855D01*
X89847152Y-48242853D01*
X89847150Y-48242850D01*
X89847146Y-48242847D01*
X89847144Y-48242845D01*
X89734425Y-48159655D01*
X89698832Y-48109888D01*
X89699290Y-48048704D01*
X89734425Y-48000345D01*
X89801630Y-47950744D01*
X89847150Y-47917150D01*
X89927793Y-47807882D01*
X89972646Y-47679699D01*
X89975499Y-47649273D01*
X89975500Y-47649273D01*
X89975500Y-47240727D01*
X89975499Y-47240725D01*
X89972646Y-47210305D01*
X89972646Y-47210301D01*
X89927793Y-47082118D01*
X89847150Y-46972850D01*
X89847146Y-46972847D01*
X89847144Y-46972845D01*
X89734425Y-46889655D01*
X89698832Y-46839888D01*
X89699290Y-46778704D01*
X89734425Y-46730345D01*
X89801630Y-46680744D01*
X89847150Y-46647150D01*
X89927793Y-46537882D01*
X89972646Y-46409699D01*
X89975499Y-46379273D01*
X89975500Y-46379273D01*
X89975500Y-45970727D01*
X89975499Y-45970725D01*
X89972646Y-45940305D01*
X89972646Y-45940301D01*
X89927793Y-45812118D01*
X89847150Y-45702850D01*
X89847146Y-45702847D01*
X89847144Y-45702845D01*
X89734425Y-45619655D01*
X89698832Y-45569888D01*
X89699290Y-45508704D01*
X89734425Y-45460345D01*
X89801630Y-45410744D01*
X89847150Y-45377150D01*
X89927793Y-45267882D01*
X89972646Y-45139699D01*
X89975499Y-45109273D01*
X89975500Y-45109273D01*
X89975500Y-44700727D01*
X89975499Y-44700725D01*
X89972646Y-44670305D01*
X89972646Y-44670301D01*
X89927793Y-44542118D01*
X89880474Y-44478003D01*
X89847154Y-44432855D01*
X89847152Y-44432853D01*
X89847150Y-44432850D01*
X89847146Y-44432847D01*
X89847144Y-44432845D01*
X89734425Y-44349655D01*
X89698832Y-44299888D01*
X89699290Y-44238704D01*
X89734425Y-44190345D01*
X89801630Y-44140744D01*
X89847150Y-44107150D01*
X89927793Y-43997882D01*
X89972646Y-43869699D01*
X89975499Y-43839273D01*
X89975500Y-43839273D01*
X89975500Y-43533700D01*
X89994407Y-43475509D01*
X90043907Y-43439545D01*
X90074500Y-43434700D01*
X90901056Y-43434700D01*
X90959247Y-43453607D01*
X90971059Y-43463696D01*
X90997560Y-43490196D01*
X91022084Y-43514720D01*
X91159016Y-43593777D01*
X91311743Y-43634700D01*
X91311745Y-43634700D01*
X91469855Y-43634700D01*
X91469857Y-43634700D01*
X91622584Y-43593777D01*
X91759516Y-43514720D01*
X91871320Y-43402916D01*
X91950377Y-43265984D01*
X91991300Y-43113257D01*
X91991300Y-42955143D01*
X91950377Y-42802416D01*
X91871320Y-42665484D01*
X91759516Y-42553680D01*
X91622584Y-42474623D01*
X91469857Y-42433700D01*
X91311743Y-42433700D01*
X91159016Y-42474623D01*
X91022081Y-42553682D01*
X90971059Y-42604704D01*
X90916542Y-42632481D01*
X90901056Y-42633700D01*
X90074500Y-42633700D01*
X90016309Y-42614793D01*
X89980345Y-42565293D01*
X89975500Y-42534700D01*
X89975500Y-42160727D01*
X89975499Y-42160725D01*
X89972646Y-42130305D01*
X89972646Y-42130301D01*
X89927793Y-42002118D01*
X89847150Y-41892850D01*
X89847146Y-41892847D01*
X89847144Y-41892845D01*
X89734425Y-41809655D01*
X89698832Y-41759888D01*
X89699290Y-41698704D01*
X89734425Y-41650345D01*
X89818666Y-41588172D01*
X89847150Y-41567150D01*
X89927793Y-41457882D01*
X89972646Y-41329699D01*
X89975499Y-41299273D01*
X89975500Y-41299273D01*
X89975500Y-40925300D01*
X89994407Y-40867109D01*
X90043907Y-40831145D01*
X90074500Y-40826300D01*
X90901056Y-40826300D01*
X90959247Y-40845207D01*
X90971059Y-40855296D01*
X91006489Y-40890725D01*
X91022084Y-40906320D01*
X91159016Y-40985377D01*
X91311743Y-41026300D01*
X91311745Y-41026300D01*
X91469855Y-41026300D01*
X91469857Y-41026300D01*
X91622584Y-40985377D01*
X91759516Y-40906320D01*
X91795260Y-40870576D01*
X91810541Y-40855296D01*
X91865058Y-40827519D01*
X91880544Y-40826300D01*
X98043899Y-40826300D01*
X98102090Y-40845207D01*
X98113903Y-40855296D01*
X108195504Y-50936897D01*
X108223281Y-50991414D01*
X108224500Y-51006901D01*
X108224500Y-51422866D01*
X108224501Y-51422870D01*
X108230908Y-51482480D01*
X108230909Y-51482485D01*
X108281202Y-51617329D01*
X108367450Y-51732541D01*
X108367454Y-51732546D01*
X108367457Y-51732548D01*
X108367458Y-51732549D01*
X108482670Y-51818797D01*
X108617511Y-51869089D01*
X108617512Y-51869089D01*
X108617517Y-51869091D01*
X108677127Y-51875500D01*
X109121135Y-51875499D01*
X109170636Y-51888763D01*
X109190085Y-51899992D01*
X109206912Y-51909707D01*
X109282177Y-51929873D01*
X109333490Y-51963197D01*
X109355417Y-52020318D01*
X109339582Y-52079419D01*
X109292032Y-52117924D01*
X109256553Y-52124500D01*
X108677133Y-52124500D01*
X108677129Y-52124500D01*
X108677128Y-52124501D01*
X108669949Y-52125272D01*
X108617519Y-52130908D01*
X108617514Y-52130909D01*
X108482670Y-52181202D01*
X108367458Y-52267450D01*
X108367450Y-52267458D01*
X108281202Y-52382670D01*
X108230910Y-52517511D01*
X108230908Y-52517522D01*
X108224500Y-52577129D01*
X108224500Y-53072866D01*
X108224501Y-53072870D01*
X108230908Y-53132480D01*
X108230909Y-53132485D01*
X108281202Y-53267329D01*
X108367450Y-53382541D01*
X108367454Y-53382546D01*
X108414683Y-53417902D01*
X108414685Y-53417903D01*
X108449938Y-53467911D01*
X108449064Y-53529090D01*
X108441095Y-53546652D01*
X108440423Y-53547814D01*
X108413141Y-53649634D01*
X108399500Y-53700543D01*
X108399500Y-53858657D01*
X108440423Y-54011384D01*
X108519480Y-54148316D01*
X108631284Y-54260120D01*
X108768216Y-54339177D01*
X108920943Y-54380100D01*
X108920945Y-54380100D01*
X109079055Y-54380100D01*
X109079057Y-54380100D01*
X109231784Y-54339177D01*
X109368716Y-54260120D01*
X109480520Y-54148316D01*
X109559577Y-54011384D01*
X109600500Y-53858657D01*
X109600500Y-53700543D01*
X109559577Y-53547816D01*
X109558909Y-53546660D01*
X109558711Y-53545726D01*
X109557094Y-53541822D01*
X109557817Y-53541522D01*
X109546185Y-53486814D01*
X109571068Y-53430917D01*
X109585308Y-53417908D01*
X109632546Y-53382546D01*
X109718796Y-53267331D01*
X109718795Y-53267331D01*
X109720413Y-53265171D01*
X109770421Y-53229918D01*
X109799666Y-53225500D01*
X112200334Y-53225500D01*
X112258525Y-53244407D01*
X112279587Y-53265171D01*
X112281204Y-53267331D01*
X112367454Y-53382546D01*
X112367457Y-53382548D01*
X112367458Y-53382549D01*
X112482670Y-53468797D01*
X112617511Y-53519089D01*
X112617512Y-53519089D01*
X112617517Y-53519091D01*
X112677127Y-53525500D01*
X113322872Y-53525499D01*
X113382483Y-53519091D01*
X113487560Y-53479900D01*
X113517329Y-53468797D01*
X113517329Y-53468796D01*
X113517331Y-53468796D01*
X113632546Y-53382546D01*
X113718796Y-53267331D01*
X113718795Y-53267331D01*
X113720413Y-53265171D01*
X113770421Y-53229918D01*
X113799666Y-53225500D01*
X117042599Y-53225500D01*
X117100790Y-53244407D01*
X117112603Y-53254496D01*
X118930980Y-55072873D01*
X120733571Y-56875463D01*
X120761348Y-56929980D01*
X120751777Y-56990412D01*
X120715687Y-57028445D01*
X120715830Y-57028631D01*
X120714659Y-57029529D01*
X120713075Y-57031199D01*
X120710684Y-57032579D01*
X120659659Y-57083604D01*
X120605142Y-57111381D01*
X120589656Y-57112600D01*
X44220000Y-57112600D01*
X44161809Y-57093693D01*
X44149996Y-57083604D01*
X27857656Y-40791263D01*
X27829879Y-40736746D01*
X27839449Y-40676317D01*
X27890568Y-40575992D01*
X27963553Y-40351368D01*
X27964042Y-40348281D01*
X28000500Y-40118095D01*
X28000500Y-39881904D01*
X27963554Y-39648636D01*
X27963553Y-39648632D01*
X27890568Y-39424008D01*
X27783343Y-39213567D01*
X27644517Y-39022490D01*
X27477510Y-38855483D01*
X27286433Y-38716657D01*
X27286432Y-38716656D01*
X27286430Y-38716655D01*
X27075992Y-38609432D01*
X26851363Y-38536445D01*
X26618095Y-38499500D01*
X26618092Y-38499500D01*
X26381908Y-38499500D01*
X26381905Y-38499500D01*
X26148636Y-38536445D01*
X25924007Y-38609432D01*
X25713569Y-38716655D01*
X25522491Y-38855482D01*
X25355482Y-39022491D01*
X25216655Y-39213569D01*
X25109432Y-39424007D01*
X25036445Y-39648636D01*
X24999500Y-39881904D01*
X21000500Y-39881904D01*
X20963554Y-39648636D01*
X20963553Y-39648632D01*
X20890568Y-39424008D01*
X20783343Y-39213567D01*
X20644517Y-39022490D01*
X20477510Y-38855483D01*
X20286433Y-38716657D01*
X20286432Y-38716656D01*
X20286430Y-38716655D01*
X20075992Y-38609432D01*
X19851363Y-38536445D01*
X19618095Y-38499500D01*
X19618092Y-38499500D01*
X19381908Y-38499500D01*
X19381905Y-38499500D01*
X19148636Y-38536445D01*
X18924007Y-38609432D01*
X18713569Y-38716655D01*
X18522491Y-38855482D01*
X18355482Y-39022491D01*
X18216655Y-39213569D01*
X18109432Y-39424007D01*
X18036445Y-39648636D01*
X17999500Y-39881904D01*
X17500499Y-39881904D01*
X17500499Y-39006902D01*
X17489876Y-38918436D01*
X17434361Y-38777658D01*
X17342922Y-38657078D01*
X17222342Y-38565639D01*
X17081564Y-38510124D01*
X16993099Y-38499500D01*
X15006903Y-38499500D01*
X15006897Y-38499501D01*
X14918436Y-38510124D01*
X14777658Y-38565639D01*
X14777657Y-38565639D01*
X14777656Y-38565640D01*
X14657081Y-38657075D01*
X14657075Y-38657081D01*
X14565640Y-38777656D01*
X14565639Y-38777657D01*
X14565639Y-38777658D01*
X14554854Y-38805007D01*
X14510124Y-38918435D01*
X14499500Y-39006898D01*
X10500500Y-39006898D01*
X10500500Y-37335643D01*
X77214100Y-37335643D01*
X77214100Y-37493757D01*
X77255023Y-37646484D01*
X77334080Y-37783416D01*
X77445884Y-37895220D01*
X77582816Y-37974277D01*
X77735543Y-38015200D01*
X77735545Y-38015200D01*
X77893656Y-38015200D01*
X77893657Y-38015200D01*
X78005692Y-37985180D01*
X78066793Y-37988381D01*
X78114343Y-38026886D01*
X78130179Y-38085987D01*
X78110971Y-38139593D01*
X78072207Y-38192117D01*
X78027355Y-38320296D01*
X78027353Y-38320305D01*
X78024501Y-38350716D01*
X78024500Y-38350727D01*
X78024500Y-38759274D01*
X78027353Y-38789694D01*
X78027355Y-38789703D01*
X78072207Y-38917883D01*
X78152845Y-39027144D01*
X78152847Y-39027146D01*
X78152850Y-39027150D01*
X78152853Y-39027152D01*
X78152855Y-39027154D01*
X78265574Y-39110345D01*
X78301167Y-39160113D01*
X78300709Y-39221296D01*
X78265574Y-39269655D01*
X78152855Y-39352845D01*
X78152845Y-39352855D01*
X78072207Y-39462116D01*
X78027355Y-39590296D01*
X78027353Y-39590305D01*
X78024500Y-39620725D01*
X78024500Y-40029274D01*
X78027353Y-40059694D01*
X78027355Y-40059703D01*
X78072207Y-40187883D01*
X78152845Y-40297144D01*
X78152847Y-40297146D01*
X78152850Y-40297150D01*
X78152853Y-40297152D01*
X78152855Y-40297154D01*
X78265574Y-40380345D01*
X78301167Y-40430113D01*
X78300709Y-40491296D01*
X78265574Y-40539655D01*
X78152855Y-40622845D01*
X78152845Y-40622855D01*
X78072207Y-40732116D01*
X78027355Y-40860296D01*
X78027353Y-40860305D01*
X78024500Y-40890725D01*
X78024500Y-41299274D01*
X78027353Y-41329694D01*
X78027355Y-41329703D01*
X78072207Y-41457883D01*
X78152845Y-41567144D01*
X78152847Y-41567146D01*
X78152850Y-41567150D01*
X78152853Y-41567152D01*
X78152855Y-41567154D01*
X78265574Y-41650345D01*
X78301167Y-41700113D01*
X78300709Y-41761296D01*
X78265574Y-41809655D01*
X78152855Y-41892845D01*
X78152845Y-41892855D01*
X78072207Y-42002116D01*
X78027355Y-42130296D01*
X78027353Y-42130305D01*
X78024500Y-42160725D01*
X78024500Y-42569274D01*
X78027353Y-42599694D01*
X78027355Y-42599703D01*
X78072207Y-42727883D01*
X78152845Y-42837144D01*
X78152847Y-42837146D01*
X78152850Y-42837150D01*
X78152853Y-42837152D01*
X78152855Y-42837154D01*
X78265574Y-42920345D01*
X78301167Y-42970113D01*
X78300709Y-43031296D01*
X78265574Y-43079655D01*
X78152855Y-43162845D01*
X78152845Y-43162855D01*
X78072207Y-43272116D01*
X78027355Y-43400296D01*
X78027353Y-43400305D01*
X78024500Y-43430725D01*
X78024500Y-43839274D01*
X78027353Y-43869694D01*
X78027355Y-43869703D01*
X78072207Y-43997883D01*
X78152845Y-44107144D01*
X78152847Y-44107146D01*
X78152850Y-44107150D01*
X78152853Y-44107152D01*
X78152855Y-44107154D01*
X78265574Y-44190345D01*
X78301167Y-44240113D01*
X78300709Y-44301296D01*
X78265574Y-44349655D01*
X78152855Y-44432845D01*
X78152845Y-44432855D01*
X78072207Y-44542116D01*
X78027355Y-44670296D01*
X78027353Y-44670305D01*
X78024500Y-44700725D01*
X78024500Y-45109274D01*
X78027353Y-45139694D01*
X78027355Y-45139703D01*
X78072207Y-45267883D01*
X78152845Y-45377144D01*
X78152847Y-45377146D01*
X78152850Y-45377150D01*
X78152853Y-45377152D01*
X78152855Y-45377154D01*
X78265574Y-45460345D01*
X78301167Y-45510113D01*
X78300709Y-45571296D01*
X78265574Y-45619655D01*
X78152855Y-45702845D01*
X78152845Y-45702855D01*
X78072207Y-45812116D01*
X78027355Y-45940296D01*
X78027353Y-45940305D01*
X78024500Y-45970725D01*
X78024500Y-46379274D01*
X78027353Y-46409694D01*
X78027355Y-46409703D01*
X78072207Y-46537883D01*
X78152845Y-46647144D01*
X78152847Y-46647146D01*
X78152850Y-46647150D01*
X78152853Y-46647152D01*
X78152855Y-46647154D01*
X78265574Y-46730345D01*
X78301167Y-46780113D01*
X78300709Y-46841296D01*
X78265574Y-46889655D01*
X78152855Y-46972845D01*
X78152845Y-46972855D01*
X78072207Y-47082116D01*
X78027355Y-47210296D01*
X78027353Y-47210305D01*
X78024500Y-47240725D01*
X78024500Y-47649274D01*
X78027353Y-47679694D01*
X78027355Y-47679703D01*
X78072207Y-47807883D01*
X78152845Y-47917144D01*
X78152847Y-47917146D01*
X78152850Y-47917150D01*
X78152853Y-47917152D01*
X78152855Y-47917154D01*
X78265574Y-48000345D01*
X78301167Y-48050113D01*
X78300709Y-48111296D01*
X78265574Y-48159655D01*
X78152855Y-48242845D01*
X78152845Y-48242855D01*
X78072207Y-48352116D01*
X78027355Y-48480296D01*
X78027353Y-48480305D01*
X78024500Y-48510725D01*
X78024500Y-48919274D01*
X78027353Y-48949694D01*
X78027355Y-48949703D01*
X78072207Y-49077883D01*
X78152845Y-49187144D01*
X78152847Y-49187146D01*
X78152850Y-49187150D01*
X78152853Y-49187152D01*
X78152855Y-49187154D01*
X78262116Y-49267792D01*
X78262117Y-49267792D01*
X78262118Y-49267793D01*
X78390301Y-49312646D01*
X78420725Y-49315499D01*
X78420727Y-49315500D01*
X78420734Y-49315500D01*
X80279273Y-49315500D01*
X80279273Y-49315499D01*
X80309699Y-49312646D01*
X80437882Y-49267793D01*
X80547150Y-49187150D01*
X80627793Y-49077882D01*
X80672646Y-48949699D01*
X80675499Y-48919273D01*
X80675500Y-48919273D01*
X80675500Y-48510727D01*
X80675499Y-48510725D01*
X80672646Y-48480305D01*
X80672646Y-48480301D01*
X80627793Y-48352118D01*
X80565311Y-48267458D01*
X80547154Y-48242855D01*
X80547152Y-48242853D01*
X80547150Y-48242850D01*
X80547146Y-48242847D01*
X80547144Y-48242845D01*
X80434425Y-48159655D01*
X80398832Y-48109888D01*
X80399290Y-48048704D01*
X80434425Y-48000345D01*
X80501630Y-47950744D01*
X80547150Y-47917150D01*
X80627793Y-47807882D01*
X80672646Y-47679699D01*
X80675499Y-47649273D01*
X80675500Y-47649273D01*
X80675500Y-47240727D01*
X80675499Y-47240725D01*
X80672646Y-47210305D01*
X80672646Y-47210301D01*
X80627793Y-47082118D01*
X80547150Y-46972850D01*
X80547146Y-46972847D01*
X80547144Y-46972845D01*
X80434425Y-46889655D01*
X80398832Y-46839888D01*
X80399290Y-46778704D01*
X80434425Y-46730345D01*
X80501630Y-46680744D01*
X80547150Y-46647150D01*
X80627793Y-46537882D01*
X80672646Y-46409699D01*
X80675499Y-46379273D01*
X80675500Y-46379273D01*
X80675500Y-45970727D01*
X80675499Y-45970725D01*
X80672646Y-45940305D01*
X80672646Y-45940301D01*
X80627793Y-45812118D01*
X80547150Y-45702850D01*
X80547146Y-45702847D01*
X80547144Y-45702845D01*
X80434425Y-45619655D01*
X80398832Y-45569888D01*
X80399290Y-45508704D01*
X80434425Y-45460345D01*
X80501630Y-45410744D01*
X80547150Y-45377150D01*
X80627793Y-45267882D01*
X80672646Y-45139699D01*
X80675499Y-45109273D01*
X80675500Y-45109273D01*
X80675500Y-44700727D01*
X80675499Y-44700725D01*
X80672646Y-44670305D01*
X80672646Y-44670301D01*
X80627793Y-44542118D01*
X80580474Y-44478003D01*
X80547154Y-44432855D01*
X80547152Y-44432853D01*
X80547150Y-44432850D01*
X80547146Y-44432847D01*
X80547144Y-44432845D01*
X80434425Y-44349655D01*
X80398832Y-44299888D01*
X80399290Y-44238704D01*
X80434425Y-44190345D01*
X80501630Y-44140744D01*
X80547150Y-44107150D01*
X80627793Y-43997882D01*
X80672646Y-43869699D01*
X80675499Y-43839273D01*
X80675500Y-43839273D01*
X80675500Y-43430727D01*
X80675499Y-43430725D01*
X80672646Y-43400305D01*
X80672646Y-43400301D01*
X80627793Y-43272118D01*
X80623265Y-43265983D01*
X80547154Y-43162855D01*
X80547152Y-43162853D01*
X80547150Y-43162850D01*
X80547146Y-43162847D01*
X80547144Y-43162845D01*
X80434425Y-43079655D01*
X80398832Y-43029888D01*
X80399290Y-42968704D01*
X80434425Y-42920345D01*
X80501630Y-42870744D01*
X80547150Y-42837150D01*
X80627793Y-42727882D01*
X80672646Y-42599699D01*
X80675499Y-42569273D01*
X80675500Y-42569273D01*
X80675500Y-42160727D01*
X80675499Y-42160725D01*
X80672646Y-42130305D01*
X80672646Y-42130301D01*
X80627793Y-42002118D01*
X80547150Y-41892850D01*
X80547146Y-41892847D01*
X80547144Y-41892845D01*
X80434425Y-41809655D01*
X80398832Y-41759888D01*
X80399290Y-41698704D01*
X80434425Y-41650345D01*
X80518666Y-41588172D01*
X80547150Y-41567150D01*
X80627793Y-41457882D01*
X80672646Y-41329699D01*
X80675499Y-41299273D01*
X80675500Y-41299273D01*
X80675500Y-40890727D01*
X80675499Y-40890725D01*
X80672646Y-40860301D01*
X80627793Y-40732118D01*
X80626530Y-40730407D01*
X80547154Y-40622855D01*
X80547152Y-40622853D01*
X80547150Y-40622850D01*
X80547146Y-40622847D01*
X80547144Y-40622845D01*
X80434425Y-40539655D01*
X80398832Y-40489888D01*
X80399290Y-40428704D01*
X80434425Y-40380345D01*
X80528649Y-40310804D01*
X80547150Y-40297150D01*
X80627793Y-40187882D01*
X80672646Y-40059699D01*
X80675499Y-40029273D01*
X80675500Y-40029273D01*
X80675500Y-39620727D01*
X80675499Y-39620725D01*
X80675181Y-39617331D01*
X80672646Y-39590301D01*
X80627793Y-39462118D01*
X80616788Y-39447207D01*
X80547154Y-39352855D01*
X80547152Y-39352853D01*
X80547150Y-39352850D01*
X80547146Y-39352847D01*
X80547144Y-39352845D01*
X80434425Y-39269655D01*
X80398832Y-39219888D01*
X80399290Y-39158704D01*
X80434425Y-39110345D01*
X80501630Y-39060744D01*
X80547150Y-39027150D01*
X80627793Y-38917882D01*
X80672646Y-38789699D01*
X80675499Y-38759273D01*
X80675500Y-38759273D01*
X80675500Y-38350727D01*
X80675499Y-38350716D01*
X80672646Y-38320305D01*
X80672646Y-38320301D01*
X80627793Y-38192118D01*
X80549465Y-38085987D01*
X80547154Y-38082855D01*
X80547152Y-38082853D01*
X80547150Y-38082850D01*
X80547146Y-38082847D01*
X80547144Y-38082845D01*
X80434425Y-37999655D01*
X80398832Y-37949888D01*
X80399290Y-37888704D01*
X80434425Y-37840345D01*
X80511562Y-37783415D01*
X80547150Y-37757150D01*
X80627793Y-37647882D01*
X80672646Y-37519699D01*
X80675499Y-37489273D01*
X80675500Y-37489273D01*
X80675500Y-37080727D01*
X80675499Y-37080725D01*
X80672646Y-37050305D01*
X80672646Y-37050301D01*
X80627793Y-36922118D01*
X80600837Y-36885594D01*
X80547154Y-36812855D01*
X80547152Y-36812853D01*
X80547150Y-36812850D01*
X80547146Y-36812847D01*
X80547144Y-36812845D01*
X80437883Y-36732207D01*
X80309703Y-36687355D01*
X80309694Y-36687353D01*
X80279274Y-36684500D01*
X80279266Y-36684500D01*
X78420734Y-36684500D01*
X78420725Y-36684500D01*
X78390305Y-36687353D01*
X78390296Y-36687355D01*
X78262116Y-36732207D01*
X78152855Y-36812845D01*
X78152847Y-36812853D01*
X78149302Y-36817657D01*
X78099532Y-36853246D01*
X78044027Y-36854491D01*
X77975814Y-36836213D01*
X77893657Y-36814200D01*
X77735543Y-36814200D01*
X77582816Y-36855123D01*
X77445884Y-36934180D01*
X77334080Y-37045984D01*
X77255023Y-37182916D01*
X77214100Y-37335643D01*
X10500500Y-37335643D01*
X10500500Y-31543043D01*
X52267400Y-31543043D01*
X52267400Y-31701157D01*
X52308323Y-31853884D01*
X52387380Y-31990816D01*
X52499184Y-32102620D01*
X52636116Y-32181677D01*
X52788843Y-32222600D01*
X52788845Y-32222600D01*
X52946955Y-32222600D01*
X52946957Y-32222600D01*
X53099684Y-32181677D01*
X53236616Y-32102620D01*
X53262129Y-32077106D01*
X53287641Y-32051596D01*
X53342158Y-32023819D01*
X53357644Y-32022600D01*
X54550500Y-32022600D01*
X54608691Y-32041507D01*
X54644655Y-32091007D01*
X54649500Y-32121600D01*
X54649500Y-32143106D01*
X54660123Y-32231565D01*
X54715637Y-32372339D01*
X54715638Y-32372341D01*
X54715639Y-32372342D01*
X54807078Y-32492922D01*
X54927658Y-32584361D01*
X54927659Y-32584361D01*
X54927660Y-32584362D01*
X54998047Y-32612119D01*
X55068436Y-32639877D01*
X55156898Y-32650500D01*
X55156900Y-32650500D01*
X55893100Y-32650500D01*
X55893102Y-32650500D01*
X55981564Y-32639877D01*
X56122342Y-32584361D01*
X56242922Y-32492922D01*
X56334361Y-32372342D01*
X56389877Y-32231564D01*
X56400500Y-32143102D01*
X56400500Y-31543043D01*
X59113100Y-31543043D01*
X59113100Y-31701157D01*
X59154023Y-31853884D01*
X59233080Y-31990816D01*
X59344884Y-32102620D01*
X59481816Y-32181677D01*
X59634543Y-32222600D01*
X59634545Y-32222600D01*
X59792655Y-32222600D01*
X59792657Y-32222600D01*
X59945384Y-32181677D01*
X60082316Y-32102620D01*
X60107829Y-32077106D01*
X60133341Y-32051596D01*
X60187858Y-32023819D01*
X60203344Y-32022600D01*
X61655625Y-32022600D01*
X61655627Y-32022600D01*
X61757488Y-31995307D01*
X61757490Y-31995305D01*
X61757492Y-31995305D01*
X61848808Y-31942583D01*
X61848808Y-31942582D01*
X61848813Y-31942580D01*
X61937510Y-31853883D01*
X61986898Y-31804496D01*
X62041414Y-31776719D01*
X62056901Y-31775500D01*
X62393099Y-31775500D01*
X62451290Y-31794407D01*
X62463103Y-31804496D01*
X63129318Y-32470710D01*
X63129320Y-32470713D01*
X63203887Y-32545280D01*
X63249550Y-32571643D01*
X63295212Y-32598007D01*
X63397073Y-32625300D01*
X63397075Y-32625300D01*
X126602925Y-32625300D01*
X126602927Y-32625300D01*
X126704788Y-32598007D01*
X126704790Y-32598005D01*
X126704792Y-32598005D01*
X126796108Y-32545283D01*
X126796108Y-32545282D01*
X126796113Y-32545280D01*
X127786897Y-31554496D01*
X127841414Y-31526719D01*
X127856901Y-31525500D01*
X128143099Y-31525500D01*
X128201290Y-31544407D01*
X128213103Y-31554496D01*
X132708004Y-36049397D01*
X132735781Y-36103914D01*
X132737000Y-36119401D01*
X132737000Y-38350500D01*
X132718093Y-38408691D01*
X132668593Y-38444655D01*
X132638000Y-38449500D01*
X132570725Y-38449500D01*
X132540305Y-38452353D01*
X132540296Y-38452355D01*
X132412116Y-38497207D01*
X132302855Y-38577845D01*
X132302845Y-38577855D01*
X132222207Y-38687116D01*
X132220093Y-38691117D01*
X132176184Y-38733728D01*
X132115615Y-38742392D01*
X132083066Y-38730590D01*
X131989890Y-38676794D01*
X131989889Y-38676793D01*
X131989888Y-38676793D01*
X131888027Y-38649500D01*
X131888025Y-38649500D01*
X131800008Y-38649500D01*
X131741817Y-38630593D01*
X131720352Y-38609288D01*
X131697150Y-38577850D01*
X131697149Y-38577849D01*
X131587883Y-38497207D01*
X131459703Y-38452355D01*
X131459694Y-38452353D01*
X131429274Y-38449500D01*
X131429266Y-38449500D01*
X130295734Y-38449500D01*
X130295725Y-38449500D01*
X130265305Y-38452353D01*
X130265296Y-38452355D01*
X130137116Y-38497207D01*
X130027855Y-38577845D01*
X130027845Y-38577855D01*
X129947207Y-38687116D01*
X129902355Y-38815296D01*
X129902353Y-38815305D01*
X129899500Y-38845725D01*
X129899500Y-39254274D01*
X129902353Y-39284694D01*
X129902355Y-39284703D01*
X129947207Y-39412883D01*
X130027845Y-39522144D01*
X130027847Y-39522146D01*
X130027850Y-39522150D01*
X130027853Y-39522152D01*
X130027855Y-39522154D01*
X130137116Y-39602792D01*
X130137117Y-39602792D01*
X130137118Y-39602793D01*
X130265301Y-39647646D01*
X130295725Y-39650499D01*
X130295727Y-39650500D01*
X130295734Y-39650500D01*
X131429273Y-39650500D01*
X131429273Y-39650499D01*
X131459699Y-39647646D01*
X131587882Y-39602793D01*
X131653864Y-39554096D01*
X131711910Y-39534755D01*
X131770241Y-39553226D01*
X131782654Y-39563748D01*
X132191686Y-39972779D01*
X132191691Y-39972783D01*
X132283008Y-40025505D01*
X132283006Y-40025505D01*
X132283010Y-40025506D01*
X132283012Y-40025507D01*
X132384873Y-40052800D01*
X133229299Y-40052800D01*
X133287490Y-40071707D01*
X133323454Y-40121207D01*
X133323454Y-40182393D01*
X133299303Y-40221804D01*
X133200603Y-40320504D01*
X133146086Y-40348281D01*
X133130599Y-40349500D01*
X132570725Y-40349500D01*
X132540305Y-40352353D01*
X132540296Y-40352355D01*
X132412116Y-40397207D01*
X132302855Y-40477845D01*
X132302845Y-40477855D01*
X132222207Y-40587116D01*
X132177355Y-40715296D01*
X132177353Y-40715305D01*
X132174500Y-40745725D01*
X132174500Y-41154274D01*
X132177353Y-41184694D01*
X132177355Y-41184703D01*
X132222207Y-41312883D01*
X132302845Y-41422144D01*
X132302847Y-41422146D01*
X132302850Y-41422150D01*
X132302853Y-41422152D01*
X132302855Y-41422154D01*
X132412116Y-41502792D01*
X132412117Y-41502792D01*
X132412118Y-41502793D01*
X132540301Y-41547646D01*
X132570725Y-41550499D01*
X132570727Y-41550500D01*
X132570734Y-41550500D01*
X133704273Y-41550500D01*
X133704273Y-41550499D01*
X133734699Y-41547646D01*
X133862882Y-41502793D01*
X133972150Y-41422150D01*
X134052793Y-41312882D01*
X134097646Y-41184699D01*
X134100499Y-41154273D01*
X134100500Y-41154273D01*
X134100500Y-40810500D01*
X134119407Y-40752309D01*
X134168907Y-40716345D01*
X134199500Y-40711500D01*
X135350556Y-40711500D01*
X135408747Y-40730407D01*
X135420559Y-40740496D01*
X135459971Y-40779907D01*
X135471584Y-40791520D01*
X135608516Y-40870577D01*
X135761243Y-40911500D01*
X135761245Y-40911500D01*
X135919355Y-40911500D01*
X135919357Y-40911500D01*
X136072084Y-40870577D01*
X136209016Y-40791520D01*
X136320820Y-40679716D01*
X136320908Y-40679562D01*
X136321004Y-40679476D01*
X136324769Y-40674570D01*
X136325677Y-40675267D01*
X136366367Y-40638617D01*
X136427216Y-40632211D01*
X136476654Y-40659047D01*
X140155602Y-44337995D01*
X140183379Y-44392512D01*
X140173808Y-44452944D01*
X140155602Y-44478003D01*
X139157373Y-45476232D01*
X139102856Y-45504009D01*
X139042424Y-45494438D01*
X139001633Y-45455728D01*
X138997220Y-45448084D01*
X138885416Y-45336280D01*
X138748484Y-45257223D01*
X138595757Y-45216300D01*
X138437643Y-45216300D01*
X138284916Y-45257223D01*
X138147981Y-45336282D01*
X138096959Y-45387304D01*
X138042442Y-45415081D01*
X138026956Y-45416300D01*
X137410927Y-45416300D01*
X137305473Y-45416300D01*
X137243129Y-45433004D01*
X137203607Y-45443594D01*
X137112291Y-45496316D01*
X137112286Y-45496320D01*
X136163100Y-46445504D01*
X136108584Y-46473281D01*
X136093097Y-46474500D01*
X135677133Y-46474500D01*
X135677129Y-46474500D01*
X135677128Y-46474501D01*
X135669949Y-46475272D01*
X135617519Y-46480908D01*
X135617514Y-46480909D01*
X135482670Y-46531202D01*
X135367458Y-46617450D01*
X135367450Y-46617458D01*
X135281202Y-46732670D01*
X135230910Y-46867511D01*
X135230908Y-46867522D01*
X135224500Y-46927129D01*
X135224500Y-47422866D01*
X135224501Y-47422870D01*
X135230908Y-47482480D01*
X135230909Y-47482485D01*
X135281202Y-47617329D01*
X135367450Y-47732541D01*
X135367454Y-47732546D01*
X135367457Y-47732548D01*
X135367458Y-47732549D01*
X135482670Y-47818797D01*
X135617511Y-47869089D01*
X135617512Y-47869089D01*
X135617517Y-47869091D01*
X135677127Y-47875500D01*
X136322872Y-47875499D01*
X136382483Y-47869091D01*
X136517331Y-47818796D01*
X136632546Y-47732546D01*
X136718796Y-47617331D01*
X136769091Y-47482483D01*
X136775500Y-47422873D01*
X136775499Y-47006899D01*
X136794406Y-46948709D01*
X136804496Y-46936896D01*
X137495098Y-46246296D01*
X137549614Y-46218519D01*
X137565101Y-46217300D01*
X138026956Y-46217300D01*
X138085147Y-46236207D01*
X138096959Y-46246296D01*
X138147981Y-46297317D01*
X138147984Y-46297320D01*
X138155628Y-46301733D01*
X138196568Y-46347200D01*
X138202965Y-46408050D01*
X138176132Y-46457473D01*
X136515028Y-48118577D01*
X136460511Y-48146354D01*
X136410428Y-48141331D01*
X136382485Y-48130909D01*
X136358639Y-48128345D01*
X136322873Y-48124500D01*
X136322870Y-48124500D01*
X135677133Y-48124500D01*
X135677129Y-48124500D01*
X135677128Y-48124501D01*
X135669949Y-48125272D01*
X135617519Y-48130908D01*
X135617514Y-48130909D01*
X135482670Y-48181202D01*
X135367458Y-48267450D01*
X135367450Y-48267458D01*
X135281202Y-48382670D01*
X135230910Y-48517511D01*
X135230908Y-48517522D01*
X135224500Y-48577129D01*
X135224500Y-49072866D01*
X135224501Y-49072870D01*
X135230908Y-49132480D01*
X135230909Y-49132485D01*
X135281202Y-49267329D01*
X135317263Y-49315500D01*
X135367454Y-49382546D01*
X135367457Y-49382548D01*
X135367458Y-49382549D01*
X135482670Y-49468797D01*
X135617511Y-49519089D01*
X135617512Y-49519089D01*
X135617517Y-49519091D01*
X135677127Y-49525500D01*
X136322872Y-49525499D01*
X136382483Y-49519091D01*
X136409937Y-49508851D01*
X144224500Y-49508851D01*
X144224500Y-50041148D01*
X144234641Y-50125591D01*
X144287634Y-50259972D01*
X144287635Y-50259974D01*
X144287636Y-50259975D01*
X144374922Y-50375078D01*
X144490025Y-50462364D01*
X144490026Y-50462364D01*
X144490027Y-50462365D01*
X144537054Y-50480910D01*
X144624410Y-50515359D01*
X144708856Y-50525500D01*
X144708858Y-50525500D01*
X145291142Y-50525500D01*
X145291144Y-50525500D01*
X145375590Y-50515359D01*
X145509975Y-50462364D01*
X145625078Y-50375078D01*
X145712364Y-50259975D01*
X145765359Y-50125590D01*
X145775500Y-50041144D01*
X145775500Y-49697441D01*
X145794407Y-49639250D01*
X145843907Y-49603286D01*
X145848877Y-49601814D01*
X145854154Y-49600400D01*
X145854157Y-49600400D01*
X146006884Y-49559477D01*
X146143816Y-49480420D01*
X146255620Y-49368616D01*
X146334677Y-49231684D01*
X146375600Y-49078957D01*
X146375600Y-48920843D01*
X146334677Y-48768116D01*
X146255620Y-48631184D01*
X146143816Y-48519380D01*
X146006884Y-48440323D01*
X145854157Y-48399400D01*
X145696043Y-48399400D01*
X145543316Y-48440323D01*
X145406384Y-48519380D01*
X145294580Y-48631184D01*
X145215523Y-48768116D01*
X145175021Y-48919274D01*
X145174600Y-48920844D01*
X145174600Y-48925500D01*
X145155693Y-48983691D01*
X145106193Y-49019655D01*
X145075600Y-49024500D01*
X144708851Y-49024500D01*
X144624408Y-49034641D01*
X144490027Y-49087634D01*
X144374922Y-49174922D01*
X144287634Y-49290027D01*
X144234641Y-49424408D01*
X144224500Y-49508851D01*
X136409937Y-49508851D01*
X136449907Y-49493943D01*
X136517329Y-49468797D01*
X136517329Y-49468796D01*
X136517331Y-49468796D01*
X136632546Y-49382546D01*
X136718796Y-49267331D01*
X136732092Y-49231684D01*
X136769089Y-49132488D01*
X136769090Y-49132485D01*
X136769091Y-49132483D01*
X136775500Y-49072873D01*
X136775499Y-49031900D01*
X136794405Y-48973711D01*
X136804489Y-48961902D01*
X140928897Y-44837496D01*
X140983414Y-44809719D01*
X140998901Y-44808500D01*
X141469725Y-44808500D01*
X141469727Y-44808500D01*
X141571588Y-44781207D01*
X141571590Y-44781205D01*
X141571592Y-44781205D01*
X141662908Y-44728483D01*
X141662908Y-44728482D01*
X141662913Y-44728480D01*
X144836897Y-41554494D01*
X144891414Y-41526718D01*
X144906901Y-41525499D01*
X145322867Y-41525499D01*
X145322872Y-41525499D01*
X145382483Y-41519091D01*
X145472591Y-41485483D01*
X145517329Y-41468797D01*
X145517329Y-41468796D01*
X145517331Y-41468796D01*
X145632546Y-41382546D01*
X145718796Y-41267331D01*
X145735576Y-41222343D01*
X145769089Y-41132488D01*
X145769088Y-41132488D01*
X145769091Y-41132483D01*
X145775500Y-41072873D01*
X145775499Y-40577128D01*
X145769091Y-40517517D01*
X145754296Y-40477849D01*
X145718797Y-40382670D01*
X145632549Y-40267458D01*
X145632548Y-40267457D01*
X145632546Y-40267454D01*
X145617629Y-40256287D01*
X145517329Y-40181202D01*
X145382488Y-40130910D01*
X145382483Y-40130909D01*
X145382481Y-40130908D01*
X145382477Y-40130908D01*
X145351249Y-40127550D01*
X145322873Y-40124500D01*
X145322870Y-40124500D01*
X144677133Y-40124500D01*
X144677129Y-40124500D01*
X144677128Y-40124501D01*
X144669949Y-40125272D01*
X144617519Y-40130908D01*
X144617514Y-40130909D01*
X144482670Y-40181202D01*
X144367458Y-40267450D01*
X144367450Y-40267458D01*
X144281202Y-40382670D01*
X144230910Y-40517511D01*
X144230908Y-40517522D01*
X144224500Y-40577129D01*
X144224500Y-40993098D01*
X144205593Y-41051289D01*
X144195504Y-41063102D01*
X141280103Y-43978504D01*
X141225586Y-44006281D01*
X141210099Y-44007500D01*
X140998901Y-44007500D01*
X140940710Y-43988593D01*
X140928897Y-43978504D01*
X138643039Y-41692646D01*
X136282213Y-39331820D01*
X136282210Y-39331818D01*
X136282209Y-39331817D01*
X136282208Y-39331816D01*
X136190891Y-39279094D01*
X136190893Y-39279094D01*
X136151370Y-39268504D01*
X136089027Y-39251800D01*
X136089025Y-39251800D01*
X134199500Y-39251800D01*
X134141309Y-39232893D01*
X134105345Y-39183393D01*
X134100500Y-39152800D01*
X134100500Y-38927129D01*
X144224500Y-38927129D01*
X144224500Y-39422866D01*
X144224501Y-39422870D01*
X144230908Y-39482480D01*
X144230909Y-39482485D01*
X144281202Y-39617329D01*
X144366018Y-39730628D01*
X144367454Y-39732546D01*
X144367457Y-39732548D01*
X144367458Y-39732549D01*
X144482670Y-39818797D01*
X144617511Y-39869089D01*
X144617512Y-39869089D01*
X144617517Y-39869091D01*
X144677127Y-39875500D01*
X145322872Y-39875499D01*
X145382483Y-39869091D01*
X145449907Y-39843943D01*
X145517329Y-39818797D01*
X145517329Y-39818796D01*
X145517331Y-39818796D01*
X145632546Y-39732546D01*
X145632545Y-39732546D01*
X145638214Y-39728303D01*
X145639954Y-39730628D01*
X145683251Y-39708545D01*
X145743687Y-39718092D01*
X145748277Y-39720583D01*
X145768998Y-39732546D01*
X145772516Y-39734577D01*
X145925243Y-39775500D01*
X145925245Y-39775500D01*
X146083355Y-39775500D01*
X146083357Y-39775500D01*
X146236084Y-39734577D01*
X146373016Y-39655520D01*
X146484820Y-39543716D01*
X146563877Y-39406784D01*
X146604800Y-39254057D01*
X146604800Y-39095943D01*
X146563877Y-38943216D01*
X146484820Y-38806284D01*
X146373016Y-38694480D01*
X146236084Y-38615423D01*
X146083357Y-38574500D01*
X145925243Y-38574500D01*
X145772516Y-38615423D01*
X145772514Y-38615424D01*
X145772512Y-38615424D01*
X145748275Y-38629417D01*
X145688426Y-38642136D01*
X145639291Y-38620258D01*
X145638214Y-38621697D01*
X145517329Y-38531202D01*
X145382488Y-38480910D01*
X145382483Y-38480909D01*
X145382481Y-38480908D01*
X145382477Y-38480908D01*
X145351249Y-38477550D01*
X145322873Y-38474500D01*
X145322870Y-38474500D01*
X144677133Y-38474500D01*
X144677129Y-38474500D01*
X144677128Y-38474501D01*
X144669949Y-38475272D01*
X144617519Y-38480908D01*
X144617514Y-38480909D01*
X144482670Y-38531202D01*
X144367458Y-38617450D01*
X144367450Y-38617458D01*
X144281202Y-38732670D01*
X144230910Y-38867511D01*
X144230908Y-38867522D01*
X144226533Y-38908209D01*
X144225435Y-38918436D01*
X144224500Y-38927129D01*
X134100500Y-38927129D01*
X134100500Y-38845727D01*
X134100499Y-38845725D01*
X134097646Y-38815301D01*
X134052793Y-38687118D01*
X134030620Y-38657075D01*
X133972154Y-38577855D01*
X133972152Y-38577853D01*
X133972150Y-38577850D01*
X133972146Y-38577847D01*
X133972144Y-38577845D01*
X133862883Y-38497207D01*
X133734703Y-38452355D01*
X133734694Y-38452353D01*
X133704274Y-38449500D01*
X133704266Y-38449500D01*
X133637000Y-38449500D01*
X133578809Y-38430593D01*
X133542845Y-38381093D01*
X133538000Y-38350500D01*
X133538000Y-35859774D01*
X133538000Y-35859773D01*
X133510707Y-35757913D01*
X133510707Y-35757912D01*
X133510707Y-35757911D01*
X133457983Y-35666591D01*
X133457982Y-35666590D01*
X133457981Y-35666589D01*
X133457980Y-35666587D01*
X128804496Y-31013103D01*
X128776719Y-30958586D01*
X128775500Y-30943099D01*
X128775500Y-30508857D01*
X128775499Y-30508851D01*
X128765359Y-30424410D01*
X128712364Y-30290025D01*
X128625078Y-30174922D01*
X128509975Y-30087636D01*
X128509974Y-30087635D01*
X128509972Y-30087634D01*
X128375591Y-30034641D01*
X128291148Y-30024500D01*
X128291144Y-30024500D01*
X127708856Y-30024500D01*
X127708851Y-30024500D01*
X127624408Y-30034641D01*
X127490027Y-30087634D01*
X127374922Y-30174922D01*
X127287634Y-30290027D01*
X127234641Y-30424408D01*
X127224500Y-30508851D01*
X127224500Y-30943099D01*
X127205593Y-31001290D01*
X127195504Y-31013103D01*
X126413303Y-31795304D01*
X126358786Y-31823081D01*
X126343299Y-31824300D01*
X71899473Y-31824300D01*
X71841282Y-31805393D01*
X71805318Y-31755893D01*
X71805318Y-31694707D01*
X71807376Y-31688981D01*
X71817098Y-31664325D01*
X71839877Y-31606564D01*
X71850500Y-31518102D01*
X71850500Y-30481898D01*
X71839877Y-30393436D01*
X71784361Y-30252658D01*
X71692922Y-30132078D01*
X71572342Y-30040639D01*
X71572341Y-30040638D01*
X71572339Y-30040637D01*
X71431565Y-29985123D01*
X71343106Y-29974500D01*
X71343102Y-29974500D01*
X70756898Y-29974500D01*
X70756893Y-29974500D01*
X70668434Y-29985123D01*
X70527660Y-30040637D01*
X70527656Y-30040640D01*
X70407081Y-30132075D01*
X70407075Y-30132081D01*
X70315640Y-30252656D01*
X70315637Y-30252660D01*
X70260123Y-30393434D01*
X70249500Y-30481893D01*
X70249500Y-30926970D01*
X70230593Y-30985161D01*
X70181093Y-31021125D01*
X70124879Y-31022597D01*
X70121159Y-31021600D01*
X70121157Y-31021600D01*
X69963043Y-31021600D01*
X69810316Y-31062523D01*
X69673384Y-31141580D01*
X69561580Y-31253384D01*
X69482523Y-31390316D01*
X69448284Y-31518100D01*
X69441600Y-31543044D01*
X69441600Y-31701156D01*
X69442447Y-31707589D01*
X69440776Y-31707808D01*
X69438002Y-31760777D01*
X69399497Y-31808328D01*
X69345577Y-31824300D01*
X63656700Y-31824300D01*
X63598509Y-31805393D01*
X63586696Y-31795304D01*
X63004496Y-31213103D01*
X62976719Y-31158586D01*
X62975500Y-31143099D01*
X62975500Y-30708857D01*
X62975499Y-30708851D01*
X62965359Y-30624410D01*
X62938861Y-30557217D01*
X62912365Y-30490027D01*
X62912364Y-30490026D01*
X62912364Y-30490025D01*
X62825078Y-30374922D01*
X62709975Y-30287636D01*
X62709974Y-30287635D01*
X62709972Y-30287634D01*
X62575591Y-30234641D01*
X62491148Y-30224500D01*
X62491144Y-30224500D01*
X61958856Y-30224500D01*
X61958851Y-30224500D01*
X61874408Y-30234641D01*
X61740027Y-30287634D01*
X61624922Y-30374922D01*
X61537634Y-30490027D01*
X61484641Y-30624408D01*
X61474500Y-30708851D01*
X61474500Y-31122600D01*
X61455593Y-31180791D01*
X61406093Y-31216755D01*
X61375500Y-31221600D01*
X60203344Y-31221600D01*
X60145153Y-31202693D01*
X60133341Y-31192604D01*
X60082318Y-31141582D01*
X60082316Y-31141580D01*
X59945384Y-31062523D01*
X59792657Y-31021600D01*
X59634543Y-31021600D01*
X59481816Y-31062523D01*
X59344884Y-31141580D01*
X59233080Y-31253384D01*
X59154023Y-31390316D01*
X59113100Y-31543043D01*
X56400500Y-31543043D01*
X56400500Y-29856898D01*
X56389877Y-29768436D01*
X56334361Y-29627658D01*
X56242922Y-29507078D01*
X56122342Y-29415639D01*
X56122341Y-29415638D01*
X56122339Y-29415637D01*
X55981565Y-29360123D01*
X55893106Y-29349500D01*
X55893102Y-29349500D01*
X55156898Y-29349500D01*
X55156893Y-29349500D01*
X55068434Y-29360123D01*
X54927660Y-29415637D01*
X54927656Y-29415640D01*
X54807081Y-29507075D01*
X54807075Y-29507081D01*
X54715640Y-29627656D01*
X54715637Y-29627660D01*
X54660123Y-29768434D01*
X54649500Y-29856893D01*
X54649500Y-31122600D01*
X54630593Y-31180791D01*
X54581093Y-31216755D01*
X54550500Y-31221600D01*
X53357644Y-31221600D01*
X53299453Y-31202693D01*
X53287641Y-31192604D01*
X53236618Y-31141582D01*
X53236616Y-31141580D01*
X53099684Y-31062523D01*
X52946957Y-31021600D01*
X52788843Y-31021600D01*
X52636116Y-31062523D01*
X52499184Y-31141580D01*
X52387380Y-31253384D01*
X52308323Y-31390316D01*
X52267400Y-31543043D01*
X10500500Y-31543043D01*
X10500500Y-21455029D01*
X27699500Y-21455029D01*
X27699500Y-22544970D01*
X27714630Y-22679249D01*
X27714633Y-22679261D01*
X27774211Y-22849522D01*
X27774211Y-22849523D01*
X27867253Y-22997598D01*
X27870184Y-23002262D01*
X27997738Y-23129816D01*
X27997740Y-23129817D01*
X27997741Y-23129818D01*
X28117742Y-23205220D01*
X28150478Y-23225789D01*
X28218657Y-23249646D01*
X28320738Y-23285366D01*
X28320742Y-23285367D01*
X28320745Y-23285368D01*
X28320746Y-23285368D01*
X28320750Y-23285369D01*
X28455029Y-23300499D01*
X28455045Y-23300499D01*
X28455046Y-23300500D01*
X28455047Y-23300500D01*
X29544953Y-23300500D01*
X29544954Y-23300500D01*
X29544955Y-23300499D01*
X29544970Y-23300499D01*
X29679249Y-23285369D01*
X29679251Y-23285368D01*
X29679255Y-23285368D01*
X29849522Y-23225789D01*
X30002262Y-23129816D01*
X30129816Y-23002262D01*
X30225789Y-22849522D01*
X30285368Y-22679255D01*
X30285369Y-22679249D01*
X30300499Y-22544970D01*
X30300500Y-22544953D01*
X30300500Y-22499500D01*
X30319407Y-22441309D01*
X30368907Y-22405345D01*
X30399500Y-22400500D01*
X32600500Y-22400500D01*
X32658691Y-22419407D01*
X32694655Y-22468907D01*
X32699500Y-22499500D01*
X32699500Y-22544970D01*
X32714630Y-22679249D01*
X32714633Y-22679261D01*
X32774211Y-22849522D01*
X32774211Y-22849523D01*
X32867253Y-22997598D01*
X32870184Y-23002262D01*
X32997738Y-23129816D01*
X32997740Y-23129817D01*
X32997741Y-23129818D01*
X33117742Y-23205220D01*
X33150478Y-23225789D01*
X33218657Y-23249646D01*
X33320738Y-23285366D01*
X33320742Y-23285367D01*
X33320745Y-23285368D01*
X33320746Y-23285368D01*
X33320750Y-23285369D01*
X33455029Y-23300499D01*
X33455045Y-23300499D01*
X33455046Y-23300500D01*
X33455047Y-23300500D01*
X34544953Y-23300500D01*
X34544954Y-23300500D01*
X34544955Y-23300499D01*
X34544970Y-23300499D01*
X34679249Y-23285369D01*
X34679251Y-23285368D01*
X34679255Y-23285368D01*
X34849522Y-23225789D01*
X35002262Y-23129816D01*
X35129816Y-23002262D01*
X35225789Y-22849522D01*
X35285368Y-22679255D01*
X35285369Y-22679249D01*
X35300499Y-22544970D01*
X35300500Y-22544953D01*
X35300500Y-21897644D01*
X42699500Y-21897644D01*
X42699500Y-22102355D01*
X42731521Y-22304529D01*
X42794780Y-22499219D01*
X42887712Y-22681609D01*
X42887714Y-22681613D01*
X43008029Y-22847213D01*
X43008031Y-22847215D01*
X43008034Y-22847219D01*
X43152781Y-22991966D01*
X43152784Y-22991968D01*
X43152786Y-22991970D01*
X43318386Y-23112285D01*
X43318390Y-23112287D01*
X43500781Y-23205220D01*
X43695466Y-23268477D01*
X43695467Y-23268477D01*
X43695470Y-23268478D01*
X43897645Y-23300500D01*
X43897648Y-23300500D01*
X44102355Y-23300500D01*
X44304529Y-23268478D01*
X44304530Y-23268477D01*
X44304534Y-23268477D01*
X44499219Y-23205220D01*
X44681610Y-23112287D01*
X44847219Y-22991966D01*
X44991966Y-22847219D01*
X45112287Y-22681610D01*
X45205220Y-22499219D01*
X45205224Y-22499208D01*
X45215070Y-22468907D01*
X45251034Y-22419407D01*
X45309224Y-22400500D01*
X47690776Y-22400500D01*
X47748967Y-22419407D01*
X47784930Y-22468907D01*
X47794775Y-22499208D01*
X47794778Y-22499215D01*
X47794780Y-22499219D01*
X47828034Y-22564484D01*
X47887712Y-22681609D01*
X47887714Y-22681613D01*
X48008029Y-22847213D01*
X48008031Y-22847215D01*
X48008034Y-22847219D01*
X48152781Y-22991966D01*
X48152784Y-22991968D01*
X48152786Y-22991970D01*
X48318386Y-23112285D01*
X48318390Y-23112287D01*
X48500781Y-23205220D01*
X48695466Y-23268477D01*
X48695467Y-23268477D01*
X48695470Y-23268478D01*
X48897645Y-23300500D01*
X48897648Y-23300500D01*
X49102355Y-23300500D01*
X49304529Y-23268478D01*
X49304530Y-23268477D01*
X49304534Y-23268477D01*
X49499219Y-23205220D01*
X49681610Y-23112287D01*
X49847219Y-22991966D01*
X49985042Y-22854143D01*
X51917200Y-22854143D01*
X51917200Y-23012257D01*
X51958123Y-23164984D01*
X52037180Y-23301916D01*
X52148984Y-23413720D01*
X52285916Y-23492777D01*
X52438643Y-23533700D01*
X52438645Y-23533700D01*
X52596755Y-23533700D01*
X52596757Y-23533700D01*
X52749484Y-23492777D01*
X52886416Y-23413720D01*
X52911929Y-23388206D01*
X52937441Y-23362696D01*
X52991958Y-23334919D01*
X53007444Y-23333700D01*
X54119525Y-23333700D01*
X54119527Y-23333700D01*
X54221388Y-23306407D01*
X54221390Y-23306405D01*
X54221392Y-23306405D01*
X54312708Y-23253683D01*
X54312708Y-23253682D01*
X54312713Y-23253680D01*
X54336898Y-23229494D01*
X54391413Y-23201719D01*
X54406900Y-23200500D01*
X56043100Y-23200500D01*
X56043102Y-23200500D01*
X56131564Y-23189877D01*
X56272342Y-23134361D01*
X56392922Y-23042922D01*
X56484361Y-22922342D01*
X56539877Y-22781564D01*
X56550500Y-22693102D01*
X56550500Y-21306898D01*
X56539877Y-21218436D01*
X56484361Y-21077658D01*
X56392922Y-20957078D01*
X56272342Y-20865639D01*
X56272341Y-20865638D01*
X56272339Y-20865637D01*
X56131565Y-20810123D01*
X56043106Y-20799500D01*
X56043102Y-20799500D01*
X53956898Y-20799500D01*
X53956893Y-20799500D01*
X53868434Y-20810123D01*
X53727660Y-20865637D01*
X53727656Y-20865640D01*
X53607081Y-20957075D01*
X53607075Y-20957081D01*
X53515640Y-21077656D01*
X53515637Y-21077660D01*
X53460123Y-21218434D01*
X53449500Y-21306893D01*
X53449500Y-22433700D01*
X53430593Y-22491891D01*
X53381093Y-22527855D01*
X53350500Y-22532700D01*
X53007444Y-22532700D01*
X52949253Y-22513793D01*
X52937441Y-22503704D01*
X52886418Y-22452682D01*
X52886416Y-22452680D01*
X52749484Y-22373623D01*
X52596757Y-22332700D01*
X52438643Y-22332700D01*
X52285916Y-22373623D01*
X52148984Y-22452680D01*
X52037180Y-22564484D01*
X51958123Y-22701416D01*
X51917200Y-22854143D01*
X49985042Y-22854143D01*
X49991966Y-22847219D01*
X50112287Y-22681610D01*
X50205220Y-22499219D01*
X50268477Y-22304534D01*
X50300500Y-22102352D01*
X50300500Y-21897648D01*
X50300500Y-21897644D01*
X50268478Y-21695470D01*
X50268477Y-21695466D01*
X50205220Y-21500781D01*
X50112287Y-21318390D01*
X50112285Y-21318386D01*
X49991970Y-21152786D01*
X49991968Y-21152784D01*
X49991966Y-21152781D01*
X49847219Y-21008034D01*
X49847215Y-21008031D01*
X49847213Y-21008029D01*
X49681613Y-20887714D01*
X49681609Y-20887712D01*
X49499219Y-20794780D01*
X49304529Y-20731521D01*
X49102355Y-20699500D01*
X49102352Y-20699500D01*
X48897648Y-20699500D01*
X48897645Y-20699500D01*
X48695470Y-20731521D01*
X48500780Y-20794780D01*
X48318390Y-20887712D01*
X48318386Y-20887714D01*
X48152786Y-21008029D01*
X48008029Y-21152786D01*
X47887714Y-21318386D01*
X47887712Y-21318390D01*
X47794775Y-21500791D01*
X47784930Y-21531093D01*
X47748966Y-21580593D01*
X47690776Y-21599500D01*
X45309224Y-21599500D01*
X45251033Y-21580593D01*
X45215070Y-21531093D01*
X45205224Y-21500791D01*
X45205221Y-21500786D01*
X45205220Y-21500781D01*
X45112287Y-21318390D01*
X45112285Y-21318386D01*
X44991970Y-21152786D01*
X44991968Y-21152784D01*
X44991966Y-21152781D01*
X44847219Y-21008034D01*
X44847215Y-21008031D01*
X44847213Y-21008029D01*
X44681613Y-20887714D01*
X44681609Y-20887712D01*
X44499219Y-20794780D01*
X44304529Y-20731521D01*
X44102355Y-20699500D01*
X44102352Y-20699500D01*
X43897648Y-20699500D01*
X43897645Y-20699500D01*
X43695470Y-20731521D01*
X43500780Y-20794780D01*
X43318390Y-20887712D01*
X43318386Y-20887714D01*
X43152786Y-21008029D01*
X43008029Y-21152786D01*
X42887714Y-21318386D01*
X42887712Y-21318390D01*
X42794780Y-21500780D01*
X42731521Y-21695470D01*
X42699500Y-21897644D01*
X35300500Y-21897644D01*
X35300500Y-21455046D01*
X35300499Y-21455029D01*
X35285369Y-21320750D01*
X35285366Y-21320738D01*
X35261014Y-21251145D01*
X35225789Y-21150478D01*
X35180034Y-21077660D01*
X35129818Y-20997741D01*
X35129817Y-20997740D01*
X35129816Y-20997738D01*
X35002262Y-20870184D01*
X35002259Y-20870182D01*
X35002258Y-20870181D01*
X34849523Y-20774211D01*
X34679261Y-20714633D01*
X34679249Y-20714630D01*
X34544970Y-20699500D01*
X34544954Y-20699500D01*
X33455046Y-20699500D01*
X33455029Y-20699500D01*
X33320750Y-20714630D01*
X33320738Y-20714633D01*
X33150477Y-20774211D01*
X33150476Y-20774211D01*
X32997741Y-20870181D01*
X32870181Y-20997741D01*
X32774211Y-21150476D01*
X32774211Y-21150477D01*
X32714633Y-21320738D01*
X32714630Y-21320750D01*
X32699500Y-21455029D01*
X32699500Y-21500500D01*
X32680593Y-21558691D01*
X32631093Y-21594655D01*
X32600500Y-21599500D01*
X30399500Y-21599500D01*
X30341309Y-21580593D01*
X30305345Y-21531093D01*
X30300500Y-21500500D01*
X30300500Y-21455046D01*
X30300499Y-21455029D01*
X30285369Y-21320750D01*
X30285366Y-21320738D01*
X30261014Y-21251145D01*
X30225789Y-21150478D01*
X30180034Y-21077660D01*
X30129818Y-20997741D01*
X30129817Y-20997740D01*
X30129816Y-20997738D01*
X30002262Y-20870184D01*
X30002259Y-20870182D01*
X30002258Y-20870181D01*
X29849523Y-20774211D01*
X29679261Y-20714633D01*
X29679249Y-20714630D01*
X29544970Y-20699500D01*
X29544954Y-20699500D01*
X28455046Y-20699500D01*
X28455029Y-20699500D01*
X28320750Y-20714630D01*
X28320738Y-20714633D01*
X28150477Y-20774211D01*
X28150476Y-20774211D01*
X27997741Y-20870181D01*
X27870181Y-20997741D01*
X27774211Y-21150476D01*
X27774211Y-21150477D01*
X27714633Y-21320738D01*
X27714630Y-21320750D01*
X27699500Y-21455029D01*
X10500500Y-21455029D01*
X10500500Y-19665343D01*
X49304100Y-19665343D01*
X49304100Y-19823457D01*
X49345023Y-19976184D01*
X49424080Y-20113116D01*
X49535884Y-20224920D01*
X49672816Y-20303977D01*
X49825543Y-20344900D01*
X49825545Y-20344900D01*
X49983655Y-20344900D01*
X49983657Y-20344900D01*
X50136384Y-20303977D01*
X50273316Y-20224920D01*
X50298829Y-20199406D01*
X50324341Y-20173896D01*
X50378858Y-20146119D01*
X50394344Y-20144900D01*
X56537499Y-20144900D01*
X56595690Y-20163807D01*
X56607503Y-20173896D01*
X57468486Y-21034879D01*
X57496263Y-21089396D01*
X57490580Y-21141200D01*
X57460123Y-21218435D01*
X57449500Y-21306893D01*
X57449500Y-22693106D01*
X57460123Y-22781565D01*
X57515637Y-22922339D01*
X57515638Y-22922341D01*
X57515639Y-22922342D01*
X57607078Y-23042922D01*
X57727658Y-23134361D01*
X57727659Y-23134361D01*
X57727660Y-23134362D01*
X57798047Y-23162119D01*
X57868436Y-23189877D01*
X57956898Y-23200500D01*
X57956900Y-23200500D01*
X60043100Y-23200500D01*
X60043102Y-23200500D01*
X60131564Y-23189877D01*
X60272342Y-23134361D01*
X60392922Y-23042922D01*
X60484361Y-22922342D01*
X60539877Y-22781564D01*
X60550500Y-22693102D01*
X60550500Y-21306898D01*
X60539877Y-21218436D01*
X60484361Y-21077658D01*
X60392922Y-20957078D01*
X60272342Y-20865639D01*
X60272341Y-20865638D01*
X60272339Y-20865637D01*
X60131565Y-20810123D01*
X60052013Y-20800570D01*
X60052012Y-20800570D01*
X60043104Y-20799500D01*
X60043102Y-20799500D01*
X58406901Y-20799500D01*
X58348710Y-20780593D01*
X58336897Y-20770504D01*
X58271523Y-20705130D01*
X67949500Y-20705130D01*
X67949500Y-23294860D01*
X67949501Y-23294863D01*
X67952414Y-23319990D01*
X67958468Y-23333700D01*
X67997794Y-23422765D01*
X68077235Y-23502206D01*
X68180009Y-23547585D01*
X68205135Y-23550500D01*
X69794864Y-23550499D01*
X69819991Y-23547585D01*
X69922765Y-23502206D01*
X70002206Y-23422765D01*
X70047585Y-23319991D01*
X70050500Y-23294865D01*
X70050499Y-21396532D01*
X73029500Y-21396532D01*
X73029500Y-22603467D01*
X73069869Y-22806418D01*
X73149058Y-22997597D01*
X73237405Y-23129818D01*
X73264023Y-23169655D01*
X73410345Y-23315977D01*
X73582402Y-23430941D01*
X73773580Y-23510130D01*
X73976535Y-23550500D01*
X73976536Y-23550500D01*
X74183464Y-23550500D01*
X74183465Y-23550500D01*
X74386420Y-23510130D01*
X74577598Y-23430941D01*
X74749655Y-23315977D01*
X74895977Y-23169655D01*
X75010941Y-22997598D01*
X75090130Y-22806420D01*
X75130500Y-22603465D01*
X75130500Y-22499500D01*
X75149407Y-22441309D01*
X75198907Y-22405345D01*
X75229500Y-22400500D01*
X78605599Y-22400500D01*
X78663790Y-22419407D01*
X78675603Y-22429496D01*
X81899596Y-25653489D01*
X81927373Y-25708006D01*
X81923037Y-25756189D01*
X81902353Y-25815302D01*
X81899500Y-25845725D01*
X81899500Y-26254274D01*
X81902353Y-26284694D01*
X81902355Y-26284703D01*
X81947207Y-26412883D01*
X82027845Y-26522144D01*
X82027847Y-26522146D01*
X82027850Y-26522150D01*
X82027853Y-26522152D01*
X82027855Y-26522154D01*
X82137116Y-26602792D01*
X82137117Y-26602792D01*
X82137118Y-26602793D01*
X82265301Y-26647646D01*
X82295725Y-26650499D01*
X82295727Y-26650500D01*
X82295734Y-26650500D01*
X83264400Y-26650500D01*
X83322591Y-26669407D01*
X83334404Y-26679496D01*
X83447604Y-26792696D01*
X83475381Y-26847213D01*
X83476600Y-26862700D01*
X83476600Y-27101300D01*
X83457693Y-27159491D01*
X83408193Y-27195455D01*
X83377600Y-27200300D01*
X83158973Y-27200300D01*
X83057113Y-27227593D01*
X83057112Y-27227593D01*
X83057110Y-27227594D01*
X83057109Y-27227594D01*
X82965787Y-27280319D01*
X82925602Y-27320504D01*
X82871085Y-27348281D01*
X82855599Y-27349500D01*
X82295725Y-27349500D01*
X82265305Y-27352353D01*
X82265296Y-27352355D01*
X82137116Y-27397207D01*
X82027855Y-27477845D01*
X82027845Y-27477855D01*
X81947207Y-27587116D01*
X81902355Y-27715296D01*
X81902353Y-27715305D01*
X81899500Y-27745725D01*
X81899500Y-28154274D01*
X81902353Y-28184694D01*
X81902355Y-28184703D01*
X81947207Y-28312883D01*
X82027845Y-28422144D01*
X82027847Y-28422146D01*
X82027850Y-28422150D01*
X82027853Y-28422152D01*
X82027855Y-28422154D01*
X82137116Y-28502792D01*
X82137117Y-28502792D01*
X82137118Y-28502793D01*
X82265301Y-28547646D01*
X82295725Y-28550499D01*
X82295727Y-28550500D01*
X82295734Y-28550500D01*
X83429273Y-28550500D01*
X83429273Y-28550499D01*
X83459699Y-28547646D01*
X83587882Y-28502793D01*
X83697150Y-28422150D01*
X83777793Y-28312882D01*
X83822646Y-28184699D01*
X83825499Y-28154273D01*
X83825500Y-28154273D01*
X83825500Y-28100300D01*
X83844407Y-28042109D01*
X83893907Y-28006145D01*
X83924500Y-28001300D01*
X83929825Y-28001300D01*
X83929827Y-28001300D01*
X84031687Y-27974007D01*
X84031695Y-27974001D01*
X84037609Y-27971553D01*
X84098606Y-27966749D01*
X84150777Y-27998716D01*
X84174194Y-28055242D01*
X84174500Y-28063015D01*
X84174500Y-28154274D01*
X84177353Y-28184694D01*
X84177355Y-28184703D01*
X84222207Y-28312883D01*
X84302845Y-28422144D01*
X84302847Y-28422146D01*
X84302850Y-28422150D01*
X84302853Y-28422152D01*
X84302855Y-28422154D01*
X84412116Y-28502792D01*
X84412117Y-28502792D01*
X84412118Y-28502793D01*
X84540301Y-28547646D01*
X84570725Y-28550499D01*
X84570727Y-28550500D01*
X84570734Y-28550500D01*
X85704273Y-28550500D01*
X85704273Y-28550499D01*
X85734699Y-28547646D01*
X85862882Y-28502793D01*
X85972150Y-28422150D01*
X86052793Y-28312882D01*
X86097646Y-28184699D01*
X86100499Y-28154273D01*
X86100500Y-28154273D01*
X86100500Y-27745727D01*
X86100499Y-27745725D01*
X86097646Y-27715305D01*
X86097646Y-27715301D01*
X86052793Y-27587118D01*
X85997399Y-27512062D01*
X85972154Y-27477855D01*
X85972152Y-27477853D01*
X85972150Y-27477850D01*
X85972146Y-27477847D01*
X85972144Y-27477845D01*
X85862883Y-27397207D01*
X85734703Y-27352355D01*
X85734694Y-27352353D01*
X85704274Y-27349500D01*
X85704266Y-27349500D01*
X84570734Y-27349500D01*
X84570725Y-27349500D01*
X84540305Y-27352353D01*
X84540301Y-27352354D01*
X84409297Y-27398194D01*
X84348127Y-27399566D01*
X84297833Y-27364722D01*
X84277625Y-27306970D01*
X84277600Y-27304749D01*
X84277600Y-26716514D01*
X84277601Y-26716501D01*
X84277601Y-26695250D01*
X84296508Y-26637059D01*
X84346008Y-26601095D01*
X84407194Y-26601095D01*
X84409299Y-26601806D01*
X84412116Y-26602791D01*
X84412118Y-26602793D01*
X84540301Y-26647646D01*
X84570725Y-26650499D01*
X84570727Y-26650500D01*
X84570734Y-26650500D01*
X85704273Y-26650500D01*
X85704273Y-26650499D01*
X85734699Y-26647646D01*
X85862882Y-26602793D01*
X85972150Y-26522150D01*
X86052793Y-26412882D01*
X86093586Y-26296303D01*
X86130651Y-26247622D01*
X86187030Y-26230000D01*
X87937756Y-26230000D01*
X87995947Y-26248907D01*
X88007759Y-26258996D01*
X88033458Y-26284694D01*
X88058784Y-26310020D01*
X88195716Y-26389077D01*
X88348443Y-26430000D01*
X88348445Y-26430000D01*
X88506555Y-26430000D01*
X88506557Y-26430000D01*
X88659284Y-26389077D01*
X88796216Y-26310020D01*
X88908020Y-26198216D01*
X88987077Y-26061284D01*
X89028000Y-25908557D01*
X89028000Y-25750443D01*
X88987077Y-25597716D01*
X88908020Y-25460784D01*
X88796216Y-25348980D01*
X88659284Y-25269923D01*
X88506557Y-25229000D01*
X88348443Y-25229000D01*
X88195716Y-25269923D01*
X88058781Y-25348982D01*
X88007759Y-25400004D01*
X87953242Y-25427781D01*
X87937756Y-25429000D01*
X85410727Y-25429000D01*
X85305273Y-25429000D01*
X85241353Y-25446127D01*
X85215731Y-25449500D01*
X84570725Y-25449500D01*
X84540305Y-25452353D01*
X84540296Y-25452355D01*
X84412116Y-25497207D01*
X84302855Y-25577845D01*
X84302845Y-25577855D01*
X84222207Y-25687116D01*
X84177355Y-25815296D01*
X84177353Y-25815305D01*
X84174500Y-25845725D01*
X84174500Y-26147800D01*
X84155593Y-26205991D01*
X84106093Y-26241955D01*
X84044907Y-26241955D01*
X84005496Y-26217804D01*
X83985907Y-26198215D01*
X83854495Y-26066802D01*
X83826719Y-26012287D01*
X83825500Y-25996800D01*
X83825500Y-25845727D01*
X83825499Y-25845725D01*
X83822646Y-25815305D01*
X83822646Y-25815301D01*
X83777793Y-25687118D01*
X83697150Y-25577850D01*
X83697146Y-25577847D01*
X83697144Y-25577845D01*
X83587883Y-25497207D01*
X83459703Y-25452355D01*
X83459694Y-25452353D01*
X83429274Y-25449500D01*
X83429266Y-25449500D01*
X82869401Y-25449500D01*
X82811210Y-25430593D01*
X82799397Y-25420504D01*
X80929391Y-23550498D01*
X79058413Y-21679520D01*
X79058410Y-21679518D01*
X79058409Y-21679517D01*
X79058408Y-21679516D01*
X78967091Y-21626794D01*
X78967093Y-21626794D01*
X78927570Y-21616204D01*
X78865227Y-21599500D01*
X78865225Y-21599500D01*
X75229500Y-21599500D01*
X75171309Y-21580593D01*
X75135345Y-21531093D01*
X75130500Y-21500500D01*
X75130500Y-21396536D01*
X75130499Y-21396532D01*
X75115425Y-21320750D01*
X75090130Y-21193580D01*
X75010941Y-21002402D01*
X74895977Y-20830345D01*
X74749655Y-20684023D01*
X74743648Y-20680009D01*
X74577597Y-20569058D01*
X74386418Y-20489869D01*
X74183467Y-20449500D01*
X74183465Y-20449500D01*
X73976535Y-20449500D01*
X73976532Y-20449500D01*
X73773581Y-20489869D01*
X73582402Y-20569058D01*
X73410348Y-20684020D01*
X73264020Y-20830348D01*
X73149058Y-21002402D01*
X73069869Y-21193581D01*
X73029500Y-21396532D01*
X70050499Y-21396532D01*
X70050499Y-20705136D01*
X70047585Y-20680009D01*
X70002206Y-20577235D01*
X69922765Y-20497794D01*
X69819991Y-20452415D01*
X69819990Y-20452414D01*
X69819988Y-20452414D01*
X69794868Y-20449500D01*
X68205139Y-20449500D01*
X68205136Y-20449501D01*
X68180009Y-20452414D01*
X68077235Y-20497794D01*
X67997794Y-20577235D01*
X67952414Y-20680011D01*
X67949500Y-20705130D01*
X58271523Y-20705130D01*
X57679508Y-20113115D01*
X56990313Y-19423920D01*
X56990310Y-19423918D01*
X56990309Y-19423917D01*
X56990308Y-19423916D01*
X56898991Y-19371194D01*
X56898993Y-19371194D01*
X56859470Y-19360604D01*
X56797127Y-19343900D01*
X56797125Y-19343900D01*
X50394344Y-19343900D01*
X50336153Y-19324993D01*
X50324341Y-19314904D01*
X50273318Y-19263882D01*
X50273316Y-19263880D01*
X50136384Y-19184823D01*
X49983657Y-19143900D01*
X49825543Y-19143900D01*
X49672816Y-19184823D01*
X49535884Y-19263880D01*
X49424080Y-19375684D01*
X49345023Y-19512616D01*
X49304100Y-19665343D01*
X10500500Y-19665343D01*
X10500500Y-10599500D01*
X10519407Y-10541309D01*
X10568907Y-10505345D01*
X10599500Y-10500500D01*
X154400500Y-10500500D01*
X154458691Y-10519407D01*
G37*
%TD.AperFunction*%
%TD*%
M02*
