%TF.GenerationSoftware,KiCad,Pcbnew,10.0.5*%
%TF.CreationDate,2026-08-07T12:52:10+02:00*%
%TF.ProjectId,IDM-RoomSensor-Classic-B-ES1,49444d2d-526f-46f6-9d53-656e736f722d,rev?*%
%TF.SameCoordinates,Original*%
%TF.FileFunction,Legend,Top*%
%TF.FilePolarity,Positive*%
%FSLAX46Y46*%
G04 Gerber Fmt 4.6, Leading zero omitted, Abs format (unit mm)*
G04 Created by KiCad (PCBNEW 10.0.5) date 2026-08-07 12:52:10*
%MOMM*%
%LPD*%
G01*
G04 APERTURE LIST*
G04 Aperture macros list*
%AMRoundRect*
0 Rectangle with rounded corners*
0 $1 Rounding radius*
0 $2 $3 $4 $5 $6 $7 $8 $9 X,Y pos of 4 corners*
0 Add a 4 corners polygon primitive as box body*
4,1,4,$2,$3,$4,$5,$6,$7,$8,$9,$2,$3,0*
0 Add four circle primitives for the rounded corners*
1,1,$1+$1,$2,$3*
1,1,$1+$1,$4,$5*
1,1,$1+$1,$6,$7*
1,1,$1+$1,$8,$9*
0 Add four rect primitives between the rounded corners*
20,1,$1+$1,$2,$3,$4,$5,0*
20,1,$1+$1,$4,$5,$6,$7,0*
20,1,$1+$1,$6,$7,$8,$9,0*
20,1,$1+$1,$8,$9,$2,$3,0*%
G04 Aperture macros list end*
%ADD10C,0.150000*%
%ADD11C,0.120000*%
%ADD12C,3.200000*%
%ADD13RoundRect,0.225000X0.250000X-0.225000X0.250000X0.225000X-0.250000X0.225000X-0.250000X-0.225000X0*%
%ADD14RoundRect,0.200000X0.275000X-0.200000X0.275000X0.200000X-0.275000X0.200000X-0.275000X-0.200000X0*%
%ADD15C,3.000000*%
%ADD16R,1.500000X2.500000*%
%ADD17O,1.500000X2.500000*%
%ADD18RoundRect,0.500000X-0.500000X-0.500000X0.500000X-0.500000X0.500000X0.500000X-0.500000X0.500000X0*%
%ADD19C,2.000000*%
%ADD20R,1.700000X1.700000*%
%ADD21C,1.700000*%
%ADD22RoundRect,0.250000X-1.000000X-0.650000X1.000000X-0.650000X1.000000X0.650000X-1.000000X0.650000X0*%
%ADD23RoundRect,0.150000X-0.875000X-0.150000X0.875000X-0.150000X0.875000X0.150000X-0.875000X0.150000X0*%
%ADD24RoundRect,0.150000X-0.512500X-0.150000X0.512500X-0.150000X0.512500X0.150000X-0.512500X0.150000X0*%
%ADD25R,0.500000X0.300000*%
%ADD26RoundRect,0.225000X-0.225000X-0.250000X0.225000X-0.250000X0.225000X0.250000X-0.225000X0.250000X0*%
%ADD27RoundRect,0.250000X-0.250000X-0.475000X0.250000X-0.475000X0.250000X0.475000X-0.250000X0.475000X0*%
%ADD28R,1.050000X1.500000*%
%ADD29O,1.050000X1.500000*%
%ADD30RoundRect,0.250001X-0.949999X-0.949999X0.949999X-0.949999X0.949999X0.949999X-0.949999X0.949999X0*%
%ADD31C,2.400000*%
%ADD32RoundRect,0.250000X-0.325000X-1.100000X0.325000X-1.100000X0.325000X1.100000X-0.325000X1.100000X0*%
G04 APERTURE END LIST*
D10*
X10942856Y-32828961D02*
X10942856Y-33362295D01*
X10752380Y-32524200D02*
X10561903Y-33095628D01*
X10561903Y-33095628D02*
X11057142Y-33095628D01*
X11285713Y-32562295D02*
X11780951Y-32562295D01*
X11780951Y-32562295D02*
X11514285Y-32867057D01*
X11514285Y-32867057D02*
X11628570Y-32867057D01*
X11628570Y-32867057D02*
X11704761Y-32905152D01*
X11704761Y-32905152D02*
X11742856Y-32943247D01*
X11742856Y-32943247D02*
X11780951Y-33019438D01*
X11780951Y-33019438D02*
X11780951Y-33209914D01*
X11780951Y-33209914D02*
X11742856Y-33286104D01*
X11742856Y-33286104D02*
X11704761Y-33324200D01*
X11704761Y-33324200D02*
X11628570Y-33362295D01*
X11628570Y-33362295D02*
X11399999Y-33362295D01*
X11399999Y-33362295D02*
X11323808Y-33324200D01*
X11323808Y-33324200D02*
X11285713Y-33286104D01*
X12619047Y-32562295D02*
X13076190Y-32562295D01*
X12847618Y-33362295D02*
X12847618Y-32562295D01*
X13342857Y-32943247D02*
X13609523Y-32943247D01*
X13723809Y-33362295D02*
X13342857Y-33362295D01*
X13342857Y-33362295D02*
X13342857Y-32562295D01*
X13342857Y-32562295D02*
X13723809Y-32562295D01*
X14066667Y-33362295D02*
X14066667Y-32562295D01*
X14066667Y-32562295D02*
X14333333Y-33133723D01*
X14333333Y-33133723D02*
X14600000Y-32562295D01*
X14600000Y-32562295D02*
X14600000Y-33362295D01*
X14980953Y-33362295D02*
X14980953Y-32562295D01*
X14980953Y-32562295D02*
X15285715Y-32562295D01*
X15285715Y-32562295D02*
X15361905Y-32600390D01*
X15361905Y-32600390D02*
X15400000Y-32638485D01*
X15400000Y-32638485D02*
X15438096Y-32714676D01*
X15438096Y-32714676D02*
X15438096Y-32828961D01*
X15438096Y-32828961D02*
X15400000Y-32905152D01*
X15400000Y-32905152D02*
X15361905Y-32943247D01*
X15361905Y-32943247D02*
X15285715Y-32981342D01*
X15285715Y-32981342D02*
X14980953Y-32981342D01*
X10866666Y-34828961D02*
X10866666Y-35362295D01*
X10676190Y-34524200D02*
X10485713Y-35095628D01*
X10485713Y-35095628D02*
X10980952Y-35095628D01*
X11247618Y-34638485D02*
X11285714Y-34600390D01*
X11285714Y-34600390D02*
X11361904Y-34562295D01*
X11361904Y-34562295D02*
X11552380Y-34562295D01*
X11552380Y-34562295D02*
X11628571Y-34600390D01*
X11628571Y-34600390D02*
X11666666Y-34638485D01*
X11666666Y-34638485D02*
X11704761Y-34714676D01*
X11704761Y-34714676D02*
X11704761Y-34790866D01*
X11704761Y-34790866D02*
X11666666Y-34905152D01*
X11666666Y-34905152D02*
X11209523Y-35362295D01*
X11209523Y-35362295D02*
X11704761Y-35362295D01*
X12657143Y-35057533D02*
X13266667Y-35057533D01*
X12961905Y-35362295D02*
X12961905Y-34752771D01*
X13609523Y-34638485D02*
X13647619Y-34600390D01*
X13647619Y-34600390D02*
X13723809Y-34562295D01*
X13723809Y-34562295D02*
X13914285Y-34562295D01*
X13914285Y-34562295D02*
X13990476Y-34600390D01*
X13990476Y-34600390D02*
X14028571Y-34638485D01*
X14028571Y-34638485D02*
X14066666Y-34714676D01*
X14066666Y-34714676D02*
X14066666Y-34790866D01*
X14066666Y-34790866D02*
X14028571Y-34905152D01*
X14028571Y-34905152D02*
X13571428Y-35362295D01*
X13571428Y-35362295D02*
X14066666Y-35362295D01*
X14752381Y-34828961D02*
X14752381Y-35362295D01*
X14561905Y-34524200D02*
X14371428Y-35095628D01*
X14371428Y-35095628D02*
X14866667Y-35095628D01*
X15057143Y-34562295D02*
X15323810Y-35362295D01*
X15323810Y-35362295D02*
X15590476Y-34562295D01*
X11247619Y-49828961D02*
X11247619Y-50362295D01*
X11057143Y-49524200D02*
X10866666Y-50095628D01*
X10866666Y-50095628D02*
X11361905Y-50095628D01*
X12085714Y-50362295D02*
X11628571Y-50362295D01*
X11857143Y-50362295D02*
X11857143Y-49562295D01*
X11857143Y-49562295D02*
X11780952Y-49676580D01*
X11780952Y-49676580D02*
X11704762Y-49752771D01*
X11704762Y-49752771D02*
X11628571Y-49790866D01*
X13457143Y-49600390D02*
X13380953Y-49562295D01*
X13380953Y-49562295D02*
X13266667Y-49562295D01*
X13266667Y-49562295D02*
X13152381Y-49600390D01*
X13152381Y-49600390D02*
X13076191Y-49676580D01*
X13076191Y-49676580D02*
X13038096Y-49752771D01*
X13038096Y-49752771D02*
X13000000Y-49905152D01*
X13000000Y-49905152D02*
X13000000Y-50019438D01*
X13000000Y-50019438D02*
X13038096Y-50171819D01*
X13038096Y-50171819D02*
X13076191Y-50248009D01*
X13076191Y-50248009D02*
X13152381Y-50324200D01*
X13152381Y-50324200D02*
X13266667Y-50362295D01*
X13266667Y-50362295D02*
X13342858Y-50362295D01*
X13342858Y-50362295D02*
X13457143Y-50324200D01*
X13457143Y-50324200D02*
X13495239Y-50286104D01*
X13495239Y-50286104D02*
X13495239Y-50019438D01*
X13495239Y-50019438D02*
X13342858Y-50019438D01*
X13838096Y-50362295D02*
X13838096Y-49562295D01*
X13838096Y-49562295D02*
X14295239Y-50362295D01*
X14295239Y-50362295D02*
X14295239Y-49562295D01*
X14676191Y-50362295D02*
X14676191Y-49562295D01*
X14676191Y-49562295D02*
X14866667Y-49562295D01*
X14866667Y-49562295D02*
X14980953Y-49600390D01*
X14980953Y-49600390D02*
X15057143Y-49676580D01*
X15057143Y-49676580D02*
X15095238Y-49752771D01*
X15095238Y-49752771D02*
X15133334Y-49905152D01*
X15133334Y-49905152D02*
X15133334Y-50019438D01*
X15133334Y-50019438D02*
X15095238Y-50171819D01*
X15095238Y-50171819D02*
X15057143Y-50248009D01*
X15057143Y-50248009D02*
X14980953Y-50324200D01*
X14980953Y-50324200D02*
X14866667Y-50362295D01*
X14866667Y-50362295D02*
X14676191Y-50362295D01*
X11647619Y-51828961D02*
X11647619Y-52362295D01*
X11457143Y-51524200D02*
X11266666Y-52095628D01*
X11266666Y-52095628D02*
X11761905Y-52095628D01*
X12219048Y-51562295D02*
X12295238Y-51562295D01*
X12295238Y-51562295D02*
X12371429Y-51600390D01*
X12371429Y-51600390D02*
X12409524Y-51638485D01*
X12409524Y-51638485D02*
X12447619Y-51714676D01*
X12447619Y-51714676D02*
X12485714Y-51867057D01*
X12485714Y-51867057D02*
X12485714Y-52057533D01*
X12485714Y-52057533D02*
X12447619Y-52209914D01*
X12447619Y-52209914D02*
X12409524Y-52286104D01*
X12409524Y-52286104D02*
X12371429Y-52324200D01*
X12371429Y-52324200D02*
X12295238Y-52362295D01*
X12295238Y-52362295D02*
X12219048Y-52362295D01*
X12219048Y-52362295D02*
X12142857Y-52324200D01*
X12142857Y-52324200D02*
X12104762Y-52286104D01*
X12104762Y-52286104D02*
X12066667Y-52209914D01*
X12066667Y-52209914D02*
X12028571Y-52057533D01*
X12028571Y-52057533D02*
X12028571Y-51867057D01*
X12028571Y-51867057D02*
X12066667Y-51714676D01*
X12066667Y-51714676D02*
X12104762Y-51638485D01*
X12104762Y-51638485D02*
X12142857Y-51600390D01*
X12142857Y-51600390D02*
X12219048Y-51562295D01*
X13895239Y-52362295D02*
X13628572Y-51981342D01*
X13438096Y-52362295D02*
X13438096Y-51562295D01*
X13438096Y-51562295D02*
X13742858Y-51562295D01*
X13742858Y-51562295D02*
X13819048Y-51600390D01*
X13819048Y-51600390D02*
X13857143Y-51638485D01*
X13857143Y-51638485D02*
X13895239Y-51714676D01*
X13895239Y-51714676D02*
X13895239Y-51828961D01*
X13895239Y-51828961D02*
X13857143Y-51905152D01*
X13857143Y-51905152D02*
X13819048Y-51943247D01*
X13819048Y-51943247D02*
X13742858Y-51981342D01*
X13742858Y-51981342D02*
X13438096Y-51981342D01*
X14238096Y-52362295D02*
X14238096Y-51562295D01*
X14238096Y-51943247D02*
X14695239Y-51943247D01*
X14695239Y-52362295D02*
X14695239Y-51562295D01*
X30952381Y-67362295D02*
X30952381Y-66562295D01*
X31409524Y-67362295D02*
X31066666Y-66905152D01*
X31409524Y-66562295D02*
X30952381Y-67019438D01*
X31638095Y-66562295D02*
X32095238Y-66562295D01*
X31866666Y-67362295D02*
X31866666Y-66562295D01*
X32514286Y-66981342D02*
X32514286Y-67362295D01*
X32247619Y-66562295D02*
X32514286Y-66981342D01*
X32514286Y-66981342D02*
X32780952Y-66562295D01*
X33161904Y-66905152D02*
X33085714Y-66867057D01*
X33085714Y-66867057D02*
X33047619Y-66828961D01*
X33047619Y-66828961D02*
X33009523Y-66752771D01*
X33009523Y-66752771D02*
X33009523Y-66714676D01*
X33009523Y-66714676D02*
X33047619Y-66638485D01*
X33047619Y-66638485D02*
X33085714Y-66600390D01*
X33085714Y-66600390D02*
X33161904Y-66562295D01*
X33161904Y-66562295D02*
X33314285Y-66562295D01*
X33314285Y-66562295D02*
X33390476Y-66600390D01*
X33390476Y-66600390D02*
X33428571Y-66638485D01*
X33428571Y-66638485D02*
X33466666Y-66714676D01*
X33466666Y-66714676D02*
X33466666Y-66752771D01*
X33466666Y-66752771D02*
X33428571Y-66828961D01*
X33428571Y-66828961D02*
X33390476Y-66867057D01*
X33390476Y-66867057D02*
X33314285Y-66905152D01*
X33314285Y-66905152D02*
X33161904Y-66905152D01*
X33161904Y-66905152D02*
X33085714Y-66943247D01*
X33085714Y-66943247D02*
X33047619Y-66981342D01*
X33047619Y-66981342D02*
X33009523Y-67057533D01*
X33009523Y-67057533D02*
X33009523Y-67209914D01*
X33009523Y-67209914D02*
X33047619Y-67286104D01*
X33047619Y-67286104D02*
X33085714Y-67324200D01*
X33085714Y-67324200D02*
X33161904Y-67362295D01*
X33161904Y-67362295D02*
X33314285Y-67362295D01*
X33314285Y-67362295D02*
X33390476Y-67324200D01*
X33390476Y-67324200D02*
X33428571Y-67286104D01*
X33428571Y-67286104D02*
X33466666Y-67209914D01*
X33466666Y-67209914D02*
X33466666Y-67057533D01*
X33466666Y-67057533D02*
X33428571Y-66981342D01*
X33428571Y-66981342D02*
X33390476Y-66943247D01*
X33390476Y-66943247D02*
X33314285Y-66905152D01*
X34228571Y-67362295D02*
X33771428Y-67362295D01*
X34000000Y-67362295D02*
X34000000Y-66562295D01*
X34000000Y-66562295D02*
X33923809Y-66676580D01*
X33923809Y-66676580D02*
X33847619Y-66752771D01*
X33847619Y-66752771D02*
X33771428Y-66790866D01*
X35142857Y-66524200D02*
X34457143Y-67552771D01*
X35371428Y-66638485D02*
X35409524Y-66600390D01*
X35409524Y-66600390D02*
X35485714Y-66562295D01*
X35485714Y-66562295D02*
X35676190Y-66562295D01*
X35676190Y-66562295D02*
X35752381Y-66600390D01*
X35752381Y-66600390D02*
X35790476Y-66638485D01*
X35790476Y-66638485D02*
X35828571Y-66714676D01*
X35828571Y-66714676D02*
X35828571Y-66790866D01*
X35828571Y-66790866D02*
X35790476Y-66905152D01*
X35790476Y-66905152D02*
X35333333Y-67362295D01*
X35333333Y-67362295D02*
X35828571Y-67362295D01*
X36590476Y-67362295D02*
X36133333Y-67362295D01*
X36361905Y-67362295D02*
X36361905Y-66562295D01*
X36361905Y-66562295D02*
X36285714Y-66676580D01*
X36285714Y-66676580D02*
X36209524Y-66752771D01*
X36209524Y-66752771D02*
X36133333Y-66790866D01*
X37085715Y-66562295D02*
X37161905Y-66562295D01*
X37161905Y-66562295D02*
X37238096Y-66600390D01*
X37238096Y-66600390D02*
X37276191Y-66638485D01*
X37276191Y-66638485D02*
X37314286Y-66714676D01*
X37314286Y-66714676D02*
X37352381Y-66867057D01*
X37352381Y-66867057D02*
X37352381Y-67057533D01*
X37352381Y-67057533D02*
X37314286Y-67209914D01*
X37314286Y-67209914D02*
X37276191Y-67286104D01*
X37276191Y-67286104D02*
X37238096Y-67324200D01*
X37238096Y-67324200D02*
X37161905Y-67362295D01*
X37161905Y-67362295D02*
X37085715Y-67362295D01*
X37085715Y-67362295D02*
X37009524Y-67324200D01*
X37009524Y-67324200D02*
X36971429Y-67286104D01*
X36971429Y-67286104D02*
X36933334Y-67209914D01*
X36933334Y-67209914D02*
X36895238Y-67057533D01*
X36895238Y-67057533D02*
X36895238Y-66867057D01*
X36895238Y-66867057D02*
X36933334Y-66714676D01*
X36933334Y-66714676D02*
X36971429Y-66638485D01*
X36971429Y-66638485D02*
X37009524Y-66600390D01*
X37009524Y-66600390D02*
X37085715Y-66562295D01*
X38304763Y-67057533D02*
X38914287Y-67057533D01*
X39790477Y-66562295D02*
X40057144Y-67362295D01*
X40057144Y-67362295D02*
X40323810Y-66562295D01*
X40590477Y-66943247D02*
X40857143Y-66943247D01*
X40971429Y-67362295D02*
X40590477Y-67362295D01*
X40590477Y-67362295D02*
X40590477Y-66562295D01*
X40590477Y-66562295D02*
X40971429Y-66562295D01*
X41771430Y-67362295D02*
X41504763Y-66981342D01*
X41314287Y-67362295D02*
X41314287Y-66562295D01*
X41314287Y-66562295D02*
X41619049Y-66562295D01*
X41619049Y-66562295D02*
X41695239Y-66600390D01*
X41695239Y-66600390D02*
X41733334Y-66638485D01*
X41733334Y-66638485D02*
X41771430Y-66714676D01*
X41771430Y-66714676D02*
X41771430Y-66828961D01*
X41771430Y-66828961D02*
X41733334Y-66905152D01*
X41733334Y-66905152D02*
X41695239Y-66943247D01*
X41695239Y-66943247D02*
X41619049Y-66981342D01*
X41619049Y-66981342D02*
X41314287Y-66981342D01*
X42114287Y-67362295D02*
X42114287Y-66562295D01*
X42761905Y-66943247D02*
X42495239Y-66943247D01*
X42495239Y-67362295D02*
X42495239Y-66562295D01*
X42495239Y-66562295D02*
X42876191Y-66562295D01*
X43333334Y-66981342D02*
X43333334Y-67362295D01*
X43066667Y-66562295D02*
X43333334Y-66981342D01*
X43333334Y-66981342D02*
X43600000Y-66562295D01*
X44476191Y-67362295D02*
X44476191Y-66562295D01*
X44857143Y-67362295D02*
X44857143Y-66562295D01*
X44857143Y-66562295D02*
X45047619Y-66562295D01*
X45047619Y-66562295D02*
X45161905Y-66600390D01*
X45161905Y-66600390D02*
X45238095Y-66676580D01*
X45238095Y-66676580D02*
X45276190Y-66752771D01*
X45276190Y-66752771D02*
X45314286Y-66905152D01*
X45314286Y-66905152D02*
X45314286Y-67019438D01*
X45314286Y-67019438D02*
X45276190Y-67171819D01*
X45276190Y-67171819D02*
X45238095Y-67248009D01*
X45238095Y-67248009D02*
X45161905Y-67324200D01*
X45161905Y-67324200D02*
X45047619Y-67362295D01*
X45047619Y-67362295D02*
X44857143Y-67362295D01*
X45657143Y-67362295D02*
X45657143Y-66562295D01*
X45657143Y-66562295D02*
X45923809Y-67133723D01*
X45923809Y-67133723D02*
X46190476Y-66562295D01*
X46190476Y-66562295D02*
X46190476Y-67362295D01*
X47180953Y-67362295D02*
X47180953Y-66562295D01*
X47561905Y-67362295D02*
X47561905Y-66562295D01*
X47561905Y-66562295D02*
X48019048Y-67362295D01*
X48019048Y-67362295D02*
X48019048Y-66562295D01*
X48285714Y-66562295D02*
X48742857Y-66562295D01*
X48514285Y-67362295D02*
X48514285Y-66562295D01*
X49009524Y-66943247D02*
X49276190Y-66943247D01*
X49390476Y-67362295D02*
X49009524Y-67362295D01*
X49009524Y-67362295D02*
X49009524Y-66562295D01*
X49009524Y-66562295D02*
X49390476Y-66562295D01*
X50190477Y-67362295D02*
X49923810Y-66981342D01*
X49733334Y-67362295D02*
X49733334Y-66562295D01*
X49733334Y-66562295D02*
X50038096Y-66562295D01*
X50038096Y-66562295D02*
X50114286Y-66600390D01*
X50114286Y-66600390D02*
X50152381Y-66638485D01*
X50152381Y-66638485D02*
X50190477Y-66714676D01*
X50190477Y-66714676D02*
X50190477Y-66828961D01*
X50190477Y-66828961D02*
X50152381Y-66905152D01*
X50152381Y-66905152D02*
X50114286Y-66943247D01*
X50114286Y-66943247D02*
X50038096Y-66981342D01*
X50038096Y-66981342D02*
X49733334Y-66981342D01*
X50800000Y-66943247D02*
X50533334Y-66943247D01*
X50533334Y-67362295D02*
X50533334Y-66562295D01*
X50533334Y-66562295D02*
X50914286Y-66562295D01*
X51180952Y-67133723D02*
X51561905Y-67133723D01*
X51104762Y-67362295D02*
X51371429Y-66562295D01*
X51371429Y-66562295D02*
X51638095Y-67362295D01*
X52361905Y-67286104D02*
X52323809Y-67324200D01*
X52323809Y-67324200D02*
X52209524Y-67362295D01*
X52209524Y-67362295D02*
X52133333Y-67362295D01*
X52133333Y-67362295D02*
X52019047Y-67324200D01*
X52019047Y-67324200D02*
X51942857Y-67248009D01*
X51942857Y-67248009D02*
X51904762Y-67171819D01*
X51904762Y-67171819D02*
X51866666Y-67019438D01*
X51866666Y-67019438D02*
X51866666Y-66905152D01*
X51866666Y-66905152D02*
X51904762Y-66752771D01*
X51904762Y-66752771D02*
X51942857Y-66676580D01*
X51942857Y-66676580D02*
X52019047Y-66600390D01*
X52019047Y-66600390D02*
X52133333Y-66562295D01*
X52133333Y-66562295D02*
X52209524Y-66562295D01*
X52209524Y-66562295D02*
X52323809Y-66600390D01*
X52323809Y-66600390D02*
X52361905Y-66638485D01*
X52704762Y-66943247D02*
X52971428Y-66943247D01*
X53085714Y-67362295D02*
X52704762Y-67362295D01*
X52704762Y-67362295D02*
X52704762Y-66562295D01*
X52704762Y-66562295D02*
X53085714Y-66562295D01*
X33942856Y-69638485D02*
X33980952Y-69600390D01*
X33980952Y-69600390D02*
X34057142Y-69562295D01*
X34057142Y-69562295D02*
X34247618Y-69562295D01*
X34247618Y-69562295D02*
X34323809Y-69600390D01*
X34323809Y-69600390D02*
X34361904Y-69638485D01*
X34361904Y-69638485D02*
X34399999Y-69714676D01*
X34399999Y-69714676D02*
X34399999Y-69790866D01*
X34399999Y-69790866D02*
X34361904Y-69905152D01*
X34361904Y-69905152D02*
X33904761Y-70362295D01*
X33904761Y-70362295D02*
X34399999Y-70362295D01*
X35085714Y-69828961D02*
X35085714Y-70362295D01*
X34895238Y-69524200D02*
X34704761Y-70095628D01*
X34704761Y-70095628D02*
X35200000Y-70095628D01*
X36000000Y-69562295D02*
X36266667Y-70362295D01*
X36266667Y-70362295D02*
X36533333Y-69562295D01*
X37676190Y-69943247D02*
X37790476Y-69981342D01*
X37790476Y-69981342D02*
X37828571Y-70019438D01*
X37828571Y-70019438D02*
X37866667Y-70095628D01*
X37866667Y-70095628D02*
X37866667Y-70209914D01*
X37866667Y-70209914D02*
X37828571Y-70286104D01*
X37828571Y-70286104D02*
X37790476Y-70324200D01*
X37790476Y-70324200D02*
X37714286Y-70362295D01*
X37714286Y-70362295D02*
X37409524Y-70362295D01*
X37409524Y-70362295D02*
X37409524Y-69562295D01*
X37409524Y-69562295D02*
X37676190Y-69562295D01*
X37676190Y-69562295D02*
X37752381Y-69600390D01*
X37752381Y-69600390D02*
X37790476Y-69638485D01*
X37790476Y-69638485D02*
X37828571Y-69714676D01*
X37828571Y-69714676D02*
X37828571Y-69790866D01*
X37828571Y-69790866D02*
X37790476Y-69867057D01*
X37790476Y-69867057D02*
X37752381Y-69905152D01*
X37752381Y-69905152D02*
X37676190Y-69943247D01*
X37676190Y-69943247D02*
X37409524Y-69943247D01*
X38209524Y-69943247D02*
X38476190Y-69943247D01*
X38590476Y-70362295D02*
X38209524Y-70362295D01*
X38209524Y-70362295D02*
X38209524Y-69562295D01*
X38209524Y-69562295D02*
X38590476Y-69562295D01*
X38933334Y-70362295D02*
X38933334Y-69562295D01*
X38933334Y-69562295D02*
X39390477Y-70362295D01*
X39390477Y-70362295D02*
X39390477Y-69562295D01*
X40228572Y-70286104D02*
X40190476Y-70324200D01*
X40190476Y-70324200D02*
X40076191Y-70362295D01*
X40076191Y-70362295D02*
X40000000Y-70362295D01*
X40000000Y-70362295D02*
X39885714Y-70324200D01*
X39885714Y-70324200D02*
X39809524Y-70248009D01*
X39809524Y-70248009D02*
X39771429Y-70171819D01*
X39771429Y-70171819D02*
X39733333Y-70019438D01*
X39733333Y-70019438D02*
X39733333Y-69905152D01*
X39733333Y-69905152D02*
X39771429Y-69752771D01*
X39771429Y-69752771D02*
X39809524Y-69676580D01*
X39809524Y-69676580D02*
X39885714Y-69600390D01*
X39885714Y-69600390D02*
X40000000Y-69562295D01*
X40000000Y-69562295D02*
X40076191Y-69562295D01*
X40076191Y-69562295D02*
X40190476Y-69600390D01*
X40190476Y-69600390D02*
X40228572Y-69638485D01*
X40571429Y-70362295D02*
X40571429Y-69562295D01*
X40571429Y-69943247D02*
X41028572Y-69943247D01*
X41028572Y-70362295D02*
X41028572Y-69562295D01*
X41980952Y-70324200D02*
X42095238Y-70362295D01*
X42095238Y-70362295D02*
X42285714Y-70362295D01*
X42285714Y-70362295D02*
X42361905Y-70324200D01*
X42361905Y-70324200D02*
X42400000Y-70286104D01*
X42400000Y-70286104D02*
X42438095Y-70209914D01*
X42438095Y-70209914D02*
X42438095Y-70133723D01*
X42438095Y-70133723D02*
X42400000Y-70057533D01*
X42400000Y-70057533D02*
X42361905Y-70019438D01*
X42361905Y-70019438D02*
X42285714Y-69981342D01*
X42285714Y-69981342D02*
X42133333Y-69943247D01*
X42133333Y-69943247D02*
X42057143Y-69905152D01*
X42057143Y-69905152D02*
X42019048Y-69867057D01*
X42019048Y-69867057D02*
X41980952Y-69790866D01*
X41980952Y-69790866D02*
X41980952Y-69714676D01*
X41980952Y-69714676D02*
X42019048Y-69638485D01*
X42019048Y-69638485D02*
X42057143Y-69600390D01*
X42057143Y-69600390D02*
X42133333Y-69562295D01*
X42133333Y-69562295D02*
X42323810Y-69562295D01*
X42323810Y-69562295D02*
X42438095Y-69600390D01*
X42780953Y-69562295D02*
X42780953Y-70209914D01*
X42780953Y-70209914D02*
X42819048Y-70286104D01*
X42819048Y-70286104D02*
X42857143Y-70324200D01*
X42857143Y-70324200D02*
X42933334Y-70362295D01*
X42933334Y-70362295D02*
X43085715Y-70362295D01*
X43085715Y-70362295D02*
X43161905Y-70324200D01*
X43161905Y-70324200D02*
X43200000Y-70286104D01*
X43200000Y-70286104D02*
X43238096Y-70209914D01*
X43238096Y-70209914D02*
X43238096Y-69562295D01*
X43619048Y-70362295D02*
X43619048Y-69562295D01*
X43619048Y-69562295D02*
X43923810Y-69562295D01*
X43923810Y-69562295D02*
X44000000Y-69600390D01*
X44000000Y-69600390D02*
X44038095Y-69638485D01*
X44038095Y-69638485D02*
X44076191Y-69714676D01*
X44076191Y-69714676D02*
X44076191Y-69828961D01*
X44076191Y-69828961D02*
X44038095Y-69905152D01*
X44038095Y-69905152D02*
X44000000Y-69943247D01*
X44000000Y-69943247D02*
X43923810Y-69981342D01*
X43923810Y-69981342D02*
X43619048Y-69981342D01*
X44419048Y-70362295D02*
X44419048Y-69562295D01*
X44419048Y-69562295D02*
X44723810Y-69562295D01*
X44723810Y-69562295D02*
X44800000Y-69600390D01*
X44800000Y-69600390D02*
X44838095Y-69638485D01*
X44838095Y-69638485D02*
X44876191Y-69714676D01*
X44876191Y-69714676D02*
X44876191Y-69828961D01*
X44876191Y-69828961D02*
X44838095Y-69905152D01*
X44838095Y-69905152D02*
X44800000Y-69943247D01*
X44800000Y-69943247D02*
X44723810Y-69981342D01*
X44723810Y-69981342D02*
X44419048Y-69981342D01*
X45600000Y-70362295D02*
X45219048Y-70362295D01*
X45219048Y-70362295D02*
X45219048Y-69562295D01*
X46019048Y-69981342D02*
X46019048Y-70362295D01*
X45752381Y-69562295D02*
X46019048Y-69981342D01*
X46019048Y-69981342D02*
X46285714Y-69562295D01*
X47428571Y-69943247D02*
X47161905Y-69943247D01*
X47161905Y-70362295D02*
X47161905Y-69562295D01*
X47161905Y-69562295D02*
X47542857Y-69562295D01*
X47847619Y-70362295D02*
X47847619Y-69562295D01*
X48685714Y-70362295D02*
X48419047Y-69981342D01*
X48228571Y-70362295D02*
X48228571Y-69562295D01*
X48228571Y-69562295D02*
X48533333Y-69562295D01*
X48533333Y-69562295D02*
X48609523Y-69600390D01*
X48609523Y-69600390D02*
X48647618Y-69638485D01*
X48647618Y-69638485D02*
X48685714Y-69714676D01*
X48685714Y-69714676D02*
X48685714Y-69828961D01*
X48685714Y-69828961D02*
X48647618Y-69905152D01*
X48647618Y-69905152D02*
X48609523Y-69943247D01*
X48609523Y-69943247D02*
X48533333Y-69981342D01*
X48533333Y-69981342D02*
X48228571Y-69981342D01*
X48990475Y-70324200D02*
X49104761Y-70362295D01*
X49104761Y-70362295D02*
X49295237Y-70362295D01*
X49295237Y-70362295D02*
X49371428Y-70324200D01*
X49371428Y-70324200D02*
X49409523Y-70286104D01*
X49409523Y-70286104D02*
X49447618Y-70209914D01*
X49447618Y-70209914D02*
X49447618Y-70133723D01*
X49447618Y-70133723D02*
X49409523Y-70057533D01*
X49409523Y-70057533D02*
X49371428Y-70019438D01*
X49371428Y-70019438D02*
X49295237Y-69981342D01*
X49295237Y-69981342D02*
X49142856Y-69943247D01*
X49142856Y-69943247D02*
X49066666Y-69905152D01*
X49066666Y-69905152D02*
X49028571Y-69867057D01*
X49028571Y-69867057D02*
X48990475Y-69790866D01*
X48990475Y-69790866D02*
X48990475Y-69714676D01*
X48990475Y-69714676D02*
X49028571Y-69638485D01*
X49028571Y-69638485D02*
X49066666Y-69600390D01*
X49066666Y-69600390D02*
X49142856Y-69562295D01*
X49142856Y-69562295D02*
X49333333Y-69562295D01*
X49333333Y-69562295D02*
X49447618Y-69600390D01*
X49676190Y-69562295D02*
X50133333Y-69562295D01*
X49904761Y-70362295D02*
X49904761Y-69562295D01*
X67471429Y-73937128D02*
X67771429Y-73937128D01*
X67900001Y-74408557D02*
X67471429Y-74408557D01*
X67471429Y-74408557D02*
X67471429Y-73508557D01*
X67471429Y-73508557D02*
X67900001Y-73508557D01*
X68285715Y-74408557D02*
X68285715Y-73508557D01*
X68285715Y-73508557D02*
X68800001Y-74408557D01*
X68800001Y-74408557D02*
X68800001Y-73508557D01*
X69700001Y-73551414D02*
X69614287Y-73508557D01*
X69614287Y-73508557D02*
X69485715Y-73508557D01*
X69485715Y-73508557D02*
X69357144Y-73551414D01*
X69357144Y-73551414D02*
X69271429Y-73637128D01*
X69271429Y-73637128D02*
X69228572Y-73722842D01*
X69228572Y-73722842D02*
X69185715Y-73894271D01*
X69185715Y-73894271D02*
X69185715Y-74022842D01*
X69185715Y-74022842D02*
X69228572Y-74194271D01*
X69228572Y-74194271D02*
X69271429Y-74279985D01*
X69271429Y-74279985D02*
X69357144Y-74365700D01*
X69357144Y-74365700D02*
X69485715Y-74408557D01*
X69485715Y-74408557D02*
X69571429Y-74408557D01*
X69571429Y-74408557D02*
X69700001Y-74365700D01*
X69700001Y-74365700D02*
X69742858Y-74322842D01*
X69742858Y-74322842D02*
X69742858Y-74022842D01*
X69742858Y-74022842D02*
X69571429Y-74022842D01*
X70128572Y-74408557D02*
X70128572Y-73508557D01*
X70557143Y-74408557D02*
X70557143Y-73508557D01*
X70557143Y-73508557D02*
X71071429Y-74408557D01*
X71071429Y-74408557D02*
X71071429Y-73508557D01*
X71500000Y-73937128D02*
X71800000Y-73937128D01*
X71928572Y-74408557D02*
X71500000Y-74408557D01*
X71500000Y-74408557D02*
X71500000Y-73508557D01*
X71500000Y-73508557D02*
X71928572Y-73508557D01*
X72314286Y-73937128D02*
X72614286Y-73937128D01*
X72742858Y-74408557D02*
X72314286Y-74408557D01*
X72314286Y-74408557D02*
X72314286Y-73508557D01*
X72314286Y-73508557D02*
X72742858Y-73508557D01*
X73642858Y-74408557D02*
X73342858Y-73979985D01*
X73128572Y-74408557D02*
X73128572Y-73508557D01*
X73128572Y-73508557D02*
X73471429Y-73508557D01*
X73471429Y-73508557D02*
X73557144Y-73551414D01*
X73557144Y-73551414D02*
X73600001Y-73594271D01*
X73600001Y-73594271D02*
X73642858Y-73679985D01*
X73642858Y-73679985D02*
X73642858Y-73808557D01*
X73642858Y-73808557D02*
X73600001Y-73894271D01*
X73600001Y-73894271D02*
X73557144Y-73937128D01*
X73557144Y-73937128D02*
X73471429Y-73979985D01*
X73471429Y-73979985D02*
X73128572Y-73979985D01*
X74028572Y-74408557D02*
X74028572Y-73508557D01*
X74457143Y-74408557D02*
X74457143Y-73508557D01*
X74457143Y-73508557D02*
X74971429Y-74408557D01*
X74971429Y-74408557D02*
X74971429Y-73508557D01*
X75871429Y-73551414D02*
X75785715Y-73508557D01*
X75785715Y-73508557D02*
X75657143Y-73508557D01*
X75657143Y-73508557D02*
X75528572Y-73551414D01*
X75528572Y-73551414D02*
X75442857Y-73637128D01*
X75442857Y-73637128D02*
X75400000Y-73722842D01*
X75400000Y-73722842D02*
X75357143Y-73894271D01*
X75357143Y-73894271D02*
X75357143Y-74022842D01*
X75357143Y-74022842D02*
X75400000Y-74194271D01*
X75400000Y-74194271D02*
X75442857Y-74279985D01*
X75442857Y-74279985D02*
X75528572Y-74365700D01*
X75528572Y-74365700D02*
X75657143Y-74408557D01*
X75657143Y-74408557D02*
X75742857Y-74408557D01*
X75742857Y-74408557D02*
X75871429Y-74365700D01*
X75871429Y-74365700D02*
X75914286Y-74322842D01*
X75914286Y-74322842D02*
X75914286Y-74022842D01*
X75914286Y-74022842D02*
X75742857Y-74022842D01*
X76942857Y-74365700D02*
X77071429Y-74408557D01*
X77071429Y-74408557D02*
X77285714Y-74408557D01*
X77285714Y-74408557D02*
X77371429Y-74365700D01*
X77371429Y-74365700D02*
X77414286Y-74322842D01*
X77414286Y-74322842D02*
X77457143Y-74237128D01*
X77457143Y-74237128D02*
X77457143Y-74151414D01*
X77457143Y-74151414D02*
X77414286Y-74065700D01*
X77414286Y-74065700D02*
X77371429Y-74022842D01*
X77371429Y-74022842D02*
X77285714Y-73979985D01*
X77285714Y-73979985D02*
X77114286Y-73937128D01*
X77114286Y-73937128D02*
X77028571Y-73894271D01*
X77028571Y-73894271D02*
X76985714Y-73851414D01*
X76985714Y-73851414D02*
X76942857Y-73765700D01*
X76942857Y-73765700D02*
X76942857Y-73679985D01*
X76942857Y-73679985D02*
X76985714Y-73594271D01*
X76985714Y-73594271D02*
X77028571Y-73551414D01*
X77028571Y-73551414D02*
X77114286Y-73508557D01*
X77114286Y-73508557D02*
X77328571Y-73508557D01*
X77328571Y-73508557D02*
X77457143Y-73551414D01*
X77800000Y-74151414D02*
X78228572Y-74151414D01*
X77714286Y-74408557D02*
X78014286Y-73508557D01*
X78014286Y-73508557D02*
X78314286Y-74408557D01*
X78614286Y-74408557D02*
X78614286Y-73508557D01*
X78614286Y-73508557D02*
X78914286Y-74151414D01*
X78914286Y-74151414D02*
X79214286Y-73508557D01*
X79214286Y-73508557D02*
X79214286Y-74408557D01*
X79642857Y-74408557D02*
X79642857Y-73508557D01*
X79642857Y-73508557D02*
X79985714Y-73508557D01*
X79985714Y-73508557D02*
X80071429Y-73551414D01*
X80071429Y-73551414D02*
X80114286Y-73594271D01*
X80114286Y-73594271D02*
X80157143Y-73679985D01*
X80157143Y-73679985D02*
X80157143Y-73808557D01*
X80157143Y-73808557D02*
X80114286Y-73894271D01*
X80114286Y-73894271D02*
X80071429Y-73937128D01*
X80071429Y-73937128D02*
X79985714Y-73979985D01*
X79985714Y-73979985D02*
X79642857Y-73979985D01*
X80971429Y-74408557D02*
X80542857Y-74408557D01*
X80542857Y-74408557D02*
X80542857Y-73508557D01*
X81271428Y-73937128D02*
X81571428Y-73937128D01*
X81700000Y-74408557D02*
X81271428Y-74408557D01*
X81271428Y-74408557D02*
X81271428Y-73508557D01*
X81271428Y-73508557D02*
X81700000Y-73508557D01*
X83414285Y-73465700D02*
X82642857Y-74622842D01*
X84699999Y-73937128D02*
X84828571Y-73979985D01*
X84828571Y-73979985D02*
X84871428Y-74022842D01*
X84871428Y-74022842D02*
X84914285Y-74108557D01*
X84914285Y-74108557D02*
X84914285Y-74237128D01*
X84914285Y-74237128D02*
X84871428Y-74322842D01*
X84871428Y-74322842D02*
X84828571Y-74365700D01*
X84828571Y-74365700D02*
X84742856Y-74408557D01*
X84742856Y-74408557D02*
X84399999Y-74408557D01*
X84399999Y-74408557D02*
X84399999Y-73508557D01*
X84399999Y-73508557D02*
X84699999Y-73508557D01*
X84699999Y-73508557D02*
X84785714Y-73551414D01*
X84785714Y-73551414D02*
X84828571Y-73594271D01*
X84828571Y-73594271D02*
X84871428Y-73679985D01*
X84871428Y-73679985D02*
X84871428Y-73765700D01*
X84871428Y-73765700D02*
X84828571Y-73851414D01*
X84828571Y-73851414D02*
X84785714Y-73894271D01*
X84785714Y-73894271D02*
X84699999Y-73937128D01*
X84699999Y-73937128D02*
X84399999Y-73937128D01*
X85299999Y-73937128D02*
X85599999Y-73937128D01*
X85728571Y-74408557D02*
X85299999Y-74408557D01*
X85299999Y-74408557D02*
X85299999Y-73508557D01*
X85299999Y-73508557D02*
X85728571Y-73508557D01*
X86114285Y-74408557D02*
X86114285Y-73508557D01*
X86114285Y-73508557D02*
X86628571Y-74408557D01*
X86628571Y-74408557D02*
X86628571Y-73508557D01*
X87571428Y-74322842D02*
X87528571Y-74365700D01*
X87528571Y-74365700D02*
X87399999Y-74408557D01*
X87399999Y-74408557D02*
X87314285Y-74408557D01*
X87314285Y-74408557D02*
X87185714Y-74365700D01*
X87185714Y-74365700D02*
X87099999Y-74279985D01*
X87099999Y-74279985D02*
X87057142Y-74194271D01*
X87057142Y-74194271D02*
X87014285Y-74022842D01*
X87014285Y-74022842D02*
X87014285Y-73894271D01*
X87014285Y-73894271D02*
X87057142Y-73722842D01*
X87057142Y-73722842D02*
X87099999Y-73637128D01*
X87099999Y-73637128D02*
X87185714Y-73551414D01*
X87185714Y-73551414D02*
X87314285Y-73508557D01*
X87314285Y-73508557D02*
X87399999Y-73508557D01*
X87399999Y-73508557D02*
X87528571Y-73551414D01*
X87528571Y-73551414D02*
X87571428Y-73594271D01*
X87957142Y-74408557D02*
X87957142Y-73508557D01*
X87957142Y-73937128D02*
X88471428Y-73937128D01*
X88471428Y-74408557D02*
X88471428Y-73508557D01*
X89457142Y-73508557D02*
X89971428Y-73508557D01*
X89714285Y-74408557D02*
X89714285Y-73508557D01*
X90271427Y-73937128D02*
X90571427Y-73937128D01*
X90699999Y-74408557D02*
X90271427Y-74408557D01*
X90271427Y-74408557D02*
X90271427Y-73508557D01*
X90271427Y-73508557D02*
X90699999Y-73508557D01*
X91042856Y-74365700D02*
X91171428Y-74408557D01*
X91171428Y-74408557D02*
X91385713Y-74408557D01*
X91385713Y-74408557D02*
X91471428Y-74365700D01*
X91471428Y-74365700D02*
X91514285Y-74322842D01*
X91514285Y-74322842D02*
X91557142Y-74237128D01*
X91557142Y-74237128D02*
X91557142Y-74151414D01*
X91557142Y-74151414D02*
X91514285Y-74065700D01*
X91514285Y-74065700D02*
X91471428Y-74022842D01*
X91471428Y-74022842D02*
X91385713Y-73979985D01*
X91385713Y-73979985D02*
X91214285Y-73937128D01*
X91214285Y-73937128D02*
X91128570Y-73894271D01*
X91128570Y-73894271D02*
X91085713Y-73851414D01*
X91085713Y-73851414D02*
X91042856Y-73765700D01*
X91042856Y-73765700D02*
X91042856Y-73679985D01*
X91042856Y-73679985D02*
X91085713Y-73594271D01*
X91085713Y-73594271D02*
X91128570Y-73551414D01*
X91128570Y-73551414D02*
X91214285Y-73508557D01*
X91214285Y-73508557D02*
X91428570Y-73508557D01*
X91428570Y-73508557D02*
X91557142Y-73551414D01*
X91814285Y-73508557D02*
X92328571Y-73508557D01*
X92071428Y-74408557D02*
X92071428Y-73508557D01*
X93614284Y-73937128D02*
X93314284Y-73937128D01*
X93314284Y-74408557D02*
X93314284Y-73508557D01*
X93314284Y-73508557D02*
X93742856Y-73508557D01*
X94085713Y-74408557D02*
X94085713Y-73508557D01*
X95028570Y-74408557D02*
X94728570Y-73979985D01*
X94514284Y-74408557D02*
X94514284Y-73508557D01*
X94514284Y-73508557D02*
X94857141Y-73508557D01*
X94857141Y-73508557D02*
X94942856Y-73551414D01*
X94942856Y-73551414D02*
X94985713Y-73594271D01*
X94985713Y-73594271D02*
X95028570Y-73679985D01*
X95028570Y-73679985D02*
X95028570Y-73808557D01*
X95028570Y-73808557D02*
X94985713Y-73894271D01*
X94985713Y-73894271D02*
X94942856Y-73937128D01*
X94942856Y-73937128D02*
X94857141Y-73979985D01*
X94857141Y-73979985D02*
X94514284Y-73979985D01*
X95371427Y-74365700D02*
X95499999Y-74408557D01*
X95499999Y-74408557D02*
X95714284Y-74408557D01*
X95714284Y-74408557D02*
X95799999Y-74365700D01*
X95799999Y-74365700D02*
X95842856Y-74322842D01*
X95842856Y-74322842D02*
X95885713Y-74237128D01*
X95885713Y-74237128D02*
X95885713Y-74151414D01*
X95885713Y-74151414D02*
X95842856Y-74065700D01*
X95842856Y-74065700D02*
X95799999Y-74022842D01*
X95799999Y-74022842D02*
X95714284Y-73979985D01*
X95714284Y-73979985D02*
X95542856Y-73937128D01*
X95542856Y-73937128D02*
X95457141Y-73894271D01*
X95457141Y-73894271D02*
X95414284Y-73851414D01*
X95414284Y-73851414D02*
X95371427Y-73765700D01*
X95371427Y-73765700D02*
X95371427Y-73679985D01*
X95371427Y-73679985D02*
X95414284Y-73594271D01*
X95414284Y-73594271D02*
X95457141Y-73551414D01*
X95457141Y-73551414D02*
X95542856Y-73508557D01*
X95542856Y-73508557D02*
X95757141Y-73508557D01*
X95757141Y-73508557D02*
X95885713Y-73551414D01*
X96142856Y-73508557D02*
X96657142Y-73508557D01*
X96399999Y-74408557D02*
X96399999Y-73508557D01*
X66142856Y-12547342D02*
X66142856Y-11347342D01*
X66714285Y-12547342D02*
X66714285Y-11347342D01*
X66714285Y-11347342D02*
X66999999Y-11347342D01*
X66999999Y-11347342D02*
X67171428Y-11404485D01*
X67171428Y-11404485D02*
X67285713Y-11518771D01*
X67285713Y-11518771D02*
X67342856Y-11633057D01*
X67342856Y-11633057D02*
X67399999Y-11861628D01*
X67399999Y-11861628D02*
X67399999Y-12033057D01*
X67399999Y-12033057D02*
X67342856Y-12261628D01*
X67342856Y-12261628D02*
X67285713Y-12375914D01*
X67285713Y-12375914D02*
X67171428Y-12490200D01*
X67171428Y-12490200D02*
X66999999Y-12547342D01*
X66999999Y-12547342D02*
X66714285Y-12547342D01*
X67914285Y-12547342D02*
X67914285Y-11347342D01*
X67914285Y-11347342D02*
X68314285Y-12204485D01*
X68314285Y-12204485D02*
X68714285Y-11347342D01*
X68714285Y-11347342D02*
X68714285Y-12547342D01*
X70885714Y-12547342D02*
X70485714Y-11975914D01*
X70200000Y-12547342D02*
X70200000Y-11347342D01*
X70200000Y-11347342D02*
X70657143Y-11347342D01*
X70657143Y-11347342D02*
X70771428Y-11404485D01*
X70771428Y-11404485D02*
X70828571Y-11461628D01*
X70828571Y-11461628D02*
X70885714Y-11575914D01*
X70885714Y-11575914D02*
X70885714Y-11747342D01*
X70885714Y-11747342D02*
X70828571Y-11861628D01*
X70828571Y-11861628D02*
X70771428Y-11918771D01*
X70771428Y-11918771D02*
X70657143Y-11975914D01*
X70657143Y-11975914D02*
X70200000Y-11975914D01*
X71628571Y-11347342D02*
X71857143Y-11347342D01*
X71857143Y-11347342D02*
X71971428Y-11404485D01*
X71971428Y-11404485D02*
X72085714Y-11518771D01*
X72085714Y-11518771D02*
X72142857Y-11747342D01*
X72142857Y-11747342D02*
X72142857Y-12147342D01*
X72142857Y-12147342D02*
X72085714Y-12375914D01*
X72085714Y-12375914D02*
X71971428Y-12490200D01*
X71971428Y-12490200D02*
X71857143Y-12547342D01*
X71857143Y-12547342D02*
X71628571Y-12547342D01*
X71628571Y-12547342D02*
X71514286Y-12490200D01*
X71514286Y-12490200D02*
X71400000Y-12375914D01*
X71400000Y-12375914D02*
X71342857Y-12147342D01*
X71342857Y-12147342D02*
X71342857Y-11747342D01*
X71342857Y-11747342D02*
X71400000Y-11518771D01*
X71400000Y-11518771D02*
X71514286Y-11404485D01*
X71514286Y-11404485D02*
X71628571Y-11347342D01*
X72885714Y-11347342D02*
X73114286Y-11347342D01*
X73114286Y-11347342D02*
X73228571Y-11404485D01*
X73228571Y-11404485D02*
X73342857Y-11518771D01*
X73342857Y-11518771D02*
X73400000Y-11747342D01*
X73400000Y-11747342D02*
X73400000Y-12147342D01*
X73400000Y-12147342D02*
X73342857Y-12375914D01*
X73342857Y-12375914D02*
X73228571Y-12490200D01*
X73228571Y-12490200D02*
X73114286Y-12547342D01*
X73114286Y-12547342D02*
X72885714Y-12547342D01*
X72885714Y-12547342D02*
X72771429Y-12490200D01*
X72771429Y-12490200D02*
X72657143Y-12375914D01*
X72657143Y-12375914D02*
X72600000Y-12147342D01*
X72600000Y-12147342D02*
X72600000Y-11747342D01*
X72600000Y-11747342D02*
X72657143Y-11518771D01*
X72657143Y-11518771D02*
X72771429Y-11404485D01*
X72771429Y-11404485D02*
X72885714Y-11347342D01*
X73914286Y-12547342D02*
X73914286Y-11347342D01*
X73914286Y-11347342D02*
X74314286Y-12204485D01*
X74314286Y-12204485D02*
X74714286Y-11347342D01*
X74714286Y-11347342D02*
X74714286Y-12547342D01*
X76142858Y-12490200D02*
X76314287Y-12547342D01*
X76314287Y-12547342D02*
X76600001Y-12547342D01*
X76600001Y-12547342D02*
X76714287Y-12490200D01*
X76714287Y-12490200D02*
X76771429Y-12433057D01*
X76771429Y-12433057D02*
X76828572Y-12318771D01*
X76828572Y-12318771D02*
X76828572Y-12204485D01*
X76828572Y-12204485D02*
X76771429Y-12090200D01*
X76771429Y-12090200D02*
X76714287Y-12033057D01*
X76714287Y-12033057D02*
X76600001Y-11975914D01*
X76600001Y-11975914D02*
X76371429Y-11918771D01*
X76371429Y-11918771D02*
X76257144Y-11861628D01*
X76257144Y-11861628D02*
X76200001Y-11804485D01*
X76200001Y-11804485D02*
X76142858Y-11690200D01*
X76142858Y-11690200D02*
X76142858Y-11575914D01*
X76142858Y-11575914D02*
X76200001Y-11461628D01*
X76200001Y-11461628D02*
X76257144Y-11404485D01*
X76257144Y-11404485D02*
X76371429Y-11347342D01*
X76371429Y-11347342D02*
X76657144Y-11347342D01*
X76657144Y-11347342D02*
X76828572Y-11404485D01*
X77342858Y-11918771D02*
X77742858Y-11918771D01*
X77914286Y-12547342D02*
X77342858Y-12547342D01*
X77342858Y-12547342D02*
X77342858Y-11347342D01*
X77342858Y-11347342D02*
X77914286Y-11347342D01*
X78428572Y-12547342D02*
X78428572Y-11347342D01*
X78428572Y-11347342D02*
X79114286Y-12547342D01*
X79114286Y-12547342D02*
X79114286Y-11347342D01*
X79628572Y-12490200D02*
X79800001Y-12547342D01*
X79800001Y-12547342D02*
X80085715Y-12547342D01*
X80085715Y-12547342D02*
X80200001Y-12490200D01*
X80200001Y-12490200D02*
X80257143Y-12433057D01*
X80257143Y-12433057D02*
X80314286Y-12318771D01*
X80314286Y-12318771D02*
X80314286Y-12204485D01*
X80314286Y-12204485D02*
X80257143Y-12090200D01*
X80257143Y-12090200D02*
X80200001Y-12033057D01*
X80200001Y-12033057D02*
X80085715Y-11975914D01*
X80085715Y-11975914D02*
X79857143Y-11918771D01*
X79857143Y-11918771D02*
X79742858Y-11861628D01*
X79742858Y-11861628D02*
X79685715Y-11804485D01*
X79685715Y-11804485D02*
X79628572Y-11690200D01*
X79628572Y-11690200D02*
X79628572Y-11575914D01*
X79628572Y-11575914D02*
X79685715Y-11461628D01*
X79685715Y-11461628D02*
X79742858Y-11404485D01*
X79742858Y-11404485D02*
X79857143Y-11347342D01*
X79857143Y-11347342D02*
X80142858Y-11347342D01*
X80142858Y-11347342D02*
X80314286Y-11404485D01*
X81057143Y-11347342D02*
X81285715Y-11347342D01*
X81285715Y-11347342D02*
X81400000Y-11404485D01*
X81400000Y-11404485D02*
X81514286Y-11518771D01*
X81514286Y-11518771D02*
X81571429Y-11747342D01*
X81571429Y-11747342D02*
X81571429Y-12147342D01*
X81571429Y-12147342D02*
X81514286Y-12375914D01*
X81514286Y-12375914D02*
X81400000Y-12490200D01*
X81400000Y-12490200D02*
X81285715Y-12547342D01*
X81285715Y-12547342D02*
X81057143Y-12547342D01*
X81057143Y-12547342D02*
X80942858Y-12490200D01*
X80942858Y-12490200D02*
X80828572Y-12375914D01*
X80828572Y-12375914D02*
X80771429Y-12147342D01*
X80771429Y-12147342D02*
X80771429Y-11747342D01*
X80771429Y-11747342D02*
X80828572Y-11518771D01*
X80828572Y-11518771D02*
X80942858Y-11404485D01*
X80942858Y-11404485D02*
X81057143Y-11347342D01*
X82771429Y-12547342D02*
X82371429Y-11975914D01*
X82085715Y-12547342D02*
X82085715Y-11347342D01*
X82085715Y-11347342D02*
X82542858Y-11347342D01*
X82542858Y-11347342D02*
X82657143Y-11404485D01*
X82657143Y-11404485D02*
X82714286Y-11461628D01*
X82714286Y-11461628D02*
X82771429Y-11575914D01*
X82771429Y-11575914D02*
X82771429Y-11747342D01*
X82771429Y-11747342D02*
X82714286Y-11861628D01*
X82714286Y-11861628D02*
X82657143Y-11918771D01*
X82657143Y-11918771D02*
X82542858Y-11975914D01*
X82542858Y-11975914D02*
X82085715Y-11975914D01*
X84885715Y-12433057D02*
X84828572Y-12490200D01*
X84828572Y-12490200D02*
X84657144Y-12547342D01*
X84657144Y-12547342D02*
X84542858Y-12547342D01*
X84542858Y-12547342D02*
X84371429Y-12490200D01*
X84371429Y-12490200D02*
X84257144Y-12375914D01*
X84257144Y-12375914D02*
X84200001Y-12261628D01*
X84200001Y-12261628D02*
X84142858Y-12033057D01*
X84142858Y-12033057D02*
X84142858Y-11861628D01*
X84142858Y-11861628D02*
X84200001Y-11633057D01*
X84200001Y-11633057D02*
X84257144Y-11518771D01*
X84257144Y-11518771D02*
X84371429Y-11404485D01*
X84371429Y-11404485D02*
X84542858Y-11347342D01*
X84542858Y-11347342D02*
X84657144Y-11347342D01*
X84657144Y-11347342D02*
X84828572Y-11404485D01*
X84828572Y-11404485D02*
X84885715Y-11461628D01*
X85971429Y-12547342D02*
X85400001Y-12547342D01*
X85400001Y-12547342D02*
X85400001Y-11347342D01*
X86314287Y-12204485D02*
X86885716Y-12204485D01*
X86200001Y-12547342D02*
X86600001Y-11347342D01*
X86600001Y-11347342D02*
X87000001Y-12547342D01*
X87342858Y-12490200D02*
X87514287Y-12547342D01*
X87514287Y-12547342D02*
X87800001Y-12547342D01*
X87800001Y-12547342D02*
X87914287Y-12490200D01*
X87914287Y-12490200D02*
X87971429Y-12433057D01*
X87971429Y-12433057D02*
X88028572Y-12318771D01*
X88028572Y-12318771D02*
X88028572Y-12204485D01*
X88028572Y-12204485D02*
X87971429Y-12090200D01*
X87971429Y-12090200D02*
X87914287Y-12033057D01*
X87914287Y-12033057D02*
X87800001Y-11975914D01*
X87800001Y-11975914D02*
X87571429Y-11918771D01*
X87571429Y-11918771D02*
X87457144Y-11861628D01*
X87457144Y-11861628D02*
X87400001Y-11804485D01*
X87400001Y-11804485D02*
X87342858Y-11690200D01*
X87342858Y-11690200D02*
X87342858Y-11575914D01*
X87342858Y-11575914D02*
X87400001Y-11461628D01*
X87400001Y-11461628D02*
X87457144Y-11404485D01*
X87457144Y-11404485D02*
X87571429Y-11347342D01*
X87571429Y-11347342D02*
X87857144Y-11347342D01*
X87857144Y-11347342D02*
X88028572Y-11404485D01*
X88485715Y-12490200D02*
X88657144Y-12547342D01*
X88657144Y-12547342D02*
X88942858Y-12547342D01*
X88942858Y-12547342D02*
X89057144Y-12490200D01*
X89057144Y-12490200D02*
X89114286Y-12433057D01*
X89114286Y-12433057D02*
X89171429Y-12318771D01*
X89171429Y-12318771D02*
X89171429Y-12204485D01*
X89171429Y-12204485D02*
X89114286Y-12090200D01*
X89114286Y-12090200D02*
X89057144Y-12033057D01*
X89057144Y-12033057D02*
X88942858Y-11975914D01*
X88942858Y-11975914D02*
X88714286Y-11918771D01*
X88714286Y-11918771D02*
X88600001Y-11861628D01*
X88600001Y-11861628D02*
X88542858Y-11804485D01*
X88542858Y-11804485D02*
X88485715Y-11690200D01*
X88485715Y-11690200D02*
X88485715Y-11575914D01*
X88485715Y-11575914D02*
X88542858Y-11461628D01*
X88542858Y-11461628D02*
X88600001Y-11404485D01*
X88600001Y-11404485D02*
X88714286Y-11347342D01*
X88714286Y-11347342D02*
X89000001Y-11347342D01*
X89000001Y-11347342D02*
X89171429Y-11404485D01*
X89685715Y-12547342D02*
X89685715Y-11347342D01*
X90942858Y-12433057D02*
X90885715Y-12490200D01*
X90885715Y-12490200D02*
X90714287Y-12547342D01*
X90714287Y-12547342D02*
X90600001Y-12547342D01*
X90600001Y-12547342D02*
X90428572Y-12490200D01*
X90428572Y-12490200D02*
X90314287Y-12375914D01*
X90314287Y-12375914D02*
X90257144Y-12261628D01*
X90257144Y-12261628D02*
X90200001Y-12033057D01*
X90200001Y-12033057D02*
X90200001Y-11861628D01*
X90200001Y-11861628D02*
X90257144Y-11633057D01*
X90257144Y-11633057D02*
X90314287Y-11518771D01*
X90314287Y-11518771D02*
X90428572Y-11404485D01*
X90428572Y-11404485D02*
X90600001Y-11347342D01*
X90600001Y-11347342D02*
X90714287Y-11347342D01*
X90714287Y-11347342D02*
X90885715Y-11404485D01*
X90885715Y-11404485D02*
X90942858Y-11461628D01*
X92771430Y-11918771D02*
X92942858Y-11975914D01*
X92942858Y-11975914D02*
X93000001Y-12033057D01*
X93000001Y-12033057D02*
X93057144Y-12147342D01*
X93057144Y-12147342D02*
X93057144Y-12318771D01*
X93057144Y-12318771D02*
X93000001Y-12433057D01*
X93000001Y-12433057D02*
X92942858Y-12490200D01*
X92942858Y-12490200D02*
X92828573Y-12547342D01*
X92828573Y-12547342D02*
X92371430Y-12547342D01*
X92371430Y-12547342D02*
X92371430Y-11347342D01*
X92371430Y-11347342D02*
X92771430Y-11347342D01*
X92771430Y-11347342D02*
X92885716Y-11404485D01*
X92885716Y-11404485D02*
X92942858Y-11461628D01*
X92942858Y-11461628D02*
X93000001Y-11575914D01*
X93000001Y-11575914D02*
X93000001Y-11690200D01*
X93000001Y-11690200D02*
X92942858Y-11804485D01*
X92942858Y-11804485D02*
X92885716Y-11861628D01*
X92885716Y-11861628D02*
X92771430Y-11918771D01*
X92771430Y-11918771D02*
X92371430Y-11918771D01*
X93571430Y-12090200D02*
X94485716Y-12090200D01*
X95057144Y-11918771D02*
X95457144Y-11918771D01*
X95628572Y-12547342D02*
X95057144Y-12547342D01*
X95057144Y-12547342D02*
X95057144Y-11347342D01*
X95057144Y-11347342D02*
X95628572Y-11347342D01*
X96085715Y-12490200D02*
X96257144Y-12547342D01*
X96257144Y-12547342D02*
X96542858Y-12547342D01*
X96542858Y-12547342D02*
X96657144Y-12490200D01*
X96657144Y-12490200D02*
X96714286Y-12433057D01*
X96714286Y-12433057D02*
X96771429Y-12318771D01*
X96771429Y-12318771D02*
X96771429Y-12204485D01*
X96771429Y-12204485D02*
X96714286Y-12090200D01*
X96714286Y-12090200D02*
X96657144Y-12033057D01*
X96657144Y-12033057D02*
X96542858Y-11975914D01*
X96542858Y-11975914D02*
X96314286Y-11918771D01*
X96314286Y-11918771D02*
X96200001Y-11861628D01*
X96200001Y-11861628D02*
X96142858Y-11804485D01*
X96142858Y-11804485D02*
X96085715Y-11690200D01*
X96085715Y-11690200D02*
X96085715Y-11575914D01*
X96085715Y-11575914D02*
X96142858Y-11461628D01*
X96142858Y-11461628D02*
X96200001Y-11404485D01*
X96200001Y-11404485D02*
X96314286Y-11347342D01*
X96314286Y-11347342D02*
X96600001Y-11347342D01*
X96600001Y-11347342D02*
X96771429Y-11404485D01*
X97914286Y-12547342D02*
X97228572Y-12547342D01*
X97571429Y-12547342D02*
X97571429Y-11347342D01*
X97571429Y-11347342D02*
X97457143Y-11518771D01*
X97457143Y-11518771D02*
X97342858Y-11633057D01*
X97342858Y-11633057D02*
X97228572Y-11690200D01*
X13238095Y-80304819D02*
X13238095Y-79304819D01*
X13238095Y-79781009D02*
X13809523Y-79781009D01*
X13809523Y-80304819D02*
X13809523Y-79304819D01*
X14809523Y-80304819D02*
X14238095Y-80304819D01*
X14523809Y-80304819D02*
X14523809Y-79304819D01*
X14523809Y-79304819D02*
X14428571Y-79447676D01*
X14428571Y-79447676D02*
X14333333Y-79542914D01*
X14333333Y-79542914D02*
X14238095Y-79590533D01*
X119929580Y-60166666D02*
X119977200Y-60214285D01*
X119977200Y-60214285D02*
X120024819Y-60357142D01*
X120024819Y-60357142D02*
X120024819Y-60452380D01*
X120024819Y-60452380D02*
X119977200Y-60595237D01*
X119977200Y-60595237D02*
X119881961Y-60690475D01*
X119881961Y-60690475D02*
X119786723Y-60738094D01*
X119786723Y-60738094D02*
X119596247Y-60785713D01*
X119596247Y-60785713D02*
X119453390Y-60785713D01*
X119453390Y-60785713D02*
X119262914Y-60738094D01*
X119262914Y-60738094D02*
X119167676Y-60690475D01*
X119167676Y-60690475D02*
X119072438Y-60595237D01*
X119072438Y-60595237D02*
X119024819Y-60452380D01*
X119024819Y-60452380D02*
X119024819Y-60357142D01*
X119024819Y-60357142D02*
X119072438Y-60214285D01*
X119072438Y-60214285D02*
X119120057Y-60166666D01*
X119358152Y-59309523D02*
X120024819Y-59309523D01*
X118977200Y-59547618D02*
X119691485Y-59785713D01*
X119691485Y-59785713D02*
X119691485Y-59166666D01*
X135024819Y-48166666D02*
X134548628Y-48499999D01*
X135024819Y-48738094D02*
X134024819Y-48738094D01*
X134024819Y-48738094D02*
X134024819Y-48357142D01*
X134024819Y-48357142D02*
X134072438Y-48261904D01*
X134072438Y-48261904D02*
X134120057Y-48214285D01*
X134120057Y-48214285D02*
X134215295Y-48166666D01*
X134215295Y-48166666D02*
X134358152Y-48166666D01*
X134358152Y-48166666D02*
X134453390Y-48214285D01*
X134453390Y-48214285D02*
X134501009Y-48261904D01*
X134501009Y-48261904D02*
X134548628Y-48357142D01*
X134548628Y-48357142D02*
X134548628Y-48738094D01*
X134024819Y-47833332D02*
X134024819Y-47214285D01*
X134024819Y-47214285D02*
X134405771Y-47547618D01*
X134405771Y-47547618D02*
X134405771Y-47404761D01*
X134405771Y-47404761D02*
X134453390Y-47309523D01*
X134453390Y-47309523D02*
X134501009Y-47261904D01*
X134501009Y-47261904D02*
X134596247Y-47214285D01*
X134596247Y-47214285D02*
X134834342Y-47214285D01*
X134834342Y-47214285D02*
X134929580Y-47261904D01*
X134929580Y-47261904D02*
X134977200Y-47309523D01*
X134977200Y-47309523D02*
X135024819Y-47404761D01*
X135024819Y-47404761D02*
X135024819Y-47690475D01*
X135024819Y-47690475D02*
X134977200Y-47785713D01*
X134977200Y-47785713D02*
X134929580Y-47833332D01*
X126929580Y-30166666D02*
X126977200Y-30214285D01*
X126977200Y-30214285D02*
X127024819Y-30357142D01*
X127024819Y-30357142D02*
X127024819Y-30452380D01*
X127024819Y-30452380D02*
X126977200Y-30595237D01*
X126977200Y-30595237D02*
X126881961Y-30690475D01*
X126881961Y-30690475D02*
X126786723Y-30738094D01*
X126786723Y-30738094D02*
X126596247Y-30785713D01*
X126596247Y-30785713D02*
X126453390Y-30785713D01*
X126453390Y-30785713D02*
X126262914Y-30738094D01*
X126262914Y-30738094D02*
X126167676Y-30690475D01*
X126167676Y-30690475D02*
X126072438Y-30595237D01*
X126072438Y-30595237D02*
X126024819Y-30452380D01*
X126024819Y-30452380D02*
X126024819Y-30357142D01*
X126024819Y-30357142D02*
X126072438Y-30214285D01*
X126072438Y-30214285D02*
X126120057Y-30166666D01*
X126024819Y-29261904D02*
X126024819Y-29738094D01*
X126024819Y-29738094D02*
X126501009Y-29785713D01*
X126501009Y-29785713D02*
X126453390Y-29738094D01*
X126453390Y-29738094D02*
X126405771Y-29642856D01*
X126405771Y-29642856D02*
X126405771Y-29404761D01*
X126405771Y-29404761D02*
X126453390Y-29309523D01*
X126453390Y-29309523D02*
X126501009Y-29261904D01*
X126501009Y-29261904D02*
X126596247Y-29214285D01*
X126596247Y-29214285D02*
X126834342Y-29214285D01*
X126834342Y-29214285D02*
X126929580Y-29261904D01*
X126929580Y-29261904D02*
X126977200Y-29309523D01*
X126977200Y-29309523D02*
X127024819Y-29404761D01*
X127024819Y-29404761D02*
X127024819Y-29642856D01*
X127024819Y-29642856D02*
X126977200Y-29738094D01*
X126977200Y-29738094D02*
X126929580Y-29785713D01*
X94738095Y-80956819D02*
X95309523Y-80956819D01*
X95023809Y-81956819D02*
X95023809Y-80956819D01*
X95642857Y-81956819D02*
X95642857Y-80956819D01*
X95642857Y-80956819D02*
X96023809Y-80956819D01*
X96023809Y-80956819D02*
X96119047Y-81004438D01*
X96119047Y-81004438D02*
X96166666Y-81052057D01*
X96166666Y-81052057D02*
X96214285Y-81147295D01*
X96214285Y-81147295D02*
X96214285Y-81290152D01*
X96214285Y-81290152D02*
X96166666Y-81385390D01*
X96166666Y-81385390D02*
X96119047Y-81433009D01*
X96119047Y-81433009D02*
X96023809Y-81480628D01*
X96023809Y-81480628D02*
X95642857Y-81480628D01*
X96547619Y-80956819D02*
X97214285Y-80956819D01*
X97214285Y-80956819D02*
X96785714Y-81956819D01*
X66738095Y-14744819D02*
X66738095Y-15554342D01*
X66738095Y-15554342D02*
X66785714Y-15649580D01*
X66785714Y-15649580D02*
X66833333Y-15697200D01*
X66833333Y-15697200D02*
X66928571Y-15744819D01*
X66928571Y-15744819D02*
X67119047Y-15744819D01*
X67119047Y-15744819D02*
X67214285Y-15697200D01*
X67214285Y-15697200D02*
X67261904Y-15649580D01*
X67261904Y-15649580D02*
X67309523Y-15554342D01*
X67309523Y-15554342D02*
X67309523Y-14744819D01*
X68309523Y-15744819D02*
X67738095Y-15744819D01*
X68023809Y-15744819D02*
X68023809Y-14744819D01*
X68023809Y-14744819D02*
X67928571Y-14887676D01*
X67928571Y-14887676D02*
X67833333Y-14982914D01*
X67833333Y-14982914D02*
X67738095Y-15030533D01*
X38666666Y-18431009D02*
X38333333Y-18431009D01*
X38333333Y-18954819D02*
X38333333Y-17954819D01*
X38333333Y-17954819D02*
X38809523Y-17954819D01*
X39714285Y-18954819D02*
X39142857Y-18954819D01*
X39428571Y-18954819D02*
X39428571Y-17954819D01*
X39428571Y-17954819D02*
X39333333Y-18097676D01*
X39333333Y-18097676D02*
X39238095Y-18192914D01*
X39238095Y-18192914D02*
X39142857Y-18240533D01*
X93074819Y-62333333D02*
X93789104Y-62333333D01*
X93789104Y-62333333D02*
X93931961Y-62380952D01*
X93931961Y-62380952D02*
X94027200Y-62476190D01*
X94027200Y-62476190D02*
X94074819Y-62619047D01*
X94074819Y-62619047D02*
X94074819Y-62714285D01*
X93170057Y-61904761D02*
X93122438Y-61857142D01*
X93122438Y-61857142D02*
X93074819Y-61761904D01*
X93074819Y-61761904D02*
X93074819Y-61523809D01*
X93074819Y-61523809D02*
X93122438Y-61428571D01*
X93122438Y-61428571D02*
X93170057Y-61380952D01*
X93170057Y-61380952D02*
X93265295Y-61333333D01*
X93265295Y-61333333D02*
X93360533Y-61333333D01*
X93360533Y-61333333D02*
X93503390Y-61380952D01*
X93503390Y-61380952D02*
X94074819Y-61952380D01*
X94074819Y-61952380D02*
X94074819Y-61333333D01*
X144024819Y-40166666D02*
X143548628Y-40499999D01*
X144024819Y-40738094D02*
X143024819Y-40738094D01*
X143024819Y-40738094D02*
X143024819Y-40357142D01*
X143024819Y-40357142D02*
X143072438Y-40261904D01*
X143072438Y-40261904D02*
X143120057Y-40214285D01*
X143120057Y-40214285D02*
X143215295Y-40166666D01*
X143215295Y-40166666D02*
X143358152Y-40166666D01*
X143358152Y-40166666D02*
X143453390Y-40214285D01*
X143453390Y-40214285D02*
X143501009Y-40261904D01*
X143501009Y-40261904D02*
X143548628Y-40357142D01*
X143548628Y-40357142D02*
X143548628Y-40738094D01*
X143024819Y-39261904D02*
X143024819Y-39738094D01*
X143024819Y-39738094D02*
X143501009Y-39785713D01*
X143501009Y-39785713D02*
X143453390Y-39738094D01*
X143453390Y-39738094D02*
X143405771Y-39642856D01*
X143405771Y-39642856D02*
X143405771Y-39404761D01*
X143405771Y-39404761D02*
X143453390Y-39309523D01*
X143453390Y-39309523D02*
X143501009Y-39261904D01*
X143501009Y-39261904D02*
X143596247Y-39214285D01*
X143596247Y-39214285D02*
X143834342Y-39214285D01*
X143834342Y-39214285D02*
X143929580Y-39261904D01*
X143929580Y-39261904D02*
X143977200Y-39309523D01*
X143977200Y-39309523D02*
X144024819Y-39404761D01*
X144024819Y-39404761D02*
X144024819Y-39642856D01*
X144024819Y-39642856D02*
X143977200Y-39738094D01*
X143977200Y-39738094D02*
X143929580Y-39785713D01*
X56261905Y-19954819D02*
X56261905Y-18954819D01*
X56261905Y-18954819D02*
X56500000Y-18954819D01*
X56500000Y-18954819D02*
X56642857Y-19002438D01*
X56642857Y-19002438D02*
X56738095Y-19097676D01*
X56738095Y-19097676D02*
X56785714Y-19192914D01*
X56785714Y-19192914D02*
X56833333Y-19383390D01*
X56833333Y-19383390D02*
X56833333Y-19526247D01*
X56833333Y-19526247D02*
X56785714Y-19716723D01*
X56785714Y-19716723D02*
X56738095Y-19811961D01*
X56738095Y-19811961D02*
X56642857Y-19907200D01*
X56642857Y-19907200D02*
X56500000Y-19954819D01*
X56500000Y-19954819D02*
X56261905Y-19954819D01*
X57785714Y-19954819D02*
X57214286Y-19954819D01*
X57500000Y-19954819D02*
X57500000Y-18954819D01*
X57500000Y-18954819D02*
X57404762Y-19097676D01*
X57404762Y-19097676D02*
X57309524Y-19192914D01*
X57309524Y-19192914D02*
X57214286Y-19240533D01*
X83238095Y-35104819D02*
X83238095Y-35914342D01*
X83238095Y-35914342D02*
X83285714Y-36009580D01*
X83285714Y-36009580D02*
X83333333Y-36057200D01*
X83333333Y-36057200D02*
X83428571Y-36104819D01*
X83428571Y-36104819D02*
X83619047Y-36104819D01*
X83619047Y-36104819D02*
X83714285Y-36057200D01*
X83714285Y-36057200D02*
X83761904Y-36009580D01*
X83761904Y-36009580D02*
X83809523Y-35914342D01*
X83809523Y-35914342D02*
X83809523Y-35104819D01*
X84238095Y-35200057D02*
X84285714Y-35152438D01*
X84285714Y-35152438D02*
X84380952Y-35104819D01*
X84380952Y-35104819D02*
X84619047Y-35104819D01*
X84619047Y-35104819D02*
X84714285Y-35152438D01*
X84714285Y-35152438D02*
X84761904Y-35200057D01*
X84761904Y-35200057D02*
X84809523Y-35295295D01*
X84809523Y-35295295D02*
X84809523Y-35390533D01*
X84809523Y-35390533D02*
X84761904Y-35533390D01*
X84761904Y-35533390D02*
X84190476Y-36104819D01*
X84190476Y-36104819D02*
X84809523Y-36104819D01*
X83238095Y-24054819D02*
X83238095Y-24864342D01*
X83238095Y-24864342D02*
X83285714Y-24959580D01*
X83285714Y-24959580D02*
X83333333Y-25007200D01*
X83333333Y-25007200D02*
X83428571Y-25054819D01*
X83428571Y-25054819D02*
X83619047Y-25054819D01*
X83619047Y-25054819D02*
X83714285Y-25007200D01*
X83714285Y-25007200D02*
X83761904Y-24959580D01*
X83761904Y-24959580D02*
X83809523Y-24864342D01*
X83809523Y-24864342D02*
X83809523Y-24054819D01*
X84714285Y-24054819D02*
X84523809Y-24054819D01*
X84523809Y-24054819D02*
X84428571Y-24102438D01*
X84428571Y-24102438D02*
X84380952Y-24150057D01*
X84380952Y-24150057D02*
X84285714Y-24292914D01*
X84285714Y-24292914D02*
X84238095Y-24483390D01*
X84238095Y-24483390D02*
X84238095Y-24864342D01*
X84238095Y-24864342D02*
X84285714Y-24959580D01*
X84285714Y-24959580D02*
X84333333Y-25007200D01*
X84333333Y-25007200D02*
X84428571Y-25054819D01*
X84428571Y-25054819D02*
X84619047Y-25054819D01*
X84619047Y-25054819D02*
X84714285Y-25007200D01*
X84714285Y-25007200D02*
X84761904Y-24959580D01*
X84761904Y-24959580D02*
X84809523Y-24864342D01*
X84809523Y-24864342D02*
X84809523Y-24626247D01*
X84809523Y-24626247D02*
X84761904Y-24531009D01*
X84761904Y-24531009D02*
X84714285Y-24483390D01*
X84714285Y-24483390D02*
X84619047Y-24435771D01*
X84619047Y-24435771D02*
X84428571Y-24435771D01*
X84428571Y-24435771D02*
X84333333Y-24483390D01*
X84333333Y-24483390D02*
X84285714Y-24531009D01*
X84285714Y-24531009D02*
X84238095Y-24626247D01*
X106738095Y-80956819D02*
X107309523Y-80956819D01*
X107023809Y-81956819D02*
X107023809Y-80956819D01*
X107642857Y-81956819D02*
X107642857Y-80956819D01*
X107642857Y-80956819D02*
X108023809Y-80956819D01*
X108023809Y-80956819D02*
X108119047Y-81004438D01*
X108119047Y-81004438D02*
X108166666Y-81052057D01*
X108166666Y-81052057D02*
X108214285Y-81147295D01*
X108214285Y-81147295D02*
X108214285Y-81290152D01*
X108214285Y-81290152D02*
X108166666Y-81385390D01*
X108166666Y-81385390D02*
X108119047Y-81433009D01*
X108119047Y-81433009D02*
X108023809Y-81480628D01*
X108023809Y-81480628D02*
X107642857Y-81480628D01*
X108785714Y-81385390D02*
X108690476Y-81337771D01*
X108690476Y-81337771D02*
X108642857Y-81290152D01*
X108642857Y-81290152D02*
X108595238Y-81194914D01*
X108595238Y-81194914D02*
X108595238Y-81147295D01*
X108595238Y-81147295D02*
X108642857Y-81052057D01*
X108642857Y-81052057D02*
X108690476Y-81004438D01*
X108690476Y-81004438D02*
X108785714Y-80956819D01*
X108785714Y-80956819D02*
X108976190Y-80956819D01*
X108976190Y-80956819D02*
X109071428Y-81004438D01*
X109071428Y-81004438D02*
X109119047Y-81052057D01*
X109119047Y-81052057D02*
X109166666Y-81147295D01*
X109166666Y-81147295D02*
X109166666Y-81194914D01*
X109166666Y-81194914D02*
X109119047Y-81290152D01*
X109119047Y-81290152D02*
X109071428Y-81337771D01*
X109071428Y-81337771D02*
X108976190Y-81385390D01*
X108976190Y-81385390D02*
X108785714Y-81385390D01*
X108785714Y-81385390D02*
X108690476Y-81433009D01*
X108690476Y-81433009D02*
X108642857Y-81480628D01*
X108642857Y-81480628D02*
X108595238Y-81575866D01*
X108595238Y-81575866D02*
X108595238Y-81766342D01*
X108595238Y-81766342D02*
X108642857Y-81861580D01*
X108642857Y-81861580D02*
X108690476Y-81909200D01*
X108690476Y-81909200D02*
X108785714Y-81956819D01*
X108785714Y-81956819D02*
X108976190Y-81956819D01*
X108976190Y-81956819D02*
X109071428Y-81909200D01*
X109071428Y-81909200D02*
X109119047Y-81861580D01*
X109119047Y-81861580D02*
X109166666Y-81766342D01*
X109166666Y-81766342D02*
X109166666Y-81575866D01*
X109166666Y-81575866D02*
X109119047Y-81480628D01*
X109119047Y-81480628D02*
X109071428Y-81433009D01*
X109071428Y-81433009D02*
X108976190Y-81385390D01*
X130261905Y-80956819D02*
X130833333Y-80956819D01*
X130547619Y-81956819D02*
X130547619Y-80956819D01*
X131166667Y-81956819D02*
X131166667Y-80956819D01*
X131166667Y-80956819D02*
X131547619Y-80956819D01*
X131547619Y-80956819D02*
X131642857Y-81004438D01*
X131642857Y-81004438D02*
X131690476Y-81052057D01*
X131690476Y-81052057D02*
X131738095Y-81147295D01*
X131738095Y-81147295D02*
X131738095Y-81290152D01*
X131738095Y-81290152D02*
X131690476Y-81385390D01*
X131690476Y-81385390D02*
X131642857Y-81433009D01*
X131642857Y-81433009D02*
X131547619Y-81480628D01*
X131547619Y-81480628D02*
X131166667Y-81480628D01*
X132690476Y-81956819D02*
X132119048Y-81956819D01*
X132404762Y-81956819D02*
X132404762Y-80956819D01*
X132404762Y-80956819D02*
X132309524Y-81099676D01*
X132309524Y-81099676D02*
X132214286Y-81194914D01*
X132214286Y-81194914D02*
X132119048Y-81242533D01*
X133309524Y-80956819D02*
X133404762Y-80956819D01*
X133404762Y-80956819D02*
X133500000Y-81004438D01*
X133500000Y-81004438D02*
X133547619Y-81052057D01*
X133547619Y-81052057D02*
X133595238Y-81147295D01*
X133595238Y-81147295D02*
X133642857Y-81337771D01*
X133642857Y-81337771D02*
X133642857Y-81575866D01*
X133642857Y-81575866D02*
X133595238Y-81766342D01*
X133595238Y-81766342D02*
X133547619Y-81861580D01*
X133547619Y-81861580D02*
X133500000Y-81909200D01*
X133500000Y-81909200D02*
X133404762Y-81956819D01*
X133404762Y-81956819D02*
X133309524Y-81956819D01*
X133309524Y-81956819D02*
X133214286Y-81909200D01*
X133214286Y-81909200D02*
X133166667Y-81861580D01*
X133166667Y-81861580D02*
X133119048Y-81766342D01*
X133119048Y-81766342D02*
X133071429Y-81575866D01*
X133071429Y-81575866D02*
X133071429Y-81337771D01*
X133071429Y-81337771D02*
X133119048Y-81147295D01*
X133119048Y-81147295D02*
X133166667Y-81052057D01*
X133166667Y-81052057D02*
X133214286Y-81004438D01*
X133214286Y-81004438D02*
X133309524Y-80956819D01*
X118738095Y-80956819D02*
X119309523Y-80956819D01*
X119023809Y-81956819D02*
X119023809Y-80956819D01*
X119642857Y-81956819D02*
X119642857Y-80956819D01*
X119642857Y-80956819D02*
X120023809Y-80956819D01*
X120023809Y-80956819D02*
X120119047Y-81004438D01*
X120119047Y-81004438D02*
X120166666Y-81052057D01*
X120166666Y-81052057D02*
X120214285Y-81147295D01*
X120214285Y-81147295D02*
X120214285Y-81290152D01*
X120214285Y-81290152D02*
X120166666Y-81385390D01*
X120166666Y-81385390D02*
X120119047Y-81433009D01*
X120119047Y-81433009D02*
X120023809Y-81480628D01*
X120023809Y-81480628D02*
X119642857Y-81480628D01*
X120690476Y-81956819D02*
X120880952Y-81956819D01*
X120880952Y-81956819D02*
X120976190Y-81909200D01*
X120976190Y-81909200D02*
X121023809Y-81861580D01*
X121023809Y-81861580D02*
X121119047Y-81718723D01*
X121119047Y-81718723D02*
X121166666Y-81528247D01*
X121166666Y-81528247D02*
X121166666Y-81147295D01*
X121166666Y-81147295D02*
X121119047Y-81052057D01*
X121119047Y-81052057D02*
X121071428Y-81004438D01*
X121071428Y-81004438D02*
X120976190Y-80956819D01*
X120976190Y-80956819D02*
X120785714Y-80956819D01*
X120785714Y-80956819D02*
X120690476Y-81004438D01*
X120690476Y-81004438D02*
X120642857Y-81052057D01*
X120642857Y-81052057D02*
X120595238Y-81147295D01*
X120595238Y-81147295D02*
X120595238Y-81385390D01*
X120595238Y-81385390D02*
X120642857Y-81480628D01*
X120642857Y-81480628D02*
X120690476Y-81528247D01*
X120690476Y-81528247D02*
X120785714Y-81575866D01*
X120785714Y-81575866D02*
X120976190Y-81575866D01*
X120976190Y-81575866D02*
X121071428Y-81528247D01*
X121071428Y-81528247D02*
X121119047Y-81480628D01*
X121119047Y-81480628D02*
X121166666Y-81385390D01*
X143929580Y-49166666D02*
X143977200Y-49214285D01*
X143977200Y-49214285D02*
X144024819Y-49357142D01*
X144024819Y-49357142D02*
X144024819Y-49452380D01*
X144024819Y-49452380D02*
X143977200Y-49595237D01*
X143977200Y-49595237D02*
X143881961Y-49690475D01*
X143881961Y-49690475D02*
X143786723Y-49738094D01*
X143786723Y-49738094D02*
X143596247Y-49785713D01*
X143596247Y-49785713D02*
X143453390Y-49785713D01*
X143453390Y-49785713D02*
X143262914Y-49738094D01*
X143262914Y-49738094D02*
X143167676Y-49690475D01*
X143167676Y-49690475D02*
X143072438Y-49595237D01*
X143072438Y-49595237D02*
X143024819Y-49452380D01*
X143024819Y-49452380D02*
X143024819Y-49357142D01*
X143024819Y-49357142D02*
X143072438Y-49214285D01*
X143072438Y-49214285D02*
X143120057Y-49166666D01*
X143024819Y-48309523D02*
X143024819Y-48499999D01*
X143024819Y-48499999D02*
X143072438Y-48595237D01*
X143072438Y-48595237D02*
X143120057Y-48642856D01*
X143120057Y-48642856D02*
X143262914Y-48738094D01*
X143262914Y-48738094D02*
X143453390Y-48785713D01*
X143453390Y-48785713D02*
X143834342Y-48785713D01*
X143834342Y-48785713D02*
X143929580Y-48738094D01*
X143929580Y-48738094D02*
X143977200Y-48690475D01*
X143977200Y-48690475D02*
X144024819Y-48595237D01*
X144024819Y-48595237D02*
X144024819Y-48404761D01*
X144024819Y-48404761D02*
X143977200Y-48309523D01*
X143977200Y-48309523D02*
X143929580Y-48261904D01*
X143929580Y-48261904D02*
X143834342Y-48214285D01*
X143834342Y-48214285D02*
X143596247Y-48214285D01*
X143596247Y-48214285D02*
X143501009Y-48261904D01*
X143501009Y-48261904D02*
X143453390Y-48309523D01*
X143453390Y-48309523D02*
X143405771Y-48404761D01*
X143405771Y-48404761D02*
X143405771Y-48595237D01*
X143405771Y-48595237D02*
X143453390Y-48690475D01*
X143453390Y-48690475D02*
X143501009Y-48738094D01*
X143501009Y-48738094D02*
X143596247Y-48785713D01*
X46738095Y-80956819D02*
X47309523Y-80956819D01*
X47023809Y-81956819D02*
X47023809Y-80956819D01*
X47642857Y-81956819D02*
X47642857Y-80956819D01*
X47642857Y-80956819D02*
X48023809Y-80956819D01*
X48023809Y-80956819D02*
X48119047Y-81004438D01*
X48119047Y-81004438D02*
X48166666Y-81052057D01*
X48166666Y-81052057D02*
X48214285Y-81147295D01*
X48214285Y-81147295D02*
X48214285Y-81290152D01*
X48214285Y-81290152D02*
X48166666Y-81385390D01*
X48166666Y-81385390D02*
X48119047Y-81433009D01*
X48119047Y-81433009D02*
X48023809Y-81480628D01*
X48023809Y-81480628D02*
X47642857Y-81480628D01*
X48547619Y-80956819D02*
X49166666Y-80956819D01*
X49166666Y-80956819D02*
X48833333Y-81337771D01*
X48833333Y-81337771D02*
X48976190Y-81337771D01*
X48976190Y-81337771D02*
X49071428Y-81385390D01*
X49071428Y-81385390D02*
X49119047Y-81433009D01*
X49119047Y-81433009D02*
X49166666Y-81528247D01*
X49166666Y-81528247D02*
X49166666Y-81766342D01*
X49166666Y-81766342D02*
X49119047Y-81861580D01*
X49119047Y-81861580D02*
X49071428Y-81909200D01*
X49071428Y-81909200D02*
X48976190Y-81956819D01*
X48976190Y-81956819D02*
X48690476Y-81956819D01*
X48690476Y-81956819D02*
X48595238Y-81909200D01*
X48595238Y-81909200D02*
X48547619Y-81861580D01*
X115238095Y-57754819D02*
X115238095Y-58564342D01*
X115238095Y-58564342D02*
X115285714Y-58659580D01*
X115285714Y-58659580D02*
X115333333Y-58707200D01*
X115333333Y-58707200D02*
X115428571Y-58754819D01*
X115428571Y-58754819D02*
X115619047Y-58754819D01*
X115619047Y-58754819D02*
X115714285Y-58707200D01*
X115714285Y-58707200D02*
X115761904Y-58659580D01*
X115761904Y-58659580D02*
X115809523Y-58564342D01*
X115809523Y-58564342D02*
X115809523Y-57754819D01*
X116190476Y-57754819D02*
X116809523Y-57754819D01*
X116809523Y-57754819D02*
X116476190Y-58135771D01*
X116476190Y-58135771D02*
X116619047Y-58135771D01*
X116619047Y-58135771D02*
X116714285Y-58183390D01*
X116714285Y-58183390D02*
X116761904Y-58231009D01*
X116761904Y-58231009D02*
X116809523Y-58326247D01*
X116809523Y-58326247D02*
X116809523Y-58564342D01*
X116809523Y-58564342D02*
X116761904Y-58659580D01*
X116761904Y-58659580D02*
X116714285Y-58707200D01*
X116714285Y-58707200D02*
X116619047Y-58754819D01*
X116619047Y-58754819D02*
X116333333Y-58754819D01*
X116333333Y-58754819D02*
X116238095Y-58707200D01*
X116238095Y-58707200D02*
X116190476Y-58659580D01*
X62833333Y-29929580D02*
X62785714Y-29977200D01*
X62785714Y-29977200D02*
X62642857Y-30024819D01*
X62642857Y-30024819D02*
X62547619Y-30024819D01*
X62547619Y-30024819D02*
X62404762Y-29977200D01*
X62404762Y-29977200D02*
X62309524Y-29881961D01*
X62309524Y-29881961D02*
X62261905Y-29786723D01*
X62261905Y-29786723D02*
X62214286Y-29596247D01*
X62214286Y-29596247D02*
X62214286Y-29453390D01*
X62214286Y-29453390D02*
X62261905Y-29262914D01*
X62261905Y-29262914D02*
X62309524Y-29167676D01*
X62309524Y-29167676D02*
X62404762Y-29072438D01*
X62404762Y-29072438D02*
X62547619Y-29024819D01*
X62547619Y-29024819D02*
X62642857Y-29024819D01*
X62642857Y-29024819D02*
X62785714Y-29072438D01*
X62785714Y-29072438D02*
X62833333Y-29120057D01*
X63214286Y-29120057D02*
X63261905Y-29072438D01*
X63261905Y-29072438D02*
X63357143Y-29024819D01*
X63357143Y-29024819D02*
X63595238Y-29024819D01*
X63595238Y-29024819D02*
X63690476Y-29072438D01*
X63690476Y-29072438D02*
X63738095Y-29120057D01*
X63738095Y-29120057D02*
X63785714Y-29215295D01*
X63785714Y-29215295D02*
X63785714Y-29310533D01*
X63785714Y-29310533D02*
X63738095Y-29453390D01*
X63738095Y-29453390D02*
X63166667Y-30024819D01*
X63166667Y-30024819D02*
X63785714Y-30024819D01*
X71833333Y-29679580D02*
X71785714Y-29727200D01*
X71785714Y-29727200D02*
X71642857Y-29774819D01*
X71642857Y-29774819D02*
X71547619Y-29774819D01*
X71547619Y-29774819D02*
X71404762Y-29727200D01*
X71404762Y-29727200D02*
X71309524Y-29631961D01*
X71309524Y-29631961D02*
X71261905Y-29536723D01*
X71261905Y-29536723D02*
X71214286Y-29346247D01*
X71214286Y-29346247D02*
X71214286Y-29203390D01*
X71214286Y-29203390D02*
X71261905Y-29012914D01*
X71261905Y-29012914D02*
X71309524Y-28917676D01*
X71309524Y-28917676D02*
X71404762Y-28822438D01*
X71404762Y-28822438D02*
X71547619Y-28774819D01*
X71547619Y-28774819D02*
X71642857Y-28774819D01*
X71642857Y-28774819D02*
X71785714Y-28822438D01*
X71785714Y-28822438D02*
X71833333Y-28870057D01*
X72166667Y-28774819D02*
X72785714Y-28774819D01*
X72785714Y-28774819D02*
X72452381Y-29155771D01*
X72452381Y-29155771D02*
X72595238Y-29155771D01*
X72595238Y-29155771D02*
X72690476Y-29203390D01*
X72690476Y-29203390D02*
X72738095Y-29251009D01*
X72738095Y-29251009D02*
X72785714Y-29346247D01*
X72785714Y-29346247D02*
X72785714Y-29584342D01*
X72785714Y-29584342D02*
X72738095Y-29679580D01*
X72738095Y-29679580D02*
X72690476Y-29727200D01*
X72690476Y-29727200D02*
X72595238Y-29774819D01*
X72595238Y-29774819D02*
X72309524Y-29774819D01*
X72309524Y-29774819D02*
X72214286Y-29727200D01*
X72214286Y-29727200D02*
X72166667Y-29679580D01*
X24198571Y-51894819D02*
X23865238Y-51418628D01*
X23627143Y-51894819D02*
X23627143Y-50894819D01*
X23627143Y-50894819D02*
X24008095Y-50894819D01*
X24008095Y-50894819D02*
X24103333Y-50942438D01*
X24103333Y-50942438D02*
X24150952Y-50990057D01*
X24150952Y-50990057D02*
X24198571Y-51085295D01*
X24198571Y-51085295D02*
X24198571Y-51228152D01*
X24198571Y-51228152D02*
X24150952Y-51323390D01*
X24150952Y-51323390D02*
X24103333Y-51371009D01*
X24103333Y-51371009D02*
X24008095Y-51418628D01*
X24008095Y-51418628D02*
X23627143Y-51418628D01*
X24484286Y-50894819D02*
X25055714Y-50894819D01*
X24770000Y-51894819D02*
X24770000Y-50894819D01*
X25389048Y-51894819D02*
X25389048Y-50894819D01*
X25389048Y-51371009D02*
X25960476Y-51371009D01*
X25960476Y-51894819D02*
X25960476Y-50894819D01*
X26960476Y-51894819D02*
X26389048Y-51894819D01*
X26674762Y-51894819D02*
X26674762Y-50894819D01*
X26674762Y-50894819D02*
X26579524Y-51037676D01*
X26579524Y-51037676D02*
X26484286Y-51132914D01*
X26484286Y-51132914D02*
X26389048Y-51180533D01*
X22738095Y-80956819D02*
X23309523Y-80956819D01*
X23023809Y-81956819D02*
X23023809Y-80956819D01*
X23642857Y-81956819D02*
X23642857Y-80956819D01*
X23642857Y-80956819D02*
X24023809Y-80956819D01*
X24023809Y-80956819D02*
X24119047Y-81004438D01*
X24119047Y-81004438D02*
X24166666Y-81052057D01*
X24166666Y-81052057D02*
X24214285Y-81147295D01*
X24214285Y-81147295D02*
X24214285Y-81290152D01*
X24214285Y-81290152D02*
X24166666Y-81385390D01*
X24166666Y-81385390D02*
X24119047Y-81433009D01*
X24119047Y-81433009D02*
X24023809Y-81480628D01*
X24023809Y-81480628D02*
X23642857Y-81480628D01*
X25166666Y-81956819D02*
X24595238Y-81956819D01*
X24880952Y-81956819D02*
X24880952Y-80956819D01*
X24880952Y-80956819D02*
X24785714Y-81099676D01*
X24785714Y-81099676D02*
X24690476Y-81194914D01*
X24690476Y-81194914D02*
X24595238Y-81242533D01*
X20916666Y-35234819D02*
X20916666Y-35949104D01*
X20916666Y-35949104D02*
X20869047Y-36091961D01*
X20869047Y-36091961D02*
X20773809Y-36187200D01*
X20773809Y-36187200D02*
X20630952Y-36234819D01*
X20630952Y-36234819D02*
X20535714Y-36234819D01*
X21916666Y-36234819D02*
X21345238Y-36234819D01*
X21630952Y-36234819D02*
X21630952Y-35234819D01*
X21630952Y-35234819D02*
X21535714Y-35377676D01*
X21535714Y-35377676D02*
X21440476Y-35472914D01*
X21440476Y-35472914D02*
X21345238Y-35520533D01*
X108024819Y-52166666D02*
X107548628Y-52499999D01*
X108024819Y-52738094D02*
X107024819Y-52738094D01*
X107024819Y-52738094D02*
X107024819Y-52357142D01*
X107024819Y-52357142D02*
X107072438Y-52261904D01*
X107072438Y-52261904D02*
X107120057Y-52214285D01*
X107120057Y-52214285D02*
X107215295Y-52166666D01*
X107215295Y-52166666D02*
X107358152Y-52166666D01*
X107358152Y-52166666D02*
X107453390Y-52214285D01*
X107453390Y-52214285D02*
X107501009Y-52261904D01*
X107501009Y-52261904D02*
X107548628Y-52357142D01*
X107548628Y-52357142D02*
X107548628Y-52738094D01*
X108024819Y-51214285D02*
X108024819Y-51785713D01*
X108024819Y-51499999D02*
X107024819Y-51499999D01*
X107024819Y-51499999D02*
X107167676Y-51595237D01*
X107167676Y-51595237D02*
X107262914Y-51690475D01*
X107262914Y-51690475D02*
X107310533Y-51785713D01*
X56833333Y-29059580D02*
X56785714Y-29107200D01*
X56785714Y-29107200D02*
X56642857Y-29154819D01*
X56642857Y-29154819D02*
X56547619Y-29154819D01*
X56547619Y-29154819D02*
X56404762Y-29107200D01*
X56404762Y-29107200D02*
X56309524Y-29011961D01*
X56309524Y-29011961D02*
X56261905Y-28916723D01*
X56261905Y-28916723D02*
X56214286Y-28726247D01*
X56214286Y-28726247D02*
X56214286Y-28583390D01*
X56214286Y-28583390D02*
X56261905Y-28392914D01*
X56261905Y-28392914D02*
X56309524Y-28297676D01*
X56309524Y-28297676D02*
X56404762Y-28202438D01*
X56404762Y-28202438D02*
X56547619Y-28154819D01*
X56547619Y-28154819D02*
X56642857Y-28154819D01*
X56642857Y-28154819D02*
X56785714Y-28202438D01*
X56785714Y-28202438D02*
X56833333Y-28250057D01*
X57785714Y-29154819D02*
X57214286Y-29154819D01*
X57500000Y-29154819D02*
X57500000Y-28154819D01*
X57500000Y-28154819D02*
X57404762Y-28297676D01*
X57404762Y-28297676D02*
X57309524Y-28392914D01*
X57309524Y-28392914D02*
X57214286Y-28440533D01*
X70738095Y-80956819D02*
X71309523Y-80956819D01*
X71023809Y-81956819D02*
X71023809Y-80956819D01*
X71642857Y-81956819D02*
X71642857Y-80956819D01*
X71642857Y-80956819D02*
X72023809Y-80956819D01*
X72023809Y-80956819D02*
X72119047Y-81004438D01*
X72119047Y-81004438D02*
X72166666Y-81052057D01*
X72166666Y-81052057D02*
X72214285Y-81147295D01*
X72214285Y-81147295D02*
X72214285Y-81290152D01*
X72214285Y-81290152D02*
X72166666Y-81385390D01*
X72166666Y-81385390D02*
X72119047Y-81433009D01*
X72119047Y-81433009D02*
X72023809Y-81480628D01*
X72023809Y-81480628D02*
X71642857Y-81480628D01*
X73119047Y-80956819D02*
X72642857Y-80956819D01*
X72642857Y-80956819D02*
X72595238Y-81433009D01*
X72595238Y-81433009D02*
X72642857Y-81385390D01*
X72642857Y-81385390D02*
X72738095Y-81337771D01*
X72738095Y-81337771D02*
X72976190Y-81337771D01*
X72976190Y-81337771D02*
X73071428Y-81385390D01*
X73071428Y-81385390D02*
X73119047Y-81433009D01*
X73119047Y-81433009D02*
X73166666Y-81528247D01*
X73166666Y-81528247D02*
X73166666Y-81766342D01*
X73166666Y-81766342D02*
X73119047Y-81861580D01*
X73119047Y-81861580D02*
X73071428Y-81909200D01*
X73071428Y-81909200D02*
X72976190Y-81956819D01*
X72976190Y-81956819D02*
X72738095Y-81956819D01*
X72738095Y-81956819D02*
X72642857Y-81909200D01*
X72642857Y-81909200D02*
X72595238Y-81861580D01*
X58738095Y-80956819D02*
X59309523Y-80956819D01*
X59023809Y-81956819D02*
X59023809Y-80956819D01*
X59642857Y-81956819D02*
X59642857Y-80956819D01*
X59642857Y-80956819D02*
X60023809Y-80956819D01*
X60023809Y-80956819D02*
X60119047Y-81004438D01*
X60119047Y-81004438D02*
X60166666Y-81052057D01*
X60166666Y-81052057D02*
X60214285Y-81147295D01*
X60214285Y-81147295D02*
X60214285Y-81290152D01*
X60214285Y-81290152D02*
X60166666Y-81385390D01*
X60166666Y-81385390D02*
X60119047Y-81433009D01*
X60119047Y-81433009D02*
X60023809Y-81480628D01*
X60023809Y-81480628D02*
X59642857Y-81480628D01*
X61071428Y-81290152D02*
X61071428Y-81956819D01*
X60833333Y-80909200D02*
X60595238Y-81623485D01*
X60595238Y-81623485D02*
X61214285Y-81623485D01*
X114238095Y-37054819D02*
X114238095Y-37864342D01*
X114238095Y-37864342D02*
X114285714Y-37959580D01*
X114285714Y-37959580D02*
X114333333Y-38007200D01*
X114333333Y-38007200D02*
X114428571Y-38054819D01*
X114428571Y-38054819D02*
X114619047Y-38054819D01*
X114619047Y-38054819D02*
X114714285Y-38007200D01*
X114714285Y-38007200D02*
X114761904Y-37959580D01*
X114761904Y-37959580D02*
X114809523Y-37864342D01*
X114809523Y-37864342D02*
X114809523Y-37054819D01*
X115714285Y-37388152D02*
X115714285Y-38054819D01*
X115476190Y-37007200D02*
X115238095Y-37721485D01*
X115238095Y-37721485D02*
X115857142Y-37721485D01*
X34738095Y-80956819D02*
X35309523Y-80956819D01*
X35023809Y-81956819D02*
X35023809Y-80956819D01*
X35642857Y-81956819D02*
X35642857Y-80956819D01*
X35642857Y-80956819D02*
X36023809Y-80956819D01*
X36023809Y-80956819D02*
X36119047Y-81004438D01*
X36119047Y-81004438D02*
X36166666Y-81052057D01*
X36166666Y-81052057D02*
X36214285Y-81147295D01*
X36214285Y-81147295D02*
X36214285Y-81290152D01*
X36214285Y-81290152D02*
X36166666Y-81385390D01*
X36166666Y-81385390D02*
X36119047Y-81433009D01*
X36119047Y-81433009D02*
X36023809Y-81480628D01*
X36023809Y-81480628D02*
X35642857Y-81480628D01*
X36595238Y-81052057D02*
X36642857Y-81004438D01*
X36642857Y-81004438D02*
X36738095Y-80956819D01*
X36738095Y-80956819D02*
X36976190Y-80956819D01*
X36976190Y-80956819D02*
X37071428Y-81004438D01*
X37071428Y-81004438D02*
X37119047Y-81052057D01*
X37119047Y-81052057D02*
X37166666Y-81147295D01*
X37166666Y-81147295D02*
X37166666Y-81242533D01*
X37166666Y-81242533D02*
X37119047Y-81385390D01*
X37119047Y-81385390D02*
X36547619Y-81956819D01*
X36547619Y-81956819D02*
X37166666Y-81956819D01*
X82738095Y-80956819D02*
X83309523Y-80956819D01*
X83023809Y-81956819D02*
X83023809Y-80956819D01*
X83642857Y-81956819D02*
X83642857Y-80956819D01*
X83642857Y-80956819D02*
X84023809Y-80956819D01*
X84023809Y-80956819D02*
X84119047Y-81004438D01*
X84119047Y-81004438D02*
X84166666Y-81052057D01*
X84166666Y-81052057D02*
X84214285Y-81147295D01*
X84214285Y-81147295D02*
X84214285Y-81290152D01*
X84214285Y-81290152D02*
X84166666Y-81385390D01*
X84166666Y-81385390D02*
X84119047Y-81433009D01*
X84119047Y-81433009D02*
X84023809Y-81480628D01*
X84023809Y-81480628D02*
X83642857Y-81480628D01*
X85071428Y-80956819D02*
X84880952Y-80956819D01*
X84880952Y-80956819D02*
X84785714Y-81004438D01*
X84785714Y-81004438D02*
X84738095Y-81052057D01*
X84738095Y-81052057D02*
X84642857Y-81194914D01*
X84642857Y-81194914D02*
X84595238Y-81385390D01*
X84595238Y-81385390D02*
X84595238Y-81766342D01*
X84595238Y-81766342D02*
X84642857Y-81861580D01*
X84642857Y-81861580D02*
X84690476Y-81909200D01*
X84690476Y-81909200D02*
X84785714Y-81956819D01*
X84785714Y-81956819D02*
X84976190Y-81956819D01*
X84976190Y-81956819D02*
X85071428Y-81909200D01*
X85071428Y-81909200D02*
X85119047Y-81861580D01*
X85119047Y-81861580D02*
X85166666Y-81766342D01*
X85166666Y-81766342D02*
X85166666Y-81528247D01*
X85166666Y-81528247D02*
X85119047Y-81433009D01*
X85119047Y-81433009D02*
X85071428Y-81385390D01*
X85071428Y-81385390D02*
X84976190Y-81337771D01*
X84976190Y-81337771D02*
X84785714Y-81337771D01*
X84785714Y-81337771D02*
X84690476Y-81385390D01*
X84690476Y-81385390D02*
X84642857Y-81433009D01*
X84642857Y-81433009D02*
X84595238Y-81528247D01*
X112024819Y-52166666D02*
X111548628Y-52499999D01*
X112024819Y-52738094D02*
X111024819Y-52738094D01*
X111024819Y-52738094D02*
X111024819Y-52357142D01*
X111024819Y-52357142D02*
X111072438Y-52261904D01*
X111072438Y-52261904D02*
X111120057Y-52214285D01*
X111120057Y-52214285D02*
X111215295Y-52166666D01*
X111215295Y-52166666D02*
X111358152Y-52166666D01*
X111358152Y-52166666D02*
X111453390Y-52214285D01*
X111453390Y-52214285D02*
X111501009Y-52261904D01*
X111501009Y-52261904D02*
X111548628Y-52357142D01*
X111548628Y-52357142D02*
X111548628Y-52738094D01*
X111120057Y-51785713D02*
X111072438Y-51738094D01*
X111072438Y-51738094D02*
X111024819Y-51642856D01*
X111024819Y-51642856D02*
X111024819Y-51404761D01*
X111024819Y-51404761D02*
X111072438Y-51309523D01*
X111072438Y-51309523D02*
X111120057Y-51261904D01*
X111120057Y-51261904D02*
X111215295Y-51214285D01*
X111215295Y-51214285D02*
X111310533Y-51214285D01*
X111310533Y-51214285D02*
X111453390Y-51261904D01*
X111453390Y-51261904D02*
X112024819Y-51833332D01*
X112024819Y-51833332D02*
X112024819Y-51214285D01*
X127024819Y-54166666D02*
X126548628Y-54499999D01*
X127024819Y-54738094D02*
X126024819Y-54738094D01*
X126024819Y-54738094D02*
X126024819Y-54357142D01*
X126024819Y-54357142D02*
X126072438Y-54261904D01*
X126072438Y-54261904D02*
X126120057Y-54214285D01*
X126120057Y-54214285D02*
X126215295Y-54166666D01*
X126215295Y-54166666D02*
X126358152Y-54166666D01*
X126358152Y-54166666D02*
X126453390Y-54214285D01*
X126453390Y-54214285D02*
X126501009Y-54261904D01*
X126501009Y-54261904D02*
X126548628Y-54357142D01*
X126548628Y-54357142D02*
X126548628Y-54738094D01*
X126358152Y-53309523D02*
X127024819Y-53309523D01*
X125977200Y-53547618D02*
X126691485Y-53785713D01*
X126691485Y-53785713D02*
X126691485Y-53166666D01*
X150238095Y-80304819D02*
X150238095Y-79304819D01*
X150238095Y-79781009D02*
X150809523Y-79781009D01*
X150809523Y-80304819D02*
X150809523Y-79304819D01*
X151238095Y-79400057D02*
X151285714Y-79352438D01*
X151285714Y-79352438D02*
X151380952Y-79304819D01*
X151380952Y-79304819D02*
X151619047Y-79304819D01*
X151619047Y-79304819D02*
X151714285Y-79352438D01*
X151714285Y-79352438D02*
X151761904Y-79400057D01*
X151761904Y-79400057D02*
X151809523Y-79495295D01*
X151809523Y-79495295D02*
X151809523Y-79590533D01*
X151809523Y-79590533D02*
X151761904Y-79733390D01*
X151761904Y-79733390D02*
X151190476Y-80304819D01*
X151190476Y-80304819D02*
X151809523Y-80304819D01*
X131238095Y-37054819D02*
X131238095Y-37864342D01*
X131238095Y-37864342D02*
X131285714Y-37959580D01*
X131285714Y-37959580D02*
X131333333Y-38007200D01*
X131333333Y-38007200D02*
X131428571Y-38054819D01*
X131428571Y-38054819D02*
X131619047Y-38054819D01*
X131619047Y-38054819D02*
X131714285Y-38007200D01*
X131714285Y-38007200D02*
X131761904Y-37959580D01*
X131761904Y-37959580D02*
X131809523Y-37864342D01*
X131809523Y-37864342D02*
X131809523Y-37054819D01*
X132761904Y-37054819D02*
X132285714Y-37054819D01*
X132285714Y-37054819D02*
X132238095Y-37531009D01*
X132238095Y-37531009D02*
X132285714Y-37483390D01*
X132285714Y-37483390D02*
X132380952Y-37435771D01*
X132380952Y-37435771D02*
X132619047Y-37435771D01*
X132619047Y-37435771D02*
X132714285Y-37483390D01*
X132714285Y-37483390D02*
X132761904Y-37531009D01*
X132761904Y-37531009D02*
X132809523Y-37626247D01*
X132809523Y-37626247D02*
X132809523Y-37864342D01*
X132809523Y-37864342D02*
X132761904Y-37959580D01*
X132761904Y-37959580D02*
X132714285Y-38007200D01*
X132714285Y-38007200D02*
X132619047Y-38054819D01*
X132619047Y-38054819D02*
X132380952Y-38054819D01*
X132380952Y-38054819D02*
X132285714Y-38007200D01*
X132285714Y-38007200D02*
X132238095Y-37959580D01*
%TO.C,C4*%
D11*
X120490000Y-60140580D02*
X120490000Y-59859420D01*
X121510000Y-60140580D02*
X121510000Y-59859420D01*
%TO.C,R3*%
X135477500Y-48237258D02*
X135477500Y-47762742D01*
X136522500Y-48237258D02*
X136522500Y-47762742D01*
%TO.C,C5*%
X127490000Y-30140580D02*
X127490000Y-29859420D01*
X128510000Y-30140580D02*
X128510000Y-29859420D01*
%TO.C,TP7*%
X97700000Y-84000000D02*
G75*
G02*
X94300000Y-84000000I-1700000J0D01*
G01*
X94300000Y-84000000D02*
G75*
G02*
X97700000Y-84000000I1700000J0D01*
G01*
%TO.C,U1*%
X65250000Y-22000000D02*
X65250000Y-24450000D01*
X65250000Y-24450000D02*
X67580000Y-24450000D01*
X65580000Y-16270000D02*
X77520000Y-16270000D01*
X65580000Y-24120000D02*
X65580000Y-16270000D01*
X77520000Y-16270000D02*
X77520000Y-24120000D01*
X77520000Y-24120000D02*
X65580000Y-24120000D01*
%TO.C,F1*%
X28500000Y-19350000D02*
X28500000Y-20900000D01*
X28500000Y-24650000D02*
X28500000Y-23100000D01*
X34500000Y-19350000D02*
X28500000Y-19350000D01*
X34500000Y-19350000D02*
X34500000Y-20900000D01*
X34500000Y-24650000D02*
X28500000Y-24650000D01*
X34500000Y-24650000D02*
X34500000Y-23100000D01*
X43500000Y-19350000D02*
X43500000Y-20900000D01*
X43500000Y-19500000D02*
X34500000Y-19500000D01*
X43500000Y-24500000D02*
X34500000Y-24500000D01*
X43500000Y-24650000D02*
X43500000Y-23100000D01*
X43500000Y-24650000D02*
X49500000Y-24650000D01*
X49500000Y-19350000D02*
X43500000Y-19350000D01*
X49500000Y-20900000D02*
X49500000Y-19350000D01*
X49500000Y-23100000D02*
X49500000Y-24650000D01*
%TO.C,J2*%
X94620000Y-63380000D02*
X94620000Y-62000000D01*
X96000000Y-63380000D02*
X94620000Y-63380000D01*
X97270000Y-60620000D02*
X102460000Y-60620000D01*
X97270000Y-63380000D02*
X97270000Y-60620000D01*
X97270000Y-63380000D02*
X102460000Y-63380000D01*
X102460000Y-63380000D02*
X102460000Y-60620000D01*
%TO.C,R5*%
X144477500Y-40237258D02*
X144477500Y-39762742D01*
X145522500Y-40237258D02*
X145522500Y-39762742D01*
%TO.C,D1*%
X53490000Y-20350000D02*
X53490000Y-23650000D01*
X53490000Y-20350000D02*
X59000000Y-20350000D01*
X53490000Y-23650000D02*
X59000000Y-23650000D01*
%TO.C,U2*%
X80140000Y-36490000D02*
X87860000Y-36490000D01*
X80140000Y-36725000D02*
X80140000Y-36490000D01*
X80140000Y-49510000D02*
X80140000Y-49275000D01*
X87860000Y-36490000D02*
X87860000Y-36725000D01*
X87860000Y-49275000D02*
X87860000Y-49510000D01*
X87860000Y-49510000D02*
X80140000Y-49510000D01*
X79350000Y-36720000D02*
X79010000Y-36250000D01*
X79690000Y-36250000D01*
X79350000Y-36720000D01*
G36*
X79350000Y-36720000D02*
G01*
X79010000Y-36250000D01*
X79690000Y-36250000D01*
X79350000Y-36720000D01*
G37*
%TO.C,U6*%
X83090000Y-25440000D02*
X84910000Y-25440000D01*
X83090000Y-25490000D02*
X83090000Y-25440000D01*
X83090000Y-28560000D02*
X83090000Y-28510000D01*
X84910000Y-25440000D02*
X84910000Y-25490000D01*
X84910000Y-26610000D02*
X84910000Y-27390000D01*
X84910000Y-28510000D02*
X84910000Y-28560000D01*
X84910000Y-28560000D02*
X83090000Y-28560000D01*
X82550000Y-25490000D02*
X82310000Y-25160000D01*
X82790000Y-25160000D01*
X82550000Y-25490000D01*
G36*
X82550000Y-25490000D02*
G01*
X82310000Y-25160000D01*
X82790000Y-25160000D01*
X82550000Y-25490000D01*
G37*
%TO.C,TP8*%
X109700000Y-84000000D02*
G75*
G02*
X106300000Y-84000000I-1700000J0D01*
G01*
X106300000Y-84000000D02*
G75*
G02*
X109700000Y-84000000I1700000J0D01*
G01*
%TO.C,TP10*%
X133700000Y-84000000D02*
G75*
G02*
X130300000Y-84000000I-1700000J0D01*
G01*
X130300000Y-84000000D02*
G75*
G02*
X133700000Y-84000000I1700000J0D01*
G01*
%TO.C,TP9*%
X121700000Y-84000000D02*
G75*
G02*
X118300000Y-84000000I-1700000J0D01*
G01*
X118300000Y-84000000D02*
G75*
G02*
X121700000Y-84000000I1700000J0D01*
G01*
%TO.C,C6*%
X144490000Y-49140580D02*
X144490000Y-48859420D01*
X145510000Y-49140580D02*
X145510000Y-48859420D01*
%TO.C,TP3*%
X49700000Y-84000000D02*
G75*
G02*
X46300000Y-84000000I-1700000J0D01*
G01*
X46300000Y-84000000D02*
G75*
G02*
X49700000Y-84000000I1700000J0D01*
G01*
%TO.C,U3*%
X115250000Y-59140000D02*
X116750000Y-59140000D01*
X115250000Y-60860000D02*
X116750000Y-60860000D01*
X114800000Y-59400000D02*
X114520000Y-59400000D01*
X114800000Y-59120000D01*
X114800000Y-59400000D01*
G36*
X114800000Y-59400000D02*
G01*
X114520000Y-59400000D01*
X114800000Y-59120000D01*
X114800000Y-59400000D01*
G37*
%TO.C,C2*%
X62859420Y-30490000D02*
X63140580Y-30490000D01*
X62859420Y-31510000D02*
X63140580Y-31510000D01*
%TO.C,C3*%
X71738748Y-30265000D02*
X72261252Y-30265000D01*
X71738748Y-31735000D02*
X72261252Y-31735000D01*
%TO.C,RTH1*%
X23470000Y-56850000D02*
X27070000Y-56850000D01*
X23431522Y-56838478D02*
G75*
G02*
X25270000Y-52399999I1838478J1838478D01*
G01*
X25270000Y-52400000D02*
G75*
G02*
X27108478Y-56838478I0J-2600000D01*
G01*
%TO.C,TP1*%
X25700000Y-84000000D02*
G75*
G02*
X22300000Y-84000000I-1700000J0D01*
G01*
X22300000Y-84000000D02*
G75*
G02*
X25700000Y-84000000I1700000J0D01*
G01*
%TO.C,J1*%
X14130000Y-36780000D02*
X28370000Y-36780000D01*
X14130000Y-43000000D02*
X28370000Y-43000000D01*
X14130000Y-44100000D02*
X28370000Y-44100000D01*
X14130000Y-44620000D02*
X14130000Y-36780000D01*
X15700000Y-44620000D02*
X14130000Y-44620000D01*
X28370000Y-36780000D02*
X28370000Y-44620000D01*
X28370000Y-44620000D02*
X16300000Y-44620000D01*
X16000000Y-44620000D02*
X16440000Y-45230000D01*
X15560000Y-45230000D01*
X16000000Y-44620000D01*
G36*
X16440000Y-45230000D02*
G01*
X15560000Y-45230000D01*
X16000000Y-44620000D01*
X16440000Y-45230000D01*
G37*
%TO.C,R1*%
X108477500Y-52237258D02*
X108477500Y-51762742D01*
X109522500Y-52237258D02*
X109522500Y-51762742D01*
%TO.C,C1*%
X56288748Y-29640000D02*
X57711252Y-29640000D01*
X56288748Y-32360000D02*
X57711252Y-32360000D01*
%TO.C,TP5*%
X73700000Y-84000000D02*
G75*
G02*
X70300000Y-84000000I-1700000J0D01*
G01*
X70300000Y-84000000D02*
G75*
G02*
X73700000Y-84000000I1700000J0D01*
G01*
%TO.C,TP4*%
X61700000Y-84000000D02*
G75*
G02*
X58300000Y-84000000I-1700000J0D01*
G01*
X58300000Y-84000000D02*
G75*
G02*
X61700000Y-84000000I1700000J0D01*
G01*
%TO.C,U4*%
X114090000Y-38440000D02*
X115910000Y-38440000D01*
X114090000Y-38490000D02*
X114090000Y-38440000D01*
X114090000Y-41560000D02*
X114090000Y-41510000D01*
X115910000Y-38440000D02*
X115910000Y-38490000D01*
X115910000Y-41510000D02*
X115910000Y-41560000D01*
X115910000Y-41560000D02*
X114090000Y-41560000D01*
X113550000Y-38490000D02*
X113310000Y-38160000D01*
X113790000Y-38160000D01*
X113550000Y-38490000D01*
G36*
X113550000Y-38490000D02*
G01*
X113310000Y-38160000D01*
X113790000Y-38160000D01*
X113550000Y-38490000D01*
G37*
%TO.C,TP2*%
X37700000Y-84000000D02*
G75*
G02*
X34300000Y-84000000I-1700000J0D01*
G01*
X34300000Y-84000000D02*
G75*
G02*
X37700000Y-84000000I1700000J0D01*
G01*
%TO.C,TP6*%
X85700000Y-84000000D02*
G75*
G02*
X82300000Y-84000000I-1700000J0D01*
G01*
X82300000Y-84000000D02*
G75*
G02*
X85700000Y-84000000I1700000J0D01*
G01*
%TO.C,R2*%
X112477500Y-52237258D02*
X112477500Y-51762742D01*
X113522500Y-52237258D02*
X113522500Y-51762742D01*
%TO.C,R4*%
X127477500Y-54237258D02*
X127477500Y-53762742D01*
X128522500Y-54237258D02*
X128522500Y-53762742D01*
%TO.C,U5*%
X131090000Y-38440000D02*
X132910000Y-38440000D01*
X131090000Y-38490000D02*
X131090000Y-38440000D01*
X131090000Y-41560000D02*
X131090000Y-41510000D01*
X132910000Y-38440000D02*
X132910000Y-38490000D01*
X132910000Y-39610000D02*
X132910000Y-40390000D01*
X132910000Y-41510000D02*
X132910000Y-41560000D01*
X132910000Y-41560000D02*
X131090000Y-41560000D01*
X130550000Y-38490000D02*
X130310000Y-38160000D01*
X130790000Y-38160000D01*
X130550000Y-38490000D01*
G36*
X130550000Y-38490000D02*
G01*
X130310000Y-38160000D01*
X130790000Y-38160000D01*
X130550000Y-38490000D01*
G37*
%TD*%
%LPC*%
D12*
%TO.C,H1*%
X14000000Y-84000000D03*
%TD*%
D13*
%TO.C,C4*%
X121000000Y-60775000D03*
X121000000Y-59225000D03*
%TD*%
D14*
%TO.C,R3*%
X136000000Y-48825000D03*
X136000000Y-47175000D03*
%TD*%
D13*
%TO.C,C5*%
X128000000Y-30775000D03*
X128000000Y-29225000D03*
%TD*%
D15*
%TO.C,TP7*%
X96000000Y-84000000D03*
%TD*%
D16*
%TO.C,U1*%
X69000000Y-22000000D03*
D17*
X71540000Y-22000000D03*
X74080000Y-22000000D03*
%TD*%
D18*
%TO.C,F1*%
X29000000Y-22000000D03*
X34000000Y-22000000D03*
D19*
X44000000Y-22000000D03*
X49000000Y-22000000D03*
%TD*%
D20*
%TO.C,J2*%
X96000000Y-62000000D03*
D21*
X98540000Y-62000000D03*
X101080000Y-62000000D03*
%TD*%
D14*
%TO.C,R5*%
X145000000Y-40825000D03*
X145000000Y-39175000D03*
%TD*%
D22*
%TO.C,D1*%
X55000000Y-22000000D03*
X59000000Y-22000000D03*
%TD*%
D23*
%TO.C,U2*%
X79350000Y-37285000D03*
X79350000Y-38555000D03*
X79350000Y-39825000D03*
X79350000Y-41095000D03*
X79350000Y-42365000D03*
X79350000Y-43635000D03*
X79350000Y-44905000D03*
X79350000Y-46175000D03*
X79350000Y-47445000D03*
X79350000Y-48715000D03*
X88650000Y-48715000D03*
X88650000Y-47445000D03*
X88650000Y-46175000D03*
X88650000Y-44905000D03*
X88650000Y-43635000D03*
X88650000Y-42365000D03*
X88650000Y-41095000D03*
X88650000Y-39825000D03*
X88650000Y-38555000D03*
X88650000Y-37285000D03*
%TD*%
D24*
%TO.C,U6*%
X82862500Y-26050000D03*
X82862500Y-27000000D03*
X82862500Y-27950000D03*
X85137500Y-27950000D03*
X85137500Y-26050000D03*
%TD*%
D15*
%TO.C,TP8*%
X108000000Y-84000000D03*
%TD*%
%TO.C,TP10*%
X132000000Y-84000000D03*
%TD*%
%TO.C,TP9*%
X120000000Y-84000000D03*
%TD*%
D13*
%TO.C,C6*%
X145000000Y-49775000D03*
X145000000Y-48225000D03*
%TD*%
D15*
%TO.C,TP3*%
X48000000Y-84000000D03*
%TD*%
D25*
%TO.C,U3*%
X115300000Y-59600000D03*
X115300000Y-60400000D03*
X116700000Y-60400000D03*
X116700000Y-59600000D03*
%TD*%
D26*
%TO.C,C2*%
X62225000Y-31000000D03*
X63775000Y-31000000D03*
%TD*%
D27*
%TO.C,C3*%
X71050000Y-31000000D03*
X72950000Y-31000000D03*
%TD*%
D28*
%TO.C,RTH1*%
X24000000Y-55000000D03*
D29*
X25270000Y-55000000D03*
X26540000Y-55000000D03*
%TD*%
D15*
%TO.C,TP1*%
X24000000Y-84000000D03*
%TD*%
D30*
%TO.C,J1*%
X16000000Y-40000000D03*
D31*
X19500000Y-40000000D03*
X23000000Y-40000000D03*
X26500000Y-40000000D03*
%TD*%
D14*
%TO.C,R1*%
X109000000Y-52825000D03*
X109000000Y-51175000D03*
%TD*%
D32*
%TO.C,C1*%
X55525000Y-31000000D03*
X58475000Y-31000000D03*
%TD*%
D15*
%TO.C,TP5*%
X72000000Y-84000000D03*
%TD*%
%TO.C,TP4*%
X60000000Y-84000000D03*
%TD*%
D24*
%TO.C,U4*%
X113862500Y-39050000D03*
X113862500Y-40000000D03*
X113862500Y-40950000D03*
X116137500Y-40950000D03*
X116137500Y-40000000D03*
X116137500Y-39050000D03*
%TD*%
D15*
%TO.C,TP2*%
X36000000Y-84000000D03*
%TD*%
%TO.C,TP6*%
X84000000Y-84000000D03*
%TD*%
D14*
%TO.C,R2*%
X113000000Y-52825000D03*
X113000000Y-51175000D03*
%TD*%
%TO.C,R4*%
X128000000Y-54825000D03*
X128000000Y-53175000D03*
%TD*%
D12*
%TO.C,H2*%
X151000000Y-84000000D03*
%TD*%
D24*
%TO.C,U5*%
X130862500Y-39050000D03*
X130862500Y-40000000D03*
X130862500Y-40950000D03*
X133137500Y-40950000D03*
X133137500Y-39050000D03*
%TD*%
%LPD*%
M02*
