M48
; DRILL file KiCad 10.0.5 date 2026-08-07T12:52:10
; FORMAT={-:-/ absolute / metric / decimal}
; #@! TF.CreationDate,2026-08-07T12:52:10+02:00
; #@! TF.GenerationSoftware,Kicad,Pcbnew,10.0.5
; #@! TF.FileFunction,Plated,1,2,PTH
FMAT,2
METRIC
; #@! TA.AperFunction,Plated,PTH,ViaDrill
T1C0.300
; #@! TA.AperFunction,Plated,PTH,ViaDrill
T2C0.400
; #@! TA.AperFunction,Plated,PTH,ComponentDrill
T3C0.750
; #@! TA.AperFunction,Plated,PTH,ComponentDrill
T4C1.000
; #@! TA.AperFunction,Plated,PTH,ComponentDrill
T5C1.050
; #@! TA.AperFunction,Plated,PTH,ComponentDrill
T6C1.200
; #@! TA.AperFunction,Plated,PTH,ComponentDrill
T7C2.000
%
G90
G05
T1
X49.905Y-19.744
X52.518Y-22.933
X52.868Y-31.622
X59.714Y-31.622
X70.042Y-31.622
X76.574Y-60.585
X77.815Y-37.415
X85.464Y-40.311
X88.427Y-25.829
X91.391Y-40.426
X91.391Y-43.034
X109.0Y-53.78
X110.114Y-52.181
X111.538Y-51.536
X113.565Y-41.776
X116.137Y-41.789
X121.024Y-43.207
X121.079Y-57.513
X128.745Y-54.08
X135.84Y-40.311
X138.517Y-45.817
X145.775Y-49.0
X146.004Y-39.175
T2
X113.5Y-58.6
X113.5Y-61.4
X115.5Y-55.0
X115.5Y-58.5
T3
X24.0Y-55.0
X25.27Y-55.0
X26.54Y-55.0
T4
X69.0Y-22.0
X71.54Y-22.0
X74.08Y-22.0
X96.0Y-62.0
X98.54Y-62.0
X101.08Y-62.0
T5
X29.0Y-22.0
X34.0Y-22.0
X44.0Y-22.0
X49.0Y-22.0
T6
X16.0Y-40.0
X19.5Y-40.0
X23.0Y-40.0
X26.5Y-40.0
T7
X24.0Y-84.0
X36.0Y-84.0
X48.0Y-84.0
X60.0Y-84.0
X72.0Y-84.0
X84.0Y-84.0
X96.0Y-84.0
X108.0Y-84.0
X120.0Y-84.0
X132.0Y-84.0
M30
