%TF.GenerationSoftware,KiCad,Pcbnew,10.0.5*%
%TF.CreationDate,2026-08-07T12:10:13+02:00*%
%TF.ProjectId,IDM-FakeSensor-ESP-B-ES1,49444d2d-4661-46b6-9553-656e736f722d,rev?*%
%TF.SameCoordinates,Original*%
%TF.FileFunction,Copper,L1,Top*%
%TF.FilePolarity,Positive*%
%FSLAX46Y46*%
G04 Gerber Fmt 4.6, Leading zero omitted, Abs format (unit mm)*
G04 Created by KiCad (PCBNEW 10.0.5) date 2026-08-07 12:10:13*
%MOMM*%
%LPD*%
G01*
G04 APERTURE LIST*
G04 Aperture macros list*
%AMRoundRect*
0 Rectangle with rounded corners*
0 $1 Rounding radius*
0 $2 $3 $4 $5 $6 $7 $8 $9 X,Y pos of 4 corners*
0 Add a 4 corners polygon primitive as box body*
4,1,4,$2,$3,$4,$5,$6,$7,$8,$9,$2,$3,0*
0 Add four circle primitives for the rounded corners*
1,1,$1+$1,$2,$3*
1,1,$1+$1,$4,$5*
1,1,$1+$1,$6,$7*
1,1,$1+$1,$8,$9*
0 Add four rect primitives between the rounded corners*
20,1,$1+$1,$2,$3,$4,$5,0*
20,1,$1+$1,$4,$5,$6,$7,0*
20,1,$1+$1,$6,$7,$8,$9,0*
20,1,$1+$1,$8,$9,$2,$3,0*%
G04 Aperture macros list end*
%TA.AperFunction,SMDPad,CuDef*%
%ADD10RoundRect,0.225000X0.250000X-0.225000X0.250000X0.225000X-0.250000X0.225000X-0.250000X-0.225000X0*%
%TD*%
%TA.AperFunction,ComponentPad*%
%ADD11C,3.000000*%
%TD*%
%TA.AperFunction,SMDPad,CuDef*%
%ADD12RoundRect,0.150000X-0.512500X-0.150000X0.512500X-0.150000X0.512500X0.150000X-0.512500X0.150000X0*%
%TD*%
%TA.AperFunction,ComponentPad*%
%ADD13R,1.500000X2.500000*%
%TD*%
%TA.AperFunction,ComponentPad*%
%ADD14O,1.500000X2.500000*%
%TD*%
%TA.AperFunction,SMDPad,CuDef*%
%ADD15RoundRect,0.225000X-0.225000X-0.250000X0.225000X-0.250000X0.225000X0.250000X-0.225000X0.250000X0*%
%TD*%
%TA.AperFunction,SMDPad,CuDef*%
%ADD16RoundRect,0.250000X-1.000000X-0.650000X1.000000X-0.650000X1.000000X0.650000X-1.000000X0.650000X0*%
%TD*%
%TA.AperFunction,SMDPad,CuDef*%
%ADD17RoundRect,0.200000X-0.200000X-0.275000X0.200000X-0.275000X0.200000X0.275000X-0.200000X0.275000X0*%
%TD*%
%TA.AperFunction,ComponentPad*%
%ADD18RoundRect,0.250001X-0.949999X-0.949999X0.949999X-0.949999X0.949999X0.949999X-0.949999X0.949999X0*%
%TD*%
%TA.AperFunction,ComponentPad*%
%ADD19C,2.400000*%
%TD*%
%TA.AperFunction,ComponentPad*%
%ADD20R,1.500000X1.500000*%
%TD*%
%TA.AperFunction,ComponentPad*%
%ADD21C,1.500000*%
%TD*%
%TA.AperFunction,SMDPad,CuDef*%
%ADD22RoundRect,0.250000X-0.250000X-0.475000X0.250000X-0.475000X0.250000X0.475000X-0.250000X0.475000X0*%
%TD*%
%TA.AperFunction,SMDPad,CuDef*%
%ADD23RoundRect,0.250000X-0.325000X-1.100000X0.325000X-1.100000X0.325000X1.100000X-0.325000X1.100000X0*%
%TD*%
%TA.AperFunction,SMDPad,CuDef*%
%ADD24RoundRect,0.200000X0.275000X-0.200000X0.275000X0.200000X-0.275000X0.200000X-0.275000X-0.200000X0*%
%TD*%
%TA.AperFunction,ComponentPad*%
%ADD25RoundRect,0.500000X-0.500000X-0.500000X0.500000X-0.500000X0.500000X0.500000X-0.500000X0.500000X0*%
%TD*%
%TA.AperFunction,ComponentPad*%
%ADD26C,2.000000*%
%TD*%
%TA.AperFunction,ViaPad*%
%ADD27C,0.900000*%
%TD*%
%TA.AperFunction,ViaPad*%
%ADD28C,0.600000*%
%TD*%
%TA.AperFunction,Conductor*%
%ADD29C,0.800000*%
%TD*%
%TA.AperFunction,Conductor*%
%ADD30C,0.200000*%
%TD*%
G04 APERTURE END LIST*
D10*
%TO.P,C5,1*%
%TO.N,24V_PROT*%
X128000000Y-30775000D03*
%TO.P,C5,2*%
%TO.N,GND*%
X128000000Y-29225000D03*
%TD*%
D11*
%TO.P,TP5,1*%
%TO.N,DAC_RAW*%
X108000000Y-79000000D03*
%TD*%
%TO.P,TP4,1*%
%TO.N,+3V3*%
X84000000Y-79000000D03*
%TD*%
D12*
%TO.P,U2,1*%
%TO.N,DAC_RAW*%
X113862500Y-39050000D03*
%TO.P,U2,2*%
%TO.N,GND*%
X113862500Y-40000000D03*
%TO.P,U2,3*%
%TO.N,+3V3*%
X113862500Y-40950000D03*
%TO.P,U2,4*%
%TO.N,I2C_SDA*%
X116137500Y-40950000D03*
%TO.P,U2,5*%
%TO.N,I2C_SCL*%
X116137500Y-40000000D03*
%TO.P,U2,6*%
%TO.N,GND*%
X116137500Y-39050000D03*
%TD*%
D13*
%TO.P,U1,1*%
%TO.N,24V_PROT*%
X69000000Y-22000000D03*
D14*
%TO.P,U1,2*%
%TO.N,GND*%
X71540000Y-22000000D03*
%TO.P,U1,3*%
%TO.N,+5V*%
X74080000Y-22000000D03*
%TD*%
D11*
%TO.P,TP2,1*%
%TO.N,24V_PROT*%
X44000000Y-79000000D03*
%TD*%
%TO.P,TP1,1*%
%TO.N,24V_RAW*%
X24000000Y-79000000D03*
%TD*%
%TO.P,TP7,1*%
%TO.N,GND*%
X140000000Y-79000000D03*
%TD*%
D15*
%TO.P,C2,1*%
%TO.N,24V_PROT*%
X62225000Y-31000000D03*
%TO.P,C2,2*%
%TO.N,GND*%
X63775000Y-31000000D03*
%TD*%
D11*
%TO.P,TP3,1*%
%TO.N,+5V*%
X64000000Y-79000000D03*
%TD*%
D16*
%TO.P,D1,1*%
%TO.N,24V_PROT*%
X55000000Y-22000000D03*
%TO.P,D1,2*%
%TO.N,24V_FUSED*%
X59000000Y-22000000D03*
%TD*%
D17*
%TO.P,R3,1*%
%TO.N,OPAMP_OUT*%
X133175000Y-49000000D03*
%TO.P,R3,2*%
%TO.N,OPAMP_FB*%
X134825000Y-49000000D03*
%TD*%
D10*
%TO.P,C4,1*%
%TO.N,+3V3*%
X116000000Y-30775000D03*
%TO.P,C4,2*%
%TO.N,GND*%
X116000000Y-29225000D03*
%TD*%
D18*
%TO.P,J1,1*%
%TO.N,N/C*%
X16000000Y-40000000D03*
D19*
%TO.P,J1,2*%
%TO.N,24V_RAW*%
X19500000Y-40000000D03*
%TO.P,J1,3*%
%TO.N,GND*%
X23000000Y-40000000D03*
%TO.P,J1,4*%
%TO.N,RH_OUT*%
X26500000Y-40000000D03*
%TD*%
D20*
%TO.P,A1,1*%
%TO.N,GND*%
X80000000Y-36000000D03*
D21*
%TO.P,A1,2*%
%TO.N,+3V3*%
X80000000Y-38540000D03*
%TO.P,A1,3*%
X80000000Y-41080000D03*
%TO.P,A1,4*%
%TO.N,N/C*%
X80000000Y-43620000D03*
%TO.P,A1,5*%
X80000000Y-46160000D03*
%TO.P,A1,6*%
%TO.N,GND*%
X80000000Y-48700000D03*
%TO.P,A1,7*%
%TO.N,N/C*%
X80000000Y-51240000D03*
%TO.P,A1,8*%
%TO.N,GND*%
X80000000Y-53780000D03*
%TO.P,A1,9*%
%TO.N,N/C*%
X80000000Y-56320000D03*
%TO.P,A1,10*%
X80000000Y-58860000D03*
%TO.P,A1,11*%
X80000000Y-61400000D03*
%TO.P,A1,12*%
%TO.N,GND*%
X80000000Y-63940000D03*
%TO.P,A1,13*%
%TO.N,+5V*%
X80000000Y-66480000D03*
%TO.P,A1,14*%
X80000000Y-69020000D03*
%TO.P,A1,15*%
%TO.N,GND*%
X80000000Y-71560000D03*
%TO.P,A1,16*%
X102860000Y-71560000D03*
%TO.P,A1,17*%
%TO.N,N/C*%
X102860000Y-69020000D03*
%TO.P,A1,18*%
X102860000Y-66480000D03*
%TO.P,A1,19*%
%TO.N,GND*%
X102860000Y-63940000D03*
%TO.P,A1,20*%
%TO.N,N/C*%
X102860000Y-61400000D03*
%TO.P,A1,21*%
X102860000Y-58860000D03*
%TO.P,A1,22*%
X102860000Y-56320000D03*
%TO.P,A1,23*%
X102860000Y-53780000D03*
%TO.P,A1,24*%
%TO.N,GND*%
X102860000Y-51240000D03*
%TO.P,A1,25*%
%TO.N,I2C_SDA*%
X102860000Y-48700000D03*
%TO.P,A1,26*%
%TO.N,I2C_SCL*%
X102860000Y-46160000D03*
%TO.P,A1,27*%
%TO.N,GND*%
X102860000Y-43620000D03*
%TO.P,A1,28*%
%TO.N,N/C*%
X102860000Y-41080000D03*
%TO.P,A1,29*%
X102860000Y-38540000D03*
%TO.P,A1,30*%
%TO.N,GND*%
X102860000Y-36000000D03*
%TD*%
D22*
%TO.P,C3,1*%
%TO.N,+5V*%
X71050000Y-31000000D03*
%TO.P,C3,2*%
%TO.N,GND*%
X72950000Y-31000000D03*
%TD*%
D12*
%TO.P,U3,1*%
%TO.N,OPAMP_OUT*%
X130862500Y-39050000D03*
%TO.P,U3,2*%
%TO.N,GND*%
X130862500Y-40000000D03*
%TO.P,U3,3*%
%TO.N,DAC_RAW*%
X130862500Y-40950000D03*
%TO.P,U3,4*%
%TO.N,OPAMP_FB*%
X133137500Y-40950000D03*
%TO.P,U3,5*%
%TO.N,24V_PROT*%
X133137500Y-39050000D03*
%TD*%
D23*
%TO.P,C1,1*%
%TO.N,24V_PROT*%
X55525000Y-31000000D03*
%TO.P,C1,2*%
%TO.N,GND*%
X58475000Y-31000000D03*
%TD*%
D10*
%TO.P,C6,1*%
%TO.N,RH_OUT*%
X145000000Y-49775000D03*
%TO.P,C6,2*%
%TO.N,GND*%
X145000000Y-48225000D03*
%TD*%
D24*
%TO.P,R2,1*%
%TO.N,+3V3*%
X112000000Y-30825000D03*
%TO.P,R2,2*%
%TO.N,I2C_SCL*%
X112000000Y-29175000D03*
%TD*%
%TO.P,R1,1*%
%TO.N,+3V3*%
X108000000Y-30825000D03*
%TO.P,R1,2*%
%TO.N,I2C_SDA*%
X108000000Y-29175000D03*
%TD*%
D25*
%TO.P,F1,1*%
%TO.N,24V_RAW*%
X29000000Y-22000000D03*
X34000000Y-22000000D03*
D26*
%TO.P,F1,2*%
%TO.N,24V_FUSED*%
X44000000Y-22000000D03*
X49000000Y-22000000D03*
%TD*%
D17*
%TO.P,R5,1*%
%TO.N,OPAMP_OUT*%
X143175000Y-40000000D03*
%TO.P,R5,2*%
%TO.N,RH_OUT*%
X144825000Y-40000000D03*
%TD*%
D24*
%TO.P,R4,1*%
%TO.N,OPAMP_FB*%
X128000000Y-54825000D03*
%TO.P,R4,2*%
%TO.N,GND*%
X128000000Y-53175000D03*
%TD*%
D11*
%TO.P,TP6,1*%
%TO.N,RH_OUT*%
X128000000Y-79000000D03*
%TD*%
D27*
%TO.N,24V_PROT*%
X54000000Y-34000000D03*
X133137499Y-36000000D03*
X126000000Y-30775000D03*
X61000000Y-34000000D03*
X55000000Y-25000000D03*
D28*
%TO.N,DAC_RAW*%
X117818000Y-40950000D03*
%TO.N,+3V3*%
X97317400Y-31054400D03*
%TO.N,I2C_SDA*%
X109238500Y-30124000D03*
%TO.N,I2C_SCL*%
X113045700Y-30220600D03*
%TO.N,RH_OUT*%
X145000000Y-50727900D03*
%TD*%
%TO.N,24V_PROT*%
D29*
X55000000Y-22000000D02*
X55000000Y-25000000D01*
X133137500Y-39050000D02*
X133137499Y-36000000D01*
X55525000Y-31000000D02*
X54000000Y-34000000D01*
X128000000Y-30775000D02*
X126000000Y-30775000D01*
X62225000Y-31000000D02*
X61000000Y-34000000D01*
%TO.N,DAC_RAW*%
D30*
X114521600Y-38390900D02*
X113862500Y-39050000D01*
X117818000Y-39396800D02*
X116812100Y-38390900D01*
X116812100Y-38390900D02*
X114521600Y-38390900D01*
X130862500Y-40950000D02*
X117818000Y-40950000D01*
X117818000Y-40950000D02*
X117818000Y-39396800D01*
%TO.N,+3V3*%
X107770600Y-31054400D02*
X108000000Y-30825000D01*
X97317400Y-31054400D02*
X107770600Y-31054400D01*
X116000000Y-30775000D02*
X113697500Y-28472500D01*
X113697500Y-28472500D02*
X111516800Y-28472500D01*
X111222500Y-28766800D02*
X110928200Y-28472500D01*
X107504700Y-39668400D02*
X108786300Y-40950000D01*
X110928200Y-28472500D02*
X107516800Y-28472500D01*
X80000000Y-38540000D02*
X81128400Y-39668400D01*
X81128400Y-39668400D02*
X107504700Y-39668400D01*
X111222500Y-30047500D02*
X112000000Y-30825000D01*
X111222500Y-28766800D02*
X111222500Y-30047500D01*
X111516800Y-28472500D02*
X111222500Y-28766800D01*
X108786300Y-40950000D02*
X113862500Y-40950000D01*
X107222500Y-30047500D02*
X108000000Y-30825000D01*
X107516800Y-28472500D02*
X107222500Y-28766800D01*
X107222500Y-28766800D02*
X107222500Y-30047500D01*
%TO.N,I2C_SDA*%
X108949000Y-30124000D02*
X108000000Y-29175000D01*
X102860000Y-48700000D02*
X108387500Y-48700000D01*
X108387500Y-48700000D02*
X116137500Y-40950000D01*
X109238500Y-30124000D02*
X108949000Y-30124000D01*
%TO.N,I2C_SCL*%
X113045600Y-30220600D02*
X112000000Y-29175000D01*
X113045700Y-30220600D02*
X113045600Y-30220600D01*
X109999900Y-46160000D02*
X115036400Y-41123500D01*
X115761600Y-40000000D02*
X116137500Y-40000000D01*
X115036400Y-41123500D02*
X115036400Y-40725200D01*
X115036400Y-40725200D02*
X115761600Y-40000000D01*
X102860000Y-46160000D02*
X109999900Y-46160000D01*
%TO.N,+5V*%
X71050000Y-31000000D02*
X73028300Y-29021700D01*
X74080000Y-22000000D02*
X73028300Y-22000000D01*
X73028300Y-29021700D02*
X73028300Y-22000000D01*
%TO.N,24V_RAW*%
X34000000Y-22000000D02*
X29000000Y-22000000D01*
%TO.N,24V_FUSED*%
D29*
X49000000Y-18000000D02*
X61000000Y-18000000D01*
X44000000Y-22000000D02*
X49000000Y-22000000D01*
X61000000Y-18000000D02*
X59000000Y-22000000D01*
X49000000Y-22000000D02*
X49000000Y-18000000D01*
%TO.N,OPAMP_OUT*%
D30*
X132146800Y-39880600D02*
X132146800Y-40000000D01*
X131316200Y-39050000D02*
X132146800Y-39880600D01*
X132146800Y-40000000D02*
X132146900Y-40000000D01*
X130862500Y-39050000D02*
X131316200Y-39050000D01*
X132146900Y-40000000D02*
X132146900Y-47971900D01*
X132146900Y-47971900D02*
X133175000Y-49000000D01*
X132146900Y-40000000D02*
X143175000Y-40000000D01*
%TO.N,OPAMP_FB*%
X133137500Y-40950000D02*
X134825000Y-42637500D01*
X129000000Y-54825000D02*
X134825000Y-49000000D01*
X134825000Y-42637500D02*
X134825000Y-49000000D01*
X128000000Y-54825000D02*
X129000000Y-54825000D01*
%TO.N,RH_OUT*%
X145798900Y-48976100D02*
X145000000Y-49775000D01*
X144825000Y-40000000D02*
X145798900Y-40973900D01*
X26500000Y-40000000D02*
X39010000Y-52510000D01*
X124499300Y-52510000D02*
X127516800Y-55527500D01*
X127516800Y-55527500D02*
X140200400Y-55527500D01*
X145000000Y-50727900D02*
X145000000Y-49775000D01*
X140200400Y-55527500D02*
X145000000Y-50727900D01*
X39010000Y-52510000D02*
X124499300Y-52510000D01*
X145798900Y-40973900D02*
X145798900Y-48976100D01*
%TD*%
%TA.AperFunction,Conductor*%
%TO.N,GND*%
G36*
X154458691Y-10519407D02*
G01*
X154494655Y-10568907D01*
X154499500Y-10599500D01*
X154499500Y-87400500D01*
X154480593Y-87458691D01*
X154431093Y-87494655D01*
X154400500Y-87499500D01*
X10599500Y-87499500D01*
X10541309Y-87480593D01*
X10505345Y-87431093D01*
X10500500Y-87400500D01*
X10500500Y-81878710D01*
X14149500Y-81878710D01*
X14149500Y-82121289D01*
X14181161Y-82361781D01*
X14181161Y-82361786D01*
X14243944Y-82596092D01*
X14243948Y-82596105D01*
X14336772Y-82820204D01*
X14336774Y-82820208D01*
X14336776Y-82820212D01*
X14458064Y-83030289D01*
X14458066Y-83030292D01*
X14605729Y-83222731D01*
X14605731Y-83222733D01*
X14605735Y-83222738D01*
X14777262Y-83394265D01*
X14777266Y-83394268D01*
X14777268Y-83394270D01*
X14969707Y-83541933D01*
X14969711Y-83541936D01*
X15179788Y-83663224D01*
X15403900Y-83756054D01*
X15638211Y-83818838D01*
X15878712Y-83850500D01*
X15878713Y-83850500D01*
X16121287Y-83850500D01*
X16121288Y-83850500D01*
X16361789Y-83818838D01*
X16596100Y-83756054D01*
X16820212Y-83663224D01*
X17030289Y-83541936D01*
X17222738Y-83394265D01*
X17394265Y-83222738D01*
X17541936Y-83030289D01*
X17663224Y-82820212D01*
X17756054Y-82596100D01*
X17818838Y-82361789D01*
X17850500Y-82121288D01*
X17850500Y-81878712D01*
X17850500Y-81878710D01*
X147149500Y-81878710D01*
X147149500Y-82121289D01*
X147181161Y-82361781D01*
X147181161Y-82361786D01*
X147243944Y-82596092D01*
X147243948Y-82596105D01*
X147336772Y-82820204D01*
X147336774Y-82820208D01*
X147336776Y-82820212D01*
X147458064Y-83030289D01*
X147458066Y-83030292D01*
X147605729Y-83222731D01*
X147605731Y-83222733D01*
X147605735Y-83222738D01*
X147777262Y-83394265D01*
X147777266Y-83394268D01*
X147777268Y-83394270D01*
X147969707Y-83541933D01*
X147969711Y-83541936D01*
X148179788Y-83663224D01*
X148403900Y-83756054D01*
X148638211Y-83818838D01*
X148878712Y-83850500D01*
X148878713Y-83850500D01*
X149121287Y-83850500D01*
X149121288Y-83850500D01*
X149361789Y-83818838D01*
X149596100Y-83756054D01*
X149820212Y-83663224D01*
X150030289Y-83541936D01*
X150222738Y-83394265D01*
X150394265Y-83222738D01*
X150541936Y-83030289D01*
X150663224Y-82820212D01*
X150756054Y-82596100D01*
X150818838Y-82361789D01*
X150850500Y-82121288D01*
X150850500Y-81878712D01*
X150818838Y-81638211D01*
X150756054Y-81403900D01*
X150663224Y-81179788D01*
X150541936Y-80969711D01*
X150412096Y-80800500D01*
X150394270Y-80777268D01*
X150394268Y-80777266D01*
X150394265Y-80777262D01*
X150222738Y-80605735D01*
X150222733Y-80605731D01*
X150222731Y-80605729D01*
X150030292Y-80458066D01*
X150030289Y-80458064D01*
X149820212Y-80336776D01*
X149820208Y-80336774D01*
X149820204Y-80336772D01*
X149596105Y-80243948D01*
X149596104Y-80243947D01*
X149596100Y-80243946D01*
X149361789Y-80181162D01*
X149361786Y-80181161D01*
X149361784Y-80181161D01*
X149121289Y-80149500D01*
X149121288Y-80149500D01*
X148878712Y-80149500D01*
X148878710Y-80149500D01*
X148638218Y-80181161D01*
X148638213Y-80181161D01*
X148403907Y-80243944D01*
X148403894Y-80243948D01*
X148179795Y-80336772D01*
X147969707Y-80458066D01*
X147777268Y-80605729D01*
X147605729Y-80777268D01*
X147458066Y-80969707D01*
X147336772Y-81179795D01*
X147243948Y-81403894D01*
X147243944Y-81403907D01*
X147181161Y-81638213D01*
X147181161Y-81638218D01*
X147149500Y-81878710D01*
X17850500Y-81878710D01*
X17818838Y-81638211D01*
X17756054Y-81403900D01*
X17663224Y-81179788D01*
X17541936Y-80969711D01*
X17412096Y-80800500D01*
X17394270Y-80777268D01*
X17394268Y-80777266D01*
X17394265Y-80777262D01*
X17222738Y-80605735D01*
X17222733Y-80605731D01*
X17222731Y-80605729D01*
X17030292Y-80458066D01*
X17030289Y-80458064D01*
X16820212Y-80336776D01*
X16820208Y-80336774D01*
X16820204Y-80336772D01*
X16596105Y-80243948D01*
X16596104Y-80243947D01*
X16596100Y-80243946D01*
X16361789Y-80181162D01*
X16361786Y-80181161D01*
X16361784Y-80181161D01*
X16121289Y-80149500D01*
X16121288Y-80149500D01*
X15878712Y-80149500D01*
X15878710Y-80149500D01*
X15638218Y-80181161D01*
X15638213Y-80181161D01*
X15403907Y-80243944D01*
X15403894Y-80243948D01*
X15179795Y-80336772D01*
X14969707Y-80458066D01*
X14777268Y-80605729D01*
X14605729Y-80777268D01*
X14458066Y-80969707D01*
X14336772Y-81179795D01*
X14243948Y-81403894D01*
X14243944Y-81403907D01*
X14181161Y-81638213D01*
X14181161Y-81638218D01*
X14149500Y-81878710D01*
X10500500Y-81878710D01*
X10500500Y-78881987D01*
X22199500Y-78881987D01*
X22199500Y-79118012D01*
X22230306Y-79352006D01*
X22230306Y-79352011D01*
X22291393Y-79579992D01*
X22381713Y-79798044D01*
X22499729Y-80002453D01*
X22643402Y-80189692D01*
X22643404Y-80189694D01*
X22643408Y-80189699D01*
X22810301Y-80356592D01*
X22810305Y-80356595D01*
X22810307Y-80356597D01*
X22997546Y-80500270D01*
X22997550Y-80500273D01*
X23201951Y-80618284D01*
X23201952Y-80618284D01*
X23201955Y-80618286D01*
X23420007Y-80708606D01*
X23647986Y-80769693D01*
X23881989Y-80800500D01*
X23881990Y-80800500D01*
X24118010Y-80800500D01*
X24118011Y-80800500D01*
X24352014Y-80769693D01*
X24579993Y-80708606D01*
X24798049Y-80618284D01*
X25002450Y-80500273D01*
X25189699Y-80356592D01*
X25356592Y-80189699D01*
X25500273Y-80002450D01*
X25618284Y-79798049D01*
X25708606Y-79579993D01*
X25769693Y-79352014D01*
X25800500Y-79118011D01*
X25800500Y-78881989D01*
X25800500Y-78881987D01*
X42199500Y-78881987D01*
X42199500Y-79118012D01*
X42230306Y-79352006D01*
X42230306Y-79352011D01*
X42291393Y-79579992D01*
X42381713Y-79798044D01*
X42499729Y-80002453D01*
X42643402Y-80189692D01*
X42643404Y-80189694D01*
X42643408Y-80189699D01*
X42810301Y-80356592D01*
X42810305Y-80356595D01*
X42810307Y-80356597D01*
X42997546Y-80500270D01*
X42997550Y-80500273D01*
X43201951Y-80618284D01*
X43201952Y-80618284D01*
X43201955Y-80618286D01*
X43420007Y-80708606D01*
X43647986Y-80769693D01*
X43881989Y-80800500D01*
X43881990Y-80800500D01*
X44118010Y-80800500D01*
X44118011Y-80800500D01*
X44352014Y-80769693D01*
X44579993Y-80708606D01*
X44798049Y-80618284D01*
X45002450Y-80500273D01*
X45189699Y-80356592D01*
X45356592Y-80189699D01*
X45500273Y-80002450D01*
X45618284Y-79798049D01*
X45708606Y-79579993D01*
X45769693Y-79352014D01*
X45800500Y-79118011D01*
X45800500Y-78881989D01*
X45800500Y-78881987D01*
X62199500Y-78881987D01*
X62199500Y-79118012D01*
X62230306Y-79352006D01*
X62230306Y-79352011D01*
X62291393Y-79579992D01*
X62381713Y-79798044D01*
X62499729Y-80002453D01*
X62643402Y-80189692D01*
X62643404Y-80189694D01*
X62643408Y-80189699D01*
X62810301Y-80356592D01*
X62810305Y-80356595D01*
X62810307Y-80356597D01*
X62997546Y-80500270D01*
X62997550Y-80500273D01*
X63201951Y-80618284D01*
X63201952Y-80618284D01*
X63201955Y-80618286D01*
X63420007Y-80708606D01*
X63647986Y-80769693D01*
X63881989Y-80800500D01*
X63881990Y-80800500D01*
X64118010Y-80800500D01*
X64118011Y-80800500D01*
X64352014Y-80769693D01*
X64579993Y-80708606D01*
X64798049Y-80618284D01*
X65002450Y-80500273D01*
X65189699Y-80356592D01*
X65356592Y-80189699D01*
X65500273Y-80002450D01*
X65618284Y-79798049D01*
X65708606Y-79579993D01*
X65769693Y-79352014D01*
X65800500Y-79118011D01*
X65800500Y-78881989D01*
X65800500Y-78881987D01*
X82199500Y-78881987D01*
X82199500Y-79118012D01*
X82230306Y-79352006D01*
X82230306Y-79352011D01*
X82291393Y-79579992D01*
X82381713Y-79798044D01*
X82499729Y-80002453D01*
X82643402Y-80189692D01*
X82643404Y-80189694D01*
X82643408Y-80189699D01*
X82810301Y-80356592D01*
X82810305Y-80356595D01*
X82810307Y-80356597D01*
X82997546Y-80500270D01*
X82997550Y-80500273D01*
X83201951Y-80618284D01*
X83201952Y-80618284D01*
X83201955Y-80618286D01*
X83420007Y-80708606D01*
X83647986Y-80769693D01*
X83881989Y-80800500D01*
X83881990Y-80800500D01*
X84118010Y-80800500D01*
X84118011Y-80800500D01*
X84352014Y-80769693D01*
X84579993Y-80708606D01*
X84798049Y-80618284D01*
X85002450Y-80500273D01*
X85189699Y-80356592D01*
X85356592Y-80189699D01*
X85500273Y-80002450D01*
X85618284Y-79798049D01*
X85708606Y-79579993D01*
X85769693Y-79352014D01*
X85800500Y-79118011D01*
X85800500Y-78881989D01*
X85800500Y-78881987D01*
X106199500Y-78881987D01*
X106199500Y-79118012D01*
X106230306Y-79352006D01*
X106230306Y-79352011D01*
X106291393Y-79579992D01*
X106381713Y-79798044D01*
X106499729Y-80002453D01*
X106643402Y-80189692D01*
X106643404Y-80189694D01*
X106643408Y-80189699D01*
X106810301Y-80356592D01*
X106810305Y-80356595D01*
X106810307Y-80356597D01*
X106997546Y-80500270D01*
X106997550Y-80500273D01*
X107201951Y-80618284D01*
X107201952Y-80618284D01*
X107201955Y-80618286D01*
X107420007Y-80708606D01*
X107647986Y-80769693D01*
X107881989Y-80800500D01*
X107881990Y-80800500D01*
X108118010Y-80800500D01*
X108118011Y-80800500D01*
X108352014Y-80769693D01*
X108579993Y-80708606D01*
X108798049Y-80618284D01*
X109002450Y-80500273D01*
X109189699Y-80356592D01*
X109356592Y-80189699D01*
X109500273Y-80002450D01*
X109618284Y-79798049D01*
X109708606Y-79579993D01*
X109769693Y-79352014D01*
X109800500Y-79118011D01*
X109800500Y-78881989D01*
X109800500Y-78881987D01*
X126199500Y-78881987D01*
X126199500Y-79118012D01*
X126230306Y-79352006D01*
X126230306Y-79352011D01*
X126291393Y-79579992D01*
X126381713Y-79798044D01*
X126499729Y-80002453D01*
X126643402Y-80189692D01*
X126643404Y-80189694D01*
X126643408Y-80189699D01*
X126810301Y-80356592D01*
X126810305Y-80356595D01*
X126810307Y-80356597D01*
X126997546Y-80500270D01*
X126997550Y-80500273D01*
X127201951Y-80618284D01*
X127201952Y-80618284D01*
X127201955Y-80618286D01*
X127420007Y-80708606D01*
X127647986Y-80769693D01*
X127881989Y-80800500D01*
X127881990Y-80800500D01*
X128118010Y-80800500D01*
X128118011Y-80800500D01*
X128352014Y-80769693D01*
X128579993Y-80708606D01*
X128798049Y-80618284D01*
X129002450Y-80500273D01*
X129189699Y-80356592D01*
X129356592Y-80189699D01*
X129500273Y-80002450D01*
X129618284Y-79798049D01*
X129708606Y-79579993D01*
X129769693Y-79352014D01*
X129800500Y-79118011D01*
X129800500Y-78881989D01*
X129769693Y-78647986D01*
X129708606Y-78420007D01*
X129618284Y-78201951D01*
X129500273Y-77997550D01*
X129356592Y-77810301D01*
X129189699Y-77643408D01*
X129189694Y-77643404D01*
X129189692Y-77643402D01*
X129002453Y-77499729D01*
X128798044Y-77381713D01*
X128579992Y-77291393D01*
X128424277Y-77249670D01*
X128352014Y-77230307D01*
X128352011Y-77230306D01*
X128352009Y-77230306D01*
X128118012Y-77199500D01*
X128118011Y-77199500D01*
X127881989Y-77199500D01*
X127881987Y-77199500D01*
X127647993Y-77230306D01*
X127647988Y-77230306D01*
X127420007Y-77291393D01*
X127201955Y-77381713D01*
X126997546Y-77499729D01*
X126810307Y-77643402D01*
X126643402Y-77810307D01*
X126499729Y-77997546D01*
X126381713Y-78201955D01*
X126291393Y-78420007D01*
X126230306Y-78647988D01*
X126230306Y-78647993D01*
X126199500Y-78881987D01*
X109800500Y-78881987D01*
X109769693Y-78647986D01*
X109708606Y-78420007D01*
X109618284Y-78201951D01*
X109500273Y-77997550D01*
X109356592Y-77810301D01*
X109189699Y-77643408D01*
X109189694Y-77643404D01*
X109189692Y-77643402D01*
X109002453Y-77499729D01*
X108798044Y-77381713D01*
X108579992Y-77291393D01*
X108424277Y-77249670D01*
X108352014Y-77230307D01*
X108352011Y-77230306D01*
X108352009Y-77230306D01*
X108118012Y-77199500D01*
X108118011Y-77199500D01*
X107881989Y-77199500D01*
X107881987Y-77199500D01*
X107647993Y-77230306D01*
X107647988Y-77230306D01*
X107420007Y-77291393D01*
X107201955Y-77381713D01*
X106997546Y-77499729D01*
X106810307Y-77643402D01*
X106643402Y-77810307D01*
X106499729Y-77997546D01*
X106381713Y-78201955D01*
X106291393Y-78420007D01*
X106230306Y-78647988D01*
X106230306Y-78647993D01*
X106199500Y-78881987D01*
X85800500Y-78881987D01*
X85769693Y-78647986D01*
X85708606Y-78420007D01*
X85618284Y-78201951D01*
X85500273Y-77997550D01*
X85356592Y-77810301D01*
X85189699Y-77643408D01*
X85189694Y-77643404D01*
X85189692Y-77643402D01*
X85002453Y-77499729D01*
X84798044Y-77381713D01*
X84579992Y-77291393D01*
X84424277Y-77249670D01*
X84352014Y-77230307D01*
X84352011Y-77230306D01*
X84352009Y-77230306D01*
X84118012Y-77199500D01*
X84118011Y-77199500D01*
X83881989Y-77199500D01*
X83881987Y-77199500D01*
X83647993Y-77230306D01*
X83647988Y-77230306D01*
X83420007Y-77291393D01*
X83201955Y-77381713D01*
X82997546Y-77499729D01*
X82810307Y-77643402D01*
X82643402Y-77810307D01*
X82499729Y-77997546D01*
X82381713Y-78201955D01*
X82291393Y-78420007D01*
X82230306Y-78647988D01*
X82230306Y-78647993D01*
X82199500Y-78881987D01*
X65800500Y-78881987D01*
X65769693Y-78647986D01*
X65708606Y-78420007D01*
X65618284Y-78201951D01*
X65500273Y-77997550D01*
X65356592Y-77810301D01*
X65189699Y-77643408D01*
X65189694Y-77643404D01*
X65189692Y-77643402D01*
X65002453Y-77499729D01*
X64798044Y-77381713D01*
X64579992Y-77291393D01*
X64424277Y-77249670D01*
X64352014Y-77230307D01*
X64352011Y-77230306D01*
X64352009Y-77230306D01*
X64118012Y-77199500D01*
X64118011Y-77199500D01*
X63881989Y-77199500D01*
X63881987Y-77199500D01*
X63647993Y-77230306D01*
X63647988Y-77230306D01*
X63420007Y-77291393D01*
X63201955Y-77381713D01*
X62997546Y-77499729D01*
X62810307Y-77643402D01*
X62643402Y-77810307D01*
X62499729Y-77997546D01*
X62381713Y-78201955D01*
X62291393Y-78420007D01*
X62230306Y-78647988D01*
X62230306Y-78647993D01*
X62199500Y-78881987D01*
X45800500Y-78881987D01*
X45769693Y-78647986D01*
X45708606Y-78420007D01*
X45618284Y-78201951D01*
X45500273Y-77997550D01*
X45356592Y-77810301D01*
X45189699Y-77643408D01*
X45189694Y-77643404D01*
X45189692Y-77643402D01*
X45002453Y-77499729D01*
X44798044Y-77381713D01*
X44579992Y-77291393D01*
X44424277Y-77249670D01*
X44352014Y-77230307D01*
X44352011Y-77230306D01*
X44352009Y-77230306D01*
X44118012Y-77199500D01*
X44118011Y-77199500D01*
X43881989Y-77199500D01*
X43881987Y-77199500D01*
X43647993Y-77230306D01*
X43647988Y-77230306D01*
X43420007Y-77291393D01*
X43201955Y-77381713D01*
X42997546Y-77499729D01*
X42810307Y-77643402D01*
X42643402Y-77810307D01*
X42499729Y-77997546D01*
X42381713Y-78201955D01*
X42291393Y-78420007D01*
X42230306Y-78647988D01*
X42230306Y-78647993D01*
X42199500Y-78881987D01*
X25800500Y-78881987D01*
X25769693Y-78647986D01*
X25708606Y-78420007D01*
X25618284Y-78201951D01*
X25500273Y-77997550D01*
X25356592Y-77810301D01*
X25189699Y-77643408D01*
X25189694Y-77643404D01*
X25189692Y-77643402D01*
X25002453Y-77499729D01*
X24798044Y-77381713D01*
X24579992Y-77291393D01*
X24424277Y-77249670D01*
X24352014Y-77230307D01*
X24352011Y-77230306D01*
X24352009Y-77230306D01*
X24118012Y-77199500D01*
X24118011Y-77199500D01*
X23881989Y-77199500D01*
X23881987Y-77199500D01*
X23647993Y-77230306D01*
X23647988Y-77230306D01*
X23420007Y-77291393D01*
X23201955Y-77381713D01*
X22997546Y-77499729D01*
X22810307Y-77643402D01*
X22643402Y-77810307D01*
X22499729Y-77997546D01*
X22381713Y-78201955D01*
X22291393Y-78420007D01*
X22230306Y-78647988D01*
X22230306Y-78647993D01*
X22199500Y-78881987D01*
X10500500Y-78881987D01*
X10500500Y-68916532D01*
X78949500Y-68916532D01*
X78949500Y-69123467D01*
X78989869Y-69326418D01*
X79069058Y-69517597D01*
X79069059Y-69517598D01*
X79184023Y-69689655D01*
X79330345Y-69835977D01*
X79502402Y-69950941D01*
X79693580Y-70030130D01*
X79896535Y-70070500D01*
X79896536Y-70070500D01*
X80103464Y-70070500D01*
X80103465Y-70070500D01*
X80306420Y-70030130D01*
X80497598Y-69950941D01*
X80669655Y-69835977D01*
X80815977Y-69689655D01*
X80930941Y-69517598D01*
X81010130Y-69326420D01*
X81050500Y-69123465D01*
X81050500Y-68916535D01*
X81050499Y-68916532D01*
X101809500Y-68916532D01*
X101809500Y-69123467D01*
X101849869Y-69326418D01*
X101929058Y-69517597D01*
X101929059Y-69517598D01*
X102044023Y-69689655D01*
X102190345Y-69835977D01*
X102362402Y-69950941D01*
X102553580Y-70030130D01*
X102756535Y-70070500D01*
X102756536Y-70070500D01*
X102963464Y-70070500D01*
X102963465Y-70070500D01*
X103166420Y-70030130D01*
X103357598Y-69950941D01*
X103529655Y-69835977D01*
X103675977Y-69689655D01*
X103790941Y-69517598D01*
X103870130Y-69326420D01*
X103910500Y-69123465D01*
X103910500Y-68916535D01*
X103870130Y-68713580D01*
X103790941Y-68522402D01*
X103675977Y-68350345D01*
X103529655Y-68204023D01*
X103357598Y-68089059D01*
X103357599Y-68089059D01*
X103357597Y-68089058D01*
X103166418Y-68009869D01*
X102963467Y-67969500D01*
X102963465Y-67969500D01*
X102756535Y-67969500D01*
X102756532Y-67969500D01*
X102553581Y-68009869D01*
X102362402Y-68089058D01*
X102190348Y-68204020D01*
X102044020Y-68350348D01*
X101929058Y-68522402D01*
X101849869Y-68713581D01*
X101809500Y-68916532D01*
X81050499Y-68916532D01*
X81010130Y-68713580D01*
X80930941Y-68522402D01*
X80815977Y-68350345D01*
X80669655Y-68204023D01*
X80497598Y-68089059D01*
X80497599Y-68089059D01*
X80497597Y-68089058D01*
X80306418Y-68009869D01*
X80103467Y-67969500D01*
X80103465Y-67969500D01*
X79896535Y-67969500D01*
X79896532Y-67969500D01*
X79693581Y-68009869D01*
X79502402Y-68089058D01*
X79330348Y-68204020D01*
X79184020Y-68350348D01*
X79069058Y-68522402D01*
X78989869Y-68713581D01*
X78949500Y-68916532D01*
X10500500Y-68916532D01*
X10500500Y-66376532D01*
X78949500Y-66376532D01*
X78949500Y-66583467D01*
X78989869Y-66786418D01*
X79069058Y-66977597D01*
X79069059Y-66977598D01*
X79184023Y-67149655D01*
X79330345Y-67295977D01*
X79502402Y-67410941D01*
X79693580Y-67490130D01*
X79896535Y-67530500D01*
X79896536Y-67530500D01*
X80103464Y-67530500D01*
X80103465Y-67530500D01*
X80306420Y-67490130D01*
X80497598Y-67410941D01*
X80669655Y-67295977D01*
X80815977Y-67149655D01*
X80930941Y-66977598D01*
X81010130Y-66786420D01*
X81050500Y-66583465D01*
X81050500Y-66376535D01*
X81050499Y-66376532D01*
X101809500Y-66376532D01*
X101809500Y-66583467D01*
X101849869Y-66786418D01*
X101929058Y-66977597D01*
X101929059Y-66977598D01*
X102044023Y-67149655D01*
X102190345Y-67295977D01*
X102362402Y-67410941D01*
X102553580Y-67490130D01*
X102756535Y-67530500D01*
X102756536Y-67530500D01*
X102963464Y-67530500D01*
X102963465Y-67530500D01*
X103166420Y-67490130D01*
X103357598Y-67410941D01*
X103529655Y-67295977D01*
X103675977Y-67149655D01*
X103790941Y-66977598D01*
X103870130Y-66786420D01*
X103910500Y-66583465D01*
X103910500Y-66376535D01*
X103870130Y-66173580D01*
X103790941Y-65982402D01*
X103675977Y-65810345D01*
X103529655Y-65664023D01*
X103357598Y-65549059D01*
X103357599Y-65549059D01*
X103357597Y-65549058D01*
X103166418Y-65469869D01*
X102963467Y-65429500D01*
X102963465Y-65429500D01*
X102756535Y-65429500D01*
X102756532Y-65429500D01*
X102553581Y-65469869D01*
X102362402Y-65549058D01*
X102190348Y-65664020D01*
X102044020Y-65810348D01*
X101929058Y-65982402D01*
X101849869Y-66173581D01*
X101809500Y-66376532D01*
X81050499Y-66376532D01*
X81010130Y-66173580D01*
X80930941Y-65982402D01*
X80815977Y-65810345D01*
X80669655Y-65664023D01*
X80497598Y-65549059D01*
X80497599Y-65549059D01*
X80497597Y-65549058D01*
X80306418Y-65469869D01*
X80103467Y-65429500D01*
X80103465Y-65429500D01*
X79896535Y-65429500D01*
X79896532Y-65429500D01*
X79693581Y-65469869D01*
X79502402Y-65549058D01*
X79330348Y-65664020D01*
X79184020Y-65810348D01*
X79069058Y-65982402D01*
X78989869Y-66173581D01*
X78949500Y-66376532D01*
X10500500Y-66376532D01*
X10500500Y-61296532D01*
X78949500Y-61296532D01*
X78949500Y-61503467D01*
X78989869Y-61706418D01*
X79069058Y-61897597D01*
X79069059Y-61897598D01*
X79184023Y-62069655D01*
X79330345Y-62215977D01*
X79502402Y-62330941D01*
X79693580Y-62410130D01*
X79896535Y-62450500D01*
X79896536Y-62450500D01*
X80103464Y-62450500D01*
X80103465Y-62450500D01*
X80306420Y-62410130D01*
X80497598Y-62330941D01*
X80669655Y-62215977D01*
X80815977Y-62069655D01*
X80930941Y-61897598D01*
X81010130Y-61706420D01*
X81050500Y-61503465D01*
X81050500Y-61296535D01*
X81050499Y-61296532D01*
X101809500Y-61296532D01*
X101809500Y-61503467D01*
X101849869Y-61706418D01*
X101929058Y-61897597D01*
X101929059Y-61897598D01*
X102044023Y-62069655D01*
X102190345Y-62215977D01*
X102362402Y-62330941D01*
X102553580Y-62410130D01*
X102756535Y-62450500D01*
X102756536Y-62450500D01*
X102963464Y-62450500D01*
X102963465Y-62450500D01*
X103166420Y-62410130D01*
X103357598Y-62330941D01*
X103529655Y-62215977D01*
X103675977Y-62069655D01*
X103790941Y-61897598D01*
X103870130Y-61706420D01*
X103910500Y-61503465D01*
X103910500Y-61296535D01*
X103870130Y-61093580D01*
X103790941Y-60902402D01*
X103675977Y-60730345D01*
X103529655Y-60584023D01*
X103357598Y-60469059D01*
X103357599Y-60469059D01*
X103357597Y-60469058D01*
X103166418Y-60389869D01*
X102963467Y-60349500D01*
X102963465Y-60349500D01*
X102756535Y-60349500D01*
X102756532Y-60349500D01*
X102553581Y-60389869D01*
X102362402Y-60469058D01*
X102190348Y-60584020D01*
X102044020Y-60730348D01*
X101929058Y-60902402D01*
X101849869Y-61093581D01*
X101809500Y-61296532D01*
X81050499Y-61296532D01*
X81010130Y-61093580D01*
X80930941Y-60902402D01*
X80815977Y-60730345D01*
X80669655Y-60584023D01*
X80497598Y-60469059D01*
X80497599Y-60469059D01*
X80497597Y-60469058D01*
X80306418Y-60389869D01*
X80103467Y-60349500D01*
X80103465Y-60349500D01*
X79896535Y-60349500D01*
X79896532Y-60349500D01*
X79693581Y-60389869D01*
X79502402Y-60469058D01*
X79330348Y-60584020D01*
X79184020Y-60730348D01*
X79069058Y-60902402D01*
X78989869Y-61093581D01*
X78949500Y-61296532D01*
X10500500Y-61296532D01*
X10500500Y-58756532D01*
X78949500Y-58756532D01*
X78949500Y-58963467D01*
X78989869Y-59166418D01*
X79069058Y-59357597D01*
X79069059Y-59357598D01*
X79184023Y-59529655D01*
X79330345Y-59675977D01*
X79502402Y-59790941D01*
X79693580Y-59870130D01*
X79896535Y-59910500D01*
X79896536Y-59910500D01*
X80103464Y-59910500D01*
X80103465Y-59910500D01*
X80306420Y-59870130D01*
X80497598Y-59790941D01*
X80669655Y-59675977D01*
X80815977Y-59529655D01*
X80930941Y-59357598D01*
X81010130Y-59166420D01*
X81050500Y-58963465D01*
X81050500Y-58756535D01*
X81050499Y-58756532D01*
X101809500Y-58756532D01*
X101809500Y-58963467D01*
X101849869Y-59166418D01*
X101929058Y-59357597D01*
X101929059Y-59357598D01*
X102044023Y-59529655D01*
X102190345Y-59675977D01*
X102362402Y-59790941D01*
X102553580Y-59870130D01*
X102756535Y-59910500D01*
X102756536Y-59910500D01*
X102963464Y-59910500D01*
X102963465Y-59910500D01*
X103166420Y-59870130D01*
X103357598Y-59790941D01*
X103529655Y-59675977D01*
X103675977Y-59529655D01*
X103790941Y-59357598D01*
X103870130Y-59166420D01*
X103910500Y-58963465D01*
X103910500Y-58756535D01*
X103870130Y-58553580D01*
X103790941Y-58362402D01*
X103675977Y-58190345D01*
X103529655Y-58044023D01*
X103357598Y-57929059D01*
X103357599Y-57929059D01*
X103357597Y-57929058D01*
X103166418Y-57849869D01*
X102963467Y-57809500D01*
X102963465Y-57809500D01*
X102756535Y-57809500D01*
X102756532Y-57809500D01*
X102553581Y-57849869D01*
X102362402Y-57929058D01*
X102190348Y-58044020D01*
X102044020Y-58190348D01*
X101929058Y-58362402D01*
X101849869Y-58553581D01*
X101809500Y-58756532D01*
X81050499Y-58756532D01*
X81010130Y-58553580D01*
X80930941Y-58362402D01*
X80815977Y-58190345D01*
X80669655Y-58044023D01*
X80497598Y-57929059D01*
X80497599Y-57929059D01*
X80497597Y-57929058D01*
X80306418Y-57849869D01*
X80103467Y-57809500D01*
X80103465Y-57809500D01*
X79896535Y-57809500D01*
X79896532Y-57809500D01*
X79693581Y-57849869D01*
X79502402Y-57929058D01*
X79330348Y-58044020D01*
X79184020Y-58190348D01*
X79069058Y-58362402D01*
X78989869Y-58553581D01*
X78949500Y-58756532D01*
X10500500Y-58756532D01*
X10500500Y-56216532D01*
X78949500Y-56216532D01*
X78949500Y-56423467D01*
X78989869Y-56626418D01*
X79069058Y-56817597D01*
X79069059Y-56817598D01*
X79184023Y-56989655D01*
X79330345Y-57135977D01*
X79502402Y-57250941D01*
X79693580Y-57330130D01*
X79896535Y-57370500D01*
X79896536Y-57370500D01*
X80103464Y-57370500D01*
X80103465Y-57370500D01*
X80306420Y-57330130D01*
X80497598Y-57250941D01*
X80669655Y-57135977D01*
X80815977Y-56989655D01*
X80930941Y-56817598D01*
X81010130Y-56626420D01*
X81050500Y-56423465D01*
X81050500Y-56216535D01*
X81050499Y-56216532D01*
X101809500Y-56216532D01*
X101809500Y-56423467D01*
X101849869Y-56626418D01*
X101929058Y-56817597D01*
X101929059Y-56817598D01*
X102044023Y-56989655D01*
X102190345Y-57135977D01*
X102362402Y-57250941D01*
X102553580Y-57330130D01*
X102756535Y-57370500D01*
X102756536Y-57370500D01*
X102963464Y-57370500D01*
X102963465Y-57370500D01*
X103166420Y-57330130D01*
X103357598Y-57250941D01*
X103529655Y-57135977D01*
X103675977Y-56989655D01*
X103790941Y-56817598D01*
X103870130Y-56626420D01*
X103910500Y-56423465D01*
X103910500Y-56216535D01*
X103870130Y-56013580D01*
X103790941Y-55822402D01*
X103675977Y-55650345D01*
X103529655Y-55504023D01*
X103357598Y-55389059D01*
X103357599Y-55389059D01*
X103357597Y-55389058D01*
X103166418Y-55309869D01*
X102963467Y-55269500D01*
X102963465Y-55269500D01*
X102756535Y-55269500D01*
X102756532Y-55269500D01*
X102553581Y-55309869D01*
X102362402Y-55389058D01*
X102190348Y-55504020D01*
X102044020Y-55650348D01*
X101929058Y-55822402D01*
X101849869Y-56013581D01*
X101809500Y-56216532D01*
X81050499Y-56216532D01*
X81010130Y-56013580D01*
X80930941Y-55822402D01*
X80815977Y-55650345D01*
X80669655Y-55504023D01*
X80497598Y-55389059D01*
X80497599Y-55389059D01*
X80497597Y-55389058D01*
X80306418Y-55309869D01*
X80103467Y-55269500D01*
X80103465Y-55269500D01*
X79896535Y-55269500D01*
X79896532Y-55269500D01*
X79693581Y-55309869D01*
X79502402Y-55389058D01*
X79330348Y-55504020D01*
X79184020Y-55650348D01*
X79069058Y-55822402D01*
X78989869Y-56013581D01*
X78949500Y-56216532D01*
X10500500Y-56216532D01*
X10500500Y-39006898D01*
X14499500Y-39006898D01*
X14499500Y-40993096D01*
X14499501Y-40993102D01*
X14504486Y-41034614D01*
X14510124Y-41081564D01*
X14565639Y-41222342D01*
X14657078Y-41342922D01*
X14777658Y-41434361D01*
X14918436Y-41489876D01*
X15006901Y-41500500D01*
X16993098Y-41500499D01*
X17081564Y-41489876D01*
X17222342Y-41434361D01*
X17342922Y-41342922D01*
X17434361Y-41222342D01*
X17489876Y-41081564D01*
X17500500Y-40993099D01*
X17500499Y-39881904D01*
X17999500Y-39881904D01*
X17999500Y-40118095D01*
X18036445Y-40351363D01*
X18109432Y-40575992D01*
X18211399Y-40776115D01*
X18216657Y-40786433D01*
X18355483Y-40977510D01*
X18522490Y-41144517D01*
X18713567Y-41283343D01*
X18924008Y-41390568D01*
X19148632Y-41463553D01*
X19148633Y-41463553D01*
X19148636Y-41463554D01*
X19381905Y-41500500D01*
X19381908Y-41500500D01*
X19618095Y-41500500D01*
X19851363Y-41463554D01*
X19851364Y-41463553D01*
X19851368Y-41463553D01*
X20075992Y-41390568D01*
X20286433Y-41283343D01*
X20477510Y-41144517D01*
X20644517Y-40977510D01*
X20783343Y-40786433D01*
X20890568Y-40575992D01*
X20963553Y-40351368D01*
X20968066Y-40322873D01*
X21000500Y-40118095D01*
X21000500Y-39881904D01*
X24999500Y-39881904D01*
X24999500Y-40118095D01*
X25036445Y-40351363D01*
X25109432Y-40575992D01*
X25211399Y-40776115D01*
X25216657Y-40786433D01*
X25355483Y-40977510D01*
X25522490Y-41144517D01*
X25713567Y-41283343D01*
X25924008Y-41390568D01*
X26148632Y-41463553D01*
X26148633Y-41463553D01*
X26148636Y-41463554D01*
X26381905Y-41500500D01*
X26381908Y-41500500D01*
X26618095Y-41500500D01*
X26851363Y-41463554D01*
X26851364Y-41463553D01*
X26851368Y-41463553D01*
X27075992Y-41390568D01*
X27176317Y-41339449D01*
X27236746Y-41329879D01*
X27291262Y-41357656D01*
X27291263Y-41357656D01*
X38689518Y-52755910D01*
X38689520Y-52755913D01*
X38764087Y-52830480D01*
X38796267Y-52849059D01*
X38855413Y-52883207D01*
X38957270Y-52910500D01*
X38957272Y-52910501D01*
X38957273Y-52910501D01*
X39068790Y-52910501D01*
X39068806Y-52910500D01*
X102004861Y-52910500D01*
X102063052Y-52929407D01*
X102099016Y-52978907D01*
X102099016Y-53040093D01*
X102074866Y-53079501D01*
X102044023Y-53110345D01*
X102044020Y-53110348D01*
X101929058Y-53282402D01*
X101849869Y-53473581D01*
X101809500Y-53676532D01*
X101809500Y-53883467D01*
X101849869Y-54086418D01*
X101929058Y-54277597D01*
X102023891Y-54419525D01*
X102044023Y-54449655D01*
X102190345Y-54595977D01*
X102362402Y-54710941D01*
X102553580Y-54790130D01*
X102756535Y-54830500D01*
X102756536Y-54830500D01*
X102963464Y-54830500D01*
X102963465Y-54830500D01*
X103166420Y-54790130D01*
X103357598Y-54710941D01*
X103529655Y-54595977D01*
X103675977Y-54449655D01*
X103790941Y-54277598D01*
X103870130Y-54086420D01*
X103910500Y-53883465D01*
X103910500Y-53676535D01*
X103870130Y-53473580D01*
X103790941Y-53282402D01*
X103675977Y-53110345D01*
X103645133Y-53079501D01*
X103617358Y-53024987D01*
X103626929Y-52964555D01*
X103670194Y-52921290D01*
X103715139Y-52910500D01*
X124292399Y-52910500D01*
X124350590Y-52929407D01*
X124362403Y-52939496D01*
X127196320Y-55773413D01*
X127196319Y-55773413D01*
X127245309Y-55822402D01*
X127270887Y-55847980D01*
X127362213Y-55900707D01*
X127464073Y-55928000D01*
X127464075Y-55928000D01*
X140253125Y-55928000D01*
X140253127Y-55928000D01*
X140354988Y-55900707D01*
X140354990Y-55900705D01*
X140354992Y-55900705D01*
X140446308Y-55847983D01*
X140446308Y-55847982D01*
X140446313Y-55847980D01*
X144936897Y-51357396D01*
X144991414Y-51329619D01*
X145006901Y-51328400D01*
X145079055Y-51328400D01*
X145079057Y-51328400D01*
X145231784Y-51287477D01*
X145368716Y-51208420D01*
X145480520Y-51096616D01*
X145559577Y-50959684D01*
X145600500Y-50806957D01*
X145600500Y-50648843D01*
X145560909Y-50501087D01*
X145564111Y-50439990D01*
X145596716Y-50396585D01*
X145625078Y-50375078D01*
X145712364Y-50259975D01*
X145765359Y-50125590D01*
X145775500Y-50041144D01*
X145775500Y-49606900D01*
X145794407Y-49548709D01*
X145804490Y-49536902D01*
X146119380Y-49222013D01*
X146119383Y-49222008D01*
X146172105Y-49130692D01*
X146172105Y-49130690D01*
X146172107Y-49130688D01*
X146199400Y-49028827D01*
X146199400Y-48923373D01*
X146199400Y-41034614D01*
X146199401Y-41034601D01*
X146199401Y-40921172D01*
X146199400Y-40921170D01*
X146185941Y-40870943D01*
X146172107Y-40819313D01*
X146147166Y-40776114D01*
X146119380Y-40727987D01*
X146044813Y-40653420D01*
X146044810Y-40653418D01*
X145554495Y-40163103D01*
X145526718Y-40108586D01*
X145525499Y-40093099D01*
X145525499Y-39677133D01*
X145525499Y-39677128D01*
X145519091Y-39617517D01*
X145512371Y-39599500D01*
X145468797Y-39482670D01*
X145382549Y-39367458D01*
X145382548Y-39367457D01*
X145382546Y-39367454D01*
X145382541Y-39367450D01*
X145267329Y-39281202D01*
X145132488Y-39230910D01*
X145132483Y-39230909D01*
X145132481Y-39230908D01*
X145132477Y-39230908D01*
X145101249Y-39227550D01*
X145072873Y-39224500D01*
X145072870Y-39224500D01*
X144577133Y-39224500D01*
X144577129Y-39224500D01*
X144577128Y-39224501D01*
X144569949Y-39225272D01*
X144517519Y-39230908D01*
X144517514Y-39230909D01*
X144382670Y-39281202D01*
X144267458Y-39367450D01*
X144267450Y-39367458D01*
X144181202Y-39482670D01*
X144130910Y-39617511D01*
X144130908Y-39617522D01*
X144124500Y-39677129D01*
X144124500Y-40322866D01*
X144124501Y-40322870D01*
X144130908Y-40382480D01*
X144130909Y-40382485D01*
X144181202Y-40517329D01*
X144267450Y-40632541D01*
X144267454Y-40632546D01*
X144267457Y-40632548D01*
X144267458Y-40632549D01*
X144382670Y-40718797D01*
X144517511Y-40769089D01*
X144517512Y-40769089D01*
X144517517Y-40769091D01*
X144577127Y-40775500D01*
X144993099Y-40775499D01*
X145051290Y-40794406D01*
X145063102Y-40804495D01*
X145369403Y-41110795D01*
X145397181Y-41165312D01*
X145398400Y-41180799D01*
X145398400Y-48769199D01*
X145379493Y-48827390D01*
X145369404Y-48839203D01*
X145213103Y-48995504D01*
X145158586Y-49023281D01*
X145143099Y-49024500D01*
X144708851Y-49024500D01*
X144624408Y-49034641D01*
X144490027Y-49087634D01*
X144374922Y-49174922D01*
X144287634Y-49290027D01*
X144234641Y-49424408D01*
X144224500Y-49508851D01*
X144224500Y-50041148D01*
X144234641Y-50125591D01*
X144287634Y-50259972D01*
X144287635Y-50259974D01*
X144287636Y-50259975D01*
X144374922Y-50375078D01*
X144403282Y-50396584D01*
X144438225Y-50446811D01*
X144439089Y-50501090D01*
X144420534Y-50570345D01*
X144399500Y-50648844D01*
X144399500Y-50720999D01*
X144380593Y-50779190D01*
X144370504Y-50791003D01*
X140063503Y-55098004D01*
X140008986Y-55125781D01*
X139993499Y-55127000D01*
X129503401Y-55127000D01*
X129445210Y-55108093D01*
X129409246Y-55058593D01*
X129409246Y-54997407D01*
X129433397Y-54957996D01*
X134586897Y-49804495D01*
X134641414Y-49776718D01*
X134656901Y-49775499D01*
X135072867Y-49775499D01*
X135072872Y-49775499D01*
X135132483Y-49769091D01*
X135199907Y-49743943D01*
X135267329Y-49718797D01*
X135267329Y-49718796D01*
X135267331Y-49718796D01*
X135382546Y-49632546D01*
X135468796Y-49517331D01*
X135469301Y-49515979D01*
X135519089Y-49382488D01*
X135519090Y-49382485D01*
X135519091Y-49382483D01*
X135525500Y-49322873D01*
X135525499Y-48677128D01*
X135519091Y-48617517D01*
X135511264Y-48596532D01*
X135468797Y-48482670D01*
X135382549Y-48367458D01*
X135382548Y-48367457D01*
X135382546Y-48367454D01*
X135382541Y-48367450D01*
X135265171Y-48279586D01*
X135229918Y-48229577D01*
X135225500Y-48200333D01*
X135225500Y-42584774D01*
X135225500Y-42584773D01*
X135198207Y-42482913D01*
X135145480Y-42391587D01*
X135070913Y-42317019D01*
X135070913Y-42317020D01*
X134100402Y-41346509D01*
X134072625Y-41291992D01*
X134076961Y-41243811D01*
X134097646Y-41184699D01*
X134100499Y-41154273D01*
X134100500Y-41154273D01*
X134100500Y-40745727D01*
X134100499Y-40745725D01*
X134100389Y-40744550D01*
X134097646Y-40715301D01*
X134052793Y-40587118D01*
X134049312Y-40582402D01*
X134031516Y-40558288D01*
X134012174Y-40500241D01*
X134030645Y-40441910D01*
X134079875Y-40405577D01*
X134111171Y-40400500D01*
X142418892Y-40400500D01*
X142477083Y-40419407D01*
X142511649Y-40464901D01*
X142522036Y-40492750D01*
X142531204Y-40517332D01*
X142617450Y-40632541D01*
X142617454Y-40632546D01*
X142617457Y-40632548D01*
X142617458Y-40632549D01*
X142732670Y-40718797D01*
X142867511Y-40769089D01*
X142867512Y-40769089D01*
X142867517Y-40769091D01*
X142927127Y-40775500D01*
X143422872Y-40775499D01*
X143482483Y-40769091D01*
X143579688Y-40732836D01*
X143617329Y-40718797D01*
X143617329Y-40718796D01*
X143617331Y-40718796D01*
X143732546Y-40632546D01*
X143818796Y-40517331D01*
X143832986Y-40479287D01*
X143856511Y-40416212D01*
X143869091Y-40382483D01*
X143875500Y-40322873D01*
X143875499Y-39677128D01*
X143869091Y-39617517D01*
X143862371Y-39599500D01*
X143818797Y-39482670D01*
X143732549Y-39367458D01*
X143732548Y-39367457D01*
X143732546Y-39367454D01*
X143732541Y-39367450D01*
X143617329Y-39281202D01*
X143482488Y-39230910D01*
X143482483Y-39230909D01*
X143482481Y-39230908D01*
X143482477Y-39230908D01*
X143451249Y-39227550D01*
X143422873Y-39224500D01*
X143422870Y-39224500D01*
X142927133Y-39224500D01*
X142927129Y-39224500D01*
X142927128Y-39224501D01*
X142919949Y-39225272D01*
X142867519Y-39230908D01*
X142867514Y-39230909D01*
X142732670Y-39281202D01*
X142617458Y-39367450D01*
X142617450Y-39367458D01*
X142531204Y-39482667D01*
X142522559Y-39505845D01*
X142511649Y-39535098D01*
X142473600Y-39583011D01*
X142418892Y-39599500D01*
X134111171Y-39599500D01*
X134052980Y-39580593D01*
X134017016Y-39531093D01*
X134017016Y-39469907D01*
X134031516Y-39441712D01*
X134052792Y-39412883D01*
X134052791Y-39412883D01*
X134052793Y-39412882D01*
X134097646Y-39284699D01*
X134100499Y-39254273D01*
X134100500Y-39254273D01*
X134100500Y-38845727D01*
X134100499Y-38845725D01*
X134097646Y-38815301D01*
X134052793Y-38687118D01*
X134030620Y-38657075D01*
X133972154Y-38577855D01*
X133972152Y-38577853D01*
X133972150Y-38577850D01*
X133972146Y-38577847D01*
X133972144Y-38577845D01*
X133878211Y-38508519D01*
X133842618Y-38458751D01*
X133837999Y-38428864D01*
X133837999Y-36289684D01*
X133845534Y-36251800D01*
X133859157Y-36218913D01*
X133887999Y-36073918D01*
X133887999Y-35926082D01*
X133859157Y-35781087D01*
X133802583Y-35644505D01*
X133720450Y-35521584D01*
X133615915Y-35417049D01*
X133492994Y-35334916D01*
X133492992Y-35334915D01*
X133356413Y-35278342D01*
X133211417Y-35249500D01*
X133063581Y-35249500D01*
X133063580Y-35249500D01*
X132918584Y-35278342D01*
X132782005Y-35334915D01*
X132659084Y-35417048D01*
X132554547Y-35521585D01*
X132472414Y-35644506D01*
X132415841Y-35781085D01*
X132386999Y-35926081D01*
X132386999Y-36073918D01*
X132415841Y-36218914D01*
X132429463Y-36251800D01*
X132436999Y-36289685D01*
X132436999Y-38428866D01*
X132418092Y-38487057D01*
X132396787Y-38508521D01*
X132302855Y-38577845D01*
X132302845Y-38577855D01*
X132222207Y-38687116D01*
X132177355Y-38815296D01*
X132177353Y-38815305D01*
X132174500Y-38845725D01*
X132174500Y-39102899D01*
X132155593Y-39161090D01*
X132106093Y-39197054D01*
X132044907Y-39197054D01*
X132005496Y-39172903D01*
X131854496Y-39021903D01*
X131826719Y-38967386D01*
X131825500Y-38951899D01*
X131825500Y-38845727D01*
X131825499Y-38845725D01*
X131822646Y-38815301D01*
X131777793Y-38687118D01*
X131755620Y-38657075D01*
X131697154Y-38577855D01*
X131697152Y-38577853D01*
X131697150Y-38577850D01*
X131697146Y-38577847D01*
X131697144Y-38577845D01*
X131587883Y-38497207D01*
X131459703Y-38452355D01*
X131459694Y-38452353D01*
X131429274Y-38449500D01*
X131429266Y-38449500D01*
X130295734Y-38449500D01*
X130295725Y-38449500D01*
X130265305Y-38452353D01*
X130265296Y-38452355D01*
X130137116Y-38497207D01*
X130027855Y-38577845D01*
X130027845Y-38577855D01*
X129947207Y-38687116D01*
X129902355Y-38815296D01*
X129902353Y-38815305D01*
X129899500Y-38845725D01*
X129899500Y-39254274D01*
X129902353Y-39284694D01*
X129902355Y-39284703D01*
X129947207Y-39412883D01*
X130027845Y-39522144D01*
X130027847Y-39522146D01*
X130027850Y-39522150D01*
X130027853Y-39522152D01*
X130027855Y-39522154D01*
X130137116Y-39602792D01*
X130137117Y-39602792D01*
X130137118Y-39602793D01*
X130265301Y-39647646D01*
X130295725Y-39650499D01*
X130295727Y-39650500D01*
X130295734Y-39650500D01*
X131309300Y-39650500D01*
X131367491Y-39669407D01*
X131379303Y-39679496D01*
X131717403Y-40017595D01*
X131745181Y-40072112D01*
X131746400Y-40087599D01*
X131746400Y-40318090D01*
X131727493Y-40376281D01*
X131677993Y-40412245D01*
X131616807Y-40412245D01*
X131588612Y-40397746D01*
X131587881Y-40397206D01*
X131459703Y-40352355D01*
X131459694Y-40352353D01*
X131429274Y-40349500D01*
X131429266Y-40349500D01*
X130295734Y-40349500D01*
X130295725Y-40349500D01*
X130265305Y-40352353D01*
X130265296Y-40352355D01*
X130137116Y-40397207D01*
X130027850Y-40477849D01*
X130004648Y-40509288D01*
X129954880Y-40544881D01*
X129924992Y-40549500D01*
X118317500Y-40549500D01*
X118259309Y-40530593D01*
X118223345Y-40481093D01*
X118218500Y-40450500D01*
X118218500Y-39344074D01*
X118218500Y-39344073D01*
X118191207Y-39242213D01*
X118180980Y-39224500D01*
X118138480Y-39150887D01*
X118063913Y-39076319D01*
X118063913Y-39076320D01*
X117058013Y-38070420D01*
X117058010Y-38070418D01*
X117058009Y-38070417D01*
X117058008Y-38070416D01*
X116966691Y-38017694D01*
X116966693Y-38017694D01*
X116927170Y-38007104D01*
X116864827Y-37990400D01*
X114574327Y-37990400D01*
X114468873Y-37990400D01*
X114406529Y-38007104D01*
X114367007Y-38017694D01*
X114275691Y-38070416D01*
X114275686Y-38070420D01*
X113925602Y-38420504D01*
X113871086Y-38448281D01*
X113855599Y-38449500D01*
X113295725Y-38449500D01*
X113265305Y-38452353D01*
X113265296Y-38452355D01*
X113137116Y-38497207D01*
X113027855Y-38577845D01*
X113027845Y-38577855D01*
X112947207Y-38687116D01*
X112902355Y-38815296D01*
X112902353Y-38815305D01*
X112899500Y-38845725D01*
X112899500Y-39254274D01*
X112902353Y-39284694D01*
X112902355Y-39284703D01*
X112947207Y-39412883D01*
X113027845Y-39522144D01*
X113027847Y-39522146D01*
X113027850Y-39522150D01*
X113027853Y-39522152D01*
X113027855Y-39522154D01*
X113137116Y-39602792D01*
X113137117Y-39602792D01*
X113137118Y-39602793D01*
X113265301Y-39647646D01*
X113295725Y-39650499D01*
X113295727Y-39650500D01*
X113295734Y-39650500D01*
X114429273Y-39650500D01*
X114429273Y-39650499D01*
X114459699Y-39647646D01*
X114587882Y-39602793D01*
X114697150Y-39522150D01*
X114777793Y-39412882D01*
X114822646Y-39284699D01*
X114825499Y-39254273D01*
X114825500Y-39254273D01*
X114825500Y-38890400D01*
X114844407Y-38832209D01*
X114893907Y-38796245D01*
X114924500Y-38791400D01*
X116605199Y-38791400D01*
X116663390Y-38810307D01*
X116675203Y-38820396D01*
X117388504Y-39533697D01*
X117416281Y-39588214D01*
X117417500Y-39603701D01*
X117417500Y-40460256D01*
X117398593Y-40518447D01*
X117388504Y-40530259D01*
X117337479Y-40581284D01*
X117266855Y-40703609D01*
X117256568Y-40712870D01*
X117250106Y-40725115D01*
X117234394Y-40732836D01*
X117221386Y-40744550D01*
X117207617Y-40745997D01*
X117195194Y-40752103D01*
X117177947Y-40749115D01*
X117160535Y-40750946D01*
X117148544Y-40744023D01*
X117134906Y-40741661D01*
X117125468Y-40730699D01*
X117107547Y-40720353D01*
X117092270Y-40697777D01*
X117089645Y-40692437D01*
X117052793Y-40587118D01*
X117008157Y-40526638D01*
X117004240Y-40518668D01*
X117001091Y-40496746D01*
X116994092Y-40475741D01*
X116996831Y-40467089D01*
X116995541Y-40458104D01*
X117005878Y-40438518D01*
X117012563Y-40417410D01*
X117013434Y-40416212D01*
X117052792Y-40362883D01*
X117052791Y-40362883D01*
X117052793Y-40362882D01*
X117097646Y-40234699D01*
X117100499Y-40204273D01*
X117100500Y-40204273D01*
X117100500Y-39795727D01*
X117100499Y-39795725D01*
X117097646Y-39765305D01*
X117097646Y-39765301D01*
X117052793Y-39637118D01*
X117038328Y-39617519D01*
X116972154Y-39527855D01*
X116972152Y-39527853D01*
X116972150Y-39527850D01*
X116972146Y-39527847D01*
X116972144Y-39527845D01*
X116862883Y-39447207D01*
X116734703Y-39402355D01*
X116734694Y-39402353D01*
X116704274Y-39399500D01*
X116704266Y-39399500D01*
X115570734Y-39399500D01*
X115570725Y-39399500D01*
X115540305Y-39402353D01*
X115540296Y-39402355D01*
X115412116Y-39447207D01*
X115302855Y-39527845D01*
X115302845Y-39527855D01*
X115222207Y-39637116D01*
X115177355Y-39765296D01*
X115177353Y-39765305D01*
X115174500Y-39795725D01*
X115174500Y-39979699D01*
X115155593Y-40037890D01*
X115145504Y-40049703D01*
X114769019Y-40426188D01*
X114714502Y-40453965D01*
X114654070Y-40444394D01*
X114640227Y-40435839D01*
X114587883Y-40397207D01*
X114459703Y-40352355D01*
X114459694Y-40352353D01*
X114429274Y-40349500D01*
X114429266Y-40349500D01*
X113295734Y-40349500D01*
X113295725Y-40349500D01*
X113265305Y-40352353D01*
X113265296Y-40352355D01*
X113137116Y-40397207D01*
X113027850Y-40477849D01*
X113004648Y-40509288D01*
X112954880Y-40544881D01*
X112924992Y-40549500D01*
X108993201Y-40549500D01*
X108935010Y-40530593D01*
X108923197Y-40520504D01*
X108382392Y-39979699D01*
X107750613Y-39347920D01*
X107750610Y-39347918D01*
X107750609Y-39347917D01*
X107750608Y-39347916D01*
X107659291Y-39295194D01*
X107659293Y-39295194D01*
X107607079Y-39281204D01*
X107557427Y-39267900D01*
X107557425Y-39267900D01*
X103822275Y-39267900D01*
X103764084Y-39248993D01*
X103728120Y-39199493D01*
X103728120Y-39138307D01*
X103739959Y-39113899D01*
X103765068Y-39076320D01*
X103790941Y-39037598D01*
X103870130Y-38846420D01*
X103910500Y-38643465D01*
X103910500Y-38436535D01*
X103870130Y-38233580D01*
X103790941Y-38042402D01*
X103675977Y-37870345D01*
X103529655Y-37724023D01*
X103357598Y-37609059D01*
X103357599Y-37609059D01*
X103357597Y-37609058D01*
X103166418Y-37529869D01*
X102963467Y-37489500D01*
X102963465Y-37489500D01*
X102756535Y-37489500D01*
X102756532Y-37489500D01*
X102553581Y-37529869D01*
X102362402Y-37609058D01*
X102190348Y-37724020D01*
X102044020Y-37870348D01*
X101929058Y-38042402D01*
X101849869Y-38233581D01*
X101809500Y-38436532D01*
X101809500Y-38643467D01*
X101849869Y-38846418D01*
X101929058Y-39037597D01*
X101980041Y-39113899D01*
X101996649Y-39172787D01*
X101975471Y-39230191D01*
X101924597Y-39264183D01*
X101897725Y-39267900D01*
X81335300Y-39267900D01*
X81277109Y-39248993D01*
X81265296Y-39238904D01*
X81016685Y-38990293D01*
X80988908Y-38935776D01*
X80995225Y-38882403D01*
X81010130Y-38846420D01*
X81050500Y-38643465D01*
X81050500Y-38436535D01*
X81010130Y-38233580D01*
X80930941Y-38042402D01*
X80815977Y-37870345D01*
X80669655Y-37724023D01*
X80497598Y-37609059D01*
X80497599Y-37609059D01*
X80497597Y-37609058D01*
X80306418Y-37529869D01*
X80103467Y-37489500D01*
X80103465Y-37489500D01*
X79896535Y-37489500D01*
X79896532Y-37489500D01*
X79693581Y-37529869D01*
X79502402Y-37609058D01*
X79330348Y-37724020D01*
X79184020Y-37870348D01*
X79069058Y-38042402D01*
X78989869Y-38233581D01*
X78949500Y-38436532D01*
X78949500Y-38643467D01*
X78989869Y-38846418D01*
X79069058Y-39037597D01*
X79159466Y-39172903D01*
X79184023Y-39209655D01*
X79330345Y-39355977D01*
X79502402Y-39470941D01*
X79693580Y-39550130D01*
X79896535Y-39590500D01*
X79896536Y-39590500D01*
X80103464Y-39590500D01*
X80103465Y-39590500D01*
X80306420Y-39550130D01*
X80342403Y-39535224D01*
X80403399Y-39530424D01*
X80450293Y-39556685D01*
X80807918Y-39914310D01*
X80807920Y-39914313D01*
X80882487Y-39988880D01*
X80917665Y-40009190D01*
X80952842Y-40029500D01*
X80952843Y-40029500D01*
X80973813Y-40041607D01*
X81075670Y-40068900D01*
X81075672Y-40068901D01*
X81075673Y-40068901D01*
X81187190Y-40068901D01*
X81187206Y-40068900D01*
X102156008Y-40068900D01*
X102214199Y-40087807D01*
X102250163Y-40137307D01*
X102250163Y-40198493D01*
X102214199Y-40247993D01*
X102211009Y-40250216D01*
X102190348Y-40264020D01*
X102044020Y-40410348D01*
X101929058Y-40582402D01*
X101849869Y-40773581D01*
X101809500Y-40976532D01*
X101809500Y-41183467D01*
X101849869Y-41386418D01*
X101929058Y-41577597D01*
X101977102Y-41649500D01*
X102044023Y-41749655D01*
X102190345Y-41895977D01*
X102362402Y-42010941D01*
X102553580Y-42090130D01*
X102756535Y-42130500D01*
X102756536Y-42130500D01*
X102963464Y-42130500D01*
X102963465Y-42130500D01*
X103166420Y-42090130D01*
X103357598Y-42010941D01*
X103529655Y-41895977D01*
X103675977Y-41749655D01*
X103790941Y-41577598D01*
X103870130Y-41386420D01*
X103910500Y-41183465D01*
X103910500Y-40976535D01*
X103870130Y-40773580D01*
X103790941Y-40582402D01*
X103675977Y-40410345D01*
X103529655Y-40264023D01*
X103508990Y-40250215D01*
X103471111Y-40202167D01*
X103468709Y-40141028D01*
X103502701Y-40090154D01*
X103560104Y-40068976D01*
X103563992Y-40068900D01*
X107297799Y-40068900D01*
X107355990Y-40087807D01*
X107367803Y-40097896D01*
X108540387Y-41270480D01*
X108540389Y-41270481D01*
X108540390Y-41270482D01*
X108540391Y-41270483D01*
X108631708Y-41323205D01*
X108631706Y-41323205D01*
X108631710Y-41323206D01*
X108631712Y-41323207D01*
X108733573Y-41350500D01*
X112924992Y-41350500D01*
X112983183Y-41369407D01*
X113004648Y-41390712D01*
X113027850Y-41422150D01*
X113137116Y-41502792D01*
X113137117Y-41502792D01*
X113137118Y-41502793D01*
X113265301Y-41547646D01*
X113295725Y-41550499D01*
X113295727Y-41550500D01*
X113295734Y-41550500D01*
X113804000Y-41550500D01*
X113862191Y-41569407D01*
X113898155Y-41618907D01*
X113898155Y-41680093D01*
X113874004Y-41719503D01*
X111667089Y-43926418D01*
X109863003Y-45730504D01*
X109808486Y-45758281D01*
X109792999Y-45759500D01*
X103897310Y-45759500D01*
X103839119Y-45740593D01*
X103805846Y-45698385D01*
X103790942Y-45662404D01*
X103675979Y-45490348D01*
X103675977Y-45490345D01*
X103529655Y-45344023D01*
X103357598Y-45229059D01*
X103357599Y-45229059D01*
X103357597Y-45229058D01*
X103166418Y-45149869D01*
X102963467Y-45109500D01*
X102963465Y-45109500D01*
X102756535Y-45109500D01*
X102756532Y-45109500D01*
X102553581Y-45149869D01*
X102362402Y-45229058D01*
X102190348Y-45344020D01*
X102044020Y-45490348D01*
X101929058Y-45662402D01*
X101849869Y-45853581D01*
X101809500Y-46056532D01*
X101809500Y-46263467D01*
X101849869Y-46466418D01*
X101929058Y-46657597D01*
X102044020Y-46829651D01*
X102044023Y-46829655D01*
X102190345Y-46975977D01*
X102362402Y-47090941D01*
X102553580Y-47170130D01*
X102756535Y-47210500D01*
X102756536Y-47210500D01*
X102963464Y-47210500D01*
X102963465Y-47210500D01*
X103166420Y-47170130D01*
X103357598Y-47090941D01*
X103529655Y-46975977D01*
X103675977Y-46829655D01*
X103790941Y-46657598D01*
X103805846Y-46621615D01*
X103845582Y-46575089D01*
X103897310Y-46560500D01*
X109721599Y-46560500D01*
X109779790Y-46579407D01*
X109815754Y-46628907D01*
X109815754Y-46690093D01*
X109791603Y-46729504D01*
X108250603Y-48270504D01*
X108196086Y-48298281D01*
X108180599Y-48299500D01*
X103897310Y-48299500D01*
X103839119Y-48280593D01*
X103805846Y-48238385D01*
X103790942Y-48202404D01*
X103789558Y-48200333D01*
X103675977Y-48030345D01*
X103529655Y-47884023D01*
X103357598Y-47769059D01*
X103357599Y-47769059D01*
X103357597Y-47769058D01*
X103166418Y-47689869D01*
X102963467Y-47649500D01*
X102963465Y-47649500D01*
X102756535Y-47649500D01*
X102756532Y-47649500D01*
X102553581Y-47689869D01*
X102362402Y-47769058D01*
X102190348Y-47884020D01*
X102044020Y-48030348D01*
X101929058Y-48202402D01*
X101849869Y-48393581D01*
X101809500Y-48596532D01*
X101809500Y-48803467D01*
X101849869Y-49006418D01*
X101929058Y-49197597D01*
X102012764Y-49322873D01*
X102044023Y-49369655D01*
X102190345Y-49515977D01*
X102362402Y-49630941D01*
X102553580Y-49710130D01*
X102756535Y-49750500D01*
X102756536Y-49750500D01*
X102963464Y-49750500D01*
X102963465Y-49750500D01*
X103166420Y-49710130D01*
X103357598Y-49630941D01*
X103529655Y-49515977D01*
X103675977Y-49369655D01*
X103790941Y-49197598D01*
X103805846Y-49161615D01*
X103845582Y-49115089D01*
X103897310Y-49100500D01*
X108440225Y-49100500D01*
X108440227Y-49100500D01*
X108542088Y-49073207D01*
X108542090Y-49073205D01*
X108542092Y-49073205D01*
X108633408Y-49020483D01*
X108633408Y-49020482D01*
X108633413Y-49020480D01*
X116074397Y-41579496D01*
X116128914Y-41551719D01*
X116144401Y-41550500D01*
X116704273Y-41550500D01*
X116704273Y-41550499D01*
X116734699Y-41547646D01*
X116862882Y-41502793D01*
X116972150Y-41422150D01*
X117045174Y-41323205D01*
X117052791Y-41312885D01*
X117052791Y-41312884D01*
X117052793Y-41312882D01*
X117087676Y-41213189D01*
X117124739Y-41164512D01*
X117183339Y-41146915D01*
X117241091Y-41167123D01*
X117266855Y-41196389D01*
X117337480Y-41318716D01*
X117449284Y-41430520D01*
X117586216Y-41509577D01*
X117738943Y-41550500D01*
X117738945Y-41550500D01*
X117897055Y-41550500D01*
X117897057Y-41550500D01*
X118049784Y-41509577D01*
X118186716Y-41430520D01*
X118212229Y-41405006D01*
X118237741Y-41379496D01*
X118292258Y-41351719D01*
X118307744Y-41350500D01*
X129924992Y-41350500D01*
X129983183Y-41369407D01*
X130004648Y-41390712D01*
X130027850Y-41422150D01*
X130137116Y-41502792D01*
X130137117Y-41502792D01*
X130137118Y-41502793D01*
X130265301Y-41547646D01*
X130295725Y-41550499D01*
X130295727Y-41550500D01*
X130295734Y-41550500D01*
X131429273Y-41550500D01*
X131429273Y-41550499D01*
X131459699Y-41547646D01*
X131587882Y-41502793D01*
X131588606Y-41502258D01*
X131589385Y-41501998D01*
X131594445Y-41499325D01*
X131594888Y-41500164D01*
X131646651Y-41482912D01*
X131704983Y-41501378D01*
X131741320Y-41550605D01*
X131746400Y-41581909D01*
X131746400Y-47919173D01*
X131746400Y-48024627D01*
X131747933Y-48030348D01*
X131773694Y-48126492D01*
X131826416Y-48217808D01*
X131826417Y-48217809D01*
X131826418Y-48217810D01*
X131826420Y-48217813D01*
X132205139Y-48596532D01*
X132445504Y-48836897D01*
X132473281Y-48891414D01*
X132474500Y-48906901D01*
X132474500Y-49322866D01*
X132474501Y-49322870D01*
X132480908Y-49382480D01*
X132480909Y-49382485D01*
X132531202Y-49517329D01*
X132598255Y-49606900D01*
X132617454Y-49632546D01*
X132617457Y-49632548D01*
X132617458Y-49632549D01*
X132732670Y-49718797D01*
X132867511Y-49769089D01*
X132867512Y-49769089D01*
X132867517Y-49769091D01*
X132927127Y-49775500D01*
X133244099Y-49775499D01*
X133302288Y-49794406D01*
X133338252Y-49843906D01*
X133338253Y-49905091D01*
X133314102Y-49944503D01*
X128866858Y-54391748D01*
X128812341Y-54419525D01*
X128751909Y-54409954D01*
X128717601Y-54381073D01*
X128632549Y-54267458D01*
X128632548Y-54267457D01*
X128632546Y-54267454D01*
X128632541Y-54267450D01*
X128517329Y-54181202D01*
X128382488Y-54130910D01*
X128382483Y-54130909D01*
X128382481Y-54130908D01*
X128382477Y-54130908D01*
X128351249Y-54127550D01*
X128322873Y-54124500D01*
X128322870Y-54124500D01*
X127677133Y-54124500D01*
X127677129Y-54124500D01*
X127677128Y-54124501D01*
X127669949Y-54125272D01*
X127617519Y-54130908D01*
X127617514Y-54130909D01*
X127482670Y-54181202D01*
X127367458Y-54267450D01*
X127367450Y-54267458D01*
X127281202Y-54382670D01*
X127241903Y-54488040D01*
X127203853Y-54535955D01*
X127144906Y-54552353D01*
X127087578Y-54530972D01*
X127079141Y-54523448D01*
X126029273Y-53473580D01*
X124745213Y-52189520D01*
X124745210Y-52189518D01*
X124745209Y-52189517D01*
X124745208Y-52189516D01*
X124653891Y-52136794D01*
X124653893Y-52136794D01*
X124614370Y-52126204D01*
X124552027Y-52109500D01*
X124552025Y-52109500D01*
X80855139Y-52109500D01*
X80796948Y-52090593D01*
X80760984Y-52041093D01*
X80760984Y-51979907D01*
X80785133Y-51940498D01*
X80815977Y-51909655D01*
X80930941Y-51737598D01*
X81010130Y-51546420D01*
X81050500Y-51343465D01*
X81050500Y-51136535D01*
X81010130Y-50933580D01*
X80930941Y-50742402D01*
X80815977Y-50570345D01*
X80669655Y-50424023D01*
X80669651Y-50424020D01*
X80497597Y-50309058D01*
X80306418Y-50229869D01*
X80103467Y-50189500D01*
X80103465Y-50189500D01*
X79896535Y-50189500D01*
X79896532Y-50189500D01*
X79693581Y-50229869D01*
X79502402Y-50309058D01*
X79330348Y-50424020D01*
X79184020Y-50570348D01*
X79069058Y-50742402D01*
X78989869Y-50933581D01*
X78949500Y-51136532D01*
X78949500Y-51343467D01*
X78989869Y-51546418D01*
X79069058Y-51737597D01*
X79069059Y-51737598D01*
X79184023Y-51909655D01*
X79214866Y-51940498D01*
X79242642Y-51995013D01*
X79233071Y-52055445D01*
X79189806Y-52098710D01*
X79144861Y-52109500D01*
X39216900Y-52109500D01*
X39158709Y-52090593D01*
X39146896Y-52080504D01*
X33188068Y-46121675D01*
X33122925Y-46056532D01*
X78949500Y-46056532D01*
X78949500Y-46263467D01*
X78989869Y-46466418D01*
X79069058Y-46657597D01*
X79184020Y-46829651D01*
X79184023Y-46829655D01*
X79330345Y-46975977D01*
X79502402Y-47090941D01*
X79693580Y-47170130D01*
X79896535Y-47210500D01*
X79896536Y-47210500D01*
X80103464Y-47210500D01*
X80103465Y-47210500D01*
X80306420Y-47170130D01*
X80497598Y-47090941D01*
X80669655Y-46975977D01*
X80815977Y-46829655D01*
X80930941Y-46657598D01*
X81010130Y-46466420D01*
X81050500Y-46263465D01*
X81050500Y-46056535D01*
X81010130Y-45853580D01*
X80930941Y-45662402D01*
X80815977Y-45490345D01*
X80669655Y-45344023D01*
X80497598Y-45229059D01*
X80497599Y-45229059D01*
X80497597Y-45229058D01*
X80306418Y-45149869D01*
X80103467Y-45109500D01*
X80103465Y-45109500D01*
X79896535Y-45109500D01*
X79896532Y-45109500D01*
X79693581Y-45149869D01*
X79502402Y-45229058D01*
X79330348Y-45344020D01*
X79184020Y-45490348D01*
X79069058Y-45662402D01*
X78989869Y-45853581D01*
X78949500Y-46056532D01*
X33122925Y-46056532D01*
X30582925Y-43516532D01*
X78949500Y-43516532D01*
X78949500Y-43723467D01*
X78989869Y-43926418D01*
X79069058Y-44117597D01*
X79069059Y-44117598D01*
X79184023Y-44289655D01*
X79330345Y-44435977D01*
X79502402Y-44550941D01*
X79693580Y-44630130D01*
X79896535Y-44670500D01*
X79896536Y-44670500D01*
X80103464Y-44670500D01*
X80103465Y-44670500D01*
X80306420Y-44630130D01*
X80497598Y-44550941D01*
X80669655Y-44435977D01*
X80815977Y-44289655D01*
X80930941Y-44117598D01*
X81010130Y-43926420D01*
X81050500Y-43723465D01*
X81050500Y-43516535D01*
X81010130Y-43313580D01*
X80930941Y-43122402D01*
X80815977Y-42950345D01*
X80669655Y-42804023D01*
X80669651Y-42804020D01*
X80497597Y-42689058D01*
X80306418Y-42609869D01*
X80103467Y-42569500D01*
X80103465Y-42569500D01*
X79896535Y-42569500D01*
X79896532Y-42569500D01*
X79693581Y-42609869D01*
X79502402Y-42689058D01*
X79330348Y-42804020D01*
X79184020Y-42950348D01*
X79069058Y-43122402D01*
X78989869Y-43313581D01*
X78949500Y-43516532D01*
X30582925Y-43516532D01*
X28042925Y-40976532D01*
X78949500Y-40976532D01*
X78949500Y-41183467D01*
X78989869Y-41386418D01*
X79069058Y-41577597D01*
X79117102Y-41649500D01*
X79184023Y-41749655D01*
X79330345Y-41895977D01*
X79502402Y-42010941D01*
X79693580Y-42090130D01*
X79896535Y-42130500D01*
X79896536Y-42130500D01*
X80103464Y-42130500D01*
X80103465Y-42130500D01*
X80306420Y-42090130D01*
X80497598Y-42010941D01*
X80669655Y-41895977D01*
X80815977Y-41749655D01*
X80930941Y-41577598D01*
X81010130Y-41386420D01*
X81050500Y-41183465D01*
X81050500Y-40976535D01*
X81010130Y-40773580D01*
X80930941Y-40582402D01*
X80815977Y-40410345D01*
X80669655Y-40264023D01*
X80669651Y-40264020D01*
X80497597Y-40149058D01*
X80306418Y-40069869D01*
X80103467Y-40029500D01*
X80103465Y-40029500D01*
X79896535Y-40029500D01*
X79896532Y-40029500D01*
X79693581Y-40069869D01*
X79502402Y-40149058D01*
X79330348Y-40264020D01*
X79184020Y-40410348D01*
X79069058Y-40582402D01*
X78989869Y-40773581D01*
X78949500Y-40976532D01*
X28042925Y-40976532D01*
X27857656Y-40791263D01*
X27829879Y-40736746D01*
X27839449Y-40676317D01*
X27890568Y-40575992D01*
X27963553Y-40351368D01*
X27968066Y-40322873D01*
X28000500Y-40118095D01*
X28000500Y-39881904D01*
X27963554Y-39648636D01*
X27963553Y-39648632D01*
X27890568Y-39424008D01*
X27783343Y-39213567D01*
X27644517Y-39022490D01*
X27477510Y-38855483D01*
X27286433Y-38716657D01*
X27286432Y-38716656D01*
X27286430Y-38716655D01*
X27075992Y-38609432D01*
X26851363Y-38536445D01*
X26618095Y-38499500D01*
X26618092Y-38499500D01*
X26381908Y-38499500D01*
X26381905Y-38499500D01*
X26148636Y-38536445D01*
X25924007Y-38609432D01*
X25713569Y-38716655D01*
X25522491Y-38855482D01*
X25355482Y-39022491D01*
X25216655Y-39213569D01*
X25109432Y-39424007D01*
X25036445Y-39648636D01*
X24999500Y-39881904D01*
X21000500Y-39881904D01*
X20963554Y-39648636D01*
X20963553Y-39648632D01*
X20890568Y-39424008D01*
X20783343Y-39213567D01*
X20644517Y-39022490D01*
X20477510Y-38855483D01*
X20286433Y-38716657D01*
X20286432Y-38716656D01*
X20286430Y-38716655D01*
X20075992Y-38609432D01*
X19851363Y-38536445D01*
X19618095Y-38499500D01*
X19618092Y-38499500D01*
X19381908Y-38499500D01*
X19381905Y-38499500D01*
X19148636Y-38536445D01*
X18924007Y-38609432D01*
X18713569Y-38716655D01*
X18522491Y-38855482D01*
X18355482Y-39022491D01*
X18216655Y-39213569D01*
X18109432Y-39424007D01*
X18036445Y-39648636D01*
X17999500Y-39881904D01*
X17500499Y-39881904D01*
X17500499Y-39006902D01*
X17489876Y-38918436D01*
X17434361Y-38777658D01*
X17342922Y-38657078D01*
X17222342Y-38565639D01*
X17081564Y-38510124D01*
X16993099Y-38499500D01*
X15006903Y-38499500D01*
X15006897Y-38499501D01*
X14931785Y-38508521D01*
X14918436Y-38510124D01*
X14777658Y-38565639D01*
X14777657Y-38565639D01*
X14777656Y-38565640D01*
X14657081Y-38657075D01*
X14657075Y-38657081D01*
X14565640Y-38777656D01*
X14510124Y-38918435D01*
X14499500Y-39006898D01*
X10500500Y-39006898D01*
X10500500Y-33926082D01*
X53249500Y-33926082D01*
X53249500Y-34073918D01*
X53278342Y-34218913D01*
X53334916Y-34355495D01*
X53417049Y-34478416D01*
X53521584Y-34582951D01*
X53644505Y-34665084D01*
X53781087Y-34721658D01*
X53926082Y-34750500D01*
X53926083Y-34750500D01*
X54073917Y-34750500D01*
X54073918Y-34750500D01*
X54218913Y-34721658D01*
X54355495Y-34665084D01*
X54478416Y-34582951D01*
X54582951Y-34478416D01*
X54665084Y-34355495D01*
X54721658Y-34218913D01*
X54749294Y-34079978D01*
X54758140Y-34054433D01*
X54823385Y-33926082D01*
X60249500Y-33926082D01*
X60249500Y-34073918D01*
X60278342Y-34218913D01*
X60334916Y-34355495D01*
X60417049Y-34478416D01*
X60521584Y-34582951D01*
X60644505Y-34665084D01*
X60781087Y-34721658D01*
X60926082Y-34750500D01*
X60926083Y-34750500D01*
X61073917Y-34750500D01*
X61073918Y-34750500D01*
X61218913Y-34721658D01*
X61355495Y-34665084D01*
X61478416Y-34582951D01*
X61582951Y-34478416D01*
X61665084Y-34355495D01*
X61721658Y-34218913D01*
X61750500Y-34073918D01*
X61750500Y-34034490D01*
X61757847Y-33997065D01*
X61807137Y-33876356D01*
X62671994Y-31758336D01*
X62705912Y-31718216D01*
X62704578Y-31716457D01*
X62785752Y-31654900D01*
X62825078Y-31625078D01*
X62912364Y-31509975D01*
X62965359Y-31375590D01*
X62975500Y-31291144D01*
X62975500Y-30708856D01*
X62965359Y-30624410D01*
X62919790Y-30508857D01*
X62913425Y-30492716D01*
X62912364Y-30490025D01*
X62906197Y-30481893D01*
X70249500Y-30481893D01*
X70249500Y-31518106D01*
X70260123Y-31606565D01*
X70315637Y-31747339D01*
X70315638Y-31747341D01*
X70315639Y-31747342D01*
X70407078Y-31867922D01*
X70527658Y-31959361D01*
X70527659Y-31959361D01*
X70527660Y-31959362D01*
X70598047Y-31987119D01*
X70668436Y-32014877D01*
X70756898Y-32025500D01*
X70756900Y-32025500D01*
X71343100Y-32025500D01*
X71343102Y-32025500D01*
X71431564Y-32014877D01*
X71572342Y-31959361D01*
X71692922Y-31867922D01*
X71784361Y-31747342D01*
X71839877Y-31606564D01*
X71850500Y-31518102D01*
X71850500Y-30975343D01*
X96716900Y-30975343D01*
X96716900Y-31133457D01*
X96757823Y-31286184D01*
X96836880Y-31423116D01*
X96948684Y-31534920D01*
X97085616Y-31613977D01*
X97238343Y-31654900D01*
X97238345Y-31654900D01*
X97396455Y-31654900D01*
X97396457Y-31654900D01*
X97549184Y-31613977D01*
X97686116Y-31534920D01*
X97724379Y-31496657D01*
X97737141Y-31483896D01*
X97791658Y-31456119D01*
X97807144Y-31454900D01*
X107431952Y-31454900D01*
X107479399Y-31467011D01*
X107482669Y-31468796D01*
X107617511Y-31519089D01*
X107617512Y-31519089D01*
X107617517Y-31519091D01*
X107677127Y-31525500D01*
X108322872Y-31525499D01*
X108382483Y-31519091D01*
X108479152Y-31483036D01*
X108517329Y-31468797D01*
X108517329Y-31468796D01*
X108517331Y-31468796D01*
X108632546Y-31382546D01*
X108718796Y-31267331D01*
X108769091Y-31132483D01*
X108775500Y-31072873D01*
X108775499Y-30721556D01*
X108794406Y-30663366D01*
X108843906Y-30627402D01*
X108905091Y-30627402D01*
X108923993Y-30635817D01*
X109006716Y-30683577D01*
X109159443Y-30724500D01*
X109159445Y-30724500D01*
X109317555Y-30724500D01*
X109317557Y-30724500D01*
X109470284Y-30683577D01*
X109607216Y-30604520D01*
X109719020Y-30492716D01*
X109798077Y-30355784D01*
X109839000Y-30203057D01*
X109839000Y-30044943D01*
X109798077Y-29892216D01*
X109719020Y-29755284D01*
X109607216Y-29643480D01*
X109470284Y-29564423D01*
X109317557Y-29523500D01*
X109159443Y-29523500D01*
X109021782Y-29560386D01*
X108960680Y-29557183D01*
X108926157Y-29534764D01*
X108804494Y-29413102D01*
X108776718Y-29358586D01*
X108775499Y-29343099D01*
X108775499Y-28972000D01*
X108794406Y-28913809D01*
X108843906Y-28877845D01*
X108874499Y-28873000D01*
X110721299Y-28873000D01*
X110779490Y-28891907D01*
X110791303Y-28901996D01*
X110793004Y-28903697D01*
X110820781Y-28958214D01*
X110822000Y-28973701D01*
X110822000Y-29994773D01*
X110822000Y-30100227D01*
X110833071Y-30141544D01*
X110849294Y-30202092D01*
X110902016Y-30293408D01*
X110902020Y-30293413D01*
X111195504Y-30586898D01*
X111223281Y-30641414D01*
X111224500Y-30656901D01*
X111224500Y-31072866D01*
X111224501Y-31072870D01*
X111230908Y-31132480D01*
X111230909Y-31132485D01*
X111281202Y-31267329D01*
X111362247Y-31375591D01*
X111367454Y-31382546D01*
X111367457Y-31382548D01*
X111367458Y-31382549D01*
X111482670Y-31468797D01*
X111617511Y-31519089D01*
X111617512Y-31519089D01*
X111617517Y-31519091D01*
X111677127Y-31525500D01*
X112322872Y-31525499D01*
X112382483Y-31519091D01*
X112479152Y-31483036D01*
X112517329Y-31468797D01*
X112517329Y-31468796D01*
X112517331Y-31468796D01*
X112632546Y-31382546D01*
X112718796Y-31267331D01*
X112769091Y-31132483D01*
X112775500Y-31072873D01*
X112775499Y-30898901D01*
X112794406Y-30840712D01*
X112843906Y-30804748D01*
X112900119Y-30803275D01*
X112966643Y-30821100D01*
X112966645Y-30821100D01*
X113124755Y-30821100D01*
X113124757Y-30821100D01*
X113277484Y-30780177D01*
X113414416Y-30701120D01*
X113526220Y-30589316D01*
X113605277Y-30452384D01*
X113646200Y-30299657D01*
X113646200Y-30141543D01*
X113605277Y-29988816D01*
X113526220Y-29851884D01*
X113414416Y-29740080D01*
X113277484Y-29661023D01*
X113124757Y-29620100D01*
X113124755Y-29620100D01*
X113052500Y-29620100D01*
X112994309Y-29601193D01*
X112982496Y-29591104D01*
X112804495Y-29413103D01*
X112776718Y-29358586D01*
X112775499Y-29343099D01*
X112775499Y-28972000D01*
X112794406Y-28913809D01*
X112843906Y-28877845D01*
X112874499Y-28873000D01*
X113490599Y-28873000D01*
X113548790Y-28891907D01*
X113560603Y-28901996D01*
X115195504Y-30536896D01*
X115223281Y-30591413D01*
X115224500Y-30606900D01*
X115224500Y-31041148D01*
X115234641Y-31125591D01*
X115287634Y-31259972D01*
X115287635Y-31259974D01*
X115287636Y-31259975D01*
X115374922Y-31375078D01*
X115490025Y-31462364D01*
X115490026Y-31462364D01*
X115490027Y-31462365D01*
X115523335Y-31475500D01*
X115624410Y-31515359D01*
X115708856Y-31525500D01*
X115708858Y-31525500D01*
X116291142Y-31525500D01*
X116291144Y-31525500D01*
X116375590Y-31515359D01*
X116509975Y-31462364D01*
X116625078Y-31375078D01*
X116712364Y-31259975D01*
X116765359Y-31125590D01*
X116775500Y-31041144D01*
X116775500Y-30701081D01*
X125249500Y-30701081D01*
X125249500Y-30848918D01*
X125278342Y-30993914D01*
X125297907Y-31041148D01*
X125334916Y-31130495D01*
X125417049Y-31253416D01*
X125521584Y-31357951D01*
X125644505Y-31440084D01*
X125781087Y-31496658D01*
X125926082Y-31525500D01*
X125926083Y-31525500D01*
X126073917Y-31525500D01*
X126073918Y-31525500D01*
X126218913Y-31496658D01*
X126242735Y-31486790D01*
X126251800Y-31483036D01*
X126289685Y-31475500D01*
X127504518Y-31475500D01*
X127540836Y-31482402D01*
X127567474Y-31492906D01*
X127624410Y-31515359D01*
X127708856Y-31525500D01*
X127708858Y-31525500D01*
X128291142Y-31525500D01*
X128291144Y-31525500D01*
X128375590Y-31515359D01*
X128509975Y-31462364D01*
X128625078Y-31375078D01*
X128712364Y-31259975D01*
X128765359Y-31125590D01*
X128775500Y-31041144D01*
X128775500Y-30508856D01*
X128765359Y-30424410D01*
X128738296Y-30355783D01*
X128712365Y-30290027D01*
X128712364Y-30290026D01*
X128712364Y-30290025D01*
X128625078Y-30174922D01*
X128509975Y-30087636D01*
X128509974Y-30087635D01*
X128509972Y-30087634D01*
X128375591Y-30034641D01*
X128291148Y-30024500D01*
X128291144Y-30024500D01*
X127708856Y-30024500D01*
X127708851Y-30024500D01*
X127624410Y-30034641D01*
X127540836Y-30067598D01*
X127504518Y-30074500D01*
X126289685Y-30074500D01*
X126251800Y-30066964D01*
X126218914Y-30053342D01*
X126073918Y-30024500D01*
X125926082Y-30024500D01*
X125926081Y-30024500D01*
X125781085Y-30053342D01*
X125644506Y-30109915D01*
X125521585Y-30192048D01*
X125417048Y-30296585D01*
X125334915Y-30419506D01*
X125278342Y-30556085D01*
X125249500Y-30701081D01*
X116775500Y-30701081D01*
X116775500Y-30508856D01*
X116765359Y-30424410D01*
X116738296Y-30355783D01*
X116712365Y-30290027D01*
X116712364Y-30290026D01*
X116712364Y-30290025D01*
X116625078Y-30174922D01*
X116509975Y-30087636D01*
X116509974Y-30087635D01*
X116509972Y-30087634D01*
X116375591Y-30034641D01*
X116291148Y-30024500D01*
X116291144Y-30024500D01*
X115856900Y-30024500D01*
X115798709Y-30005593D01*
X115786896Y-29995504D01*
X114913661Y-29122269D01*
X113943413Y-28152020D01*
X113943410Y-28152018D01*
X113943408Y-28152016D01*
X113852091Y-28099294D01*
X113852093Y-28099294D01*
X113812570Y-28088704D01*
X113750227Y-28072000D01*
X111569527Y-28072000D01*
X111464073Y-28072000D01*
X111413142Y-28085646D01*
X111362210Y-28099293D01*
X111272000Y-28151377D01*
X111212152Y-28164098D01*
X111173000Y-28151377D01*
X111082789Y-28099293D01*
X111048834Y-28090195D01*
X110980927Y-28072000D01*
X107569527Y-28072000D01*
X107464073Y-28072000D01*
X107401729Y-28088704D01*
X107362207Y-28099294D01*
X107270891Y-28152016D01*
X106902016Y-28520891D01*
X106849294Y-28612208D01*
X106849293Y-28612211D01*
X106845306Y-28627086D01*
X106845307Y-28627087D01*
X106845307Y-28627088D01*
X106822000Y-28714073D01*
X106822000Y-29994773D01*
X106822000Y-30100227D01*
X106833071Y-30141544D01*
X106849294Y-30202092D01*
X106902016Y-30293408D01*
X106902020Y-30293413D01*
X107093503Y-30484897D01*
X107121280Y-30539413D01*
X107111709Y-30599845D01*
X107068444Y-30643110D01*
X107023499Y-30653900D01*
X97807144Y-30653900D01*
X97748953Y-30634993D01*
X97737141Y-30624904D01*
X97686118Y-30573882D01*
X97686116Y-30573880D01*
X97549184Y-30494823D01*
X97396457Y-30453900D01*
X97238343Y-30453900D01*
X97085616Y-30494823D01*
X96948684Y-30573880D01*
X96836880Y-30685684D01*
X96757823Y-30822616D01*
X96716900Y-30975343D01*
X71850500Y-30975343D01*
X71850500Y-30806899D01*
X71869407Y-30748708D01*
X71879490Y-30736901D01*
X73274210Y-29342181D01*
X73274213Y-29342180D01*
X73348780Y-29267613D01*
X73401507Y-29176287D01*
X73415980Y-29122273D01*
X73428801Y-29074427D01*
X73428801Y-28968973D01*
X73428801Y-28962911D01*
X73428800Y-28962893D01*
X73428800Y-23513523D01*
X73447707Y-23455332D01*
X73497207Y-23419368D01*
X73558393Y-23419368D01*
X73577991Y-23428875D01*
X73578113Y-23428649D01*
X73582398Y-23430939D01*
X73582400Y-23430940D01*
X73582402Y-23430941D01*
X73773580Y-23510130D01*
X73976535Y-23550500D01*
X73976536Y-23550500D01*
X74183464Y-23550500D01*
X74183465Y-23550500D01*
X74386420Y-23510130D01*
X74577598Y-23430941D01*
X74749655Y-23315977D01*
X74895977Y-23169655D01*
X75010941Y-22997598D01*
X75090130Y-22806420D01*
X75130500Y-22603465D01*
X75130500Y-21396535D01*
X75090130Y-21193580D01*
X75010941Y-21002402D01*
X74895977Y-20830345D01*
X74749655Y-20684023D01*
X74710712Y-20658002D01*
X74577597Y-20569058D01*
X74386418Y-20489869D01*
X74183467Y-20449500D01*
X74183465Y-20449500D01*
X73976535Y-20449500D01*
X73976532Y-20449500D01*
X73773581Y-20489869D01*
X73582402Y-20569058D01*
X73410348Y-20684020D01*
X73264020Y-20830348D01*
X73149058Y-21002402D01*
X73069869Y-21193581D01*
X73029500Y-21396532D01*
X73029500Y-21509085D01*
X73010593Y-21567276D01*
X72961093Y-21603240D01*
X72956138Y-21604707D01*
X72873713Y-21626793D01*
X72873712Y-21626793D01*
X72873710Y-21626794D01*
X72873709Y-21626794D01*
X72782389Y-21679518D01*
X72707818Y-21754089D01*
X72655094Y-21845409D01*
X72655094Y-21845410D01*
X72627800Y-21947274D01*
X72627800Y-28814798D01*
X72608893Y-28872989D01*
X72598804Y-28884802D01*
X71524736Y-29958869D01*
X71470219Y-29986646D01*
X71437949Y-29985186D01*
X71437866Y-29985880D01*
X71431564Y-29985123D01*
X71407966Y-29982289D01*
X71343106Y-29974500D01*
X71343102Y-29974500D01*
X70756898Y-29974500D01*
X70756893Y-29974500D01*
X70668434Y-29985123D01*
X70527660Y-30040637D01*
X70527656Y-30040640D01*
X70407081Y-30132075D01*
X70407075Y-30132081D01*
X70315640Y-30252656D01*
X70315637Y-30252660D01*
X70260123Y-30393434D01*
X70249500Y-30481893D01*
X62906197Y-30481893D01*
X62825078Y-30374922D01*
X62709975Y-30287636D01*
X62709974Y-30287635D01*
X62709972Y-30287634D01*
X62575591Y-30234641D01*
X62491148Y-30224500D01*
X62491144Y-30224500D01*
X61958856Y-30224500D01*
X61958851Y-30224500D01*
X61874408Y-30234641D01*
X61740027Y-30287634D01*
X61624922Y-30374922D01*
X61537634Y-30490027D01*
X61484641Y-30624408D01*
X61474500Y-30708851D01*
X61474500Y-30965508D01*
X61467153Y-31002933D01*
X60461191Y-33466510D01*
X60439546Y-33499085D01*
X60417047Y-33521586D01*
X60334914Y-33644507D01*
X60278342Y-33781085D01*
X60278342Y-33781087D01*
X60249500Y-33926082D01*
X54823385Y-33926082D01*
X54848663Y-33876356D01*
X55444287Y-32704638D01*
X55487510Y-32661333D01*
X55532539Y-32650500D01*
X55893100Y-32650500D01*
X55893102Y-32650500D01*
X55981564Y-32639877D01*
X56122342Y-32584361D01*
X56242922Y-32492922D01*
X56334361Y-32372342D01*
X56389877Y-32231564D01*
X56400500Y-32143102D01*
X56400500Y-29856898D01*
X56389877Y-29768436D01*
X56347519Y-29661023D01*
X56334362Y-29627660D01*
X56334361Y-29627659D01*
X56334361Y-29627658D01*
X56242922Y-29507078D01*
X56122342Y-29415639D01*
X56122341Y-29415638D01*
X56122339Y-29415637D01*
X55981565Y-29360123D01*
X55893106Y-29349500D01*
X55893102Y-29349500D01*
X55156898Y-29349500D01*
X55156893Y-29349500D01*
X55068434Y-29360123D01*
X54927660Y-29415637D01*
X54927656Y-29415640D01*
X54807081Y-29507075D01*
X54807075Y-29507081D01*
X54715640Y-29627656D01*
X54715637Y-29627660D01*
X54660123Y-29768434D01*
X54649500Y-29856893D01*
X54649500Y-31152718D01*
X54638752Y-31197580D01*
X53506212Y-33425526D01*
X53487965Y-33450667D01*
X53417046Y-33521587D01*
X53334914Y-33644507D01*
X53278342Y-33781085D01*
X53278342Y-33781087D01*
X53249500Y-33926082D01*
X10500500Y-33926082D01*
X10500500Y-21455029D01*
X27699500Y-21455029D01*
X27699500Y-22544970D01*
X27714630Y-22679249D01*
X27714633Y-22679261D01*
X27774211Y-22849522D01*
X27774211Y-22849523D01*
X27867253Y-22997598D01*
X27870184Y-23002262D01*
X27997738Y-23129816D01*
X27997740Y-23129817D01*
X27997741Y-23129818D01*
X28117941Y-23205345D01*
X28150478Y-23225789D01*
X28194832Y-23241309D01*
X28320738Y-23285366D01*
X28320742Y-23285367D01*
X28320745Y-23285368D01*
X28320746Y-23285368D01*
X28320750Y-23285369D01*
X28455029Y-23300499D01*
X28455045Y-23300499D01*
X28455046Y-23300500D01*
X28455047Y-23300500D01*
X29544953Y-23300500D01*
X29544954Y-23300500D01*
X29544955Y-23300499D01*
X29544970Y-23300499D01*
X29679249Y-23285369D01*
X29679251Y-23285368D01*
X29679255Y-23285368D01*
X29849522Y-23225789D01*
X30002262Y-23129816D01*
X30129816Y-23002262D01*
X30225789Y-22849522D01*
X30285368Y-22679255D01*
X30285369Y-22679249D01*
X30300499Y-22544970D01*
X30300500Y-22544953D01*
X30300500Y-22499500D01*
X30319407Y-22441309D01*
X30368907Y-22405345D01*
X30399500Y-22400500D01*
X32600500Y-22400500D01*
X32658691Y-22419407D01*
X32694655Y-22468907D01*
X32699500Y-22499500D01*
X32699500Y-22544970D01*
X32714630Y-22679249D01*
X32714633Y-22679261D01*
X32774211Y-22849522D01*
X32774211Y-22849523D01*
X32867253Y-22997598D01*
X32870184Y-23002262D01*
X32997738Y-23129816D01*
X32997740Y-23129817D01*
X32997741Y-23129818D01*
X33117941Y-23205345D01*
X33150478Y-23225789D01*
X33194832Y-23241309D01*
X33320738Y-23285366D01*
X33320742Y-23285367D01*
X33320745Y-23285368D01*
X33320746Y-23285368D01*
X33320750Y-23285369D01*
X33455029Y-23300499D01*
X33455045Y-23300499D01*
X33455046Y-23300500D01*
X33455047Y-23300500D01*
X34544953Y-23300500D01*
X34544954Y-23300500D01*
X34544955Y-23300499D01*
X34544970Y-23300499D01*
X34679249Y-23285369D01*
X34679251Y-23285368D01*
X34679255Y-23285368D01*
X34849522Y-23225789D01*
X35002262Y-23129816D01*
X35129816Y-23002262D01*
X35225789Y-22849522D01*
X35285368Y-22679255D01*
X35285369Y-22679249D01*
X35300499Y-22544970D01*
X35300500Y-22544953D01*
X35300500Y-21897644D01*
X42699500Y-21897644D01*
X42699500Y-22102355D01*
X42731521Y-22304529D01*
X42794780Y-22499219D01*
X42887712Y-22681609D01*
X42887714Y-22681613D01*
X43008029Y-22847213D01*
X43008031Y-22847215D01*
X43008034Y-22847219D01*
X43152781Y-22991966D01*
X43152784Y-22991968D01*
X43152786Y-22991970D01*
X43318386Y-23112285D01*
X43318390Y-23112287D01*
X43500781Y-23205220D01*
X43695466Y-23268477D01*
X43695467Y-23268477D01*
X43695470Y-23268478D01*
X43897645Y-23300500D01*
X43897648Y-23300500D01*
X44102355Y-23300500D01*
X44304529Y-23268478D01*
X44304530Y-23268477D01*
X44304534Y-23268477D01*
X44499219Y-23205220D01*
X44681610Y-23112287D01*
X44847219Y-22991966D01*
X44991966Y-22847219D01*
X45068914Y-22741307D01*
X45118413Y-22705345D01*
X45149006Y-22700500D01*
X47850994Y-22700500D01*
X47909185Y-22719407D01*
X47931084Y-22741306D01*
X48008034Y-22847219D01*
X48152781Y-22991966D01*
X48152784Y-22991968D01*
X48152786Y-22991970D01*
X48318386Y-23112285D01*
X48318390Y-23112287D01*
X48500781Y-23205220D01*
X48695466Y-23268477D01*
X48695467Y-23268477D01*
X48695470Y-23268478D01*
X48897645Y-23300500D01*
X48897648Y-23300500D01*
X49102355Y-23300500D01*
X49304529Y-23268478D01*
X49304530Y-23268477D01*
X49304534Y-23268477D01*
X49499219Y-23205220D01*
X49681610Y-23112287D01*
X49847219Y-22991966D01*
X49991966Y-22847219D01*
X50112287Y-22681610D01*
X50205220Y-22499219D01*
X50268477Y-22304534D01*
X50300500Y-22102352D01*
X50300500Y-21897648D01*
X50300500Y-21897644D01*
X50268478Y-21695470D01*
X50268477Y-21695466D01*
X50205220Y-21500781D01*
X50167159Y-21426083D01*
X50127825Y-21348884D01*
X50127824Y-21348882D01*
X50112290Y-21318395D01*
X50112285Y-21318386D01*
X50103935Y-21306893D01*
X53449500Y-21306893D01*
X53449500Y-22693106D01*
X53460123Y-22781565D01*
X53515637Y-22922339D01*
X53515638Y-22922341D01*
X53515639Y-22922342D01*
X53607078Y-23042922D01*
X53727658Y-23134361D01*
X53727659Y-23134361D01*
X53727660Y-23134362D01*
X53798047Y-23162119D01*
X53868436Y-23189877D01*
X53956898Y-23200500D01*
X54200500Y-23200500D01*
X54258691Y-23219407D01*
X54294655Y-23268907D01*
X54299500Y-23299500D01*
X54299500Y-24710314D01*
X54291965Y-24748196D01*
X54278342Y-24781087D01*
X54249500Y-24926082D01*
X54249500Y-25073918D01*
X54278342Y-25218913D01*
X54334916Y-25355495D01*
X54417049Y-25478416D01*
X54521584Y-25582951D01*
X54644505Y-25665084D01*
X54781087Y-25721658D01*
X54926082Y-25750500D01*
X54926083Y-25750500D01*
X55073917Y-25750500D01*
X55073918Y-25750500D01*
X55218913Y-25721658D01*
X55355495Y-25665084D01*
X55478416Y-25582951D01*
X55582951Y-25478416D01*
X55665084Y-25355495D01*
X55721658Y-25218913D01*
X55750500Y-25073918D01*
X55750500Y-24926082D01*
X55721658Y-24781087D01*
X55708034Y-24748196D01*
X55700500Y-24710314D01*
X55700500Y-23299500D01*
X55719407Y-23241309D01*
X55768907Y-23205345D01*
X55799500Y-23200500D01*
X56043100Y-23200500D01*
X56043102Y-23200500D01*
X56131564Y-23189877D01*
X56272342Y-23134361D01*
X56392922Y-23042922D01*
X56484361Y-22922342D01*
X56539877Y-22781564D01*
X56550500Y-22693102D01*
X56550500Y-21306898D01*
X56539877Y-21218436D01*
X56484361Y-21077658D01*
X56392922Y-20957078D01*
X56272342Y-20865639D01*
X56272341Y-20865638D01*
X56272339Y-20865637D01*
X56131565Y-20810123D01*
X56043106Y-20799500D01*
X56043102Y-20799500D01*
X53956898Y-20799500D01*
X53956893Y-20799500D01*
X53868434Y-20810123D01*
X53727660Y-20865637D01*
X53727656Y-20865640D01*
X53607081Y-20957075D01*
X53607075Y-20957081D01*
X53515640Y-21077656D01*
X53515637Y-21077660D01*
X53460123Y-21218434D01*
X53449500Y-21306893D01*
X50103935Y-21306893D01*
X49991970Y-21152786D01*
X49991968Y-21152784D01*
X49991966Y-21152781D01*
X49847219Y-21008034D01*
X49833048Y-20997738D01*
X49741309Y-20931085D01*
X49705345Y-20881585D01*
X49700500Y-20850993D01*
X49700500Y-18799500D01*
X49719407Y-18741309D01*
X49768907Y-18705345D01*
X49799500Y-18700500D01*
X59706382Y-18700500D01*
X59764573Y-18719407D01*
X59800537Y-18768907D01*
X59800537Y-18830093D01*
X59794930Y-18843774D01*
X58992067Y-20449501D01*
X58990610Y-20452415D01*
X58971883Y-20489869D01*
X58928200Y-20577235D01*
X58876813Y-20680009D01*
X58864248Y-20705139D01*
X58851057Y-20731521D01*
X58851056Y-20731523D01*
X58844430Y-20744774D01*
X58801495Y-20788366D01*
X58755882Y-20799500D01*
X57956893Y-20799500D01*
X57868434Y-20810123D01*
X57727660Y-20865637D01*
X57727656Y-20865640D01*
X57607081Y-20957075D01*
X57607075Y-20957081D01*
X57515640Y-21077656D01*
X57515637Y-21077660D01*
X57460123Y-21218434D01*
X57449500Y-21306893D01*
X57449500Y-22693106D01*
X57460123Y-22781565D01*
X57515637Y-22922339D01*
X57515638Y-22922341D01*
X57515639Y-22922342D01*
X57607078Y-23042922D01*
X57727658Y-23134361D01*
X57727659Y-23134361D01*
X57727660Y-23134362D01*
X57798047Y-23162119D01*
X57868436Y-23189877D01*
X57956898Y-23200500D01*
X57956900Y-23200500D01*
X60043100Y-23200500D01*
X60043102Y-23200500D01*
X60131564Y-23189877D01*
X60272342Y-23134361D01*
X60392922Y-23042922D01*
X60484361Y-22922342D01*
X60539877Y-22781564D01*
X60550500Y-22693102D01*
X60550500Y-21306898D01*
X60539877Y-21218436D01*
X60484361Y-21077658D01*
X60392922Y-20957078D01*
X60392917Y-20957074D01*
X60388133Y-20952290D01*
X60388634Y-20951788D01*
X60384742Y-20949842D01*
X60373445Y-20928081D01*
X60359448Y-20907957D01*
X60359583Y-20901379D01*
X60356551Y-20895538D01*
X60360202Y-20871294D01*
X60360707Y-20846785D01*
X60365661Y-20835041D01*
X60430617Y-20705130D01*
X67949500Y-20705130D01*
X67949500Y-23294860D01*
X67949501Y-23294863D01*
X67952414Y-23319990D01*
X67956087Y-23328308D01*
X67997794Y-23422765D01*
X68077235Y-23502206D01*
X68180009Y-23547585D01*
X68205135Y-23550500D01*
X69794864Y-23550499D01*
X69819991Y-23547585D01*
X69922765Y-23502206D01*
X70002206Y-23422765D01*
X70047585Y-23319991D01*
X70050500Y-23294865D01*
X70050499Y-20705136D01*
X70047585Y-20680009D01*
X70002206Y-20577235D01*
X69922765Y-20497794D01*
X69819991Y-20452415D01*
X69819990Y-20452414D01*
X69819988Y-20452414D01*
X69794868Y-20449500D01*
X68205139Y-20449500D01*
X68205136Y-20449501D01*
X68180009Y-20452414D01*
X68077235Y-20497794D01*
X67997794Y-20577235D01*
X67952414Y-20680011D01*
X67949500Y-20705130D01*
X60430617Y-20705130D01*
X61604105Y-18358154D01*
X61610326Y-18347447D01*
X61620775Y-18331811D01*
X61636320Y-18294279D01*
X61639225Y-18287914D01*
X61657401Y-18251564D01*
X61662369Y-18233419D01*
X61666384Y-18221697D01*
X61673580Y-18204328D01*
X61681503Y-18164489D01*
X61683116Y-18157660D01*
X61693846Y-18118482D01*
X61693846Y-18118481D01*
X61693847Y-18118478D01*
X61695179Y-18099723D01*
X61696832Y-18087432D01*
X61700500Y-18068993D01*
X61700500Y-18028369D01*
X61700749Y-18021351D01*
X61703628Y-17980839D01*
X61701277Y-17962187D01*
X61700500Y-17949806D01*
X61700500Y-17931008D01*
X61700498Y-17930996D01*
X61692575Y-17891164D01*
X61691451Y-17884246D01*
X61686370Y-17843936D01*
X61686368Y-17843930D01*
X61680425Y-17826099D01*
X61677247Y-17814108D01*
X61673580Y-17795674D01*
X61673580Y-17795672D01*
X61658033Y-17758139D01*
X61655577Y-17751558D01*
X61642735Y-17713029D01*
X61633422Y-17696692D01*
X61627967Y-17685551D01*
X61620777Y-17668193D01*
X61620771Y-17668181D01*
X61598208Y-17634414D01*
X61594516Y-17628440D01*
X61574402Y-17593155D01*
X61574401Y-17593154D01*
X61574400Y-17593152D01*
X61562080Y-17578947D01*
X61554555Y-17569084D01*
X61544114Y-17553457D01*
X61515389Y-17524732D01*
X61510605Y-17519596D01*
X61483990Y-17488909D01*
X61469140Y-17477384D01*
X61459835Y-17469179D01*
X61446542Y-17455886D01*
X61446541Y-17455885D01*
X61412755Y-17433310D01*
X61407087Y-17429225D01*
X61374982Y-17404308D01*
X61374980Y-17404307D01*
X61374979Y-17404306D01*
X61358158Y-17395895D01*
X61347438Y-17389666D01*
X61341764Y-17385875D01*
X61331809Y-17379223D01*
X61294281Y-17363678D01*
X61287896Y-17360764D01*
X61251565Y-17342599D01*
X61233425Y-17337631D01*
X61221694Y-17333613D01*
X61220561Y-17333144D01*
X61204328Y-17326420D01*
X61164478Y-17318493D01*
X61157663Y-17316883D01*
X61130316Y-17309395D01*
X61118479Y-17306153D01*
X61099716Y-17304819D01*
X61087427Y-17303166D01*
X61068999Y-17299500D01*
X61068993Y-17299500D01*
X61028369Y-17299500D01*
X61021353Y-17299251D01*
X61018807Y-17299070D01*
X60980839Y-17296371D01*
X60962188Y-17298723D01*
X60949807Y-17299500D01*
X48931004Y-17299500D01*
X48795672Y-17326420D01*
X48795670Y-17326420D01*
X48668193Y-17379222D01*
X48668182Y-17379228D01*
X48553458Y-17455885D01*
X48455885Y-17553458D01*
X48379228Y-17668182D01*
X48379222Y-17668193D01*
X48326420Y-17795670D01*
X48326420Y-17795672D01*
X48299500Y-17931004D01*
X48299500Y-20850993D01*
X48280593Y-20909184D01*
X48258691Y-20931085D01*
X48152784Y-21008031D01*
X48152781Y-21008034D01*
X48008034Y-21152781D01*
X47931085Y-21258692D01*
X47881587Y-21294655D01*
X47850994Y-21299500D01*
X45149006Y-21299500D01*
X45090815Y-21280593D01*
X45068915Y-21258693D01*
X44991966Y-21152781D01*
X44847219Y-21008034D01*
X44847215Y-21008031D01*
X44847213Y-21008029D01*
X44681613Y-20887714D01*
X44681609Y-20887712D01*
X44499219Y-20794780D01*
X44304529Y-20731521D01*
X44102355Y-20699500D01*
X44102352Y-20699500D01*
X43897648Y-20699500D01*
X43897645Y-20699500D01*
X43695470Y-20731521D01*
X43500780Y-20794780D01*
X43318390Y-20887712D01*
X43318386Y-20887714D01*
X43152786Y-21008029D01*
X43008029Y-21152786D01*
X42887714Y-21318386D01*
X42887712Y-21318390D01*
X42794780Y-21500780D01*
X42731521Y-21695470D01*
X42699500Y-21897644D01*
X35300500Y-21897644D01*
X35300500Y-21455046D01*
X35300499Y-21455029D01*
X35285369Y-21320750D01*
X35285366Y-21320738D01*
X35261014Y-21251145D01*
X35225789Y-21150478D01*
X35180034Y-21077660D01*
X35129818Y-20997741D01*
X35129817Y-20997740D01*
X35129816Y-20997738D01*
X35002262Y-20870184D01*
X35002259Y-20870182D01*
X35002258Y-20870181D01*
X34849523Y-20774211D01*
X34679261Y-20714633D01*
X34679249Y-20714630D01*
X34544970Y-20699500D01*
X34544954Y-20699500D01*
X33455046Y-20699500D01*
X33455029Y-20699500D01*
X33320750Y-20714630D01*
X33320738Y-20714633D01*
X33150477Y-20774211D01*
X33150476Y-20774211D01*
X32997741Y-20870181D01*
X32870181Y-20997741D01*
X32774211Y-21150476D01*
X32774211Y-21150477D01*
X32714633Y-21320738D01*
X32714630Y-21320750D01*
X32699500Y-21455029D01*
X32699500Y-21500500D01*
X32680593Y-21558691D01*
X32631093Y-21594655D01*
X32600500Y-21599500D01*
X30399500Y-21599500D01*
X30341309Y-21580593D01*
X30305345Y-21531093D01*
X30300500Y-21500500D01*
X30300500Y-21455046D01*
X30300499Y-21455029D01*
X30285369Y-21320750D01*
X30285366Y-21320738D01*
X30261014Y-21251145D01*
X30225789Y-21150478D01*
X30180034Y-21077660D01*
X30129818Y-20997741D01*
X30129817Y-20997740D01*
X30129816Y-20997738D01*
X30002262Y-20870184D01*
X30002259Y-20870182D01*
X30002258Y-20870181D01*
X29849523Y-20774211D01*
X29679261Y-20714633D01*
X29679249Y-20714630D01*
X29544970Y-20699500D01*
X29544954Y-20699500D01*
X28455046Y-20699500D01*
X28455029Y-20699500D01*
X28320750Y-20714630D01*
X28320738Y-20714633D01*
X28150477Y-20774211D01*
X28150476Y-20774211D01*
X27997741Y-20870181D01*
X27870181Y-20997741D01*
X27774211Y-21150476D01*
X27774211Y-21150477D01*
X27714633Y-21320738D01*
X27714630Y-21320750D01*
X27699500Y-21455029D01*
X10500500Y-21455029D01*
X10500500Y-10599500D01*
X10519407Y-10541309D01*
X10568907Y-10505345D01*
X10599500Y-10500500D01*
X154400500Y-10500500D01*
X154458691Y-10519407D01*
G37*
%TD.AperFunction*%
%TD*%
M02*
