M48
; DRILL file KiCad 10.0.5 date 2026-08-07T12:10:13
; FORMAT={-:-/ absolute / metric / decimal}
; #@! TF.CreationDate,2026-08-07T12:10:13+02:00
; #@! TF.GenerationSoftware,Kicad,Pcbnew,10.0.5
; #@! TF.FileFunction,Plated,1,2,PTH
FMAT,2
METRIC
; #@! TA.AperFunction,Plated,PTH,ViaDrill
T1C0.300
; #@! TA.AperFunction,Plated,PTH,ViaDrill
T2C0.400
; #@! TA.AperFunction,Plated,PTH,ComponentDrill
T3C0.900
; #@! TA.AperFunction,Plated,PTH,ComponentDrill
T4C1.000
; #@! TA.AperFunction,Plated,PTH,ComponentDrill
T5C1.050
; #@! TA.AperFunction,Plated,PTH,ComponentDrill
T6C1.200
; #@! TA.AperFunction,Plated,PTH,ComponentDrill
T7C2.000
%
G90
G05
T1
X97.317Y-31.054
X109.239Y-30.124
X113.046Y-30.221
X117.818Y-40.95
X145.0Y-50.728
T2
X54.0Y-34.0
X55.0Y-25.0
X61.0Y-34.0
X126.0Y-30.775
X133.137Y-36.0
T3
X80.0Y-36.0
X80.0Y-38.54
X80.0Y-41.08
X80.0Y-43.62
X80.0Y-46.16
X80.0Y-48.7
X80.0Y-51.24
X80.0Y-53.78
X80.0Y-56.32
X80.0Y-58.86
X80.0Y-61.4
X80.0Y-63.94
X80.0Y-66.48
X80.0Y-69.02
X80.0Y-71.56
X102.86Y-36.0
X102.86Y-38.54
X102.86Y-41.08
X102.86Y-43.62
X102.86Y-46.16
X102.86Y-48.7
X102.86Y-51.24
X102.86Y-53.78
X102.86Y-56.32
X102.86Y-58.86
X102.86Y-61.4
X102.86Y-63.94
X102.86Y-66.48
X102.86Y-69.02
X102.86Y-71.56
T4
X69.0Y-22.0
X71.54Y-22.0
X74.08Y-22.0
T5
X29.0Y-22.0
X34.0Y-22.0
X44.0Y-22.0
X49.0Y-22.0
T6
X16.0Y-40.0
X19.5Y-40.0
X23.0Y-40.0
X26.5Y-40.0
T7
X24.0Y-79.0
X44.0Y-79.0
X64.0Y-79.0
X84.0Y-79.0
X108.0Y-79.0
X128.0Y-79.0
X140.0Y-79.0
M30
