%TF.GenerationSoftware,KiCad,Pcbnew,10.0.5*%
%TF.CreationDate,2026-08-07T12:10:13+02:00*%
%TF.ProjectId,IDM-FakeSensor-ESP-B-ES1,49444d2d-4661-46b6-9553-656e736f722d,rev?*%
%TF.SameCoordinates,Original*%
%TF.FileFunction,Legend,Top*%
%TF.FilePolarity,Positive*%
%FSLAX46Y46*%
G04 Gerber Fmt 4.6, Leading zero omitted, Abs format (unit mm)*
G04 Created by KiCad (PCBNEW 10.0.5) date 2026-08-07 12:10:13*
%MOMM*%
%LPD*%
G01*
G04 APERTURE LIST*
%ADD10C,0.150000*%
%ADD11C,0.120000*%
G04 APERTURE END LIST*
D10*
X13942856Y-30828961D02*
X13942856Y-31362295D01*
X13752380Y-30524200D02*
X13561903Y-31095628D01*
X13561903Y-31095628D02*
X14057142Y-31095628D01*
X14285713Y-30562295D02*
X14780951Y-30562295D01*
X14780951Y-30562295D02*
X14514285Y-30867057D01*
X14514285Y-30867057D02*
X14628570Y-30867057D01*
X14628570Y-30867057D02*
X14704761Y-30905152D01*
X14704761Y-30905152D02*
X14742856Y-30943247D01*
X14742856Y-30943247D02*
X14780951Y-31019438D01*
X14780951Y-31019438D02*
X14780951Y-31209914D01*
X14780951Y-31209914D02*
X14742856Y-31286104D01*
X14742856Y-31286104D02*
X14704761Y-31324200D01*
X14704761Y-31324200D02*
X14628570Y-31362295D01*
X14628570Y-31362295D02*
X14399999Y-31362295D01*
X14399999Y-31362295D02*
X14323808Y-31324200D01*
X14323808Y-31324200D02*
X14285713Y-31286104D01*
X15619047Y-30562295D02*
X16076190Y-30562295D01*
X15847618Y-31362295D02*
X15847618Y-30562295D01*
X16342857Y-30943247D02*
X16609523Y-30943247D01*
X16723809Y-31362295D02*
X16342857Y-31362295D01*
X16342857Y-31362295D02*
X16342857Y-30562295D01*
X16342857Y-30562295D02*
X16723809Y-30562295D01*
X17066667Y-31362295D02*
X17066667Y-30562295D01*
X17066667Y-30562295D02*
X17333333Y-31133723D01*
X17333333Y-31133723D02*
X17600000Y-30562295D01*
X17600000Y-30562295D02*
X17600000Y-31362295D01*
X17980953Y-31362295D02*
X17980953Y-30562295D01*
X17980953Y-30562295D02*
X18285715Y-30562295D01*
X18285715Y-30562295D02*
X18361905Y-30600390D01*
X18361905Y-30600390D02*
X18400000Y-30638485D01*
X18400000Y-30638485D02*
X18438096Y-30714676D01*
X18438096Y-30714676D02*
X18438096Y-30828961D01*
X18438096Y-30828961D02*
X18400000Y-30905152D01*
X18400000Y-30905152D02*
X18361905Y-30943247D01*
X18361905Y-30943247D02*
X18285715Y-30981342D01*
X18285715Y-30981342D02*
X17980953Y-30981342D01*
X13866666Y-33828961D02*
X13866666Y-34362295D01*
X13676190Y-33524200D02*
X13485713Y-34095628D01*
X13485713Y-34095628D02*
X13980952Y-34095628D01*
X14247618Y-33638485D02*
X14285714Y-33600390D01*
X14285714Y-33600390D02*
X14361904Y-33562295D01*
X14361904Y-33562295D02*
X14552380Y-33562295D01*
X14552380Y-33562295D02*
X14628571Y-33600390D01*
X14628571Y-33600390D02*
X14666666Y-33638485D01*
X14666666Y-33638485D02*
X14704761Y-33714676D01*
X14704761Y-33714676D02*
X14704761Y-33790866D01*
X14704761Y-33790866D02*
X14666666Y-33905152D01*
X14666666Y-33905152D02*
X14209523Y-34362295D01*
X14209523Y-34362295D02*
X14704761Y-34362295D01*
X15657143Y-34057533D02*
X16266667Y-34057533D01*
X15961905Y-34362295D02*
X15961905Y-33752771D01*
X16609523Y-33638485D02*
X16647619Y-33600390D01*
X16647619Y-33600390D02*
X16723809Y-33562295D01*
X16723809Y-33562295D02*
X16914285Y-33562295D01*
X16914285Y-33562295D02*
X16990476Y-33600390D01*
X16990476Y-33600390D02*
X17028571Y-33638485D01*
X17028571Y-33638485D02*
X17066666Y-33714676D01*
X17066666Y-33714676D02*
X17066666Y-33790866D01*
X17066666Y-33790866D02*
X17028571Y-33905152D01*
X17028571Y-33905152D02*
X16571428Y-34362295D01*
X16571428Y-34362295D02*
X17066666Y-34362295D01*
X17752381Y-33828961D02*
X17752381Y-34362295D01*
X17561905Y-33524200D02*
X17371428Y-34095628D01*
X17371428Y-34095628D02*
X17866667Y-34095628D01*
X18057143Y-33562295D02*
X18323810Y-34362295D01*
X18323810Y-34362295D02*
X18590476Y-33562295D01*
X14247619Y-45828961D02*
X14247619Y-46362295D01*
X14057143Y-45524200D02*
X13866666Y-46095628D01*
X13866666Y-46095628D02*
X14361905Y-46095628D01*
X15085714Y-46362295D02*
X14628571Y-46362295D01*
X14857143Y-46362295D02*
X14857143Y-45562295D01*
X14857143Y-45562295D02*
X14780952Y-45676580D01*
X14780952Y-45676580D02*
X14704762Y-45752771D01*
X14704762Y-45752771D02*
X14628571Y-45790866D01*
X16457143Y-45600390D02*
X16380953Y-45562295D01*
X16380953Y-45562295D02*
X16266667Y-45562295D01*
X16266667Y-45562295D02*
X16152381Y-45600390D01*
X16152381Y-45600390D02*
X16076191Y-45676580D01*
X16076191Y-45676580D02*
X16038096Y-45752771D01*
X16038096Y-45752771D02*
X16000000Y-45905152D01*
X16000000Y-45905152D02*
X16000000Y-46019438D01*
X16000000Y-46019438D02*
X16038096Y-46171819D01*
X16038096Y-46171819D02*
X16076191Y-46248009D01*
X16076191Y-46248009D02*
X16152381Y-46324200D01*
X16152381Y-46324200D02*
X16266667Y-46362295D01*
X16266667Y-46362295D02*
X16342858Y-46362295D01*
X16342858Y-46362295D02*
X16457143Y-46324200D01*
X16457143Y-46324200D02*
X16495239Y-46286104D01*
X16495239Y-46286104D02*
X16495239Y-46019438D01*
X16495239Y-46019438D02*
X16342858Y-46019438D01*
X16838096Y-46362295D02*
X16838096Y-45562295D01*
X16838096Y-45562295D02*
X17295239Y-46362295D01*
X17295239Y-46362295D02*
X17295239Y-45562295D01*
X17676191Y-46362295D02*
X17676191Y-45562295D01*
X17676191Y-45562295D02*
X17866667Y-45562295D01*
X17866667Y-45562295D02*
X17980953Y-45600390D01*
X17980953Y-45600390D02*
X18057143Y-45676580D01*
X18057143Y-45676580D02*
X18095238Y-45752771D01*
X18095238Y-45752771D02*
X18133334Y-45905152D01*
X18133334Y-45905152D02*
X18133334Y-46019438D01*
X18133334Y-46019438D02*
X18095238Y-46171819D01*
X18095238Y-46171819D02*
X18057143Y-46248009D01*
X18057143Y-46248009D02*
X17980953Y-46324200D01*
X17980953Y-46324200D02*
X17866667Y-46362295D01*
X17866667Y-46362295D02*
X17676191Y-46362295D01*
X14647619Y-48828961D02*
X14647619Y-49362295D01*
X14457143Y-48524200D02*
X14266666Y-49095628D01*
X14266666Y-49095628D02*
X14761905Y-49095628D01*
X15219048Y-48562295D02*
X15295238Y-48562295D01*
X15295238Y-48562295D02*
X15371429Y-48600390D01*
X15371429Y-48600390D02*
X15409524Y-48638485D01*
X15409524Y-48638485D02*
X15447619Y-48714676D01*
X15447619Y-48714676D02*
X15485714Y-48867057D01*
X15485714Y-48867057D02*
X15485714Y-49057533D01*
X15485714Y-49057533D02*
X15447619Y-49209914D01*
X15447619Y-49209914D02*
X15409524Y-49286104D01*
X15409524Y-49286104D02*
X15371429Y-49324200D01*
X15371429Y-49324200D02*
X15295238Y-49362295D01*
X15295238Y-49362295D02*
X15219048Y-49362295D01*
X15219048Y-49362295D02*
X15142857Y-49324200D01*
X15142857Y-49324200D02*
X15104762Y-49286104D01*
X15104762Y-49286104D02*
X15066667Y-49209914D01*
X15066667Y-49209914D02*
X15028571Y-49057533D01*
X15028571Y-49057533D02*
X15028571Y-48867057D01*
X15028571Y-48867057D02*
X15066667Y-48714676D01*
X15066667Y-48714676D02*
X15104762Y-48638485D01*
X15104762Y-48638485D02*
X15142857Y-48600390D01*
X15142857Y-48600390D02*
X15219048Y-48562295D01*
X16895239Y-49362295D02*
X16628572Y-48981342D01*
X16438096Y-49362295D02*
X16438096Y-48562295D01*
X16438096Y-48562295D02*
X16742858Y-48562295D01*
X16742858Y-48562295D02*
X16819048Y-48600390D01*
X16819048Y-48600390D02*
X16857143Y-48638485D01*
X16857143Y-48638485D02*
X16895239Y-48714676D01*
X16895239Y-48714676D02*
X16895239Y-48828961D01*
X16895239Y-48828961D02*
X16857143Y-48905152D01*
X16857143Y-48905152D02*
X16819048Y-48943247D01*
X16819048Y-48943247D02*
X16742858Y-48981342D01*
X16742858Y-48981342D02*
X16438096Y-48981342D01*
X17238096Y-49362295D02*
X17238096Y-48562295D01*
X17238096Y-48943247D02*
X17695239Y-48943247D01*
X17695239Y-49362295D02*
X17695239Y-48562295D01*
X17714285Y-67454819D02*
X18285713Y-67454819D01*
X17999999Y-68454819D02*
X17999999Y-67454819D01*
X18619047Y-67931009D02*
X18952380Y-67931009D01*
X19095237Y-68454819D02*
X18619047Y-68454819D01*
X18619047Y-68454819D02*
X18619047Y-67454819D01*
X18619047Y-67454819D02*
X19095237Y-67454819D01*
X19523809Y-68454819D02*
X19523809Y-67454819D01*
X19523809Y-67454819D02*
X19857142Y-68169104D01*
X19857142Y-68169104D02*
X20190475Y-67454819D01*
X20190475Y-67454819D02*
X20190475Y-68454819D01*
X20666666Y-68454819D02*
X20666666Y-67454819D01*
X20666666Y-67454819D02*
X21047618Y-67454819D01*
X21047618Y-67454819D02*
X21142856Y-67502438D01*
X21142856Y-67502438D02*
X21190475Y-67550057D01*
X21190475Y-67550057D02*
X21238094Y-67645295D01*
X21238094Y-67645295D02*
X21238094Y-67788152D01*
X21238094Y-67788152D02*
X21190475Y-67883390D01*
X21190475Y-67883390D02*
X21142856Y-67931009D01*
X21142856Y-67931009D02*
X21047618Y-67978628D01*
X21047618Y-67978628D02*
X20666666Y-67978628D01*
X22380951Y-67407200D02*
X21523809Y-68692914D01*
X22714285Y-68454819D02*
X22714285Y-67454819D01*
X23285713Y-68454819D02*
X22857142Y-67883390D01*
X23285713Y-67454819D02*
X22714285Y-68026247D01*
X23571428Y-67454819D02*
X24142856Y-67454819D01*
X23857142Y-68454819D02*
X23857142Y-67454819D01*
X24666666Y-67978628D02*
X24666666Y-68454819D01*
X24333333Y-67454819D02*
X24666666Y-67978628D01*
X24666666Y-67978628D02*
X24999999Y-67454819D01*
X26095238Y-68454819D02*
X26095238Y-67454819D01*
X26095238Y-67454819D02*
X26476190Y-67454819D01*
X26476190Y-67454819D02*
X26571428Y-67502438D01*
X26571428Y-67502438D02*
X26619047Y-67550057D01*
X26619047Y-67550057D02*
X26666666Y-67645295D01*
X26666666Y-67645295D02*
X26666666Y-67788152D01*
X26666666Y-67788152D02*
X26619047Y-67883390D01*
X26619047Y-67883390D02*
X26571428Y-67931009D01*
X26571428Y-67931009D02*
X26476190Y-67978628D01*
X26476190Y-67978628D02*
X26095238Y-67978628D01*
X27095238Y-68454819D02*
X27095238Y-67454819D01*
X27571428Y-68454819D02*
X27571428Y-67454819D01*
X27571428Y-67454819D02*
X28142856Y-68454819D01*
X28142856Y-68454819D02*
X28142856Y-67454819D01*
X29904761Y-68454819D02*
X29333333Y-68454819D01*
X29619047Y-68454819D02*
X29619047Y-67454819D01*
X29619047Y-67454819D02*
X29523809Y-67597676D01*
X29523809Y-67597676D02*
X29428571Y-67692914D01*
X29428571Y-67692914D02*
X29333333Y-67740533D01*
X30333333Y-68359580D02*
X30380952Y-68407200D01*
X30380952Y-68407200D02*
X30333333Y-68454819D01*
X30333333Y-68454819D02*
X30285714Y-68407200D01*
X30285714Y-68407200D02*
X30333333Y-68359580D01*
X30333333Y-68359580D02*
X30333333Y-68454819D01*
X30333333Y-67835771D02*
X30380952Y-67883390D01*
X30380952Y-67883390D02*
X30333333Y-67931009D01*
X30333333Y-67931009D02*
X30285714Y-67883390D01*
X30285714Y-67883390D02*
X30333333Y-67835771D01*
X30333333Y-67835771D02*
X30333333Y-67931009D01*
X31571428Y-68454819D02*
X31571428Y-67454819D01*
X31571428Y-67454819D02*
X31809523Y-67454819D01*
X31809523Y-67454819D02*
X31952380Y-67502438D01*
X31952380Y-67502438D02*
X32047618Y-67597676D01*
X32047618Y-67597676D02*
X32095237Y-67692914D01*
X32095237Y-67692914D02*
X32142856Y-67883390D01*
X32142856Y-67883390D02*
X32142856Y-68026247D01*
X32142856Y-68026247D02*
X32095237Y-68216723D01*
X32095237Y-68216723D02*
X32047618Y-68311961D01*
X32047618Y-68311961D02*
X31952380Y-68407200D01*
X31952380Y-68407200D02*
X31809523Y-68454819D01*
X31809523Y-68454819D02*
X31571428Y-68454819D01*
X32571428Y-68454819D02*
X32571428Y-67454819D01*
X32571428Y-67454819D02*
X33142856Y-68454819D01*
X33142856Y-68454819D02*
X33142856Y-67454819D01*
X33619047Y-68454819D02*
X33619047Y-67454819D01*
X33619047Y-67454819D02*
X33999999Y-67454819D01*
X33999999Y-67454819D02*
X34095237Y-67502438D01*
X34095237Y-67502438D02*
X34142856Y-67550057D01*
X34142856Y-67550057D02*
X34190475Y-67645295D01*
X34190475Y-67645295D02*
X34190475Y-67788152D01*
X34190475Y-67788152D02*
X34142856Y-67883390D01*
X34142856Y-67883390D02*
X34095237Y-67931009D01*
X34095237Y-67931009D02*
X33999999Y-67978628D01*
X33999999Y-67978628D02*
X33619047Y-67978628D01*
X35380952Y-68073866D02*
X36142857Y-68073866D01*
X37380952Y-68454819D02*
X37380952Y-67454819D01*
X37380952Y-67454819D02*
X37619047Y-67454819D01*
X37619047Y-67454819D02*
X37761904Y-67502438D01*
X37761904Y-67502438D02*
X37857142Y-67597676D01*
X37857142Y-67597676D02*
X37904761Y-67692914D01*
X37904761Y-67692914D02*
X37952380Y-67883390D01*
X37952380Y-67883390D02*
X37952380Y-68026247D01*
X37952380Y-68026247D02*
X37904761Y-68216723D01*
X37904761Y-68216723D02*
X37857142Y-68311961D01*
X37857142Y-68311961D02*
X37761904Y-68407200D01*
X37761904Y-68407200D02*
X37619047Y-68454819D01*
X37619047Y-68454819D02*
X37380952Y-68454819D01*
X38571428Y-67454819D02*
X38761904Y-67454819D01*
X38761904Y-67454819D02*
X38857142Y-67502438D01*
X38857142Y-67502438D02*
X38952380Y-67597676D01*
X38952380Y-67597676D02*
X38999999Y-67788152D01*
X38999999Y-67788152D02*
X38999999Y-68121485D01*
X38999999Y-68121485D02*
X38952380Y-68311961D01*
X38952380Y-68311961D02*
X38857142Y-68407200D01*
X38857142Y-68407200D02*
X38761904Y-68454819D01*
X38761904Y-68454819D02*
X38571428Y-68454819D01*
X38571428Y-68454819D02*
X38476190Y-68407200D01*
X38476190Y-68407200D02*
X38380952Y-68311961D01*
X38380952Y-68311961D02*
X38333333Y-68121485D01*
X38333333Y-68121485D02*
X38333333Y-67788152D01*
X38333333Y-67788152D02*
X38380952Y-67597676D01*
X38380952Y-67597676D02*
X38476190Y-67502438D01*
X38476190Y-67502438D02*
X38571428Y-67454819D01*
X40190476Y-68454819D02*
X40190476Y-67454819D01*
X40190476Y-67454819D02*
X40761904Y-68454819D01*
X40761904Y-68454819D02*
X40761904Y-67454819D01*
X41428571Y-67454819D02*
X41619047Y-67454819D01*
X41619047Y-67454819D02*
X41714285Y-67502438D01*
X41714285Y-67502438D02*
X41809523Y-67597676D01*
X41809523Y-67597676D02*
X41857142Y-67788152D01*
X41857142Y-67788152D02*
X41857142Y-68121485D01*
X41857142Y-68121485D02*
X41809523Y-68311961D01*
X41809523Y-68311961D02*
X41714285Y-68407200D01*
X41714285Y-68407200D02*
X41619047Y-68454819D01*
X41619047Y-68454819D02*
X41428571Y-68454819D01*
X41428571Y-68454819D02*
X41333333Y-68407200D01*
X41333333Y-68407200D02*
X41238095Y-68311961D01*
X41238095Y-68311961D02*
X41190476Y-68121485D01*
X41190476Y-68121485D02*
X41190476Y-67788152D01*
X41190476Y-67788152D02*
X41238095Y-67597676D01*
X41238095Y-67597676D02*
X41333333Y-67502438D01*
X41333333Y-67502438D02*
X41428571Y-67454819D01*
X42142857Y-67454819D02*
X42714285Y-67454819D01*
X42428571Y-68454819D02*
X42428571Y-67454819D01*
X44380952Y-68359580D02*
X44333333Y-68407200D01*
X44333333Y-68407200D02*
X44190476Y-68454819D01*
X44190476Y-68454819D02*
X44095238Y-68454819D01*
X44095238Y-68454819D02*
X43952381Y-68407200D01*
X43952381Y-68407200D02*
X43857143Y-68311961D01*
X43857143Y-68311961D02*
X43809524Y-68216723D01*
X43809524Y-68216723D02*
X43761905Y-68026247D01*
X43761905Y-68026247D02*
X43761905Y-67883390D01*
X43761905Y-67883390D02*
X43809524Y-67692914D01*
X43809524Y-67692914D02*
X43857143Y-67597676D01*
X43857143Y-67597676D02*
X43952381Y-67502438D01*
X43952381Y-67502438D02*
X44095238Y-67454819D01*
X44095238Y-67454819D02*
X44190476Y-67454819D01*
X44190476Y-67454819D02*
X44333333Y-67502438D01*
X44333333Y-67502438D02*
X44380952Y-67550057D01*
X45000000Y-67454819D02*
X45190476Y-67454819D01*
X45190476Y-67454819D02*
X45285714Y-67502438D01*
X45285714Y-67502438D02*
X45380952Y-67597676D01*
X45380952Y-67597676D02*
X45428571Y-67788152D01*
X45428571Y-67788152D02*
X45428571Y-68121485D01*
X45428571Y-68121485D02*
X45380952Y-68311961D01*
X45380952Y-68311961D02*
X45285714Y-68407200D01*
X45285714Y-68407200D02*
X45190476Y-68454819D01*
X45190476Y-68454819D02*
X45000000Y-68454819D01*
X45000000Y-68454819D02*
X44904762Y-68407200D01*
X44904762Y-68407200D02*
X44809524Y-68311961D01*
X44809524Y-68311961D02*
X44761905Y-68121485D01*
X44761905Y-68121485D02*
X44761905Y-67788152D01*
X44761905Y-67788152D02*
X44809524Y-67597676D01*
X44809524Y-67597676D02*
X44904762Y-67502438D01*
X44904762Y-67502438D02*
X45000000Y-67454819D01*
X45857143Y-68454819D02*
X45857143Y-67454819D01*
X45857143Y-67454819D02*
X46428571Y-68454819D01*
X46428571Y-68454819D02*
X46428571Y-67454819D01*
X46904762Y-68454819D02*
X46904762Y-67454819D01*
X46904762Y-67454819D02*
X47476190Y-68454819D01*
X47476190Y-68454819D02*
X47476190Y-67454819D01*
X47952381Y-67931009D02*
X48285714Y-67931009D01*
X48428571Y-68454819D02*
X47952381Y-68454819D01*
X47952381Y-68454819D02*
X47952381Y-67454819D01*
X47952381Y-67454819D02*
X48428571Y-67454819D01*
X49428571Y-68359580D02*
X49380952Y-68407200D01*
X49380952Y-68407200D02*
X49238095Y-68454819D01*
X49238095Y-68454819D02*
X49142857Y-68454819D01*
X49142857Y-68454819D02*
X49000000Y-68407200D01*
X49000000Y-68407200D02*
X48904762Y-68311961D01*
X48904762Y-68311961D02*
X48857143Y-68216723D01*
X48857143Y-68216723D02*
X48809524Y-68026247D01*
X48809524Y-68026247D02*
X48809524Y-67883390D01*
X48809524Y-67883390D02*
X48857143Y-67692914D01*
X48857143Y-67692914D02*
X48904762Y-67597676D01*
X48904762Y-67597676D02*
X49000000Y-67502438D01*
X49000000Y-67502438D02*
X49142857Y-67454819D01*
X49142857Y-67454819D02*
X49238095Y-67454819D01*
X49238095Y-67454819D02*
X49380952Y-67502438D01*
X49380952Y-67502438D02*
X49428571Y-67550057D01*
X49714286Y-67454819D02*
X50285714Y-67454819D01*
X50000000Y-68454819D02*
X50000000Y-67454819D01*
X25071428Y-71550057D02*
X25119047Y-71502438D01*
X25119047Y-71502438D02*
X25214285Y-71454819D01*
X25214285Y-71454819D02*
X25452380Y-71454819D01*
X25452380Y-71454819D02*
X25547618Y-71502438D01*
X25547618Y-71502438D02*
X25595237Y-71550057D01*
X25595237Y-71550057D02*
X25642856Y-71645295D01*
X25642856Y-71645295D02*
X25642856Y-71740533D01*
X25642856Y-71740533D02*
X25595237Y-71883390D01*
X25595237Y-71883390D02*
X25023809Y-72454819D01*
X25023809Y-72454819D02*
X25642856Y-72454819D01*
X26499999Y-71788152D02*
X26499999Y-72454819D01*
X26261904Y-71407200D02*
X26023809Y-72121485D01*
X26023809Y-72121485D02*
X26642856Y-72121485D01*
X27642857Y-71454819D02*
X27976190Y-72454819D01*
X27976190Y-72454819D02*
X28309523Y-71454819D01*
X29738095Y-71931009D02*
X29880952Y-71978628D01*
X29880952Y-71978628D02*
X29928571Y-72026247D01*
X29928571Y-72026247D02*
X29976190Y-72121485D01*
X29976190Y-72121485D02*
X29976190Y-72264342D01*
X29976190Y-72264342D02*
X29928571Y-72359580D01*
X29928571Y-72359580D02*
X29880952Y-72407200D01*
X29880952Y-72407200D02*
X29785714Y-72454819D01*
X29785714Y-72454819D02*
X29404762Y-72454819D01*
X29404762Y-72454819D02*
X29404762Y-71454819D01*
X29404762Y-71454819D02*
X29738095Y-71454819D01*
X29738095Y-71454819D02*
X29833333Y-71502438D01*
X29833333Y-71502438D02*
X29880952Y-71550057D01*
X29880952Y-71550057D02*
X29928571Y-71645295D01*
X29928571Y-71645295D02*
X29928571Y-71740533D01*
X29928571Y-71740533D02*
X29880952Y-71835771D01*
X29880952Y-71835771D02*
X29833333Y-71883390D01*
X29833333Y-71883390D02*
X29738095Y-71931009D01*
X29738095Y-71931009D02*
X29404762Y-71931009D01*
X30404762Y-71931009D02*
X30738095Y-71931009D01*
X30880952Y-72454819D02*
X30404762Y-72454819D01*
X30404762Y-72454819D02*
X30404762Y-71454819D01*
X30404762Y-71454819D02*
X30880952Y-71454819D01*
X31309524Y-72454819D02*
X31309524Y-71454819D01*
X31309524Y-71454819D02*
X31880952Y-72454819D01*
X31880952Y-72454819D02*
X31880952Y-71454819D01*
X32928571Y-72359580D02*
X32880952Y-72407200D01*
X32880952Y-72407200D02*
X32738095Y-72454819D01*
X32738095Y-72454819D02*
X32642857Y-72454819D01*
X32642857Y-72454819D02*
X32500000Y-72407200D01*
X32500000Y-72407200D02*
X32404762Y-72311961D01*
X32404762Y-72311961D02*
X32357143Y-72216723D01*
X32357143Y-72216723D02*
X32309524Y-72026247D01*
X32309524Y-72026247D02*
X32309524Y-71883390D01*
X32309524Y-71883390D02*
X32357143Y-71692914D01*
X32357143Y-71692914D02*
X32404762Y-71597676D01*
X32404762Y-71597676D02*
X32500000Y-71502438D01*
X32500000Y-71502438D02*
X32642857Y-71454819D01*
X32642857Y-71454819D02*
X32738095Y-71454819D01*
X32738095Y-71454819D02*
X32880952Y-71502438D01*
X32880952Y-71502438D02*
X32928571Y-71550057D01*
X33357143Y-72454819D02*
X33357143Y-71454819D01*
X33357143Y-71931009D02*
X33928571Y-71931009D01*
X33928571Y-72454819D02*
X33928571Y-71454819D01*
X35119048Y-72407200D02*
X35261905Y-72454819D01*
X35261905Y-72454819D02*
X35500000Y-72454819D01*
X35500000Y-72454819D02*
X35595238Y-72407200D01*
X35595238Y-72407200D02*
X35642857Y-72359580D01*
X35642857Y-72359580D02*
X35690476Y-72264342D01*
X35690476Y-72264342D02*
X35690476Y-72169104D01*
X35690476Y-72169104D02*
X35642857Y-72073866D01*
X35642857Y-72073866D02*
X35595238Y-72026247D01*
X35595238Y-72026247D02*
X35500000Y-71978628D01*
X35500000Y-71978628D02*
X35309524Y-71931009D01*
X35309524Y-71931009D02*
X35214286Y-71883390D01*
X35214286Y-71883390D02*
X35166667Y-71835771D01*
X35166667Y-71835771D02*
X35119048Y-71740533D01*
X35119048Y-71740533D02*
X35119048Y-71645295D01*
X35119048Y-71645295D02*
X35166667Y-71550057D01*
X35166667Y-71550057D02*
X35214286Y-71502438D01*
X35214286Y-71502438D02*
X35309524Y-71454819D01*
X35309524Y-71454819D02*
X35547619Y-71454819D01*
X35547619Y-71454819D02*
X35690476Y-71502438D01*
X36119048Y-71454819D02*
X36119048Y-72264342D01*
X36119048Y-72264342D02*
X36166667Y-72359580D01*
X36166667Y-72359580D02*
X36214286Y-72407200D01*
X36214286Y-72407200D02*
X36309524Y-72454819D01*
X36309524Y-72454819D02*
X36500000Y-72454819D01*
X36500000Y-72454819D02*
X36595238Y-72407200D01*
X36595238Y-72407200D02*
X36642857Y-72359580D01*
X36642857Y-72359580D02*
X36690476Y-72264342D01*
X36690476Y-72264342D02*
X36690476Y-71454819D01*
X37166667Y-72454819D02*
X37166667Y-71454819D01*
X37166667Y-71454819D02*
X37547619Y-71454819D01*
X37547619Y-71454819D02*
X37642857Y-71502438D01*
X37642857Y-71502438D02*
X37690476Y-71550057D01*
X37690476Y-71550057D02*
X37738095Y-71645295D01*
X37738095Y-71645295D02*
X37738095Y-71788152D01*
X37738095Y-71788152D02*
X37690476Y-71883390D01*
X37690476Y-71883390D02*
X37642857Y-71931009D01*
X37642857Y-71931009D02*
X37547619Y-71978628D01*
X37547619Y-71978628D02*
X37166667Y-71978628D01*
X38166667Y-72454819D02*
X38166667Y-71454819D01*
X38166667Y-71454819D02*
X38547619Y-71454819D01*
X38547619Y-71454819D02*
X38642857Y-71502438D01*
X38642857Y-71502438D02*
X38690476Y-71550057D01*
X38690476Y-71550057D02*
X38738095Y-71645295D01*
X38738095Y-71645295D02*
X38738095Y-71788152D01*
X38738095Y-71788152D02*
X38690476Y-71883390D01*
X38690476Y-71883390D02*
X38642857Y-71931009D01*
X38642857Y-71931009D02*
X38547619Y-71978628D01*
X38547619Y-71978628D02*
X38166667Y-71978628D01*
X39642857Y-72454819D02*
X39166667Y-72454819D01*
X39166667Y-72454819D02*
X39166667Y-71454819D01*
X40166667Y-71978628D02*
X40166667Y-72454819D01*
X39833334Y-71454819D02*
X40166667Y-71978628D01*
X40166667Y-71978628D02*
X40500000Y-71454819D01*
X41785715Y-71454819D02*
X41976191Y-71454819D01*
X41976191Y-71454819D02*
X42071429Y-71502438D01*
X42071429Y-71502438D02*
X42166667Y-71597676D01*
X42166667Y-71597676D02*
X42214286Y-71788152D01*
X42214286Y-71788152D02*
X42214286Y-72121485D01*
X42214286Y-72121485D02*
X42166667Y-72311961D01*
X42166667Y-72311961D02*
X42071429Y-72407200D01*
X42071429Y-72407200D02*
X41976191Y-72454819D01*
X41976191Y-72454819D02*
X41785715Y-72454819D01*
X41785715Y-72454819D02*
X41690477Y-72407200D01*
X41690477Y-72407200D02*
X41595239Y-72311961D01*
X41595239Y-72311961D02*
X41547620Y-72121485D01*
X41547620Y-72121485D02*
X41547620Y-71788152D01*
X41547620Y-71788152D02*
X41595239Y-71597676D01*
X41595239Y-71597676D02*
X41690477Y-71502438D01*
X41690477Y-71502438D02*
X41785715Y-71454819D01*
X42642858Y-72454819D02*
X42642858Y-71454819D01*
X42642858Y-71454819D02*
X43214286Y-72454819D01*
X43214286Y-72454819D02*
X43214286Y-71454819D01*
X44166667Y-72454819D02*
X43690477Y-72454819D01*
X43690477Y-72454819D02*
X43690477Y-71454819D01*
X44690477Y-71978628D02*
X44690477Y-72454819D01*
X44357144Y-71454819D02*
X44690477Y-71978628D01*
X44690477Y-71978628D02*
X45023810Y-71454819D01*
X59771427Y-13547342D02*
X59771427Y-12347342D01*
X60342856Y-13547342D02*
X60342856Y-12347342D01*
X60342856Y-12347342D02*
X60628570Y-12347342D01*
X60628570Y-12347342D02*
X60799999Y-12404485D01*
X60799999Y-12404485D02*
X60914284Y-12518771D01*
X60914284Y-12518771D02*
X60971427Y-12633057D01*
X60971427Y-12633057D02*
X61028570Y-12861628D01*
X61028570Y-12861628D02*
X61028570Y-13033057D01*
X61028570Y-13033057D02*
X60971427Y-13261628D01*
X60971427Y-13261628D02*
X60914284Y-13375914D01*
X60914284Y-13375914D02*
X60799999Y-13490200D01*
X60799999Y-13490200D02*
X60628570Y-13547342D01*
X60628570Y-13547342D02*
X60342856Y-13547342D01*
X61542856Y-13547342D02*
X61542856Y-12347342D01*
X61542856Y-12347342D02*
X61942856Y-13204485D01*
X61942856Y-13204485D02*
X62342856Y-12347342D01*
X62342856Y-12347342D02*
X62342856Y-13547342D01*
X64228571Y-12918771D02*
X63828571Y-12918771D01*
X63828571Y-13547342D02*
X63828571Y-12347342D01*
X63828571Y-12347342D02*
X64399999Y-12347342D01*
X64799999Y-13204485D02*
X65371428Y-13204485D01*
X64685713Y-13547342D02*
X65085713Y-12347342D01*
X65085713Y-12347342D02*
X65485713Y-13547342D01*
X65885713Y-13547342D02*
X65885713Y-12347342D01*
X66571427Y-13547342D02*
X66057141Y-12861628D01*
X66571427Y-12347342D02*
X65885713Y-13033057D01*
X67085713Y-12918771D02*
X67485713Y-12918771D01*
X67657141Y-13547342D02*
X67085713Y-13547342D01*
X67085713Y-13547342D02*
X67085713Y-12347342D01*
X67085713Y-12347342D02*
X67657141Y-12347342D01*
X69028570Y-13490200D02*
X69199999Y-13547342D01*
X69199999Y-13547342D02*
X69485713Y-13547342D01*
X69485713Y-13547342D02*
X69599999Y-13490200D01*
X69599999Y-13490200D02*
X69657141Y-13433057D01*
X69657141Y-13433057D02*
X69714284Y-13318771D01*
X69714284Y-13318771D02*
X69714284Y-13204485D01*
X69714284Y-13204485D02*
X69657141Y-13090200D01*
X69657141Y-13090200D02*
X69599999Y-13033057D01*
X69599999Y-13033057D02*
X69485713Y-12975914D01*
X69485713Y-12975914D02*
X69257141Y-12918771D01*
X69257141Y-12918771D02*
X69142856Y-12861628D01*
X69142856Y-12861628D02*
X69085713Y-12804485D01*
X69085713Y-12804485D02*
X69028570Y-12690200D01*
X69028570Y-12690200D02*
X69028570Y-12575914D01*
X69028570Y-12575914D02*
X69085713Y-12461628D01*
X69085713Y-12461628D02*
X69142856Y-12404485D01*
X69142856Y-12404485D02*
X69257141Y-12347342D01*
X69257141Y-12347342D02*
X69542856Y-12347342D01*
X69542856Y-12347342D02*
X69714284Y-12404485D01*
X70228570Y-12918771D02*
X70628570Y-12918771D01*
X70799998Y-13547342D02*
X70228570Y-13547342D01*
X70228570Y-13547342D02*
X70228570Y-12347342D01*
X70228570Y-12347342D02*
X70799998Y-12347342D01*
X71314284Y-13547342D02*
X71314284Y-12347342D01*
X71314284Y-12347342D02*
X71999998Y-13547342D01*
X71999998Y-13547342D02*
X71999998Y-12347342D01*
X72514284Y-13490200D02*
X72685713Y-13547342D01*
X72685713Y-13547342D02*
X72971427Y-13547342D01*
X72971427Y-13547342D02*
X73085713Y-13490200D01*
X73085713Y-13490200D02*
X73142855Y-13433057D01*
X73142855Y-13433057D02*
X73199998Y-13318771D01*
X73199998Y-13318771D02*
X73199998Y-13204485D01*
X73199998Y-13204485D02*
X73142855Y-13090200D01*
X73142855Y-13090200D02*
X73085713Y-13033057D01*
X73085713Y-13033057D02*
X72971427Y-12975914D01*
X72971427Y-12975914D02*
X72742855Y-12918771D01*
X72742855Y-12918771D02*
X72628570Y-12861628D01*
X72628570Y-12861628D02*
X72571427Y-12804485D01*
X72571427Y-12804485D02*
X72514284Y-12690200D01*
X72514284Y-12690200D02*
X72514284Y-12575914D01*
X72514284Y-12575914D02*
X72571427Y-12461628D01*
X72571427Y-12461628D02*
X72628570Y-12404485D01*
X72628570Y-12404485D02*
X72742855Y-12347342D01*
X72742855Y-12347342D02*
X73028570Y-12347342D01*
X73028570Y-12347342D02*
X73199998Y-12404485D01*
X73942855Y-12347342D02*
X74171427Y-12347342D01*
X74171427Y-12347342D02*
X74285712Y-12404485D01*
X74285712Y-12404485D02*
X74399998Y-12518771D01*
X74399998Y-12518771D02*
X74457141Y-12747342D01*
X74457141Y-12747342D02*
X74457141Y-13147342D01*
X74457141Y-13147342D02*
X74399998Y-13375914D01*
X74399998Y-13375914D02*
X74285712Y-13490200D01*
X74285712Y-13490200D02*
X74171427Y-13547342D01*
X74171427Y-13547342D02*
X73942855Y-13547342D01*
X73942855Y-13547342D02*
X73828570Y-13490200D01*
X73828570Y-13490200D02*
X73714284Y-13375914D01*
X73714284Y-13375914D02*
X73657141Y-13147342D01*
X73657141Y-13147342D02*
X73657141Y-12747342D01*
X73657141Y-12747342D02*
X73714284Y-12518771D01*
X73714284Y-12518771D02*
X73828570Y-12404485D01*
X73828570Y-12404485D02*
X73942855Y-12347342D01*
X75657141Y-13547342D02*
X75257141Y-12975914D01*
X74971427Y-13547342D02*
X74971427Y-12347342D01*
X74971427Y-12347342D02*
X75428570Y-12347342D01*
X75428570Y-12347342D02*
X75542855Y-12404485D01*
X75542855Y-12404485D02*
X75599998Y-12461628D01*
X75599998Y-12461628D02*
X75657141Y-12575914D01*
X75657141Y-12575914D02*
X75657141Y-12747342D01*
X75657141Y-12747342D02*
X75599998Y-12861628D01*
X75599998Y-12861628D02*
X75542855Y-12918771D01*
X75542855Y-12918771D02*
X75428570Y-12975914D01*
X75428570Y-12975914D02*
X74971427Y-12975914D01*
X77485713Y-12918771D02*
X77657141Y-12975914D01*
X77657141Y-12975914D02*
X77714284Y-13033057D01*
X77714284Y-13033057D02*
X77771427Y-13147342D01*
X77771427Y-13147342D02*
X77771427Y-13318771D01*
X77771427Y-13318771D02*
X77714284Y-13433057D01*
X77714284Y-13433057D02*
X77657141Y-13490200D01*
X77657141Y-13490200D02*
X77542856Y-13547342D01*
X77542856Y-13547342D02*
X77085713Y-13547342D01*
X77085713Y-13547342D02*
X77085713Y-12347342D01*
X77085713Y-12347342D02*
X77485713Y-12347342D01*
X77485713Y-12347342D02*
X77599999Y-12404485D01*
X77599999Y-12404485D02*
X77657141Y-12461628D01*
X77657141Y-12461628D02*
X77714284Y-12575914D01*
X77714284Y-12575914D02*
X77714284Y-12690200D01*
X77714284Y-12690200D02*
X77657141Y-12804485D01*
X77657141Y-12804485D02*
X77599999Y-12861628D01*
X77599999Y-12861628D02*
X77485713Y-12918771D01*
X77485713Y-12918771D02*
X77085713Y-12918771D01*
X78285713Y-13090200D02*
X79199999Y-13090200D01*
X79771427Y-12918771D02*
X80171427Y-12918771D01*
X80342855Y-13547342D02*
X79771427Y-13547342D01*
X79771427Y-13547342D02*
X79771427Y-12347342D01*
X79771427Y-12347342D02*
X80342855Y-12347342D01*
X80799998Y-13490200D02*
X80971427Y-13547342D01*
X80971427Y-13547342D02*
X81257141Y-13547342D01*
X81257141Y-13547342D02*
X81371427Y-13490200D01*
X81371427Y-13490200D02*
X81428569Y-13433057D01*
X81428569Y-13433057D02*
X81485712Y-13318771D01*
X81485712Y-13318771D02*
X81485712Y-13204485D01*
X81485712Y-13204485D02*
X81428569Y-13090200D01*
X81428569Y-13090200D02*
X81371427Y-13033057D01*
X81371427Y-13033057D02*
X81257141Y-12975914D01*
X81257141Y-12975914D02*
X81028569Y-12918771D01*
X81028569Y-12918771D02*
X80914284Y-12861628D01*
X80914284Y-12861628D02*
X80857141Y-12804485D01*
X80857141Y-12804485D02*
X80799998Y-12690200D01*
X80799998Y-12690200D02*
X80799998Y-12575914D01*
X80799998Y-12575914D02*
X80857141Y-12461628D01*
X80857141Y-12461628D02*
X80914284Y-12404485D01*
X80914284Y-12404485D02*
X81028569Y-12347342D01*
X81028569Y-12347342D02*
X81314284Y-12347342D01*
X81314284Y-12347342D02*
X81485712Y-12404485D01*
X82628569Y-13547342D02*
X81942855Y-13547342D01*
X82285712Y-13547342D02*
X82285712Y-12347342D01*
X82285712Y-12347342D02*
X82171426Y-12518771D01*
X82171426Y-12518771D02*
X82057141Y-12633057D01*
X82057141Y-12633057D02*
X81942855Y-12690200D01*
X84914284Y-12290200D02*
X83885712Y-13833057D01*
X86228570Y-13547342D02*
X86228570Y-12347342D01*
X86228570Y-12918771D02*
X86914284Y-12918771D01*
X86914284Y-13547342D02*
X86914284Y-12347342D01*
X87485713Y-12347342D02*
X87485713Y-13318771D01*
X87485713Y-13318771D02*
X87542856Y-13433057D01*
X87542856Y-13433057D02*
X87599999Y-13490200D01*
X87599999Y-13490200D02*
X87714284Y-13547342D01*
X87714284Y-13547342D02*
X87942856Y-13547342D01*
X87942856Y-13547342D02*
X88057141Y-13490200D01*
X88057141Y-13490200D02*
X88114284Y-13433057D01*
X88114284Y-13433057D02*
X88171427Y-13318771D01*
X88171427Y-13318771D02*
X88171427Y-12347342D01*
X88742856Y-13547342D02*
X88742856Y-12347342D01*
X88742856Y-12347342D02*
X89142856Y-13204485D01*
X89142856Y-13204485D02*
X89542856Y-12347342D01*
X89542856Y-12347342D02*
X89542856Y-13547342D01*
X90114285Y-13547342D02*
X90114285Y-12347342D01*
X90685714Y-13547342D02*
X90685714Y-12347342D01*
X90685714Y-12347342D02*
X90971428Y-12347342D01*
X90971428Y-12347342D02*
X91142857Y-12404485D01*
X91142857Y-12404485D02*
X91257142Y-12518771D01*
X91257142Y-12518771D02*
X91314285Y-12633057D01*
X91314285Y-12633057D02*
X91371428Y-12861628D01*
X91371428Y-12861628D02*
X91371428Y-13033057D01*
X91371428Y-13033057D02*
X91314285Y-13261628D01*
X91314285Y-13261628D02*
X91257142Y-13375914D01*
X91257142Y-13375914D02*
X91142857Y-13490200D01*
X91142857Y-13490200D02*
X90971428Y-13547342D01*
X90971428Y-13547342D02*
X90685714Y-13547342D01*
X91885714Y-13547342D02*
X91885714Y-12347342D01*
X92285714Y-12347342D02*
X92971429Y-12347342D01*
X92628571Y-13547342D02*
X92628571Y-12347342D01*
X93600000Y-12975914D02*
X93600000Y-13547342D01*
X93200000Y-12347342D02*
X93600000Y-12975914D01*
X93600000Y-12975914D02*
X94000000Y-12347342D01*
X95142857Y-12347342D02*
X95828572Y-12347342D01*
X95485714Y-13547342D02*
X95485714Y-12347342D01*
X96228572Y-12918771D02*
X96628572Y-12918771D01*
X96800000Y-13547342D02*
X96228572Y-13547342D01*
X96228572Y-13547342D02*
X96228572Y-12347342D01*
X96228572Y-12347342D02*
X96800000Y-12347342D01*
X97257143Y-13490200D02*
X97428572Y-13547342D01*
X97428572Y-13547342D02*
X97714286Y-13547342D01*
X97714286Y-13547342D02*
X97828572Y-13490200D01*
X97828572Y-13490200D02*
X97885714Y-13433057D01*
X97885714Y-13433057D02*
X97942857Y-13318771D01*
X97942857Y-13318771D02*
X97942857Y-13204485D01*
X97942857Y-13204485D02*
X97885714Y-13090200D01*
X97885714Y-13090200D02*
X97828572Y-13033057D01*
X97828572Y-13033057D02*
X97714286Y-12975914D01*
X97714286Y-12975914D02*
X97485714Y-12918771D01*
X97485714Y-12918771D02*
X97371429Y-12861628D01*
X97371429Y-12861628D02*
X97314286Y-12804485D01*
X97314286Y-12804485D02*
X97257143Y-12690200D01*
X97257143Y-12690200D02*
X97257143Y-12575914D01*
X97257143Y-12575914D02*
X97314286Y-12461628D01*
X97314286Y-12461628D02*
X97371429Y-12404485D01*
X97371429Y-12404485D02*
X97485714Y-12347342D01*
X97485714Y-12347342D02*
X97771429Y-12347342D01*
X97771429Y-12347342D02*
X97942857Y-12404485D01*
X98285714Y-12347342D02*
X98971429Y-12347342D01*
X98628571Y-13547342D02*
X98628571Y-12347342D01*
X100514286Y-12347342D02*
X100742858Y-12347342D01*
X100742858Y-12347342D02*
X100857143Y-12404485D01*
X100857143Y-12404485D02*
X100971429Y-12518771D01*
X100971429Y-12518771D02*
X101028572Y-12747342D01*
X101028572Y-12747342D02*
X101028572Y-13147342D01*
X101028572Y-13147342D02*
X100971429Y-13375914D01*
X100971429Y-13375914D02*
X100857143Y-13490200D01*
X100857143Y-13490200D02*
X100742858Y-13547342D01*
X100742858Y-13547342D02*
X100514286Y-13547342D01*
X100514286Y-13547342D02*
X100400001Y-13490200D01*
X100400001Y-13490200D02*
X100285715Y-13375914D01*
X100285715Y-13375914D02*
X100228572Y-13147342D01*
X100228572Y-13147342D02*
X100228572Y-12747342D01*
X100228572Y-12747342D02*
X100285715Y-12518771D01*
X100285715Y-12518771D02*
X100400001Y-12404485D01*
X100400001Y-12404485D02*
X100514286Y-12347342D01*
X101542858Y-13547342D02*
X101542858Y-12347342D01*
X101542858Y-12347342D02*
X102228572Y-13547342D01*
X102228572Y-13547342D02*
X102228572Y-12347342D01*
X103371429Y-13547342D02*
X102800001Y-13547342D01*
X102800001Y-13547342D02*
X102800001Y-12347342D01*
X104000001Y-12975914D02*
X104000001Y-13547342D01*
X103600001Y-12347342D02*
X104000001Y-12975914D01*
X104000001Y-12975914D02*
X104400001Y-12347342D01*
X126929580Y-30166666D02*
X126977200Y-30214285D01*
X126977200Y-30214285D02*
X127024819Y-30357142D01*
X127024819Y-30357142D02*
X127024819Y-30452380D01*
X127024819Y-30452380D02*
X126977200Y-30595237D01*
X126977200Y-30595237D02*
X126881961Y-30690475D01*
X126881961Y-30690475D02*
X126786723Y-30738094D01*
X126786723Y-30738094D02*
X126596247Y-30785713D01*
X126596247Y-30785713D02*
X126453390Y-30785713D01*
X126453390Y-30785713D02*
X126262914Y-30738094D01*
X126262914Y-30738094D02*
X126167676Y-30690475D01*
X126167676Y-30690475D02*
X126072438Y-30595237D01*
X126072438Y-30595237D02*
X126024819Y-30452380D01*
X126024819Y-30452380D02*
X126024819Y-30357142D01*
X126024819Y-30357142D02*
X126072438Y-30214285D01*
X126072438Y-30214285D02*
X126120057Y-30166666D01*
X126024819Y-29261904D02*
X126024819Y-29738094D01*
X126024819Y-29738094D02*
X126501009Y-29785713D01*
X126501009Y-29785713D02*
X126453390Y-29738094D01*
X126453390Y-29738094D02*
X126405771Y-29642856D01*
X126405771Y-29642856D02*
X126405771Y-29404761D01*
X126405771Y-29404761D02*
X126453390Y-29309523D01*
X126453390Y-29309523D02*
X126501009Y-29261904D01*
X126501009Y-29261904D02*
X126596247Y-29214285D01*
X126596247Y-29214285D02*
X126834342Y-29214285D01*
X126834342Y-29214285D02*
X126929580Y-29261904D01*
X126929580Y-29261904D02*
X126977200Y-29309523D01*
X126977200Y-29309523D02*
X127024819Y-29404761D01*
X127024819Y-29404761D02*
X127024819Y-29642856D01*
X127024819Y-29642856D02*
X126977200Y-29738094D01*
X126977200Y-29738094D02*
X126929580Y-29785713D01*
X106738095Y-75956819D02*
X107309523Y-75956819D01*
X107023809Y-76956819D02*
X107023809Y-75956819D01*
X107642857Y-76956819D02*
X107642857Y-75956819D01*
X107642857Y-75956819D02*
X108023809Y-75956819D01*
X108023809Y-75956819D02*
X108119047Y-76004438D01*
X108119047Y-76004438D02*
X108166666Y-76052057D01*
X108166666Y-76052057D02*
X108214285Y-76147295D01*
X108214285Y-76147295D02*
X108214285Y-76290152D01*
X108214285Y-76290152D02*
X108166666Y-76385390D01*
X108166666Y-76385390D02*
X108119047Y-76433009D01*
X108119047Y-76433009D02*
X108023809Y-76480628D01*
X108023809Y-76480628D02*
X107642857Y-76480628D01*
X109119047Y-75956819D02*
X108642857Y-75956819D01*
X108642857Y-75956819D02*
X108595238Y-76433009D01*
X108595238Y-76433009D02*
X108642857Y-76385390D01*
X108642857Y-76385390D02*
X108738095Y-76337771D01*
X108738095Y-76337771D02*
X108976190Y-76337771D01*
X108976190Y-76337771D02*
X109071428Y-76385390D01*
X109071428Y-76385390D02*
X109119047Y-76433009D01*
X109119047Y-76433009D02*
X109166666Y-76528247D01*
X109166666Y-76528247D02*
X109166666Y-76766342D01*
X109166666Y-76766342D02*
X109119047Y-76861580D01*
X109119047Y-76861580D02*
X109071428Y-76909200D01*
X109071428Y-76909200D02*
X108976190Y-76956819D01*
X108976190Y-76956819D02*
X108738095Y-76956819D01*
X108738095Y-76956819D02*
X108642857Y-76909200D01*
X108642857Y-76909200D02*
X108595238Y-76861580D01*
X82738095Y-75956819D02*
X83309523Y-75956819D01*
X83023809Y-76956819D02*
X83023809Y-75956819D01*
X83642857Y-76956819D02*
X83642857Y-75956819D01*
X83642857Y-75956819D02*
X84023809Y-75956819D01*
X84023809Y-75956819D02*
X84119047Y-76004438D01*
X84119047Y-76004438D02*
X84166666Y-76052057D01*
X84166666Y-76052057D02*
X84214285Y-76147295D01*
X84214285Y-76147295D02*
X84214285Y-76290152D01*
X84214285Y-76290152D02*
X84166666Y-76385390D01*
X84166666Y-76385390D02*
X84119047Y-76433009D01*
X84119047Y-76433009D02*
X84023809Y-76480628D01*
X84023809Y-76480628D02*
X83642857Y-76480628D01*
X85071428Y-76290152D02*
X85071428Y-76956819D01*
X84833333Y-75909200D02*
X84595238Y-76623485D01*
X84595238Y-76623485D02*
X85214285Y-76623485D01*
X114238095Y-37054819D02*
X114238095Y-37864342D01*
X114238095Y-37864342D02*
X114285714Y-37959580D01*
X114285714Y-37959580D02*
X114333333Y-38007200D01*
X114333333Y-38007200D02*
X114428571Y-38054819D01*
X114428571Y-38054819D02*
X114619047Y-38054819D01*
X114619047Y-38054819D02*
X114714285Y-38007200D01*
X114714285Y-38007200D02*
X114761904Y-37959580D01*
X114761904Y-37959580D02*
X114809523Y-37864342D01*
X114809523Y-37864342D02*
X114809523Y-37054819D01*
X115238095Y-37150057D02*
X115285714Y-37102438D01*
X115285714Y-37102438D02*
X115380952Y-37054819D01*
X115380952Y-37054819D02*
X115619047Y-37054819D01*
X115619047Y-37054819D02*
X115714285Y-37102438D01*
X115714285Y-37102438D02*
X115761904Y-37150057D01*
X115761904Y-37150057D02*
X115809523Y-37245295D01*
X115809523Y-37245295D02*
X115809523Y-37340533D01*
X115809523Y-37340533D02*
X115761904Y-37483390D01*
X115761904Y-37483390D02*
X115190476Y-38054819D01*
X115190476Y-38054819D02*
X115809523Y-38054819D01*
X66738095Y-14744819D02*
X66738095Y-15554342D01*
X66738095Y-15554342D02*
X66785714Y-15649580D01*
X66785714Y-15649580D02*
X66833333Y-15697200D01*
X66833333Y-15697200D02*
X66928571Y-15744819D01*
X66928571Y-15744819D02*
X67119047Y-15744819D01*
X67119047Y-15744819D02*
X67214285Y-15697200D01*
X67214285Y-15697200D02*
X67261904Y-15649580D01*
X67261904Y-15649580D02*
X67309523Y-15554342D01*
X67309523Y-15554342D02*
X67309523Y-14744819D01*
X68309523Y-15744819D02*
X67738095Y-15744819D01*
X68023809Y-15744819D02*
X68023809Y-14744819D01*
X68023809Y-14744819D02*
X67928571Y-14887676D01*
X67928571Y-14887676D02*
X67833333Y-14982914D01*
X67833333Y-14982914D02*
X67738095Y-15030533D01*
X42738095Y-75956819D02*
X43309523Y-75956819D01*
X43023809Y-76956819D02*
X43023809Y-75956819D01*
X43642857Y-76956819D02*
X43642857Y-75956819D01*
X43642857Y-75956819D02*
X44023809Y-75956819D01*
X44023809Y-75956819D02*
X44119047Y-76004438D01*
X44119047Y-76004438D02*
X44166666Y-76052057D01*
X44166666Y-76052057D02*
X44214285Y-76147295D01*
X44214285Y-76147295D02*
X44214285Y-76290152D01*
X44214285Y-76290152D02*
X44166666Y-76385390D01*
X44166666Y-76385390D02*
X44119047Y-76433009D01*
X44119047Y-76433009D02*
X44023809Y-76480628D01*
X44023809Y-76480628D02*
X43642857Y-76480628D01*
X44595238Y-76052057D02*
X44642857Y-76004438D01*
X44642857Y-76004438D02*
X44738095Y-75956819D01*
X44738095Y-75956819D02*
X44976190Y-75956819D01*
X44976190Y-75956819D02*
X45071428Y-76004438D01*
X45071428Y-76004438D02*
X45119047Y-76052057D01*
X45119047Y-76052057D02*
X45166666Y-76147295D01*
X45166666Y-76147295D02*
X45166666Y-76242533D01*
X45166666Y-76242533D02*
X45119047Y-76385390D01*
X45119047Y-76385390D02*
X44547619Y-76956819D01*
X44547619Y-76956819D02*
X45166666Y-76956819D01*
X22738095Y-75956819D02*
X23309523Y-75956819D01*
X23023809Y-76956819D02*
X23023809Y-75956819D01*
X23642857Y-76956819D02*
X23642857Y-75956819D01*
X23642857Y-75956819D02*
X24023809Y-75956819D01*
X24023809Y-75956819D02*
X24119047Y-76004438D01*
X24119047Y-76004438D02*
X24166666Y-76052057D01*
X24166666Y-76052057D02*
X24214285Y-76147295D01*
X24214285Y-76147295D02*
X24214285Y-76290152D01*
X24214285Y-76290152D02*
X24166666Y-76385390D01*
X24166666Y-76385390D02*
X24119047Y-76433009D01*
X24119047Y-76433009D02*
X24023809Y-76480628D01*
X24023809Y-76480628D02*
X23642857Y-76480628D01*
X25166666Y-76956819D02*
X24595238Y-76956819D01*
X24880952Y-76956819D02*
X24880952Y-75956819D01*
X24880952Y-75956819D02*
X24785714Y-76099676D01*
X24785714Y-76099676D02*
X24690476Y-76194914D01*
X24690476Y-76194914D02*
X24595238Y-76242533D01*
X138738095Y-75956819D02*
X139309523Y-75956819D01*
X139023809Y-76956819D02*
X139023809Y-75956819D01*
X139642857Y-76956819D02*
X139642857Y-75956819D01*
X139642857Y-75956819D02*
X140023809Y-75956819D01*
X140023809Y-75956819D02*
X140119047Y-76004438D01*
X140119047Y-76004438D02*
X140166666Y-76052057D01*
X140166666Y-76052057D02*
X140214285Y-76147295D01*
X140214285Y-76147295D02*
X140214285Y-76290152D01*
X140214285Y-76290152D02*
X140166666Y-76385390D01*
X140166666Y-76385390D02*
X140119047Y-76433009D01*
X140119047Y-76433009D02*
X140023809Y-76480628D01*
X140023809Y-76480628D02*
X139642857Y-76480628D01*
X140547619Y-75956819D02*
X141214285Y-75956819D01*
X141214285Y-75956819D02*
X140785714Y-76956819D01*
X62833333Y-29929580D02*
X62785714Y-29977200D01*
X62785714Y-29977200D02*
X62642857Y-30024819D01*
X62642857Y-30024819D02*
X62547619Y-30024819D01*
X62547619Y-30024819D02*
X62404762Y-29977200D01*
X62404762Y-29977200D02*
X62309524Y-29881961D01*
X62309524Y-29881961D02*
X62261905Y-29786723D01*
X62261905Y-29786723D02*
X62214286Y-29596247D01*
X62214286Y-29596247D02*
X62214286Y-29453390D01*
X62214286Y-29453390D02*
X62261905Y-29262914D01*
X62261905Y-29262914D02*
X62309524Y-29167676D01*
X62309524Y-29167676D02*
X62404762Y-29072438D01*
X62404762Y-29072438D02*
X62547619Y-29024819D01*
X62547619Y-29024819D02*
X62642857Y-29024819D01*
X62642857Y-29024819D02*
X62785714Y-29072438D01*
X62785714Y-29072438D02*
X62833333Y-29120057D01*
X63214286Y-29120057D02*
X63261905Y-29072438D01*
X63261905Y-29072438D02*
X63357143Y-29024819D01*
X63357143Y-29024819D02*
X63595238Y-29024819D01*
X63595238Y-29024819D02*
X63690476Y-29072438D01*
X63690476Y-29072438D02*
X63738095Y-29120057D01*
X63738095Y-29120057D02*
X63785714Y-29215295D01*
X63785714Y-29215295D02*
X63785714Y-29310533D01*
X63785714Y-29310533D02*
X63738095Y-29453390D01*
X63738095Y-29453390D02*
X63166667Y-30024819D01*
X63166667Y-30024819D02*
X63785714Y-30024819D01*
X62738095Y-75956819D02*
X63309523Y-75956819D01*
X63023809Y-76956819D02*
X63023809Y-75956819D01*
X63642857Y-76956819D02*
X63642857Y-75956819D01*
X63642857Y-75956819D02*
X64023809Y-75956819D01*
X64023809Y-75956819D02*
X64119047Y-76004438D01*
X64119047Y-76004438D02*
X64166666Y-76052057D01*
X64166666Y-76052057D02*
X64214285Y-76147295D01*
X64214285Y-76147295D02*
X64214285Y-76290152D01*
X64214285Y-76290152D02*
X64166666Y-76385390D01*
X64166666Y-76385390D02*
X64119047Y-76433009D01*
X64119047Y-76433009D02*
X64023809Y-76480628D01*
X64023809Y-76480628D02*
X63642857Y-76480628D01*
X64547619Y-75956819D02*
X65166666Y-75956819D01*
X65166666Y-75956819D02*
X64833333Y-76337771D01*
X64833333Y-76337771D02*
X64976190Y-76337771D01*
X64976190Y-76337771D02*
X65071428Y-76385390D01*
X65071428Y-76385390D02*
X65119047Y-76433009D01*
X65119047Y-76433009D02*
X65166666Y-76528247D01*
X65166666Y-76528247D02*
X65166666Y-76766342D01*
X65166666Y-76766342D02*
X65119047Y-76861580D01*
X65119047Y-76861580D02*
X65071428Y-76909200D01*
X65071428Y-76909200D02*
X64976190Y-76956819D01*
X64976190Y-76956819D02*
X64690476Y-76956819D01*
X64690476Y-76956819D02*
X64595238Y-76909200D01*
X64595238Y-76909200D02*
X64547619Y-76861580D01*
X56261905Y-19954819D02*
X56261905Y-18954819D01*
X56261905Y-18954819D02*
X56500000Y-18954819D01*
X56500000Y-18954819D02*
X56642857Y-19002438D01*
X56642857Y-19002438D02*
X56738095Y-19097676D01*
X56738095Y-19097676D02*
X56785714Y-19192914D01*
X56785714Y-19192914D02*
X56833333Y-19383390D01*
X56833333Y-19383390D02*
X56833333Y-19526247D01*
X56833333Y-19526247D02*
X56785714Y-19716723D01*
X56785714Y-19716723D02*
X56738095Y-19811961D01*
X56738095Y-19811961D02*
X56642857Y-19907200D01*
X56642857Y-19907200D02*
X56500000Y-19954819D01*
X56500000Y-19954819D02*
X56261905Y-19954819D01*
X57785714Y-19954819D02*
X57214286Y-19954819D01*
X57500000Y-19954819D02*
X57500000Y-18954819D01*
X57500000Y-18954819D02*
X57404762Y-19097676D01*
X57404762Y-19097676D02*
X57309524Y-19192914D01*
X57309524Y-19192914D02*
X57214286Y-19240533D01*
X148238095Y-78304819D02*
X148238095Y-77304819D01*
X148238095Y-77781009D02*
X148809523Y-77781009D01*
X148809523Y-78304819D02*
X148809523Y-77304819D01*
X149238095Y-77400057D02*
X149285714Y-77352438D01*
X149285714Y-77352438D02*
X149380952Y-77304819D01*
X149380952Y-77304819D02*
X149619047Y-77304819D01*
X149619047Y-77304819D02*
X149714285Y-77352438D01*
X149714285Y-77352438D02*
X149761904Y-77400057D01*
X149761904Y-77400057D02*
X149809523Y-77495295D01*
X149809523Y-77495295D02*
X149809523Y-77590533D01*
X149809523Y-77590533D02*
X149761904Y-77733390D01*
X149761904Y-77733390D02*
X149190476Y-78304819D01*
X149190476Y-78304819D02*
X149809523Y-78304819D01*
X133833333Y-48024819D02*
X133500000Y-47548628D01*
X133261905Y-48024819D02*
X133261905Y-47024819D01*
X133261905Y-47024819D02*
X133642857Y-47024819D01*
X133642857Y-47024819D02*
X133738095Y-47072438D01*
X133738095Y-47072438D02*
X133785714Y-47120057D01*
X133785714Y-47120057D02*
X133833333Y-47215295D01*
X133833333Y-47215295D02*
X133833333Y-47358152D01*
X133833333Y-47358152D02*
X133785714Y-47453390D01*
X133785714Y-47453390D02*
X133738095Y-47501009D01*
X133738095Y-47501009D02*
X133642857Y-47548628D01*
X133642857Y-47548628D02*
X133261905Y-47548628D01*
X134166667Y-47024819D02*
X134785714Y-47024819D01*
X134785714Y-47024819D02*
X134452381Y-47405771D01*
X134452381Y-47405771D02*
X134595238Y-47405771D01*
X134595238Y-47405771D02*
X134690476Y-47453390D01*
X134690476Y-47453390D02*
X134738095Y-47501009D01*
X134738095Y-47501009D02*
X134785714Y-47596247D01*
X134785714Y-47596247D02*
X134785714Y-47834342D01*
X134785714Y-47834342D02*
X134738095Y-47929580D01*
X134738095Y-47929580D02*
X134690476Y-47977200D01*
X134690476Y-47977200D02*
X134595238Y-48024819D01*
X134595238Y-48024819D02*
X134309524Y-48024819D01*
X134309524Y-48024819D02*
X134214286Y-47977200D01*
X134214286Y-47977200D02*
X134166667Y-47929580D01*
X114929580Y-30166666D02*
X114977200Y-30214285D01*
X114977200Y-30214285D02*
X115024819Y-30357142D01*
X115024819Y-30357142D02*
X115024819Y-30452380D01*
X115024819Y-30452380D02*
X114977200Y-30595237D01*
X114977200Y-30595237D02*
X114881961Y-30690475D01*
X114881961Y-30690475D02*
X114786723Y-30738094D01*
X114786723Y-30738094D02*
X114596247Y-30785713D01*
X114596247Y-30785713D02*
X114453390Y-30785713D01*
X114453390Y-30785713D02*
X114262914Y-30738094D01*
X114262914Y-30738094D02*
X114167676Y-30690475D01*
X114167676Y-30690475D02*
X114072438Y-30595237D01*
X114072438Y-30595237D02*
X114024819Y-30452380D01*
X114024819Y-30452380D02*
X114024819Y-30357142D01*
X114024819Y-30357142D02*
X114072438Y-30214285D01*
X114072438Y-30214285D02*
X114120057Y-30166666D01*
X114358152Y-29309523D02*
X115024819Y-29309523D01*
X113977200Y-29547618D02*
X114691485Y-29785713D01*
X114691485Y-29785713D02*
X114691485Y-29166666D01*
X20916666Y-35234819D02*
X20916666Y-35949104D01*
X20916666Y-35949104D02*
X20869047Y-36091961D01*
X20869047Y-36091961D02*
X20773809Y-36187200D01*
X20773809Y-36187200D02*
X20630952Y-36234819D01*
X20630952Y-36234819D02*
X20535714Y-36234819D01*
X21916666Y-36234819D02*
X21345238Y-36234819D01*
X21630952Y-36234819D02*
X21630952Y-35234819D01*
X21630952Y-35234819D02*
X21535714Y-35377676D01*
X21535714Y-35377676D02*
X21440476Y-35472914D01*
X21440476Y-35472914D02*
X21345238Y-35520533D01*
X90715714Y-74269104D02*
X91191904Y-74269104D01*
X90620476Y-74554819D02*
X90953809Y-73554819D01*
X90953809Y-73554819D02*
X91287142Y-74554819D01*
X92144285Y-74554819D02*
X91572857Y-74554819D01*
X91858571Y-74554819D02*
X91858571Y-73554819D01*
X91858571Y-73554819D02*
X91763333Y-73697676D01*
X91763333Y-73697676D02*
X91668095Y-73792914D01*
X91668095Y-73792914D02*
X91572857Y-73840533D01*
X15238095Y-78304819D02*
X15238095Y-77304819D01*
X15238095Y-77781009D02*
X15809523Y-77781009D01*
X15809523Y-78304819D02*
X15809523Y-77304819D01*
X16809523Y-78304819D02*
X16238095Y-78304819D01*
X16523809Y-78304819D02*
X16523809Y-77304819D01*
X16523809Y-77304819D02*
X16428571Y-77447676D01*
X16428571Y-77447676D02*
X16333333Y-77542914D01*
X16333333Y-77542914D02*
X16238095Y-77590533D01*
X71833333Y-29679580D02*
X71785714Y-29727200D01*
X71785714Y-29727200D02*
X71642857Y-29774819D01*
X71642857Y-29774819D02*
X71547619Y-29774819D01*
X71547619Y-29774819D02*
X71404762Y-29727200D01*
X71404762Y-29727200D02*
X71309524Y-29631961D01*
X71309524Y-29631961D02*
X71261905Y-29536723D01*
X71261905Y-29536723D02*
X71214286Y-29346247D01*
X71214286Y-29346247D02*
X71214286Y-29203390D01*
X71214286Y-29203390D02*
X71261905Y-29012914D01*
X71261905Y-29012914D02*
X71309524Y-28917676D01*
X71309524Y-28917676D02*
X71404762Y-28822438D01*
X71404762Y-28822438D02*
X71547619Y-28774819D01*
X71547619Y-28774819D02*
X71642857Y-28774819D01*
X71642857Y-28774819D02*
X71785714Y-28822438D01*
X71785714Y-28822438D02*
X71833333Y-28870057D01*
X72166667Y-28774819D02*
X72785714Y-28774819D01*
X72785714Y-28774819D02*
X72452381Y-29155771D01*
X72452381Y-29155771D02*
X72595238Y-29155771D01*
X72595238Y-29155771D02*
X72690476Y-29203390D01*
X72690476Y-29203390D02*
X72738095Y-29251009D01*
X72738095Y-29251009D02*
X72785714Y-29346247D01*
X72785714Y-29346247D02*
X72785714Y-29584342D01*
X72785714Y-29584342D02*
X72738095Y-29679580D01*
X72738095Y-29679580D02*
X72690476Y-29727200D01*
X72690476Y-29727200D02*
X72595238Y-29774819D01*
X72595238Y-29774819D02*
X72309524Y-29774819D01*
X72309524Y-29774819D02*
X72214286Y-29727200D01*
X72214286Y-29727200D02*
X72166667Y-29679580D01*
X131238095Y-37054819D02*
X131238095Y-37864342D01*
X131238095Y-37864342D02*
X131285714Y-37959580D01*
X131285714Y-37959580D02*
X131333333Y-38007200D01*
X131333333Y-38007200D02*
X131428571Y-38054819D01*
X131428571Y-38054819D02*
X131619047Y-38054819D01*
X131619047Y-38054819D02*
X131714285Y-38007200D01*
X131714285Y-38007200D02*
X131761904Y-37959580D01*
X131761904Y-37959580D02*
X131809523Y-37864342D01*
X131809523Y-37864342D02*
X131809523Y-37054819D01*
X132190476Y-37054819D02*
X132809523Y-37054819D01*
X132809523Y-37054819D02*
X132476190Y-37435771D01*
X132476190Y-37435771D02*
X132619047Y-37435771D01*
X132619047Y-37435771D02*
X132714285Y-37483390D01*
X132714285Y-37483390D02*
X132761904Y-37531009D01*
X132761904Y-37531009D02*
X132809523Y-37626247D01*
X132809523Y-37626247D02*
X132809523Y-37864342D01*
X132809523Y-37864342D02*
X132761904Y-37959580D01*
X132761904Y-37959580D02*
X132714285Y-38007200D01*
X132714285Y-38007200D02*
X132619047Y-38054819D01*
X132619047Y-38054819D02*
X132333333Y-38054819D01*
X132333333Y-38054819D02*
X132238095Y-38007200D01*
X132238095Y-38007200D02*
X132190476Y-37959580D01*
X56833333Y-29059580D02*
X56785714Y-29107200D01*
X56785714Y-29107200D02*
X56642857Y-29154819D01*
X56642857Y-29154819D02*
X56547619Y-29154819D01*
X56547619Y-29154819D02*
X56404762Y-29107200D01*
X56404762Y-29107200D02*
X56309524Y-29011961D01*
X56309524Y-29011961D02*
X56261905Y-28916723D01*
X56261905Y-28916723D02*
X56214286Y-28726247D01*
X56214286Y-28726247D02*
X56214286Y-28583390D01*
X56214286Y-28583390D02*
X56261905Y-28392914D01*
X56261905Y-28392914D02*
X56309524Y-28297676D01*
X56309524Y-28297676D02*
X56404762Y-28202438D01*
X56404762Y-28202438D02*
X56547619Y-28154819D01*
X56547619Y-28154819D02*
X56642857Y-28154819D01*
X56642857Y-28154819D02*
X56785714Y-28202438D01*
X56785714Y-28202438D02*
X56833333Y-28250057D01*
X57785714Y-29154819D02*
X57214286Y-29154819D01*
X57500000Y-29154819D02*
X57500000Y-28154819D01*
X57500000Y-28154819D02*
X57404762Y-28297676D01*
X57404762Y-28297676D02*
X57309524Y-28392914D01*
X57309524Y-28392914D02*
X57214286Y-28440533D01*
X143929580Y-49166666D02*
X143977200Y-49214285D01*
X143977200Y-49214285D02*
X144024819Y-49357142D01*
X144024819Y-49357142D02*
X144024819Y-49452380D01*
X144024819Y-49452380D02*
X143977200Y-49595237D01*
X143977200Y-49595237D02*
X143881961Y-49690475D01*
X143881961Y-49690475D02*
X143786723Y-49738094D01*
X143786723Y-49738094D02*
X143596247Y-49785713D01*
X143596247Y-49785713D02*
X143453390Y-49785713D01*
X143453390Y-49785713D02*
X143262914Y-49738094D01*
X143262914Y-49738094D02*
X143167676Y-49690475D01*
X143167676Y-49690475D02*
X143072438Y-49595237D01*
X143072438Y-49595237D02*
X143024819Y-49452380D01*
X143024819Y-49452380D02*
X143024819Y-49357142D01*
X143024819Y-49357142D02*
X143072438Y-49214285D01*
X143072438Y-49214285D02*
X143120057Y-49166666D01*
X143024819Y-48309523D02*
X143024819Y-48499999D01*
X143024819Y-48499999D02*
X143072438Y-48595237D01*
X143072438Y-48595237D02*
X143120057Y-48642856D01*
X143120057Y-48642856D02*
X143262914Y-48738094D01*
X143262914Y-48738094D02*
X143453390Y-48785713D01*
X143453390Y-48785713D02*
X143834342Y-48785713D01*
X143834342Y-48785713D02*
X143929580Y-48738094D01*
X143929580Y-48738094D02*
X143977200Y-48690475D01*
X143977200Y-48690475D02*
X144024819Y-48595237D01*
X144024819Y-48595237D02*
X144024819Y-48404761D01*
X144024819Y-48404761D02*
X143977200Y-48309523D01*
X143977200Y-48309523D02*
X143929580Y-48261904D01*
X143929580Y-48261904D02*
X143834342Y-48214285D01*
X143834342Y-48214285D02*
X143596247Y-48214285D01*
X143596247Y-48214285D02*
X143501009Y-48261904D01*
X143501009Y-48261904D02*
X143453390Y-48309523D01*
X143453390Y-48309523D02*
X143405771Y-48404761D01*
X143405771Y-48404761D02*
X143405771Y-48595237D01*
X143405771Y-48595237D02*
X143453390Y-48690475D01*
X143453390Y-48690475D02*
X143501009Y-48738094D01*
X143501009Y-48738094D02*
X143596247Y-48785713D01*
X111024819Y-30166666D02*
X110548628Y-30499999D01*
X111024819Y-30738094D02*
X110024819Y-30738094D01*
X110024819Y-30738094D02*
X110024819Y-30357142D01*
X110024819Y-30357142D02*
X110072438Y-30261904D01*
X110072438Y-30261904D02*
X110120057Y-30214285D01*
X110120057Y-30214285D02*
X110215295Y-30166666D01*
X110215295Y-30166666D02*
X110358152Y-30166666D01*
X110358152Y-30166666D02*
X110453390Y-30214285D01*
X110453390Y-30214285D02*
X110501009Y-30261904D01*
X110501009Y-30261904D02*
X110548628Y-30357142D01*
X110548628Y-30357142D02*
X110548628Y-30738094D01*
X110120057Y-29785713D02*
X110072438Y-29738094D01*
X110072438Y-29738094D02*
X110024819Y-29642856D01*
X110024819Y-29642856D02*
X110024819Y-29404761D01*
X110024819Y-29404761D02*
X110072438Y-29309523D01*
X110072438Y-29309523D02*
X110120057Y-29261904D01*
X110120057Y-29261904D02*
X110215295Y-29214285D01*
X110215295Y-29214285D02*
X110310533Y-29214285D01*
X110310533Y-29214285D02*
X110453390Y-29261904D01*
X110453390Y-29261904D02*
X111024819Y-29833332D01*
X111024819Y-29833332D02*
X111024819Y-29214285D01*
X107024819Y-30166666D02*
X106548628Y-30499999D01*
X107024819Y-30738094D02*
X106024819Y-30738094D01*
X106024819Y-30738094D02*
X106024819Y-30357142D01*
X106024819Y-30357142D02*
X106072438Y-30261904D01*
X106072438Y-30261904D02*
X106120057Y-30214285D01*
X106120057Y-30214285D02*
X106215295Y-30166666D01*
X106215295Y-30166666D02*
X106358152Y-30166666D01*
X106358152Y-30166666D02*
X106453390Y-30214285D01*
X106453390Y-30214285D02*
X106501009Y-30261904D01*
X106501009Y-30261904D02*
X106548628Y-30357142D01*
X106548628Y-30357142D02*
X106548628Y-30738094D01*
X107024819Y-29214285D02*
X107024819Y-29785713D01*
X107024819Y-29499999D02*
X106024819Y-29499999D01*
X106024819Y-29499999D02*
X106167676Y-29595237D01*
X106167676Y-29595237D02*
X106262914Y-29690475D01*
X106262914Y-29690475D02*
X106310533Y-29785713D01*
X38666666Y-18431009D02*
X38333333Y-18431009D01*
X38333333Y-18954819D02*
X38333333Y-17954819D01*
X38333333Y-17954819D02*
X38809523Y-17954819D01*
X39714285Y-18954819D02*
X39142857Y-18954819D01*
X39428571Y-18954819D02*
X39428571Y-17954819D01*
X39428571Y-17954819D02*
X39333333Y-18097676D01*
X39333333Y-18097676D02*
X39238095Y-18192914D01*
X39238095Y-18192914D02*
X39142857Y-18240533D01*
X143833333Y-39024819D02*
X143500000Y-38548628D01*
X143261905Y-39024819D02*
X143261905Y-38024819D01*
X143261905Y-38024819D02*
X143642857Y-38024819D01*
X143642857Y-38024819D02*
X143738095Y-38072438D01*
X143738095Y-38072438D02*
X143785714Y-38120057D01*
X143785714Y-38120057D02*
X143833333Y-38215295D01*
X143833333Y-38215295D02*
X143833333Y-38358152D01*
X143833333Y-38358152D02*
X143785714Y-38453390D01*
X143785714Y-38453390D02*
X143738095Y-38501009D01*
X143738095Y-38501009D02*
X143642857Y-38548628D01*
X143642857Y-38548628D02*
X143261905Y-38548628D01*
X144738095Y-38024819D02*
X144261905Y-38024819D01*
X144261905Y-38024819D02*
X144214286Y-38501009D01*
X144214286Y-38501009D02*
X144261905Y-38453390D01*
X144261905Y-38453390D02*
X144357143Y-38405771D01*
X144357143Y-38405771D02*
X144595238Y-38405771D01*
X144595238Y-38405771D02*
X144690476Y-38453390D01*
X144690476Y-38453390D02*
X144738095Y-38501009D01*
X144738095Y-38501009D02*
X144785714Y-38596247D01*
X144785714Y-38596247D02*
X144785714Y-38834342D01*
X144785714Y-38834342D02*
X144738095Y-38929580D01*
X144738095Y-38929580D02*
X144690476Y-38977200D01*
X144690476Y-38977200D02*
X144595238Y-39024819D01*
X144595238Y-39024819D02*
X144357143Y-39024819D01*
X144357143Y-39024819D02*
X144261905Y-38977200D01*
X144261905Y-38977200D02*
X144214286Y-38929580D01*
X127024819Y-54166666D02*
X126548628Y-54499999D01*
X127024819Y-54738094D02*
X126024819Y-54738094D01*
X126024819Y-54738094D02*
X126024819Y-54357142D01*
X126024819Y-54357142D02*
X126072438Y-54261904D01*
X126072438Y-54261904D02*
X126120057Y-54214285D01*
X126120057Y-54214285D02*
X126215295Y-54166666D01*
X126215295Y-54166666D02*
X126358152Y-54166666D01*
X126358152Y-54166666D02*
X126453390Y-54214285D01*
X126453390Y-54214285D02*
X126501009Y-54261904D01*
X126501009Y-54261904D02*
X126548628Y-54357142D01*
X126548628Y-54357142D02*
X126548628Y-54738094D01*
X126358152Y-53309523D02*
X127024819Y-53309523D01*
X125977200Y-53547618D02*
X126691485Y-53785713D01*
X126691485Y-53785713D02*
X126691485Y-53166666D01*
X126738095Y-75956819D02*
X127309523Y-75956819D01*
X127023809Y-76956819D02*
X127023809Y-75956819D01*
X127642857Y-76956819D02*
X127642857Y-75956819D01*
X127642857Y-75956819D02*
X128023809Y-75956819D01*
X128023809Y-75956819D02*
X128119047Y-76004438D01*
X128119047Y-76004438D02*
X128166666Y-76052057D01*
X128166666Y-76052057D02*
X128214285Y-76147295D01*
X128214285Y-76147295D02*
X128214285Y-76290152D01*
X128214285Y-76290152D02*
X128166666Y-76385390D01*
X128166666Y-76385390D02*
X128119047Y-76433009D01*
X128119047Y-76433009D02*
X128023809Y-76480628D01*
X128023809Y-76480628D02*
X127642857Y-76480628D01*
X129071428Y-75956819D02*
X128880952Y-75956819D01*
X128880952Y-75956819D02*
X128785714Y-76004438D01*
X128785714Y-76004438D02*
X128738095Y-76052057D01*
X128738095Y-76052057D02*
X128642857Y-76194914D01*
X128642857Y-76194914D02*
X128595238Y-76385390D01*
X128595238Y-76385390D02*
X128595238Y-76766342D01*
X128595238Y-76766342D02*
X128642857Y-76861580D01*
X128642857Y-76861580D02*
X128690476Y-76909200D01*
X128690476Y-76909200D02*
X128785714Y-76956819D01*
X128785714Y-76956819D02*
X128976190Y-76956819D01*
X128976190Y-76956819D02*
X129071428Y-76909200D01*
X129071428Y-76909200D02*
X129119047Y-76861580D01*
X129119047Y-76861580D02*
X129166666Y-76766342D01*
X129166666Y-76766342D02*
X129166666Y-76528247D01*
X129166666Y-76528247D02*
X129119047Y-76433009D01*
X129119047Y-76433009D02*
X129071428Y-76385390D01*
X129071428Y-76385390D02*
X128976190Y-76337771D01*
X128976190Y-76337771D02*
X128785714Y-76337771D01*
X128785714Y-76337771D02*
X128690476Y-76385390D01*
X128690476Y-76385390D02*
X128642857Y-76433009D01*
X128642857Y-76433009D02*
X128595238Y-76528247D01*
%TO.C,C5*%
D11*
X127490000Y-30140580D02*
X127490000Y-29859420D01*
X128510000Y-30140580D02*
X128510000Y-29859420D01*
%TO.C,TP5*%
X109700000Y-79000000D02*
G75*
G02*
X106300000Y-79000000I-1700000J0D01*
G01*
X106300000Y-79000000D02*
G75*
G02*
X109700000Y-79000000I1700000J0D01*
G01*
%TO.C,TP4*%
X85700000Y-79000000D02*
G75*
G02*
X82300000Y-79000000I-1700000J0D01*
G01*
X82300000Y-79000000D02*
G75*
G02*
X85700000Y-79000000I1700000J0D01*
G01*
%TO.C,U2*%
X114090000Y-38440000D02*
X115910000Y-38440000D01*
X114090000Y-38490000D02*
X114090000Y-38440000D01*
X114090000Y-41560000D02*
X114090000Y-41510000D01*
X115910000Y-38440000D02*
X115910000Y-38490000D01*
X115910000Y-41510000D02*
X115910000Y-41560000D01*
X115910000Y-41560000D02*
X114090000Y-41560000D01*
X113550000Y-38490000D02*
X113310000Y-38160000D01*
X113790000Y-38160000D01*
X113550000Y-38490000D01*
G36*
X113550000Y-38490000D02*
G01*
X113310000Y-38160000D01*
X113790000Y-38160000D01*
X113550000Y-38490000D01*
G37*
%TO.C,U1*%
X65250000Y-22000000D02*
X65250000Y-24450000D01*
X65250000Y-24450000D02*
X67580000Y-24450000D01*
X65580000Y-16270000D02*
X77520000Y-16270000D01*
X65580000Y-24120000D02*
X65580000Y-16270000D01*
X77520000Y-16270000D02*
X77520000Y-24120000D01*
X77520000Y-24120000D02*
X65580000Y-24120000D01*
%TO.C,TP2*%
X45700000Y-79000000D02*
G75*
G02*
X42300000Y-79000000I-1700000J0D01*
G01*
X42300000Y-79000000D02*
G75*
G02*
X45700000Y-79000000I1700000J0D01*
G01*
%TO.C,TP1*%
X25700000Y-79000000D02*
G75*
G02*
X22300000Y-79000000I-1700000J0D01*
G01*
X22300000Y-79000000D02*
G75*
G02*
X25700000Y-79000000I1700000J0D01*
G01*
%TO.C,TP7*%
X141700000Y-79000000D02*
G75*
G02*
X138300000Y-79000000I-1700000J0D01*
G01*
X138300000Y-79000000D02*
G75*
G02*
X141700000Y-79000000I1700000J0D01*
G01*
%TO.C,C2*%
X62859420Y-30490000D02*
X63140580Y-30490000D01*
X62859420Y-31510000D02*
X63140580Y-31510000D01*
%TO.C,TP3*%
X65700000Y-79000000D02*
G75*
G02*
X62300000Y-79000000I-1700000J0D01*
G01*
X62300000Y-79000000D02*
G75*
G02*
X65700000Y-79000000I1700000J0D01*
G01*
%TO.C,D1*%
X53490000Y-20350000D02*
X53490000Y-23650000D01*
X53490000Y-20350000D02*
X59000000Y-20350000D01*
X53490000Y-23650000D02*
X59000000Y-23650000D01*
%TO.C,R3*%
X133762742Y-48477500D02*
X134237258Y-48477500D01*
X133762742Y-49522500D02*
X134237258Y-49522500D01*
%TO.C,C4*%
X115490000Y-30140580D02*
X115490000Y-29859420D01*
X116510000Y-30140580D02*
X116510000Y-29859420D01*
%TO.C,J1*%
X14130000Y-36780000D02*
X28370000Y-36780000D01*
X14130000Y-43000000D02*
X28370000Y-43000000D01*
X14130000Y-44100000D02*
X28370000Y-44100000D01*
X14130000Y-44620000D02*
X14130000Y-36780000D01*
X15700000Y-44620000D02*
X14130000Y-44620000D01*
X28370000Y-36780000D02*
X28370000Y-44620000D01*
X28370000Y-44620000D02*
X16300000Y-44620000D01*
X16000000Y-44620000D02*
X16440000Y-45230000D01*
X15560000Y-45230000D01*
X16000000Y-44620000D01*
G36*
X16440000Y-45230000D02*
G01*
X15560000Y-45230000D01*
X16000000Y-44620000D01*
X16440000Y-45230000D01*
G37*
%TO.C,A1*%
X78730000Y-34320000D02*
X104130000Y-34320000D01*
X78730000Y-73240000D02*
X78730000Y-34320000D01*
X104130000Y-34320000D02*
X104130000Y-73240000D01*
X104130000Y-73240000D02*
X78730000Y-73240000D01*
%TO.C,C3*%
X71738748Y-30265000D02*
X72261252Y-30265000D01*
X71738748Y-31735000D02*
X72261252Y-31735000D01*
%TO.C,U3*%
X131090000Y-38440000D02*
X132910000Y-38440000D01*
X131090000Y-38490000D02*
X131090000Y-38440000D01*
X131090000Y-41560000D02*
X131090000Y-41510000D01*
X132910000Y-38440000D02*
X132910000Y-38490000D01*
X132910000Y-39610000D02*
X132910000Y-40390000D01*
X132910000Y-41510000D02*
X132910000Y-41560000D01*
X132910000Y-41560000D02*
X131090000Y-41560000D01*
X130550000Y-38490000D02*
X130310000Y-38160000D01*
X130790000Y-38160000D01*
X130550000Y-38490000D01*
G36*
X130550000Y-38490000D02*
G01*
X130310000Y-38160000D01*
X130790000Y-38160000D01*
X130550000Y-38490000D01*
G37*
%TO.C,C1*%
X56288748Y-29640000D02*
X57711252Y-29640000D01*
X56288748Y-32360000D02*
X57711252Y-32360000D01*
%TO.C,C6*%
X144490000Y-49140580D02*
X144490000Y-48859420D01*
X145510000Y-49140580D02*
X145510000Y-48859420D01*
%TO.C,R2*%
X111477500Y-30237258D02*
X111477500Y-29762742D01*
X112522500Y-30237258D02*
X112522500Y-29762742D01*
%TO.C,R1*%
X107477500Y-30237258D02*
X107477500Y-29762742D01*
X108522500Y-30237258D02*
X108522500Y-29762742D01*
%TO.C,F1*%
X28500000Y-19350000D02*
X28500000Y-20900000D01*
X28500000Y-24650000D02*
X28500000Y-23100000D01*
X34500000Y-19350000D02*
X28500000Y-19350000D01*
X34500000Y-19350000D02*
X34500000Y-20900000D01*
X34500000Y-24650000D02*
X28500000Y-24650000D01*
X34500000Y-24650000D02*
X34500000Y-23100000D01*
X43500000Y-19350000D02*
X43500000Y-20900000D01*
X43500000Y-19500000D02*
X34500000Y-19500000D01*
X43500000Y-24500000D02*
X34500000Y-24500000D01*
X43500000Y-24650000D02*
X43500000Y-23100000D01*
X43500000Y-24650000D02*
X49500000Y-24650000D01*
X49500000Y-19350000D02*
X43500000Y-19350000D01*
X49500000Y-20900000D02*
X49500000Y-19350000D01*
X49500000Y-23100000D02*
X49500000Y-24650000D01*
%TO.C,R5*%
X143762742Y-39477500D02*
X144237258Y-39477500D01*
X143762742Y-40522500D02*
X144237258Y-40522500D01*
%TO.C,R4*%
X127477500Y-54237258D02*
X127477500Y-53762742D01*
X128522500Y-54237258D02*
X128522500Y-53762742D01*
%TO.C,TP6*%
X129700000Y-79000000D02*
G75*
G02*
X126300000Y-79000000I-1700000J0D01*
G01*
X126300000Y-79000000D02*
G75*
G02*
X129700000Y-79000000I1700000J0D01*
G01*
%TD*%
M02*
