%TF.GenerationSoftware,KiCad,Pcbnew,10.0.5*%
%TF.CreationDate,2026-08-07T14:37:14+02:00*%
%TF.ProjectId,IDM-RoomSensor-ESP-B-ES2-C6,49444d2d-526f-46f6-9d53-656e736f722d,rev?*%
%TF.SameCoordinates,Original*%
%TF.FileFunction,Copper,L2,Inr*%
%TF.FilePolarity,Positive*%
%FSLAX46Y46*%
G04 Gerber Fmt 4.6, Leading zero omitted, Abs format (unit mm)*
G04 Created by KiCad (PCBNEW 10.0.5) date 2026-08-07 14:37:14*
%MOMM*%
%LPD*%
G01*
G04 APERTURE LIST*
G04 Aperture macros list*
%AMRoundRect*
0 Rectangle with rounded corners*
0 $1 Rounding radius*
0 $2 $3 $4 $5 $6 $7 $8 $9 X,Y pos of 4 corners*
0 Add a 4 corners polygon primitive as box body*
4,1,4,$2,$3,$4,$5,$6,$7,$8,$9,$2,$3,0*
0 Add four circle primitives for the rounded corners*
1,1,$1+$1,$2,$3*
1,1,$1+$1,$4,$5*
1,1,$1+$1,$6,$7*
1,1,$1+$1,$8,$9*
0 Add four rect primitives between the rounded corners*
20,1,$1+$1,$2,$3,$4,$5,0*
20,1,$1+$1,$4,$5,$6,$7,0*
20,1,$1+$1,$6,$7,$8,$9,0*
20,1,$1+$1,$8,$9,$2,$3,0*%
G04 Aperture macros list end*
%TA.AperFunction,ComponentPad*%
%ADD10C,3.000000*%
%TD*%
%TA.AperFunction,ComponentPad*%
%ADD11O,1.000000X2.100000*%
%TD*%
%TA.AperFunction,ComponentPad*%
%ADD12O,1.000000X1.600000*%
%TD*%
%TA.AperFunction,ComponentPad*%
%ADD13RoundRect,0.250001X0.949999X-0.949999X0.949999X0.949999X-0.949999X0.949999X-0.949999X-0.949999X0*%
%TD*%
%TA.AperFunction,ComponentPad*%
%ADD14C,2.400000*%
%TD*%
%TA.AperFunction,ComponentPad*%
%ADD15R,1.050000X1.500000*%
%TD*%
%TA.AperFunction,ComponentPad*%
%ADD16O,1.050000X1.500000*%
%TD*%
%TA.AperFunction,ComponentPad*%
%ADD17C,0.600000*%
%TD*%
%TA.AperFunction,ViaPad*%
%ADD18C,0.600000*%
%TD*%
%TA.AperFunction,ViaPad*%
%ADD19C,0.800000*%
%TD*%
%TA.AperFunction,Conductor*%
%ADD20C,0.200000*%
%TD*%
G04 APERTURE END LIST*
D10*
%TO.N,RS485_A*%
%TO.C,TP9*%
X86000000Y-31000000D03*
%TD*%
%TO.N,GND*%
%TO.C,TP12*%
X110000000Y-28000000D03*
%TD*%
%TO.N,TEMP_KTY*%
%TO.C,TP8*%
X83000000Y-35000000D03*
%TD*%
D11*
%TO.N,GND*%
%TO.C,J3*%
X70680000Y-74070000D03*
D12*
X70680000Y-78250000D03*
D11*
X79320000Y-74070000D03*
D12*
X79320000Y-78250000D03*
%TD*%
D10*
%TO.N,SYS_5V*%
%TO.C,TP3*%
X38000000Y-38000000D03*
%TD*%
%TO.N,RS485_B*%
%TO.C,TP10*%
X94000000Y-31000000D03*
%TD*%
%TO.N,I2C_SCL*%
%TO.C,TP6*%
X62000000Y-40000000D03*
%TD*%
%TO.N,+3V3*%
%TO.C,TP4*%
X46000000Y-39000000D03*
%TD*%
%TO.N,24V_PROT*%
%TO.C,TP2*%
X30000000Y-38000000D03*
%TD*%
D13*
%TO.N,TEMP_KTY*%
%TO.C,J1*%
X16000000Y-62000000D03*
D14*
%TO.N,24V_RAW*%
X16000000Y-58500000D03*
%TO.N,GND*%
X16000000Y-55000000D03*
%TO.N,RH_OUT*%
X16000000Y-51500000D03*
%TD*%
D15*
%TO.N,TEMP_KTY*%
%TO.C,RTH1*%
X18000000Y-46000000D03*
D16*
%TO.N,GND*%
X19270000Y-46000000D03*
%TO.N,N/C*%
X20540000Y-46000000D03*
%TD*%
D10*
%TO.N,I2C_SDA*%
%TO.C,TP5*%
X54000000Y-40000000D03*
%TD*%
%TO.N,RH_OUT*%
%TO.C,TP7*%
X70000000Y-38000000D03*
%TD*%
D17*
%TO.N,GND*%
%TO.C,U3*%
X53900000Y-24905000D03*
X53900000Y-26005000D03*
X53900000Y-27105000D03*
X55000000Y-24905000D03*
X55000000Y-26005000D03*
X55000000Y-27105000D03*
X56100000Y-24905000D03*
X56100000Y-26005000D03*
X56100000Y-27105000D03*
%TD*%
D10*
%TO.N,24V_RAW*%
%TO.C,TP1*%
X22000000Y-38000000D03*
%TD*%
D17*
%TO.N,GND*%
%TO.C,U1*%
X48400000Y-63200000D03*
X48400000Y-64400000D03*
X48400000Y-65700000D03*
X48400000Y-66800000D03*
X49600000Y-63200000D03*
X49600000Y-64400000D03*
X49600000Y-65700000D03*
X49600000Y-66800000D03*
%TD*%
D10*
%TO.N,RS485_COM*%
%TO.C,TP11*%
X102000000Y-31000000D03*
%TD*%
D13*
%TO.N,RS485_A*%
%TO.C,J2*%
X115000000Y-43000000D03*
D14*
%TO.N,RS485_B*%
X115000000Y-39500000D03*
%TO.N,RS485_COM*%
X115000000Y-36000000D03*
%TO.N,RS485_SHIELD*%
X115000000Y-32500000D03*
%TD*%
D18*
%TO.N,24V_PROT*%
X41173200Y-53000000D03*
X93137500Y-43283700D03*
X37773200Y-67773100D03*
%TO.N,GND*%
X62477500Y-17715800D03*
X66537500Y-45237500D03*
X47522500Y-17715800D03*
X92734900Y-52000000D03*
X54464200Y-77005100D03*
X92622800Y-46045600D03*
X111245300Y-18470300D03*
X36327000Y-75712500D03*
D19*
X109700000Y-19600000D03*
D18*
X46992900Y-52312500D03*
X76890500Y-57940500D03*
%TO.N,SYS_5V*%
X92307500Y-74500000D03*
X57622100Y-73622100D03*
X70632100Y-55367900D03*
X77874800Y-62062300D03*
%TO.N,OPAMP_OUT*%
X97252300Y-46000000D03*
X91671000Y-44241500D03*
%TO.N,DAC_RAW*%
X80683200Y-44943100D03*
X89673300Y-46600800D03*
%TO.N,+3V3*%
X64175000Y-42004000D03*
X111238300Y-21536700D03*
X44995900Y-18765000D03*
X98820600Y-55236400D03*
X69279300Y-45209900D03*
%TO.N,5V_BUCK*%
X63280700Y-65000000D03*
X54175000Y-72018300D03*
X50736800Y-55438200D03*
%TO.N,C6_EN*%
X47511300Y-20158600D03*
X64240000Y-44584800D03*
X49113600Y-26955600D03*
%TO.N,I2C_SDA*%
X47504100Y-23845000D03*
X86567700Y-72791100D03*
X104563300Y-17261700D03*
X84138700Y-47770200D03*
D19*
X106200000Y-19600000D03*
D18*
%TO.N,I2C_SCL*%
X47883900Y-25115000D03*
D19*
X106200000Y-20800000D03*
D18*
X85305500Y-46329100D03*
X104566200Y-21741200D03*
X87500000Y-73217800D03*
%TO.N,ONEWIRE*%
X88500000Y-73198300D03*
X65001700Y-26385000D03*
%TO.N,EXP_GPIO4*%
X89500000Y-73202200D03*
X47504100Y-21305000D03*
%TO.N,EXP_GPIO5*%
X90500000Y-73205100D03*
X47504100Y-22575000D03*
%TO.N,VISO*%
X108320400Y-57460000D03*
X110981900Y-65083600D03*
%TO.N,RS485_COM*%
X107834900Y-70125400D03*
X112361300Y-52771900D03*
%TO.N,RS485_A*%
X108295000Y-56155800D03*
%TO.N,USB_CC1*%
X73750000Y-71909100D03*
X68740200Y-68565200D03*
%TO.N,USB_5V*%
X64779900Y-75712500D03*
X73206600Y-74413200D03*
%TO.N,USB_D+*%
X47504100Y-34005000D03*
X73862500Y-69908100D03*
%TO.N,USB_D-*%
X47504100Y-32735000D03*
X74885200Y-74384200D03*
X72535100Y-66674500D03*
%TO.N,USB_CC2*%
X76750000Y-71917900D03*
X71478800Y-67825000D03*
%TO.N,RS485_B*%
X111181400Y-60249500D03*
%TO.N,24V_FUSED*%
X32205000Y-64571600D03*
X40000000Y-64576600D03*
%TO.N,24V_RAW*%
X25787900Y-66000000D03*
%TO.N,RH_OUT*%
X97789300Y-45010500D03*
%TO.N,RS485_RX*%
X65002500Y-22575000D03*
X101879400Y-58196800D03*
%TO.N,RS485_DE*%
X98817400Y-59365000D03*
X65004100Y-18765000D03*
%TO.N,RS485_TX*%
X98987600Y-61235800D03*
X65004100Y-21305000D03*
%TO.N,C6_BOOT*%
X74345600Y-43000000D03*
X65014700Y-34005000D03*
%TO.N,BOOT*%
X53225000Y-59001000D03*
X53002900Y-64365000D03*
%TO.N,PWR_GOOD*%
X48989800Y-58162500D03*
X47100000Y-67707300D03*
%TO.N,STATUS_LED*%
X47885500Y-28912500D03*
X76440600Y-39265800D03*
X58360200Y-38193200D03*
%TO.N,VCC_BYP*%
X53003500Y-65886800D03*
X46961300Y-71088700D03*
%TD*%
%TO.N,24V_PROT*%
D20*
X30000000Y-41826800D02*
X30000000Y-38000000D01*
X37773200Y-67773100D02*
X37773200Y-56400000D01*
X37773200Y-56400000D02*
X41173200Y-53000000D01*
X41173200Y-53000000D02*
X30000000Y-41826800D01*
%TO.N,GND*%
X56100000Y-24093300D02*
X56100000Y-24905000D01*
X62477500Y-17715800D02*
X56100000Y-24093300D01*
X46359500Y-71397000D02*
X51967600Y-77005100D01*
X110000000Y-19715600D02*
X110000000Y-28000000D01*
X46848700Y-18389600D02*
X46848700Y-37211400D01*
X111245300Y-18470300D02*
X110000000Y-19715600D01*
X56100000Y-26005000D02*
X56100000Y-24905000D01*
X49346700Y-65346700D02*
X48400000Y-64400000D01*
X92734900Y-46157700D02*
X92734900Y-52000000D01*
X109700000Y-19600000D02*
X111245300Y-18470300D01*
X48400000Y-66800000D02*
X48400000Y-65700000D01*
X48400000Y-67258300D02*
X46359500Y-69298800D01*
X19270000Y-51730000D02*
X16000000Y-55000000D01*
X53900000Y-27105000D02*
X53900000Y-26005000D01*
X49600000Y-66800000D02*
X49600000Y-65700000D01*
X49346700Y-65521100D02*
X49346700Y-65346700D01*
X79320000Y-78250000D02*
X79320000Y-74070000D01*
X66537500Y-45237500D02*
X66537500Y-48154600D01*
X47811200Y-38173900D02*
X47811200Y-51494200D01*
X48400000Y-66800000D02*
X48400000Y-67258300D01*
X53900000Y-26005000D02*
X53900000Y-24905000D01*
X92622800Y-46045600D02*
X92734900Y-46157700D01*
X53900000Y-24905000D02*
X53900000Y-24093300D01*
X56100000Y-27105000D02*
X56100000Y-26005000D01*
X48400000Y-65700000D02*
X49167800Y-65700000D01*
X49167800Y-65700000D02*
X49346700Y-65521100D01*
X76323400Y-57940500D02*
X76890500Y-57940500D01*
X46359500Y-69298800D02*
X46359500Y-71397000D01*
X53900000Y-24093300D02*
X47522500Y-17715800D01*
X66537500Y-48154600D02*
X76323400Y-57940500D01*
X51967600Y-77005100D02*
X54464200Y-77005100D01*
X47811200Y-51494200D02*
X46992900Y-52312500D01*
X47522500Y-17715800D02*
X46848700Y-18389600D01*
X70680000Y-78250000D02*
X70680000Y-74070000D01*
X19270000Y-46000000D02*
X19270000Y-51730000D01*
X48400000Y-64400000D02*
X48400000Y-63200000D01*
X46848700Y-37211400D02*
X47811200Y-38173900D01*
%TO.N,SYS_5V*%
X77326500Y-62062300D02*
X77874800Y-62062300D01*
X86451500Y-74665700D02*
X92141800Y-74665700D01*
X53544500Y-67850500D02*
X53653800Y-67741200D01*
X77874800Y-62062300D02*
X77874800Y-66089000D01*
X49622700Y-57822700D02*
X38000000Y-46200000D01*
X53653800Y-67741200D02*
X53653800Y-65676800D01*
X53653800Y-65676800D02*
X53124300Y-65147300D01*
X77874800Y-66089000D02*
X86451500Y-74665700D01*
X53124300Y-65147300D02*
X52911200Y-65147300D01*
X54925500Y-73622100D02*
X53544500Y-72241100D01*
X70632100Y-55367900D02*
X77326500Y-62062300D01*
X92141800Y-74665700D02*
X92307500Y-74500000D01*
X52911200Y-65147300D02*
X49622700Y-61858800D01*
X53544500Y-72241100D02*
X53544500Y-67850500D01*
X49622700Y-61858800D02*
X49622700Y-57822700D01*
X57622100Y-73622100D02*
X54925500Y-73622100D01*
X38000000Y-46200000D02*
X38000000Y-38000000D01*
%TO.N,OPAMP_OUT*%
X93429500Y-46000000D02*
X91671000Y-44241500D01*
X97252300Y-46000000D02*
X93429500Y-46000000D01*
%TO.N,+3V3*%
X69279300Y-45209800D02*
X69279300Y-45209900D01*
X111238300Y-21536700D02*
X111835200Y-22133600D01*
X44995900Y-37995900D02*
X44995900Y-18765000D01*
X67380800Y-45209800D02*
X69279300Y-45209800D01*
X111835200Y-22133600D02*
X111835200Y-42221800D01*
X46000000Y-39000000D02*
X44995900Y-37995900D01*
X64175000Y-42004000D02*
X67380800Y-45209800D01*
X111835200Y-42221800D02*
X98820600Y-55236400D01*
%TO.N,5V_BUCK*%
X58760300Y-63461700D02*
X50736800Y-55438200D01*
X58760300Y-63461700D02*
X61742400Y-63461700D01*
X54175000Y-72018300D02*
X54175000Y-68047000D01*
X54175000Y-68047000D02*
X58760300Y-63461700D01*
X61742400Y-63461700D02*
X63280700Y-65000000D01*
%TO.N,C6_EN*%
X63965200Y-44584800D02*
X64240000Y-44584800D01*
X60061700Y-40681300D02*
X63965200Y-44584800D01*
X49113600Y-26955600D02*
X60061700Y-37903700D01*
X60061700Y-37903700D02*
X60061700Y-40681300D01*
%TO.N,I2C_SDA*%
X104563300Y-17261700D02*
X84138700Y-37686300D01*
X84138700Y-37686300D02*
X84138700Y-47770200D01*
X47282200Y-30664200D02*
X54000000Y-37382000D01*
X106200000Y-19600000D02*
X104563300Y-17261700D01*
X47282200Y-24066900D02*
X47282200Y-30664200D01*
X47504100Y-23845000D02*
X47282200Y-24066900D01*
X54000000Y-37382000D02*
X54000000Y-40000000D01*
%TO.N,I2C_SCL*%
X98000100Y-28307300D02*
X104566200Y-21741200D01*
X62000000Y-40000000D02*
X62000000Y-38991100D01*
X106200000Y-20800000D02*
X98000100Y-28307300D01*
X85305500Y-46329100D02*
X98000100Y-33634500D01*
X48123900Y-25115000D02*
X47883900Y-25115000D01*
X98000100Y-33634500D02*
X98000100Y-28307300D01*
X62000000Y-38991100D02*
X48123900Y-25115000D01*
%TO.N,ONEWIRE*%
X88500000Y-60896600D02*
X74947400Y-47344000D01*
X88500000Y-73198300D02*
X88500000Y-60896600D01*
X74947400Y-47344000D02*
X74947400Y-36330700D01*
X74947400Y-36330700D02*
X65001700Y-26385000D01*
%TO.N,EXP_GPIO4*%
X85338700Y-59394600D02*
X85338700Y-72416900D01*
X47504100Y-21560000D02*
X85338700Y-59394600D01*
X85338700Y-72416900D02*
X86784100Y-73862300D01*
X86784100Y-73862300D02*
X88839900Y-73862300D01*
X88839900Y-73862300D02*
X89500000Y-73202200D01*
X47504100Y-21305000D02*
X47504100Y-21560000D01*
%TO.N,EXP_GPIO5*%
X89441100Y-74264000D02*
X90500000Y-73205100D01*
X84895700Y-59966600D02*
X84895700Y-72541900D01*
X86617800Y-74264000D02*
X89441100Y-74264000D01*
X84895700Y-72541900D02*
X86617800Y-74264000D01*
X47504100Y-22575000D02*
X84895700Y-59966600D01*
%TO.N,VISO*%
X108320400Y-57460000D02*
X108320400Y-62422100D01*
X108320400Y-62422100D02*
X110981900Y-65083600D01*
%TO.N,RS485_COM*%
X115000000Y-36000000D02*
X116970200Y-37970200D01*
X107834900Y-70125400D02*
X112361300Y-65599000D01*
X116970200Y-37970200D02*
X116970200Y-48163000D01*
X116970200Y-48163000D02*
X112361300Y-52771900D01*
X112361300Y-65599000D02*
X112361300Y-52771900D01*
%TO.N,RS485_A*%
X108295000Y-49705000D02*
X115000000Y-43000000D01*
X108295000Y-56155800D02*
X108295000Y-49705000D01*
%TO.N,USB_CC1*%
X70406100Y-68565200D02*
X73750000Y-71909100D01*
X68740200Y-68565200D02*
X70406100Y-68565200D01*
%TO.N,TEMP_KTY*%
X17173300Y-46000000D02*
X14437700Y-48735600D01*
X18000000Y-46000000D02*
X17173300Y-46000000D01*
X14437700Y-60437700D02*
X16000000Y-62000000D01*
X14437700Y-48735600D02*
X14437700Y-60437700D01*
%TO.N,USB_D+*%
X47504100Y-34005000D02*
X51321300Y-37822200D01*
X72679900Y-69908100D02*
X73862500Y-69908100D01*
X51321300Y-48549500D02*
X72679900Y-69908100D01*
X51321300Y-37822200D02*
X51321300Y-48549500D01*
%TO.N,USB_D-*%
X52166500Y-46305900D02*
X72535100Y-66674500D01*
X52166500Y-37397400D02*
X52166500Y-46305900D01*
X47504100Y-32735000D02*
X52166500Y-37397400D01*
%TO.N,USB_CC2*%
X72657100Y-67825000D02*
X71478800Y-67825000D01*
X76750000Y-71917900D02*
X72657100Y-67825000D01*
%TO.N,RS485_B*%
X111181400Y-49620600D02*
X111181400Y-60249500D01*
X116563300Y-41063300D02*
X116563300Y-44238700D01*
X116563300Y-44238700D02*
X111181400Y-49620600D01*
X115000000Y-39500000D02*
X116563300Y-41063300D01*
%TO.N,24V_RAW*%
X22000000Y-54787900D02*
X18287900Y-58500000D01*
X16000000Y-58500000D02*
X18287900Y-58500000D01*
X22000000Y-38000000D02*
X22000000Y-54787900D01*
X18287900Y-58500000D02*
X25787900Y-66000000D01*
%TO.N,RS485_RX*%
X78571300Y-36143700D02*
X78571200Y-36143700D01*
X101879400Y-58196800D02*
X100107300Y-59968900D01*
X100107300Y-59968900D02*
X94833200Y-59968900D01*
X78571200Y-36143700D02*
X65002500Y-22575000D01*
X94833200Y-59968900D02*
X78571300Y-43707000D01*
X78571300Y-43707000D02*
X78571300Y-36143700D01*
%TO.N,RS485_DE*%
X82263600Y-46815800D02*
X82263600Y-45411500D01*
X82263600Y-45411500D02*
X80381900Y-43529800D01*
X94812800Y-59365000D02*
X82263600Y-46815800D01*
X98817400Y-59365000D02*
X94812800Y-59365000D01*
X80381900Y-43529800D02*
X80381900Y-34142800D01*
X80381900Y-34142800D02*
X65004100Y-18765000D01*
%TO.N,RS485_TX*%
X64334300Y-21974800D02*
X65004100Y-21305000D01*
X95530200Y-61235800D02*
X78169500Y-43875100D01*
X98987600Y-61235800D02*
X95530200Y-61235800D01*
X64334300Y-22906900D02*
X64334300Y-21974800D01*
X78169500Y-43875100D02*
X78169500Y-36742100D01*
X78169500Y-36742100D02*
X64334300Y-22906900D01*
%TO.N,C6_BOOT*%
X72365000Y-43000000D02*
X65014700Y-35649700D01*
X74345600Y-43000000D02*
X72365000Y-43000000D01*
X65014700Y-35649700D02*
X65014700Y-34005000D01*
%TO.N,BOOT*%
X53633300Y-59409300D02*
X53633300Y-63734600D01*
X53633300Y-63734600D02*
X53002900Y-64365000D01*
X53225000Y-59001000D02*
X53633300Y-59409300D01*
%TO.N,PWR_GOOD*%
X48989800Y-58162500D02*
X47100000Y-60052300D01*
X47100000Y-60052300D02*
X47100000Y-67707300D01*
%TO.N,STATUS_LED*%
X47885500Y-28912500D02*
X57166200Y-38193200D01*
X57166200Y-38193200D02*
X58360200Y-38193200D01*
%TO.N,VCC_BYP*%
X52163100Y-65886900D02*
X53003500Y-65886900D01*
X53003500Y-65886900D02*
X53003500Y-65886800D01*
X46961300Y-71088700D02*
X52163100Y-65886900D01*
%TD*%
M02*
