M48
; DRILL file KiCad 10.0.5 date 2026-08-07T14:37:14
; FORMAT={-:-/ absolute / metric / decimal}
; #@! TF.CreationDate,2026-08-07T14:37:14+02:00
; #@! TF.GenerationSoftware,Kicad,Pcbnew,10.0.5
; #@! TF.FileFunction,Plated,1,4,PTH
FMAT,2
METRIC
; #@! TA.AperFunction,Plated,PTH,ViaDrill
T1C0.300
; #@! TA.AperFunction,Plated,PTH,ComponentDrill
T2C0.300
; #@! TA.AperFunction,Plated,PTH,ViaDrill
T3C0.400
; #@! TA.AperFunction,Plated,PTH,ComponentDrill
T4C0.600
; #@! TA.AperFunction,Plated,PTH,ComponentDrill
T5C0.750
; #@! TA.AperFunction,Plated,PTH,ComponentDrill
T6C1.200
; #@! TA.AperFunction,Plated,PTH,ComponentDrill
T7C2.000
%
G90
G05
T1
X25.788Y-66.0
X32.205Y-64.572
X36.327Y-75.712
X37.773Y-67.773
X40.0Y-64.577
X41.173Y-53.0
X44.996Y-18.765
X46.961Y-71.089
X46.993Y-52.312
X47.1Y-67.707
X47.504Y-21.305
X47.504Y-22.575
X47.504Y-23.845
X47.504Y-32.735
X47.504Y-34.005
X47.511Y-20.159
X47.523Y-17.716
X47.884Y-25.115
X47.886Y-28.912
X48.99Y-58.162
X49.114Y-26.956
X50.737Y-55.438
X53.003Y-64.365
X53.003Y-65.887
X53.225Y-59.001
X54.175Y-72.018
X54.464Y-77.005
X57.622Y-73.622
X58.36Y-38.193
X62.477Y-17.716
X63.281Y-65.0
X64.175Y-42.004
X64.24Y-44.585
X64.78Y-75.712
X65.002Y-26.385
X65.002Y-22.575
X65.004Y-18.765
X65.004Y-21.305
X65.015Y-34.005
X66.537Y-45.237
X68.74Y-68.565
X69.279Y-45.21
X70.632Y-55.368
X71.479Y-67.825
X72.535Y-66.674
X73.207Y-74.413
X73.75Y-71.909
X73.862Y-69.908
X74.346Y-43.0
X74.885Y-74.384
X76.441Y-39.266
X76.75Y-71.918
X76.891Y-57.941
X77.875Y-62.062
X80.683Y-44.943
X84.139Y-47.77
X85.305Y-46.329
X86.568Y-72.791
X87.5Y-73.218
X88.5Y-73.198
X89.5Y-73.202
X89.673Y-46.601
X90.5Y-73.205
X91.671Y-44.241
X92.307Y-74.5
X92.623Y-46.046
X92.735Y-52.0
X93.138Y-43.284
X97.252Y-46.0
X97.789Y-45.011
X98.817Y-59.365
X98.821Y-55.236
X98.988Y-61.236
X101.879Y-58.197
X104.563Y-17.262
X104.566Y-21.741
X107.835Y-70.125
X108.295Y-56.156
X108.32Y-57.46
X110.982Y-65.084
X111.181Y-60.249
X111.238Y-21.537
X111.245Y-18.47
X112.361Y-52.772
T2
X48.4Y-63.2
X48.4Y-64.4
X48.4Y-65.7
X48.4Y-66.8
X49.6Y-63.2
X49.6Y-64.4
X49.6Y-65.7
X49.6Y-66.8
X53.9Y-24.905
X53.9Y-26.005
X53.9Y-27.105
X55.0Y-24.905
X55.0Y-26.005
X55.0Y-27.105
X56.1Y-24.905
X56.1Y-26.005
X56.1Y-27.105
T3
X106.2Y-19.6
X106.2Y-20.8
X109.7Y-19.6
T5
X18.0Y-46.0
X19.27Y-46.0
X20.54Y-46.0
T6
X16.0Y-51.5
X16.0Y-55.0
X16.0Y-58.5
X16.0Y-62.0
X115.0Y-32.5
X115.0Y-36.0
X115.0Y-39.5
X115.0Y-43.0
T7
X22.0Y-38.0
X30.0Y-38.0
X38.0Y-38.0
X46.0Y-39.0
X54.0Y-40.0
X62.0Y-40.0
X70.0Y-38.0
X83.0Y-35.0
X86.0Y-31.0
X94.0Y-31.0
X102.0Y-31.0
X110.0Y-28.0
T4
X70.68Y-73.52G85X70.68Y-74.62
G05
X70.68Y-77.95G85X70.68Y-78.55
G05
X79.32Y-73.52G85X79.32Y-74.62
G05
X79.32Y-77.95G85X79.32Y-78.55
G05
M30
