%TF.GenerationSoftware,KiCad,Pcbnew,10.0.5*%
%TF.CreationDate,2026-08-07T14:54:15+02:00*%
%TF.ProjectId,IDM-RoomSensor-ESP-B-ES2-C6,49444d2d-526f-46f6-9d53-656e736f722d,rev?*%
%TF.SameCoordinates,Original*%
%TF.FileFunction,Copper,L1,Top*%
%TF.FilePolarity,Positive*%
%FSLAX46Y46*%
G04 Gerber Fmt 4.6, Leading zero omitted, Abs format (unit mm)*
G04 Created by KiCad (PCBNEW 10.0.5) date 2026-08-07 14:54:15*
%MOMM*%
%LPD*%
G01*
G04 APERTURE LIST*
G04 Aperture macros list*
%AMRoundRect*
0 Rectangle with rounded corners*
0 $1 Rounding radius*
0 $2 $3 $4 $5 $6 $7 $8 $9 X,Y pos of 4 corners*
0 Add a 4 corners polygon primitive as box body*
4,1,4,$2,$3,$4,$5,$6,$7,$8,$9,$2,$3,0*
0 Add four circle primitives for the rounded corners*
1,1,$1+$1,$2,$3*
1,1,$1+$1,$4,$5*
1,1,$1+$1,$6,$7*
1,1,$1+$1,$8,$9*
0 Add four rect primitives between the rounded corners*
20,1,$1+$1,$2,$3,$4,$5,0*
20,1,$1+$1,$4,$5,$6,$7,0*
20,1,$1+$1,$6,$7,$8,$9,0*
20,1,$1+$1,$8,$9,$2,$3,0*%
G04 Aperture macros list end*
%TA.AperFunction,SMDPad,CuDef*%
%ADD10RoundRect,0.250000X-0.250000X-0.475000X0.250000X-0.475000X0.250000X0.475000X-0.250000X0.475000X0*%
%TD*%
%TA.AperFunction,SMDPad,CuDef*%
%ADD11RoundRect,0.150000X-0.512500X-0.150000X0.512500X-0.150000X0.512500X0.150000X-0.512500X0.150000X0*%
%TD*%
%TA.AperFunction,SMDPad,CuDef*%
%ADD12R,2.700000X3.600000*%
%TD*%
%TA.AperFunction,SMDPad,CuDef*%
%ADD13RoundRect,0.200000X-0.200000X-0.275000X0.200000X-0.275000X0.200000X0.275000X-0.200000X0.275000X0*%
%TD*%
%TA.AperFunction,SMDPad,CuDef*%
%ADD14RoundRect,0.225000X-0.225000X-0.250000X0.225000X-0.250000X0.225000X0.250000X-0.225000X0.250000X0*%
%TD*%
%TA.AperFunction,SMDPad,CuDef*%
%ADD15RoundRect,0.150000X-0.150000X-0.625000X0.150000X-0.625000X0.150000X0.625000X-0.150000X0.625000X0*%
%TD*%
%TA.AperFunction,SMDPad,CuDef*%
%ADD16RoundRect,0.250000X-0.350000X-0.650000X0.350000X-0.650000X0.350000X0.650000X-0.350000X0.650000X0*%
%TD*%
%TA.AperFunction,ComponentPad*%
%ADD17C,3.000000*%
%TD*%
%TA.AperFunction,SMDPad,CuDef*%
%ADD18RoundRect,0.250000X-0.325000X-0.650000X0.325000X-0.650000X0.325000X0.650000X-0.325000X0.650000X0*%
%TD*%
%TA.AperFunction,SMDPad,CuDef*%
%ADD19RoundRect,0.200000X0.275000X-0.200000X0.275000X0.200000X-0.275000X0.200000X-0.275000X-0.200000X0*%
%TD*%
%TA.AperFunction,SMDPad,CuDef*%
%ADD20RoundRect,0.150000X-0.150000X-0.575000X0.150000X-0.575000X0.150000X0.575000X-0.150000X0.575000X0*%
%TD*%
%TA.AperFunction,SMDPad,CuDef*%
%ADD21RoundRect,0.075000X-0.075000X-0.650000X0.075000X-0.650000X0.075000X0.650000X-0.075000X0.650000X0*%
%TD*%
%TA.AperFunction,ComponentPad*%
%ADD22O,1.000000X2.100000*%
%TD*%
%TA.AperFunction,ComponentPad*%
%ADD23O,1.000000X1.600000*%
%TD*%
%TA.AperFunction,SMDPad,CuDef*%
%ADD24RoundRect,0.250000X-1.000000X-0.650000X1.000000X-0.650000X1.000000X0.650000X-1.000000X0.650000X0*%
%TD*%
%TA.AperFunction,SMDPad,CuDef*%
%ADD25RoundRect,0.250000X-0.325000X-1.100000X0.325000X-1.100000X0.325000X1.100000X-0.325000X1.100000X0*%
%TD*%
%TA.AperFunction,ComponentPad*%
%ADD26RoundRect,0.250001X0.949999X-0.949999X0.949999X0.949999X-0.949999X0.949999X-0.949999X-0.949999X0*%
%TD*%
%TA.AperFunction,ComponentPad*%
%ADD27C,2.400000*%
%TD*%
%TA.AperFunction,SMDPad,CuDef*%
%ADD28RoundRect,0.225000X0.250000X-0.225000X0.250000X0.225000X-0.250000X0.225000X-0.250000X-0.225000X0*%
%TD*%
%TA.AperFunction,SMDPad,CuDef*%
%ADD29RoundRect,0.218750X-0.218750X-0.256250X0.218750X-0.256250X0.218750X0.256250X-0.218750X0.256250X0*%
%TD*%
%TA.AperFunction,SMDPad,CuDef*%
%ADD30R,1.500000X1.000000*%
%TD*%
%TA.AperFunction,SMDPad,CuDef*%
%ADD31RoundRect,0.250000X0.625000X-0.312500X0.625000X0.312500X-0.625000X0.312500X-0.625000X-0.312500X0*%
%TD*%
%TA.AperFunction,SMDPad,CuDef*%
%ADD32RoundRect,0.250000X0.900000X-1.000000X0.900000X1.000000X-0.900000X1.000000X-0.900000X-1.000000X0*%
%TD*%
%TA.AperFunction,SMDPad,CuDef*%
%ADD33RoundRect,0.150000X-0.875000X-0.150000X0.875000X-0.150000X0.875000X0.150000X-0.875000X0.150000X0*%
%TD*%
%TA.AperFunction,ComponentPad*%
%ADD34R,1.050000X1.500000*%
%TD*%
%TA.AperFunction,ComponentPad*%
%ADD35O,1.050000X1.500000*%
%TD*%
%TA.AperFunction,SMDPad,CuDef*%
%ADD36RoundRect,0.218750X-0.218750X-0.381250X0.218750X-0.381250X0.218750X0.381250X-0.218750X0.381250X0*%
%TD*%
%TA.AperFunction,SMDPad,CuDef*%
%ADD37R,0.900000X1.700000*%
%TD*%
%TA.AperFunction,SMDPad,CuDef*%
%ADD38R,0.500000X0.300000*%
%TD*%
%TA.AperFunction,SMDPad,CuDef*%
%ADD39RoundRect,0.250000X-0.312500X-1.450000X0.312500X-1.450000X0.312500X1.450000X-0.312500X1.450000X0*%
%TD*%
%TA.AperFunction,SMDPad,CuDef*%
%ADD40R,1.500000X0.900000*%
%TD*%
%TA.AperFunction,ComponentPad*%
%ADD41C,0.600000*%
%TD*%
%TA.AperFunction,SMDPad,CuDef*%
%ADD42R,3.300000X3.300000*%
%TD*%
%TA.AperFunction,SMDPad,CuDef*%
%ADD43R,1.550000X0.600000*%
%TD*%
%TA.AperFunction,SMDPad,CuDef*%
%ADD44R,2.600000X3.100000*%
%TD*%
%TA.AperFunction,SMDPad,CuDef*%
%ADD45R,2.950000X4.500000*%
%TD*%
%TA.AperFunction,ViaPad*%
%ADD46C,0.600000*%
%TD*%
%TA.AperFunction,ViaPad*%
%ADD47C,0.800000*%
%TD*%
%TA.AperFunction,Conductor*%
%ADD48C,0.200000*%
%TD*%
G04 APERTURE END LIST*
D10*
%TO.P,C2,1*%
%TO.N,24V_PROT*%
X44050000Y-53000000D03*
%TO.P,C2,2*%
%TO.N,GND*%
X45950000Y-53000000D03*
%TD*%
%TO.P,C7,1*%
%TO.N,SYS_5V*%
X76050000Y-59000000D03*
%TO.P,C7,2*%
%TO.N,GND*%
X77950000Y-59000000D03*
%TD*%
D11*
%TO.P,U6,1*%
%TO.N,OPAMP_OUT*%
X90862500Y-45050000D03*
%TO.P,U6,2*%
%TO.N,GND*%
X90862500Y-46000000D03*
%TO.P,U6,3*%
%TO.N,DAC_RAW*%
X90862500Y-46950000D03*
%TO.P,U6,4*%
%TO.N,OPAMP_FB*%
X93137500Y-46950000D03*
%TO.P,U6,5*%
%TO.N,24V_PROT*%
X93137500Y-45050000D03*
%TD*%
D10*
%TO.P,C8,1*%
%TO.N,+3V3*%
X83050000Y-59000000D03*
%TO.P,C8,2*%
%TO.N,GND*%
X84950000Y-59000000D03*
%TD*%
D12*
%TO.P,L1,1*%
%TO.N,SW*%
X56850000Y-65000000D03*
%TO.P,L1,2*%
%TO.N,5V_BUCK*%
X65150000Y-65000000D03*
%TD*%
D13*
%TO.P,R10,1*%
%TO.N,OPAMP_FB*%
X90175000Y-52000000D03*
%TO.P,R10,2*%
%TO.N,GND*%
X91825000Y-52000000D03*
%TD*%
D14*
%TO.P,C9,1*%
%TO.N,C6_EN*%
X64225000Y-46000000D03*
%TO.P,C9,2*%
%TO.N,GND*%
X65775000Y-46000000D03*
%TD*%
D11*
%TO.P,U5,1*%
%TO.N,DAC_RAW*%
X81862500Y-45050000D03*
%TO.P,U5,2*%
%TO.N,GND*%
X81862500Y-46000000D03*
%TO.P,U5,3*%
%TO.N,+3V3*%
X81862500Y-46950000D03*
%TO.P,U5,4*%
%TO.N,I2C_SDA*%
X84137500Y-46950000D03*
%TO.P,U5,5*%
%TO.N,I2C_SCL*%
X84137500Y-46000000D03*
%TO.P,U5,6*%
%TO.N,GND*%
X84137500Y-45050000D03*
%TD*%
D15*
%TO.P,J4,1*%
%TO.N,+3V3*%
X84500000Y-74500000D03*
%TO.P,J4,2*%
%TO.N,GND*%
X85500000Y-74500000D03*
%TO.P,J4,3*%
%TO.N,I2C_SDA*%
X86500000Y-74500000D03*
%TO.P,J4,4*%
%TO.N,I2C_SCL*%
X87500000Y-74500000D03*
%TO.P,J4,5*%
%TO.N,ONEWIRE*%
X88500000Y-74500000D03*
%TO.P,J4,6*%
%TO.N,EXP_GPIO4*%
X89500000Y-74500000D03*
%TO.P,J4,7*%
%TO.N,EXP_GPIO5*%
X90500000Y-74500000D03*
%TO.P,J4,8*%
%TO.N,SYS_5V*%
X91500000Y-74500000D03*
D16*
%TO.P,J4,MP*%
%TO.N,N/C*%
X83200000Y-78375000D03*
X92800000Y-78375000D03*
%TD*%
D10*
%TO.P,C14,1*%
%TO.N,+3V3*%
X95050000Y-58000000D03*
%TO.P,C14,2*%
%TO.N,GND*%
X96950000Y-58000000D03*
%TD*%
%TO.P,C18,1*%
%TO.N,VISO*%
X112050000Y-57000000D03*
%TO.P,C18,2*%
%TO.N,RS485_COM*%
X113950000Y-57000000D03*
%TD*%
D17*
%TO.P,TP9,1*%
%TO.N,RS485_A*%
X86000000Y-31000000D03*
%TD*%
D18*
%TO.P,C6,1*%
%TO.N,5V_BUCK*%
X69525000Y-64000000D03*
%TO.P,C6,2*%
%TO.N,GND*%
X72475000Y-64000000D03*
%TD*%
D17*
%TO.P,TP12,1*%
%TO.N,GND*%
X110000000Y-28000000D03*
%TD*%
D19*
%TO.P,R4,1*%
%TO.N,USB_CC1*%
X68000000Y-67825000D03*
%TO.P,R4,2*%
%TO.N,GND*%
X68000000Y-66175000D03*
%TD*%
D17*
%TO.P,TP8,1*%
%TO.N,TEMP_KTY*%
X83000000Y-35000000D03*
%TD*%
D10*
%TO.P,C17,1*%
%TO.N,VISO*%
X112050000Y-54000000D03*
%TO.P,C17,2*%
%TO.N,RS485_COM*%
X113950000Y-54000000D03*
%TD*%
D20*
%TO.P,J3,A1*%
%TO.N,GND*%
X71750000Y-73155000D03*
%TO.P,J3,A4*%
%TO.N,USB_5V*%
X72550000Y-73155000D03*
D21*
%TO.P,J3,A5*%
%TO.N,USB_CC1*%
X73750000Y-73155000D03*
%TO.P,J3,A6*%
%TO.N,USB_D+*%
X74750000Y-73155000D03*
%TO.P,J3,A7*%
%TO.N,USB_D-*%
X75250000Y-73155000D03*
%TO.P,J3,A8*%
%TO.N,N/C*%
X76250000Y-73155000D03*
D20*
%TO.P,J3,A9*%
%TO.N,USB_5V*%
X77450000Y-73155000D03*
%TO.P,J3,A12*%
%TO.N,GND*%
X78250000Y-73155000D03*
%TO.P,J3,B1*%
X78250000Y-73155000D03*
%TO.P,J3,B4*%
%TO.N,USB_5V*%
X77450000Y-73155000D03*
D21*
%TO.P,J3,B5*%
%TO.N,USB_CC2*%
X76750000Y-73155000D03*
%TO.P,J3,B6*%
%TO.N,USB_D+*%
X75750000Y-73155000D03*
%TO.P,J3,B7*%
%TO.N,USB_D-*%
X74250000Y-73155000D03*
%TO.P,J3,B8*%
%TO.N,N/C*%
X73250000Y-73155000D03*
D20*
%TO.P,J3,B9*%
%TO.N,USB_5V*%
X72550000Y-73155000D03*
%TO.P,J3,B12*%
%TO.N,GND*%
X71750000Y-73155000D03*
D22*
%TO.P,J3,SH*%
X70680000Y-74070000D03*
D23*
X70680000Y-78250000D03*
D22*
X79320000Y-74070000D03*
D23*
X79320000Y-78250000D03*
%TD*%
D17*
%TO.P,TP3,1*%
%TO.N,SYS_5V*%
X38000000Y-38000000D03*
%TD*%
D13*
%TO.P,R9,1*%
%TO.N,OPAMP_OUT*%
X95175000Y-50000000D03*
%TO.P,R9,2*%
%TO.N,OPAMP_FB*%
X96825000Y-50000000D03*
%TD*%
D17*
%TO.P,TP10,1*%
%TO.N,RS485_B*%
X94000000Y-31000000D03*
%TD*%
%TO.P,TP6,1*%
%TO.N,I2C_SCL*%
X62000000Y-40000000D03*
%TD*%
D24*
%TO.P,D1,1*%
%TO.N,24V_PROT*%
X36000000Y-66000000D03*
%TO.P,D1,2*%
%TO.N,24V_FUSED*%
X40000000Y-66000000D03*
%TD*%
D17*
%TO.P,TP4,1*%
%TO.N,+3V3*%
X46000000Y-39000000D03*
%TD*%
D25*
%TO.P,C1,1*%
%TO.N,24V_PROT*%
X39525000Y-56000000D03*
%TO.P,C1,2*%
%TO.N,GND*%
X42475000Y-56000000D03*
%TD*%
D10*
%TO.P,C15,1*%
%TO.N,+3V3*%
X95050000Y-61000000D03*
%TO.P,C15,2*%
%TO.N,GND*%
X96950000Y-61000000D03*
%TD*%
D18*
%TO.P,C5,1*%
%TO.N,5V_BUCK*%
X69525000Y-59000000D03*
%TO.P,C5,2*%
%TO.N,GND*%
X72475000Y-59000000D03*
%TD*%
D17*
%TO.P,TP2,1*%
%TO.N,24V_PROT*%
X30000000Y-38000000D03*
%TD*%
D26*
%TO.P,J1,1*%
%TO.N,TEMP_KTY*%
X16000000Y-62000000D03*
D27*
%TO.P,J1,2*%
%TO.N,24V_RAW*%
X16000000Y-58500000D03*
%TO.P,J1,3*%
%TO.N,GND*%
X16000000Y-55000000D03*
%TO.P,J1,4*%
%TO.N,RH_OUT*%
X16000000Y-51500000D03*
%TD*%
D28*
%TO.P,C10,1*%
%TO.N,+3V3*%
X112000000Y-20775000D03*
%TO.P,C10,2*%
%TO.N,GND*%
X112000000Y-19225000D03*
%TD*%
D13*
%TO.P,R2,1*%
%TO.N,BUCK_FB*%
X54175000Y-76000000D03*
%TO.P,R2,2*%
%TO.N,GND*%
X55825000Y-76000000D03*
%TD*%
D29*
%TO.P,LED1,1*%
%TO.N,STATUS_LED_R*%
X81212500Y-40000000D03*
%TO.P,LED1,2*%
%TO.N,GND*%
X82787500Y-40000000D03*
%TD*%
D10*
%TO.P,C16,1*%
%TO.N,+3V3*%
X95050000Y-64000000D03*
%TO.P,C16,2*%
%TO.N,GND*%
X96950000Y-64000000D03*
%TD*%
D13*
%TO.P,R6,1*%
%TO.N,+3V3*%
X64175000Y-43000000D03*
%TO.P,R6,2*%
%TO.N,C6_EN*%
X65825000Y-43000000D03*
%TD*%
D30*
%TO.P,JP1,1*%
%TO.N,RS485_TERM*%
X116000000Y-63650000D03*
%TO.P,JP1,2*%
%TO.N,RS485_B*%
X116000000Y-62350000D03*
%TD*%
D31*
%TO.P,R12,1*%
%TO.N,RS485_A*%
X113000000Y-64462500D03*
%TO.P,R12,2*%
%TO.N,RS485_TERM*%
X113000000Y-61537500D03*
%TD*%
D32*
%TO.P,TVS1,1*%
%TO.N,GND*%
X38000000Y-75150000D03*
%TO.P,TVS1,2*%
%TO.N,24V_PROT*%
X38000000Y-70850000D03*
%TD*%
D24*
%TO.P,D2,1*%
%TO.N,SYS_5V*%
X72000000Y-54000000D03*
%TO.P,D2,2*%
%TO.N,5V_BUCK*%
X76000000Y-54000000D03*
%TD*%
D33*
%TO.P,U7,1*%
%TO.N,GND*%
X100350000Y-54285000D03*
%TO.P,U7,2*%
%TO.N,+3V3*%
X100350000Y-55555000D03*
%TO.P,U7,3*%
%TO.N,GND*%
X100350000Y-56825000D03*
%TO.P,U7,4*%
%TO.N,RS485_RX*%
X100350000Y-58095000D03*
%TO.P,U7,5*%
%TO.N,RS485_DE*%
X100350000Y-59365000D03*
%TO.P,U7,6*%
X100350000Y-60635000D03*
%TO.P,U7,7*%
%TO.N,RS485_TX*%
X100350000Y-61905000D03*
%TO.P,U7,8*%
%TO.N,+3V3*%
X100350000Y-63175000D03*
%TO.P,U7,9*%
%TO.N,GND*%
X100350000Y-64445000D03*
%TO.P,U7,10*%
X100350000Y-65715000D03*
%TO.P,U7,11*%
%TO.N,ISO_GND_PWR*%
X109650000Y-65715000D03*
%TO.P,U7,12*%
%TO.N,VISO*%
X109650000Y-64445000D03*
%TO.P,U7,13*%
%TO.N,RS485_A*%
X109650000Y-63175000D03*
%TO.P,U7,14*%
%TO.N,ISO_GND_PWR*%
X109650000Y-61905000D03*
%TO.P,U7,15*%
%TO.N,RS485_B*%
X109650000Y-60635000D03*
%TO.P,U7,16*%
%TO.N,RS485_COM*%
X109650000Y-59365000D03*
%TO.P,U7,17*%
%TO.N,RS485_B*%
X109650000Y-58095000D03*
%TO.P,U7,18*%
%TO.N,RS485_A*%
X109650000Y-56825000D03*
%TO.P,U7,19*%
%TO.N,VISO*%
X109650000Y-55555000D03*
%TO.P,U7,20*%
%TO.N,RS485_COM*%
X109650000Y-54285000D03*
%TD*%
D34*
%TO.P,RTH1,1*%
%TO.N,TEMP_KTY*%
X18000000Y-46000000D03*
D35*
%TO.P,RTH1,2*%
%TO.N,GND*%
X19270000Y-46000000D03*
%TO.P,RTH1,3*%
%TO.N,N/C*%
X20540000Y-46000000D03*
%TD*%
D17*
%TO.P,TP5,1*%
%TO.N,I2C_SDA*%
X54000000Y-40000000D03*
%TD*%
D36*
%TO.P,FB1,1*%
%TO.N,ISO_GND_PWR*%
X104937500Y-71000000D03*
%TO.P,FB1,2*%
%TO.N,RS485_COM*%
X107062500Y-71000000D03*
%TD*%
D11*
%TO.P,ESD1,1*%
%TO.N,USB_D-*%
X73862500Y-67050000D03*
%TO.P,ESD1,2*%
%TO.N,GND*%
X73862500Y-68000000D03*
%TO.P,ESD1,3*%
%TO.N,USB_D+*%
X73862500Y-68950000D03*
%TO.P,ESD1,4*%
X76137500Y-68950000D03*
%TO.P,ESD1,5*%
%TO.N,USB_5V*%
X76137500Y-68000000D03*
%TO.P,ESD1,6*%
%TO.N,USB_D-*%
X76137500Y-67050000D03*
%TD*%
D28*
%TO.P,C13,1*%
%TO.N,RH_OUT*%
X102000000Y-46775000D03*
%TO.P,C13,2*%
%TO.N,GND*%
X102000000Y-45225000D03*
%TD*%
D13*
%TO.P,R1,1*%
%TO.N,5V_BUCK*%
X54175000Y-73000000D03*
%TO.P,R1,2*%
%TO.N,BUCK_FB*%
X55825000Y-73000000D03*
%TD*%
D37*
%TO.P,SW2,1*%
%TO.N,C6_BOOT*%
X75300000Y-43000000D03*
%TO.P,SW2,2*%
%TO.N,GND*%
X78700000Y-43000000D03*
%TD*%
D14*
%TO.P,C4,1*%
%TO.N,BOOT*%
X53225000Y-58000000D03*
%TO.P,C4,2*%
%TO.N,SW*%
X54775000Y-58000000D03*
%TD*%
D19*
%TO.P,R3,1*%
%TO.N,PWR_GOOD*%
X50000000Y-57825000D03*
%TO.P,R3,2*%
%TO.N,5V_BUCK*%
X50000000Y-56175000D03*
%TD*%
D13*
%TO.P,R13,1*%
%TO.N,STATUS_LED*%
X77175000Y-40000000D03*
%TO.P,R13,2*%
%TO.N,STATUS_LED_R*%
X78825000Y-40000000D03*
%TD*%
D38*
%TO.P,U4,1*%
%TO.N,I2C_SDA*%
X107300000Y-19600000D03*
%TO.P,U4,2*%
%TO.N,I2C_SCL*%
X107300000Y-20400000D03*
%TO.P,U4,3*%
%TO.N,+3V3*%
X108700000Y-20400000D03*
%TO.P,U4,4*%
%TO.N,GND*%
X108700000Y-19600000D03*
%TD*%
D39*
%TO.P,F1,1*%
%TO.N,24V_RAW*%
X26862500Y-66000000D03*
%TO.P,F1,2*%
%TO.N,24V_FUSED*%
X31137500Y-66000000D03*
%TD*%
D10*
%TO.P,C3,1*%
%TO.N,VCC_BYP*%
X46050000Y-72000000D03*
%TO.P,C3,2*%
%TO.N,GND*%
X47950000Y-72000000D03*
%TD*%
D37*
%TO.P,SW1,1*%
%TO.N,C6_EN*%
X68300000Y-43000000D03*
%TO.P,SW1,2*%
%TO.N,GND*%
X71700000Y-43000000D03*
%TD*%
D14*
%TO.P,C11,1*%
%TO.N,+3V3*%
X80225000Y-50000000D03*
%TO.P,C11,2*%
%TO.N,GND*%
X81775000Y-50000000D03*
%TD*%
D19*
%TO.P,R5,1*%
%TO.N,USB_CC2*%
X70500000Y-67825000D03*
%TO.P,R5,2*%
%TO.N,GND*%
X70500000Y-66175000D03*
%TD*%
D17*
%TO.P,TP7,1*%
%TO.N,RH_OUT*%
X70000000Y-38000000D03*
%TD*%
D13*
%TO.P,R7,1*%
%TO.N,+3V3*%
X102175000Y-18000000D03*
%TO.P,R7,2*%
%TO.N,I2C_SDA*%
X103825000Y-18000000D03*
%TD*%
%TO.P,R11,1*%
%TO.N,OPAMP_OUT*%
X98175000Y-46000000D03*
%TO.P,R11,2*%
%TO.N,RH_OUT*%
X99825000Y-46000000D03*
%TD*%
D40*
%TO.P,U3,1*%
%TO.N,GND*%
X46250000Y-17495000D03*
%TO.P,U3,2*%
%TO.N,+3V3*%
X46250000Y-18765000D03*
%TO.P,U3,3*%
%TO.N,C6_EN*%
X46250000Y-20035000D03*
%TO.P,U3,4*%
%TO.N,EXP_GPIO4*%
X46250000Y-21305001D03*
%TO.P,U3,5*%
%TO.N,EXP_GPIO5*%
X46250000Y-22575001D03*
%TO.P,U3,6*%
%TO.N,I2C_SDA*%
X46250000Y-23844999D03*
%TO.P,U3,7*%
%TO.N,I2C_SCL*%
X46250000Y-25115000D03*
%TO.P,U3,8*%
%TO.N,N/C*%
X46250000Y-26385000D03*
%TO.P,U3,9*%
X46250000Y-27655000D03*
%TO.P,U3,10*%
%TO.N,STATUS_LED*%
X46250000Y-28925000D03*
%TO.P,U3,11*%
%TO.N,N/C*%
X46250000Y-30194999D03*
%TO.P,U3,12*%
X46250000Y-31465000D03*
%TO.P,U3,13*%
%TO.N,USB_D-*%
X46250000Y-32735000D03*
%TO.P,U3,14*%
%TO.N,USB_D+*%
X46250000Y-34005000D03*
%TO.P,U3,15*%
%TO.N,C6_BOOT*%
X63750000Y-34005000D03*
%TO.P,U3,16*%
%TO.N,N/C*%
X63750000Y-32735000D03*
%TO.P,U3,17*%
X63750000Y-31465000D03*
%TO.P,U3,18*%
X63750000Y-30194999D03*
%TO.P,U3,19*%
X63750000Y-28925000D03*
%TO.P,U3,20*%
X63750000Y-27655000D03*
%TO.P,U3,21*%
%TO.N,ONEWIRE*%
X63750000Y-26385000D03*
%TO.P,U3,22*%
%TO.N,N/C*%
X63750000Y-25115000D03*
%TO.P,U3,23*%
X63750000Y-23844999D03*
%TO.P,U3,24*%
%TO.N,RS485_RX*%
X63750000Y-22575001D03*
%TO.P,U3,25*%
%TO.N,RS485_TX*%
X63750000Y-21305001D03*
%TO.P,U3,26*%
%TO.N,N/C*%
X63750000Y-20035000D03*
%TO.P,U3,27*%
%TO.N,RS485_DE*%
X63750000Y-18765000D03*
%TO.P,U3,28*%
%TO.N,GND*%
X63750000Y-17495000D03*
D41*
%TO.P,U3,29*%
X53900000Y-24905000D03*
X53900000Y-26005000D03*
X53900000Y-27105000D03*
X55000000Y-24905000D03*
X55000000Y-26005000D03*
D42*
X55000000Y-26005000D03*
D41*
X55000000Y-27105000D03*
X56100000Y-24905000D03*
X56100000Y-26005000D03*
X56100000Y-27105000D03*
%TD*%
D17*
%TO.P,TP1,1*%
%TO.N,24V_RAW*%
X22000000Y-38000000D03*
%TD*%
D43*
%TO.P,U1,1*%
%TO.N,GND*%
X46300000Y-63095000D03*
%TO.P,U1,2*%
%TO.N,24V_PROT*%
X46300000Y-64365000D03*
%TO.P,U1,3*%
X46300000Y-65635000D03*
%TO.P,U1,4*%
%TO.N,PWR_GOOD*%
X46300000Y-66905000D03*
%TO.P,U1,5*%
%TO.N,BUCK_FB*%
X51700000Y-66905000D03*
%TO.P,U1,6*%
%TO.N,VCC_BYP*%
X51700000Y-65635000D03*
%TO.P,U1,7*%
%TO.N,BOOT*%
X51700000Y-64365000D03*
%TO.P,U1,8*%
%TO.N,SW*%
X51700000Y-63095000D03*
D41*
%TO.P,U1,9*%
%TO.N,GND*%
X48400000Y-63200000D03*
X48400000Y-64400000D03*
X48400000Y-65700000D03*
X48400000Y-66800000D03*
D44*
X49000000Y-65000000D03*
D45*
X49000000Y-65000000D03*
D41*
X49600000Y-63200000D03*
X49600000Y-64400000D03*
X49600000Y-65700000D03*
X49600000Y-66800000D03*
%TD*%
D24*
%TO.P,D3,1*%
%TO.N,SYS_5V*%
X59000000Y-75000000D03*
%TO.P,D3,2*%
%TO.N,USB_5V*%
X63000000Y-75000000D03*
%TD*%
D17*
%TO.P,TP11,1*%
%TO.N,RS485_COM*%
X102000000Y-31000000D03*
%TD*%
D26*
%TO.P,J2,1*%
%TO.N,RS485_A*%
X115000000Y-43000000D03*
D27*
%TO.P,J2,2*%
%TO.N,RS485_B*%
X115000000Y-39500000D03*
%TO.P,J2,3*%
%TO.N,RS485_COM*%
X115000000Y-36000000D03*
%TO.P,J2,4*%
%TO.N,RS485_SHIELD*%
X115000000Y-32500000D03*
%TD*%
D14*
%TO.P,C12,1*%
%TO.N,24V_PROT*%
X93225000Y-42000000D03*
%TO.P,C12,2*%
%TO.N,GND*%
X94775000Y-42000000D03*
%TD*%
D13*
%TO.P,R8,1*%
%TO.N,+3V3*%
X102175000Y-21000000D03*
%TO.P,R8,2*%
%TO.N,I2C_SCL*%
X103825000Y-21000000D03*
%TD*%
D11*
%TO.P,U2,1*%
%TO.N,SYS_5V*%
X78862500Y-63050000D03*
%TO.P,U2,2*%
%TO.N,GND*%
X78862500Y-64000000D03*
%TO.P,U2,3*%
%TO.N,SYS_5V*%
X78862500Y-64950000D03*
%TO.P,U2,4*%
%TO.N,N/C*%
X81137500Y-64950000D03*
%TO.P,U2,5*%
%TO.N,+3V3*%
X81137500Y-63050000D03*
%TD*%
D46*
%TO.N,24V_PROT*%
X41173200Y-53000000D03*
X93137500Y-43283700D03*
X37773200Y-67773100D03*
%TO.N,GND*%
X62477500Y-17715800D03*
X66537500Y-45237500D03*
X47522500Y-17715800D03*
X92734900Y-52000000D03*
X54464200Y-77005100D03*
X92622800Y-46045600D03*
X111245300Y-18470300D03*
X36327000Y-75712500D03*
D47*
X109700000Y-19600000D03*
D46*
X46992900Y-52312500D03*
X76890500Y-57940500D03*
%TO.N,SYS_5V*%
X92307500Y-74500000D03*
X57622100Y-73622100D03*
X70632100Y-55367900D03*
X77874800Y-62062300D03*
%TO.N,OPAMP_OUT*%
X97252300Y-46000000D03*
X91671000Y-44241500D03*
%TO.N,DAC_RAW*%
X80683200Y-44943100D03*
X89673300Y-46600800D03*
%TO.N,+3V3*%
X64175000Y-42004000D03*
X111238300Y-21536700D03*
X44995900Y-18765000D03*
X98820600Y-55236400D03*
X69279300Y-45209900D03*
%TO.N,5V_BUCK*%
X63280700Y-65000000D03*
X54175000Y-72018300D03*
X50736800Y-55438200D03*
%TO.N,C6_EN*%
X47511300Y-20158600D03*
X64240000Y-44584800D03*
X49113600Y-26955600D03*
%TO.N,I2C_SDA*%
X47504100Y-23845000D03*
X86567700Y-72791100D03*
X104563300Y-17261700D03*
X84138700Y-47770200D03*
D47*
X106200000Y-19600000D03*
D46*
%TO.N,I2C_SCL*%
X47883900Y-25115000D03*
D47*
X106200000Y-20800000D03*
D46*
X85305500Y-46329100D03*
X104566200Y-21741200D03*
X87500000Y-73217800D03*
%TO.N,ONEWIRE*%
X88500000Y-73198300D03*
X65001700Y-26385000D03*
%TO.N,EXP_GPIO4*%
X89500000Y-73202200D03*
X47504100Y-21305000D03*
%TO.N,EXP_GPIO5*%
X90500000Y-73205100D03*
X47504100Y-22575000D03*
%TO.N,VISO*%
X108320400Y-57460000D03*
X110981900Y-65083600D03*
%TO.N,RS485_COM*%
X107834900Y-70125400D03*
X112361300Y-52771900D03*
%TO.N,RS485_A*%
X108295000Y-56155800D03*
%TO.N,USB_CC1*%
X73750000Y-71909100D03*
X68740200Y-68565200D03*
%TO.N,USB_5V*%
X64779900Y-75712500D03*
X73206600Y-74413200D03*
%TO.N,USB_D+*%
X47504100Y-34005000D03*
X73862500Y-69908100D03*
%TO.N,USB_D-*%
X47504100Y-32735000D03*
X74885200Y-74384200D03*
X72535100Y-66674500D03*
%TO.N,USB_CC2*%
X76750000Y-71917900D03*
X71478800Y-67825000D03*
%TO.N,RS485_B*%
X111181400Y-60249500D03*
%TO.N,24V_FUSED*%
X32205000Y-64571600D03*
X40000000Y-64576600D03*
%TO.N,24V_RAW*%
X25787900Y-66000000D03*
%TO.N,RH_OUT*%
X97789300Y-45010500D03*
%TO.N,RS485_RX*%
X65002500Y-22575000D03*
X101879400Y-58196800D03*
%TO.N,RS485_DE*%
X98817400Y-59365000D03*
X65004100Y-18765000D03*
%TO.N,RS485_TX*%
X98987600Y-61235800D03*
X65004100Y-21305000D03*
%TO.N,C6_BOOT*%
X74345600Y-43000000D03*
X65014700Y-34005000D03*
%TO.N,BOOT*%
X53225000Y-59001000D03*
X53002900Y-64365000D03*
%TO.N,PWR_GOOD*%
X48989800Y-58162500D03*
X47100000Y-67707300D03*
%TO.N,STATUS_LED*%
X47885500Y-28912500D03*
X76440600Y-39265800D03*
X58360200Y-38193200D03*
%TO.N,VCC_BYP*%
X53003500Y-65886800D03*
X46961300Y-71088700D03*
%TD*%
%TO.N,24V_PROT*%
D48*
X41173200Y-53000000D02*
X44050000Y-53000000D01*
X39525000Y-54348800D02*
X41173200Y-54348800D01*
X39425000Y-69425000D02*
X37773200Y-67773100D01*
X39525000Y-56000000D02*
X39525000Y-54348800D01*
X93137500Y-45050000D02*
X93137500Y-43283700D01*
X93225000Y-43196200D02*
X93225000Y-42000000D01*
X38000000Y-70850000D02*
X39425000Y-69425000D01*
X93137500Y-43283700D02*
X93225000Y-43196200D01*
X46300000Y-65635000D02*
X46300000Y-64365000D01*
X37773200Y-67773100D02*
X36000000Y-66000000D01*
X39425000Y-69425000D02*
X43215000Y-65635000D01*
X41173200Y-53000000D02*
X41173200Y-54348800D01*
X43215000Y-65635000D02*
X46300000Y-65635000D01*
%TO.N,GND*%
X70922500Y-66074300D02*
X70600700Y-66074300D01*
X68209300Y-45237500D02*
X66537500Y-45237500D01*
X99905000Y-64000000D02*
X100350000Y-64445000D01*
X70948300Y-43000000D02*
X70446800Y-43000000D01*
X76890500Y-57940500D02*
X77950000Y-59000000D01*
X81862500Y-46000000D02*
X82665400Y-46000000D01*
X37437500Y-75712500D02*
X38000000Y-75150000D01*
X94775000Y-42000000D02*
X94775000Y-44382300D01*
X79507100Y-75608800D02*
X84832600Y-75608800D01*
X63750000Y-17495000D02*
X62698300Y-17495000D01*
X101749200Y-55951000D02*
X101749200Y-54954200D01*
X66537500Y-45237500D02*
X65775000Y-46000000D01*
X36327000Y-75712500D02*
X37437500Y-75712500D01*
X90514800Y-45652300D02*
X90862500Y-46000000D01*
X79320000Y-75421700D02*
X79507100Y-75608800D01*
X92734900Y-52000000D02*
X91825000Y-52000000D01*
X42475000Y-56000000D02*
X42950000Y-56000000D01*
X93543000Y-46000000D02*
X92622800Y-46000000D01*
X70680000Y-74070000D02*
X70680000Y-72718300D01*
X70500000Y-66175000D02*
X68000000Y-66175000D01*
X98065000Y-52000000D02*
X92734900Y-52000000D01*
X100350000Y-54285000D02*
X98065000Y-52000000D01*
X92622800Y-46000000D02*
X92622800Y-46045600D01*
X100350000Y-56825000D02*
X100875200Y-56825000D01*
X82665400Y-46000000D02*
X83266200Y-45399200D01*
X108700000Y-19600000D02*
X109700000Y-19600000D01*
X100350000Y-64445000D02*
X100350000Y-65715000D01*
X55469300Y-76000000D02*
X55825000Y-76000000D01*
X79320000Y-74070000D02*
X79320000Y-72718300D01*
X78700000Y-43000000D02*
X77948300Y-43000000D01*
X82087500Y-40700000D02*
X82787500Y-40000000D01*
X101749200Y-54954200D02*
X101019200Y-54954200D01*
X97005300Y-58000000D02*
X97511100Y-57494200D01*
X42950000Y-56000000D02*
X45950000Y-53000000D01*
X83266200Y-45399200D02*
X83788300Y-45399200D01*
X79034800Y-57915200D02*
X83865200Y-57915200D01*
X101723600Y-62835800D02*
X101723600Y-63500200D01*
X82087500Y-43000000D02*
X84137500Y-45050000D01*
X78686700Y-72718300D02*
X78250000Y-73155000D01*
X72451700Y-43000000D02*
X73603400Y-44151700D01*
X71700000Y-43000000D02*
X72451700Y-43000000D01*
X70922500Y-66074300D02*
X70922500Y-65552500D01*
X72475000Y-64000000D02*
X78862500Y-64000000D01*
X82832700Y-46167300D02*
X82832700Y-48942300D01*
X100778800Y-64445000D02*
X100350000Y-64445000D01*
X101019200Y-54954200D02*
X100350000Y-54285000D01*
X98486400Y-62536400D02*
X101424200Y-62536400D01*
X79320000Y-72718300D02*
X78686700Y-72718300D01*
X70446800Y-43000000D02*
X68209300Y-45237500D01*
X101424200Y-62536400D02*
X101723600Y-62835800D01*
X94775000Y-44768000D02*
X93543000Y-46000000D01*
X96950000Y-61000000D02*
X98486400Y-62536400D01*
X70680000Y-72718300D02*
X71313300Y-72718300D01*
X73603400Y-44151700D02*
X76796600Y-44151700D01*
X83788300Y-45399200D02*
X84137500Y-45050000D01*
X96950000Y-61000000D02*
X96950000Y-58000000D01*
X73862500Y-68000000D02*
X73500200Y-68000000D01*
X46637500Y-52312500D02*
X45950000Y-53000000D01*
X100875200Y-56825000D02*
X101749200Y-55951000D01*
X97511100Y-57494200D02*
X99680800Y-57494200D01*
X70600700Y-66074300D02*
X70500000Y-66175000D01*
X76796600Y-44151700D02*
X77948300Y-43000000D01*
X72475000Y-59000000D02*
X73534500Y-57940500D01*
X46250000Y-17495000D02*
X47301700Y-17495000D01*
X84832600Y-75608800D02*
X85500000Y-74941400D01*
X101723600Y-63500200D02*
X100778800Y-64445000D01*
X71313300Y-70186900D02*
X71313300Y-72718300D01*
X73534500Y-57940500D02*
X76890500Y-57940500D01*
X48400000Y-66800000D02*
X48400000Y-71550000D01*
X48400000Y-63200000D02*
X47481700Y-63200000D01*
X82087500Y-43000000D02*
X82087500Y-40700000D01*
X48400000Y-71550000D02*
X47950000Y-72000000D01*
X96950000Y-64000000D02*
X99905000Y-64000000D01*
X83865200Y-57915200D02*
X84950000Y-59000000D01*
X94775000Y-44382300D02*
X94775000Y-44768000D01*
X78700000Y-43000000D02*
X82087500Y-43000000D01*
X82665400Y-46000000D02*
X82832700Y-46167300D01*
X62477500Y-17715800D02*
X62698300Y-17495000D01*
X71313300Y-72718300D02*
X71750000Y-73155000D01*
X101157300Y-44382300D02*
X94775000Y-44382300D01*
X73500200Y-68000000D02*
X73174200Y-68326000D01*
X96950000Y-58000000D02*
X97005300Y-58000000D01*
X82832700Y-48942300D02*
X81775000Y-50000000D01*
X84137500Y-45050000D02*
X88971300Y-45050000D01*
X47481700Y-63200000D02*
X47376700Y-63095000D01*
X48400000Y-64400000D02*
X49000000Y-65000000D01*
X102000000Y-45225000D02*
X101157300Y-44382300D01*
X71700000Y-43000000D02*
X70948300Y-43000000D01*
X73174200Y-68326000D02*
X71313300Y-70186900D01*
X73174200Y-68326000D02*
X70922500Y-66074300D01*
X46992900Y-52312500D02*
X46637500Y-52312500D01*
X72475000Y-59000000D02*
X72475000Y-64000000D01*
X99680800Y-57494200D02*
X100350000Y-56825000D01*
X85500000Y-74941400D02*
X85500000Y-74500000D01*
X88971300Y-45050000D02*
X89573600Y-45652300D01*
X79320000Y-74070000D02*
X79320000Y-75421700D01*
X89573600Y-45652300D02*
X90514800Y-45652300D01*
X46300000Y-63095000D02*
X47376700Y-63095000D01*
X54464200Y-77005100D02*
X55469300Y-76000000D01*
X111245300Y-18470300D02*
X112000000Y-19225000D01*
X92622800Y-46000000D02*
X90862500Y-46000000D01*
X47522500Y-17715800D02*
X47301700Y-17495000D01*
X77950000Y-59000000D02*
X79034800Y-57915200D01*
X70922500Y-65552500D02*
X72475000Y-64000000D01*
%TO.N,SYS_5V*%
X79271300Y-63050000D02*
X79877100Y-63655800D01*
X79211700Y-64600800D02*
X78862500Y-64950000D01*
X76050000Y-59000000D02*
X76050000Y-60237500D01*
X91500000Y-74500000D02*
X92307500Y-74500000D01*
X76050000Y-60237500D02*
X77874800Y-62062300D01*
X78862500Y-63050000D02*
X79271300Y-63050000D01*
X72000000Y-54000000D02*
X70632100Y-55367900D01*
X77874800Y-62062300D02*
X78862500Y-63050000D01*
X59000000Y-75000000D02*
X57622100Y-73622100D01*
X79877100Y-63655800D02*
X79877100Y-64600800D01*
X79877100Y-64600800D02*
X79211700Y-64600800D01*
%TO.N,OPAMP_OUT*%
X90862500Y-45050000D02*
X91671000Y-44241500D01*
X98175000Y-47000000D02*
X98175000Y-46000000D01*
X95175000Y-50000000D02*
X98175000Y-47000000D01*
X97252300Y-46000000D02*
X98175000Y-46000000D01*
%TO.N,DAC_RAW*%
X90513300Y-46600800D02*
X90862500Y-46950000D01*
X89673300Y-46600800D02*
X90513300Y-46600800D01*
X81862500Y-45050000D02*
X80790100Y-45050000D01*
X80790100Y-45050000D02*
X80683200Y-44943100D01*
%TO.N,OPAMP_FB*%
X94748300Y-50823500D02*
X96001500Y-50823500D01*
X93049900Y-49125100D02*
X94748300Y-50823500D01*
X96001500Y-50823500D02*
X96825000Y-50000000D01*
X93049900Y-49125100D02*
X90175000Y-52000000D01*
X94181300Y-47993700D02*
X93049900Y-49125100D01*
X94181300Y-47993700D02*
X93137500Y-46950000D01*
%TO.N,+3V3*%
X100031400Y-55236400D02*
X98820600Y-55236400D01*
X111238300Y-21536700D02*
X112000000Y-20775000D01*
X96076200Y-62973800D02*
X96349000Y-62973800D01*
X103526100Y-22351100D02*
X102175000Y-21000000D01*
X102175000Y-21000000D02*
X102175000Y-18000000D01*
X85918300Y-55693300D02*
X95050000Y-55693300D01*
X95050000Y-55693300D02*
X95050000Y-58000000D01*
X80225000Y-48587500D02*
X76847400Y-45209900D01*
X83050000Y-59000000D02*
X85050000Y-61000000D01*
X80225000Y-50000000D02*
X85918300Y-55693300D01*
X96549200Y-62973800D02*
X96555800Y-62967200D01*
X94508000Y-64000000D02*
X84500000Y-74008000D01*
X81137500Y-60912500D02*
X81137500Y-63050000D01*
X98363700Y-55693300D02*
X98820600Y-55236400D01*
X108700000Y-20400000D02*
X110000000Y-21000000D01*
X111238300Y-21536700D02*
X110423900Y-22351100D01*
X84500000Y-74008000D02*
X84500000Y-74500000D01*
X83050000Y-59000000D02*
X81137500Y-60912500D01*
X45223300Y-18765000D02*
X44995900Y-18765000D01*
X110423900Y-22351100D02*
X103526100Y-22351100D01*
X95050000Y-64000000D02*
X96076200Y-62973800D01*
X95050000Y-61000000D02*
X95050000Y-58000000D01*
X85050000Y-61000000D02*
X95050000Y-61000000D01*
X80225000Y-48587500D02*
X81862500Y-46950000D01*
X64175000Y-42004000D02*
X64175000Y-43000000D01*
X95050000Y-55693300D02*
X98363700Y-55693300D01*
X46250000Y-18765000D02*
X45223300Y-18765000D01*
X95050000Y-61000000D02*
X96555800Y-62505800D01*
X95050000Y-64000000D02*
X94508000Y-64000000D01*
X96555800Y-62505800D02*
X96555800Y-62967200D01*
X76847400Y-45209900D02*
X69279300Y-45209900D01*
X100350000Y-63175000D02*
X100142200Y-62967200D01*
X110000000Y-21000000D02*
X111238300Y-21536700D01*
X100350000Y-55555000D02*
X100031400Y-55236400D01*
X80225000Y-50000000D02*
X80225000Y-48587500D01*
X96349000Y-62973800D02*
X96549200Y-62973800D01*
X100142200Y-62967200D02*
X96555800Y-62967200D01*
%TO.N,SW*%
X51700000Y-63095000D02*
X52776700Y-63095000D01*
X54106000Y-58669000D02*
X54775000Y-58000000D01*
X52996300Y-62875400D02*
X54106000Y-62875400D01*
X52996300Y-62875400D02*
X52776700Y-63095000D01*
X55198300Y-63967700D02*
X55198300Y-65000000D01*
X54106000Y-62875400D02*
X55198300Y-63967700D01*
X56850000Y-65000000D02*
X55198300Y-65000000D01*
X54106000Y-62875400D02*
X54106000Y-58669000D01*
%TO.N,5V_BUCK*%
X54175000Y-72018300D02*
X54175000Y-73000000D01*
X50736800Y-55438200D02*
X50000000Y-56175000D01*
X65150000Y-65000000D02*
X63498300Y-65000000D01*
X63498300Y-65000000D02*
X63280700Y-65000000D01*
X76000000Y-54000000D02*
X74642600Y-55357400D01*
X65150000Y-65000000D02*
X68525000Y-65000000D01*
X74642600Y-55357400D02*
X73167600Y-55357400D01*
X69525000Y-64000000D02*
X69525000Y-59000000D01*
X68525000Y-65000000D02*
X69525000Y-64000000D01*
X73167600Y-55357400D02*
X69525000Y-59000000D01*
%TO.N,C6_EN*%
X64240200Y-44584800D02*
X65825000Y-43000000D01*
X68300000Y-43000000D02*
X65825000Y-43000000D01*
X64240000Y-44584800D02*
X64240200Y-44584800D01*
X47425300Y-20158600D02*
X47511300Y-20158600D01*
X64240000Y-44584800D02*
X64240000Y-45985000D01*
X46250000Y-20035000D02*
X47301700Y-20035000D01*
X64240000Y-45985000D02*
X64225000Y-46000000D01*
X47301700Y-20035000D02*
X47425300Y-20158600D01*
%TO.N,I2C_SDA*%
X46250000Y-23845000D02*
X47276700Y-23845000D01*
X86500000Y-74500000D02*
X86500000Y-72858800D01*
X84137500Y-47769000D02*
X84138700Y-47770200D01*
X47276700Y-23845000D02*
X47504100Y-23845000D01*
X84137500Y-46950000D02*
X84137500Y-47769000D01*
X104563300Y-17261700D02*
X103825000Y-18000000D01*
X86500000Y-72858800D02*
X86567700Y-72791100D01*
X107300000Y-19600000D02*
X106200000Y-19600000D01*
%TO.N,I2C_SCL*%
X84137500Y-46000000D02*
X84466600Y-46329100D01*
X104566200Y-21741200D02*
X103825000Y-21000000D01*
X46250000Y-25115000D02*
X47276700Y-25115000D01*
X87500000Y-74500000D02*
X87500000Y-73217800D01*
X84466600Y-46329100D02*
X85305500Y-46329100D01*
X107300000Y-20400000D02*
X106200000Y-20800000D01*
X47276700Y-25115000D02*
X47883900Y-25115000D01*
%TO.N,ONEWIRE*%
X63750000Y-26385000D02*
X64776700Y-26385000D01*
X88500000Y-74500000D02*
X88500000Y-73198300D01*
X64776700Y-26385000D02*
X65001700Y-26385000D01*
%TO.N,EXP_GPIO4*%
X47276700Y-21305000D02*
X47504100Y-21305000D01*
X89500000Y-74500000D02*
X89500000Y-73202200D01*
X46250000Y-21305000D02*
X47276700Y-21305000D01*
%TO.N,EXP_GPIO5*%
X47276700Y-22575000D02*
X47504100Y-22575000D01*
X46250000Y-22575000D02*
X47276700Y-22575000D01*
X90500000Y-74500000D02*
X90500000Y-73205100D01*
%TO.N,VISO*%
X112050000Y-55232800D02*
X111166400Y-56116400D01*
X110680500Y-57460000D02*
X111595300Y-56545200D01*
X109650000Y-64445000D02*
X110288600Y-65083600D01*
X111058600Y-56224200D02*
X110319200Y-56224200D01*
X110319200Y-56224200D02*
X109650000Y-55555000D01*
X111595300Y-56545200D02*
X111166400Y-56116400D01*
X112050000Y-54000000D02*
X112050000Y-55232800D01*
X108320400Y-57460000D02*
X110680500Y-57460000D01*
X112050000Y-57000000D02*
X111595300Y-56545200D01*
X110288600Y-65083600D02*
X110981900Y-65083600D01*
X111166400Y-56116400D02*
X111058600Y-56224200D01*
%TO.N,RS485_COM*%
X107834900Y-70125400D02*
X107834900Y-70227600D01*
X112895700Y-52945700D02*
X113950000Y-54000000D01*
X109650000Y-54285000D02*
X110989300Y-52945700D01*
X107834900Y-70227600D02*
X107062500Y-71000000D01*
X111886400Y-58695800D02*
X110319200Y-58695800D01*
X112361300Y-52945700D02*
X112895700Y-52945700D01*
X110989300Y-52945700D02*
X112361300Y-52945700D01*
X112361300Y-52945700D02*
X112361300Y-52771900D01*
X113950000Y-54000000D02*
X113950000Y-57000000D01*
X113950000Y-57000000D02*
X112254200Y-58695800D01*
X110319200Y-58695800D02*
X109650000Y-59365000D01*
X112254200Y-58695800D02*
X111886400Y-58695800D01*
%TO.N,RS485_A*%
X110106400Y-63175000D02*
X111003600Y-62277800D01*
X111003600Y-61576600D02*
X110697000Y-61270000D01*
X107679000Y-60384100D02*
X107679000Y-56771800D01*
X112202600Y-63844200D02*
X110319200Y-63844200D01*
X112820900Y-64462500D02*
X112202600Y-63844200D01*
X113000000Y-64462500D02*
X112820900Y-64462500D01*
X109650000Y-63175000D02*
X110106400Y-63175000D01*
X111003600Y-62277800D02*
X111003600Y-61576600D01*
X110697000Y-61270000D02*
X108564900Y-61270000D01*
X110319200Y-63844200D02*
X109650000Y-63175000D01*
X108295000Y-56155800D02*
X108980800Y-56155800D01*
X108980800Y-56155800D02*
X109650000Y-56825000D01*
X108564900Y-61270000D02*
X107679000Y-60384100D01*
X107679000Y-56771800D02*
X108295000Y-56155800D01*
%TO.N,USB_CC1*%
X73750000Y-73155000D02*
X73750000Y-71909100D01*
X68740200Y-68565200D02*
X68000000Y-67825000D01*
%TO.N,USB_5V*%
X72550000Y-73756600D02*
X73206600Y-74413200D01*
X64779900Y-75712500D02*
X63712500Y-75712500D01*
X77450000Y-73756600D02*
X77450000Y-73155000D01*
X73206600Y-74413200D02*
X73827500Y-75034100D01*
X63712500Y-75712500D02*
X63000000Y-75000000D01*
X77450000Y-68349200D02*
X76486700Y-68349200D01*
X73827500Y-75034100D02*
X76172500Y-75034100D01*
X77450000Y-73155000D02*
X77450000Y-68349200D01*
X72550000Y-73155000D02*
X72550000Y-73756600D01*
X76172500Y-75034100D02*
X77450000Y-73756600D01*
X76486700Y-68349200D02*
X76137500Y-68000000D01*
%TO.N,USB_D+*%
X74750000Y-72369200D02*
X75021500Y-72097700D01*
X75750000Y-72317000D02*
X75750000Y-73155000D01*
X75530700Y-72097700D02*
X75750000Y-72317000D01*
X73883600Y-68971100D02*
X73862500Y-68950000D01*
X47276700Y-34005000D02*
X47504100Y-34005000D01*
X74750000Y-73155000D02*
X74750000Y-72369200D01*
X46250000Y-34005000D02*
X47276700Y-34005000D01*
X75530700Y-68971100D02*
X75530700Y-72097700D01*
X75530700Y-68971100D02*
X73883600Y-68971100D01*
X76137500Y-68950000D02*
X76116400Y-68971100D01*
X75021500Y-72097700D02*
X75530700Y-72097700D01*
X76116400Y-68971100D02*
X75530700Y-68971100D01*
X73862500Y-69908100D02*
X73862500Y-68950000D01*
%TO.N,USB_D-*%
X74250000Y-73963500D02*
X74250000Y-73155000D01*
X47276700Y-32735000D02*
X47504100Y-32735000D01*
X72535100Y-66674500D02*
X73487000Y-66674500D01*
X75250000Y-73155000D02*
X75250000Y-73944200D01*
X75250000Y-73944200D02*
X74981100Y-74213100D01*
X46250000Y-32735000D02*
X47276700Y-32735000D01*
X74885200Y-74213100D02*
X74499600Y-74213100D01*
X76137500Y-67050000D02*
X73862500Y-67050000D01*
X74499600Y-74213100D02*
X74250000Y-73963500D01*
X74885200Y-74213100D02*
X74885200Y-74384200D01*
X73487000Y-66674500D02*
X73862500Y-67050000D01*
X74981100Y-74213100D02*
X74885200Y-74213100D01*
%TO.N,USB_CC2*%
X70500000Y-67825000D02*
X71478800Y-67825000D01*
X76750000Y-73155000D02*
X76750000Y-71917900D01*
%TO.N,RS485_B*%
X111181400Y-60249500D02*
X114701200Y-60249500D01*
X109650000Y-60635000D02*
X109220900Y-60635000D01*
X108277200Y-58764200D02*
X108980800Y-58764200D01*
X116000000Y-62350000D02*
X116000000Y-61548300D01*
X108277200Y-59691300D02*
X108277200Y-58764200D01*
X114701200Y-60249500D02*
X116000000Y-61548300D01*
X111181400Y-60249500D02*
X110035500Y-60249500D01*
X108980800Y-58764200D02*
X109650000Y-58095000D01*
X110035500Y-60249500D02*
X109650000Y-60635000D01*
X109220900Y-60635000D02*
X108277200Y-59691300D01*
%TO.N,24V_FUSED*%
X32205000Y-64571600D02*
X31137500Y-65639100D01*
X31137500Y-65639100D02*
X31137500Y-66000000D01*
X40000000Y-66000000D02*
X40000000Y-64576600D01*
%TO.N,24V_RAW*%
X26862500Y-66000000D02*
X25787900Y-66000000D01*
%TO.N,RH_OUT*%
X97974900Y-45196100D02*
X98876000Y-45196100D01*
X100600000Y-46775000D02*
X99825000Y-46000000D01*
X97789300Y-45010500D02*
X97974900Y-45196100D01*
X99656000Y-45976100D02*
X99801100Y-45976100D01*
X102000000Y-46775000D02*
X100600000Y-46775000D01*
X99801100Y-45976100D02*
X99825000Y-46000000D01*
X98876000Y-45196100D02*
X99656000Y-45976100D01*
%TO.N,BUCK_FB*%
X52984600Y-67112900D02*
X55825000Y-69953300D01*
X55825000Y-73000000D02*
X55825000Y-74350000D01*
X51700000Y-66905000D02*
X52776700Y-66905000D01*
X55825000Y-74350000D02*
X54175000Y-76000000D01*
X52984600Y-67112900D02*
X52776700Y-66905000D01*
X55825000Y-69953300D02*
X55825000Y-73000000D01*
%TO.N,STATUS_LED_R*%
X81212500Y-40000000D02*
X78825000Y-40000000D01*
%TO.N,RS485_TERM*%
X116000000Y-63650000D02*
X114973300Y-63650000D01*
X113000000Y-61537500D02*
X114176200Y-62713700D01*
X114473500Y-63150200D02*
X114973300Y-63650000D01*
X114176200Y-62713700D02*
X114176200Y-63150200D01*
X114176200Y-63150200D02*
X114473500Y-63150200D01*
%TO.N,RS485_RX*%
X64776700Y-22575000D02*
X65002500Y-22575000D01*
X100350000Y-58095000D02*
X100451800Y-58196800D01*
X100451800Y-58196800D02*
X101879400Y-58196800D01*
X63750000Y-22575000D02*
X64776700Y-22575000D01*
%TO.N,RS485_DE*%
X100350000Y-60635000D02*
X100350000Y-59365000D01*
X63750000Y-18765000D02*
X64776700Y-18765000D01*
X64776700Y-18765000D02*
X65004100Y-18765000D01*
X100350000Y-59365000D02*
X98817400Y-59365000D01*
%TO.N,RS485_TX*%
X64776700Y-21305000D02*
X65004100Y-21305000D01*
X99680800Y-61235800D02*
X100350000Y-61905000D01*
X63750000Y-21305000D02*
X64776700Y-21305000D01*
X98987600Y-61235800D02*
X99680800Y-61235800D01*
%TO.N,ISO_GND_PWR*%
X107919000Y-67446000D02*
X107585800Y-67446000D01*
X108847700Y-66517300D02*
X109449500Y-65915500D01*
X104937500Y-70427500D02*
X104937500Y-71000000D01*
X109449500Y-65915500D02*
X109650000Y-65715000D01*
X109449500Y-65915500D02*
X108283800Y-64749900D01*
X108847700Y-66517300D02*
X107919000Y-67446000D01*
X106660800Y-68702100D02*
X106660800Y-68704200D01*
X107233200Y-67798600D02*
X107233200Y-68129700D01*
X108283800Y-62574200D02*
X108980800Y-62574200D01*
X106660800Y-68704200D02*
X104937500Y-70427500D01*
X108980800Y-62574200D02*
X109650000Y-61905000D01*
X108283800Y-64749900D02*
X108283800Y-62574200D01*
X107233200Y-68129700D02*
X106660800Y-68702100D01*
X107585800Y-67446000D02*
X107233200Y-67798600D01*
%TO.N,C6_BOOT*%
X75300000Y-43000000D02*
X74548300Y-43000000D01*
X63750000Y-34005000D02*
X64801700Y-34005000D01*
X74548300Y-43000000D02*
X74345600Y-43000000D01*
X64801700Y-34005000D02*
X65014700Y-34005000D01*
%TO.N,BOOT*%
X53225000Y-59001000D02*
X53225000Y-58000000D01*
X52751700Y-64365000D02*
X53002900Y-64365000D01*
X51700000Y-64365000D02*
X52751700Y-64365000D01*
%TO.N,PWR_GOOD*%
X49662500Y-58162500D02*
X50000000Y-57825000D01*
X46300000Y-66905000D02*
X47100000Y-67705000D01*
X48989800Y-58162500D02*
X49662500Y-58162500D01*
X47100000Y-67705000D02*
X47100000Y-67707300D01*
%TO.N,STATUS_LED*%
X76440800Y-39265800D02*
X76440600Y-39265800D01*
X47301700Y-28925000D02*
X47314200Y-28912500D01*
X46250000Y-28925000D02*
X47301700Y-28925000D01*
X77175000Y-40000000D02*
X76440800Y-39265800D01*
X47314200Y-28912500D02*
X47885500Y-28912500D01*
%TO.N,VCC_BYP*%
X51700000Y-65635000D02*
X52751700Y-65635000D01*
X52751700Y-65635000D02*
X53003500Y-65886800D01*
X46050000Y-72000000D02*
X46961300Y-71088700D01*
%TD*%
M02*
