%TF.GenerationSoftware,KiCad,Pcbnew,10.0.5*%
%TF.CreationDate,2026-08-07T19:43:00+02:00*%
%TF.ProjectId,IDM-RoomSensor-ESP-B-ES2-C6,49444d2d-526f-46f6-9d53-656e736f722d,rev?*%
%TF.SameCoordinates,Original*%
%TF.FileFunction,Copper,L3,Inr*%
%TF.FilePolarity,Positive*%
%FSLAX46Y46*%
G04 Gerber Fmt 4.6, Leading zero omitted, Abs format (unit mm)*
G04 Created by KiCad (PCBNEW 10.0.5) date 2026-08-07 19:43:00*
%MOMM*%
%LPD*%
G01*
G04 APERTURE LIST*
G04 Aperture macros list*
%AMRoundRect*
0 Rectangle with rounded corners*
0 $1 Rounding radius*
0 $2 $3 $4 $5 $6 $7 $8 $9 X,Y pos of 4 corners*
0 Add a 4 corners polygon primitive as box body*
4,1,4,$2,$3,$4,$5,$6,$7,$8,$9,$2,$3,0*
0 Add four circle primitives for the rounded corners*
1,1,$1+$1,$2,$3*
1,1,$1+$1,$4,$5*
1,1,$1+$1,$6,$7*
1,1,$1+$1,$8,$9*
0 Add four rect primitives between the rounded corners*
20,1,$1+$1,$2,$3,$4,$5,0*
20,1,$1+$1,$4,$5,$6,$7,0*
20,1,$1+$1,$6,$7,$8,$9,0*
20,1,$1+$1,$8,$9,$2,$3,0*%
G04 Aperture macros list end*
%TA.AperFunction,ComponentPad*%
%ADD10RoundRect,0.250001X0.949999X-0.949999X0.949999X0.949999X-0.949999X0.949999X-0.949999X-0.949999X0*%
%TD*%
%TA.AperFunction,ComponentPad*%
%ADD11C,2.400000*%
%TD*%
%TA.AperFunction,ComponentPad*%
%ADD12C,3.000000*%
%TD*%
%TA.AperFunction,ComponentPad*%
%ADD13C,0.600000*%
%TD*%
%TA.AperFunction,ComponentPad*%
%ADD14R,1.050000X1.500000*%
%TD*%
%TA.AperFunction,ComponentPad*%
%ADD15O,1.050000X1.500000*%
%TD*%
%TA.AperFunction,ComponentPad*%
%ADD16O,1.000000X2.100000*%
%TD*%
%TA.AperFunction,ComponentPad*%
%ADD17O,1.000000X1.600000*%
%TD*%
%TA.AperFunction,ViaPad*%
%ADD18C,0.600000*%
%TD*%
%TA.AperFunction,ViaPad*%
%ADD19C,0.800000*%
%TD*%
%TA.AperFunction,Conductor*%
%ADD20C,0.200000*%
%TD*%
G04 APERTURE END LIST*
D10*
%TO.N,RS485_A*%
%TO.C,J2*%
X115000000Y-43000000D03*
D11*
%TO.N,RS485_B*%
X115000000Y-39500000D03*
%TO.N,RS485_COM*%
X115000000Y-36000000D03*
%TO.N,RS485_SHIELD*%
X115000000Y-32500000D03*
%TD*%
D12*
%TO.N,SYS_5V*%
%TO.C,TP3*%
X38000000Y-38000000D03*
%TD*%
%TO.N,RS485_COM*%
%TO.C,TP11*%
X102000000Y-31000000D03*
%TD*%
%TO.N,GND*%
%TO.C,TP12*%
X110000000Y-28000000D03*
%TD*%
D13*
%TO.N,GND*%
%TO.C,U1*%
X48400000Y-63200000D03*
X48400000Y-64400000D03*
X48400000Y-65700000D03*
X48400000Y-66800000D03*
X49600000Y-63200000D03*
X49600000Y-64400000D03*
X49600000Y-65700000D03*
X49600000Y-66800000D03*
%TD*%
D12*
%TO.N,RS485_B*%
%TO.C,TP10*%
X94000000Y-31000000D03*
%TD*%
%TO.N,TEMP_KTY*%
%TO.C,TP8*%
X83000000Y-35000000D03*
%TD*%
%TO.N,+3V3*%
%TO.C,TP4*%
X46000000Y-39000000D03*
%TD*%
D10*
%TO.N,TEMP_KTY*%
%TO.C,J1*%
X16000000Y-62000000D03*
D11*
%TO.N,24V_RAW*%
X16000000Y-58500000D03*
%TO.N,GND*%
X16000000Y-55000000D03*
%TO.N,RH_OUT*%
X16000000Y-51500000D03*
%TD*%
D12*
%TO.N,RH_OUT*%
%TO.C,TP7*%
X70000000Y-38000000D03*
%TD*%
%TO.N,RS485_A*%
%TO.C,TP9*%
X86000000Y-31000000D03*
%TD*%
D14*
%TO.N,TEMP_KTY*%
%TO.C,RTH1*%
X18000000Y-46000000D03*
D15*
%TO.N,GND*%
X19270000Y-46000000D03*
%TO.N,N/C*%
X20540000Y-46000000D03*
%TD*%
D12*
%TO.N,I2C_SDA*%
%TO.C,TP5*%
X54000000Y-40000000D03*
%TD*%
%TO.N,I2C_SCL*%
%TO.C,TP6*%
X62000000Y-40000000D03*
%TD*%
D13*
%TO.N,GND*%
%TO.C,U3*%
X53900000Y-24905000D03*
X53900000Y-26005000D03*
X53900000Y-27105000D03*
X55000000Y-24905000D03*
X55000000Y-26005000D03*
X55000000Y-27105000D03*
X56100000Y-24905000D03*
X56100000Y-26005000D03*
X56100000Y-27105000D03*
%TD*%
D12*
%TO.N,24V_PROT*%
%TO.C,TP2*%
X30000000Y-38000000D03*
%TD*%
D16*
%TO.N,GND*%
%TO.C,J3*%
X70680000Y-74070000D03*
D17*
X70680000Y-78250000D03*
D16*
X79320000Y-74070000D03*
D17*
X79320000Y-78250000D03*
%TD*%
D12*
%TO.N,24V_RAW*%
%TO.C,TP1*%
X22000000Y-38000000D03*
%TD*%
D18*
%TO.N,+3V3*%
X84234200Y-73202100D03*
X64173400Y-42004000D03*
X101907400Y-55237500D03*
X44995900Y-18765000D03*
X81137500Y-61075100D03*
X111213700Y-21561300D03*
%TO.N,GND*%
X65018500Y-17300200D03*
X98833300Y-64012500D03*
X36327000Y-75712500D03*
X98469800Y-56155800D03*
X69254600Y-66175000D03*
X82870800Y-43362200D03*
X54464200Y-77005100D03*
X111245300Y-18470300D03*
X46992900Y-52312500D03*
X93602900Y-45940100D03*
X76890500Y-57940500D03*
D19*
X109700000Y-19600000D03*
D18*
X68610200Y-44473800D03*
X95206200Y-51262000D03*
X47522500Y-17715800D03*
%TO.N,RS485_RX*%
X98353100Y-58011300D03*
X65002500Y-22575000D03*
%TO.N,RS485_DE*%
X98970700Y-58695800D03*
X65004100Y-18765000D03*
%TO.N,RS485_TX*%
X98986600Y-61235800D03*
X65004100Y-21305000D03*
%TO.N,RS485_COM*%
X108115200Y-64012500D03*
X114858200Y-57908200D03*
X106064400Y-37107300D03*
%TO.N,RS485_A*%
X111594800Y-61492100D03*
%TO.N,RS485_B*%
X111021900Y-60034200D03*
%TO.N,USB_CC2*%
X71478800Y-68163100D03*
X76711300Y-70660000D03*
%TO.N,SYS_5V*%
X60369300Y-76369300D03*
X92307500Y-75307500D03*
X70632100Y-55367900D03*
X77874800Y-62062300D03*
%TO.N,C6_EN*%
X47508600Y-20159800D03*
X64225000Y-44600000D03*
%TO.N,OPAMP_OUT*%
X94433400Y-49258400D03*
X91671000Y-44241500D03*
%TO.N,OPAMP_FB*%
X96825000Y-49019400D03*
X94307000Y-48119500D03*
%TO.N,5V_BUCK*%
X50736300Y-55438700D03*
X54175000Y-72007400D03*
X63282300Y-65000000D03*
%TO.N,DAC_RAW*%
X89673300Y-46600800D03*
X80683200Y-45402400D03*
%TO.N,24V_PROT*%
X41173200Y-53000000D03*
X37773200Y-67773100D03*
X92591000Y-43283700D03*
%TO.N,USB_D-*%
X76137500Y-66234400D03*
X74250000Y-71920500D03*
X47504100Y-32735000D03*
%TO.N,USB_D+*%
X73059500Y-69753000D03*
X47504100Y-34005000D03*
%TO.N,USB_5V*%
X64779900Y-75712500D03*
X73206600Y-74413200D03*
%TO.N,STATUS_LED*%
X47532500Y-28912500D03*
X76439900Y-39264900D03*
%TO.N,PWR_GOOD*%
X48989800Y-58162500D03*
X47102300Y-67707300D03*
%TO.N,BUCK_FB*%
X55362800Y-71998900D03*
D19*
X52984600Y-67112900D03*
D18*
%TO.N,VCC_BYP*%
X46959700Y-71090300D03*
X53980300Y-66304800D03*
%TO.N,BOOT*%
X53225000Y-59001000D03*
X53002900Y-64365000D03*
%TO.N,RH_OUT*%
X99078400Y-45253400D03*
%TO.N,I2C_SDA*%
X84137500Y-47771500D03*
X86642900Y-72779100D03*
X47504100Y-23845000D03*
D19*
X106200000Y-19600000D03*
D18*
X104563300Y-17261700D03*
%TO.N,24V_RAW*%
X25787900Y-64925400D03*
%TO.N,I2C_SCL*%
X88398900Y-46149000D03*
X104566200Y-21741200D03*
X85322900Y-46350300D03*
X87500000Y-72860500D03*
D19*
X106200000Y-20800000D03*
D18*
X47502500Y-25115000D03*
%TO.N,ONEWIRE*%
X65001700Y-26385000D03*
X88500000Y-73217100D03*
%TO.N,EXP_GPIO4*%
X89500000Y-73220400D03*
X47504100Y-21305000D03*
%TO.N,EXP_GPIO5*%
X47504100Y-22575000D03*
X90500000Y-73198700D03*
%TO.N,C6_BOOT*%
X65014700Y-34005000D03*
X74347200Y-43000000D03*
%TD*%
%TO.N,+3V3*%
D20*
X86975100Y-55237500D02*
X101907400Y-55237500D01*
X81137500Y-61075100D02*
X86975100Y-55237500D01*
X46825000Y-38175000D02*
X57460400Y-38175000D01*
X46000000Y-39000000D02*
X46825000Y-38175000D01*
X57460400Y-38175000D02*
X61289400Y-42004000D01*
X61289400Y-42004000D02*
X64173400Y-42004000D01*
%TO.N,RS485_COM*%
X107407300Y-37107300D02*
X106064400Y-37107300D01*
%TO.N,RS485_A*%
X98000000Y-43000000D02*
X115000000Y-43000000D01*
X86000000Y-31000000D02*
X98000000Y-43000000D01*
%TO.N,RS485_B*%
X102500000Y-39500000D02*
X115000000Y-39500000D01*
X94000000Y-31000000D02*
X102500000Y-39500000D01*
%TO.N,USB_CC2*%
X76711300Y-70660000D02*
X74214400Y-68163100D01*
X74214400Y-68163100D02*
X71478800Y-68163100D01*
%TO.N,SYS_5V*%
X60369300Y-76369300D02*
X91245700Y-76369300D01*
X91245700Y-76369300D02*
X92307500Y-75307500D01*
X70632100Y-55367900D02*
X77326500Y-62062300D01*
X77326500Y-62062300D02*
X77874800Y-62062300D01*
%TO.N,OPAMP_FB*%
X95925100Y-48119500D02*
X96825000Y-49019400D01*
X94307000Y-48119500D02*
X95925100Y-48119500D01*
%TO.N,5V_BUCK*%
X54175000Y-72007400D02*
X61182400Y-65000000D01*
X61182400Y-65000000D02*
X63282300Y-65000000D01*
%TO.N,DAC_RAW*%
X89673300Y-46572500D02*
X88503200Y-45402400D01*
X89673300Y-46600800D02*
X89673300Y-46572500D01*
X88503200Y-45402400D02*
X80683200Y-45402400D01*
%TO.N,24V_PROT*%
X41173200Y-53000000D02*
X84150400Y-53000000D01*
X92591000Y-44559400D02*
X92591000Y-43283700D01*
X84150400Y-53000000D02*
X92591000Y-44559400D01*
%TO.N,USB_5V*%
X72289400Y-75712500D02*
X64779900Y-75712500D01*
X73206600Y-74795300D02*
X72289400Y-75712500D01*
X73206600Y-74413200D02*
X73206600Y-74795300D01*
%TO.N,STATUS_LED*%
X66087500Y-28912500D02*
X76439900Y-39264900D01*
X47532500Y-28912500D02*
X66087500Y-28912500D01*
%TO.N,RH_OUT*%
X29057900Y-51500000D02*
X43386500Y-37171400D01*
X43386500Y-37171400D02*
X69171400Y-37171400D01*
X99078400Y-45253400D02*
X94429800Y-40604800D01*
X16000000Y-51500000D02*
X29057900Y-51500000D01*
X94429800Y-40604800D02*
X72604800Y-40604800D01*
X69171400Y-37171400D02*
X70000000Y-38000000D01*
X72604800Y-40604800D02*
X70000000Y-38000000D01*
%TO.N,I2C_SDA*%
X104563300Y-17261700D02*
X97980000Y-23845000D01*
X84137500Y-47771500D02*
X61771500Y-47771500D01*
X97980000Y-23845000D02*
X47504100Y-23845000D01*
X61771500Y-47771500D02*
X54000000Y-40000000D01*
%TO.N,TEMP_KTY*%
X74796200Y-39881400D02*
X71088200Y-36173400D01*
X71088200Y-36173400D02*
X26774900Y-36173400D01*
X83000000Y-35000000D02*
X78118600Y-39881400D01*
X78118600Y-39881400D02*
X74796200Y-39881400D01*
X26774900Y-36173400D02*
X18000000Y-44948300D01*
X18000000Y-46000000D02*
X18000000Y-44948300D01*
%TO.N,24V_RAW*%
X19362500Y-58500000D02*
X16000000Y-58500000D01*
X25787900Y-64925400D02*
X19362500Y-58500000D01*
%TO.N,I2C_SCL*%
X85322900Y-46349200D02*
X85322900Y-46350300D01*
X88398900Y-46149000D02*
X88198700Y-46349200D01*
X74192500Y-46349200D02*
X67843300Y-40000000D01*
X67843300Y-40000000D02*
X62000000Y-40000000D01*
X85322900Y-46349200D02*
X74192500Y-46349200D01*
X88198700Y-46349200D02*
X85322900Y-46349200D01*
%TD*%
%TA.AperFunction,Conductor*%
%TO.N,RS485_COM*%
G36*
X113457794Y-35004843D02*
G01*
X113468631Y-35008365D01*
X113518131Y-35044326D01*
X113537041Y-35102516D01*
X113537041Y-35107393D01*
X113523777Y-35156894D01*
X113472042Y-35246498D01*
X113386765Y-35452375D01*
X113386762Y-35452382D01*
X113329087Y-35667633D01*
X113300000Y-35888572D01*
X113300000Y-36111426D01*
X113329087Y-36332365D01*
X113386762Y-36547616D01*
X113386765Y-36547623D01*
X113472039Y-36753494D01*
X113583473Y-36946504D01*
X113583476Y-36946509D01*
X113634041Y-37012404D01*
X114340128Y-36306315D01*
X114394645Y-36278538D01*
X114455077Y-36288109D01*
X114495868Y-36326818D01*
X114499071Y-36332365D01*
X114519881Y-36368408D01*
X114631592Y-36480119D01*
X114631594Y-36480120D01*
X114631596Y-36480122D01*
X114673177Y-36504129D01*
X114714118Y-36549598D01*
X114720514Y-36610449D01*
X114693681Y-36659869D01*
X113987593Y-37365957D01*
X114053492Y-37416524D01*
X114053495Y-37416525D01*
X114053498Y-37416528D01*
X114053503Y-37416531D01*
X114246500Y-37527957D01*
X114246501Y-37527957D01*
X114246504Y-37527959D01*
X114302037Y-37550961D01*
X114452380Y-37613236D01*
X114667634Y-37670912D01*
X114887092Y-37699803D01*
X114888426Y-37700000D01*
X115111423Y-37700000D01*
X115112816Y-37700000D01*
X115116369Y-37699348D01*
X115332365Y-37670912D01*
X115547619Y-37613236D01*
X115753499Y-37527957D01*
X115946496Y-37416531D01*
X115946500Y-37416528D01*
X116012403Y-37365957D01*
X115306315Y-36659869D01*
X115278539Y-36605353D01*
X115288110Y-36544921D01*
X115326820Y-36504130D01*
X115368408Y-36480119D01*
X115480119Y-36368408D01*
X115504129Y-36326820D01*
X115549598Y-36285879D01*
X115610448Y-36279483D01*
X115659870Y-36306316D01*
X116365957Y-37012403D01*
X116416528Y-36946500D01*
X116416531Y-36946496D01*
X116527957Y-36753499D01*
X116613236Y-36547619D01*
X116670912Y-36332365D01*
X116699348Y-36116369D01*
X116700000Y-36112815D01*
X116700000Y-35888426D01*
X116699803Y-35887086D01*
X116670912Y-35667634D01*
X116613236Y-35452380D01*
X116527957Y-35246500D01*
X116479214Y-35162074D01*
X116468116Y-35133159D01*
X116465747Y-35122012D01*
X116472147Y-35061162D01*
X116513086Y-35015698D01*
X116517318Y-35013255D01*
X116566804Y-35000000D01*
X119384820Y-35000000D01*
X119415408Y-35004843D01*
X119428095Y-35008966D01*
X119477595Y-35044927D01*
X119477596Y-35044928D01*
X119480591Y-35049050D01*
X119499500Y-35107240D01*
X119499500Y-69885319D01*
X119494654Y-69915912D01*
X119490532Y-69928598D01*
X119454580Y-69978089D01*
X119450459Y-69981084D01*
X119392271Y-70000000D01*
X106614680Y-70000000D01*
X106584087Y-69995154D01*
X106571401Y-69991032D01*
X106521901Y-69955068D01*
X106521894Y-69955058D01*
X106518900Y-69950936D01*
X106500000Y-69892756D01*
X106500000Y-61419625D01*
X111044300Y-61419625D01*
X111044300Y-61564574D01*
X111077385Y-61688049D01*
X111081818Y-61704593D01*
X111154285Y-61830108D01*
X111154287Y-61830110D01*
X111154289Y-61830112D01*
X111154291Y-61830115D01*
X111256785Y-61932609D01*
X111256787Y-61932610D01*
X111256894Y-61932717D01*
X111257145Y-61932903D01*
X111259338Y-61934084D01*
X111371907Y-61999075D01*
X111379557Y-62003492D01*
X111381970Y-62004990D01*
X111382308Y-62005080D01*
X111382311Y-62005082D01*
X111382312Y-62005082D01*
X111382315Y-62005084D01*
X111522325Y-62042600D01*
X111522326Y-62042600D01*
X111667274Y-62042600D01*
X111667275Y-62042600D01*
X111807285Y-62005084D01*
X111807286Y-62005083D01*
X111807288Y-62005082D01*
X111807289Y-62005082D01*
X111926680Y-61936151D01*
X111929568Y-61934748D01*
X111930354Y-61934231D01*
X111935363Y-61931137D01*
X111936662Y-61930386D01*
X111942020Y-61923403D01*
X112035309Y-61830115D01*
X112035313Y-61830108D01*
X112107782Y-61704589D01*
X112107782Y-61704587D01*
X112107784Y-61704585D01*
X112145300Y-61564575D01*
X112145300Y-61419625D01*
X112107784Y-61279615D01*
X112107782Y-61279612D01*
X112107782Y-61279610D01*
X112107781Y-61279608D01*
X112107690Y-61279268D01*
X112106197Y-61276864D01*
X112036785Y-61156639D01*
X112035605Y-61154447D01*
X112035417Y-61154194D01*
X112035310Y-61154087D01*
X112035309Y-61154085D01*
X111932815Y-61051591D01*
X111932812Y-61051589D01*
X111932810Y-61051587D01*
X111864574Y-61012191D01*
X111843541Y-60988831D01*
X111777697Y-60971187D01*
X111777696Y-60971187D01*
X111667275Y-60941600D01*
X111667273Y-60941600D01*
X111522323Y-60941600D01*
X111460588Y-60958141D01*
X111460587Y-60958140D01*
X111382312Y-60979115D01*
X111382306Y-60979118D01*
X111256793Y-61051583D01*
X111154283Y-61154093D01*
X111081818Y-61279605D01*
X111060842Y-61357887D01*
X111044300Y-61419625D01*
X106500000Y-61419625D01*
X106500000Y-59961725D01*
X110471400Y-59961725D01*
X110471400Y-60106674D01*
X110504485Y-60230149D01*
X110508918Y-60246693D01*
X110581385Y-60372208D01*
X110581387Y-60372210D01*
X110581389Y-60372212D01*
X110581391Y-60372215D01*
X110683885Y-60474709D01*
X110683887Y-60474710D01*
X110683994Y-60474817D01*
X110684245Y-60475003D01*
X110686438Y-60476184D01*
X110799007Y-60541175D01*
X110806657Y-60545592D01*
X110809070Y-60547090D01*
X110809408Y-60547180D01*
X110809411Y-60547182D01*
X110809412Y-60547182D01*
X110809415Y-60547184D01*
X110949425Y-60584700D01*
X110949426Y-60584700D01*
X111094374Y-60584700D01*
X111094375Y-60584700D01*
X111234385Y-60547184D01*
X111234386Y-60547183D01*
X111234388Y-60547182D01*
X111234389Y-60547182D01*
X111353780Y-60478251D01*
X111356668Y-60476848D01*
X111357454Y-60476331D01*
X111362463Y-60473237D01*
X111363762Y-60472486D01*
X111369120Y-60465503D01*
X111462409Y-60372215D01*
X111462413Y-60372208D01*
X111534882Y-60246689D01*
X111534882Y-60246687D01*
X111534884Y-60246685D01*
X111572400Y-60106675D01*
X111572400Y-59961725D01*
X111534884Y-59821715D01*
X111534882Y-59821712D01*
X111534882Y-59821710D01*
X111534881Y-59821708D01*
X111534790Y-59821368D01*
X111533297Y-59818964D01*
X111463885Y-59698739D01*
X111462705Y-59696547D01*
X111462517Y-59696294D01*
X111462410Y-59696187D01*
X111462409Y-59696185D01*
X111359915Y-59593691D01*
X111359912Y-59593689D01*
X111359910Y-59593687D01*
X111291674Y-59554291D01*
X111270641Y-59530931D01*
X111204797Y-59513287D01*
X111204796Y-59513287D01*
X111094375Y-59483700D01*
X111094373Y-59483700D01*
X110949423Y-59483700D01*
X110887688Y-59500241D01*
X110887687Y-59500240D01*
X110809412Y-59521215D01*
X110809406Y-59521218D01*
X110683893Y-59593683D01*
X110581383Y-59696193D01*
X110508918Y-59821705D01*
X110487942Y-59899987D01*
X110471400Y-59961725D01*
X106500000Y-59961725D01*
X106500000Y-43465180D01*
X106504843Y-43434594D01*
X106508965Y-43421905D01*
X106544923Y-43372406D01*
X106545522Y-43371971D01*
X106549063Y-43369400D01*
X106607243Y-43350500D01*
X113434820Y-43350500D01*
X113465408Y-43355343D01*
X113478095Y-43359466D01*
X113527595Y-43395427D01*
X113527596Y-43395428D01*
X113530591Y-43399550D01*
X113549500Y-43457740D01*
X113549500Y-43997865D01*
X113549499Y-43997865D01*
X113555908Y-44057476D01*
X113555908Y-44057477D01*
X113555912Y-44057493D01*
X113606200Y-44192326D01*
X113692451Y-44307543D01*
X113692525Y-44307635D01*
X113692802Y-44307882D01*
X113694606Y-44309156D01*
X113761129Y-44358956D01*
X113807669Y-44393796D01*
X113807670Y-44393796D01*
X113807671Y-44393797D01*
X113941545Y-44443728D01*
X113942986Y-44444285D01*
X113944248Y-44444466D01*
X113947768Y-44444655D01*
X114002128Y-44450500D01*
X114002131Y-44450500D01*
X115997869Y-44450500D01*
X115997872Y-44450500D01*
X116057482Y-44444091D01*
X116104304Y-44426627D01*
X116190717Y-44394397D01*
X116194023Y-44393232D01*
X116197581Y-44392047D01*
X116205166Y-44384186D01*
X116307546Y-44307546D01*
X116393796Y-44192330D01*
X116393798Y-44192326D01*
X116444089Y-44057487D01*
X116444088Y-44057487D01*
X116444091Y-44057482D01*
X116450500Y-43997872D01*
X116450500Y-42002128D01*
X116444091Y-41942518D01*
X116444089Y-41942512D01*
X116442818Y-41939104D01*
X116393798Y-41807672D01*
X116371679Y-41778125D01*
X116309156Y-41694606D01*
X116307882Y-41692802D01*
X116307635Y-41692525D01*
X116307543Y-41692451D01*
X116192326Y-41606200D01*
X116062427Y-41557752D01*
X116058938Y-41556234D01*
X116058024Y-41555996D01*
X116055926Y-41555540D01*
X116052205Y-41555341D01*
X116035311Y-41553524D01*
X116026248Y-41552550D01*
X116026247Y-41552549D01*
X115997875Y-41549500D01*
X115997872Y-41549500D01*
X114002128Y-41549500D01*
X113999751Y-41549755D01*
X113977637Y-41552132D01*
X113977637Y-41552133D01*
X113968858Y-41553076D01*
X113942520Y-41555908D01*
X113942514Y-41555909D01*
X113942512Y-41555910D01*
X113942509Y-41555910D01*
X113942505Y-41555912D01*
X113807672Y-41606200D01*
X113692460Y-41692448D01*
X113692448Y-41692460D01*
X113606200Y-41807672D01*
X113555912Y-41942505D01*
X113555910Y-41942509D01*
X113555910Y-41942512D01*
X113555908Y-41942523D01*
X113549501Y-42002128D01*
X113549500Y-42002133D01*
X113549500Y-42534819D01*
X113544654Y-42565412D01*
X113540532Y-42578098D01*
X113504580Y-42627589D01*
X113500459Y-42630584D01*
X113442271Y-42649500D01*
X106614680Y-42649500D01*
X106584087Y-42644654D01*
X106571401Y-42640532D01*
X106521901Y-42604568D01*
X106521894Y-42604558D01*
X106518900Y-42600436D01*
X106500000Y-42542256D01*
X106500000Y-39965180D01*
X106504843Y-39934594D01*
X106505095Y-39933819D01*
X106508965Y-39921905D01*
X106544923Y-39872406D01*
X106545522Y-39871971D01*
X106549063Y-39869400D01*
X106607243Y-39850500D01*
X113501130Y-39850500D01*
X113531718Y-39855343D01*
X113544405Y-39859466D01*
X113593905Y-39895427D01*
X113593908Y-39895431D01*
X113601748Y-39906222D01*
X113615809Y-39933819D01*
X113655765Y-40056792D01*
X113655767Y-40056795D01*
X113759422Y-40260230D01*
X113759429Y-40260241D01*
X113893614Y-40444929D01*
X113893616Y-40444931D01*
X113893618Y-40444933D01*
X113893621Y-40444937D01*
X114055063Y-40606379D01*
X114055066Y-40606381D01*
X114055144Y-40606459D01*
X114055327Y-40606612D01*
X114056669Y-40607546D01*
X114239766Y-40740575D01*
X114239772Y-40740579D01*
X114443201Y-40844231D01*
X114660140Y-40914719D01*
X114660335Y-40914783D01*
X114660338Y-40914783D01*
X114660340Y-40914784D01*
X114660341Y-40914784D01*
X114660344Y-40914785D01*
X114783761Y-40934332D01*
X114885837Y-40950500D01*
X115114160Y-40950500D01*
X115114163Y-40950500D01*
X115203829Y-40936297D01*
X115339655Y-40914785D01*
X115339655Y-40914784D01*
X115339657Y-40914784D01*
X115339660Y-40914784D01*
X115339663Y-40914783D01*
X115342239Y-40914375D01*
X115347046Y-40912383D01*
X115556799Y-40844231D01*
X115760228Y-40740579D01*
X115944937Y-40606379D01*
X116106379Y-40444937D01*
X116240579Y-40260228D01*
X116344231Y-40056799D01*
X116414784Y-39839660D01*
X116434495Y-39715212D01*
X116450500Y-39614160D01*
X116450500Y-39385839D01*
X116450500Y-39385835D01*
X116414786Y-39160352D01*
X116414785Y-39160344D01*
X116411262Y-39149500D01*
X116344231Y-38943201D01*
X116240579Y-38739772D01*
X116240568Y-38739757D01*
X116106383Y-38555068D01*
X116106381Y-38555066D01*
X116106379Y-38555063D01*
X115944937Y-38393621D01*
X115944933Y-38393618D01*
X115944931Y-38393616D01*
X115944929Y-38393614D01*
X115760241Y-38259429D01*
X115760230Y-38259422D01*
X115760227Y-38259420D01*
X115556799Y-38155769D01*
X115339650Y-38085212D01*
X115114163Y-38049500D01*
X115114160Y-38049500D01*
X115114157Y-38049500D01*
X114885843Y-38049500D01*
X114885840Y-38049500D01*
X114885837Y-38049500D01*
X114660348Y-38085212D01*
X114443199Y-38155769D01*
X114239768Y-38259422D01*
X114239757Y-38259429D01*
X114055073Y-38393611D01*
X113893611Y-38555073D01*
X113759429Y-38739757D01*
X113759422Y-38739768D01*
X113655767Y-38943203D01*
X113655765Y-38943206D01*
X113615809Y-39066180D01*
X113601748Y-39093777D01*
X113593908Y-39104568D01*
X113544410Y-39140532D01*
X113531725Y-39144654D01*
X113501130Y-39149500D01*
X106614680Y-39149500D01*
X106584087Y-39144654D01*
X106571401Y-39140532D01*
X106521901Y-39104568D01*
X106521894Y-39104558D01*
X106518900Y-39100436D01*
X106500000Y-39042256D01*
X106500000Y-35114680D01*
X106504843Y-35084094D01*
X106508965Y-35071405D01*
X106544923Y-35021906D01*
X106545522Y-35021471D01*
X106549063Y-35018900D01*
X106607243Y-35000000D01*
X113427206Y-35000000D01*
X113457794Y-35004843D01*
G37*
%TD.AperFunction*%
%TD*%
%TA.AperFunction,Conductor*%
%TO.N,GND*%
G36*
X45659191Y-10519407D02*
G01*
X45695155Y-10568907D01*
X45700000Y-10599500D01*
X45700000Y-17000000D01*
X45700001Y-17000000D01*
X64299999Y-17000000D01*
X64300000Y-17000000D01*
X64300000Y-13878710D01*
X114149500Y-13878710D01*
X114149500Y-14121289D01*
X114181161Y-14361781D01*
X114181161Y-14361786D01*
X114243944Y-14596092D01*
X114243948Y-14596105D01*
X114336772Y-14820204D01*
X114336774Y-14820208D01*
X114336776Y-14820212D01*
X114458064Y-15030289D01*
X114458066Y-15030292D01*
X114605729Y-15222731D01*
X114605731Y-15222733D01*
X114605735Y-15222738D01*
X114777262Y-15394265D01*
X114777266Y-15394268D01*
X114777268Y-15394270D01*
X114969707Y-15541933D01*
X114969711Y-15541936D01*
X115179788Y-15663224D01*
X115403900Y-15756054D01*
X115638211Y-15818838D01*
X115878712Y-15850500D01*
X115878713Y-15850500D01*
X116121287Y-15850500D01*
X116121288Y-15850500D01*
X116361789Y-15818838D01*
X116596100Y-15756054D01*
X116820212Y-15663224D01*
X117030289Y-15541936D01*
X117222738Y-15394265D01*
X117394265Y-15222738D01*
X117541936Y-15030289D01*
X117663224Y-14820212D01*
X117756054Y-14596100D01*
X117818838Y-14361789D01*
X117850500Y-14121288D01*
X117850500Y-13878712D01*
X117818838Y-13638211D01*
X117756054Y-13403900D01*
X117663224Y-13179788D01*
X117541936Y-12969711D01*
X117394265Y-12777262D01*
X117222738Y-12605735D01*
X117222733Y-12605731D01*
X117222731Y-12605729D01*
X117030292Y-12458066D01*
X117030289Y-12458064D01*
X116820212Y-12336776D01*
X116820208Y-12336774D01*
X116820204Y-12336772D01*
X116596105Y-12243948D01*
X116596104Y-12243947D01*
X116596100Y-12243946D01*
X116361789Y-12181162D01*
X116361786Y-12181161D01*
X116361784Y-12181161D01*
X116121289Y-12149500D01*
X116121288Y-12149500D01*
X115878712Y-12149500D01*
X115878710Y-12149500D01*
X115638218Y-12181161D01*
X115638213Y-12181161D01*
X115403907Y-12243944D01*
X115403894Y-12243948D01*
X115179795Y-12336772D01*
X114969707Y-12458066D01*
X114777268Y-12605729D01*
X114605729Y-12777268D01*
X114458066Y-12969707D01*
X114336772Y-13179795D01*
X114243948Y-13403894D01*
X114243944Y-13403907D01*
X114181161Y-13638213D01*
X114181161Y-13638218D01*
X114149500Y-13878710D01*
X64300000Y-13878710D01*
X64300000Y-10599500D01*
X64318907Y-10541309D01*
X64368407Y-10505345D01*
X64399000Y-10500500D01*
X119400500Y-10500500D01*
X119458691Y-10519407D01*
X119494655Y-10568907D01*
X119499500Y-10599500D01*
X119499500Y-33901000D01*
X119480593Y-33959191D01*
X119431093Y-33995155D01*
X119400500Y-34000000D01*
X115663451Y-34000000D01*
X115605260Y-33981093D01*
X115569296Y-33931593D01*
X115569296Y-33870407D01*
X115605260Y-33820907D01*
X115618506Y-33812790D01*
X115659906Y-33791695D01*
X115760228Y-33740579D01*
X115944937Y-33606379D01*
X116106379Y-33444937D01*
X116240579Y-33260228D01*
X116344231Y-33056799D01*
X116414784Y-32839660D01*
X116419882Y-32807474D01*
X116450500Y-32614160D01*
X116450500Y-32385839D01*
X116414785Y-32160344D01*
X116414784Y-32160340D01*
X116344231Y-31943201D01*
X116240579Y-31739772D01*
X116106379Y-31555063D01*
X115944937Y-31393621D01*
X115944933Y-31393618D01*
X115944931Y-31393616D01*
X115760233Y-31259424D01*
X115760227Y-31259420D01*
X115556799Y-31155769D01*
X115339655Y-31085214D01*
X115114160Y-31049500D01*
X115114157Y-31049500D01*
X114885843Y-31049500D01*
X114885840Y-31049500D01*
X114660344Y-31085214D01*
X114443200Y-31155769D01*
X114239772Y-31259420D01*
X114239766Y-31259424D01*
X114055068Y-31393616D01*
X113893616Y-31555068D01*
X113759424Y-31739766D01*
X113759420Y-31739772D01*
X113655769Y-31943200D01*
X113585214Y-32160344D01*
X113549500Y-32385839D01*
X113549500Y-32614160D01*
X113585214Y-32839655D01*
X113655769Y-33056799D01*
X113759420Y-33260227D01*
X113759424Y-33260233D01*
X113893616Y-33444931D01*
X113893618Y-33444933D01*
X113893621Y-33444937D01*
X114055063Y-33606379D01*
X114055066Y-33606381D01*
X114055068Y-33606383D01*
X114239766Y-33740575D01*
X114239772Y-33740579D01*
X114381494Y-33812790D01*
X114424759Y-33856055D01*
X114434330Y-33916487D01*
X114406553Y-33971004D01*
X114352036Y-33998781D01*
X114336549Y-34000000D01*
X103500000Y-34000000D01*
X103500000Y-34000001D01*
X103500000Y-39050500D01*
X103481093Y-39108691D01*
X103431593Y-39144655D01*
X103401000Y-39149500D01*
X102686189Y-39149500D01*
X102627998Y-39130593D01*
X102616185Y-39120504D01*
X95516602Y-32020920D01*
X95488825Y-31966403D01*
X95498396Y-31905971D01*
X95500870Y-31901416D01*
X95573343Y-31775889D01*
X95573344Y-31775888D01*
X95661158Y-31563887D01*
X95720548Y-31342238D01*
X95750500Y-31114734D01*
X95750500Y-30885266D01*
X95750500Y-30885265D01*
X100249500Y-30885265D01*
X100249500Y-31114734D01*
X100279452Y-31342238D01*
X100338841Y-31563885D01*
X100426653Y-31775883D01*
X100541388Y-31974611D01*
X100649010Y-32114865D01*
X100681081Y-32156661D01*
X100843339Y-32318919D01*
X101025388Y-32458611D01*
X101224112Y-32573344D01*
X101224113Y-32573344D01*
X101224116Y-32573346D01*
X101320167Y-32613131D01*
X101436113Y-32661158D01*
X101657762Y-32720548D01*
X101885266Y-32750500D01*
X101885267Y-32750500D01*
X102114733Y-32750500D01*
X102114734Y-32750500D01*
X102342238Y-32720548D01*
X102563887Y-32661158D01*
X102775888Y-32573344D01*
X102974612Y-32458611D01*
X103156661Y-32318919D01*
X103318919Y-32156661D01*
X103458611Y-31974612D01*
X103573344Y-31775888D01*
X103661158Y-31563887D01*
X103720548Y-31342238D01*
X103750500Y-31114734D01*
X103750500Y-30885266D01*
X103720548Y-30657762D01*
X103661158Y-30436113D01*
X103573344Y-30224112D01*
X103458611Y-30025388D01*
X103318919Y-29843339D01*
X103156661Y-29681081D01*
X103156656Y-29681077D01*
X103156654Y-29681075D01*
X103077325Y-29620203D01*
X103077299Y-29620184D01*
X102974612Y-29541389D01*
X102974613Y-29541389D01*
X102974611Y-29541388D01*
X102775883Y-29426653D01*
X102563885Y-29338841D01*
X102342238Y-29279452D01*
X102114734Y-29249500D01*
X101885266Y-29249500D01*
X101885265Y-29249500D01*
X101657761Y-29279452D01*
X101436114Y-29338841D01*
X101224116Y-29426653D01*
X101025388Y-29541388D01*
X100843342Y-29681078D01*
X100681078Y-29843342D01*
X100541388Y-30025388D01*
X100426653Y-30224116D01*
X100338841Y-30436114D01*
X100279452Y-30657761D01*
X100249500Y-30885265D01*
X95750500Y-30885265D01*
X95720548Y-30657762D01*
X95661158Y-30436113D01*
X95573344Y-30224112D01*
X95458611Y-30025388D01*
X95318919Y-29843339D01*
X95156661Y-29681081D01*
X94974612Y-29541389D01*
X94974613Y-29541389D01*
X94974611Y-29541388D01*
X94775883Y-29426653D01*
X94563885Y-29338841D01*
X94342238Y-29279452D01*
X94114734Y-29249500D01*
X93885266Y-29249500D01*
X93885265Y-29249500D01*
X93657761Y-29279452D01*
X93436114Y-29338841D01*
X93224116Y-29426653D01*
X93025388Y-29541388D01*
X92843342Y-29681078D01*
X92681078Y-29843342D01*
X92541388Y-30025388D01*
X92426653Y-30224116D01*
X92338841Y-30436114D01*
X92279452Y-30657761D01*
X92249500Y-30885265D01*
X92249500Y-31114734D01*
X92279452Y-31342238D01*
X92338841Y-31563885D01*
X92426653Y-31775883D01*
X92541388Y-31974611D01*
X92649010Y-32114865D01*
X92681081Y-32156661D01*
X92843339Y-32318919D01*
X93025388Y-32458611D01*
X93224112Y-32573344D01*
X93224113Y-32573344D01*
X93224116Y-32573346D01*
X93320167Y-32613131D01*
X93436113Y-32661158D01*
X93657762Y-32720548D01*
X93885266Y-32750500D01*
X93885267Y-32750500D01*
X94114733Y-32750500D01*
X94114734Y-32750500D01*
X94342238Y-32720548D01*
X94563887Y-32661158D01*
X94775888Y-32573344D01*
X94901416Y-32500869D01*
X94961264Y-32488148D01*
X95017160Y-32513034D01*
X95020920Y-32516602D01*
X102219531Y-39715212D01*
X102219530Y-39715212D01*
X102284787Y-39780468D01*
X102284789Y-39780470D01*
X102333702Y-39808710D01*
X102364712Y-39826614D01*
X102453856Y-39850500D01*
X103401000Y-39850500D01*
X103459191Y-39869407D01*
X103495155Y-39918907D01*
X103500000Y-39949500D01*
X103500000Y-42550500D01*
X103481093Y-42608691D01*
X103431593Y-42644655D01*
X103401000Y-42649500D01*
X98186190Y-42649500D01*
X98127999Y-42630593D01*
X98116186Y-42620504D01*
X87516602Y-32020920D01*
X87488825Y-31966403D01*
X87498396Y-31905971D01*
X87500870Y-31901416D01*
X87573343Y-31775889D01*
X87573344Y-31775888D01*
X87661158Y-31563887D01*
X87720548Y-31342238D01*
X87750500Y-31114734D01*
X87750500Y-30885266D01*
X87720548Y-30657762D01*
X87661158Y-30436113D01*
X87573344Y-30224112D01*
X87458611Y-30025388D01*
X87318919Y-29843339D01*
X87156661Y-29681081D01*
X86974612Y-29541389D01*
X86974613Y-29541389D01*
X86974611Y-29541388D01*
X86775883Y-29426653D01*
X86563885Y-29338841D01*
X86342238Y-29279452D01*
X86114734Y-29249500D01*
X85885266Y-29249500D01*
X85885265Y-29249500D01*
X85657761Y-29279452D01*
X85436114Y-29338841D01*
X85224116Y-29426653D01*
X85025388Y-29541388D01*
X84843342Y-29681078D01*
X84681078Y-29843342D01*
X84541388Y-30025388D01*
X84426653Y-30224116D01*
X84338841Y-30436114D01*
X84279452Y-30657761D01*
X84249500Y-30885265D01*
X84249500Y-31114734D01*
X84279452Y-31342238D01*
X84338841Y-31563885D01*
X84426653Y-31775883D01*
X84541388Y-31974611D01*
X84649010Y-32114865D01*
X84681081Y-32156661D01*
X84843339Y-32318919D01*
X85025388Y-32458611D01*
X85224112Y-32573344D01*
X85224113Y-32573344D01*
X85224116Y-32573346D01*
X85320167Y-32613131D01*
X85436113Y-32661158D01*
X85657762Y-32720548D01*
X85885266Y-32750500D01*
X85885267Y-32750500D01*
X86114733Y-32750500D01*
X86114734Y-32750500D01*
X86342238Y-32720548D01*
X86563887Y-32661158D01*
X86775888Y-32573344D01*
X86901416Y-32500869D01*
X86961264Y-32488148D01*
X87017160Y-32513034D01*
X87020920Y-32516602D01*
X94600828Y-40096510D01*
X94628604Y-40151025D01*
X94619033Y-40211457D01*
X94575768Y-40254722D01*
X94515336Y-40264293D01*
X94505201Y-40262139D01*
X94475944Y-40254300D01*
X78480389Y-40254300D01*
X78422198Y-40235393D01*
X78386234Y-40185893D01*
X78386234Y-40124707D01*
X78410383Y-40085298D01*
X81979080Y-36516600D01*
X82033595Y-36488825D01*
X82094027Y-36498396D01*
X82098566Y-36500860D01*
X82224112Y-36573344D01*
X82224113Y-36573344D01*
X82224116Y-36573346D01*
X82320167Y-36613131D01*
X82436113Y-36661158D01*
X82657762Y-36720548D01*
X82885266Y-36750500D01*
X82885267Y-36750500D01*
X83114733Y-36750500D01*
X83114734Y-36750500D01*
X83342238Y-36720548D01*
X83563887Y-36661158D01*
X83775888Y-36573344D01*
X83974612Y-36458611D01*
X84156661Y-36318919D01*
X84318919Y-36156661D01*
X84458611Y-35974612D01*
X84573344Y-35775888D01*
X84661158Y-35563887D01*
X84720548Y-35342238D01*
X84750500Y-35114734D01*
X84750500Y-34885266D01*
X84720548Y-34657762D01*
X84661158Y-34436113D01*
X84573344Y-34224112D01*
X84458611Y-34025388D01*
X84318919Y-33843339D01*
X84156661Y-33681081D01*
X83974612Y-33541389D01*
X83974613Y-33541389D01*
X83974611Y-33541388D01*
X83775883Y-33426653D01*
X83563885Y-33338841D01*
X83342238Y-33279452D01*
X83114734Y-33249500D01*
X82885266Y-33249500D01*
X82885265Y-33249500D01*
X82657761Y-33279452D01*
X82436114Y-33338841D01*
X82224116Y-33426653D01*
X82025388Y-33541388D01*
X81843342Y-33681078D01*
X81681078Y-33843342D01*
X81541388Y-34025388D01*
X81426653Y-34224116D01*
X81338841Y-34436114D01*
X81279452Y-34657761D01*
X81249500Y-34885265D01*
X81249500Y-35114734D01*
X81279452Y-35342238D01*
X81338841Y-35563885D01*
X81426655Y-35775886D01*
X81499129Y-35901417D01*
X81511850Y-35961265D01*
X81486963Y-36017160D01*
X81483396Y-36020920D01*
X78002414Y-39501904D01*
X77947897Y-39529681D01*
X77932410Y-39530900D01*
X77067564Y-39530900D01*
X77009373Y-39511993D01*
X76973409Y-39462493D01*
X76971938Y-39406276D01*
X76990399Y-39337377D01*
X76990400Y-39337375D01*
X76990400Y-39192425D01*
X76973832Y-39130593D01*
X76952884Y-39052415D01*
X76952882Y-39052412D01*
X76952882Y-39052410D01*
X76880412Y-38926889D01*
X76880410Y-38926887D01*
X76880409Y-38926885D01*
X76777915Y-38824391D01*
X76777912Y-38824389D01*
X76777910Y-38824387D01*
X76652388Y-38751917D01*
X76652389Y-38751917D01*
X76607063Y-38739772D01*
X76512375Y-38714400D01*
X76512374Y-38714400D01*
X76426090Y-38714400D01*
X76367899Y-38695493D01*
X76356086Y-38685404D01*
X71337667Y-33666985D01*
X66302712Y-28632030D01*
X66222788Y-28585886D01*
X66133644Y-28562000D01*
X66133642Y-28562000D01*
X48001532Y-28562000D01*
X47943341Y-28543093D01*
X47931529Y-28533004D01*
X47870515Y-28471991D01*
X47870510Y-28471987D01*
X47744988Y-28399517D01*
X47744989Y-28399517D01*
X47713241Y-28391010D01*
X47604975Y-28362000D01*
X47460025Y-28362000D01*
X47398290Y-28378541D01*
X47320010Y-28399517D01*
X47194489Y-28471987D01*
X47091987Y-28574489D01*
X47019517Y-28700010D01*
X46982000Y-28840025D01*
X46982000Y-28984974D01*
X47019517Y-29124989D01*
X47091987Y-29250510D01*
X47091989Y-29250512D01*
X47091991Y-29250515D01*
X47194485Y-29353009D01*
X47194487Y-29353010D01*
X47194489Y-29353012D01*
X47320011Y-29425482D01*
X47320012Y-29425482D01*
X47320015Y-29425484D01*
X47460025Y-29463000D01*
X47460026Y-29463000D01*
X47604974Y-29463000D01*
X47604975Y-29463000D01*
X47744985Y-29425484D01*
X47744987Y-29425482D01*
X47744989Y-29425482D01*
X47870510Y-29353012D01*
X47870510Y-29353011D01*
X47870515Y-29353009D01*
X47901022Y-29322502D01*
X47931529Y-29291996D01*
X47986046Y-29264219D01*
X48001532Y-29263000D01*
X65901310Y-29263000D01*
X65959501Y-29281907D01*
X65971314Y-29291996D01*
X75860404Y-39181086D01*
X75888181Y-39235603D01*
X75889400Y-39251090D01*
X75889400Y-39337377D01*
X75907862Y-39406276D01*
X75904661Y-39467378D01*
X75866156Y-39514928D01*
X75812236Y-39530900D01*
X74982390Y-39530900D01*
X74924199Y-39511993D01*
X74912386Y-39501904D01*
X73205986Y-37795504D01*
X71303412Y-35892930D01*
X71223488Y-35846786D01*
X71134344Y-35822900D01*
X26728756Y-35822900D01*
X26639612Y-35846786D01*
X26559688Y-35892930D01*
X23839117Y-38613500D01*
X23784600Y-38641277D01*
X23724168Y-38631706D01*
X23680903Y-38588441D01*
X23671332Y-38528009D01*
X23673481Y-38517895D01*
X23720548Y-38342238D01*
X23750500Y-38114734D01*
X23750500Y-37885266D01*
X23720548Y-37657762D01*
X23661158Y-37436113D01*
X23573344Y-37224112D01*
X23458611Y-37025388D01*
X23318919Y-36843339D01*
X23156661Y-36681081D01*
X23101021Y-36638387D01*
X22974611Y-36541388D01*
X22775883Y-36426653D01*
X22563885Y-36338841D01*
X22342238Y-36279452D01*
X22114734Y-36249500D01*
X21885266Y-36249500D01*
X21885265Y-36249500D01*
X21657761Y-36279452D01*
X21436114Y-36338841D01*
X21224116Y-36426653D01*
X21025388Y-36541388D01*
X20843342Y-36681078D01*
X20681078Y-36843342D01*
X20541388Y-37025388D01*
X20426653Y-37224116D01*
X20338841Y-37436114D01*
X20279452Y-37657761D01*
X20249500Y-37885265D01*
X20249500Y-38114734D01*
X20279452Y-38342238D01*
X20338841Y-38563885D01*
X20426653Y-38775883D01*
X20541388Y-38974611D01*
X20580351Y-39025388D01*
X20681081Y-39156661D01*
X20843339Y-39318919D01*
X21025388Y-39458611D01*
X21224112Y-39573344D01*
X21224113Y-39573344D01*
X21224116Y-39573346D01*
X21320167Y-39613131D01*
X21436113Y-39661158D01*
X21657762Y-39720548D01*
X21885266Y-39750500D01*
X21885267Y-39750500D01*
X22114733Y-39750500D01*
X22114734Y-39750500D01*
X22342238Y-39720548D01*
X22517873Y-39673487D01*
X22578975Y-39676690D01*
X22626524Y-39715195D01*
X22642360Y-39774295D01*
X22620433Y-39831417D01*
X22613508Y-39839108D01*
X20376144Y-42076474D01*
X17719526Y-44733092D01*
X17673699Y-44812467D01*
X17673700Y-44812468D01*
X17673385Y-44813012D01*
X17649499Y-44902158D01*
X17648653Y-44908590D01*
X17646944Y-44908365D01*
X17630593Y-44958691D01*
X17581093Y-44994655D01*
X17550500Y-44999500D01*
X17450326Y-44999500D01*
X17450325Y-44999500D01*
X17450315Y-44999501D01*
X17377263Y-45014033D01*
X17377257Y-45014035D01*
X17294400Y-45069397D01*
X17294397Y-45069400D01*
X17239035Y-45152257D01*
X17239033Y-45152263D01*
X17224501Y-45225315D01*
X17224500Y-45225327D01*
X17224500Y-46774672D01*
X17224501Y-46774684D01*
X17239033Y-46847736D01*
X17239035Y-46847742D01*
X17294397Y-46930599D01*
X17294400Y-46930602D01*
X17306692Y-46938815D01*
X17377260Y-46985966D01*
X17432808Y-46997015D01*
X17450315Y-47000498D01*
X17450320Y-47000498D01*
X17450326Y-47000500D01*
X17450327Y-47000500D01*
X18554538Y-47000500D01*
X18554538Y-47002697D01*
X18605878Y-47013951D01*
X18612494Y-47018561D01*
X18612557Y-47018468D01*
X18784472Y-47133340D01*
X18784484Y-47133346D01*
X18971016Y-47210609D01*
X18971019Y-47210610D01*
X19019999Y-47220352D01*
X19020000Y-47220352D01*
X19020000Y-46280330D01*
X19039745Y-46300075D01*
X19125255Y-46349444D01*
X19220630Y-46375000D01*
X19319370Y-46375000D01*
X19414745Y-46349444D01*
X19500255Y-46300075D01*
X19520000Y-46280330D01*
X19520000Y-47220352D01*
X19568980Y-47210610D01*
X19568983Y-47210609D01*
X19755515Y-47133346D01*
X19755527Y-47133340D01*
X19923399Y-47021169D01*
X19923408Y-47021162D01*
X20031089Y-46913480D01*
X20085605Y-46885702D01*
X20146037Y-46895273D01*
X20156080Y-46901159D01*
X20172663Y-46912239D01*
X20313795Y-46970698D01*
X20463620Y-47000500D01*
X20463621Y-47000500D01*
X20616379Y-47000500D01*
X20616380Y-47000500D01*
X20766205Y-46970698D01*
X20907337Y-46912239D01*
X21034352Y-46827370D01*
X21142370Y-46719352D01*
X21227239Y-46592337D01*
X21285698Y-46451205D01*
X21315500Y-46301380D01*
X21315500Y-45698620D01*
X21285698Y-45548795D01*
X21227240Y-45407665D01*
X21227240Y-45407664D01*
X21206094Y-45376018D01*
X21142370Y-45280648D01*
X21034352Y-45172630D01*
X20907337Y-45087761D01*
X20907336Y-45087760D01*
X20907334Y-45087759D01*
X20766205Y-45029302D01*
X20616382Y-44999500D01*
X20616380Y-44999500D01*
X20463620Y-44999500D01*
X20463617Y-44999500D01*
X20313795Y-45029302D01*
X20313793Y-45029302D01*
X20172664Y-45087759D01*
X20156091Y-45098833D01*
X20097202Y-45115439D01*
X20039800Y-45094259D01*
X20031089Y-45086519D01*
X19923403Y-44978833D01*
X19923399Y-44978830D01*
X19755527Y-44866659D01*
X19755515Y-44866653D01*
X19568984Y-44789390D01*
X19520000Y-44779646D01*
X19520000Y-45719670D01*
X19500255Y-45699925D01*
X19414745Y-45650556D01*
X19319370Y-45625000D01*
X19220630Y-45625000D01*
X19125255Y-45650556D01*
X19039745Y-45699925D01*
X19020000Y-45719670D01*
X19020000Y-44779646D01*
X18971020Y-44789389D01*
X18890667Y-44822672D01*
X18829670Y-44827471D01*
X18777501Y-44795502D01*
X18754087Y-44738973D01*
X18768371Y-44679479D01*
X18782774Y-44661207D01*
X26891086Y-36552896D01*
X26945603Y-36525119D01*
X26961090Y-36523900D01*
X28761513Y-36523900D01*
X28819704Y-36542807D01*
X28855668Y-36592307D01*
X28855668Y-36653493D01*
X28831518Y-36692901D01*
X28755135Y-36769285D01*
X28681078Y-36843342D01*
X28541388Y-37025388D01*
X28426653Y-37224116D01*
X28338841Y-37436114D01*
X28279452Y-37657761D01*
X28249500Y-37885265D01*
X28249500Y-38114734D01*
X28279452Y-38342238D01*
X28338841Y-38563885D01*
X28426653Y-38775883D01*
X28541388Y-38974611D01*
X28580351Y-39025388D01*
X28681081Y-39156661D01*
X28843339Y-39318919D01*
X29025388Y-39458611D01*
X29224112Y-39573344D01*
X29224113Y-39573344D01*
X29224116Y-39573346D01*
X29320167Y-39613131D01*
X29436113Y-39661158D01*
X29657762Y-39720548D01*
X29885266Y-39750500D01*
X29885267Y-39750500D01*
X30114733Y-39750500D01*
X30114734Y-39750500D01*
X30342238Y-39720548D01*
X30563887Y-39661158D01*
X30775888Y-39573344D01*
X30974612Y-39458611D01*
X31156661Y-39318919D01*
X31318919Y-39156661D01*
X31458611Y-38974612D01*
X31573344Y-38775888D01*
X31661158Y-38563887D01*
X31720548Y-38342238D01*
X31750500Y-38114734D01*
X31750500Y-37885266D01*
X31720548Y-37657762D01*
X31661158Y-37436113D01*
X31573344Y-37224112D01*
X31458611Y-37025388D01*
X31318919Y-36843339D01*
X31168481Y-36692901D01*
X31140706Y-36638387D01*
X31150277Y-36577955D01*
X31193542Y-36534690D01*
X31238487Y-36523900D01*
X36761513Y-36523900D01*
X36819704Y-36542807D01*
X36855668Y-36592307D01*
X36855668Y-36653493D01*
X36831518Y-36692901D01*
X36755135Y-36769285D01*
X36681078Y-36843342D01*
X36541388Y-37025388D01*
X36426653Y-37224116D01*
X36338841Y-37436114D01*
X36279452Y-37657761D01*
X36249500Y-37885265D01*
X36249500Y-38114734D01*
X36279452Y-38342238D01*
X36338841Y-38563885D01*
X36426653Y-38775883D01*
X36541388Y-38974611D01*
X36580351Y-39025388D01*
X36681081Y-39156661D01*
X36843339Y-39318919D01*
X37025388Y-39458611D01*
X37224112Y-39573344D01*
X37224113Y-39573344D01*
X37224116Y-39573346D01*
X37320167Y-39613131D01*
X37436113Y-39661158D01*
X37657762Y-39720548D01*
X37885266Y-39750500D01*
X37885267Y-39750500D01*
X38114733Y-39750500D01*
X38114734Y-39750500D01*
X38342238Y-39720548D01*
X38563887Y-39661158D01*
X38775888Y-39573344D01*
X38974612Y-39458611D01*
X39156661Y-39318919D01*
X39318919Y-39156661D01*
X39458611Y-38974612D01*
X39573344Y-38775888D01*
X39661158Y-38563887D01*
X39720548Y-38342238D01*
X39750500Y-38114734D01*
X39750500Y-37885266D01*
X39720548Y-37657762D01*
X39661158Y-37436113D01*
X39573344Y-37224112D01*
X39458611Y-37025388D01*
X39318919Y-36843339D01*
X39168481Y-36692901D01*
X39140706Y-36638387D01*
X39150277Y-36577955D01*
X39193542Y-36534690D01*
X39238487Y-36523900D01*
X68761513Y-36523900D01*
X68819704Y-36542807D01*
X68855668Y-36592307D01*
X68855668Y-36653493D01*
X68831516Y-36692904D01*
X68732515Y-36791904D01*
X68677999Y-36819681D01*
X68662512Y-36820900D01*
X43340356Y-36820900D01*
X43285797Y-36835518D01*
X43251207Y-36844787D01*
X43171291Y-36890927D01*
X28941714Y-51120504D01*
X28887197Y-51148281D01*
X28871710Y-51149500D01*
X17483190Y-51149500D01*
X17424999Y-51130593D01*
X17389035Y-51081093D01*
X17344231Y-50943201D01*
X17240579Y-50739772D01*
X17106379Y-50555063D01*
X16944937Y-50393621D01*
X16944933Y-50393618D01*
X16944931Y-50393616D01*
X16760233Y-50259424D01*
X16760227Y-50259420D01*
X16556799Y-50155769D01*
X16339655Y-50085214D01*
X16114160Y-50049500D01*
X16114157Y-50049500D01*
X15885843Y-50049500D01*
X15885840Y-50049500D01*
X15660344Y-50085214D01*
X15443200Y-50155769D01*
X15239772Y-50259420D01*
X15239766Y-50259424D01*
X15055068Y-50393616D01*
X14893616Y-50555068D01*
X14759424Y-50739766D01*
X14759420Y-50739772D01*
X14655769Y-50943200D01*
X14585214Y-51160344D01*
X14549500Y-51385839D01*
X14549500Y-51614160D01*
X14585214Y-51839655D01*
X14655769Y-52056799D01*
X14759420Y-52260227D01*
X14759424Y-52260233D01*
X14893616Y-52444931D01*
X14893618Y-52444933D01*
X14893621Y-52444937D01*
X15055063Y-52606379D01*
X15055066Y-52606381D01*
X15055068Y-52606383D01*
X15239766Y-52740575D01*
X15239772Y-52740579D01*
X15443201Y-52844231D01*
X15660340Y-52914784D01*
X15660341Y-52914784D01*
X15660344Y-52914785D01*
X15885840Y-52950500D01*
X15885843Y-52950500D01*
X16114160Y-52950500D01*
X16339655Y-52914785D01*
X16339656Y-52914784D01*
X16339660Y-52914784D01*
X16556799Y-52844231D01*
X16760228Y-52740579D01*
X16944937Y-52606379D01*
X17106379Y-52444937D01*
X17240579Y-52260228D01*
X17344231Y-52056799D01*
X17389035Y-51918906D01*
X17424999Y-51869407D01*
X17483190Y-51850500D01*
X29104042Y-51850500D01*
X29104044Y-51850500D01*
X29193188Y-51826614D01*
X29273112Y-51780470D01*
X43502686Y-37550896D01*
X43557203Y-37523119D01*
X43572690Y-37521900D01*
X44763513Y-37521900D01*
X44821704Y-37540807D01*
X44857668Y-37590307D01*
X44857668Y-37651493D01*
X44833518Y-37690901D01*
X44728916Y-37795504D01*
X44681078Y-37843342D01*
X44541388Y-38025388D01*
X44426653Y-38224116D01*
X44338841Y-38436114D01*
X44279452Y-38657761D01*
X44249500Y-38885265D01*
X44249500Y-39114734D01*
X44279452Y-39342238D01*
X44338841Y-39563885D01*
X44426653Y-39775883D01*
X44526890Y-39949500D01*
X44541389Y-39974612D01*
X44681081Y-40156661D01*
X44843339Y-40318919D01*
X45025388Y-40458611D01*
X45224112Y-40573344D01*
X45224113Y-40573344D01*
X45224116Y-40573346D01*
X45303865Y-40606379D01*
X45436113Y-40661158D01*
X45657762Y-40720548D01*
X45885266Y-40750500D01*
X45885267Y-40750500D01*
X46114733Y-40750500D01*
X46114734Y-40750500D01*
X46342238Y-40720548D01*
X46563887Y-40661158D01*
X46775888Y-40573344D01*
X46974612Y-40458611D01*
X47156661Y-40318919D01*
X47318919Y-40156661D01*
X47458611Y-39974612D01*
X47573344Y-39775888D01*
X47661158Y-39563887D01*
X47720548Y-39342238D01*
X47750500Y-39114734D01*
X47750500Y-38885266D01*
X47720548Y-38657762D01*
X47718502Y-38650125D01*
X47721703Y-38589023D01*
X47760207Y-38541472D01*
X47814128Y-38525500D01*
X52759913Y-38525500D01*
X52818104Y-38544407D01*
X52854068Y-38593907D01*
X52854068Y-38655093D01*
X52829918Y-38694501D01*
X52748537Y-38775883D01*
X52681078Y-38843342D01*
X52541388Y-39025388D01*
X52426653Y-39224116D01*
X52338841Y-39436114D01*
X52279452Y-39657761D01*
X52249500Y-39885265D01*
X52249500Y-40114734D01*
X52279452Y-40342238D01*
X52338841Y-40563885D01*
X52426653Y-40775883D01*
X52541388Y-40974611D01*
X52649010Y-41114865D01*
X52681081Y-41156661D01*
X52843339Y-41318919D01*
X53025388Y-41458611D01*
X53224112Y-41573344D01*
X53224113Y-41573344D01*
X53224116Y-41573346D01*
X53252476Y-41585093D01*
X53436113Y-41661158D01*
X53657762Y-41720548D01*
X53885266Y-41750500D01*
X53885267Y-41750500D01*
X54114733Y-41750500D01*
X54114734Y-41750500D01*
X54342238Y-41720548D01*
X54563887Y-41661158D01*
X54775888Y-41573344D01*
X54901416Y-41500869D01*
X54961264Y-41488148D01*
X55017160Y-41513034D01*
X55020920Y-41516602D01*
X61556288Y-48051970D01*
X61556290Y-48051971D01*
X61625577Y-48091975D01*
X61625586Y-48091978D01*
X61625588Y-48091980D01*
X61636212Y-48098114D01*
X61725356Y-48122000D01*
X61725357Y-48122000D01*
X61817644Y-48122000D01*
X83668468Y-48122000D01*
X83726659Y-48140907D01*
X83738471Y-48150996D01*
X83799484Y-48212008D01*
X83799489Y-48212012D01*
X83925011Y-48284482D01*
X83925012Y-48284482D01*
X83925015Y-48284484D01*
X84065025Y-48322000D01*
X84065026Y-48322000D01*
X84209974Y-48322000D01*
X84209975Y-48322000D01*
X84349985Y-48284484D01*
X84349987Y-48284482D01*
X84349989Y-48284482D01*
X84475510Y-48212012D01*
X84475510Y-48212011D01*
X84475515Y-48212009D01*
X84578009Y-48109515D01*
X84578012Y-48109510D01*
X84650482Y-47983989D01*
X84650482Y-47983987D01*
X84650484Y-47983985D01*
X84688000Y-47843975D01*
X84688000Y-47699025D01*
X84650484Y-47559015D01*
X84650482Y-47559012D01*
X84650482Y-47559010D01*
X84578012Y-47433489D01*
X84578010Y-47433487D01*
X84578009Y-47433485D01*
X84475515Y-47330991D01*
X84475512Y-47330989D01*
X84475510Y-47330987D01*
X84349988Y-47258517D01*
X84349989Y-47258517D01*
X84259756Y-47234339D01*
X84209975Y-47221000D01*
X84065025Y-47221000D01*
X84015244Y-47234339D01*
X83925010Y-47258517D01*
X83799489Y-47330987D01*
X83799484Y-47330991D01*
X83738471Y-47392004D01*
X83683954Y-47419781D01*
X83668468Y-47421000D01*
X61957690Y-47421000D01*
X61899499Y-47402093D01*
X61887686Y-47392004D01*
X59023207Y-44527525D01*
X63674500Y-44527525D01*
X63674500Y-44672475D01*
X63701868Y-44774611D01*
X63712017Y-44812489D01*
X63784487Y-44938010D01*
X63784489Y-44938012D01*
X63784491Y-44938015D01*
X63886985Y-45040509D01*
X63886987Y-45040510D01*
X63886989Y-45040512D01*
X64012511Y-45112982D01*
X64012512Y-45112982D01*
X64012515Y-45112984D01*
X64152525Y-45150500D01*
X64152526Y-45150500D01*
X64297474Y-45150500D01*
X64297475Y-45150500D01*
X64437485Y-45112984D01*
X64437487Y-45112982D01*
X64437489Y-45112982D01*
X64563010Y-45040512D01*
X64563010Y-45040511D01*
X64563015Y-45040509D01*
X64665509Y-44938015D01*
X64678572Y-44915389D01*
X64737982Y-44812489D01*
X64737982Y-44812487D01*
X64737984Y-44812485D01*
X64775500Y-44672475D01*
X64775500Y-44527525D01*
X64737984Y-44387515D01*
X64737982Y-44387512D01*
X64737982Y-44387510D01*
X64665512Y-44261989D01*
X64665510Y-44261987D01*
X64665509Y-44261985D01*
X64563015Y-44159491D01*
X64563012Y-44159489D01*
X64563010Y-44159487D01*
X64437488Y-44087017D01*
X64437489Y-44087017D01*
X64407896Y-44079087D01*
X64297475Y-44049500D01*
X64152525Y-44049500D01*
X64090790Y-44066041D01*
X64012510Y-44087017D01*
X63886989Y-44159487D01*
X63784487Y-44261989D01*
X63712017Y-44387510D01*
X63712016Y-44387515D01*
X63674500Y-44527525D01*
X59023207Y-44527525D01*
X55516602Y-41020920D01*
X55488825Y-40966403D01*
X55498396Y-40905971D01*
X55500870Y-40901416D01*
X55510191Y-40885272D01*
X55573344Y-40775888D01*
X55661158Y-40563887D01*
X55720548Y-40342238D01*
X55750500Y-40114734D01*
X55750500Y-39885266D01*
X55720548Y-39657762D01*
X55661158Y-39436113D01*
X55573344Y-39224112D01*
X55458611Y-39025388D01*
X55318919Y-38843339D01*
X55170081Y-38694501D01*
X55142306Y-38639987D01*
X55151877Y-38579555D01*
X55195142Y-38536290D01*
X55240087Y-38525500D01*
X57274210Y-38525500D01*
X57332401Y-38544407D01*
X57344214Y-38554496D01*
X61074188Y-42284470D01*
X61074190Y-42284471D01*
X61143477Y-42324475D01*
X61143486Y-42324478D01*
X61143488Y-42324480D01*
X61154112Y-42330614D01*
X61243256Y-42354500D01*
X61243257Y-42354500D01*
X61335544Y-42354500D01*
X63704368Y-42354500D01*
X63762559Y-42373407D01*
X63774371Y-42383496D01*
X63835384Y-42444508D01*
X63835389Y-42444512D01*
X63960911Y-42516982D01*
X63960912Y-42516982D01*
X63960915Y-42516984D01*
X64100925Y-42554500D01*
X64100926Y-42554500D01*
X64245874Y-42554500D01*
X64245875Y-42554500D01*
X64385885Y-42516984D01*
X64385887Y-42516982D01*
X64385889Y-42516982D01*
X64511410Y-42444512D01*
X64511410Y-42444511D01*
X64511415Y-42444509D01*
X64613909Y-42342015D01*
X64613912Y-42342010D01*
X64686382Y-42216489D01*
X64686382Y-42216487D01*
X64686384Y-42216485D01*
X64723900Y-42076475D01*
X64723900Y-41931525D01*
X64686384Y-41791515D01*
X64686382Y-41791512D01*
X64686382Y-41791510D01*
X64613912Y-41665989D01*
X64613910Y-41665987D01*
X64613909Y-41665985D01*
X64511415Y-41563491D01*
X64511412Y-41563489D01*
X64511410Y-41563487D01*
X64385888Y-41491017D01*
X64385889Y-41491017D01*
X64323900Y-41474407D01*
X64245875Y-41453500D01*
X64100925Y-41453500D01*
X64065893Y-41462887D01*
X63960910Y-41491017D01*
X63835389Y-41563487D01*
X63835384Y-41563491D01*
X63774371Y-41624504D01*
X63719854Y-41652281D01*
X63704368Y-41653500D01*
X63006527Y-41653500D01*
X62948336Y-41634593D01*
X62912372Y-41585093D01*
X62912372Y-41523907D01*
X62948336Y-41474407D01*
X62957028Y-41468763D01*
X62974612Y-41458611D01*
X63156661Y-41318919D01*
X63318919Y-41156661D01*
X63458611Y-40974612D01*
X63573344Y-40775888D01*
X63661158Y-40563887D01*
X63698673Y-40423877D01*
X63731997Y-40372563D01*
X63789119Y-40350636D01*
X63794300Y-40350500D01*
X67657110Y-40350500D01*
X67715301Y-40369407D01*
X67727114Y-40379496D01*
X73977288Y-46629670D01*
X74001966Y-46643917D01*
X74033255Y-46661983D01*
X74033260Y-46661985D01*
X74057208Y-46675812D01*
X74057209Y-46675812D01*
X74057212Y-46675814D01*
X74146356Y-46699700D01*
X74146357Y-46699700D01*
X74238644Y-46699700D01*
X84852768Y-46699700D01*
X84910959Y-46718607D01*
X84922771Y-46728696D01*
X84984884Y-46790808D01*
X84984889Y-46790812D01*
X85110411Y-46863282D01*
X85110412Y-46863282D01*
X85110415Y-46863284D01*
X85250425Y-46900800D01*
X85250426Y-46900800D01*
X85395374Y-46900800D01*
X85395375Y-46900800D01*
X85535385Y-46863284D01*
X85535387Y-46863282D01*
X85535389Y-46863282D01*
X85660910Y-46790812D01*
X85660910Y-46790811D01*
X85660915Y-46790809D01*
X85691972Y-46759752D01*
X85723029Y-46728696D01*
X85777546Y-46700919D01*
X85793032Y-46699700D01*
X88244843Y-46699700D01*
X88244844Y-46699700D01*
X88260384Y-46695536D01*
X88311631Y-46695536D01*
X88326425Y-46699500D01*
X88326426Y-46699500D01*
X88471374Y-46699500D01*
X88471375Y-46699500D01*
X88611385Y-46661984D01*
X88611387Y-46661982D01*
X88611389Y-46661982D01*
X88736910Y-46589512D01*
X88736910Y-46589511D01*
X88736915Y-46589509D01*
X88839409Y-46487015D01*
X88867403Y-46438528D01*
X88912871Y-46397587D01*
X88973721Y-46391191D01*
X89023142Y-46418024D01*
X89093803Y-46488684D01*
X89121581Y-46543200D01*
X89122800Y-46558688D01*
X89122800Y-46673275D01*
X89135147Y-46719355D01*
X89160317Y-46813289D01*
X89232787Y-46938810D01*
X89232789Y-46938812D01*
X89232791Y-46938815D01*
X89335285Y-47041309D01*
X89399872Y-47078598D01*
X89440814Y-47124067D01*
X89447210Y-47184918D01*
X89420377Y-47234339D01*
X84034214Y-52620504D01*
X83979697Y-52648281D01*
X83964210Y-52649500D01*
X41642232Y-52649500D01*
X41584041Y-52630593D01*
X41572229Y-52620504D01*
X41511215Y-52559491D01*
X41511210Y-52559487D01*
X41385688Y-52487017D01*
X41385689Y-52487017D01*
X41356096Y-52479087D01*
X41245675Y-52449500D01*
X41100725Y-52449500D01*
X41038990Y-52466041D01*
X40960710Y-52487017D01*
X40835189Y-52559487D01*
X40732687Y-52661989D01*
X40660217Y-52787510D01*
X40622700Y-52927525D01*
X40622700Y-53072474D01*
X40660217Y-53212489D01*
X40732687Y-53338010D01*
X40732689Y-53338012D01*
X40732691Y-53338015D01*
X40835185Y-53440509D01*
X40835187Y-53440510D01*
X40835189Y-53440512D01*
X40960711Y-53512982D01*
X40960712Y-53512982D01*
X40960715Y-53512984D01*
X41100725Y-53550500D01*
X41100726Y-53550500D01*
X41245674Y-53550500D01*
X41245675Y-53550500D01*
X41385685Y-53512984D01*
X41385687Y-53512982D01*
X41385689Y-53512982D01*
X41511210Y-53440512D01*
X41511210Y-53440511D01*
X41511215Y-53440509D01*
X41541722Y-53410002D01*
X41572229Y-53379496D01*
X41626746Y-53351719D01*
X41642232Y-53350500D01*
X84196542Y-53350500D01*
X84196544Y-53350500D01*
X84285688Y-53326614D01*
X84296312Y-53320480D01*
X84365612Y-53280470D01*
X89599057Y-48047025D01*
X93756500Y-48047025D01*
X93756500Y-48191975D01*
X93781288Y-48284484D01*
X93794017Y-48331989D01*
X93866487Y-48457510D01*
X93866489Y-48457512D01*
X93866491Y-48457515D01*
X93968985Y-48560009D01*
X93968987Y-48560010D01*
X93968989Y-48560012D01*
X94094505Y-48632479D01*
X94094509Y-48632480D01*
X94094515Y-48632484D01*
X94094520Y-48632485D01*
X94096526Y-48633316D01*
X94097718Y-48634334D01*
X94100134Y-48635729D01*
X94099875Y-48636176D01*
X94143055Y-48673048D01*
X94157345Y-48732542D01*
X94133936Y-48789072D01*
X94108152Y-48810519D01*
X94095388Y-48817888D01*
X93992887Y-48920389D01*
X93920417Y-49045910D01*
X93920416Y-49045915D01*
X93882900Y-49185925D01*
X93882900Y-49330875D01*
X93912487Y-49441296D01*
X93920417Y-49470889D01*
X93992887Y-49596410D01*
X93992889Y-49596412D01*
X93992891Y-49596415D01*
X94095385Y-49698909D01*
X94095387Y-49698910D01*
X94095389Y-49698912D01*
X94220911Y-49771382D01*
X94220912Y-49771382D01*
X94220915Y-49771384D01*
X94360925Y-49808900D01*
X94360926Y-49808900D01*
X94505874Y-49808900D01*
X94505875Y-49808900D01*
X94645885Y-49771384D01*
X94645887Y-49771382D01*
X94645889Y-49771382D01*
X94771410Y-49698912D01*
X94771410Y-49698911D01*
X94771415Y-49698909D01*
X94873909Y-49596415D01*
X94873912Y-49596410D01*
X94946382Y-49470889D01*
X94946382Y-49470887D01*
X94946384Y-49470885D01*
X94983900Y-49330875D01*
X94983900Y-49185925D01*
X94946384Y-49045915D01*
X94946382Y-49045912D01*
X94946382Y-49045910D01*
X94873912Y-48920389D01*
X94873910Y-48920387D01*
X94873909Y-48920385D01*
X94771415Y-48817891D01*
X94771412Y-48817889D01*
X94771410Y-48817887D01*
X94645886Y-48745415D01*
X94643868Y-48744580D01*
X94642677Y-48743563D01*
X94640266Y-48742171D01*
X94640523Y-48741724D01*
X94597340Y-48704845D01*
X94583055Y-48645351D01*
X94606468Y-48588822D01*
X94632249Y-48567379D01*
X94645015Y-48560009D01*
X94675522Y-48529502D01*
X94706029Y-48498996D01*
X94760546Y-48471219D01*
X94776032Y-48470000D01*
X95738910Y-48470000D01*
X95797101Y-48488907D01*
X95808914Y-48498996D01*
X96245504Y-48935586D01*
X96273281Y-48990103D01*
X96274500Y-49005590D01*
X96274500Y-49091874D01*
X96312017Y-49231889D01*
X96384487Y-49357410D01*
X96384489Y-49357412D01*
X96384491Y-49357415D01*
X96486985Y-49459909D01*
X96486987Y-49459910D01*
X96486989Y-49459912D01*
X96612511Y-49532382D01*
X96612512Y-49532382D01*
X96612515Y-49532384D01*
X96752525Y-49569900D01*
X96752526Y-49569900D01*
X96897474Y-49569900D01*
X96897475Y-49569900D01*
X97037485Y-49532384D01*
X97037487Y-49532382D01*
X97037489Y-49532382D01*
X97163010Y-49459912D01*
X97163010Y-49459911D01*
X97163015Y-49459909D01*
X97265509Y-49357415D01*
X97337984Y-49231885D01*
X97375500Y-49091875D01*
X97375500Y-48946925D01*
X97337984Y-48806915D01*
X97337982Y-48806912D01*
X97337982Y-48806910D01*
X97265512Y-48681389D01*
X97265510Y-48681387D01*
X97265509Y-48681385D01*
X97163015Y-48578891D01*
X97163012Y-48578889D01*
X97163010Y-48578887D01*
X97037488Y-48506417D01*
X97037489Y-48506417D01*
X96972141Y-48488907D01*
X96897475Y-48468900D01*
X96897474Y-48468900D01*
X96811190Y-48468900D01*
X96752999Y-48449993D01*
X96741186Y-48439904D01*
X96442189Y-48140907D01*
X96140312Y-47839030D01*
X96060388Y-47792886D01*
X95971244Y-47769000D01*
X95971242Y-47769000D01*
X94776032Y-47769000D01*
X94717841Y-47750093D01*
X94706029Y-47740004D01*
X94645015Y-47678991D01*
X94645010Y-47678987D01*
X94519488Y-47606517D01*
X94519489Y-47606517D01*
X94489896Y-47598587D01*
X94379475Y-47569000D01*
X94234525Y-47569000D01*
X94172790Y-47585541D01*
X94094510Y-47606517D01*
X93968989Y-47678987D01*
X93866487Y-47781489D01*
X93794017Y-47907010D01*
X93756500Y-48047025D01*
X89599057Y-48047025D01*
X92871470Y-44774612D01*
X92917614Y-44694688D01*
X92928857Y-44652727D01*
X92941500Y-44605544D01*
X92941500Y-43752731D01*
X92960407Y-43694540D01*
X92970490Y-43682733D01*
X93031509Y-43621715D01*
X93094285Y-43512984D01*
X93103982Y-43496189D01*
X93103982Y-43496187D01*
X93103984Y-43496185D01*
X93141500Y-43356175D01*
X93141500Y-43211225D01*
X93103984Y-43071215D01*
X93103982Y-43071212D01*
X93103982Y-43071210D01*
X93031512Y-42945689D01*
X93031510Y-42945687D01*
X93031509Y-42945685D01*
X92929015Y-42843191D01*
X92929012Y-42843189D01*
X92929010Y-42843187D01*
X92803488Y-42770717D01*
X92803489Y-42770717D01*
X92773896Y-42762787D01*
X92663475Y-42733200D01*
X92518525Y-42733200D01*
X92456790Y-42749741D01*
X92378510Y-42770717D01*
X92252989Y-42843187D01*
X92150487Y-42945689D01*
X92078017Y-43071210D01*
X92077678Y-43072475D01*
X92040500Y-43211225D01*
X92040500Y-43356175D01*
X92063098Y-43440512D01*
X92078017Y-43496189D01*
X92150487Y-43621710D01*
X92150489Y-43621712D01*
X92150491Y-43621715D01*
X92211505Y-43682729D01*
X92239281Y-43737244D01*
X92240500Y-43752731D01*
X92240500Y-43793469D01*
X92221593Y-43851660D01*
X92172093Y-43887624D01*
X92110907Y-43887624D01*
X92071498Y-43863474D01*
X92009015Y-43800991D01*
X92009012Y-43800989D01*
X92009010Y-43800987D01*
X91883488Y-43728517D01*
X91883489Y-43728517D01*
X91820817Y-43711724D01*
X91743475Y-43691000D01*
X91598525Y-43691000D01*
X91585314Y-43694540D01*
X91458510Y-43728517D01*
X91332989Y-43800987D01*
X91230487Y-43903489D01*
X91158017Y-44029010D01*
X91120500Y-44169025D01*
X91120500Y-44313974D01*
X91158017Y-44453989D01*
X91230487Y-44579510D01*
X91230489Y-44579512D01*
X91230491Y-44579515D01*
X91332985Y-44682009D01*
X91332987Y-44682010D01*
X91332989Y-44682012D01*
X91458511Y-44754482D01*
X91458512Y-44754482D01*
X91458515Y-44754484D01*
X91598525Y-44792000D01*
X91598526Y-44792000D01*
X91623709Y-44792000D01*
X91681900Y-44810907D01*
X91717864Y-44860407D01*
X91717864Y-44921593D01*
X91693713Y-44961004D01*
X90306839Y-46347877D01*
X90252322Y-46375654D01*
X90191890Y-46366083D01*
X90151098Y-46327372D01*
X90136090Y-46301378D01*
X90113809Y-46262785D01*
X90011315Y-46160291D01*
X90011312Y-46160289D01*
X90011310Y-46160287D01*
X89885788Y-46087817D01*
X89885789Y-46087817D01*
X89856196Y-46079887D01*
X89745775Y-46050300D01*
X89745774Y-46050300D01*
X89687789Y-46050300D01*
X89629598Y-46031393D01*
X89617785Y-46021304D01*
X89187891Y-45591410D01*
X88718412Y-45121930D01*
X88638488Y-45075786D01*
X88549344Y-45051900D01*
X88549342Y-45051900D01*
X81152232Y-45051900D01*
X81094041Y-45032993D01*
X81082229Y-45022904D01*
X81021215Y-44961891D01*
X81021210Y-44961887D01*
X80895688Y-44889417D01*
X80895689Y-44889417D01*
X80866096Y-44881487D01*
X80755675Y-44851900D01*
X80610725Y-44851900D01*
X80578977Y-44860407D01*
X80470710Y-44889417D01*
X80345189Y-44961887D01*
X80242687Y-45064389D01*
X80170217Y-45189910D01*
X80160727Y-45225327D01*
X80132700Y-45329925D01*
X80132700Y-45474875D01*
X80152507Y-45548795D01*
X80170217Y-45614889D01*
X80242687Y-45740410D01*
X80242689Y-45740412D01*
X80242691Y-45740415D01*
X80331974Y-45829698D01*
X80359750Y-45884213D01*
X80350179Y-45944645D01*
X80306914Y-45987910D01*
X80261969Y-45998700D01*
X74378690Y-45998700D01*
X74320499Y-45979793D01*
X74308686Y-45969704D01*
X71330022Y-42991040D01*
X71266507Y-42927525D01*
X73796700Y-42927525D01*
X73796700Y-43072474D01*
X73834217Y-43212489D01*
X73906687Y-43338010D01*
X73906689Y-43338012D01*
X73906691Y-43338015D01*
X74009185Y-43440509D01*
X74009187Y-43440510D01*
X74009189Y-43440512D01*
X74134711Y-43512982D01*
X74134712Y-43512982D01*
X74134715Y-43512984D01*
X74274725Y-43550500D01*
X74274726Y-43550500D01*
X74419674Y-43550500D01*
X74419675Y-43550500D01*
X74559685Y-43512984D01*
X74559687Y-43512982D01*
X74559689Y-43512982D01*
X74685210Y-43440512D01*
X74685210Y-43440511D01*
X74685215Y-43440509D01*
X74787709Y-43338015D01*
X74787712Y-43338010D01*
X74860182Y-43212489D01*
X74860182Y-43212487D01*
X74860184Y-43212485D01*
X74897700Y-43072475D01*
X74897700Y-42927525D01*
X74860184Y-42787515D01*
X74860182Y-42787512D01*
X74860182Y-42787510D01*
X74787712Y-42661989D01*
X74787710Y-42661987D01*
X74787709Y-42661985D01*
X74685215Y-42559491D01*
X74685212Y-42559489D01*
X74685210Y-42559487D01*
X74559688Y-42487017D01*
X74559689Y-42487017D01*
X74530096Y-42479087D01*
X74419675Y-42449500D01*
X74274725Y-42449500D01*
X74212990Y-42466041D01*
X74134710Y-42487017D01*
X74009189Y-42559487D01*
X73906687Y-42661989D01*
X73834217Y-42787510D01*
X73796700Y-42927525D01*
X71266507Y-42927525D01*
X69792482Y-41453500D01*
X68058512Y-39719530D01*
X67978588Y-39673386D01*
X67889444Y-39649500D01*
X67889442Y-39649500D01*
X63794300Y-39649500D01*
X63736109Y-39630593D01*
X63700145Y-39581093D01*
X63698673Y-39576123D01*
X63682276Y-39514928D01*
X63661158Y-39436113D01*
X63573344Y-39224112D01*
X63458611Y-39025388D01*
X63318919Y-38843339D01*
X63156661Y-38681081D01*
X63068588Y-38613500D01*
X62974611Y-38541388D01*
X62775883Y-38426653D01*
X62563885Y-38338841D01*
X62342238Y-38279452D01*
X62114734Y-38249500D01*
X61885266Y-38249500D01*
X61885265Y-38249500D01*
X61657761Y-38279452D01*
X61436114Y-38338841D01*
X61224116Y-38426653D01*
X61025388Y-38541388D01*
X60843342Y-38681078D01*
X60681078Y-38843342D01*
X60541388Y-39025388D01*
X60426653Y-39224116D01*
X60338841Y-39436114D01*
X60279452Y-39657761D01*
X60249500Y-39885265D01*
X60249500Y-40114735D01*
X60265055Y-40232891D01*
X60253905Y-40293052D01*
X60209522Y-40335169D01*
X60148860Y-40343155D01*
X60096900Y-40315818D01*
X57675612Y-37894530D01*
X57595688Y-37848386D01*
X57595687Y-37848385D01*
X57595686Y-37848385D01*
X57576852Y-37843338D01*
X57576852Y-37843339D01*
X57506544Y-37824500D01*
X57506542Y-37824500D01*
X47341088Y-37824500D01*
X47282897Y-37805593D01*
X47271085Y-37795504D01*
X47166484Y-37690904D01*
X47138706Y-37636387D01*
X47148277Y-37575955D01*
X47191542Y-37532691D01*
X47236487Y-37521900D01*
X68186837Y-37521900D01*
X68245028Y-37540807D01*
X68280992Y-37590307D01*
X68282464Y-37646522D01*
X68279452Y-37657760D01*
X68279451Y-37657769D01*
X68249500Y-37885265D01*
X68249500Y-38114734D01*
X68279452Y-38342238D01*
X68338841Y-38563885D01*
X68426653Y-38775883D01*
X68541388Y-38974611D01*
X68580351Y-39025388D01*
X68681081Y-39156661D01*
X68843339Y-39318919D01*
X69025388Y-39458611D01*
X69224112Y-39573344D01*
X69224113Y-39573344D01*
X69224116Y-39573346D01*
X69320167Y-39613131D01*
X69436113Y-39661158D01*
X69657762Y-39720548D01*
X69885266Y-39750500D01*
X69885267Y-39750500D01*
X70114733Y-39750500D01*
X70114734Y-39750500D01*
X70342238Y-39720548D01*
X70563887Y-39661158D01*
X70775888Y-39573344D01*
X70901416Y-39500869D01*
X70961264Y-39488148D01*
X71017160Y-39513034D01*
X71020920Y-39516602D01*
X72389587Y-40885269D01*
X72389589Y-40885270D01*
X72389590Y-40885271D01*
X72389591Y-40885272D01*
X72469508Y-40931412D01*
X72469506Y-40931412D01*
X72469510Y-40931413D01*
X72469512Y-40931414D01*
X72558656Y-40955300D01*
X94243610Y-40955300D01*
X94301801Y-40974207D01*
X94313614Y-40984296D01*
X98498904Y-45169586D01*
X98526681Y-45224103D01*
X98527900Y-45239590D01*
X98527900Y-45325874D01*
X98565417Y-45465889D01*
X98637887Y-45591410D01*
X98637889Y-45591412D01*
X98637891Y-45591415D01*
X98740385Y-45693909D01*
X98740387Y-45693910D01*
X98740389Y-45693912D01*
X98865911Y-45766382D01*
X98865912Y-45766382D01*
X98865915Y-45766384D01*
X99005925Y-45803900D01*
X99005926Y-45803900D01*
X99150874Y-45803900D01*
X99150875Y-45803900D01*
X99290885Y-45766384D01*
X99290887Y-45766382D01*
X99290889Y-45766382D01*
X99416410Y-45693912D01*
X99416410Y-45693911D01*
X99416415Y-45693909D01*
X99518909Y-45591415D01*
X99591384Y-45465885D01*
X99628900Y-45325875D01*
X99628900Y-45180925D01*
X99591384Y-45040915D01*
X99591382Y-45040912D01*
X99591382Y-45040910D01*
X99518912Y-44915389D01*
X99518910Y-44915387D01*
X99518909Y-44915385D01*
X99416415Y-44812891D01*
X99416412Y-44812889D01*
X99416410Y-44812887D01*
X99290888Y-44740417D01*
X99290889Y-44740417D01*
X99257999Y-44731604D01*
X99150875Y-44702900D01*
X99150874Y-44702900D01*
X99064590Y-44702900D01*
X99006399Y-44683993D01*
X98994586Y-44673904D01*
X97828973Y-43508291D01*
X97801196Y-43453774D01*
X97810767Y-43393342D01*
X97854032Y-43350077D01*
X97914464Y-43340506D01*
X97924597Y-43342660D01*
X97953856Y-43350500D01*
X97953857Y-43350500D01*
X98046144Y-43350500D01*
X103401000Y-43350500D01*
X103459191Y-43369407D01*
X103495155Y-43418907D01*
X103500000Y-43449500D01*
X103500000Y-79400500D01*
X103481093Y-79458691D01*
X103431593Y-79494655D01*
X103401000Y-79499500D01*
X80023655Y-79499500D01*
X79965464Y-79480593D01*
X79929500Y-79431093D01*
X79929500Y-79369907D01*
X79955562Y-79331728D01*
X79954024Y-79330190D01*
X80096747Y-79187466D01*
X80096750Y-79187462D01*
X80206185Y-79023685D01*
X80206191Y-79023673D01*
X80281570Y-78841690D01*
X80281570Y-78841688D01*
X80319999Y-78648493D01*
X80320000Y-78648490D01*
X80320000Y-78500001D01*
X80319999Y-78500000D01*
X79620000Y-78500000D01*
X79620000Y-78000000D01*
X80319999Y-78000000D01*
X80320000Y-77999999D01*
X80320000Y-77851509D01*
X80319999Y-77851506D01*
X80281570Y-77658311D01*
X80281570Y-77658309D01*
X80206191Y-77476326D01*
X80206185Y-77476314D01*
X80096750Y-77312537D01*
X80096747Y-77312533D01*
X79957466Y-77173252D01*
X79957462Y-77173249D01*
X79793685Y-77063814D01*
X79793673Y-77063808D01*
X79611691Y-76988429D01*
X79570000Y-76980136D01*
X79570000Y-77783011D01*
X79560060Y-77765795D01*
X79504205Y-77709940D01*
X79435796Y-77670444D01*
X79359496Y-77650000D01*
X79280504Y-77650000D01*
X79204204Y-77670444D01*
X79135795Y-77709940D01*
X79079940Y-77765795D01*
X79070000Y-77783011D01*
X79070000Y-76980136D01*
X79028308Y-76988429D01*
X78846326Y-77063808D01*
X78846314Y-77063814D01*
X78682537Y-77173249D01*
X78682533Y-77173252D01*
X78543252Y-77312533D01*
X78543249Y-77312537D01*
X78433814Y-77476314D01*
X78433808Y-77476326D01*
X78358429Y-77658309D01*
X78358429Y-77658311D01*
X78320000Y-77851506D01*
X78320000Y-77999999D01*
X78320001Y-78000000D01*
X79020000Y-78000000D01*
X79020000Y-78500000D01*
X78320001Y-78500000D01*
X78320000Y-78500001D01*
X78320000Y-78648493D01*
X78358429Y-78841688D01*
X78358429Y-78841690D01*
X78433808Y-79023673D01*
X78433814Y-79023685D01*
X78543249Y-79187462D01*
X78543252Y-79187466D01*
X78685976Y-79330190D01*
X78684238Y-79331927D01*
X78712133Y-79375486D01*
X78708542Y-79436566D01*
X78669735Y-79483870D01*
X78616345Y-79499500D01*
X71383655Y-79499500D01*
X71325464Y-79480593D01*
X71289500Y-79431093D01*
X71289500Y-79369907D01*
X71315562Y-79331728D01*
X71314024Y-79330190D01*
X71456747Y-79187466D01*
X71456750Y-79187462D01*
X71566185Y-79023685D01*
X71566191Y-79023673D01*
X71641570Y-78841690D01*
X71641570Y-78841688D01*
X71679999Y-78648493D01*
X71680000Y-78648490D01*
X71680000Y-78500001D01*
X71679999Y-78500000D01*
X70980000Y-78500000D01*
X70980000Y-78000000D01*
X71679999Y-78000000D01*
X71680000Y-77999999D01*
X71680000Y-77851509D01*
X71679999Y-77851506D01*
X71641570Y-77658311D01*
X71641570Y-77658309D01*
X71566191Y-77476326D01*
X71566185Y-77476314D01*
X71456750Y-77312537D01*
X71456747Y-77312533D01*
X71317466Y-77173252D01*
X71317462Y-77173249D01*
X71153685Y-77063814D01*
X71153673Y-77063808D01*
X70971691Y-76988429D01*
X70930000Y-76980136D01*
X70930000Y-77783011D01*
X70920060Y-77765795D01*
X70864205Y-77709940D01*
X70795796Y-77670444D01*
X70719496Y-77650000D01*
X70640504Y-77650000D01*
X70564204Y-77670444D01*
X70495795Y-77709940D01*
X70439940Y-77765795D01*
X70430000Y-77783011D01*
X70430000Y-76980136D01*
X70388308Y-76988429D01*
X70206326Y-77063808D01*
X70206314Y-77063814D01*
X70042537Y-77173249D01*
X70042533Y-77173252D01*
X69903252Y-77312533D01*
X69903249Y-77312537D01*
X69793814Y-77476314D01*
X69793808Y-77476326D01*
X69718429Y-77658309D01*
X69718429Y-77658311D01*
X69680000Y-77851506D01*
X69680000Y-77999999D01*
X69680001Y-78000000D01*
X70380000Y-78000000D01*
X70380000Y-78500000D01*
X69680001Y-78500000D01*
X69680000Y-78500001D01*
X69680000Y-78648493D01*
X69718429Y-78841688D01*
X69718429Y-78841690D01*
X69793808Y-79023673D01*
X69793814Y-79023685D01*
X69903249Y-79187462D01*
X69903252Y-79187466D01*
X70045976Y-79330190D01*
X70044238Y-79331927D01*
X70072133Y-79375486D01*
X70068542Y-79436566D01*
X70029735Y-79483870D01*
X69976345Y-79499500D01*
X10599500Y-79499500D01*
X10541309Y-79480593D01*
X10505345Y-79431093D01*
X10500500Y-79400500D01*
X10500500Y-75878710D01*
X12149500Y-75878710D01*
X12149500Y-76121289D01*
X12181161Y-76361781D01*
X12181161Y-76361786D01*
X12243944Y-76596092D01*
X12243948Y-76596105D01*
X12336772Y-76820204D01*
X12336774Y-76820208D01*
X12336776Y-76820212D01*
X12433896Y-76988429D01*
X12458066Y-77030292D01*
X12605729Y-77222731D01*
X12605731Y-77222733D01*
X12605735Y-77222738D01*
X12777262Y-77394265D01*
X12777266Y-77394268D01*
X12777268Y-77394270D01*
X12884206Y-77476326D01*
X12969711Y-77541936D01*
X13179788Y-77663224D01*
X13403900Y-77756054D01*
X13638211Y-77818838D01*
X13878712Y-77850500D01*
X13878713Y-77850500D01*
X14121287Y-77850500D01*
X14121288Y-77850500D01*
X14361789Y-77818838D01*
X14596100Y-77756054D01*
X14820212Y-77663224D01*
X15030289Y-77541936D01*
X15222738Y-77394265D01*
X15394265Y-77222738D01*
X15541936Y-77030289D01*
X15663224Y-76820212D01*
X15756054Y-76596100D01*
X15818838Y-76361789D01*
X15827391Y-76296825D01*
X59818800Y-76296825D01*
X59818800Y-76441774D01*
X59856317Y-76581789D01*
X59928787Y-76707310D01*
X59928789Y-76707312D01*
X59928791Y-76707315D01*
X60031285Y-76809809D01*
X60031287Y-76809810D01*
X60031289Y-76809812D01*
X60156811Y-76882282D01*
X60156812Y-76882282D01*
X60156815Y-76882284D01*
X60296825Y-76919800D01*
X60296826Y-76919800D01*
X60441774Y-76919800D01*
X60441775Y-76919800D01*
X60581785Y-76882284D01*
X60581787Y-76882282D01*
X60581789Y-76882282D01*
X60707310Y-76809812D01*
X60707310Y-76809811D01*
X60707315Y-76809809D01*
X60737822Y-76779302D01*
X60768329Y-76748796D01*
X60822846Y-76721019D01*
X60838332Y-76719800D01*
X91291842Y-76719800D01*
X91291844Y-76719800D01*
X91380988Y-76695914D01*
X91391612Y-76689780D01*
X91460912Y-76649770D01*
X92223686Y-75886996D01*
X92278203Y-75859219D01*
X92293690Y-75858000D01*
X92379974Y-75858000D01*
X92379975Y-75858000D01*
X92519985Y-75820484D01*
X92519987Y-75820482D01*
X92519989Y-75820482D01*
X92645510Y-75748012D01*
X92645510Y-75748011D01*
X92645515Y-75748009D01*
X92748009Y-75645515D01*
X92752226Y-75638211D01*
X92820482Y-75519989D01*
X92820482Y-75519987D01*
X92820484Y-75519985D01*
X92858000Y-75379975D01*
X92858000Y-75235025D01*
X92820484Y-75095015D01*
X92820482Y-75095012D01*
X92820482Y-75095010D01*
X92748012Y-74969489D01*
X92748010Y-74969487D01*
X92748009Y-74969485D01*
X92645515Y-74866991D01*
X92645512Y-74866989D01*
X92645510Y-74866987D01*
X92519988Y-74794517D01*
X92519989Y-74794517D01*
X92455593Y-74777262D01*
X92379975Y-74757000D01*
X92235025Y-74757000D01*
X92173290Y-74773541D01*
X92095010Y-74794517D01*
X91969489Y-74866987D01*
X91866987Y-74969489D01*
X91794517Y-75095010D01*
X91757000Y-75235025D01*
X91757000Y-75321310D01*
X91738093Y-75379501D01*
X91728004Y-75391314D01*
X91129514Y-75989804D01*
X91074997Y-76017581D01*
X91059510Y-76018800D01*
X72717789Y-76018800D01*
X72659598Y-75999893D01*
X72623634Y-75950393D01*
X72623634Y-75889207D01*
X72647783Y-75849798D01*
X73487070Y-75010512D01*
X73533214Y-74930588D01*
X73541529Y-74899556D01*
X73550256Y-74866990D01*
X73550285Y-74866880D01*
X73575936Y-74822387D01*
X73647109Y-74751215D01*
X73719584Y-74625685D01*
X73746768Y-74524234D01*
X77314500Y-74524234D01*
X77314500Y-74675766D01*
X77341697Y-74777268D01*
X77353720Y-74822139D01*
X77429481Y-74953360D01*
X77429483Y-74953362D01*
X77429485Y-74953365D01*
X77536635Y-75060515D01*
X77536637Y-75060516D01*
X77536639Y-75060518D01*
X77667861Y-75136279D01*
X77667859Y-75136279D01*
X77667863Y-75136280D01*
X77667865Y-75136281D01*
X77814234Y-75175500D01*
X77814236Y-75175500D01*
X77965764Y-75175500D01*
X77965766Y-75175500D01*
X78112135Y-75136281D01*
X78112137Y-75136279D01*
X78112139Y-75136279D01*
X78243360Y-75060518D01*
X78243360Y-75060517D01*
X78243365Y-75060515D01*
X78263550Y-75040329D01*
X78318064Y-75012552D01*
X78378496Y-75022122D01*
X78421762Y-75065386D01*
X78425017Y-75072448D01*
X78433809Y-75093675D01*
X78433809Y-75093676D01*
X78543249Y-75257462D01*
X78543252Y-75257466D01*
X78682533Y-75396747D01*
X78682537Y-75396750D01*
X78846314Y-75506185D01*
X78846326Y-75506191D01*
X79028304Y-75581568D01*
X79028315Y-75581571D01*
X79070000Y-75589862D01*
X79070000Y-74786988D01*
X79079940Y-74804205D01*
X79135795Y-74860060D01*
X79204204Y-74899556D01*
X79280504Y-74920000D01*
X79359496Y-74920000D01*
X79435796Y-74899556D01*
X79504205Y-74860060D01*
X79560060Y-74804205D01*
X79570000Y-74786988D01*
X79570000Y-75589861D01*
X79611684Y-75581571D01*
X79611695Y-75581568D01*
X79793673Y-75506191D01*
X79793685Y-75506185D01*
X79957462Y-75396750D01*
X79957466Y-75396747D01*
X80096747Y-75257466D01*
X80096750Y-75257462D01*
X80206185Y-75093685D01*
X80206191Y-75093673D01*
X80281570Y-74911690D01*
X80281570Y-74911688D01*
X80319999Y-74718493D01*
X80320000Y-74718490D01*
X80320000Y-74320001D01*
X80319999Y-74320000D01*
X79620000Y-74320000D01*
X79620000Y-73820000D01*
X80319999Y-73820000D01*
X80320000Y-73819999D01*
X80320000Y-73421509D01*
X80319999Y-73421506D01*
X80281570Y-73228311D01*
X80281570Y-73228309D01*
X80253699Y-73161021D01*
X80240694Y-73129625D01*
X83683700Y-73129625D01*
X83683700Y-73274575D01*
X83688391Y-73292082D01*
X83721217Y-73414589D01*
X83793687Y-73540110D01*
X83793689Y-73540112D01*
X83793691Y-73540115D01*
X83896185Y-73642609D01*
X83896187Y-73642610D01*
X83896189Y-73642612D01*
X84021711Y-73715082D01*
X84021712Y-73715082D01*
X84021715Y-73715084D01*
X84161725Y-73752600D01*
X84161726Y-73752600D01*
X84306674Y-73752600D01*
X84306675Y-73752600D01*
X84446685Y-73715084D01*
X84446687Y-73715082D01*
X84446689Y-73715082D01*
X84572210Y-73642612D01*
X84572210Y-73642611D01*
X84572215Y-73642609D01*
X84674709Y-73540115D01*
X84738524Y-73429585D01*
X84747182Y-73414589D01*
X84747182Y-73414587D01*
X84747184Y-73414585D01*
X84784700Y-73274575D01*
X84784700Y-73129625D01*
X84747184Y-72989615D01*
X84747182Y-72989612D01*
X84747182Y-72989610D01*
X84674712Y-72864089D01*
X84674710Y-72864087D01*
X84674709Y-72864085D01*
X84572215Y-72761591D01*
X84572212Y-72761589D01*
X84572210Y-72761587D01*
X84477013Y-72706625D01*
X86092400Y-72706625D01*
X86092400Y-72851575D01*
X86102275Y-72888429D01*
X86129917Y-72991589D01*
X86202387Y-73117110D01*
X86202389Y-73117112D01*
X86202391Y-73117115D01*
X86304885Y-73219609D01*
X86304887Y-73219610D01*
X86304889Y-73219612D01*
X86430411Y-73292082D01*
X86430412Y-73292082D01*
X86430415Y-73292084D01*
X86570425Y-73329600D01*
X86570426Y-73329600D01*
X86715374Y-73329600D01*
X86715375Y-73329600D01*
X86855385Y-73292084D01*
X86978315Y-73221109D01*
X87038163Y-73208388D01*
X87094058Y-73233274D01*
X87097799Y-73236823D01*
X87161985Y-73301009D01*
X87161987Y-73301010D01*
X87161989Y-73301012D01*
X87287511Y-73373482D01*
X87287512Y-73373482D01*
X87287515Y-73373484D01*
X87427525Y-73411000D01*
X87427526Y-73411000D01*
X87572474Y-73411000D01*
X87572475Y-73411000D01*
X87712485Y-73373484D01*
X87825484Y-73308243D01*
X87885330Y-73295522D01*
X87941226Y-73320408D01*
X87970609Y-73368356D01*
X87987015Y-73429584D01*
X87987017Y-73429588D01*
X88059487Y-73555110D01*
X88059489Y-73555112D01*
X88059491Y-73555115D01*
X88161985Y-73657609D01*
X88161987Y-73657610D01*
X88161989Y-73657612D01*
X88287511Y-73730082D01*
X88287512Y-73730082D01*
X88287515Y-73730084D01*
X88427525Y-73767600D01*
X88427526Y-73767600D01*
X88572474Y-73767600D01*
X88572475Y-73767600D01*
X88712485Y-73730084D01*
X88712487Y-73730082D01*
X88712489Y-73730082D01*
X88838010Y-73657612D01*
X88838010Y-73657611D01*
X88838015Y-73657609D01*
X88928348Y-73567275D01*
X88982863Y-73539500D01*
X89043295Y-73549071D01*
X89068350Y-73567274D01*
X89161985Y-73660909D01*
X89161987Y-73660910D01*
X89161989Y-73660912D01*
X89287511Y-73733382D01*
X89287512Y-73733382D01*
X89287515Y-73733384D01*
X89427525Y-73770900D01*
X89427526Y-73770900D01*
X89572474Y-73770900D01*
X89572475Y-73770900D01*
X89712485Y-73733384D01*
X89712487Y-73733382D01*
X89712489Y-73733382D01*
X89838010Y-73660912D01*
X89838010Y-73660911D01*
X89838015Y-73660909D01*
X89940509Y-73558415D01*
X89940510Y-73558412D01*
X89940846Y-73558077D01*
X89995363Y-73530300D01*
X90055795Y-73539871D01*
X90080850Y-73558074D01*
X90161985Y-73639209D01*
X90161987Y-73639210D01*
X90161989Y-73639212D01*
X90287511Y-73711682D01*
X90287512Y-73711682D01*
X90287515Y-73711684D01*
X90427525Y-73749200D01*
X90427526Y-73749200D01*
X90572474Y-73749200D01*
X90572475Y-73749200D01*
X90712485Y-73711684D01*
X90712487Y-73711682D01*
X90712489Y-73711682D01*
X90838010Y-73639212D01*
X90838010Y-73639211D01*
X90838015Y-73639209D01*
X90940509Y-73536715D01*
X91002361Y-73429585D01*
X91012982Y-73411189D01*
X91012982Y-73411187D01*
X91012984Y-73411185D01*
X91050500Y-73271175D01*
X91050500Y-73126225D01*
X91012984Y-72986215D01*
X91012982Y-72986212D01*
X91012982Y-72986210D01*
X90940512Y-72860689D01*
X90940510Y-72860687D01*
X90940509Y-72860685D01*
X90838015Y-72758191D01*
X90838012Y-72758189D01*
X90838010Y-72758187D01*
X90712488Y-72685717D01*
X90712489Y-72685717D01*
X90682896Y-72677787D01*
X90572475Y-72648200D01*
X90427525Y-72648200D01*
X90365790Y-72664741D01*
X90287510Y-72685717D01*
X90161989Y-72758187D01*
X90161988Y-72758188D01*
X90161985Y-72758190D01*
X90161985Y-72758191D01*
X90059491Y-72860685D01*
X90059489Y-72860687D01*
X90059154Y-72861023D01*
X90004637Y-72888800D01*
X89944205Y-72879229D01*
X89919149Y-72861025D01*
X89838015Y-72779891D01*
X89838012Y-72779889D01*
X89838010Y-72779887D01*
X89712488Y-72707417D01*
X89712489Y-72707417D01*
X89631500Y-72685716D01*
X89572475Y-72669900D01*
X89427525Y-72669900D01*
X89368500Y-72685716D01*
X89287510Y-72707417D01*
X89161989Y-72779887D01*
X89161988Y-72779888D01*
X89161985Y-72779890D01*
X89161985Y-72779891D01*
X89071651Y-72870224D01*
X89017137Y-72898000D01*
X88956705Y-72888429D01*
X88931649Y-72870225D01*
X88838015Y-72776591D01*
X88838012Y-72776589D01*
X88838010Y-72776587D01*
X88712488Y-72704117D01*
X88712489Y-72704117D01*
X88682896Y-72696187D01*
X88572475Y-72666600D01*
X88427525Y-72666600D01*
X88380855Y-72679105D01*
X88287513Y-72704116D01*
X88174516Y-72769356D01*
X88114668Y-72782077D01*
X88058772Y-72757190D01*
X88029390Y-72709244D01*
X88012984Y-72648015D01*
X88012982Y-72648012D01*
X88012982Y-72648010D01*
X87940512Y-72522489D01*
X87940510Y-72522487D01*
X87940509Y-72522485D01*
X87838015Y-72419991D01*
X87838012Y-72419989D01*
X87838010Y-72419987D01*
X87712488Y-72347517D01*
X87712489Y-72347517D01*
X87672903Y-72336910D01*
X87572475Y-72310000D01*
X87427525Y-72310000D01*
X87380855Y-72322505D01*
X87287513Y-72347516D01*
X87164584Y-72418490D01*
X87104735Y-72431211D01*
X87048840Y-72406324D01*
X87045099Y-72402775D01*
X86980915Y-72338591D01*
X86980912Y-72338589D01*
X86980910Y-72338587D01*
X86855388Y-72266117D01*
X86855389Y-72266117D01*
X86825796Y-72258187D01*
X86715375Y-72228600D01*
X86570425Y-72228600D01*
X86508690Y-72245141D01*
X86430410Y-72266117D01*
X86304889Y-72338587D01*
X86202387Y-72441089D01*
X86129917Y-72566610D01*
X86098003Y-72685716D01*
X86092400Y-72706625D01*
X84477013Y-72706625D01*
X84446688Y-72689117D01*
X84446689Y-72689117D01*
X84417096Y-72681187D01*
X84306675Y-72651600D01*
X84161725Y-72651600D01*
X84105745Y-72666600D01*
X84021710Y-72689117D01*
X83896189Y-72761587D01*
X83793687Y-72864089D01*
X83721217Y-72989610D01*
X83721216Y-72989615D01*
X83683700Y-73129625D01*
X80240694Y-73129625D01*
X80206191Y-73046326D01*
X80206185Y-73046314D01*
X80096750Y-72882537D01*
X80096747Y-72882533D01*
X79957466Y-72743252D01*
X79957462Y-72743249D01*
X79793685Y-72633814D01*
X79793673Y-72633808D01*
X79611691Y-72558429D01*
X79570000Y-72550136D01*
X79570000Y-73353011D01*
X79560060Y-73335795D01*
X79504205Y-73279940D01*
X79435796Y-73240444D01*
X79359496Y-73220000D01*
X79280504Y-73220000D01*
X79204204Y-73240444D01*
X79135795Y-73279940D01*
X79079940Y-73335795D01*
X79070000Y-73353011D01*
X79070000Y-72550136D01*
X79028308Y-72558429D01*
X78846326Y-72633808D01*
X78846314Y-72633814D01*
X78682537Y-72743249D01*
X78682533Y-72743252D01*
X78543252Y-72882533D01*
X78543249Y-72882537D01*
X78433814Y-73046314D01*
X78433808Y-73046326D01*
X78358429Y-73228309D01*
X78358429Y-73228311D01*
X78320000Y-73421506D01*
X78320000Y-73819999D01*
X78320001Y-73820000D01*
X79020000Y-73820000D01*
X79020000Y-74320000D01*
X78450030Y-74320000D01*
X78391839Y-74301093D01*
X78364294Y-74270501D01*
X78350517Y-74246639D01*
X78350515Y-74246635D01*
X78243365Y-74139485D01*
X78243362Y-74139483D01*
X78243360Y-74139481D01*
X78112138Y-74063720D01*
X78112140Y-74063720D01*
X78055347Y-74048503D01*
X77965766Y-74024500D01*
X77814234Y-74024500D01*
X77724652Y-74048503D01*
X77667860Y-74063720D01*
X77536639Y-74139481D01*
X77429481Y-74246639D01*
X77353720Y-74377860D01*
X77353719Y-74377865D01*
X77314500Y-74524234D01*
X73746768Y-74524234D01*
X73757100Y-74485675D01*
X73757100Y-74340725D01*
X73719584Y-74200715D01*
X73719582Y-74200712D01*
X73719582Y-74200710D01*
X73647112Y-74075189D01*
X73647110Y-74075187D01*
X73647109Y-74075185D01*
X73544615Y-73972691D01*
X73544612Y-73972689D01*
X73544610Y-73972687D01*
X73419088Y-73900217D01*
X73419089Y-73900217D01*
X73389496Y-73892287D01*
X73279075Y-73862700D01*
X73134125Y-73862700D01*
X73072390Y-73879241D01*
X72994110Y-73900217D01*
X72868589Y-73972687D01*
X72766089Y-74075187D01*
X72696258Y-74196136D01*
X72650788Y-74237076D01*
X72589938Y-74243471D01*
X72540520Y-74216640D01*
X72463365Y-74139485D01*
X72463362Y-74139483D01*
X72463360Y-74139481D01*
X72332138Y-74063720D01*
X72332140Y-74063720D01*
X72275347Y-74048503D01*
X72185766Y-74024500D01*
X72034234Y-74024500D01*
X71944652Y-74048503D01*
X71887860Y-74063720D01*
X71756639Y-74139481D01*
X71649484Y-74246636D01*
X71635706Y-74270501D01*
X71590236Y-74311441D01*
X71549970Y-74320000D01*
X70980000Y-74320000D01*
X70980000Y-73820000D01*
X71679999Y-73820000D01*
X71680000Y-73819999D01*
X71680000Y-73421509D01*
X71679999Y-73421506D01*
X71641570Y-73228311D01*
X71641570Y-73228309D01*
X71566191Y-73046326D01*
X71566185Y-73046314D01*
X71456750Y-72882537D01*
X71456747Y-72882533D01*
X71317466Y-72743252D01*
X71317462Y-72743249D01*
X71153685Y-72633814D01*
X71153673Y-72633808D01*
X70971691Y-72558429D01*
X70930000Y-72550136D01*
X70930000Y-73353011D01*
X70920060Y-73335795D01*
X70864205Y-73279940D01*
X70795796Y-73240444D01*
X70719496Y-73220000D01*
X70640504Y-73220000D01*
X70564204Y-73240444D01*
X70495795Y-73279940D01*
X70439940Y-73335795D01*
X70430000Y-73353011D01*
X70430000Y-72550136D01*
X70388308Y-72558429D01*
X70206326Y-72633808D01*
X70206314Y-72633814D01*
X70042537Y-72743249D01*
X70042533Y-72743252D01*
X69903252Y-72882533D01*
X69903249Y-72882537D01*
X69793814Y-73046314D01*
X69793808Y-73046326D01*
X69718429Y-73228309D01*
X69718429Y-73228311D01*
X69680000Y-73421506D01*
X69680000Y-73819999D01*
X69680001Y-73820000D01*
X70380000Y-73820000D01*
X70380000Y-74320000D01*
X69680001Y-74320000D01*
X69680000Y-74320001D01*
X69680000Y-74718493D01*
X69718429Y-74911688D01*
X69718429Y-74911690D01*
X69793808Y-75093673D01*
X69793814Y-75093684D01*
X69870198Y-75207998D01*
X69886807Y-75266886D01*
X69865630Y-75324290D01*
X69814757Y-75358283D01*
X69787883Y-75362000D01*
X65248932Y-75362000D01*
X65190741Y-75343093D01*
X65178929Y-75333004D01*
X65117915Y-75271991D01*
X65117910Y-75271987D01*
X64992388Y-75199517D01*
X64992389Y-75199517D01*
X64902757Y-75175500D01*
X64852375Y-75162000D01*
X64707425Y-75162000D01*
X64657043Y-75175500D01*
X64567410Y-75199517D01*
X64441889Y-75271987D01*
X64339387Y-75374489D01*
X64266917Y-75500010D01*
X64242841Y-75589862D01*
X64229400Y-75640025D01*
X64229400Y-75784975D01*
X64238914Y-75820482D01*
X64258661Y-75894177D01*
X64255459Y-75955278D01*
X64216953Y-76002828D01*
X64163034Y-76018800D01*
X60838332Y-76018800D01*
X60780141Y-75999893D01*
X60768329Y-75989804D01*
X60707315Y-75928791D01*
X60707310Y-75928787D01*
X60581788Y-75856317D01*
X60581789Y-75856317D01*
X60552196Y-75848387D01*
X60441775Y-75818800D01*
X60296825Y-75818800D01*
X60235090Y-75835341D01*
X60156810Y-75856317D01*
X60031289Y-75928787D01*
X59928787Y-76031289D01*
X59856317Y-76156810D01*
X59818800Y-76296825D01*
X15827391Y-76296825D01*
X15850500Y-76121288D01*
X15850500Y-75878712D01*
X15818838Y-75638211D01*
X15756054Y-75403900D01*
X15663224Y-75179788D01*
X15541936Y-74969711D01*
X15529393Y-74953365D01*
X15394270Y-74777268D01*
X15394268Y-74777266D01*
X15394265Y-74777262D01*
X15222738Y-74605735D01*
X15222733Y-74605731D01*
X15222731Y-74605729D01*
X15030292Y-74458066D01*
X14954851Y-74414510D01*
X14820212Y-74336776D01*
X14820208Y-74336774D01*
X14820204Y-74336772D01*
X14596105Y-74243948D01*
X14596104Y-74243947D01*
X14596100Y-74243946D01*
X14361789Y-74181162D01*
X14361786Y-74181161D01*
X14361784Y-74181161D01*
X14121289Y-74149500D01*
X14121288Y-74149500D01*
X13878712Y-74149500D01*
X13878710Y-74149500D01*
X13638218Y-74181161D01*
X13638213Y-74181161D01*
X13403907Y-74243944D01*
X13403894Y-74243948D01*
X13179795Y-74336772D01*
X12969707Y-74458066D01*
X12777268Y-74605729D01*
X12605729Y-74777268D01*
X12458066Y-74969707D01*
X12336772Y-75179795D01*
X12243948Y-75403894D01*
X12243944Y-75403907D01*
X12181161Y-75638213D01*
X12181161Y-75638218D01*
X12149500Y-75878710D01*
X10500500Y-75878710D01*
X10500500Y-71934925D01*
X53624500Y-71934925D01*
X53624500Y-72079874D01*
X53662017Y-72219889D01*
X53734487Y-72345410D01*
X53734489Y-72345412D01*
X53734491Y-72345415D01*
X53836985Y-72447909D01*
X53836987Y-72447910D01*
X53836989Y-72447912D01*
X53962511Y-72520382D01*
X53962512Y-72520382D01*
X53962515Y-72520384D01*
X54102525Y-72557900D01*
X54102526Y-72557900D01*
X54247474Y-72557900D01*
X54247475Y-72557900D01*
X54387485Y-72520384D01*
X54387487Y-72520382D01*
X54387489Y-72520382D01*
X54513010Y-72447912D01*
X54513010Y-72447911D01*
X54513015Y-72447909D01*
X54615509Y-72345415D01*
X54685618Y-72223981D01*
X54731086Y-72183043D01*
X54791936Y-72176647D01*
X54844924Y-72207240D01*
X54857089Y-72223984D01*
X54922287Y-72336910D01*
X54922289Y-72336912D01*
X54922291Y-72336915D01*
X55024785Y-72439409D01*
X55024787Y-72439410D01*
X55024789Y-72439412D01*
X55150311Y-72511882D01*
X55150312Y-72511882D01*
X55150315Y-72511884D01*
X55290325Y-72549400D01*
X55290326Y-72549400D01*
X55435274Y-72549400D01*
X55435275Y-72549400D01*
X55575285Y-72511884D01*
X55575287Y-72511882D01*
X55575289Y-72511882D01*
X55700810Y-72439412D01*
X55700810Y-72439411D01*
X55700815Y-72439409D01*
X55803309Y-72336915D01*
X55803312Y-72336910D01*
X55875782Y-72211389D01*
X55875782Y-72211387D01*
X55875784Y-72211385D01*
X55913300Y-72071375D01*
X55913300Y-71926425D01*
X55892293Y-71848025D01*
X73699500Y-71848025D01*
X73699500Y-71992975D01*
X73722785Y-72079874D01*
X73737017Y-72132989D01*
X73809487Y-72258510D01*
X73809489Y-72258512D01*
X73809491Y-72258515D01*
X73911985Y-72361009D01*
X73911987Y-72361010D01*
X73911989Y-72361012D01*
X74037511Y-72433482D01*
X74037512Y-72433482D01*
X74037515Y-72433484D01*
X74177525Y-72471000D01*
X74177526Y-72471000D01*
X74322474Y-72471000D01*
X74322475Y-72471000D01*
X74462485Y-72433484D01*
X74462487Y-72433482D01*
X74462489Y-72433482D01*
X74588010Y-72361012D01*
X74588010Y-72361011D01*
X74588015Y-72361009D01*
X74690509Y-72258515D01*
X74690512Y-72258510D01*
X74762982Y-72132989D01*
X74762982Y-72132987D01*
X74762984Y-72132985D01*
X74800500Y-71992975D01*
X74800500Y-71848025D01*
X74762984Y-71708015D01*
X74762982Y-71708012D01*
X74762982Y-71708010D01*
X74690512Y-71582489D01*
X74690510Y-71582487D01*
X74690509Y-71582485D01*
X74588015Y-71479991D01*
X74588012Y-71479989D01*
X74588010Y-71479987D01*
X74462488Y-71407517D01*
X74462489Y-71407517D01*
X74432896Y-71399587D01*
X74322475Y-71370000D01*
X74177525Y-71370000D01*
X74115790Y-71386541D01*
X74037510Y-71407517D01*
X73911989Y-71479987D01*
X73809487Y-71582489D01*
X73737017Y-71708010D01*
X73713732Y-71794910D01*
X73699500Y-71848025D01*
X55892293Y-71848025D01*
X55875784Y-71786415D01*
X55875782Y-71786412D01*
X55875782Y-71786410D01*
X55803312Y-71660889D01*
X55803310Y-71660887D01*
X55803309Y-71660885D01*
X55700815Y-71558391D01*
X55700812Y-71558389D01*
X55700810Y-71558387D01*
X55575288Y-71485917D01*
X55575284Y-71485915D01*
X55438758Y-71449332D01*
X55387444Y-71416008D01*
X55365518Y-71358886D01*
X55381354Y-71299786D01*
X55394373Y-71283707D01*
X56997556Y-69680525D01*
X72509000Y-69680525D01*
X72509000Y-69825474D01*
X72546517Y-69965489D01*
X72618987Y-70091010D01*
X72618989Y-70091012D01*
X72618991Y-70091015D01*
X72721485Y-70193509D01*
X72721487Y-70193510D01*
X72721489Y-70193512D01*
X72847011Y-70265982D01*
X72847012Y-70265982D01*
X72847015Y-70265984D01*
X72987025Y-70303500D01*
X72987026Y-70303500D01*
X73131974Y-70303500D01*
X73131975Y-70303500D01*
X73271985Y-70265984D01*
X73271987Y-70265982D01*
X73271989Y-70265982D01*
X73397510Y-70193512D01*
X73397510Y-70193511D01*
X73397515Y-70193509D01*
X73500009Y-70091015D01*
X73572484Y-69965485D01*
X73610000Y-69825475D01*
X73610000Y-69680525D01*
X73572484Y-69540515D01*
X73572482Y-69540512D01*
X73572482Y-69540510D01*
X73500012Y-69414989D01*
X73500010Y-69414987D01*
X73500009Y-69414985D01*
X73397515Y-69312491D01*
X73397512Y-69312489D01*
X73397510Y-69312487D01*
X73271988Y-69240017D01*
X73271989Y-69240017D01*
X73242396Y-69232087D01*
X73131975Y-69202500D01*
X72987025Y-69202500D01*
X72925290Y-69219041D01*
X72847010Y-69240017D01*
X72721489Y-69312487D01*
X72618987Y-69414989D01*
X72546517Y-69540510D01*
X72509000Y-69680525D01*
X56997556Y-69680525D01*
X58587456Y-68090625D01*
X70928300Y-68090625D01*
X70928300Y-68235575D01*
X70941834Y-68286084D01*
X70965817Y-68375589D01*
X71038287Y-68501110D01*
X71038289Y-68501112D01*
X71038291Y-68501115D01*
X71140785Y-68603609D01*
X71140787Y-68603610D01*
X71140789Y-68603612D01*
X71266311Y-68676082D01*
X71266312Y-68676082D01*
X71266315Y-68676084D01*
X71406325Y-68713600D01*
X71406326Y-68713600D01*
X71551274Y-68713600D01*
X71551275Y-68713600D01*
X71691285Y-68676084D01*
X71691287Y-68676082D01*
X71691289Y-68676082D01*
X71816810Y-68603612D01*
X71816810Y-68603611D01*
X71816815Y-68603609D01*
X71847322Y-68573102D01*
X71877829Y-68542596D01*
X71932346Y-68514819D01*
X71947832Y-68513600D01*
X74028210Y-68513600D01*
X74086401Y-68532507D01*
X74098214Y-68542596D01*
X76131804Y-70576186D01*
X76159581Y-70630703D01*
X76160800Y-70646190D01*
X76160800Y-70732474D01*
X76198317Y-70872489D01*
X76270787Y-70998010D01*
X76270789Y-70998012D01*
X76270791Y-70998015D01*
X76373285Y-71100509D01*
X76373287Y-71100510D01*
X76373289Y-71100512D01*
X76498811Y-71172982D01*
X76498812Y-71172982D01*
X76498815Y-71172984D01*
X76638825Y-71210500D01*
X76638826Y-71210500D01*
X76783774Y-71210500D01*
X76783775Y-71210500D01*
X76923785Y-71172984D01*
X76923787Y-71172982D01*
X76923789Y-71172982D01*
X77049310Y-71100512D01*
X77049310Y-71100511D01*
X77049315Y-71100509D01*
X77151809Y-70998015D01*
X77224284Y-70872485D01*
X77261800Y-70732475D01*
X77261800Y-70587525D01*
X77224284Y-70447515D01*
X77224282Y-70447512D01*
X77224282Y-70447510D01*
X77151812Y-70321989D01*
X77151810Y-70321987D01*
X77151809Y-70321985D01*
X77049315Y-70219491D01*
X77049312Y-70219489D01*
X77049310Y-70219487D01*
X76923788Y-70147017D01*
X76923789Y-70147017D01*
X76894196Y-70139087D01*
X76783775Y-70109500D01*
X76783774Y-70109500D01*
X76697490Y-70109500D01*
X76639299Y-70090593D01*
X76627486Y-70080504D01*
X75749482Y-69202500D01*
X74429612Y-67882630D01*
X74349688Y-67836486D01*
X74260544Y-67812600D01*
X74260542Y-67812600D01*
X71947832Y-67812600D01*
X71889641Y-67793693D01*
X71877829Y-67783604D01*
X71816815Y-67722591D01*
X71816810Y-67722587D01*
X71691288Y-67650117D01*
X71691289Y-67650117D01*
X71634219Y-67634825D01*
X71551275Y-67612600D01*
X71406325Y-67612600D01*
X71344590Y-67629141D01*
X71266310Y-67650117D01*
X71140789Y-67722587D01*
X71038287Y-67825089D01*
X70965817Y-67950610D01*
X70948796Y-68014132D01*
X70928300Y-68090625D01*
X58587456Y-68090625D01*
X60516157Y-66161925D01*
X75587000Y-66161925D01*
X75587000Y-66306874D01*
X75624517Y-66446889D01*
X75696987Y-66572410D01*
X75696989Y-66572412D01*
X75696991Y-66572415D01*
X75799485Y-66674909D01*
X75799487Y-66674910D01*
X75799489Y-66674912D01*
X75925011Y-66747382D01*
X75925012Y-66747382D01*
X75925015Y-66747384D01*
X76065025Y-66784900D01*
X76065026Y-66784900D01*
X76209974Y-66784900D01*
X76209975Y-66784900D01*
X76349985Y-66747384D01*
X76349987Y-66747382D01*
X76349989Y-66747382D01*
X76475510Y-66674912D01*
X76475510Y-66674911D01*
X76475515Y-66674909D01*
X76578009Y-66572415D01*
X76598778Y-66536443D01*
X76650482Y-66446889D01*
X76650482Y-66446887D01*
X76650484Y-66446885D01*
X76688000Y-66306875D01*
X76688000Y-66161925D01*
X76650484Y-66021915D01*
X76650482Y-66021912D01*
X76650482Y-66021910D01*
X76578012Y-65896389D01*
X76578010Y-65896387D01*
X76578009Y-65896385D01*
X76475515Y-65793891D01*
X76475512Y-65793889D01*
X76475510Y-65793887D01*
X76349988Y-65721417D01*
X76349989Y-65721417D01*
X76270060Y-65700000D01*
X76209975Y-65683900D01*
X76065025Y-65683900D01*
X76004943Y-65699999D01*
X75925010Y-65721417D01*
X75799489Y-65793887D01*
X75696987Y-65896389D01*
X75624517Y-66021910D01*
X75587000Y-66161925D01*
X60516157Y-66161925D01*
X61298586Y-65379496D01*
X61353103Y-65351719D01*
X61368590Y-65350500D01*
X62813268Y-65350500D01*
X62871459Y-65369407D01*
X62883271Y-65379496D01*
X62944284Y-65440508D01*
X62944289Y-65440512D01*
X63069811Y-65512982D01*
X63069812Y-65512982D01*
X63069815Y-65512984D01*
X63209825Y-65550500D01*
X63209826Y-65550500D01*
X63354774Y-65550500D01*
X63354775Y-65550500D01*
X63494785Y-65512984D01*
X63494787Y-65512982D01*
X63494789Y-65512982D01*
X63620310Y-65440512D01*
X63620310Y-65440511D01*
X63620315Y-65440509D01*
X63722809Y-65338015D01*
X63722812Y-65338010D01*
X63795282Y-65212489D01*
X63795282Y-65212487D01*
X63795284Y-65212485D01*
X63832800Y-65072475D01*
X63832800Y-64927525D01*
X63795284Y-64787515D01*
X63795282Y-64787512D01*
X63795282Y-64787510D01*
X63722812Y-64661989D01*
X63722810Y-64661987D01*
X63722809Y-64661985D01*
X63620315Y-64559491D01*
X63620312Y-64559489D01*
X63620310Y-64559487D01*
X63494788Y-64487017D01*
X63494789Y-64487017D01*
X63464093Y-64478792D01*
X63354775Y-64449500D01*
X63209825Y-64449500D01*
X63148090Y-64466041D01*
X63069810Y-64487017D01*
X62944289Y-64559487D01*
X62944284Y-64559491D01*
X62883271Y-64620504D01*
X62828754Y-64648281D01*
X62813268Y-64649500D01*
X61136256Y-64649500D01*
X61047112Y-64673386D01*
X60967188Y-64719530D01*
X54258814Y-71427904D01*
X54204297Y-71455681D01*
X54188810Y-71456900D01*
X54102525Y-71456900D01*
X54051408Y-71470597D01*
X53962510Y-71494417D01*
X53836989Y-71566887D01*
X53734487Y-71669389D01*
X53662017Y-71794910D01*
X53624500Y-71934925D01*
X10500500Y-71934925D01*
X10500500Y-71017825D01*
X46409200Y-71017825D01*
X46409200Y-71162774D01*
X46446717Y-71302789D01*
X46519187Y-71428310D01*
X46519189Y-71428312D01*
X46519191Y-71428315D01*
X46621685Y-71530809D01*
X46621687Y-71530810D01*
X46621689Y-71530812D01*
X46747211Y-71603282D01*
X46747212Y-71603282D01*
X46747215Y-71603284D01*
X46887225Y-71640800D01*
X46887226Y-71640800D01*
X47032174Y-71640800D01*
X47032175Y-71640800D01*
X47172185Y-71603284D01*
X47172187Y-71603282D01*
X47172189Y-71603282D01*
X47297710Y-71530812D01*
X47297710Y-71530811D01*
X47297715Y-71530809D01*
X47400209Y-71428315D01*
X47400446Y-71427904D01*
X47472682Y-71302789D01*
X47472682Y-71302787D01*
X47472684Y-71302785D01*
X47510200Y-71162775D01*
X47510200Y-71017825D01*
X47472684Y-70877815D01*
X47472682Y-70877812D01*
X47472682Y-70877810D01*
X47400212Y-70752289D01*
X47400210Y-70752287D01*
X47400209Y-70752285D01*
X47297715Y-70649791D01*
X47297712Y-70649789D01*
X47297710Y-70649787D01*
X47172188Y-70577317D01*
X47172189Y-70577317D01*
X47142596Y-70569387D01*
X47032175Y-70539800D01*
X46887225Y-70539800D01*
X46825490Y-70556341D01*
X46747210Y-70577317D01*
X46621689Y-70649787D01*
X46519187Y-70752289D01*
X46446717Y-70877810D01*
X46409200Y-71017825D01*
X10500500Y-71017825D01*
X10500500Y-67700625D01*
X37222700Y-67700625D01*
X37222700Y-67845574D01*
X37260217Y-67985589D01*
X37332687Y-68111110D01*
X37332689Y-68111112D01*
X37332691Y-68111115D01*
X37435185Y-68213609D01*
X37435187Y-68213610D01*
X37435189Y-68213612D01*
X37560711Y-68286082D01*
X37560712Y-68286082D01*
X37560715Y-68286084D01*
X37700725Y-68323600D01*
X37700726Y-68323600D01*
X37845674Y-68323600D01*
X37845675Y-68323600D01*
X37985685Y-68286084D01*
X37985687Y-68286082D01*
X37985689Y-68286082D01*
X38111210Y-68213612D01*
X38111210Y-68213611D01*
X38111215Y-68213609D01*
X38213709Y-68111115D01*
X38251702Y-68045310D01*
X38286182Y-67985589D01*
X38286182Y-67985587D01*
X38286184Y-67985585D01*
X38323700Y-67845575D01*
X38323700Y-67700625D01*
X38306069Y-67634825D01*
X46551800Y-67634825D01*
X46551800Y-67779775D01*
X46560596Y-67812600D01*
X46589317Y-67919789D01*
X46661787Y-68045310D01*
X46661789Y-68045312D01*
X46661791Y-68045315D01*
X46764285Y-68147809D01*
X46764287Y-68147810D01*
X46764289Y-68147812D01*
X46889811Y-68220282D01*
X46889812Y-68220282D01*
X46889815Y-68220284D01*
X47029825Y-68257800D01*
X47029826Y-68257800D01*
X47174774Y-68257800D01*
X47174775Y-68257800D01*
X47314785Y-68220284D01*
X47314787Y-68220282D01*
X47314789Y-68220282D01*
X47440310Y-68147812D01*
X47440310Y-68147811D01*
X47440315Y-68147809D01*
X47542809Y-68045315D01*
X47615284Y-67919785D01*
X47652800Y-67779775D01*
X47652800Y-67634825D01*
X47620919Y-67515845D01*
X48037706Y-67515845D01*
X48166645Y-67569255D01*
X48166651Y-67569257D01*
X48321204Y-67599999D01*
X48321208Y-67600000D01*
X48478792Y-67600000D01*
X48478795Y-67599999D01*
X48633348Y-67569257D01*
X48633354Y-67569255D01*
X48762292Y-67515846D01*
X48762291Y-67515845D01*
X49237706Y-67515845D01*
X49366645Y-67569255D01*
X49366651Y-67569257D01*
X49521204Y-67599999D01*
X49521208Y-67600000D01*
X49678792Y-67600000D01*
X49678795Y-67599999D01*
X49833348Y-67569257D01*
X49833354Y-67569255D01*
X49962292Y-67515846D01*
X49599999Y-67153553D01*
X49237706Y-67515845D01*
X48762291Y-67515845D01*
X48399999Y-67153553D01*
X48037706Y-67515845D01*
X47620919Y-67515845D01*
X47615284Y-67494815D01*
X47615282Y-67494812D01*
X47615282Y-67494810D01*
X47542812Y-67369289D01*
X47542810Y-67369287D01*
X47542809Y-67369285D01*
X47440315Y-67266791D01*
X47440312Y-67266789D01*
X47440310Y-67266787D01*
X47314788Y-67194317D01*
X47314789Y-67194317D01*
X47250038Y-67176967D01*
X47174775Y-67156800D01*
X47029825Y-67156800D01*
X47009329Y-67162292D01*
X46889810Y-67194317D01*
X46764289Y-67266787D01*
X46661787Y-67369289D01*
X46589317Y-67494810D01*
X46569369Y-67569257D01*
X46551800Y-67634825D01*
X38306069Y-67634825D01*
X38286184Y-67560615D01*
X38286182Y-67560612D01*
X38286182Y-67560610D01*
X38213712Y-67435089D01*
X38213710Y-67435087D01*
X38213709Y-67435085D01*
X38111215Y-67332591D01*
X38111212Y-67332589D01*
X38111210Y-67332587D01*
X37985688Y-67260117D01*
X37985689Y-67260117D01*
X37956096Y-67252187D01*
X37845675Y-67222600D01*
X37700725Y-67222600D01*
X37638990Y-67239141D01*
X37560710Y-67260117D01*
X37435189Y-67332587D01*
X37332687Y-67435089D01*
X37260217Y-67560610D01*
X37222700Y-67700625D01*
X10500500Y-67700625D01*
X10500500Y-66721204D01*
X47600000Y-66721204D01*
X47600000Y-66878795D01*
X47630742Y-67033349D01*
X47684152Y-67162292D01*
X48046446Y-66799999D01*
X48016610Y-66770163D01*
X48250000Y-66770163D01*
X48250000Y-66829837D01*
X48272836Y-66884968D01*
X48315032Y-66927164D01*
X48370163Y-66950000D01*
X48429837Y-66950000D01*
X48484968Y-66927164D01*
X48527164Y-66884968D01*
X48550000Y-66829837D01*
X48550000Y-66800000D01*
X48753553Y-66800000D01*
X48999999Y-67046445D01*
X49246446Y-66799999D01*
X49216610Y-66770163D01*
X49450000Y-66770163D01*
X49450000Y-66829837D01*
X49472836Y-66884968D01*
X49515032Y-66927164D01*
X49570163Y-66950000D01*
X49629837Y-66950000D01*
X49684968Y-66927164D01*
X49727164Y-66884968D01*
X49750000Y-66829837D01*
X49750000Y-66799999D01*
X49953553Y-66799999D01*
X50315846Y-67162292D01*
X50362844Y-67048831D01*
X52334100Y-67048831D01*
X52334100Y-67176969D01*
X52351966Y-67266787D01*
X52359099Y-67302642D01*
X52359100Y-67302647D01*
X52408134Y-67421025D01*
X52408138Y-67421033D01*
X52450965Y-67485126D01*
X52479324Y-67527569D01*
X52569931Y-67618176D01*
X52623484Y-67653959D01*
X52676466Y-67689361D01*
X52676470Y-67689363D01*
X52676473Y-67689365D01*
X52794856Y-67738401D01*
X52920531Y-67763400D01*
X52920532Y-67763400D01*
X53048668Y-67763400D01*
X53048669Y-67763400D01*
X53174344Y-67738401D01*
X53292727Y-67689365D01*
X53399269Y-67618176D01*
X53489876Y-67527569D01*
X53561065Y-67421027D01*
X53610101Y-67302644D01*
X53635100Y-67176969D01*
X53635100Y-67048831D01*
X53610101Y-66923156D01*
X53610100Y-66923154D01*
X53609152Y-66918387D01*
X53610719Y-66918075D01*
X53611786Y-66863590D01*
X53648712Y-66814803D01*
X53707262Y-66797039D01*
X53754826Y-66810285D01*
X53767811Y-66817782D01*
X53767812Y-66817782D01*
X53767815Y-66817784D01*
X53907825Y-66855300D01*
X53907826Y-66855300D01*
X54052774Y-66855300D01*
X54052775Y-66855300D01*
X54192785Y-66817784D01*
X54192787Y-66817782D01*
X54192789Y-66817782D01*
X54318310Y-66745312D01*
X54318310Y-66745311D01*
X54318315Y-66745309D01*
X54420809Y-66642815D01*
X54461455Y-66572415D01*
X54493282Y-66517289D01*
X54493282Y-66517287D01*
X54493284Y-66517285D01*
X54530800Y-66377275D01*
X54530800Y-66232325D01*
X54493284Y-66092315D01*
X54493282Y-66092312D01*
X54493282Y-66092310D01*
X54420812Y-65966789D01*
X54420810Y-65966787D01*
X54420809Y-65966785D01*
X54318315Y-65864291D01*
X54318312Y-65864289D01*
X54318310Y-65864287D01*
X54192788Y-65791817D01*
X54192789Y-65791817D01*
X54163196Y-65783887D01*
X54052775Y-65754300D01*
X53907825Y-65754300D01*
X53846090Y-65770841D01*
X53767810Y-65791817D01*
X53642289Y-65864287D01*
X53539787Y-65966789D01*
X53467317Y-66092310D01*
X53429800Y-66232325D01*
X53429800Y-66377277D01*
X53443561Y-66428632D01*
X53440360Y-66489734D01*
X53401855Y-66537284D01*
X53342754Y-66553120D01*
X53297383Y-66538052D01*
X53297021Y-66538730D01*
X53293077Y-66536622D01*
X53292944Y-66536578D01*
X53292742Y-66536443D01*
X53292725Y-66536434D01*
X53174347Y-66487400D01*
X53174345Y-66487399D01*
X53174344Y-66487399D01*
X53048669Y-66462400D01*
X52920531Y-66462400D01*
X52920530Y-66462400D01*
X52857693Y-66474899D01*
X52794856Y-66487399D01*
X52794855Y-66487399D01*
X52794852Y-66487400D01*
X52676474Y-66536434D01*
X52676466Y-66536438D01*
X52569931Y-66607624D01*
X52569927Y-66607627D01*
X52479327Y-66698227D01*
X52479324Y-66698231D01*
X52408138Y-66804766D01*
X52408134Y-66804774D01*
X52359100Y-66923152D01*
X52359099Y-66923157D01*
X52334575Y-67046445D01*
X52334100Y-67048831D01*
X50362844Y-67048831D01*
X50369255Y-67033354D01*
X50369257Y-67033348D01*
X50370987Y-67024653D01*
X50399999Y-66878795D01*
X50400000Y-66878792D01*
X50400000Y-66721207D01*
X50399999Y-66721204D01*
X50369257Y-66566651D01*
X50369255Y-66566645D01*
X50315845Y-66437706D01*
X49953553Y-66799999D01*
X49750000Y-66799999D01*
X49750000Y-66770163D01*
X49727164Y-66715032D01*
X49684968Y-66672836D01*
X49629837Y-66650000D01*
X49570163Y-66650000D01*
X49515032Y-66672836D01*
X49472836Y-66715032D01*
X49450000Y-66770163D01*
X49216610Y-66770163D01*
X49000000Y-66553553D01*
X48753553Y-66800000D01*
X48550000Y-66800000D01*
X48550000Y-66770163D01*
X48527164Y-66715032D01*
X48484968Y-66672836D01*
X48429837Y-66650000D01*
X48370163Y-66650000D01*
X48315032Y-66672836D01*
X48272836Y-66715032D01*
X48250000Y-66770163D01*
X48016610Y-66770163D01*
X47684153Y-66437706D01*
X47684152Y-66437706D01*
X47630743Y-66566647D01*
X47630743Y-66566649D01*
X47600000Y-66721204D01*
X10500500Y-66721204D01*
X10500500Y-66250000D01*
X48203553Y-66250000D01*
X48399999Y-66446445D01*
X48596445Y-66250000D01*
X49403553Y-66250000D01*
X49599999Y-66446445D01*
X49796446Y-66249999D01*
X49600000Y-66053553D01*
X49403553Y-66250000D01*
X48596445Y-66250000D01*
X48596446Y-66249999D01*
X48400000Y-66053553D01*
X48203553Y-66250000D01*
X10500500Y-66250000D01*
X10500500Y-65621204D01*
X47600000Y-65621204D01*
X47600000Y-65778795D01*
X47630742Y-65933349D01*
X47684152Y-66062292D01*
X48046446Y-65699999D01*
X48016610Y-65670163D01*
X48250000Y-65670163D01*
X48250000Y-65729837D01*
X48272836Y-65784968D01*
X48315032Y-65827164D01*
X48370163Y-65850000D01*
X48429837Y-65850000D01*
X48484968Y-65827164D01*
X48527164Y-65784968D01*
X48550000Y-65729837D01*
X48550000Y-65700000D01*
X48753553Y-65700000D01*
X48999999Y-65946445D01*
X49246446Y-65699999D01*
X49216610Y-65670163D01*
X49450000Y-65670163D01*
X49450000Y-65729837D01*
X49472836Y-65784968D01*
X49515032Y-65827164D01*
X49570163Y-65850000D01*
X49629837Y-65850000D01*
X49684968Y-65827164D01*
X49727164Y-65784968D01*
X49750000Y-65729837D01*
X49750000Y-65699999D01*
X49953553Y-65699999D01*
X50315846Y-66062292D01*
X50369255Y-65933354D01*
X50369257Y-65933348D01*
X50399999Y-65778795D01*
X50400000Y-65778792D01*
X50400000Y-65621207D01*
X50399999Y-65621204D01*
X50369257Y-65466651D01*
X50369255Y-65466645D01*
X50315845Y-65337706D01*
X49953553Y-65699999D01*
X49750000Y-65699999D01*
X49750000Y-65670163D01*
X49727164Y-65615032D01*
X49684968Y-65572836D01*
X49629837Y-65550000D01*
X49570163Y-65550000D01*
X49515032Y-65572836D01*
X49472836Y-65615032D01*
X49450000Y-65670163D01*
X49216610Y-65670163D01*
X49000000Y-65453553D01*
X48753553Y-65700000D01*
X48550000Y-65700000D01*
X48550000Y-65670163D01*
X48527164Y-65615032D01*
X48484968Y-65572836D01*
X48429837Y-65550000D01*
X48370163Y-65550000D01*
X48315032Y-65572836D01*
X48272836Y-65615032D01*
X48250000Y-65670163D01*
X48016610Y-65670163D01*
X47684153Y-65337706D01*
X47684152Y-65337706D01*
X47630743Y-65466647D01*
X47630743Y-65466649D01*
X47600000Y-65621204D01*
X10500500Y-65621204D01*
X10500500Y-61002130D01*
X14549500Y-61002130D01*
X14549500Y-62997869D01*
X14555908Y-63057476D01*
X14555910Y-63057487D01*
X14606202Y-63192328D01*
X14670929Y-63278792D01*
X14692454Y-63307546D01*
X14692457Y-63307548D01*
X14692458Y-63307549D01*
X14807671Y-63393797D01*
X14942512Y-63444089D01*
X14942513Y-63444089D01*
X14942518Y-63444091D01*
X15002128Y-63450500D01*
X15002131Y-63450500D01*
X16997869Y-63450500D01*
X16997872Y-63450500D01*
X17057482Y-63444091D01*
X17104304Y-63426627D01*
X17192328Y-63393797D01*
X17192328Y-63393796D01*
X17192330Y-63393796D01*
X17307546Y-63307546D01*
X17393796Y-63192330D01*
X17444091Y-63057482D01*
X17450500Y-62997872D01*
X17450500Y-61002128D01*
X17444091Y-60942518D01*
X17443749Y-60941600D01*
X17393797Y-60807671D01*
X17307549Y-60692458D01*
X17307548Y-60692457D01*
X17307546Y-60692454D01*
X17307541Y-60692450D01*
X17192328Y-60606202D01*
X17057487Y-60555910D01*
X17057482Y-60555909D01*
X17057480Y-60555908D01*
X17057476Y-60555908D01*
X17026248Y-60552550D01*
X16997872Y-60549500D01*
X15002128Y-60549500D01*
X14977637Y-60552133D01*
X14942523Y-60555908D01*
X14942512Y-60555910D01*
X14807671Y-60606202D01*
X14692458Y-60692450D01*
X14692450Y-60692458D01*
X14606202Y-60807671D01*
X14555910Y-60942512D01*
X14555908Y-60942523D01*
X14549500Y-61002130D01*
X10500500Y-61002130D01*
X10500500Y-58385839D01*
X14549500Y-58385839D01*
X14549500Y-58614160D01*
X14585214Y-58839655D01*
X14655769Y-59056799D01*
X14759420Y-59260227D01*
X14759424Y-59260233D01*
X14893616Y-59444931D01*
X14893618Y-59444933D01*
X14893621Y-59444937D01*
X15055063Y-59606379D01*
X15055066Y-59606381D01*
X15055068Y-59606383D01*
X15178669Y-59696185D01*
X15239772Y-59740579D01*
X15443201Y-59844231D01*
X15660340Y-59914784D01*
X15660341Y-59914784D01*
X15660344Y-59914785D01*
X15885840Y-59950500D01*
X15885843Y-59950500D01*
X16114160Y-59950500D01*
X16339655Y-59914785D01*
X16339656Y-59914784D01*
X16339660Y-59914784D01*
X16556799Y-59844231D01*
X16760228Y-59740579D01*
X16944937Y-59606379D01*
X17106379Y-59444937D01*
X17240579Y-59260228D01*
X17344231Y-59056799D01*
X17389035Y-58918906D01*
X17424999Y-58869407D01*
X17483190Y-58850500D01*
X19176310Y-58850500D01*
X19234501Y-58869407D01*
X19246314Y-58879496D01*
X25208404Y-64841586D01*
X25236181Y-64896103D01*
X25237400Y-64911590D01*
X25237400Y-64997874D01*
X25274917Y-65137889D01*
X25347387Y-65263410D01*
X25347389Y-65263412D01*
X25347391Y-65263415D01*
X25449885Y-65365909D01*
X25449887Y-65365910D01*
X25449889Y-65365912D01*
X25575411Y-65438382D01*
X25575412Y-65438382D01*
X25575415Y-65438384D01*
X25715425Y-65475900D01*
X25715426Y-65475900D01*
X25860374Y-65475900D01*
X25860375Y-65475900D01*
X26000385Y-65438384D01*
X26000387Y-65438382D01*
X26000389Y-65438382D01*
X26125910Y-65365912D01*
X26125910Y-65365911D01*
X26125915Y-65365909D01*
X26228409Y-65263415D01*
X26300884Y-65137885D01*
X26324433Y-65050000D01*
X48103553Y-65050000D01*
X48399999Y-65346445D01*
X48696445Y-65050000D01*
X49303553Y-65050000D01*
X49599999Y-65346445D01*
X49896446Y-65049999D01*
X49600000Y-64753553D01*
X49303553Y-65050000D01*
X48696445Y-65050000D01*
X48696446Y-65049999D01*
X48400000Y-64753553D01*
X48103553Y-65050000D01*
X26324433Y-65050000D01*
X26338400Y-64997875D01*
X26338400Y-64852925D01*
X26300884Y-64712915D01*
X26300882Y-64712912D01*
X26300882Y-64712910D01*
X26228412Y-64587389D01*
X26228410Y-64587387D01*
X26228409Y-64587385D01*
X26125915Y-64484891D01*
X26125912Y-64484889D01*
X26125910Y-64484887D01*
X26000388Y-64412417D01*
X26000385Y-64412416D01*
X25998726Y-64411971D01*
X25998724Y-64411971D01*
X25860375Y-64374900D01*
X25860374Y-64374900D01*
X25774090Y-64374900D01*
X25715899Y-64355993D01*
X25704086Y-64345904D01*
X25679386Y-64321204D01*
X47600000Y-64321204D01*
X47600000Y-64478795D01*
X47630742Y-64633349D01*
X47684152Y-64762292D01*
X48046446Y-64399999D01*
X48016610Y-64370163D01*
X48250000Y-64370163D01*
X48250000Y-64429837D01*
X48272836Y-64484968D01*
X48315032Y-64527164D01*
X48370163Y-64550000D01*
X48429837Y-64550000D01*
X48484968Y-64527164D01*
X48527164Y-64484968D01*
X48550000Y-64429837D01*
X48550000Y-64400000D01*
X48753553Y-64400000D01*
X48999999Y-64646445D01*
X49246446Y-64399999D01*
X49216610Y-64370163D01*
X49450000Y-64370163D01*
X49450000Y-64429837D01*
X49472836Y-64484968D01*
X49515032Y-64527164D01*
X49570163Y-64550000D01*
X49629837Y-64550000D01*
X49684968Y-64527164D01*
X49727164Y-64484968D01*
X49750000Y-64429837D01*
X49750000Y-64399999D01*
X49953553Y-64399999D01*
X50315846Y-64762292D01*
X50369255Y-64633354D01*
X50369257Y-64633348D01*
X50399999Y-64478795D01*
X50400000Y-64478792D01*
X50400000Y-64321207D01*
X50399999Y-64321204D01*
X50396846Y-64305350D01*
X50394295Y-64292525D01*
X52452400Y-64292525D01*
X52452400Y-64437475D01*
X52463471Y-64478792D01*
X52489917Y-64577489D01*
X52562387Y-64703010D01*
X52562389Y-64703012D01*
X52562391Y-64703015D01*
X52664885Y-64805509D01*
X52664887Y-64805510D01*
X52664889Y-64805512D01*
X52790411Y-64877982D01*
X52790412Y-64877982D01*
X52790415Y-64877984D01*
X52930425Y-64915500D01*
X52930426Y-64915500D01*
X53075374Y-64915500D01*
X53075375Y-64915500D01*
X53215385Y-64877984D01*
X53215387Y-64877982D01*
X53215389Y-64877982D01*
X53340910Y-64805512D01*
X53340910Y-64805511D01*
X53340915Y-64805509D01*
X53443409Y-64703015D01*
X53443412Y-64703010D01*
X53515882Y-64577489D01*
X53515882Y-64577487D01*
X53515884Y-64577485D01*
X53553400Y-64437475D01*
X53553400Y-64292525D01*
X53515884Y-64152515D01*
X53515882Y-64152512D01*
X53515882Y-64152510D01*
X53443412Y-64026989D01*
X53443410Y-64026987D01*
X53443409Y-64026985D01*
X53340915Y-63924491D01*
X53340912Y-63924489D01*
X53340910Y-63924487D01*
X53215388Y-63852017D01*
X53215389Y-63852017D01*
X53185796Y-63844087D01*
X53075375Y-63814500D01*
X52930425Y-63814500D01*
X52868690Y-63831041D01*
X52790410Y-63852017D01*
X52664889Y-63924487D01*
X52562387Y-64026989D01*
X52489917Y-64152510D01*
X52486128Y-64166651D01*
X52452400Y-64292525D01*
X50394295Y-64292525D01*
X50369257Y-64166651D01*
X50369255Y-64166645D01*
X50315845Y-64037706D01*
X49953553Y-64399999D01*
X49750000Y-64399999D01*
X49750000Y-64370163D01*
X49727164Y-64315032D01*
X49684968Y-64272836D01*
X49629837Y-64250000D01*
X49570163Y-64250000D01*
X49515032Y-64272836D01*
X49472836Y-64315032D01*
X49450000Y-64370163D01*
X49216610Y-64370163D01*
X49000000Y-64153553D01*
X48753553Y-64400000D01*
X48550000Y-64400000D01*
X48550000Y-64370163D01*
X48527164Y-64315032D01*
X48484968Y-64272836D01*
X48429837Y-64250000D01*
X48370163Y-64250000D01*
X48315032Y-64272836D01*
X48272836Y-64315032D01*
X48250000Y-64370163D01*
X48016610Y-64370163D01*
X47684153Y-64037706D01*
X47684152Y-64037706D01*
X47630743Y-64166647D01*
X47630743Y-64166649D01*
X47600000Y-64321204D01*
X25679386Y-64321204D01*
X25158182Y-63800000D01*
X48153553Y-63800000D01*
X48399999Y-64046445D01*
X48646445Y-63800000D01*
X49353553Y-63800000D01*
X49599999Y-64046445D01*
X49846446Y-63799999D01*
X49600000Y-63553553D01*
X49353553Y-63800000D01*
X48646445Y-63800000D01*
X48646446Y-63799999D01*
X48400000Y-63553553D01*
X48153553Y-63800000D01*
X25158182Y-63800000D01*
X24479386Y-63121204D01*
X47600000Y-63121204D01*
X47600000Y-63278795D01*
X47630742Y-63433349D01*
X47684152Y-63562292D01*
X48046446Y-63199999D01*
X48016610Y-63170163D01*
X48250000Y-63170163D01*
X48250000Y-63229837D01*
X48272836Y-63284968D01*
X48315032Y-63327164D01*
X48370163Y-63350000D01*
X48429837Y-63350000D01*
X48484968Y-63327164D01*
X48527164Y-63284968D01*
X48550000Y-63229837D01*
X48550000Y-63200000D01*
X48753553Y-63200000D01*
X48999999Y-63446445D01*
X49246446Y-63199999D01*
X49216610Y-63170163D01*
X49450000Y-63170163D01*
X49450000Y-63229837D01*
X49472836Y-63284968D01*
X49515032Y-63327164D01*
X49570163Y-63350000D01*
X49629837Y-63350000D01*
X49684968Y-63327164D01*
X49727164Y-63284968D01*
X49750000Y-63229837D01*
X49750000Y-63199999D01*
X49953553Y-63199999D01*
X50315846Y-63562292D01*
X50369255Y-63433354D01*
X50369257Y-63433348D01*
X50399999Y-63278795D01*
X50400000Y-63278792D01*
X50400000Y-63121207D01*
X50399999Y-63121204D01*
X50369257Y-62966651D01*
X50369255Y-62966645D01*
X50315845Y-62837706D01*
X49953553Y-63199999D01*
X49750000Y-63199999D01*
X49750000Y-63170163D01*
X49727164Y-63115032D01*
X49684968Y-63072836D01*
X49629837Y-63050000D01*
X49570163Y-63050000D01*
X49515032Y-63072836D01*
X49472836Y-63115032D01*
X49450000Y-63170163D01*
X49216610Y-63170163D01*
X49000000Y-62953553D01*
X48753553Y-63200000D01*
X48550000Y-63200000D01*
X48550000Y-63170163D01*
X48527164Y-63115032D01*
X48484968Y-63072836D01*
X48429837Y-63050000D01*
X48370163Y-63050000D01*
X48315032Y-63072836D01*
X48272836Y-63115032D01*
X48250000Y-63170163D01*
X48016610Y-63170163D01*
X47684153Y-62837706D01*
X47684152Y-62837706D01*
X47630743Y-62966647D01*
X47630743Y-62966649D01*
X47600000Y-63121204D01*
X24479386Y-63121204D01*
X23944925Y-62586743D01*
X23842334Y-62484152D01*
X48037706Y-62484152D01*
X48037706Y-62484153D01*
X48399999Y-62846445D01*
X48762292Y-62484152D01*
X49237706Y-62484152D01*
X49237706Y-62484153D01*
X49599999Y-62846445D01*
X49962292Y-62484152D01*
X49833349Y-62430742D01*
X49678795Y-62400000D01*
X49521204Y-62400000D01*
X49366649Y-62430743D01*
X49366647Y-62430743D01*
X49237706Y-62484152D01*
X48762292Y-62484152D01*
X48633349Y-62430742D01*
X48478795Y-62400000D01*
X48321204Y-62400000D01*
X48166649Y-62430743D01*
X48166647Y-62430743D01*
X48037706Y-62484152D01*
X23842334Y-62484152D01*
X22153469Y-60795287D01*
X20286707Y-58928525D01*
X52674500Y-58928525D01*
X52674500Y-59073474D01*
X52712017Y-59213489D01*
X52784487Y-59339010D01*
X52784489Y-59339012D01*
X52784491Y-59339015D01*
X52886985Y-59441509D01*
X52886987Y-59441510D01*
X52886989Y-59441512D01*
X53012511Y-59513982D01*
X53012512Y-59513982D01*
X53012515Y-59513984D01*
X53152525Y-59551500D01*
X53152526Y-59551500D01*
X53297474Y-59551500D01*
X53297475Y-59551500D01*
X53437485Y-59513984D01*
X53437487Y-59513982D01*
X53437489Y-59513982D01*
X53563010Y-59441512D01*
X53563010Y-59441511D01*
X53563015Y-59441509D01*
X53665509Y-59339015D01*
X53710997Y-59260228D01*
X53737982Y-59213489D01*
X53737982Y-59213487D01*
X53737984Y-59213485D01*
X53775500Y-59073475D01*
X53775500Y-58928525D01*
X53737984Y-58788515D01*
X53737982Y-58788512D01*
X53737982Y-58788510D01*
X53665512Y-58662989D01*
X53665510Y-58662987D01*
X53665509Y-58662985D01*
X53563015Y-58560491D01*
X53563012Y-58560489D01*
X53563010Y-58560487D01*
X53437488Y-58488017D01*
X53437489Y-58488017D01*
X53328077Y-58458700D01*
X53297475Y-58450500D01*
X53152525Y-58450500D01*
X53121923Y-58458700D01*
X53012510Y-58488017D01*
X52886989Y-58560487D01*
X52784487Y-58662989D01*
X52712017Y-58788510D01*
X52674500Y-58928525D01*
X20286707Y-58928525D01*
X19577712Y-58219530D01*
X19497788Y-58173386D01*
X19408644Y-58149500D01*
X19408642Y-58149500D01*
X17483190Y-58149500D01*
X17424999Y-58130593D01*
X17395525Y-58090025D01*
X48439300Y-58090025D01*
X48439300Y-58234974D01*
X48476817Y-58374989D01*
X48549287Y-58500510D01*
X48549289Y-58500512D01*
X48549291Y-58500515D01*
X48651785Y-58603009D01*
X48651787Y-58603010D01*
X48651789Y-58603012D01*
X48777311Y-58675482D01*
X48777312Y-58675482D01*
X48777315Y-58675484D01*
X48917325Y-58713000D01*
X48917326Y-58713000D01*
X49062274Y-58713000D01*
X49062275Y-58713000D01*
X49202285Y-58675484D01*
X49202287Y-58675482D01*
X49202289Y-58675482D01*
X49327810Y-58603012D01*
X49327810Y-58603011D01*
X49327815Y-58603009D01*
X49430309Y-58500515D01*
X49437525Y-58488016D01*
X49502782Y-58374989D01*
X49502782Y-58374987D01*
X49502784Y-58374985D01*
X49540300Y-58234975D01*
X49540300Y-58090025D01*
X49502784Y-57950015D01*
X49502782Y-57950012D01*
X49502782Y-57950010D01*
X49430312Y-57824489D01*
X49430310Y-57824487D01*
X49430309Y-57824485D01*
X49327815Y-57721991D01*
X49327812Y-57721989D01*
X49327810Y-57721987D01*
X49202288Y-57649517D01*
X49202289Y-57649517D01*
X49172696Y-57641587D01*
X49062275Y-57612000D01*
X48917325Y-57612000D01*
X48855590Y-57628541D01*
X48777310Y-57649517D01*
X48651789Y-57721987D01*
X48549287Y-57824489D01*
X48476817Y-57950010D01*
X48439300Y-58090025D01*
X17395525Y-58090025D01*
X17389035Y-58081093D01*
X17356407Y-57980675D01*
X17344231Y-57943201D01*
X17240579Y-57739772D01*
X17240575Y-57739766D01*
X17106383Y-57555068D01*
X17106381Y-57555066D01*
X17106379Y-57555063D01*
X16944937Y-57393621D01*
X16944933Y-57393618D01*
X16944931Y-57393616D01*
X16760233Y-57259424D01*
X16760227Y-57259420D01*
X16556799Y-57155769D01*
X16339655Y-57085214D01*
X16114160Y-57049500D01*
X16114157Y-57049500D01*
X15885843Y-57049500D01*
X15885840Y-57049500D01*
X15660344Y-57085214D01*
X15443200Y-57155769D01*
X15239772Y-57259420D01*
X15239766Y-57259424D01*
X15055068Y-57393616D01*
X14893616Y-57555068D01*
X14759424Y-57739766D01*
X14759420Y-57739772D01*
X14655769Y-57943200D01*
X14585214Y-58160344D01*
X14549500Y-58385839D01*
X10500500Y-58385839D01*
X10500500Y-54888574D01*
X14300000Y-54888574D01*
X14300000Y-55111425D01*
X14329087Y-55332365D01*
X14386763Y-55547619D01*
X14472042Y-55753499D01*
X14583473Y-55946504D01*
X14634041Y-56012404D01*
X15435387Y-55211057D01*
X15440889Y-55231591D01*
X15519881Y-55368408D01*
X15631592Y-55480119D01*
X15768409Y-55559111D01*
X15788939Y-55564612D01*
X14987594Y-56365957D01*
X15053498Y-56416528D01*
X15053503Y-56416531D01*
X15246500Y-56527957D01*
X15452380Y-56613236D01*
X15667634Y-56670912D01*
X15888574Y-56699999D01*
X15888577Y-56700000D01*
X16111423Y-56700000D01*
X16111425Y-56699999D01*
X16332365Y-56670912D01*
X16547619Y-56613236D01*
X16753499Y-56527957D01*
X16946496Y-56416531D01*
X16946500Y-56416528D01*
X17012403Y-56365957D01*
X16211058Y-55564612D01*
X16231591Y-55559111D01*
X16368408Y-55480119D01*
X16480119Y-55368408D01*
X16559111Y-55231591D01*
X16564612Y-55211058D01*
X17365957Y-56012403D01*
X17416528Y-55946500D01*
X17416531Y-55946496D01*
X17527957Y-55753499D01*
X17613236Y-55547619D01*
X17661841Y-55366225D01*
X50185800Y-55366225D01*
X50185800Y-55511175D01*
X50206712Y-55589219D01*
X50223317Y-55651189D01*
X50295787Y-55776710D01*
X50295789Y-55776712D01*
X50295791Y-55776715D01*
X50398285Y-55879209D01*
X50398287Y-55879210D01*
X50398289Y-55879212D01*
X50523811Y-55951682D01*
X50523812Y-55951682D01*
X50523815Y-55951684D01*
X50663825Y-55989200D01*
X50663826Y-55989200D01*
X50808774Y-55989200D01*
X50808775Y-55989200D01*
X50948785Y-55951684D01*
X50948787Y-55951682D01*
X50948789Y-55951682D01*
X51074310Y-55879212D01*
X51074310Y-55879211D01*
X51074315Y-55879209D01*
X51176809Y-55776715D01*
X51217686Y-55705915D01*
X51249282Y-55651189D01*
X51249282Y-55651187D01*
X51249284Y-55651185D01*
X51286800Y-55511175D01*
X51286800Y-55366225D01*
X51272956Y-55314559D01*
X51272956Y-55314556D01*
X51267830Y-55295425D01*
X70081600Y-55295425D01*
X70081600Y-55440375D01*
X70100571Y-55511174D01*
X70119117Y-55580389D01*
X70191587Y-55705910D01*
X70191589Y-55705912D01*
X70191591Y-55705915D01*
X70294085Y-55808409D01*
X70294087Y-55808410D01*
X70294089Y-55808412D01*
X70419611Y-55880882D01*
X70419612Y-55880882D01*
X70419615Y-55880884D01*
X70559625Y-55918400D01*
X70645910Y-55918400D01*
X70704101Y-55937307D01*
X70715914Y-55947396D01*
X77046031Y-62277512D01*
X77046030Y-62277512D01*
X77111287Y-62342768D01*
X77111289Y-62342770D01*
X77160202Y-62371010D01*
X77191212Y-62388914D01*
X77280356Y-62412800D01*
X77405768Y-62412800D01*
X77463959Y-62431707D01*
X77475771Y-62441796D01*
X77536784Y-62502808D01*
X77536789Y-62502812D01*
X77662311Y-62575282D01*
X77662312Y-62575282D01*
X77662315Y-62575284D01*
X77802325Y-62612800D01*
X77802326Y-62612800D01*
X77947274Y-62612800D01*
X77947275Y-62612800D01*
X78087285Y-62575284D01*
X78087287Y-62575282D01*
X78087289Y-62575282D01*
X78212810Y-62502812D01*
X78212810Y-62502811D01*
X78212815Y-62502809D01*
X78315309Y-62400315D01*
X78315491Y-62400000D01*
X78387782Y-62274789D01*
X78387782Y-62274787D01*
X78387784Y-62274785D01*
X78425300Y-62134775D01*
X78425300Y-61989825D01*
X78387784Y-61849815D01*
X78387782Y-61849812D01*
X78387782Y-61849810D01*
X78315312Y-61724289D01*
X78315310Y-61724287D01*
X78315309Y-61724285D01*
X78212815Y-61621791D01*
X78212812Y-61621789D01*
X78212810Y-61621787D01*
X78087288Y-61549317D01*
X78087289Y-61549317D01*
X77961501Y-61515612D01*
X77947275Y-61511800D01*
X77802325Y-61511800D01*
X77788099Y-61515612D01*
X77662310Y-61549317D01*
X77536783Y-61621791D01*
X77529226Y-61629348D01*
X77474707Y-61657121D01*
X77414276Y-61647545D01*
X77389224Y-61629343D01*
X76826021Y-61066140D01*
X76762506Y-61002625D01*
X80587000Y-61002625D01*
X80587000Y-61147575D01*
X80591220Y-61163325D01*
X80624517Y-61287589D01*
X80696987Y-61413110D01*
X80696989Y-61413112D01*
X80696991Y-61413115D01*
X80799485Y-61515609D01*
X80799487Y-61515610D01*
X80799489Y-61515612D01*
X80925011Y-61588082D01*
X80925012Y-61588082D01*
X80925015Y-61588084D01*
X81065025Y-61625600D01*
X81065026Y-61625600D01*
X81209974Y-61625600D01*
X81209975Y-61625600D01*
X81349985Y-61588084D01*
X81349987Y-61588082D01*
X81349989Y-61588082D01*
X81475510Y-61515612D01*
X81475510Y-61515611D01*
X81475515Y-61515609D01*
X81578009Y-61413115D01*
X81650484Y-61287585D01*
X81683780Y-61163325D01*
X98436100Y-61163325D01*
X98436100Y-61308274D01*
X98473617Y-61448289D01*
X98546087Y-61573810D01*
X98546089Y-61573812D01*
X98546091Y-61573815D01*
X98648585Y-61676309D01*
X98648587Y-61676310D01*
X98648589Y-61676312D01*
X98774111Y-61748782D01*
X98774112Y-61748782D01*
X98774115Y-61748784D01*
X98914125Y-61786300D01*
X98914126Y-61786300D01*
X99059074Y-61786300D01*
X99059075Y-61786300D01*
X99199085Y-61748784D01*
X99199087Y-61748782D01*
X99199089Y-61748782D01*
X99324610Y-61676312D01*
X99324610Y-61676311D01*
X99324615Y-61676309D01*
X99427109Y-61573815D01*
X99460713Y-61515612D01*
X99499582Y-61448289D01*
X99499582Y-61448287D01*
X99499584Y-61448285D01*
X99537100Y-61308275D01*
X99537100Y-61163325D01*
X99499584Y-61023315D01*
X99499582Y-61023312D01*
X99499582Y-61023310D01*
X99427112Y-60897789D01*
X99427110Y-60897787D01*
X99427109Y-60897785D01*
X99324615Y-60795291D01*
X99324612Y-60795289D01*
X99324610Y-60795287D01*
X99199088Y-60722817D01*
X99199089Y-60722817D01*
X99169496Y-60714887D01*
X99059075Y-60685300D01*
X98914125Y-60685300D01*
X98852390Y-60701841D01*
X98774110Y-60722817D01*
X98648589Y-60795287D01*
X98546087Y-60897789D01*
X98473617Y-61023310D01*
X98436100Y-61163325D01*
X81683780Y-61163325D01*
X81688000Y-61147575D01*
X81688000Y-61061173D01*
X81688001Y-61060912D01*
X81697484Y-61032099D01*
X81706907Y-61003099D01*
X81707106Y-61002865D01*
X81707130Y-61002794D01*
X81707227Y-61002723D01*
X81716996Y-60991286D01*
X84769457Y-57938825D01*
X97802600Y-57938825D01*
X97802600Y-58083775D01*
X97829138Y-58182816D01*
X97840117Y-58223789D01*
X97912587Y-58349310D01*
X97912589Y-58349312D01*
X97912591Y-58349315D01*
X98015085Y-58451809D01*
X98015087Y-58451810D01*
X98015089Y-58451812D01*
X98140611Y-58524282D01*
X98140612Y-58524282D01*
X98140615Y-58524284D01*
X98280625Y-58561800D01*
X98280626Y-58561800D01*
X98321200Y-58561800D01*
X98379391Y-58580707D01*
X98415355Y-58630207D01*
X98420200Y-58660800D01*
X98420200Y-58768275D01*
X98439328Y-58839660D01*
X98457717Y-58908289D01*
X98530187Y-59033810D01*
X98530189Y-59033812D01*
X98530191Y-59033815D01*
X98632685Y-59136309D01*
X98632687Y-59136310D01*
X98632689Y-59136312D01*
X98758211Y-59208782D01*
X98758212Y-59208782D01*
X98758215Y-59208784D01*
X98898225Y-59246300D01*
X98898226Y-59246300D01*
X99043174Y-59246300D01*
X99043175Y-59246300D01*
X99183185Y-59208784D01*
X99183187Y-59208782D01*
X99183189Y-59208782D01*
X99308710Y-59136312D01*
X99308710Y-59136311D01*
X99308715Y-59136309D01*
X99411209Y-59033815D01*
X99435328Y-58992040D01*
X99483682Y-58908289D01*
X99483682Y-58908287D01*
X99483684Y-58908285D01*
X99521200Y-58768275D01*
X99521200Y-58623325D01*
X99483684Y-58483315D01*
X99483682Y-58483312D01*
X99483682Y-58483310D01*
X99411212Y-58357789D01*
X99411210Y-58357787D01*
X99411209Y-58357785D01*
X99308715Y-58255291D01*
X99308712Y-58255289D01*
X99308710Y-58255287D01*
X99183188Y-58182817D01*
X99183189Y-58182817D01*
X99058849Y-58149500D01*
X99043175Y-58145300D01*
X99002600Y-58145300D01*
X98944409Y-58126393D01*
X98908445Y-58076893D01*
X98903600Y-58046300D01*
X98903600Y-57938825D01*
X98872962Y-57824485D01*
X98866084Y-57798815D01*
X98866082Y-57798812D01*
X98866082Y-57798810D01*
X98793612Y-57673289D01*
X98793610Y-57673287D01*
X98793609Y-57673285D01*
X98691115Y-57570791D01*
X98691112Y-57570789D01*
X98691110Y-57570787D01*
X98565588Y-57498317D01*
X98565589Y-57498317D01*
X98535996Y-57490387D01*
X98425575Y-57460800D01*
X98280625Y-57460800D01*
X98254908Y-57467691D01*
X98140610Y-57498317D01*
X98015089Y-57570787D01*
X97912587Y-57673289D01*
X97840117Y-57798810D01*
X97830226Y-57835725D01*
X97802600Y-57938825D01*
X84769457Y-57938825D01*
X87091286Y-55616996D01*
X87145803Y-55589219D01*
X87161290Y-55588000D01*
X101438368Y-55588000D01*
X101496559Y-55606907D01*
X101508371Y-55616996D01*
X101569384Y-55678008D01*
X101569389Y-55678012D01*
X101694911Y-55750482D01*
X101694912Y-55750482D01*
X101694915Y-55750484D01*
X101834925Y-55788000D01*
X101834926Y-55788000D01*
X101979874Y-55788000D01*
X101979875Y-55788000D01*
X102119885Y-55750484D01*
X102119887Y-55750482D01*
X102119889Y-55750482D01*
X102245410Y-55678012D01*
X102245410Y-55678011D01*
X102245415Y-55678009D01*
X102347909Y-55575515D01*
X102385056Y-55511175D01*
X102420382Y-55449989D01*
X102420382Y-55449987D01*
X102420384Y-55449985D01*
X102457900Y-55309975D01*
X102457900Y-55165025D01*
X102420384Y-55025015D01*
X102420382Y-55025012D01*
X102420382Y-55025010D01*
X102347912Y-54899489D01*
X102347910Y-54899487D01*
X102347909Y-54899485D01*
X102245415Y-54796991D01*
X102245412Y-54796989D01*
X102245410Y-54796987D01*
X102119888Y-54724517D01*
X102119889Y-54724517D01*
X102090296Y-54716587D01*
X101979875Y-54687000D01*
X101834925Y-54687000D01*
X101773190Y-54703541D01*
X101694910Y-54724517D01*
X101569389Y-54796987D01*
X101569384Y-54796991D01*
X101508371Y-54858004D01*
X101453854Y-54885781D01*
X101438368Y-54887000D01*
X86928956Y-54887000D01*
X86839812Y-54910886D01*
X86759888Y-54957030D01*
X81221314Y-60495604D01*
X81166797Y-60523381D01*
X81151310Y-60524600D01*
X81065025Y-60524600D01*
X81003290Y-60541141D01*
X80925010Y-60562117D01*
X80799489Y-60634587D01*
X80696987Y-60737089D01*
X80624517Y-60862610D01*
X80624516Y-60862615D01*
X80587000Y-61002625D01*
X76762506Y-61002625D01*
X74320372Y-58560491D01*
X71211596Y-55451714D01*
X71183819Y-55397197D01*
X71182600Y-55381710D01*
X71182600Y-55295425D01*
X71145084Y-55155415D01*
X71145082Y-55155412D01*
X71145082Y-55155410D01*
X71072612Y-55029889D01*
X71072610Y-55029887D01*
X71072609Y-55029885D01*
X70970115Y-54927391D01*
X70970112Y-54927389D01*
X70970110Y-54927387D01*
X70844588Y-54854917D01*
X70844589Y-54854917D01*
X70814996Y-54846987D01*
X70704575Y-54817400D01*
X70559625Y-54817400D01*
X70497890Y-54833941D01*
X70419610Y-54854917D01*
X70294089Y-54927387D01*
X70191587Y-55029889D01*
X70119117Y-55155410D01*
X70119116Y-55155415D01*
X70081600Y-55295425D01*
X51267830Y-55295425D01*
X51249284Y-55226215D01*
X51249282Y-55226211D01*
X51176812Y-55100689D01*
X51176810Y-55100687D01*
X51176809Y-55100685D01*
X51074315Y-54998191D01*
X51074312Y-54998189D01*
X51074310Y-54998187D01*
X50948788Y-54925717D01*
X50948789Y-54925717D01*
X50893439Y-54910886D01*
X50808775Y-54888200D01*
X50663825Y-54888200D01*
X50602090Y-54904741D01*
X50523810Y-54925717D01*
X50398289Y-54998187D01*
X50295787Y-55100689D01*
X50223317Y-55226210D01*
X50200872Y-55309975D01*
X50185800Y-55366225D01*
X17661841Y-55366225D01*
X17670445Y-55334113D01*
X17670446Y-55334111D01*
X17670911Y-55332373D01*
X17670912Y-55332369D01*
X17699999Y-55111425D01*
X17700000Y-55111423D01*
X17700000Y-54888577D01*
X17699999Y-54888574D01*
X17670912Y-54667634D01*
X17613236Y-54452380D01*
X17527957Y-54246500D01*
X17416531Y-54053503D01*
X17416528Y-54053498D01*
X17365957Y-53987594D01*
X16564612Y-54788939D01*
X16559111Y-54768409D01*
X16480119Y-54631592D01*
X16368408Y-54519881D01*
X16231591Y-54440889D01*
X16211057Y-54435387D01*
X17012404Y-53634041D01*
X16946504Y-53583473D01*
X16753499Y-53472042D01*
X16547619Y-53386763D01*
X16332365Y-53329087D01*
X16111425Y-53300000D01*
X15888574Y-53300000D01*
X15667634Y-53329087D01*
X15452380Y-53386763D01*
X15246500Y-53472042D01*
X15053504Y-53583467D01*
X14987595Y-53634041D01*
X15788941Y-54435387D01*
X15768409Y-54440889D01*
X15631592Y-54519881D01*
X15519881Y-54631592D01*
X15440889Y-54768409D01*
X15435387Y-54788941D01*
X14634041Y-53987595D01*
X14583467Y-54053504D01*
X14472042Y-54246500D01*
X14386763Y-54452380D01*
X14329087Y-54667634D01*
X14300000Y-54888574D01*
X10500500Y-54888574D01*
X10500500Y-32662525D01*
X46953600Y-32662525D01*
X46953600Y-32807474D01*
X46991117Y-32947489D01*
X47063587Y-33073010D01*
X47063589Y-33073012D01*
X47063591Y-33073015D01*
X47166085Y-33175509D01*
X47166087Y-33175510D01*
X47166089Y-33175512D01*
X47291609Y-33247981D01*
X47291610Y-33247981D01*
X47291615Y-33247984D01*
X47390102Y-33274373D01*
X47441415Y-33307698D01*
X47463341Y-33364819D01*
X47447505Y-33423920D01*
X47399955Y-33462425D01*
X47390110Y-33465623D01*
X47291615Y-33492016D01*
X47291613Y-33492016D01*
X47291609Y-33492018D01*
X47166089Y-33564487D01*
X47063587Y-33666989D01*
X46991117Y-33792510D01*
X46953600Y-33932525D01*
X46953600Y-34077474D01*
X46991117Y-34217489D01*
X47063587Y-34343010D01*
X47063589Y-34343012D01*
X47063591Y-34343015D01*
X47166085Y-34445509D01*
X47166087Y-34445510D01*
X47166089Y-34445512D01*
X47291611Y-34517982D01*
X47291612Y-34517982D01*
X47291615Y-34517984D01*
X47431625Y-34555500D01*
X47431626Y-34555500D01*
X47576574Y-34555500D01*
X47576575Y-34555500D01*
X47716585Y-34517984D01*
X47716587Y-34517982D01*
X47716589Y-34517982D01*
X47842110Y-34445512D01*
X47842110Y-34445511D01*
X47842115Y-34445509D01*
X47944609Y-34343015D01*
X48017084Y-34217485D01*
X48054600Y-34077475D01*
X48054600Y-33932525D01*
X64464200Y-33932525D01*
X64464200Y-34077474D01*
X64501717Y-34217489D01*
X64574187Y-34343010D01*
X64574189Y-34343012D01*
X64574191Y-34343015D01*
X64676685Y-34445509D01*
X64676687Y-34445510D01*
X64676689Y-34445512D01*
X64802211Y-34517982D01*
X64802212Y-34517982D01*
X64802215Y-34517984D01*
X64942225Y-34555500D01*
X64942226Y-34555500D01*
X65087174Y-34555500D01*
X65087175Y-34555500D01*
X65227185Y-34517984D01*
X65227187Y-34517982D01*
X65227189Y-34517982D01*
X65352710Y-34445512D01*
X65352710Y-34445511D01*
X65352715Y-34445509D01*
X65455209Y-34343015D01*
X65527684Y-34217485D01*
X65565200Y-34077475D01*
X65565200Y-33932525D01*
X65527684Y-33792515D01*
X65527682Y-33792512D01*
X65527682Y-33792510D01*
X65455212Y-33666989D01*
X65455210Y-33666987D01*
X65455209Y-33666985D01*
X65352715Y-33564491D01*
X65352712Y-33564489D01*
X65352710Y-33564487D01*
X65227188Y-33492017D01*
X65227189Y-33492017D01*
X65197596Y-33484087D01*
X65087175Y-33454500D01*
X64942225Y-33454500D01*
X64912649Y-33462425D01*
X64802210Y-33492017D01*
X64676689Y-33564487D01*
X64574187Y-33666989D01*
X64501717Y-33792510D01*
X64464200Y-33932525D01*
X48054600Y-33932525D01*
X48017084Y-33792515D01*
X48017082Y-33792512D01*
X48017082Y-33792510D01*
X47944612Y-33666989D01*
X47944610Y-33666987D01*
X47944609Y-33666985D01*
X47842115Y-33564491D01*
X47842112Y-33564489D01*
X47842110Y-33564487D01*
X47716588Y-33492017D01*
X47716589Y-33492017D01*
X47705199Y-33488965D01*
X47618097Y-33465626D01*
X47566784Y-33432303D01*
X47544858Y-33375181D01*
X47560694Y-33316081D01*
X47608244Y-33277575D01*
X47618089Y-33274376D01*
X47716585Y-33247984D01*
X47716587Y-33247982D01*
X47716589Y-33247982D01*
X47842110Y-33175512D01*
X47842110Y-33175511D01*
X47842115Y-33175509D01*
X47944609Y-33073015D01*
X48017084Y-32947485D01*
X48054600Y-32807475D01*
X48054600Y-32662525D01*
X48017084Y-32522515D01*
X48017082Y-32522512D01*
X48017082Y-32522510D01*
X47944612Y-32396989D01*
X47944610Y-32396987D01*
X47944609Y-32396985D01*
X47842115Y-32294491D01*
X47842112Y-32294489D01*
X47842110Y-32294487D01*
X47716588Y-32222017D01*
X47716589Y-32222017D01*
X47686996Y-32214087D01*
X47576575Y-32184500D01*
X47431625Y-32184500D01*
X47369890Y-32201041D01*
X47291610Y-32222017D01*
X47166089Y-32294487D01*
X47063587Y-32396989D01*
X46991117Y-32522510D01*
X46953600Y-32662525D01*
X10500500Y-32662525D01*
X10500500Y-27820845D01*
X53537706Y-27820845D01*
X53666645Y-27874255D01*
X53666651Y-27874257D01*
X53821204Y-27904999D01*
X53821208Y-27905000D01*
X53978792Y-27905000D01*
X53978795Y-27904999D01*
X54133348Y-27874257D01*
X54133354Y-27874255D01*
X54262292Y-27820846D01*
X54262291Y-27820845D01*
X54637706Y-27820845D01*
X54766645Y-27874255D01*
X54766651Y-27874257D01*
X54921204Y-27904999D01*
X54921208Y-27905000D01*
X55078792Y-27905000D01*
X55078795Y-27904999D01*
X55233348Y-27874257D01*
X55233354Y-27874255D01*
X55362292Y-27820846D01*
X55362291Y-27820845D01*
X55737706Y-27820845D01*
X55866645Y-27874255D01*
X55866651Y-27874257D01*
X56021204Y-27904999D01*
X56021208Y-27905000D01*
X56178792Y-27905000D01*
X56178795Y-27904999D01*
X56333348Y-27874257D01*
X56333354Y-27874255D01*
X56346253Y-27868912D01*
X108000000Y-27868912D01*
X108000000Y-28131087D01*
X108034220Y-28391010D01*
X108034220Y-28391015D01*
X108102075Y-28644255D01*
X108102078Y-28644262D01*
X108202403Y-28886470D01*
X108333492Y-29113522D01*
X108420079Y-29226364D01*
X109137424Y-28509018D01*
X109223249Y-28637463D01*
X109362537Y-28776751D01*
X109490979Y-28862573D01*
X108773633Y-29579919D01*
X108886477Y-29666507D01*
X109113529Y-29797596D01*
X109355737Y-29897921D01*
X109355744Y-29897924D01*
X109608986Y-29965779D01*
X109868912Y-29999999D01*
X109868914Y-30000000D01*
X110131086Y-30000000D01*
X110131087Y-29999999D01*
X110391010Y-29965779D01*
X110391015Y-29965779D01*
X110644255Y-29897924D01*
X110644262Y-29897921D01*
X110886470Y-29797596D01*
X111113532Y-29666501D01*
X111226365Y-29579919D01*
X111226365Y-29579918D01*
X110509020Y-28862573D01*
X110637463Y-28776751D01*
X110776751Y-28637463D01*
X110862573Y-28509020D01*
X111579918Y-29226365D01*
X111579919Y-29226365D01*
X111666501Y-29113532D01*
X111797596Y-28886470D01*
X111897921Y-28644262D01*
X111897924Y-28644255D01*
X111965779Y-28391015D01*
X111965779Y-28391010D01*
X111999999Y-28131087D01*
X112000000Y-28131086D01*
X112000000Y-27868914D01*
X111999999Y-27868912D01*
X111965779Y-27608989D01*
X111965779Y-27608984D01*
X111897924Y-27355744D01*
X111897921Y-27355737D01*
X111797596Y-27113529D01*
X111666507Y-26886477D01*
X111579918Y-26773633D01*
X110862573Y-27490978D01*
X110776751Y-27362537D01*
X110637463Y-27223249D01*
X110509018Y-27137425D01*
X111226365Y-26420079D01*
X111113522Y-26333492D01*
X110886470Y-26202403D01*
X110644262Y-26102078D01*
X110644255Y-26102075D01*
X110391013Y-26034220D01*
X110131087Y-26000000D01*
X109868912Y-26000000D01*
X109608989Y-26034220D01*
X109608984Y-26034220D01*
X109355744Y-26102075D01*
X109355737Y-26102078D01*
X109113529Y-26202403D01*
X108886472Y-26333495D01*
X108773633Y-26420079D01*
X109490979Y-27137425D01*
X109362537Y-27223249D01*
X109223249Y-27362537D01*
X109137425Y-27490979D01*
X108420079Y-26773633D01*
X108333495Y-26886472D01*
X108202403Y-27113529D01*
X108102078Y-27355737D01*
X108102075Y-27355744D01*
X108034220Y-27608984D01*
X108034220Y-27608989D01*
X108000000Y-27868912D01*
X56346253Y-27868912D01*
X56462292Y-27820846D01*
X56099999Y-27458553D01*
X55737706Y-27820845D01*
X55362291Y-27820845D01*
X54999999Y-27458553D01*
X54637706Y-27820845D01*
X54262291Y-27820845D01*
X53899999Y-27458553D01*
X53537706Y-27820845D01*
X10500500Y-27820845D01*
X10500500Y-27026204D01*
X53100000Y-27026204D01*
X53100000Y-27183795D01*
X53130742Y-27338349D01*
X53184152Y-27467292D01*
X53546446Y-27104999D01*
X53516610Y-27075163D01*
X53750000Y-27075163D01*
X53750000Y-27134837D01*
X53772836Y-27189968D01*
X53815032Y-27232164D01*
X53870163Y-27255000D01*
X53929837Y-27255000D01*
X53984968Y-27232164D01*
X54027164Y-27189968D01*
X54050000Y-27134837D01*
X54050000Y-27105000D01*
X54253553Y-27105000D01*
X54449999Y-27301445D01*
X54646446Y-27104999D01*
X54616610Y-27075163D01*
X54850000Y-27075163D01*
X54850000Y-27134837D01*
X54872836Y-27189968D01*
X54915032Y-27232164D01*
X54970163Y-27255000D01*
X55029837Y-27255000D01*
X55084968Y-27232164D01*
X55127164Y-27189968D01*
X55150000Y-27134837D01*
X55150000Y-27105000D01*
X55353553Y-27105000D01*
X55549999Y-27301445D01*
X55746446Y-27104999D01*
X55716610Y-27075163D01*
X55950000Y-27075163D01*
X55950000Y-27134837D01*
X55972836Y-27189968D01*
X56015032Y-27232164D01*
X56070163Y-27255000D01*
X56129837Y-27255000D01*
X56184968Y-27232164D01*
X56227164Y-27189968D01*
X56250000Y-27134837D01*
X56250000Y-27104999D01*
X56453553Y-27104999D01*
X56815846Y-27467292D01*
X56869255Y-27338354D01*
X56869257Y-27338348D01*
X56899999Y-27183795D01*
X56900000Y-27183792D01*
X56900000Y-27026207D01*
X56899999Y-27026204D01*
X56869257Y-26871651D01*
X56869255Y-26871645D01*
X56815845Y-26742706D01*
X56453553Y-27104999D01*
X56250000Y-27104999D01*
X56250000Y-27075163D01*
X56227164Y-27020032D01*
X56184968Y-26977836D01*
X56129837Y-26955000D01*
X56070163Y-26955000D01*
X56015032Y-26977836D01*
X55972836Y-27020032D01*
X55950000Y-27075163D01*
X55716610Y-27075163D01*
X55550000Y-26908553D01*
X55353553Y-27105000D01*
X55150000Y-27105000D01*
X55150000Y-27075163D01*
X55127164Y-27020032D01*
X55084968Y-26977836D01*
X55029837Y-26955000D01*
X54970163Y-26955000D01*
X54915032Y-26977836D01*
X54872836Y-27020032D01*
X54850000Y-27075163D01*
X54616610Y-27075163D01*
X54450000Y-26908553D01*
X54253553Y-27105000D01*
X54050000Y-27105000D01*
X54050000Y-27075163D01*
X54027164Y-27020032D01*
X53984968Y-26977836D01*
X53929837Y-26955000D01*
X53870163Y-26955000D01*
X53815032Y-26977836D01*
X53772836Y-27020032D01*
X53750000Y-27075163D01*
X53516610Y-27075163D01*
X53184153Y-26742706D01*
X53184152Y-26742706D01*
X53130743Y-26871647D01*
X53130743Y-26871649D01*
X53100000Y-27026204D01*
X10500500Y-27026204D01*
X10500500Y-26555000D01*
X53703553Y-26555000D01*
X53899999Y-26751445D01*
X54096445Y-26555000D01*
X54803553Y-26555000D01*
X54999999Y-26751445D01*
X55196445Y-26555000D01*
X55903553Y-26555000D01*
X56099999Y-26751445D01*
X56296446Y-26554999D01*
X56100000Y-26358553D01*
X55903553Y-26555000D01*
X55196445Y-26555000D01*
X55196446Y-26554999D01*
X55000000Y-26358553D01*
X54803553Y-26555000D01*
X54096445Y-26555000D01*
X54096446Y-26554999D01*
X53900000Y-26358553D01*
X53703553Y-26555000D01*
X10500500Y-26555000D01*
X10500500Y-25926204D01*
X53100000Y-25926204D01*
X53100000Y-26083795D01*
X53130742Y-26238349D01*
X53184152Y-26367292D01*
X53546446Y-26004999D01*
X53516610Y-25975163D01*
X53750000Y-25975163D01*
X53750000Y-26034837D01*
X53772836Y-26089968D01*
X53815032Y-26132164D01*
X53870163Y-26155000D01*
X53929837Y-26155000D01*
X53984968Y-26132164D01*
X54027164Y-26089968D01*
X54050000Y-26034837D01*
X54050000Y-26005000D01*
X54253553Y-26005000D01*
X54449999Y-26201445D01*
X54646446Y-26004999D01*
X54616610Y-25975163D01*
X54850000Y-25975163D01*
X54850000Y-26034837D01*
X54872836Y-26089968D01*
X54915032Y-26132164D01*
X54970163Y-26155000D01*
X55029837Y-26155000D01*
X55084968Y-26132164D01*
X55127164Y-26089968D01*
X55150000Y-26034837D01*
X55150000Y-26005000D01*
X55353553Y-26005000D01*
X55549999Y-26201445D01*
X55746446Y-26004999D01*
X55716610Y-25975163D01*
X55950000Y-25975163D01*
X55950000Y-26034837D01*
X55972836Y-26089968D01*
X56015032Y-26132164D01*
X56070163Y-26155000D01*
X56129837Y-26155000D01*
X56184968Y-26132164D01*
X56227164Y-26089968D01*
X56250000Y-26034837D01*
X56250000Y-26004999D01*
X56453553Y-26004999D01*
X56815846Y-26367292D01*
X56838532Y-26312525D01*
X64451200Y-26312525D01*
X64451200Y-26457474D01*
X64488717Y-26597489D01*
X64561187Y-26723010D01*
X64561189Y-26723012D01*
X64561191Y-26723015D01*
X64663685Y-26825509D01*
X64663687Y-26825510D01*
X64663689Y-26825512D01*
X64789211Y-26897982D01*
X64789212Y-26897982D01*
X64789215Y-26897984D01*
X64929225Y-26935500D01*
X64929226Y-26935500D01*
X65074174Y-26935500D01*
X65074175Y-26935500D01*
X65214185Y-26897984D01*
X65214187Y-26897982D01*
X65214189Y-26897982D01*
X65339710Y-26825512D01*
X65339710Y-26825511D01*
X65339715Y-26825509D01*
X65442209Y-26723015D01*
X65514684Y-26597485D01*
X65552200Y-26457475D01*
X65552200Y-26312525D01*
X65514684Y-26172515D01*
X65514682Y-26172512D01*
X65514682Y-26172510D01*
X65442212Y-26046989D01*
X65442210Y-26046987D01*
X65442209Y-26046985D01*
X65339715Y-25944491D01*
X65339712Y-25944489D01*
X65339710Y-25944487D01*
X65214188Y-25872017D01*
X65214189Y-25872017D01*
X65150681Y-25855000D01*
X65074175Y-25834500D01*
X64929225Y-25834500D01*
X64867490Y-25851041D01*
X64789210Y-25872017D01*
X64663689Y-25944487D01*
X64561187Y-26046989D01*
X64488717Y-26172510D01*
X64451200Y-26312525D01*
X56838532Y-26312525D01*
X56856913Y-26268150D01*
X56856914Y-26268148D01*
X56869254Y-26238358D01*
X56869257Y-26238348D01*
X56899999Y-26083795D01*
X56900000Y-26083792D01*
X56900000Y-25926207D01*
X56899999Y-25926204D01*
X56869257Y-25771651D01*
X56869255Y-25771645D01*
X56815845Y-25642706D01*
X56453553Y-26004999D01*
X56250000Y-26004999D01*
X56250000Y-25975163D01*
X56227164Y-25920032D01*
X56184968Y-25877836D01*
X56129837Y-25855000D01*
X56070163Y-25855000D01*
X56015032Y-25877836D01*
X55972836Y-25920032D01*
X55950000Y-25975163D01*
X55716610Y-25975163D01*
X55550000Y-25808553D01*
X55353553Y-26005000D01*
X55150000Y-26005000D01*
X55150000Y-25975163D01*
X55127164Y-25920032D01*
X55084968Y-25877836D01*
X55029837Y-25855000D01*
X54970163Y-25855000D01*
X54915032Y-25877836D01*
X54872836Y-25920032D01*
X54850000Y-25975163D01*
X54616610Y-25975163D01*
X54450000Y-25808553D01*
X54253553Y-26005000D01*
X54050000Y-26005000D01*
X54050000Y-25975163D01*
X54027164Y-25920032D01*
X53984968Y-25877836D01*
X53929837Y-25855000D01*
X53870163Y-25855000D01*
X53815032Y-25877836D01*
X53772836Y-25920032D01*
X53750000Y-25975163D01*
X53516610Y-25975163D01*
X53184153Y-25642706D01*
X53184152Y-25642706D01*
X53130743Y-25771647D01*
X53130743Y-25771649D01*
X53100000Y-25926204D01*
X10500500Y-25926204D01*
X10500500Y-25042525D01*
X46952000Y-25042525D01*
X46952000Y-25187474D01*
X46989517Y-25327489D01*
X47061987Y-25453010D01*
X47061989Y-25453012D01*
X47061991Y-25453015D01*
X47164485Y-25555509D01*
X47164487Y-25555510D01*
X47164489Y-25555512D01*
X47290011Y-25627982D01*
X47290012Y-25627982D01*
X47290015Y-25627984D01*
X47430025Y-25665500D01*
X47430026Y-25665500D01*
X47574974Y-25665500D01*
X47574975Y-25665500D01*
X47714985Y-25627984D01*
X47714987Y-25627982D01*
X47714989Y-25627982D01*
X47840510Y-25555512D01*
X47840510Y-25555511D01*
X47840515Y-25555509D01*
X47941024Y-25455000D01*
X53703553Y-25455000D01*
X53899999Y-25651445D01*
X54096445Y-25455000D01*
X54803553Y-25455000D01*
X54999999Y-25651445D01*
X55196445Y-25455000D01*
X55903553Y-25455000D01*
X56099999Y-25651445D01*
X56296446Y-25454999D01*
X56100000Y-25258553D01*
X55903553Y-25455000D01*
X55196445Y-25455000D01*
X55196446Y-25454999D01*
X55000000Y-25258553D01*
X54803553Y-25455000D01*
X54096445Y-25455000D01*
X54096446Y-25454999D01*
X53900000Y-25258553D01*
X53703553Y-25455000D01*
X47941024Y-25455000D01*
X47943009Y-25453015D01*
X47943012Y-25453010D01*
X47994118Y-25364493D01*
X48015482Y-25327489D01*
X48015482Y-25327487D01*
X48015484Y-25327485D01*
X48053000Y-25187475D01*
X48053000Y-25042525D01*
X48015484Y-24902515D01*
X48015481Y-24902510D01*
X47997199Y-24870843D01*
X47997198Y-24870841D01*
X47971427Y-24826204D01*
X53100000Y-24826204D01*
X53100000Y-24983795D01*
X53130742Y-25138349D01*
X53184152Y-25267292D01*
X53546446Y-24904999D01*
X53516610Y-24875163D01*
X53750000Y-24875163D01*
X53750000Y-24934837D01*
X53772836Y-24989968D01*
X53815032Y-25032164D01*
X53870163Y-25055000D01*
X53929837Y-25055000D01*
X53984968Y-25032164D01*
X54027164Y-24989968D01*
X54050000Y-24934837D01*
X54050000Y-24905000D01*
X54253553Y-24905000D01*
X54449999Y-25101445D01*
X54646446Y-24904999D01*
X54616610Y-24875163D01*
X54850000Y-24875163D01*
X54850000Y-24934837D01*
X54872836Y-24989968D01*
X54915032Y-25032164D01*
X54970163Y-25055000D01*
X55029837Y-25055000D01*
X55084968Y-25032164D01*
X55127164Y-24989968D01*
X55150000Y-24934837D01*
X55150000Y-24905000D01*
X55353553Y-24905000D01*
X55549999Y-25101445D01*
X55746446Y-24904999D01*
X55716610Y-24875163D01*
X55950000Y-24875163D01*
X55950000Y-24934837D01*
X55972836Y-24989968D01*
X56015032Y-25032164D01*
X56070163Y-25055000D01*
X56129837Y-25055000D01*
X56184968Y-25032164D01*
X56227164Y-24989968D01*
X56250000Y-24934837D01*
X56250000Y-24904999D01*
X56453553Y-24904999D01*
X56815846Y-25267292D01*
X56869255Y-25138354D01*
X56869257Y-25138348D01*
X56899999Y-24983795D01*
X56900000Y-24983792D01*
X56900000Y-24826207D01*
X56899999Y-24826204D01*
X56869257Y-24671651D01*
X56869255Y-24671645D01*
X56815845Y-24542706D01*
X56453553Y-24904999D01*
X56250000Y-24904999D01*
X56250000Y-24875163D01*
X56227164Y-24820032D01*
X56184968Y-24777836D01*
X56129837Y-24755000D01*
X56070163Y-24755000D01*
X56015032Y-24777836D01*
X55972836Y-24820032D01*
X55950000Y-24875163D01*
X55716610Y-24875163D01*
X55550000Y-24708553D01*
X55353553Y-24905000D01*
X55150000Y-24905000D01*
X55150000Y-24875163D01*
X55127164Y-24820032D01*
X55084968Y-24777836D01*
X55029837Y-24755000D01*
X54970163Y-24755000D01*
X54915032Y-24777836D01*
X54872836Y-24820032D01*
X54850000Y-24875163D01*
X54616610Y-24875163D01*
X54450000Y-24708553D01*
X54253553Y-24905000D01*
X54050000Y-24905000D01*
X54050000Y-24875163D01*
X54027164Y-24820032D01*
X53984968Y-24777836D01*
X53929837Y-24755000D01*
X53870163Y-24755000D01*
X53815032Y-24777836D01*
X53772836Y-24820032D01*
X53750000Y-24875163D01*
X53516610Y-24875163D01*
X53184153Y-24542706D01*
X53184152Y-24542706D01*
X53130743Y-24671647D01*
X53130743Y-24671649D01*
X53100000Y-24826204D01*
X47971427Y-24826204D01*
X47943012Y-24776989D01*
X47943010Y-24776987D01*
X47943009Y-24776985D01*
X47840515Y-24674491D01*
X47840512Y-24674489D01*
X47840510Y-24674487D01*
X47714990Y-24602018D01*
X47714987Y-24602017D01*
X47714985Y-24602016D01*
X47617296Y-24575840D01*
X47565984Y-24542516D01*
X47544058Y-24485395D01*
X47559894Y-24426294D01*
X47607444Y-24387789D01*
X47617283Y-24384592D01*
X47716585Y-24357984D01*
X47716587Y-24357982D01*
X47716589Y-24357982D01*
X47842110Y-24285512D01*
X47842110Y-24285511D01*
X47842115Y-24285509D01*
X47872622Y-24255002D01*
X47903129Y-24224496D01*
X47957646Y-24196719D01*
X47973132Y-24195500D01*
X53503046Y-24195500D01*
X53561237Y-24214407D01*
X53573049Y-24224496D01*
X53900000Y-24551446D01*
X54226951Y-24224496D01*
X54281467Y-24196719D01*
X54296954Y-24195500D01*
X54603046Y-24195500D01*
X54661237Y-24214407D01*
X54673049Y-24224496D01*
X55000000Y-24551446D01*
X55326951Y-24224496D01*
X55381467Y-24196719D01*
X55396954Y-24195500D01*
X55703046Y-24195500D01*
X55761237Y-24214407D01*
X55773049Y-24224496D01*
X56100000Y-24551446D01*
X56426951Y-24224496D01*
X56481467Y-24196719D01*
X56496954Y-24195500D01*
X98026142Y-24195500D01*
X98026144Y-24195500D01*
X98115288Y-24171614D01*
X98125912Y-24165480D01*
X98195212Y-24125470D01*
X100651957Y-21668725D01*
X104015700Y-21668725D01*
X104015700Y-21813675D01*
X104038646Y-21899310D01*
X104053217Y-21953689D01*
X104125687Y-22079210D01*
X104125689Y-22079212D01*
X104125691Y-22079215D01*
X104228185Y-22181709D01*
X104228187Y-22181710D01*
X104228189Y-22181712D01*
X104353711Y-22254182D01*
X104353712Y-22254182D01*
X104353715Y-22254184D01*
X104493725Y-22291700D01*
X104493726Y-22291700D01*
X104638674Y-22291700D01*
X104638675Y-22291700D01*
X104778685Y-22254184D01*
X104778687Y-22254182D01*
X104778689Y-22254182D01*
X104904210Y-22181712D01*
X104904210Y-22181711D01*
X104904215Y-22181709D01*
X105006709Y-22079215D01*
X105016639Y-22062016D01*
X105079182Y-21953689D01*
X105079182Y-21953687D01*
X105079184Y-21953685D01*
X105116700Y-21813675D01*
X105116700Y-21668725D01*
X105079184Y-21528715D01*
X105079182Y-21528712D01*
X105079182Y-21528710D01*
X105056154Y-21488825D01*
X110663200Y-21488825D01*
X110663200Y-21633774D01*
X110700717Y-21773789D01*
X110773187Y-21899310D01*
X110773189Y-21899312D01*
X110773191Y-21899315D01*
X110875685Y-22001809D01*
X110875687Y-22001810D01*
X110875689Y-22001812D01*
X111001211Y-22074282D01*
X111001212Y-22074282D01*
X111001215Y-22074284D01*
X111141225Y-22111800D01*
X111141226Y-22111800D01*
X111286174Y-22111800D01*
X111286175Y-22111800D01*
X111426185Y-22074284D01*
X111426187Y-22074282D01*
X111426189Y-22074282D01*
X111551710Y-22001812D01*
X111551710Y-22001811D01*
X111551715Y-22001809D01*
X111654209Y-21899315D01*
X111684081Y-21847575D01*
X111726682Y-21773789D01*
X111726682Y-21773787D01*
X111726684Y-21773785D01*
X111764200Y-21633775D01*
X111764200Y-21488825D01*
X111726684Y-21348815D01*
X111726682Y-21348812D01*
X111726682Y-21348810D01*
X111654212Y-21223289D01*
X111654210Y-21223287D01*
X111654209Y-21223285D01*
X111551715Y-21120791D01*
X111551712Y-21120789D01*
X111551710Y-21120787D01*
X111426188Y-21048317D01*
X111426189Y-21048317D01*
X111396596Y-21040387D01*
X111286175Y-21010800D01*
X111141225Y-21010800D01*
X111079490Y-21027341D01*
X111001210Y-21048317D01*
X110875689Y-21120787D01*
X110773187Y-21223289D01*
X110700717Y-21348810D01*
X110663200Y-21488825D01*
X105056154Y-21488825D01*
X105006712Y-21403189D01*
X105006710Y-21403187D01*
X105006709Y-21403185D01*
X104904215Y-21300691D01*
X104904212Y-21300689D01*
X104904210Y-21300687D01*
X104778688Y-21228217D01*
X104778689Y-21228217D01*
X104749096Y-21220287D01*
X104638675Y-21190700D01*
X104493725Y-21190700D01*
X104431990Y-21207241D01*
X104353710Y-21228217D01*
X104228189Y-21300687D01*
X104125687Y-21403189D01*
X104053217Y-21528710D01*
X104053216Y-21528715D01*
X104015700Y-21668725D01*
X100651957Y-21668725D01*
X102784752Y-19535930D01*
X105549500Y-19535930D01*
X105549500Y-19664069D01*
X105574499Y-19789742D01*
X105574500Y-19789747D01*
X105623534Y-19908125D01*
X105623538Y-19908133D01*
X105666365Y-19972226D01*
X105694724Y-20014669D01*
X105785331Y-20105276D01*
X105785334Y-20105278D01*
X105803903Y-20117686D01*
X105841782Y-20165737D01*
X105844182Y-20226875D01*
X105810188Y-20277748D01*
X105803903Y-20282314D01*
X105785334Y-20294721D01*
X105785327Y-20294727D01*
X105694727Y-20385327D01*
X105694724Y-20385331D01*
X105623538Y-20491866D01*
X105623534Y-20491874D01*
X105574500Y-20610252D01*
X105574499Y-20610257D01*
X105549500Y-20735930D01*
X105549500Y-20864069D01*
X105574499Y-20989742D01*
X105574500Y-20989747D01*
X105623534Y-21108125D01*
X105623538Y-21108133D01*
X105666365Y-21172226D01*
X105694724Y-21214669D01*
X105785331Y-21305276D01*
X105848848Y-21347717D01*
X105891866Y-21376461D01*
X105891870Y-21376463D01*
X105891873Y-21376465D01*
X106010256Y-21425501D01*
X106135931Y-21450500D01*
X106135932Y-21450500D01*
X106264068Y-21450500D01*
X106264069Y-21450500D01*
X106389744Y-21425501D01*
X106508127Y-21376465D01*
X106614669Y-21305276D01*
X106705276Y-21214669D01*
X106776465Y-21108127D01*
X106825501Y-20989744D01*
X106850500Y-20864069D01*
X106850500Y-20735931D01*
X106825501Y-20610256D01*
X106776465Y-20491873D01*
X106776463Y-20491870D01*
X106776461Y-20491866D01*
X106747717Y-20448848D01*
X106705276Y-20385331D01*
X106614669Y-20294724D01*
X106614667Y-20294722D01*
X106605825Y-20288814D01*
X106596096Y-20282314D01*
X106558218Y-20234267D01*
X106555814Y-20173129D01*
X106589806Y-20122255D01*
X106596085Y-20117693D01*
X106614669Y-20105276D01*
X106705276Y-20014669D01*
X106776465Y-19908127D01*
X106825501Y-19789744D01*
X106850500Y-19664069D01*
X106850500Y-19535931D01*
X106825501Y-19410256D01*
X106776465Y-19291873D01*
X106776463Y-19291870D01*
X106776461Y-19291866D01*
X106718758Y-19205509D01*
X106705276Y-19185331D01*
X106614669Y-19094724D01*
X106572226Y-19066365D01*
X106508133Y-19023538D01*
X106508125Y-19023534D01*
X106389747Y-18974500D01*
X106389745Y-18974499D01*
X106389744Y-18974499D01*
X106264069Y-18949500D01*
X106135931Y-18949500D01*
X106135930Y-18949500D01*
X106073093Y-18961999D01*
X106010256Y-18974499D01*
X106010255Y-18974499D01*
X106010252Y-18974500D01*
X105891874Y-19023534D01*
X105891866Y-19023538D01*
X105785331Y-19094724D01*
X105785327Y-19094727D01*
X105694727Y-19185327D01*
X105694724Y-19185331D01*
X105623538Y-19291866D01*
X105623534Y-19291874D01*
X105574500Y-19410252D01*
X105574499Y-19410257D01*
X105549500Y-19535930D01*
X102784752Y-19535930D01*
X104479486Y-17841196D01*
X104534003Y-17813419D01*
X104549490Y-17812200D01*
X104635774Y-17812200D01*
X104635775Y-17812200D01*
X104775785Y-17774684D01*
X104775787Y-17774682D01*
X104775789Y-17774682D01*
X104901310Y-17702212D01*
X104901310Y-17702211D01*
X104901315Y-17702209D01*
X105003809Y-17599715D01*
X105076284Y-17474185D01*
X105113800Y-17334175D01*
X105113800Y-17189225D01*
X105076284Y-17049215D01*
X105076282Y-17049212D01*
X105076282Y-17049210D01*
X105003812Y-16923689D01*
X105003810Y-16923687D01*
X105003809Y-16923685D01*
X104901315Y-16821191D01*
X104901312Y-16821189D01*
X104901310Y-16821187D01*
X104775788Y-16748717D01*
X104775789Y-16748717D01*
X104746196Y-16740787D01*
X104635775Y-16711200D01*
X104490825Y-16711200D01*
X104429090Y-16727741D01*
X104350810Y-16748717D01*
X104225289Y-16821187D01*
X104122787Y-16923689D01*
X104050317Y-17049210D01*
X104012800Y-17189225D01*
X104012800Y-17275510D01*
X103993893Y-17333701D01*
X103983804Y-17345514D01*
X97863814Y-23465504D01*
X97809297Y-23493281D01*
X97793810Y-23494500D01*
X47973132Y-23494500D01*
X47914941Y-23475593D01*
X47903129Y-23465504D01*
X47842115Y-23404491D01*
X47842110Y-23404487D01*
X47716588Y-23332017D01*
X47716589Y-23332017D01*
X47705199Y-23328965D01*
X47618097Y-23305626D01*
X47566784Y-23272303D01*
X47544858Y-23215181D01*
X47560694Y-23156081D01*
X47608244Y-23117575D01*
X47618089Y-23114376D01*
X47716585Y-23087984D01*
X47716587Y-23087982D01*
X47716589Y-23087982D01*
X47842110Y-23015512D01*
X47842110Y-23015511D01*
X47842115Y-23015509D01*
X47944609Y-22913015D01*
X48017084Y-22787485D01*
X48054600Y-22647475D01*
X48054600Y-22502525D01*
X64452000Y-22502525D01*
X64452000Y-22647474D01*
X64489517Y-22787489D01*
X64561987Y-22913010D01*
X64561989Y-22913012D01*
X64561991Y-22913015D01*
X64664485Y-23015509D01*
X64664487Y-23015510D01*
X64664489Y-23015512D01*
X64790011Y-23087982D01*
X64790012Y-23087982D01*
X64790015Y-23087984D01*
X64930025Y-23125500D01*
X64930026Y-23125500D01*
X65074974Y-23125500D01*
X65074975Y-23125500D01*
X65214985Y-23087984D01*
X65214987Y-23087982D01*
X65214989Y-23087982D01*
X65340510Y-23015512D01*
X65340510Y-23015511D01*
X65340515Y-23015509D01*
X65443009Y-22913015D01*
X65515484Y-22787485D01*
X65553000Y-22647475D01*
X65553000Y-22502525D01*
X65515484Y-22362515D01*
X65515482Y-22362512D01*
X65515482Y-22362510D01*
X65443012Y-22236989D01*
X65443010Y-22236987D01*
X65443009Y-22236985D01*
X65340515Y-22134491D01*
X65340512Y-22134489D01*
X65340510Y-22134487D01*
X65214990Y-22062018D01*
X65214987Y-22062017D01*
X65214985Y-22062016D01*
X65117296Y-22035840D01*
X65065984Y-22002516D01*
X65044058Y-21945395D01*
X65059894Y-21886294D01*
X65107444Y-21847789D01*
X65117283Y-21844592D01*
X65216585Y-21817984D01*
X65216587Y-21817982D01*
X65216589Y-21817982D01*
X65342110Y-21745512D01*
X65342110Y-21745511D01*
X65342115Y-21745509D01*
X65444609Y-21643015D01*
X65473929Y-21592232D01*
X65517082Y-21517489D01*
X65517082Y-21517487D01*
X65517084Y-21517485D01*
X65554600Y-21377475D01*
X65554600Y-21232525D01*
X65517084Y-21092515D01*
X65517082Y-21092512D01*
X65517082Y-21092510D01*
X65444612Y-20966989D01*
X65444610Y-20966987D01*
X65444609Y-20966985D01*
X65342115Y-20864491D01*
X65342112Y-20864489D01*
X65342110Y-20864487D01*
X65216588Y-20792017D01*
X65216589Y-20792017D01*
X65149222Y-20773966D01*
X65076575Y-20754500D01*
X64931625Y-20754500D01*
X64869890Y-20771041D01*
X64791610Y-20792017D01*
X64666089Y-20864487D01*
X64563587Y-20966989D01*
X64491117Y-21092510D01*
X64486931Y-21108133D01*
X64453600Y-21232525D01*
X64453600Y-21377475D01*
X64466469Y-21425501D01*
X64491117Y-21517489D01*
X64563587Y-21643010D01*
X64563589Y-21643012D01*
X64563591Y-21643015D01*
X64666085Y-21745509D01*
X64666087Y-21745510D01*
X64666089Y-21745512D01*
X64791611Y-21817982D01*
X64791609Y-21817982D01*
X64791613Y-21817983D01*
X64791615Y-21817984D01*
X64889302Y-21844159D01*
X64940614Y-21877482D01*
X64962541Y-21934604D01*
X64946705Y-21993704D01*
X64899156Y-22032209D01*
X64889301Y-22035411D01*
X64790015Y-22062015D01*
X64790011Y-22062017D01*
X64664489Y-22134487D01*
X64561987Y-22236989D01*
X64489517Y-22362510D01*
X64452000Y-22502525D01*
X48054600Y-22502525D01*
X48017084Y-22362515D01*
X48017082Y-22362512D01*
X48017082Y-22362510D01*
X47944612Y-22236989D01*
X47944610Y-22236987D01*
X47944609Y-22236985D01*
X47842115Y-22134491D01*
X47842112Y-22134489D01*
X47842110Y-22134487D01*
X47716588Y-22062017D01*
X47716589Y-22062017D01*
X47705199Y-22058965D01*
X47618097Y-22035626D01*
X47566784Y-22002303D01*
X47544858Y-21945181D01*
X47560694Y-21886081D01*
X47608244Y-21847575D01*
X47618089Y-21844376D01*
X47716585Y-21817984D01*
X47716587Y-21817982D01*
X47716589Y-21817982D01*
X47842110Y-21745512D01*
X47842110Y-21745511D01*
X47842115Y-21745509D01*
X47944609Y-21643015D01*
X47973929Y-21592232D01*
X48017082Y-21517489D01*
X48017082Y-21517487D01*
X48017084Y-21517485D01*
X48054600Y-21377475D01*
X48054600Y-21232525D01*
X48017084Y-21092515D01*
X48017082Y-21092512D01*
X48017082Y-21092510D01*
X47944612Y-20966989D01*
X47944610Y-20966987D01*
X47944609Y-20966985D01*
X47842115Y-20864491D01*
X47764076Y-20819435D01*
X47723136Y-20773966D01*
X47716740Y-20713116D01*
X47747333Y-20660128D01*
X47764073Y-20647964D01*
X47846615Y-20600309D01*
X47949109Y-20497815D01*
X48021584Y-20372285D01*
X48059100Y-20232275D01*
X48059100Y-20087325D01*
X48021584Y-19947315D01*
X48021582Y-19947312D01*
X48021582Y-19947310D01*
X47949112Y-19821789D01*
X47949110Y-19821787D01*
X47949109Y-19821785D01*
X47846615Y-19719291D01*
X47846612Y-19719289D01*
X47846610Y-19719287D01*
X47721088Y-19646817D01*
X47721089Y-19646817D01*
X47691496Y-19638887D01*
X47581075Y-19609300D01*
X47436125Y-19609300D01*
X47374390Y-19625841D01*
X47296110Y-19646817D01*
X47170589Y-19719287D01*
X47068087Y-19821789D01*
X46995617Y-19947310D01*
X46958100Y-20087325D01*
X46958100Y-20232274D01*
X46995617Y-20372289D01*
X47068087Y-20497810D01*
X47068089Y-20497812D01*
X47068091Y-20497815D01*
X47170585Y-20600309D01*
X47248623Y-20645364D01*
X47289563Y-20690833D01*
X47295959Y-20751683D01*
X47265366Y-20804671D01*
X47248623Y-20816836D01*
X47166087Y-20864489D01*
X47063587Y-20966989D01*
X46991117Y-21092510D01*
X46986931Y-21108133D01*
X46953600Y-21232525D01*
X46953600Y-21377475D01*
X46966469Y-21425501D01*
X46991117Y-21517489D01*
X47063587Y-21643010D01*
X47063589Y-21643012D01*
X47063591Y-21643015D01*
X47166085Y-21745509D01*
X47166087Y-21745510D01*
X47166089Y-21745512D01*
X47291609Y-21817981D01*
X47291610Y-21817981D01*
X47291615Y-21817984D01*
X47390102Y-21844373D01*
X47441415Y-21877698D01*
X47463341Y-21934819D01*
X47447505Y-21993920D01*
X47399955Y-22032425D01*
X47390110Y-22035623D01*
X47291615Y-22062016D01*
X47291613Y-22062016D01*
X47291609Y-22062018D01*
X47166089Y-22134487D01*
X47063587Y-22236989D01*
X46991117Y-22362510D01*
X46953600Y-22502525D01*
X46953600Y-22647474D01*
X46991117Y-22787489D01*
X47063587Y-22913010D01*
X47063589Y-22913012D01*
X47063591Y-22913015D01*
X47166085Y-23015509D01*
X47166087Y-23015510D01*
X47166089Y-23015512D01*
X47291609Y-23087981D01*
X47291610Y-23087981D01*
X47291615Y-23087984D01*
X47390102Y-23114373D01*
X47441415Y-23147698D01*
X47463341Y-23204819D01*
X47447505Y-23263920D01*
X47399955Y-23302425D01*
X47390110Y-23305623D01*
X47291615Y-23332016D01*
X47291613Y-23332016D01*
X47291609Y-23332018D01*
X47166089Y-23404487D01*
X47063587Y-23506989D01*
X46991117Y-23632510D01*
X46953600Y-23772525D01*
X46953600Y-23917474D01*
X46991117Y-24057489D01*
X47063587Y-24183010D01*
X47063589Y-24183012D01*
X47063591Y-24183015D01*
X47166085Y-24285509D01*
X47166087Y-24285510D01*
X47166089Y-24285512D01*
X47291611Y-24357982D01*
X47291609Y-24357982D01*
X47291613Y-24357983D01*
X47291615Y-24357984D01*
X47389302Y-24384159D01*
X47440614Y-24417482D01*
X47462541Y-24474604D01*
X47446705Y-24533704D01*
X47399156Y-24572209D01*
X47389301Y-24575411D01*
X47290015Y-24602015D01*
X47290011Y-24602017D01*
X47164489Y-24674487D01*
X47061987Y-24776989D01*
X46989517Y-24902510D01*
X46952000Y-25042525D01*
X10500500Y-25042525D01*
X10500500Y-18692525D01*
X44445400Y-18692525D01*
X44445400Y-18837474D01*
X44482917Y-18977489D01*
X44555387Y-19103010D01*
X44555389Y-19103012D01*
X44555391Y-19103015D01*
X44657885Y-19205509D01*
X44657887Y-19205510D01*
X44657889Y-19205512D01*
X44783411Y-19277982D01*
X44783412Y-19277982D01*
X44783415Y-19277984D01*
X44923425Y-19315500D01*
X44923426Y-19315500D01*
X45068374Y-19315500D01*
X45068375Y-19315500D01*
X45208385Y-19277984D01*
X45208387Y-19277982D01*
X45208389Y-19277982D01*
X45333910Y-19205512D01*
X45333910Y-19205511D01*
X45333915Y-19205509D01*
X45436409Y-19103015D01*
X45508884Y-18977485D01*
X45546400Y-18837475D01*
X45546400Y-18692525D01*
X64453600Y-18692525D01*
X64453600Y-18837474D01*
X64491117Y-18977489D01*
X64563587Y-19103010D01*
X64563589Y-19103012D01*
X64563591Y-19103015D01*
X64666085Y-19205509D01*
X64666087Y-19205510D01*
X64666089Y-19205512D01*
X64791611Y-19277982D01*
X64791612Y-19277982D01*
X64791615Y-19277984D01*
X64931625Y-19315500D01*
X64931626Y-19315500D01*
X65076574Y-19315500D01*
X65076575Y-19315500D01*
X65216585Y-19277984D01*
X65216587Y-19277982D01*
X65216589Y-19277982D01*
X65342110Y-19205512D01*
X65342110Y-19205511D01*
X65342115Y-19205509D01*
X65444609Y-19103015D01*
X65517084Y-18977485D01*
X65554600Y-18837475D01*
X65554600Y-18692525D01*
X65517084Y-18552515D01*
X65517082Y-18552512D01*
X65517082Y-18552510D01*
X65444612Y-18426989D01*
X65444610Y-18426987D01*
X65444609Y-18426985D01*
X65342115Y-18324491D01*
X65342112Y-18324489D01*
X65342110Y-18324487D01*
X65216588Y-18252017D01*
X65216589Y-18252017D01*
X65186996Y-18244087D01*
X65076575Y-18214500D01*
X64931625Y-18214500D01*
X64869890Y-18231041D01*
X64791610Y-18252017D01*
X64666089Y-18324487D01*
X64563587Y-18426989D01*
X64491117Y-18552510D01*
X64453600Y-18692525D01*
X45546400Y-18692525D01*
X45508884Y-18552515D01*
X45508882Y-18552512D01*
X45508882Y-18552510D01*
X45436412Y-18426989D01*
X45436410Y-18426987D01*
X45436409Y-18426985D01*
X45333915Y-18324491D01*
X45333912Y-18324489D01*
X45333910Y-18324487D01*
X45208388Y-18252017D01*
X45208389Y-18252017D01*
X45178796Y-18244087D01*
X45068375Y-18214500D01*
X44923425Y-18214500D01*
X44861690Y-18231041D01*
X44783410Y-18252017D01*
X44657889Y-18324487D01*
X44555387Y-18426989D01*
X44482917Y-18552510D01*
X44445400Y-18692525D01*
X10500500Y-18692525D01*
X10500500Y-13878710D01*
X12149500Y-13878710D01*
X12149500Y-14121289D01*
X12181161Y-14361781D01*
X12181161Y-14361786D01*
X12243944Y-14596092D01*
X12243948Y-14596105D01*
X12336772Y-14820204D01*
X12336774Y-14820208D01*
X12336776Y-14820212D01*
X12458064Y-15030289D01*
X12458066Y-15030292D01*
X12605729Y-15222731D01*
X12605731Y-15222733D01*
X12605735Y-15222738D01*
X12777262Y-15394265D01*
X12777266Y-15394268D01*
X12777268Y-15394270D01*
X12969707Y-15541933D01*
X12969711Y-15541936D01*
X13179788Y-15663224D01*
X13403900Y-15756054D01*
X13638211Y-15818838D01*
X13878712Y-15850500D01*
X13878713Y-15850500D01*
X14121287Y-15850500D01*
X14121288Y-15850500D01*
X14361789Y-15818838D01*
X14596100Y-15756054D01*
X14820212Y-15663224D01*
X15030289Y-15541936D01*
X15222738Y-15394265D01*
X15394265Y-15222738D01*
X15541936Y-15030289D01*
X15663224Y-14820212D01*
X15756054Y-14596100D01*
X15818838Y-14361789D01*
X15850500Y-14121288D01*
X15850500Y-13878712D01*
X15818838Y-13638211D01*
X15756054Y-13403900D01*
X15663224Y-13179788D01*
X15541936Y-12969711D01*
X15394265Y-12777262D01*
X15222738Y-12605735D01*
X15222733Y-12605731D01*
X15222731Y-12605729D01*
X15030292Y-12458066D01*
X15030289Y-12458064D01*
X14820212Y-12336776D01*
X14820208Y-12336774D01*
X14820204Y-12336772D01*
X14596105Y-12243948D01*
X14596104Y-12243947D01*
X14596100Y-12243946D01*
X14361789Y-12181162D01*
X14361786Y-12181161D01*
X14361784Y-12181161D01*
X14121289Y-12149500D01*
X14121288Y-12149500D01*
X13878712Y-12149500D01*
X13878710Y-12149500D01*
X13638218Y-12181161D01*
X13638213Y-12181161D01*
X13403907Y-12243944D01*
X13403894Y-12243948D01*
X13179795Y-12336772D01*
X12969707Y-12458066D01*
X12777268Y-12605729D01*
X12605729Y-12777268D01*
X12458066Y-12969707D01*
X12336772Y-13179795D01*
X12243948Y-13403894D01*
X12243944Y-13403907D01*
X12181161Y-13638213D01*
X12181161Y-13638218D01*
X12149500Y-13878710D01*
X10500500Y-13878710D01*
X10500500Y-10599500D01*
X10519407Y-10541309D01*
X10568907Y-10505345D01*
X10599500Y-10500500D01*
X45601000Y-10500500D01*
X45659191Y-10519407D01*
G37*
%TD.AperFunction*%
%TD*%
M02*
