M48
; DRILL file KiCad 10.0.5 date 2026-08-07T19:43:01
; FORMAT={-:-/ absolute / metric / decimal}
; #@! TF.CreationDate,2026-08-07T19:43:01+02:00
; #@! TF.GenerationSoftware,Kicad,Pcbnew,10.0.5
; #@! TF.FileFunction,Plated,1,4,PTH
FMAT,2
METRIC
; #@! TA.AperFunction,Plated,PTH,ViaDrill
T1C0.300
; #@! TA.AperFunction,Plated,PTH,ComponentDrill
T2C0.300
; #@! TA.AperFunction,Plated,PTH,ViaDrill
T3C0.400
; #@! TA.AperFunction,Plated,PTH,ComponentDrill
T4C0.600
; #@! TA.AperFunction,Plated,PTH,ComponentDrill
T5C0.750
; #@! TA.AperFunction,Plated,PTH,ComponentDrill
T6C1.200
; #@! TA.AperFunction,Plated,PTH,ComponentDrill
T7C2.000
%
G90
G05
T1
X25.788Y-64.925
X36.327Y-75.712
X37.773Y-67.773
X41.173Y-53.0
X44.996Y-18.765
X46.96Y-71.09
X46.993Y-52.312
X47.102Y-67.707
X47.502Y-25.115
X47.504Y-21.305
X47.504Y-22.575
X47.504Y-23.845
X47.504Y-32.735
X47.504Y-34.005
X47.509Y-20.16
X47.523Y-17.716
X47.532Y-28.912
X48.99Y-58.162
X50.736Y-55.439
X53.003Y-64.365
X53.225Y-59.001
X53.98Y-66.305
X54.175Y-72.007
X54.464Y-77.005
X55.363Y-71.999
X60.369Y-76.369
X63.282Y-65.0
X64.173Y-42.004
X64.225Y-44.6
X64.78Y-75.712
X65.002Y-26.385
X65.002Y-22.575
X65.004Y-18.765
X65.004Y-21.305
X65.015Y-34.005
X65.019Y-17.3
X68.61Y-44.474
X69.255Y-66.175
X70.632Y-55.368
X71.479Y-68.163
X73.059Y-69.753
X73.207Y-74.413
X74.25Y-71.92
X74.347Y-43.0
X76.138Y-66.234
X76.44Y-39.265
X76.711Y-70.66
X76.891Y-57.941
X77.875Y-62.062
X80.683Y-45.402
X81.138Y-61.075
X82.871Y-43.362
X84.138Y-47.771
X84.234Y-73.202
X85.323Y-46.35
X86.643Y-72.779
X87.5Y-72.861
X88.399Y-46.149
X88.5Y-73.217
X89.5Y-73.22
X89.673Y-46.601
X90.5Y-73.199
X91.671Y-44.241
X92.307Y-75.307
X92.591Y-43.284
X93.603Y-45.94
X94.307Y-48.119
X94.433Y-49.258
X95.206Y-51.262
X96.825Y-49.019
X98.353Y-58.011
X98.47Y-56.156
X98.833Y-64.013
X98.971Y-58.696
X98.987Y-61.236
X99.078Y-45.253
X101.907Y-55.237
X104.563Y-17.262
X104.566Y-21.741
X106.064Y-37.107
X108.115Y-64.013
X111.022Y-60.034
X111.214Y-21.561
X111.245Y-18.47
X111.595Y-61.492
X114.858Y-57.908
T2
X48.4Y-63.2
X48.4Y-64.4
X48.4Y-65.7
X48.4Y-66.8
X49.6Y-63.2
X49.6Y-64.4
X49.6Y-65.7
X49.6Y-66.8
X53.9Y-24.905
X53.9Y-26.005
X53.9Y-27.105
X55.0Y-24.905
X55.0Y-26.005
X55.0Y-27.105
X56.1Y-24.905
X56.1Y-26.005
X56.1Y-27.105
T3
X52.985Y-67.113
X106.2Y-19.6
X106.2Y-20.8
X109.7Y-19.6
T5
X18.0Y-46.0
X19.27Y-46.0
X20.54Y-46.0
T6
X16.0Y-51.5
X16.0Y-55.0
X16.0Y-58.5
X16.0Y-62.0
X115.0Y-32.5
X115.0Y-36.0
X115.0Y-39.5
X115.0Y-43.0
T7
X22.0Y-38.0
X30.0Y-38.0
X38.0Y-38.0
X46.0Y-39.0
X54.0Y-40.0
X62.0Y-40.0
X70.0Y-38.0
X83.0Y-35.0
X86.0Y-31.0
X94.0Y-31.0
X102.0Y-31.0
X110.0Y-28.0
T4
X70.68Y-73.52G85X70.68Y-74.62
G05
X70.68Y-77.95G85X70.68Y-78.55
G05
X79.32Y-73.52G85X79.32Y-74.62
G05
X79.32Y-77.95G85X79.32Y-78.55
G05
M30
