%TF.GenerationSoftware,KiCad,Pcbnew,10.0.5*%
%TF.CreationDate,2026-08-07T19:43:00+02:00*%
%TF.ProjectId,IDM-RoomSensor-ESP-B-ES2-C6,49444d2d-526f-46f6-9d53-656e736f722d,rev?*%
%TF.SameCoordinates,Original*%
%TF.FileFunction,Copper,L4,Bot*%
%TF.FilePolarity,Positive*%
%FSLAX46Y46*%
G04 Gerber Fmt 4.6, Leading zero omitted, Abs format (unit mm)*
G04 Created by KiCad (PCBNEW 10.0.5) date 2026-08-07 19:43:00*
%MOMM*%
%LPD*%
G01*
G04 APERTURE LIST*
G04 Aperture macros list*
%AMRoundRect*
0 Rectangle with rounded corners*
0 $1 Rounding radius*
0 $2 $3 $4 $5 $6 $7 $8 $9 X,Y pos of 4 corners*
0 Add a 4 corners polygon primitive as box body*
4,1,4,$2,$3,$4,$5,$6,$7,$8,$9,$2,$3,0*
0 Add four circle primitives for the rounded corners*
1,1,$1+$1,$2,$3*
1,1,$1+$1,$4,$5*
1,1,$1+$1,$6,$7*
1,1,$1+$1,$8,$9*
0 Add four rect primitives between the rounded corners*
20,1,$1+$1,$2,$3,$4,$5,0*
20,1,$1+$1,$4,$5,$6,$7,0*
20,1,$1+$1,$6,$7,$8,$9,0*
20,1,$1+$1,$8,$9,$2,$3,0*%
G04 Aperture macros list end*
%TA.AperFunction,ComponentPad*%
%ADD10RoundRect,0.250001X0.949999X-0.949999X0.949999X0.949999X-0.949999X0.949999X-0.949999X-0.949999X0*%
%TD*%
%TA.AperFunction,ComponentPad*%
%ADD11C,2.400000*%
%TD*%
%TA.AperFunction,ComponentPad*%
%ADD12C,3.000000*%
%TD*%
%TA.AperFunction,ComponentPad*%
%ADD13C,0.600000*%
%TD*%
%TA.AperFunction,SMDPad,CuDef*%
%ADD14R,2.950000X4.500000*%
%TD*%
%TA.AperFunction,ComponentPad*%
%ADD15R,1.050000X1.500000*%
%TD*%
%TA.AperFunction,ComponentPad*%
%ADD16O,1.050000X1.500000*%
%TD*%
%TA.AperFunction,ComponentPad*%
%ADD17O,1.000000X2.100000*%
%TD*%
%TA.AperFunction,ComponentPad*%
%ADD18O,1.000000X1.600000*%
%TD*%
%TA.AperFunction,ViaPad*%
%ADD19C,0.600000*%
%TD*%
%TA.AperFunction,ViaPad*%
%ADD20C,0.800000*%
%TD*%
%TA.AperFunction,Conductor*%
%ADD21C,0.200000*%
%TD*%
G04 APERTURE END LIST*
D10*
%TO.P,J2,1*%
%TO.N,RS485_A*%
X115000000Y-43000000D03*
D11*
%TO.P,J2,2*%
%TO.N,RS485_B*%
X115000000Y-39500000D03*
%TO.P,J2,3*%
%TO.N,RS485_COM*%
X115000000Y-36000000D03*
%TO.P,J2,4*%
%TO.N,RS485_SHIELD*%
X115000000Y-32500000D03*
%TD*%
D12*
%TO.P,TP3,1*%
%TO.N,SYS_5V*%
X38000000Y-38000000D03*
%TD*%
%TO.P,TP11,1*%
%TO.N,RS485_COM*%
X102000000Y-31000000D03*
%TD*%
%TO.P,TP12,1*%
%TO.N,GND*%
X110000000Y-28000000D03*
%TD*%
D13*
%TO.P,U1,9*%
%TO.N,GND*%
X48400000Y-63200000D03*
X48400000Y-64400000D03*
X48400000Y-65700000D03*
X48400000Y-66800000D03*
D14*
X49000000Y-65000000D03*
D13*
X49600000Y-63200000D03*
X49600000Y-64400000D03*
X49600000Y-65700000D03*
X49600000Y-66800000D03*
%TD*%
D12*
%TO.P,TP10,1*%
%TO.N,RS485_B*%
X94000000Y-31000000D03*
%TD*%
%TO.P,TP8,1*%
%TO.N,TEMP_KTY*%
X83000000Y-35000000D03*
%TD*%
%TO.P,TP4,1*%
%TO.N,+3V3*%
X46000000Y-39000000D03*
%TD*%
D10*
%TO.P,J1,1*%
%TO.N,TEMP_KTY*%
X16000000Y-62000000D03*
D11*
%TO.P,J1,2*%
%TO.N,24V_RAW*%
X16000000Y-58500000D03*
%TO.P,J1,3*%
%TO.N,GND*%
X16000000Y-55000000D03*
%TO.P,J1,4*%
%TO.N,RH_OUT*%
X16000000Y-51500000D03*
%TD*%
D12*
%TO.P,TP7,1*%
%TO.N,RH_OUT*%
X70000000Y-38000000D03*
%TD*%
%TO.P,TP9,1*%
%TO.N,RS485_A*%
X86000000Y-31000000D03*
%TD*%
D15*
%TO.P,RTH1,1*%
%TO.N,TEMP_KTY*%
X18000000Y-46000000D03*
D16*
%TO.P,RTH1,2*%
%TO.N,GND*%
X19270000Y-46000000D03*
%TO.P,RTH1,3*%
%TO.N,N/C*%
X20540000Y-46000000D03*
%TD*%
D12*
%TO.P,TP5,1*%
%TO.N,I2C_SDA*%
X54000000Y-40000000D03*
%TD*%
%TO.P,TP6,1*%
%TO.N,I2C_SCL*%
X62000000Y-40000000D03*
%TD*%
D13*
%TO.P,U3,29*%
%TO.N,GND*%
X53900000Y-24905000D03*
X53900000Y-26005000D03*
X53900000Y-27105000D03*
X55000000Y-24905000D03*
X55000000Y-26005000D03*
X55000000Y-27105000D03*
X56100000Y-24905000D03*
X56100000Y-26005000D03*
X56100000Y-27105000D03*
%TD*%
D12*
%TO.P,TP2,1*%
%TO.N,24V_PROT*%
X30000000Y-38000000D03*
%TD*%
D17*
%TO.P,J3,SH*%
%TO.N,GND*%
X70680000Y-74070000D03*
D18*
X70680000Y-78250000D03*
D17*
X79320000Y-74070000D03*
D18*
X79320000Y-78250000D03*
%TD*%
D12*
%TO.P,TP1,1*%
%TO.N,24V_RAW*%
X22000000Y-38000000D03*
%TD*%
D19*
%TO.N,+3V3*%
X84234200Y-73202100D03*
X64173400Y-42004000D03*
X101907400Y-55237500D03*
X44995900Y-18765000D03*
X81137500Y-61075100D03*
X111213700Y-21561300D03*
%TO.N,GND*%
X65018500Y-17300200D03*
X98833300Y-64012500D03*
X36327000Y-75712500D03*
X98469800Y-56155800D03*
X69254600Y-66175000D03*
X82870800Y-43362200D03*
X54464200Y-77005100D03*
X111245300Y-18470300D03*
X46992900Y-52312500D03*
X93602900Y-45940100D03*
X76890500Y-57940500D03*
D20*
X109700000Y-19600000D03*
D19*
X68610200Y-44473800D03*
X95206200Y-51262000D03*
X47522500Y-17715800D03*
%TO.N,RS485_RX*%
X98353100Y-58011300D03*
X65002500Y-22575000D03*
%TO.N,RS485_DE*%
X98970700Y-58695800D03*
X65004100Y-18765000D03*
%TO.N,RS485_TX*%
X98986600Y-61235800D03*
X65004100Y-21305000D03*
%TO.N,RS485_COM*%
X108115200Y-64012500D03*
X114858200Y-57908200D03*
X106064400Y-37107300D03*
%TO.N,RS485_A*%
X111594800Y-61492100D03*
%TO.N,RS485_B*%
X111021900Y-60034200D03*
%TO.N,USB_CC2*%
X71478800Y-68163100D03*
X76711300Y-70660000D03*
%TO.N,SYS_5V*%
X60369300Y-76369300D03*
X92307500Y-75307500D03*
X70632100Y-55367900D03*
X77874800Y-62062300D03*
%TO.N,C6_EN*%
X47508600Y-20159800D03*
X64225000Y-44600000D03*
%TO.N,OPAMP_OUT*%
X94433400Y-49258400D03*
X91671000Y-44241500D03*
%TO.N,OPAMP_FB*%
X96825000Y-49019400D03*
X94307000Y-48119500D03*
%TO.N,5V_BUCK*%
X50736300Y-55438700D03*
X54175000Y-72007400D03*
X63282300Y-65000000D03*
%TO.N,DAC_RAW*%
X89673300Y-46600800D03*
X80683200Y-45402400D03*
%TO.N,24V_PROT*%
X41173200Y-53000000D03*
X37773200Y-67773100D03*
X92591000Y-43283700D03*
%TO.N,USB_D-*%
X76137500Y-66234400D03*
X74250000Y-71920500D03*
X47504100Y-32735000D03*
%TO.N,USB_D+*%
X73059500Y-69753000D03*
X47504100Y-34005000D03*
%TO.N,USB_5V*%
X64779900Y-75712500D03*
X73206600Y-74413200D03*
%TO.N,STATUS_LED*%
X47532500Y-28912500D03*
X76439900Y-39264900D03*
%TO.N,PWR_GOOD*%
X48989800Y-58162500D03*
X47102300Y-67707300D03*
%TO.N,BUCK_FB*%
X55362800Y-71998900D03*
D20*
X52984600Y-67112900D03*
D19*
%TO.N,VCC_BYP*%
X46959700Y-71090300D03*
X53980300Y-66304800D03*
%TO.N,BOOT*%
X53225000Y-59001000D03*
X53002900Y-64365000D03*
%TO.N,RH_OUT*%
X99078400Y-45253400D03*
%TO.N,I2C_SDA*%
X84137500Y-47771500D03*
X86642900Y-72779100D03*
X47504100Y-23845000D03*
D20*
X106200000Y-19600000D03*
D19*
X104563300Y-17261700D03*
%TO.N,24V_RAW*%
X25787900Y-64925400D03*
%TO.N,I2C_SCL*%
X88398900Y-46149000D03*
X104566200Y-21741200D03*
X85322900Y-46350300D03*
X87500000Y-72860500D03*
D20*
X106200000Y-20800000D03*
D19*
X47502500Y-25115000D03*
%TO.N,ONEWIRE*%
X65001700Y-26385000D03*
X88500000Y-73217100D03*
%TO.N,EXP_GPIO4*%
X89500000Y-73220400D03*
X47504100Y-21305000D03*
%TO.N,EXP_GPIO5*%
X47504100Y-22575000D03*
X90500000Y-73198700D03*
%TO.N,C6_BOOT*%
X65014700Y-34005000D03*
X74347200Y-43000000D03*
%TD*%
%TO.N,+3V3*%
D21*
X81137500Y-61075100D02*
X81137500Y-70105400D01*
X81137500Y-70105400D02*
X84234200Y-73202100D01*
%TO.N,BUCK_FB*%
X52984600Y-67112900D02*
X55362800Y-69491100D01*
X55362800Y-69491100D02*
X55362800Y-71998900D01*
%TO.N,I2C_SDA*%
X54000000Y-40000000D02*
X54000000Y-30340900D01*
X54000000Y-30340900D02*
X47504100Y-23845000D01*
%TD*%
M02*
